ISO-10303-21;
HEADER;
/* Generated by software containing ST-Developer
 * from STEP Tools, Inc. (www.steptools.com) 
 */
/* OPTION: using custom renumber hook */

FILE_DESCRIPTION(
/* description */ ('STEP AP242 Edition 2',
'CAx-IF Rec.Pracs.---Representation and Presentation of Product Manufa
cturing Information (PMI)---4.0---2014-10-13',
'CAx-IF Rec.Pracs.---3D Tessellated Geometry---0.4---2014-09-14','2;1',
'CAx-IF Rec.Pracs.---User Defined Attributes---1.5---2016-08-15'),
/* implementation_level */ '2;1');

FILE_NAME(
/* name */ 'Part Studio 1 - base_connector',
/* time_stamp */ '2026-08-24T08:33:54Z',
/* author */ (''),
/* organization */ (''),
/* preprocessor_version */ 'ST-DEVELOPER v20',
/* originating_system */ 'ONSHAPE BY PTC INC, 1.219',
/* authorisation */ '  ');

FILE_SCHEMA (('AP242_MANAGED_MODEL_BASED_3D_ENGINEERING_MIM_LF { 1 0 10303 442 3 1 4 }'));
ENDSEC;

DATA;
#10=SHAPE_REPRESENTATION_RELATIONSHIP('','',#439,#11);
#11=ADVANCED_BREP_SHAPE_REPRESENTATION('',(#437),#757);
#12=CONICAL_SURFACE('',#487,0.00165,0.785398163397448);
#13=CONICAL_SURFACE('',#490,0.00165,0.785398163397448);
#14=CONICAL_SURFACE('',#493,0.00165,0.785398163397448);
#15=CONICAL_SURFACE('',#496,0.00165,0.785398163397448);
#16=CONICAL_SURFACE('',#499,0.0015,0.785398163397448);
#17=CONICAL_SURFACE('',#502,0.0015,0.785398163397448);
#18=PLANE('',#471);
#19=PLANE('',#478);
#20=PLANE('',#489);
#21=PLANE('',#492);
#22=PLANE('',#495);
#23=PLANE('',#498);
#24=PLANE('',#501);
#25=PLANE('',#504);
#26=ORIENTED_EDGE('',*,*,#106,.T.);
#27=ORIENTED_EDGE('',*,*,#107,.F.);
#28=ORIENTED_EDGE('',*,*,#108,.T.);
#29=ORIENTED_EDGE('',*,*,#109,.F.);
#30=ORIENTED_EDGE('',*,*,#110,.T.);
#31=ORIENTED_EDGE('',*,*,#111,.F.);
#32=ORIENTED_EDGE('',*,*,#112,.T.);
#33=ORIENTED_EDGE('',*,*,#113,.F.);
#34=ORIENTED_EDGE('',*,*,#114,.T.);
#35=ORIENTED_EDGE('',*,*,#115,.F.);
#36=ORIENTED_EDGE('',*,*,#116,.T.);
#37=ORIENTED_EDGE('',*,*,#117,.F.);
#38=ORIENTED_EDGE('',*,*,#118,.T.);
#39=ORIENTED_EDGE('',*,*,#119,.F.);
#40=ORIENTED_EDGE('',*,*,#120,.T.);
#41=ORIENTED_EDGE('',*,*,#121,.F.);
#42=ORIENTED_EDGE('',*,*,#122,.T.);
#43=ORIENTED_EDGE('',*,*,#123,.F.);
#44=ORIENTED_EDGE('',*,*,#124,.F.);
#45=ORIENTED_EDGE('',*,*,#125,.T.);
#46=ORIENTED_EDGE('',*,*,#126,.F.);
#47=ORIENTED_EDGE('',*,*,#127,.F.);
#48=ORIENTED_EDGE('',*,*,#128,.F.);
#49=ORIENTED_EDGE('',*,*,#129,.F.);
#50=ORIENTED_EDGE('',*,*,#130,.T.);
#51=ORIENTED_EDGE('',*,*,#131,.T.);
#52=ORIENTED_EDGE('',*,*,#122,.F.);
#53=ORIENTED_EDGE('',*,*,#120,.F.);
#54=ORIENTED_EDGE('',*,*,#118,.F.);
#55=ORIENTED_EDGE('',*,*,#116,.F.);
#56=ORIENTED_EDGE('',*,*,#114,.F.);
#57=ORIENTED_EDGE('',*,*,#112,.F.);
#58=ORIENTED_EDGE('',*,*,#110,.F.);
#59=ORIENTED_EDGE('',*,*,#108,.F.);
#60=ORIENTED_EDGE('',*,*,#106,.F.);
#61=ORIENTED_EDGE('',*,*,#124,.T.);
#62=ORIENTED_EDGE('',*,*,#132,.F.);
#63=ORIENTED_EDGE('',*,*,#133,.F.);
#64=ORIENTED_EDGE('',*,*,#134,.F.);
#65=ORIENTED_EDGE('',*,*,#135,.F.);
#66=ORIENTED_EDGE('',*,*,#136,.F.);
#67=ORIENTED_EDGE('',*,*,#137,.F.);
#68=ORIENTED_EDGE('',*,*,#138,.F.);
#69=ORIENTED_EDGE('',*,*,#139,.F.);
#70=ORIENTED_EDGE('',*,*,#123,.T.);
#71=ORIENTED_EDGE('',*,*,#121,.T.);
#72=ORIENTED_EDGE('',*,*,#119,.T.);
#73=ORIENTED_EDGE('',*,*,#117,.T.);
#74=ORIENTED_EDGE('',*,*,#115,.T.);
#75=ORIENTED_EDGE('',*,*,#113,.T.);
#76=ORIENTED_EDGE('',*,*,#111,.T.);
#77=ORIENTED_EDGE('',*,*,#109,.T.);
#78=ORIENTED_EDGE('',*,*,#107,.T.);
#79=ORIENTED_EDGE('',*,*,#125,.F.);
#80=ORIENTED_EDGE('',*,*,#140,.T.);
#81=ORIENTED_EDGE('',*,*,#131,.F.);
#82=ORIENTED_EDGE('',*,*,#140,.F.);
#83=ORIENTED_EDGE('',*,*,#141,.T.);
#84=ORIENTED_EDGE('',*,*,#130,.F.);
#85=ORIENTED_EDGE('',*,*,#141,.F.);
#86=ORIENTED_EDGE('',*,*,#142,.F.);
#87=ORIENTED_EDGE('',*,*,#139,.T.);
#88=ORIENTED_EDGE('',*,*,#142,.T.);
#89=ORIENTED_EDGE('',*,*,#143,.F.);
#90=ORIENTED_EDGE('',*,*,#138,.T.);
#91=ORIENTED_EDGE('',*,*,#143,.T.);
#92=ORIENTED_EDGE('',*,*,#144,.F.);
#93=ORIENTED_EDGE('',*,*,#137,.T.);
#94=ORIENTED_EDGE('',*,*,#144,.T.);
#95=ORIENTED_EDGE('',*,*,#145,.F.);
#96=ORIENTED_EDGE('',*,*,#136,.T.);
#97=ORIENTED_EDGE('',*,*,#145,.T.);
#98=ORIENTED_EDGE('',*,*,#129,.T.);
#99=ORIENTED_EDGE('',*,*,#135,.T.);
#100=ORIENTED_EDGE('',*,*,#128,.T.);
#101=ORIENTED_EDGE('',*,*,#134,.T.);
#102=ORIENTED_EDGE('',*,*,#127,.T.);
#103=ORIENTED_EDGE('',*,*,#133,.T.);
#104=ORIENTED_EDGE('',*,*,#126,.T.);
#105=ORIENTED_EDGE('',*,*,#132,.T.);
#106=EDGE_CURVE('',#146,#146,#186,.T.);
#107=EDGE_CURVE('',#147,#147,#187,.T.);
#108=EDGE_CURVE('',#148,#148,#188,.T.);
#109=EDGE_CURVE('',#149,#149,#189,.T.);
#110=EDGE_CURVE('',#150,#150,#190,.T.);
#111=EDGE_CURVE('',#151,#151,#191,.T.);
#112=EDGE_CURVE('',#152,#152,#192,.T.);
#113=EDGE_CURVE('',#153,#153,#193,.T.);
#114=EDGE_CURVE('',#154,#154,#194,.T.);
#115=EDGE_CURVE('',#155,#155,#195,.T.);
#116=EDGE_CURVE('',#156,#156,#196,.T.);
#117=EDGE_CURVE('',#157,#157,#197,.T.);
#118=EDGE_CURVE('',#158,#158,#198,.T.);
#119=EDGE_CURVE('',#159,#159,#199,.T.);
#120=EDGE_CURVE('',#160,#160,#200,.T.);
#121=EDGE_CURVE('',#161,#161,#201,.T.);
#122=EDGE_CURVE('',#162,#162,#202,.T.);
#123=EDGE_CURVE('',#163,#163,#203,.T.);
#124=EDGE_CURVE('',#164,#164,#204,.T.);
#125=EDGE_CURVE('',#165,#165,#205,.T.);
#126=EDGE_CURVE('',#166,#166,#206,.T.);
#127=EDGE_CURVE('',#167,#167,#207,.T.);
#128=EDGE_CURVE('',#168,#168,#208,.T.);
#129=EDGE_CURVE('',#169,#169,#209,.T.);
#130=EDGE_CURVE('',#170,#170,#210,.F.);
#131=EDGE_CURVE('',#171,#171,#211,.F.);
#132=EDGE_CURVE('',#172,#172,#212,.T.);
#133=EDGE_CURVE('',#173,#173,#213,.T.);
#134=EDGE_CURVE('',#174,#174,#214,.T.);
#135=EDGE_CURVE('',#175,#175,#215,.T.);
#136=EDGE_CURVE('',#176,#176,#216,.F.);
#137=EDGE_CURVE('',#177,#177,#217,.F.);
#138=EDGE_CURVE('',#178,#178,#218,.T.);
#139=EDGE_CURVE('',#179,#179,#219,.T.);
#140=EDGE_CURVE('',#180,#180,#220,.F.);
#141=EDGE_CURVE('',#181,#181,#221,.F.);
#142=EDGE_CURVE('',#182,#182,#222,.T.);
#143=EDGE_CURVE('',#183,#183,#223,.T.);
#144=EDGE_CURVE('',#184,#184,#224,.T.);
#145=EDGE_CURVE('',#185,#185,#225,.T.);
#146=VERTEX_POINT('',#650);
#147=VERTEX_POINT('',#652);
#148=VERTEX_POINT('',#655);
#149=VERTEX_POINT('',#657);
#150=VERTEX_POINT('',#660);
#151=VERTEX_POINT('',#662);
#152=VERTEX_POINT('',#665);
#153=VERTEX_POINT('',#667);
#154=VERTEX_POINT('',#670);
#155=VERTEX_POINT('',#672);
#156=VERTEX_POINT('',#675);
#157=VERTEX_POINT('',#677);
#158=VERTEX_POINT('',#680);
#159=VERTEX_POINT('',#682);
#160=VERTEX_POINT('',#685);
#161=VERTEX_POINT('',#687);
#162=VERTEX_POINT('',#690);
#163=VERTEX_POINT('',#692);
#164=VERTEX_POINT('',#695);
#165=VERTEX_POINT('',#697);
#166=VERTEX_POINT('',#700);
#167=VERTEX_POINT('',#702);
#168=VERTEX_POINT('',#704);
#169=VERTEX_POINT('',#706);
#170=VERTEX_POINT('',#708);
#171=VERTEX_POINT('',#710);
#172=VERTEX_POINT('',#713);
#173=VERTEX_POINT('',#715);
#174=VERTEX_POINT('',#717);
#175=VERTEX_POINT('',#719);
#176=VERTEX_POINT('',#721);
#177=VERTEX_POINT('',#723);
#178=VERTEX_POINT('',#725);
#179=VERTEX_POINT('',#727);
#180=VERTEX_POINT('',#730);
#181=VERTEX_POINT('',#734);
#182=VERTEX_POINT('',#738);
#183=VERTEX_POINT('',#742);
#184=VERTEX_POINT('',#746);
#185=VERTEX_POINT('',#750);
#186=CIRCLE('',#442,0.0015);
#187=CIRCLE('',#443,0.0015);
#188=CIRCLE('',#445,0.0015);
#189=CIRCLE('',#446,0.0015);
#190=CIRCLE('',#448,0.0015);
#191=CIRCLE('',#449,0.0015);
#192=CIRCLE('',#451,0.0015);
#193=CIRCLE('',#452,0.0015);
#194=CIRCLE('',#454,0.0015);
#195=CIRCLE('',#455,0.0015);
#196=CIRCLE('',#457,0.0015);
#197=CIRCLE('',#458,0.0015);
#198=CIRCLE('',#460,0.0015);
#199=CIRCLE('',#461,0.0015);
#200=CIRCLE('',#463,0.0015);
#201=CIRCLE('',#464,0.0015);
#202=CIRCLE('',#466,0.0075);
#203=CIRCLE('',#467,0.0075);
#204=CIRCLE('',#469,0.03);
#205=CIRCLE('',#470,0.03);
#206=CIRCLE('',#472,0.0015);
#207=CIRCLE('',#473,0.0015);
#208=CIRCLE('',#474,0.0015);
#209=CIRCLE('',#475,0.0015);
#210=CIRCLE('',#476,0.00165);
#211=CIRCLE('',#477,0.00165);
#212=CIRCLE('',#479,0.0015);
#213=CIRCLE('',#480,0.0015);
#214=CIRCLE('',#481,0.0015);
#215=CIRCLE('',#482,0.0015);
#216=CIRCLE('',#483,0.0015);
#217=CIRCLE('',#484,0.0015);
#218=CIRCLE('',#485,0.00165);
#219=CIRCLE('',#486,0.00165);
#220=CIRCLE('',#488,0.00065);
#221=CIRCLE('',#491,0.00065);
#222=CIRCLE('',#494,0.00095);
#223=CIRCLE('',#497,0.00095);
#224=CIRCLE('',#500,0.0008);
#225=CIRCLE('',#503,0.0008);
#226=EDGE_LOOP('',(#26));
#227=EDGE_LOOP('',(#27));
#228=EDGE_LOOP('',(#28));
#229=EDGE_LOOP('',(#29));
#230=EDGE_LOOP('',(#30));
#231=EDGE_LOOP('',(#31));
#232=EDGE_LOOP('',(#32));
#233=EDGE_LOOP('',(#33));
#234=EDGE_LOOP('',(#34));
#235=EDGE_LOOP('',(#35));
#236=EDGE_LOOP('',(#36));
#237=EDGE_LOOP('',(#37));
#238=EDGE_LOOP('',(#38));
#239=EDGE_LOOP('',(#39));
#240=EDGE_LOOP('',(#40));
#241=EDGE_LOOP('',(#41));
#242=EDGE_LOOP('',(#42));
#243=EDGE_LOOP('',(#43));
#244=EDGE_LOOP('',(#44));
#245=EDGE_LOOP('',(#45));
#246=EDGE_LOOP('',(#46));
#247=EDGE_LOOP('',(#47));
#248=EDGE_LOOP('',(#48));
#249=EDGE_LOOP('',(#49));
#250=EDGE_LOOP('',(#50));
#251=EDGE_LOOP('',(#51));
#252=EDGE_LOOP('',(#52));
#253=EDGE_LOOP('',(#53));
#254=EDGE_LOOP('',(#54));
#255=EDGE_LOOP('',(#55));
#256=EDGE_LOOP('',(#56));
#257=EDGE_LOOP('',(#57));
#258=EDGE_LOOP('',(#58));
#259=EDGE_LOOP('',(#59));
#260=EDGE_LOOP('',(#60));
#261=EDGE_LOOP('',(#61));
#262=EDGE_LOOP('',(#62));
#263=EDGE_LOOP('',(#63));
#264=EDGE_LOOP('',(#64));
#265=EDGE_LOOP('',(#65));
#266=EDGE_LOOP('',(#66));
#267=EDGE_LOOP('',(#67));
#268=EDGE_LOOP('',(#68));
#269=EDGE_LOOP('',(#69));
#270=EDGE_LOOP('',(#70));
#271=EDGE_LOOP('',(#71));
#272=EDGE_LOOP('',(#72));
#273=EDGE_LOOP('',(#73));
#274=EDGE_LOOP('',(#74));
#275=EDGE_LOOP('',(#75));
#276=EDGE_LOOP('',(#76));
#277=EDGE_LOOP('',(#77));
#278=EDGE_LOOP('',(#78));
#279=EDGE_LOOP('',(#79));
#280=EDGE_LOOP('',(#80));
#281=EDGE_LOOP('',(#81));
#282=EDGE_LOOP('',(#82));
#283=EDGE_LOOP('',(#83));
#284=EDGE_LOOP('',(#84));
#285=EDGE_LOOP('',(#85));
#286=EDGE_LOOP('',(#86));
#287=EDGE_LOOP('',(#87));
#288=EDGE_LOOP('',(#88));
#289=EDGE_LOOP('',(#89));
#290=EDGE_LOOP('',(#90));
#291=EDGE_LOOP('',(#91));
#292=EDGE_LOOP('',(#92));
#293=EDGE_LOOP('',(#93));
#294=EDGE_LOOP('',(#94));
#295=EDGE_LOOP('',(#95));
#296=EDGE_LOOP('',(#96));
#297=EDGE_LOOP('',(#97));
#298=EDGE_LOOP('',(#98));
#299=EDGE_LOOP('',(#99));
#300=EDGE_LOOP('',(#100));
#301=EDGE_LOOP('',(#101));
#302=EDGE_LOOP('',(#102));
#303=EDGE_LOOP('',(#103));
#304=EDGE_LOOP('',(#104));
#305=EDGE_LOOP('',(#105));
#306=FACE_BOUND('',#226,.T.);
#307=FACE_BOUND('',#227,.T.);
#308=FACE_BOUND('',#228,.T.);
#309=FACE_BOUND('',#229,.T.);
#310=FACE_BOUND('',#230,.T.);
#311=FACE_BOUND('',#231,.T.);
#312=FACE_BOUND('',#232,.T.);
#313=FACE_BOUND('',#233,.T.);
#314=FACE_BOUND('',#234,.T.);
#315=FACE_BOUND('',#235,.T.);
#316=FACE_BOUND('',#236,.T.);
#317=FACE_BOUND('',#237,.T.);
#318=FACE_BOUND('',#238,.T.);
#319=FACE_BOUND('',#239,.T.);
#320=FACE_BOUND('',#240,.T.);
#321=FACE_BOUND('',#241,.T.);
#322=FACE_BOUND('',#242,.T.);
#323=FACE_BOUND('',#243,.T.);
#324=FACE_BOUND('',#244,.T.);
#325=FACE_BOUND('',#245,.T.);
#326=FACE_BOUND('',#246,.T.);
#327=FACE_BOUND('',#247,.T.);
#328=FACE_BOUND('',#248,.T.);
#329=FACE_BOUND('',#249,.T.);
#330=FACE_BOUND('',#250,.T.);
#331=FACE_BOUND('',#251,.T.);
#332=FACE_BOUND('',#252,.T.);
#333=FACE_BOUND('',#253,.T.);
#334=FACE_BOUND('',#254,.T.);
#335=FACE_BOUND('',#255,.T.);
#336=FACE_BOUND('',#256,.T.);
#337=FACE_BOUND('',#257,.T.);
#338=FACE_BOUND('',#258,.T.);
#339=FACE_BOUND('',#259,.T.);
#340=FACE_BOUND('',#260,.T.);
#341=FACE_BOUND('',#261,.T.);
#342=FACE_BOUND('',#262,.T.);
#343=FACE_BOUND('',#263,.T.);
#344=FACE_BOUND('',#264,.T.);
#345=FACE_BOUND('',#265,.T.);
#346=FACE_BOUND('',#266,.T.);
#347=FACE_BOUND('',#267,.T.);
#348=FACE_BOUND('',#268,.T.);
#349=FACE_BOUND('',#269,.T.);
#350=FACE_BOUND('',#270,.T.);
#351=FACE_BOUND('',#271,.T.);
#352=FACE_BOUND('',#272,.T.);
#353=FACE_BOUND('',#273,.T.);
#354=FACE_BOUND('',#274,.T.);
#355=FACE_BOUND('',#275,.T.);
#356=FACE_BOUND('',#276,.T.);
#357=FACE_BOUND('',#277,.T.);
#358=FACE_BOUND('',#278,.T.);
#359=FACE_BOUND('',#279,.T.);
#360=FACE_BOUND('',#280,.T.);
#361=FACE_BOUND('',#281,.T.);
#362=FACE_BOUND('',#282,.T.);
#363=FACE_BOUND('',#283,.T.);
#364=FACE_BOUND('',#284,.T.);
#365=FACE_BOUND('',#285,.T.);
#366=FACE_BOUND('',#286,.T.);
#367=FACE_BOUND('',#287,.T.);
#368=FACE_BOUND('',#288,.T.);
#369=FACE_BOUND('',#289,.T.);
#370=FACE_BOUND('',#290,.T.);
#371=FACE_BOUND('',#291,.T.);
#372=FACE_BOUND('',#292,.T.);
#373=FACE_BOUND('',#293,.T.);
#374=FACE_BOUND('',#294,.T.);
#375=FACE_BOUND('',#295,.T.);
#376=FACE_BOUND('',#296,.T.);
#377=FACE_BOUND('',#297,.T.);
#378=FACE_BOUND('',#298,.T.);
#379=FACE_BOUND('',#299,.T.);
#380=FACE_BOUND('',#300,.T.);
#381=FACE_BOUND('',#301,.T.);
#382=FACE_BOUND('',#302,.T.);
#383=FACE_BOUND('',#303,.T.);
#384=FACE_BOUND('',#304,.T.);
#385=FACE_BOUND('',#305,.T.);
#386=CYLINDRICAL_SURFACE('',#441,0.0015);
#387=CYLINDRICAL_SURFACE('',#444,0.0015);
#388=CYLINDRICAL_SURFACE('',#447,0.0015);
#389=CYLINDRICAL_SURFACE('',#450,0.0015);
#390=CYLINDRICAL_SURFACE('',#453,0.0015);
#391=CYLINDRICAL_SURFACE('',#456,0.0015);
#392=CYLINDRICAL_SURFACE('',#459,0.0015);
#393=CYLINDRICAL_SURFACE('',#462,0.0015);
#394=CYLINDRICAL_SURFACE('',#465,0.0075);
#395=CYLINDRICAL_SURFACE('',#468,0.03);
#396=CYLINDRICAL_SURFACE('',#505,0.0015);
#397=CYLINDRICAL_SURFACE('',#506,0.0015);
#398=CYLINDRICAL_SURFACE('',#507,0.0015);
#399=CYLINDRICAL_SURFACE('',#508,0.0015);
#400=ADVANCED_FACE('',(#306,#307),#386,.F.);
#401=ADVANCED_FACE('',(#308,#309),#387,.F.);
#402=ADVANCED_FACE('',(#310,#311),#388,.F.);
#403=ADVANCED_FACE('',(#312,#313),#389,.F.);
#404=ADVANCED_FACE('',(#314,#315),#390,.F.);
#405=ADVANCED_FACE('',(#316,#317),#391,.F.);
#406=ADVANCED_FACE('',(#318,#319),#392,.F.);
#407=ADVANCED_FACE('',(#320,#321),#393,.F.);
#408=ADVANCED_FACE('',(#322,#323),#394,.F.);
#409=ADVANCED_FACE('',(#324,#325),#395,.T.);
#410=ADVANCED_FACE('',(#326,#327,#328,#329,#330,#331,#332,#333,#334,#335,
#336,#337,#338,#339,#340,#341),#18,.T.);
#411=ADVANCED_FACE('',(#342,#343,#344,#345,#346,#347,#348,#349,#350,#351,
#352,#353,#354,#355,#356,#357,#358,#359),#19,.F.);
#412=ADVANCED_FACE('',(#360,#361),#12,.F.);
#413=ADVANCED_FACE('',(#362),#20,.T.);
#414=ADVANCED_FACE('',(#363,#364),#13,.F.);
#415=ADVANCED_FACE('',(#365),#21,.T.);
#416=ADVANCED_FACE('',(#366,#367),#14,.T.);
#417=ADVANCED_FACE('',(#368),#22,.T.);
#418=ADVANCED_FACE('',(#369,#370),#15,.T.);
#419=ADVANCED_FACE('',(#371),#23,.T.);
#420=ADVANCED_FACE('',(#372,#373),#16,.T.);
#421=ADVANCED_FACE('',(#374),#24,.T.);
#422=ADVANCED_FACE('',(#375,#376),#17,.T.);
#423=ADVANCED_FACE('',(#377),#25,.T.);
#424=ADVANCED_FACE('',(#378,#379),#396,.F.);
#425=ADVANCED_FACE('',(#380,#381),#397,.F.);
#426=ADVANCED_FACE('',(#382,#383),#398,.F.);
#427=ADVANCED_FACE('',(#384,#385),#399,.F.);
#428=CLOSED_SHELL('',(#400,#401,#402,#403,#404,#405,#406,#407,#408,#409,
#410,#411,#412,#413,#414,#415,#416,#417,#418,#419,#420,#421,#422,#423,#424,
#425,#426,#427));
#429=STYLED_ITEM('',(#430),#437);
#430=PRESENTATION_STYLE_ASSIGNMENT((#431));
#431=SURFACE_STYLE_USAGE(.BOTH.,#432);
#432=SURFACE_SIDE_STYLE('',(#433));
#433=SURFACE_STYLE_FILL_AREA(#434);
#434=FILL_AREA_STYLE('',(#435));
#435=FILL_AREA_STYLE_COLOUR('',#436);
#436=COLOUR_RGB('',0.231372549019608,0.380392156862745,0.705882352941177);
#437=MANIFOLD_SOLID_BREP('base_connector',#428);
#438=SHAPE_DEFINITION_REPRESENTATION(#762,#439);
#439=SHAPE_REPRESENTATION('base_connector',(#440),#757);
#440=AXIS2_PLACEMENT_3D('',#647,#509,#510);
#441=AXIS2_PLACEMENT_3D('',#648,#511,#512);
#442=AXIS2_PLACEMENT_3D('',#649,#513,#514);
#443=AXIS2_PLACEMENT_3D('',#651,#515,#516);
#444=AXIS2_PLACEMENT_3D('',#653,#517,#518);
#445=AXIS2_PLACEMENT_3D('',#654,#519,#520);
#446=AXIS2_PLACEMENT_3D('',#656,#521,#522);
#447=AXIS2_PLACEMENT_3D('',#658,#523,#524);
#448=AXIS2_PLACEMENT_3D('',#659,#525,#526);
#449=AXIS2_PLACEMENT_3D('',#661,#527,#528);
#450=AXIS2_PLACEMENT_3D('',#663,#529,#530);
#451=AXIS2_PLACEMENT_3D('',#664,#531,#532);
#452=AXIS2_PLACEMENT_3D('',#666,#533,#534);
#453=AXIS2_PLACEMENT_3D('',#668,#535,#536);
#454=AXIS2_PLACEMENT_3D('',#669,#537,#538);
#455=AXIS2_PLACEMENT_3D('',#671,#539,#540);
#456=AXIS2_PLACEMENT_3D('',#673,#541,#542);
#457=AXIS2_PLACEMENT_3D('',#674,#543,#544);
#458=AXIS2_PLACEMENT_3D('',#676,#545,#546);
#459=AXIS2_PLACEMENT_3D('',#678,#547,#548);
#460=AXIS2_PLACEMENT_3D('',#679,#549,#550);
#461=AXIS2_PLACEMENT_3D('',#681,#551,#552);
#462=AXIS2_PLACEMENT_3D('',#683,#553,#554);
#463=AXIS2_PLACEMENT_3D('',#684,#555,#556);
#464=AXIS2_PLACEMENT_3D('',#686,#557,#558);
#465=AXIS2_PLACEMENT_3D('',#688,#559,#560);
#466=AXIS2_PLACEMENT_3D('',#689,#561,#562);
#467=AXIS2_PLACEMENT_3D('',#691,#563,#564);
#468=AXIS2_PLACEMENT_3D('',#693,#565,#566);
#469=AXIS2_PLACEMENT_3D('',#694,#567,#568);
#470=AXIS2_PLACEMENT_3D('',#696,#569,#570);
#471=AXIS2_PLACEMENT_3D('',#698,#571,#572);
#472=AXIS2_PLACEMENT_3D('',#699,#573,#574);
#473=AXIS2_PLACEMENT_3D('',#701,#575,#576);
#474=AXIS2_PLACEMENT_3D('',#703,#577,#578);
#475=AXIS2_PLACEMENT_3D('',#705,#579,#580);
#476=AXIS2_PLACEMENT_3D('',#707,#581,#582);
#477=AXIS2_PLACEMENT_3D('',#709,#583,#584);
#478=AXIS2_PLACEMENT_3D('',#711,#585,#586);
#479=AXIS2_PLACEMENT_3D('',#712,#587,#588);
#480=AXIS2_PLACEMENT_3D('',#714,#589,#590);
#481=AXIS2_PLACEMENT_3D('',#716,#591,#592);
#482=AXIS2_PLACEMENT_3D('',#718,#593,#594);
#483=AXIS2_PLACEMENT_3D('',#720,#595,#596);
#484=AXIS2_PLACEMENT_3D('',#722,#597,#598);
#485=AXIS2_PLACEMENT_3D('',#724,#599,#600);
#486=AXIS2_PLACEMENT_3D('',#726,#601,#602);
#487=AXIS2_PLACEMENT_3D('',#728,#603,#604);
#488=AXIS2_PLACEMENT_3D('',#729,#605,#606);
#489=AXIS2_PLACEMENT_3D('',#731,#607,#608);
#490=AXIS2_PLACEMENT_3D('',#732,#609,#610);
#491=AXIS2_PLACEMENT_3D('',#733,#611,#612);
#492=AXIS2_PLACEMENT_3D('',#735,#613,#614);
#493=AXIS2_PLACEMENT_3D('',#736,#615,#616);
#494=AXIS2_PLACEMENT_3D('',#737,#617,#618);
#495=AXIS2_PLACEMENT_3D('',#739,#619,#620);
#496=AXIS2_PLACEMENT_3D('',#740,#621,#622);
#497=AXIS2_PLACEMENT_3D('',#741,#623,#624);
#498=AXIS2_PLACEMENT_3D('',#743,#625,#626);
#499=AXIS2_PLACEMENT_3D('',#744,#627,#628);
#500=AXIS2_PLACEMENT_3D('',#745,#629,#630);
#501=AXIS2_PLACEMENT_3D('',#747,#631,#632);
#502=AXIS2_PLACEMENT_3D('',#748,#633,#634);
#503=AXIS2_PLACEMENT_3D('',#749,#635,#636);
#504=AXIS2_PLACEMENT_3D('',#751,#637,#638);
#505=AXIS2_PLACEMENT_3D('',#752,#639,#640);
#506=AXIS2_PLACEMENT_3D('',#753,#641,#642);
#507=AXIS2_PLACEMENT_3D('',#754,#643,#644);
#508=AXIS2_PLACEMENT_3D('',#755,#645,#646);
#509=DIRECTION('',(0.,0.,1.));
#510=DIRECTION('',(1.,0.,0.));
#511=DIRECTION('',(-1.22464679914735E-16,0.,1.));
#512=DIRECTION('',(1.,0.,1.22464679914735E-16));
#513=DIRECTION('',(1.22464679914735E-16,0.,-1.));
#514=DIRECTION('',(-1.,0.,-1.22464679914735E-16));
#515=DIRECTION('',(1.22464679914735E-16,0.,-1.));
#516=DIRECTION('',(-1.,0.,-1.22464679914735E-16));
#517=DIRECTION('',(-1.22464679914735E-16,0.,1.));
#518=DIRECTION('',(1.,0.,1.22464679914735E-16));
#519=DIRECTION('',(1.22464679914735E-16,0.,-1.));
#520=DIRECTION('',(-1.,0.,-1.22464679914735E-16));
#521=DIRECTION('',(1.22464679914735E-16,0.,-1.));
#522=DIRECTION('',(-1.,0.,-1.22464679914735E-16));
#523=DIRECTION('',(-1.22464679914735E-16,0.,1.));
#524=DIRECTION('',(1.,0.,1.22464679914735E-16));
#525=DIRECTION('',(1.22464679914735E-16,0.,-1.));
#526=DIRECTION('',(-1.,0.,-1.22464679914735E-16));
#527=DIRECTION('',(1.22464679914735E-16,0.,-1.));
#528=DIRECTION('',(-1.,0.,-1.22464679914735E-16));
#529=DIRECTION('',(-1.22464679914735E-16,0.,1.));
#530=DIRECTION('',(1.,0.,1.22464679914735E-16));
#531=DIRECTION('',(1.22464679914735E-16,0.,-1.));
#532=DIRECTION('',(-1.,0.,-1.22464679914735E-16));
#533=DIRECTION('',(1.22464679914735E-16,0.,-1.));
#534=DIRECTION('',(-1.,0.,-1.22464679914735E-16));
#535=DIRECTION('',(-1.22464679914735E-16,0.,1.));
#536=DIRECTION('',(1.,0.,1.22464679914735E-16));
#537=DIRECTION('',(1.22464679914735E-16,0.,-1.));
#538=DIRECTION('',(-1.,0.,-1.22464679914735E-16));
#539=DIRECTION('',(1.22464679914735E-16,0.,-1.));
#540=DIRECTION('',(-1.,0.,-1.22464679914735E-16));
#541=DIRECTION('',(-1.22464679914735E-16,0.,1.));
#542=DIRECTION('',(1.,0.,1.22464679914735E-16));
#543=DIRECTION('',(1.22464679914735E-16,0.,-1.));
#544=DIRECTION('',(-1.,0.,-1.22464679914735E-16));
#545=DIRECTION('',(1.22464679914735E-16,0.,-1.));
#546=DIRECTION('',(-1.,0.,-1.22464679914735E-16));
#547=DIRECTION('',(-1.22464679914735E-16,0.,1.));
#548=DIRECTION('',(1.,0.,1.22464679914735E-16));
#549=DIRECTION('',(1.22464679914735E-16,0.,-1.));
#550=DIRECTION('',(-1.,0.,-1.22464679914735E-16));
#551=DIRECTION('',(1.22464679914735E-16,0.,-1.));
#552=DIRECTION('',(-1.,0.,-1.22464679914735E-16));
#553=DIRECTION('',(-1.22464679914735E-16,0.,1.));
#554=DIRECTION('',(1.,0.,1.22464679914735E-16));
#555=DIRECTION('',(1.22464679914735E-16,0.,-1.));
#556=DIRECTION('',(-1.,0.,-1.22464679914735E-16));
#557=DIRECTION('',(1.22464679914735E-16,0.,-1.));
#558=DIRECTION('',(-1.,0.,-1.22464679914735E-16));
#559=DIRECTION('',(-1.22464679914735E-16,0.,1.));
#560=DIRECTION('',(1.,0.,1.22464679914735E-16));
#561=DIRECTION('',(1.22464679914735E-16,0.,-1.));
#562=DIRECTION('',(-1.,0.,-1.22464679914735E-16));
#563=DIRECTION('',(1.22464679914735E-16,0.,-1.));
#564=DIRECTION('',(-1.,0.,-1.22464679914735E-16));
#565=DIRECTION('',(-1.22464679914735E-16,0.,1.));
#566=DIRECTION('',(1.,0.,1.22464679914735E-16));
#567=DIRECTION('',(1.22464679914735E-16,0.,-1.));
#568=DIRECTION('',(-1.,0.,-1.22464679914735E-16));
#569=DIRECTION('',(1.22464679914735E-16,0.,-1.));
#570=DIRECTION('',(-1.,0.,-1.22464679914735E-16));
#571=DIRECTION('',(1.22464679914735E-16,0.,-1.));
#572=DIRECTION('',(-1.,0.,-1.22464679914735E-16));
#573=DIRECTION('',(1.22464679914735E-16,0.,-1.));
#574=DIRECTION('',(-1.,0.,-1.22464679914735E-16));
#575=DIRECTION('',(1.22464679914735E-16,0.,-1.));
#576=DIRECTION('',(-1.,0.,-1.22464679914735E-16));
#577=DIRECTION('',(1.22464679914735E-16,0.,-1.));
#578=DIRECTION('',(-1.,0.,-1.22464679914735E-16));
#579=DIRECTION('',(1.22464679914735E-16,0.,-1.));
#580=DIRECTION('',(-1.,0.,-1.22464679914735E-16));
#581=DIRECTION('',(1.22464679914735E-16,0.,-1.));
#582=DIRECTION('',(-1.,0.,-1.22464679914735E-16));
#583=DIRECTION('',(1.22464679914735E-16,0.,-1.));
#584=DIRECTION('',(-1.,0.,-1.22464679914735E-16));
#585=DIRECTION('',(1.22464679914735E-16,0.,-1.));
#586=DIRECTION('',(-1.,0.,-1.22464679914735E-16));
#587=DIRECTION('',(-1.22464679914735E-16,0.,1.));
#588=DIRECTION('',(1.,0.,1.22464679914735E-16));
#589=DIRECTION('',(-1.22464679914735E-16,0.,1.));
#590=DIRECTION('',(1.,0.,1.22464679914735E-16));
#591=DIRECTION('',(-1.22464679914735E-16,0.,1.));
#592=DIRECTION('',(1.,0.,1.22464679914735E-16));
#593=DIRECTION('',(-1.22464679914735E-16,0.,1.));
#594=DIRECTION('',(1.,0.,1.22464679914735E-16));
#595=DIRECTION('',(1.22464679914735E-16,0.,-1.));
#596=DIRECTION('',(-1.,0.,-1.22464679914735E-16));
#597=DIRECTION('',(1.22464679914735E-16,0.,-1.));
#598=DIRECTION('',(-1.,0.,-1.22464679914735E-16));
#599=DIRECTION('',(-1.22464679914735E-16,0.,1.));
#600=DIRECTION('',(1.,0.,1.22464679914735E-16));
#601=DIRECTION('',(-1.22464679914735E-16,0.,1.));
#602=DIRECTION('',(1.,0.,1.22464679914735E-16));
#603=DIRECTION('',(1.22464679914735E-16,0.,-1.));
#604=DIRECTION('',(1.,0.,1.22464679914735E-16));
#605=DIRECTION('',(1.22464679914735E-16,0.,-1.));
#606=DIRECTION('',(-1.,0.,-1.22464679914735E-16));
#607=DIRECTION('',(1.22464679914735E-16,0.,-1.));
#608=DIRECTION('',(-1.,0.,-1.22464679914735E-16));
#609=DIRECTION('',(1.22464679914735E-16,0.,-1.));
#610=DIRECTION('',(1.,0.,1.22464679914735E-16));
#611=DIRECTION('',(1.22464679914735E-16,0.,-1.));
#612=DIRECTION('',(-1.,0.,-1.22464679914735E-16));
#613=DIRECTION('',(1.22464679914735E-16,0.,-1.));
#614=DIRECTION('',(-1.,0.,-1.22464679914735E-16));
#615=DIRECTION('',(1.22464679914735E-16,0.,-1.));
#616=DIRECTION('',(1.,0.,1.22464679914735E-16));
#617=DIRECTION('',(-1.22464679914735E-16,0.,1.));
#618=DIRECTION('',(1.,0.,1.22464679914735E-16));
#619=DIRECTION('',(-1.22464679914735E-16,0.,1.));
#620=DIRECTION('',(-1.,0.,-1.22464679914735E-16));
#621=DIRECTION('',(1.22464679914735E-16,0.,-1.));
#622=DIRECTION('',(1.,0.,1.22464679914735E-16));
#623=DIRECTION('',(-1.22464679914735E-16,0.,1.));
#624=DIRECTION('',(1.,0.,1.22464679914735E-16));
#625=DIRECTION('',(-1.22464679914735E-16,0.,1.));
#626=DIRECTION('',(-1.,0.,-1.22464679914735E-16));
#627=DIRECTION('',(1.22464679914735E-16,0.,-1.));
#628=DIRECTION('',(1.,0.,1.22464679914735E-16));
#629=DIRECTION('',(-1.22464679914735E-16,0.,1.));
#630=DIRECTION('',(1.,0.,1.22464679914735E-16));
#631=DIRECTION('',(-1.22464679914735E-16,0.,1.));
#632=DIRECTION('',(-1.,0.,-1.22464679914735E-16));
#633=DIRECTION('',(1.22464679914735E-16,0.,-1.));
#634=DIRECTION('',(1.,0.,1.22464679914735E-16));
#635=DIRECTION('',(-1.22464679914735E-16,0.,1.));
#636=DIRECTION('',(1.,0.,1.22464679914735E-16));
#637=DIRECTION('',(-1.22464679914735E-16,0.,1.));
#638=DIRECTION('',(-1.,0.,-1.22464679914735E-16));
#639=DIRECTION('',(-1.22464679914735E-16,0.,1.));
#640=DIRECTION('',(1.,0.,1.22464679914735E-16));
#641=DIRECTION('',(-1.22464679914735E-16,0.,1.));
#642=DIRECTION('',(1.,0.,1.22464679914735E-16));
#643=DIRECTION('',(-1.22464679914735E-16,0.,1.));
#644=DIRECTION('',(1.,0.,1.22464679914735E-16));
#645=DIRECTION('',(-1.22464679914735E-16,0.,1.));
#646=DIRECTION('',(1.,0.,1.22464679914735E-16));
#647=CARTESIAN_POINT('',(0.,0.,0.));
#648=CARTESIAN_POINT('',(-0.00190065085887907,9.18485099360515E-20,0.005));
#649=CARTESIAN_POINT('',(-0.00190065085887907,9.18485099360515E-20,0.005));
#650=CARTESIAN_POINT('',(-0.00340065085887907,9.18485099360515E-20,0.005));
#651=CARTESIAN_POINT('',(-0.00190065085887907,9.18485099360515E-20,0.01));
#652=CARTESIAN_POINT('',(-0.00340065085887907,9.18485099360515E-20,0.01));
#653=CARTESIAN_POINT('',(-0.0281506508588791,-0.02625,0.005));
#654=CARTESIAN_POINT('',(-0.0281506508588791,-0.02625,0.005));
#655=CARTESIAN_POINT('',(-0.0296506508588791,-0.02625,0.005));
#656=CARTESIAN_POINT('',(-0.0281506508588791,-0.02625,0.01));
#657=CARTESIAN_POINT('',(-0.0296506508588791,-0.02625,0.01));
#658=CARTESIAN_POINT('',(-0.0544006508588791,-3.30654635769785E-18,0.005));
#659=CARTESIAN_POINT('',(-0.0544006508588791,-3.30654635769785E-18,0.005));
#660=CARTESIAN_POINT('',(-0.0559006508588791,-3.30654635769785E-18,0.005));
#661=CARTESIAN_POINT('',(-0.0544006508588791,-3.30654635769785E-18,0.01));
#662=CARTESIAN_POINT('',(-0.0559006508588791,-3.30654635769785E-18,0.01));
#663=CARTESIAN_POINT('',(-0.0281506508588791,0.02625,0.005));
#664=CARTESIAN_POINT('',(-0.0281506508588791,0.02625,0.005));
#665=CARTESIAN_POINT('',(-0.0296506508588791,0.02625,0.005));
#666=CARTESIAN_POINT('',(-0.0281506508588791,0.02625,0.01));
#667=CARTESIAN_POINT('',(-0.0296506508588791,0.02625,0.01));
#668=CARTESIAN_POINT('',(-0.0171728180809579,0.0109778327779211,0.005));
#669=CARTESIAN_POINT('',(-0.0171728180809579,0.0109778327779211,0.005));
#670=CARTESIAN_POINT('',(-0.0186728180809579,0.0109778327779211,0.005));
#671=CARTESIAN_POINT('',(-0.0171728180809579,0.0109778327779211,0.01));
#672=CARTESIAN_POINT('',(-0.0186728180809579,0.0109778327779211,0.01));
#673=CARTESIAN_POINT('',(-0.0171728180809579,-0.0109778327779211,0.005));
#674=CARTESIAN_POINT('',(-0.0171728180809579,-0.0109778327779211,0.005));
#675=CARTESIAN_POINT('',(-0.0186728180809579,-0.0109778327779211,0.005));
#676=CARTESIAN_POINT('',(-0.0171728180809579,-0.0109778327779211,0.01));
#677=CARTESIAN_POINT('',(-0.0186728180809579,-0.0109778327779211,0.01));
#678=CARTESIAN_POINT('',(-0.0391284836368002,-0.0109778327779211,0.005));
#679=CARTESIAN_POINT('',(-0.0391284836368002,-0.0109778327779211,0.005));
#680=CARTESIAN_POINT('',(-0.0406284836368002,-0.0109778327779211,0.005));
#681=CARTESIAN_POINT('',(-0.0391284836368002,-0.0109778327779211,0.01));
#682=CARTESIAN_POINT('',(-0.0406284836368002,-0.0109778327779211,0.01));
#683=CARTESIAN_POINT('',(-0.0391284836368002,0.0109778327779211,0.005));
#684=CARTESIAN_POINT('',(-0.0391284836368002,0.0109778327779211,0.005));
#685=CARTESIAN_POINT('',(-0.0406284836368002,0.0109778327779211,0.005));
#686=CARTESIAN_POINT('',(-0.0391284836368002,0.0109778327779211,0.01));
#687=CARTESIAN_POINT('',(-0.0406284836368002,0.0109778327779211,0.01));
#688=CARTESIAN_POINT('',(-0.0281506508588791,4.59242549680257E-19,0.005));
#689=CARTESIAN_POINT('',(-0.0281506508588791,4.59242549680257E-19,0.005));
#690=CARTESIAN_POINT('',(-0.0356506508588791,4.59242549680257E-19,0.005));
#691=CARTESIAN_POINT('',(-0.0281506508588791,4.59242549680257E-19,0.01));
#692=CARTESIAN_POINT('',(-0.0356506508588791,4.59242549680257E-19,0.01));
#693=CARTESIAN_POINT('',(-0.0281506508588791,1.83697019872103E-18,0.005));
#694=CARTESIAN_POINT('',(-0.0281506508588791,1.83697019872103E-18,0.005));
#695=CARTESIAN_POINT('',(-0.058150650858879,1.83697019872103E-18,0.005));
#696=CARTESIAN_POINT('',(-0.0281506508588791,1.83697019872103E-18,0.01));
#697=CARTESIAN_POINT('',(-0.058150650858879,1.83697019872103E-18,0.01));
#698=CARTESIAN_POINT('',(-0.0281506508588791,0.,0.005));
#699=CARTESIAN_POINT('',(-0.0284824487150532,0.0116455063551589,0.005));
#700=CARTESIAN_POINT('',(-0.0299824487150532,0.0116455063551589,0.005));
#701=CARTESIAN_POINT('',(-0.0285023682735518,-0.0116654259136574,0.005));
#702=CARTESIAN_POINT('',(-0.0300023682735518,-0.0116654259136574,0.005));
#703=CARTESIAN_POINT('',(-0.0165051445037202,0.000331797856174119,0.005));
#704=CARTESIAN_POINT('',(-0.0180051445037202,0.000331797856174119,0.005));
#705=CARTESIAN_POINT('',(-0.0398160767725365,0.000351717414672664,0.005));
#706=CARTESIAN_POINT('',(-0.0413160767725365,0.000351717414672664,0.005));
#707=CARTESIAN_POINT('',(-0.0140802224651351,0.00656114851352436,0.005));
#708=CARTESIAN_POINT('',(-0.0157302224651351,0.00656114851352436,0.005));
#709=CARTESIAN_POINT('',(-0.042221079252623,-0.00656114851352436,0.005));
#710=CARTESIAN_POINT('',(-0.043871079252623,-0.00656114851352436,0.005));
#711=CARTESIAN_POINT('',(-0.0281506508588791,0.,0.01));
#712=CARTESIAN_POINT('',(-0.0284824487150532,0.0116455063551589,0.01));
#713=CARTESIAN_POINT('',(-0.0269824487150532,0.0116455063551589,0.01));
#714=CARTESIAN_POINT('',(-0.0285023682735518,-0.0116654259136574,0.01));
#715=CARTESIAN_POINT('',(-0.0270023682735517,-0.0116654259136574,0.01));
#716=CARTESIAN_POINT('',(-0.0165051445037202,0.000331797856174119,0.01));
#717=CARTESIAN_POINT('',(-0.0150051445037202,0.000331797856174119,0.01));
#718=CARTESIAN_POINT('',(-0.0398160767725365,0.000351717414672664,0.01));
#719=CARTESIAN_POINT('',(-0.0383160767725365,0.000351717414672664,0.01));
#720=CARTESIAN_POINT('',(-0.0095890978527322,0.0185615530061469,0.01));
#721=CARTESIAN_POINT('',(-0.0110890978527322,0.0185615530061469,0.01));
#722=CARTESIAN_POINT('',(-0.046712203865026,-0.0185615530061469,0.01));
#723=CARTESIAN_POINT('',(-0.048212203865026,-0.0185615530061469,0.01));
#724=CARTESIAN_POINT('',(-0.0140802224651351,0.00656114851352436,0.01));
#725=CARTESIAN_POINT('',(-0.0124302224651351,0.00656114851352436,0.01));
#726=CARTESIAN_POINT('',(-0.042221079252623,-0.00656114851352435,0.01));
#727=CARTESIAN_POINT('',(-0.0405710792526231,-0.00656114851352435,0.01));
#728=CARTESIAN_POINT('',(-0.042221079252623,-0.00656114851352436,0.005));
#729=CARTESIAN_POINT('',(-0.042221079252623,-0.00656114851352436,0.006));
#730=CARTESIAN_POINT('',(-0.042871079252623,-0.00656114851352436,0.006));
#731=CARTESIAN_POINT('',(-0.0281506508588791,0.,0.006));
#732=CARTESIAN_POINT('',(-0.0140802224651351,0.00656114851352436,0.005));
#733=CARTESIAN_POINT('',(-0.0140802224651351,0.00656114851352436,0.006));
#734=CARTESIAN_POINT('',(-0.0147302224651351,0.00656114851352436,0.006));
#735=CARTESIAN_POINT('',(-0.0281506508588791,0.,0.006));
#736=CARTESIAN_POINT('',(-0.042221079252623,-0.00656114851352435,0.01));
#737=CARTESIAN_POINT('',(-0.042221079252623,-0.00656114851352435,0.0107));
#738=CARTESIAN_POINT('',(-0.041271079252623,-0.00656114851352435,0.0107));
#739=CARTESIAN_POINT('',(-0.0281506508588791,0.,0.0107));
#740=CARTESIAN_POINT('',(-0.0140802224651351,0.00656114851352436,0.01));
#741=CARTESIAN_POINT('',(-0.0140802224651351,0.00656114851352436,0.0107));
#742=CARTESIAN_POINT('',(-0.0131302224651351,0.00656114851352436,0.0107));
#743=CARTESIAN_POINT('',(-0.0281506508588791,0.,0.0107));
#744=CARTESIAN_POINT('',(-0.046712203865026,-0.0185615530061469,0.01));
#745=CARTESIAN_POINT('',(-0.046712203865026,-0.0185615530061469,0.0107));
#746=CARTESIAN_POINT('',(-0.045912203865026,-0.0185615530061469,0.0107));
#747=CARTESIAN_POINT('',(-0.0281506508588791,0.,0.0107));
#748=CARTESIAN_POINT('',(-0.0095890978527322,0.0185615530061469,0.01));
#749=CARTESIAN_POINT('',(-0.0095890978527322,0.0185615530061469,0.0107));
#750=CARTESIAN_POINT('',(-0.0087890978527322,0.0185615530061469,0.0107));
#751=CARTESIAN_POINT('',(-0.0281506508588791,0.,0.0107));
#752=CARTESIAN_POINT('',(-0.0398160767725365,0.000351717414672664,-0.015));
#753=CARTESIAN_POINT('',(-0.0165051445037201,0.000331797856174119,-0.015));
#754=CARTESIAN_POINT('',(-0.0285023682735518,-0.0116654259136574,-0.015));
#755=CARTESIAN_POINT('',(-0.0284824487150532,0.0116455063551589,-0.015));
#756=MECHANICAL_DESIGN_GEOMETRIC_PRESENTATION_REPRESENTATION('',(#429),
#757);
#757=(
GEOMETRIC_REPRESENTATION_CONTEXT(3)
GLOBAL_UNCERTAINTY_ASSIGNED_CONTEXT((#758))
GLOBAL_UNIT_ASSIGNED_CONTEXT((#761,#760,#759))
REPRESENTATION_CONTEXT('base_connector','TOP_LEVEL_ASSEMBLY_PART')
);
#758=UNCERTAINTY_MEASURE_WITH_UNIT(LENGTH_MEASURE(1.E-8),#761,
'DISTANCE_ACCURACY_VALUE','Maximum Tolerance applied to model');
#759=(
NAMED_UNIT(*)
SI_UNIT($,.STERADIAN.)
SOLID_ANGLE_UNIT()
);
#760=(
NAMED_UNIT(*)
PLANE_ANGLE_UNIT()
SI_UNIT($,.RADIAN.)
);
#761=(
LENGTH_UNIT()
NAMED_UNIT(*)
SI_UNIT($,.METRE.)
);
#762=PRODUCT_DEFINITION_SHAPE('','',#763);
#763=PRODUCT_DEFINITION('','',#765,#764);
#764=PRODUCT_DEFINITION_CONTEXT('',#771,'design');
#765=PRODUCT_DEFINITION_FORMATION_WITH_SPECIFIED_SOURCE('','',#767,
 .NOT_KNOWN.);
#766=PRODUCT_RELATED_PRODUCT_CATEGORY('','',(#767));
#767=PRODUCT('base_connector','base_connector','base_connector',(#769));
#768=PRODUCT_CATEGORY('','');
#769=PRODUCT_CONTEXT('',#771,'mechanical');
#770=APPLICATION_PROTOCOL_DEFINITION('international standard',
'ap242_managed_model_based_3d_engineering',2020,#771);
#771=APPLICATION_CONTEXT('managed model based 3d engineering');
ENDSEC;
END-ISO-10303-21;
