ISO-10303-21;
HEADER;
/* Generated by software containing ST-Developer
 * from STEP Tools, Inc. (www.steptools.com) 
 */
/* OPTION: using custom renumber hook */

FILE_DESCRIPTION(
/* description */ ('STEP AP242 Edition 2',
'CAx-IF Rec.Pracs.---Representation and Presentation of Product Manufa
cturing Information (PMI)---4.0---2014-10-13',
'CAx-IF Rec.Pracs.---3D Tessellated Geometry---0.4---2014-09-14','2;1',
'CAx-IF Rec.Pracs.---User Defined Attributes---1.5---2016-08-15'),
/* implementation_level */ '2;1');

FILE_NAME(
/* name */ 'Part Studio 1 - base',
/* time_stamp */ '2026-08-24T08:33:40Z',
/* author */ (''),
/* organization */ (''),
/* preprocessor_version */ 'ST-DEVELOPER v20',
/* originating_system */ 'ONSHAPE BY PTC INC, 1.219',
/* authorisation */ '  ');

FILE_SCHEMA (('AP242_MANAGED_MODEL_BASED_3D_ENGINEERING_MIM_LF { 1 0 10303 442 3 1 4 }'));
ENDSEC;

DATA;
#10=SHAPE_REPRESENTATION_RELATIONSHIP('','',#861,#11);
#11=ADVANCED_BREP_SHAPE_REPRESENTATION('',(#859),#1505);
#12=CONICAL_SURFACE('',#977,0.00165,0.785398163397448);
#13=CONICAL_SURFACE('',#980,0.00165,0.785398163397448);
#14=TOROIDAL_SURFACE('',#897,0.035,0.005);
#15=TOROIDAL_SURFACE('',#961,0.0195,0.003);
#16=CYLINDRICAL_SURFACE('',#885,0.03);
#17=CYLINDRICAL_SURFACE('',#901,0.003);
#18=CYLINDRICAL_SURFACE('',#904,0.003);
#19=CYLINDRICAL_SURFACE('',#907,0.003);
#20=CYLINDRICAL_SURFACE('',#910,0.003);
#21=CYLINDRICAL_SURFACE('',#921,0.0015);
#22=CYLINDRICAL_SURFACE('',#926,0.0015);
#23=CYLINDRICAL_SURFACE('',#931,0.0015);
#24=CYLINDRICAL_SURFACE('',#936,0.0015);
#25=CYLINDRICAL_SURFACE('',#939,0.005);
#26=CYLINDRICAL_SURFACE('',#940,0.005);
#27=CYLINDRICAL_SURFACE('',#941,0.005);
#28=CYLINDRICAL_SURFACE('',#942,0.005);
#29=CYLINDRICAL_SURFACE('',#943,0.001);
#30=CYLINDRICAL_SURFACE('',#944,0.001);
#31=CYLINDRICAL_SURFACE('',#945,0.001);
#32=CYLINDRICAL_SURFACE('',#946,0.001);
#33=CYLINDRICAL_SURFACE('',#947,0.0015);
#34=CYLINDRICAL_SURFACE('',#950,0.0015);
#35=CYLINDRICAL_SURFACE('',#953,0.0015);
#36=CYLINDRICAL_SURFACE('',#956,0.0225);
#37=CYLINDRICAL_SURFACE('',#965,0.0015);
#38=CYLINDRICAL_SURFACE('',#968,0.0015);
#39=CYLINDRICAL_SURFACE('',#971,0.0015);
#40=CYLINDRICAL_SURFACE('',#974,0.0015);
#41=CIRCLE('',#868,0.0015);
#42=CIRCLE('',#869,0.0015);
#43=CIRCLE('',#870,0.0015);
#44=CIRCLE('',#871,0.001);
#45=CIRCLE('',#872,0.001);
#46=CIRCLE('',#873,0.001);
#47=CIRCLE('',#874,0.001);
#48=CIRCLE('',#875,0.035);
#49=CIRCLE('',#876,0.005);
#50=CIRCLE('',#877,0.005);
#51=CIRCLE('',#878,0.005);
#52=CIRCLE('',#879,0.005);
#53=CIRCLE('',#881,0.005);
#54=CIRCLE('',#882,0.005);
#55=CIRCLE('',#883,0.005);
#56=CIRCLE('',#884,0.005);
#57=CIRCLE('',#886,0.03);
#58=CIRCLE('',#887,0.03);
#59=CIRCLE('',#888,0.03);
#60=CIRCLE('',#890,0.00165);
#61=CIRCLE('',#891,0.00165);
#62=CIRCLE('',#892,0.0015);
#63=CIRCLE('',#893,0.0015);
#64=CIRCLE('',#894,0.0015);
#65=CIRCLE('',#895,0.0015);
#66=CIRCLE('',#896,0.0225);
#67=CIRCLE('',#902,0.003);
#68=CIRCLE('',#903,0.003);
#69=CIRCLE('',#905,0.003);
#70=CIRCLE('',#906,0.003);
#71=CIRCLE('',#908,0.003);
#72=CIRCLE('',#909,0.003);
#73=CIRCLE('',#911,0.003);
#74=CIRCLE('',#912,0.003);
#75=CIRCLE('',#915,0.001);
#76=CIRCLE('',#916,0.001);
#77=CIRCLE('',#917,0.001);
#78=CIRCLE('',#918,0.001);
#79=CIRCLE('',#920,0.0015);
#80=CIRCLE('',#922,0.0015);
#81=CIRCLE('',#925,0.0015);
#82=CIRCLE('',#927,0.0015);
#83=CIRCLE('',#930,0.0015);
#84=CIRCLE('',#932,0.0015);
#85=CIRCLE('',#935,0.0015);
#86=CIRCLE('',#937,0.0015);
#87=CIRCLE('',#948,0.0015);
#88=CIRCLE('',#951,0.0015);
#89=CIRCLE('',#954,0.0015);
#90=CIRCLE('',#957,0.0225);
#91=CIRCLE('',#958,0.0225);
#92=CIRCLE('',#960,0.0195);
#93=CIRCLE('',#966,0.0015);
#94=CIRCLE('',#969,0.0015);
#95=CIRCLE('',#972,0.0015);
#96=CIRCLE('',#975,0.0015);
#97=CIRCLE('',#978,0.00065);
#98=CIRCLE('',#981,0.00065);
#99=ORIENTED_EDGE('',*,*,#295,.T.);
#100=ORIENTED_EDGE('',*,*,#296,.T.);
#101=ORIENTED_EDGE('',*,*,#297,.F.);
#102=ORIENTED_EDGE('',*,*,#298,.T.);
#103=ORIENTED_EDGE('',*,*,#299,.F.);
#104=ORIENTED_EDGE('',*,*,#300,.T.);
#105=ORIENTED_EDGE('',*,*,#301,.T.);
#106=ORIENTED_EDGE('',*,*,#302,.T.);
#107=ORIENTED_EDGE('',*,*,#303,.F.);
#108=ORIENTED_EDGE('',*,*,#304,.T.);
#109=ORIENTED_EDGE('',*,*,#305,.T.);
#110=ORIENTED_EDGE('',*,*,#306,.T.);
#111=ORIENTED_EDGE('',*,*,#307,.F.);
#112=ORIENTED_EDGE('',*,*,#308,.T.);
#113=ORIENTED_EDGE('',*,*,#309,.T.);
#114=ORIENTED_EDGE('',*,*,#310,.T.);
#115=ORIENTED_EDGE('',*,*,#311,.F.);
#116=ORIENTED_EDGE('',*,*,#312,.F.);
#117=ORIENTED_EDGE('',*,*,#313,.F.);
#118=ORIENTED_EDGE('',*,*,#314,.F.);
#119=ORIENTED_EDGE('',*,*,#315,.T.);
#120=ORIENTED_EDGE('',*,*,#316,.T.);
#121=ORIENTED_EDGE('',*,*,#317,.T.);
#122=ORIENTED_EDGE('',*,*,#318,.T.);
#123=ORIENTED_EDGE('',*,*,#319,.T.);
#124=ORIENTED_EDGE('',*,*,#320,.F.);
#125=ORIENTED_EDGE('',*,*,#321,.T.);
#126=ORIENTED_EDGE('',*,*,#322,.T.);
#127=ORIENTED_EDGE('',*,*,#297,.T.);
#128=ORIENTED_EDGE('',*,*,#323,.T.);
#129=ORIENTED_EDGE('',*,*,#299,.T.);
#130=ORIENTED_EDGE('',*,*,#324,.T.);
#131=ORIENTED_EDGE('',*,*,#305,.F.);
#132=ORIENTED_EDGE('',*,*,#325,.T.);
#133=ORIENTED_EDGE('',*,*,#309,.F.);
#134=ORIENTED_EDGE('',*,*,#326,.T.);
#135=ORIENTED_EDGE('',*,*,#301,.F.);
#136=ORIENTED_EDGE('',*,*,#327,.T.);
#137=ORIENTED_EDGE('',*,*,#295,.F.);
#138=ORIENTED_EDGE('',*,*,#328,.T.);
#139=ORIENTED_EDGE('',*,*,#307,.T.);
#140=ORIENTED_EDGE('',*,*,#329,.T.);
#141=ORIENTED_EDGE('',*,*,#303,.T.);
#142=ORIENTED_EDGE('',*,*,#330,.T.);
#143=ORIENTED_EDGE('',*,*,#331,.T.);
#144=ORIENTED_EDGE('',*,*,#332,.F.);
#145=ORIENTED_EDGE('',*,*,#333,.T.);
#146=ORIENTED_EDGE('',*,*,#334,.F.);
#147=ORIENTED_EDGE('',*,*,#335,.F.);
#148=ORIENTED_EDGE('',*,*,#336,.F.);
#149=ORIENTED_EDGE('',*,*,#337,.F.);
#150=ORIENTED_EDGE('',*,*,#338,.F.);
#151=ORIENTED_EDGE('',*,*,#339,.F.);
#152=ORIENTED_EDGE('',*,*,#340,.F.);
#153=ORIENTED_EDGE('',*,*,#341,.F.);
#154=ORIENTED_EDGE('',*,*,#342,.F.);
#155=ORIENTED_EDGE('',*,*,#332,.T.);
#156=ORIENTED_EDGE('',*,*,#343,.T.);
#157=ORIENTED_EDGE('',*,*,#344,.F.);
#158=ORIENTED_EDGE('',*,*,#322,.F.);
#159=ORIENTED_EDGE('',*,*,#331,.F.);
#160=ORIENTED_EDGE('',*,*,#314,.T.);
#161=ORIENTED_EDGE('',*,*,#345,.T.);
#162=ORIENTED_EDGE('',*,*,#346,.F.);
#163=ORIENTED_EDGE('',*,*,#347,.T.);
#164=ORIENTED_EDGE('',*,*,#320,.T.);
#165=ORIENTED_EDGE('',*,*,#348,.T.);
#166=ORIENTED_EDGE('',*,*,#349,.F.);
#167=ORIENTED_EDGE('',*,*,#350,.T.);
#168=ORIENTED_EDGE('',*,*,#351,.T.);
#169=ORIENTED_EDGE('',*,*,#352,.T.);
#170=ORIENTED_EDGE('',*,*,#318,.F.);
#171=ORIENTED_EDGE('',*,*,#353,.T.);
#172=ORIENTED_EDGE('',*,*,#354,.T.);
#173=ORIENTED_EDGE('',*,*,#355,.F.);
#174=ORIENTED_EDGE('',*,*,#356,.T.);
#175=ORIENTED_EDGE('',*,*,#357,.F.);
#176=ORIENTED_EDGE('',*,*,#358,.T.);
#177=ORIENTED_EDGE('',*,*,#359,.F.);
#178=ORIENTED_EDGE('',*,*,#360,.T.);
#179=ORIENTED_EDGE('',*,*,#361,.F.);
#180=ORIENTED_EDGE('',*,*,#362,.T.);
#181=ORIENTED_EDGE('',*,*,#363,.T.);
#182=ORIENTED_EDGE('',*,*,#316,.F.);
#183=ORIENTED_EDGE('',*,*,#364,.T.);
#184=ORIENTED_EDGE('',*,*,#360,.F.);
#185=ORIENTED_EDGE('',*,*,#358,.F.);
#186=ORIENTED_EDGE('',*,*,#356,.F.);
#187=ORIENTED_EDGE('',*,*,#354,.F.);
#188=ORIENTED_EDGE('',*,*,#349,.T.);
#189=ORIENTED_EDGE('',*,*,#365,.T.);
#190=ORIENTED_EDGE('',*,*,#351,.F.);
#191=ORIENTED_EDGE('',*,*,#366,.T.);
#192=ORIENTED_EDGE('',*,*,#362,.F.);
#193=ORIENTED_EDGE('',*,*,#367,.T.);
#194=ORIENTED_EDGE('',*,*,#346,.T.);
#195=ORIENTED_EDGE('',*,*,#368,.T.);
#196=ORIENTED_EDGE('',*,*,#369,.F.);
#197=ORIENTED_EDGE('',*,*,#361,.T.);
#198=ORIENTED_EDGE('',*,*,#370,.F.);
#199=ORIENTED_EDGE('',*,*,#369,.T.);
#200=ORIENTED_EDGE('',*,*,#370,.T.);
#201=ORIENTED_EDGE('',*,*,#371,.F.);
#202=ORIENTED_EDGE('',*,*,#355,.T.);
#203=ORIENTED_EDGE('',*,*,#372,.F.);
#204=ORIENTED_EDGE('',*,*,#371,.T.);
#205=ORIENTED_EDGE('',*,*,#372,.T.);
#206=ORIENTED_EDGE('',*,*,#373,.F.);
#207=ORIENTED_EDGE('',*,*,#359,.T.);
#208=ORIENTED_EDGE('',*,*,#374,.F.);
#209=ORIENTED_EDGE('',*,*,#373,.T.);
#210=ORIENTED_EDGE('',*,*,#374,.T.);
#211=ORIENTED_EDGE('',*,*,#375,.F.);
#212=ORIENTED_EDGE('',*,*,#357,.T.);
#213=ORIENTED_EDGE('',*,*,#376,.F.);
#214=ORIENTED_EDGE('',*,*,#375,.T.);
#215=ORIENTED_EDGE('',*,*,#376,.T.);
#216=ORIENTED_EDGE('',*,*,#323,.F.);
#217=ORIENTED_EDGE('',*,*,#296,.F.);
#218=ORIENTED_EDGE('',*,*,#327,.F.);
#219=ORIENTED_EDGE('',*,*,#300,.F.);
#220=ORIENTED_EDGE('',*,*,#326,.F.);
#221=ORIENTED_EDGE('',*,*,#308,.F.);
#222=ORIENTED_EDGE('',*,*,#328,.F.);
#223=ORIENTED_EDGE('',*,*,#298,.F.);
#224=ORIENTED_EDGE('',*,*,#325,.F.);
#225=ORIENTED_EDGE('',*,*,#304,.F.);
#226=ORIENTED_EDGE('',*,*,#329,.F.);
#227=ORIENTED_EDGE('',*,*,#310,.F.);
#228=ORIENTED_EDGE('',*,*,#324,.F.);
#229=ORIENTED_EDGE('',*,*,#302,.F.);
#230=ORIENTED_EDGE('',*,*,#330,.F.);
#231=ORIENTED_EDGE('',*,*,#306,.F.);
#232=ORIENTED_EDGE('',*,*,#365,.F.);
#233=ORIENTED_EDGE('',*,*,#348,.F.);
#234=ORIENTED_EDGE('',*,*,#319,.F.);
#235=ORIENTED_EDGE('',*,*,#352,.F.);
#236=ORIENTED_EDGE('',*,*,#366,.F.);
#237=ORIENTED_EDGE('',*,*,#353,.F.);
#238=ORIENTED_EDGE('',*,*,#317,.F.);
#239=ORIENTED_EDGE('',*,*,#363,.F.);
#240=ORIENTED_EDGE('',*,*,#368,.F.);
#241=ORIENTED_EDGE('',*,*,#345,.F.);
#242=ORIENTED_EDGE('',*,*,#321,.F.);
#243=ORIENTED_EDGE('',*,*,#350,.F.);
#244=ORIENTED_EDGE('',*,*,#367,.F.);
#245=ORIENTED_EDGE('',*,*,#364,.F.);
#246=ORIENTED_EDGE('',*,*,#315,.F.);
#247=ORIENTED_EDGE('',*,*,#347,.F.);
#248=ORIENTED_EDGE('',*,*,#377,.F.);
#249=ORIENTED_EDGE('',*,*,#313,.T.);
#250=ORIENTED_EDGE('',*,*,#377,.T.);
#251=ORIENTED_EDGE('',*,*,#378,.F.);
#252=ORIENTED_EDGE('',*,*,#312,.T.);
#253=ORIENTED_EDGE('',*,*,#378,.T.);
#254=ORIENTED_EDGE('',*,*,#379,.F.);
#255=ORIENTED_EDGE('',*,*,#311,.T.);
#256=ORIENTED_EDGE('',*,*,#379,.T.);
#257=ORIENTED_EDGE('',*,*,#380,.T.);
#258=ORIENTED_EDGE('',*,*,#381,.T.);
#259=ORIENTED_EDGE('',*,*,#344,.T.);
#260=ORIENTED_EDGE('',*,*,#382,.F.);
#261=ORIENTED_EDGE('',*,*,#383,.T.);
#262=ORIENTED_EDGE('',*,*,#384,.T.);
#263=ORIENTED_EDGE('',*,*,#383,.F.);
#264=ORIENTED_EDGE('',*,*,#384,.F.);
#265=ORIENTED_EDGE('',*,*,#342,.T.);
#266=ORIENTED_EDGE('',*,*,#381,.F.);
#267=ORIENTED_EDGE('',*,*,#385,.F.);
#268=ORIENTED_EDGE('',*,*,#333,.F.);
#269=ORIENTED_EDGE('',*,*,#335,.T.);
#270=ORIENTED_EDGE('',*,*,#386,.T.);
#271=ORIENTED_EDGE('',*,*,#382,.T.);
#272=ORIENTED_EDGE('',*,*,#343,.F.);
#273=ORIENTED_EDGE('',*,*,#334,.T.);
#274=ORIENTED_EDGE('',*,*,#385,.T.);
#275=ORIENTED_EDGE('',*,*,#380,.F.);
#276=ORIENTED_EDGE('',*,*,#386,.F.);
#277=ORIENTED_EDGE('',*,*,#387,.F.);
#278=ORIENTED_EDGE('',*,*,#341,.T.);
#279=ORIENTED_EDGE('',*,*,#387,.T.);
#280=ORIENTED_EDGE('',*,*,#388,.F.);
#281=ORIENTED_EDGE('',*,*,#340,.T.);
#282=ORIENTED_EDGE('',*,*,#388,.T.);
#283=ORIENTED_EDGE('',*,*,#389,.F.);
#284=ORIENTED_EDGE('',*,*,#339,.T.);
#285=ORIENTED_EDGE('',*,*,#389,.T.);
#286=ORIENTED_EDGE('',*,*,#390,.F.);
#287=ORIENTED_EDGE('',*,*,#338,.T.);
#288=ORIENTED_EDGE('',*,*,#390,.T.);
#289=ORIENTED_EDGE('',*,*,#391,.F.);
#290=ORIENTED_EDGE('',*,*,#337,.T.);
#291=ORIENTED_EDGE('',*,*,#391,.T.);
#292=ORIENTED_EDGE('',*,*,#392,.F.);
#293=ORIENTED_EDGE('',*,*,#336,.T.);
#294=ORIENTED_EDGE('',*,*,#392,.T.);
#295=EDGE_CURVE('',#393,#394,#471,.T.);
#296=EDGE_CURVE('',#394,#395,#472,.F.);
#297=EDGE_CURVE('',#396,#395,#473,.T.);
#298=EDGE_CURVE('',#396,#393,#474,.T.);
#299=EDGE_CURVE('',#397,#398,#475,.T.);
#300=EDGE_CURVE('',#397,#399,#476,.T.);
#301=EDGE_CURVE('',#399,#400,#477,.T.);
#302=EDGE_CURVE('',#400,#398,#478,.F.);
#303=EDGE_CURVE('',#401,#402,#479,.T.);
#304=EDGE_CURVE('',#401,#403,#480,.F.);
#305=EDGE_CURVE('',#403,#404,#481,.T.);
#306=EDGE_CURVE('',#404,#402,#482,.T.);
#307=EDGE_CURVE('',#405,#406,#483,.T.);
#308=EDGE_CURVE('',#405,#407,#484,.F.);
#309=EDGE_CURVE('',#407,#408,#485,.T.);
#310=EDGE_CURVE('',#408,#406,#486,.T.);
#311=EDGE_CURVE('',#409,#409,#41,.T.);
#312=EDGE_CURVE('',#410,#410,#42,.T.);
#313=EDGE_CURVE('',#411,#411,#43,.T.);
#314=EDGE_CURVE('',#412,#413,#487,.T.);
#315=EDGE_CURVE('',#412,#414,#44,.F.);
#316=EDGE_CURVE('',#414,#415,#488,.T.);
#317=EDGE_CURVE('',#415,#416,#45,.F.);
#318=EDGE_CURVE('',#416,#417,#489,.T.);
#319=EDGE_CURVE('',#417,#418,#46,.F.);
#320=EDGE_CURVE('',#419,#418,#490,.T.);
#321=EDGE_CURVE('',#419,#413,#47,.F.);
#322=EDGE_CURVE('',#420,#420,#48,.F.);
#323=EDGE_CURVE('',#395,#397,#49,.T.);
#324=EDGE_CURVE('',#398,#404,#50,.T.);
#325=EDGE_CURVE('',#403,#408,#51,.T.);
#326=EDGE_CURVE('',#407,#396,#52,.T.);
#327=EDGE_CURVE('',#399,#394,#53,.F.);
#328=EDGE_CURVE('',#393,#405,#54,.F.);
#329=EDGE_CURVE('',#406,#401,#55,.F.);
#330=EDGE_CURVE('',#402,#400,#56,.F.);
#331=EDGE_CURVE('',#421,#421,#57,.T.);
#332=EDGE_CURVE('',#422,#423,#58,.T.);
#333=EDGE_CURVE('',#422,#424,#491,.T.);
#334=EDGE_CURVE('',#425,#424,#59,.T.);
#335=EDGE_CURVE('',#423,#425,#492,.T.);
#336=EDGE_CURVE('',#426,#426,#60,.T.);
#337=EDGE_CURVE('',#427,#427,#61,.T.);
#338=EDGE_CURVE('',#428,#428,#62,.T.);
#339=EDGE_CURVE('',#429,#429,#63,.T.);
#340=EDGE_CURVE('',#430,#430,#64,.T.);
#341=EDGE_CURVE('',#431,#431,#65,.T.);
#342=EDGE_CURVE('',#422,#432,#493,.T.);
#343=EDGE_CURVE('',#423,#433,#494,.T.);
#344=EDGE_CURVE('',#432,#433,#66,.T.);
#345=EDGE_CURVE('',#413,#434,#495,.F.);
#346=EDGE_CURVE('',#435,#434,#496,.T.);
#347=EDGE_CURVE('',#435,#412,#497,.T.);
#348=EDGE_CURVE('',#418,#436,#498,.F.);
#349=EDGE_CURVE('',#437,#436,#499,.T.);
#350=EDGE_CURVE('',#437,#419,#500,.T.);
#351=EDGE_CURVE('',#438,#439,#501,.T.);
#352=EDGE_CURVE('',#439,#417,#502,.T.);
#353=EDGE_CURVE('',#416,#438,#503,.F.);
#354=EDGE_CURVE('',#440,#440,#67,.T.);
#355=EDGE_CURVE('',#441,#441,#68,.T.);
#356=EDGE_CURVE('',#442,#442,#69,.T.);
#357=EDGE_CURVE('',#443,#443,#70,.T.);
#358=EDGE_CURVE('',#444,#444,#71,.T.);
#359=EDGE_CURVE('',#445,#445,#72,.T.);
#360=EDGE_CURVE('',#446,#446,#73,.T.);
#361=EDGE_CURVE('',#447,#447,#74,.T.);
#362=EDGE_CURVE('',#448,#449,#504,.T.);
#363=EDGE_CURVE('',#449,#415,#505,.T.);
#364=EDGE_CURVE('',#414,#448,#506,.F.);
#365=EDGE_CURVE('',#436,#439,#75,.T.);
#366=EDGE_CURVE('',#438,#449,#76,.T.);
#367=EDGE_CURVE('',#448,#435,#77,.T.);
#368=EDGE_CURVE('',#434,#437,#78,.T.);
#369=EDGE_CURVE('',#450,#450,#79,.T.);
#370=EDGE_CURVE('',#451,#451,#80,.T.);
#371=EDGE_CURVE('',#452,#452,#81,.T.);
#372=EDGE_CURVE('',#453,#453,#82,.T.);
#373=EDGE_CURVE('',#454,#454,#83,.T.);
#374=EDGE_CURVE('',#455,#455,#84,.T.);
#375=EDGE_CURVE('',#456,#456,#85,.T.);
#376=EDGE_CURVE('',#457,#457,#86,.T.);
#377=EDGE_CURVE('',#458,#458,#87,.T.);
#378=EDGE_CURVE('',#459,#459,#88,.T.);
#379=EDGE_CURVE('',#460,#460,#89,.T.);
#380=EDGE_CURVE('',#461,#462,#90,.T.);
#381=EDGE_CURVE('',#462,#432,#507,.T.);
#382=EDGE_CURVE('',#461,#433,#508,.T.);
#383=EDGE_CURVE('',#463,#463,#91,.F.);
#384=EDGE_CURVE('',#464,#464,#92,.T.);
#385=EDGE_CURVE('',#424,#462,#509,.T.);
#386=EDGE_CURVE('',#425,#461,#510,.T.);
#387=EDGE_CURVE('',#465,#465,#93,.T.);
#388=EDGE_CURVE('',#466,#466,#94,.T.);
#389=EDGE_CURVE('',#467,#467,#95,.T.);
#390=EDGE_CURVE('',#468,#468,#96,.T.);
#391=EDGE_CURVE('',#469,#469,#97,.T.);
#392=EDGE_CURVE('',#470,#470,#98,.T.);
#393=VERTEX_POINT('',#1268);
#394=VERTEX_POINT('',#1269);
#395=VERTEX_POINT('',#1271);
#396=VERTEX_POINT('',#1273);
#397=VERTEX_POINT('',#1277);
#398=VERTEX_POINT('',#1278);
#399=VERTEX_POINT('',#1280);
#400=VERTEX_POINT('',#1282);
#401=VERTEX_POINT('',#1286);
#402=VERTEX_POINT('',#1287);
#403=VERTEX_POINT('',#1289);
#404=VERTEX_POINT('',#1291);
#405=VERTEX_POINT('',#1295);
#406=VERTEX_POINT('',#1296);
#407=VERTEX_POINT('',#1298);
#408=VERTEX_POINT('',#1300);
#409=VERTEX_POINT('',#1304);
#410=VERTEX_POINT('',#1306);
#411=VERTEX_POINT('',#1308);
#412=VERTEX_POINT('',#1310);
#413=VERTEX_POINT('',#1311);
#414=VERTEX_POINT('',#1313);
#415=VERTEX_POINT('',#1315);
#416=VERTEX_POINT('',#1317);
#417=VERTEX_POINT('',#1319);
#418=VERTEX_POINT('',#1321);
#419=VERTEX_POINT('',#1323);
#420=VERTEX_POINT('',#1326);
#421=VERTEX_POINT('',#1338);
#422=VERTEX_POINT('',#1340);
#423=VERTEX_POINT('',#1341);
#424=VERTEX_POINT('',#1343);
#425=VERTEX_POINT('',#1345);
#426=VERTEX_POINT('',#1349);
#427=VERTEX_POINT('',#1351);
#428=VERTEX_POINT('',#1353);
#429=VERTEX_POINT('',#1355);
#430=VERTEX_POINT('',#1357);
#431=VERTEX_POINT('',#1359);
#432=VERTEX_POINT('',#1361);
#433=VERTEX_POINT('',#1363);
#434=VERTEX_POINT('',#1368);
#435=VERTEX_POINT('',#1370);
#436=VERTEX_POINT('',#1374);
#437=VERTEX_POINT('',#1376);
#438=VERTEX_POINT('',#1380);
#439=VERTEX_POINT('',#1381);
#440=VERTEX_POINT('',#1386);
#441=VERTEX_POINT('',#1388);
#442=VERTEX_POINT('',#1391);
#443=VERTEX_POINT('',#1393);
#444=VERTEX_POINT('',#1396);
#445=VERTEX_POINT('',#1398);
#446=VERTEX_POINT('',#1401);
#447=VERTEX_POINT('',#1403);
#448=VERTEX_POINT('',#1406);
#449=VERTEX_POINT('',#1407);
#450=VERTEX_POINT('',#1417);
#451=VERTEX_POINT('',#1420);
#452=VERTEX_POINT('',#1424);
#453=VERTEX_POINT('',#1427);
#454=VERTEX_POINT('',#1431);
#455=VERTEX_POINT('',#1434);
#456=VERTEX_POINT('',#1438);
#457=VERTEX_POINT('',#1441);
#458=VERTEX_POINT('',#1453);
#459=VERTEX_POINT('',#1457);
#460=VERTEX_POINT('',#1461);
#461=VERTEX_POINT('',#1465);
#462=VERTEX_POINT('',#1466);
#463=VERTEX_POINT('',#1470);
#464=VERTEX_POINT('',#1473);
#465=VERTEX_POINT('',#1482);
#466=VERTEX_POINT('',#1486);
#467=VERTEX_POINT('',#1490);
#468=VERTEX_POINT('',#1494);
#469=VERTEX_POINT('',#1498);
#470=VERTEX_POINT('',#1502);
#471=LINE('',#1267,#511);
#472=LINE('',#1270,#512);
#473=LINE('',#1272,#513);
#474=LINE('',#1274,#514);
#475=LINE('',#1276,#515);
#476=LINE('',#1279,#516);
#477=LINE('',#1281,#517);
#478=LINE('',#1283,#518);
#479=LINE('',#1285,#519);
#480=LINE('',#1288,#520);
#481=LINE('',#1290,#521);
#482=LINE('',#1292,#522);
#483=LINE('',#1294,#523);
#484=LINE('',#1297,#524);
#485=LINE('',#1299,#525);
#486=LINE('',#1301,#526);
#487=LINE('',#1309,#527);
#488=LINE('',#1314,#528);
#489=LINE('',#1318,#529);
#490=LINE('',#1322,#530);
#491=LINE('',#1342,#531);
#492=LINE('',#1346,#532);
#493=LINE('',#1360,#533);
#494=LINE('',#1362,#534);
#495=LINE('',#1367,#535);
#496=LINE('',#1369,#536);
#497=LINE('',#1371,#537);
#498=LINE('',#1373,#538);
#499=LINE('',#1375,#539);
#500=LINE('',#1377,#540);
#501=LINE('',#1379,#541);
#502=LINE('',#1382,#542);
#503=LINE('',#1383,#543);
#504=LINE('',#1405,#544);
#505=LINE('',#1408,#545);
#506=LINE('',#1409,#546);
#507=LINE('',#1467,#547);
#508=LINE('',#1468,#548);
#509=LINE('',#1476,#549);
#510=LINE('',#1478,#550);
#511=VECTOR('',#987,1.);
#512=VECTOR('',#988,1.);
#513=VECTOR('',#989,1.);
#514=VECTOR('',#990,1.);
#515=VECTOR('',#993,1.);
#516=VECTOR('',#994,1.);
#517=VECTOR('',#995,1.);
#518=VECTOR('',#996,1.);
#519=VECTOR('',#999,1.);
#520=VECTOR('',#1000,1.);
#521=VECTOR('',#1001,1.);
#522=VECTOR('',#1002,1.);
#523=VECTOR('',#1005,1.);
#524=VECTOR('',#1006,1.);
#525=VECTOR('',#1007,1.);
#526=VECTOR('',#1008,1.);
#527=VECTOR('',#1017,1.);
#528=VECTOR('',#1020,1.);
#529=VECTOR('',#1023,1.);
#530=VECTOR('',#1026,1.);
#531=VECTOR('',#1055,1.);
#532=VECTOR('',#1058,1.);
#533=VECTOR('',#1073,1.);
#534=VECTOR('',#1074,1.);
#535=VECTOR('',#1081,1.);
#536=VECTOR('',#1082,1.);
#537=VECTOR('',#1083,1.);
#538=VECTOR('',#1086,1.);
#539=VECTOR('',#1087,1.);
#540=VECTOR('',#1088,1.);
#541=VECTOR('',#1091,1.);
#542=VECTOR('',#1092,1.);
#543=VECTOR('',#1093,1.);
#544=VECTOR('',#1120,1.);
#545=VECTOR('',#1121,1.);
#546=VECTOR('',#1122,1.);
#547=VECTOR('',#1211,1.);
#548=VECTOR('',#1212,1.);
#549=VECTOR('',#1223,1.);
#550=VECTOR('',#1226,1.);
#551=EDGE_LOOP('',(#99,#100,#101,#102));
#552=EDGE_LOOP('',(#103,#104,#105,#106));
#553=EDGE_LOOP('',(#107,#108,#109,#110));
#554=EDGE_LOOP('',(#111,#112,#113,#114));
#555=EDGE_LOOP('',(#115));
#556=EDGE_LOOP('',(#116));
#557=EDGE_LOOP('',(#117));
#558=EDGE_LOOP('',(#118,#119,#120,#121,#122,#123,#124,#125));
#559=EDGE_LOOP('',(#126));
#560=EDGE_LOOP('',(#127,#128,#129,#130,#131,#132,#133,#134));
#561=EDGE_LOOP('',(#135,#136,#137,#138,#139,#140,#141,#142));
#562=EDGE_LOOP('',(#143));
#563=EDGE_LOOP('',(#144,#145,#146,#147));
#564=EDGE_LOOP('',(#148));
#565=EDGE_LOOP('',(#149));
#566=EDGE_LOOP('',(#150));
#567=EDGE_LOOP('',(#151));
#568=EDGE_LOOP('',(#152));
#569=EDGE_LOOP('',(#153));
#570=EDGE_LOOP('',(#154,#155,#156,#157));
#571=EDGE_LOOP('',(#158));
#572=EDGE_LOOP('',(#159));
#573=EDGE_LOOP('',(#160,#161,#162,#163));
#574=EDGE_LOOP('',(#164,#165,#166,#167));
#575=EDGE_LOOP('',(#168,#169,#170,#171));
#576=EDGE_LOOP('',(#172));
#577=EDGE_LOOP('',(#173));
#578=EDGE_LOOP('',(#174));
#579=EDGE_LOOP('',(#175));
#580=EDGE_LOOP('',(#176));
#581=EDGE_LOOP('',(#177));
#582=EDGE_LOOP('',(#178));
#583=EDGE_LOOP('',(#179));
#584=EDGE_LOOP('',(#180,#181,#182,#183));
#585=EDGE_LOOP('',(#184));
#586=EDGE_LOOP('',(#185));
#587=EDGE_LOOP('',(#186));
#588=EDGE_LOOP('',(#187));
#589=EDGE_LOOP('',(#188,#189,#190,#191,#192,#193,#194,#195));
#590=EDGE_LOOP('',(#196));
#591=EDGE_LOOP('',(#197));
#592=EDGE_LOOP('',(#198));
#593=EDGE_LOOP('',(#199));
#594=EDGE_LOOP('',(#200));
#595=EDGE_LOOP('',(#201));
#596=EDGE_LOOP('',(#202));
#597=EDGE_LOOP('',(#203));
#598=EDGE_LOOP('',(#204));
#599=EDGE_LOOP('',(#205));
#600=EDGE_LOOP('',(#206));
#601=EDGE_LOOP('',(#207));
#602=EDGE_LOOP('',(#208));
#603=EDGE_LOOP('',(#209));
#604=EDGE_LOOP('',(#210));
#605=EDGE_LOOP('',(#211));
#606=EDGE_LOOP('',(#212));
#607=EDGE_LOOP('',(#213));
#608=EDGE_LOOP('',(#214));
#609=EDGE_LOOP('',(#215));
#610=EDGE_LOOP('',(#216,#217,#218,#219));
#611=EDGE_LOOP('',(#220,#221,#222,#223));
#612=EDGE_LOOP('',(#224,#225,#226,#227));
#613=EDGE_LOOP('',(#228,#229,#230,#231));
#614=EDGE_LOOP('',(#232,#233,#234,#235));
#615=EDGE_LOOP('',(#236,#237,#238,#239));
#616=EDGE_LOOP('',(#240,#241,#242,#243));
#617=EDGE_LOOP('',(#244,#245,#246,#247));
#618=EDGE_LOOP('',(#248));
#619=EDGE_LOOP('',(#249));
#620=EDGE_LOOP('',(#250));
#621=EDGE_LOOP('',(#251));
#622=EDGE_LOOP('',(#252));
#623=EDGE_LOOP('',(#253));
#624=EDGE_LOOP('',(#254));
#625=EDGE_LOOP('',(#255));
#626=EDGE_LOOP('',(#256));
#627=EDGE_LOOP('',(#257,#258,#259,#260));
#628=EDGE_LOOP('',(#261));
#629=EDGE_LOOP('',(#262));
#630=EDGE_LOOP('',(#263));
#631=EDGE_LOOP('',(#264));
#632=EDGE_LOOP('',(#265,#266,#267,#268));
#633=EDGE_LOOP('',(#269,#270,#271,#272));
#634=EDGE_LOOP('',(#273,#274,#275,#276));
#635=EDGE_LOOP('',(#277));
#636=EDGE_LOOP('',(#278));
#637=EDGE_LOOP('',(#279));
#638=EDGE_LOOP('',(#280));
#639=EDGE_LOOP('',(#281));
#640=EDGE_LOOP('',(#282));
#641=EDGE_LOOP('',(#283));
#642=EDGE_LOOP('',(#284));
#643=EDGE_LOOP('',(#285));
#644=EDGE_LOOP('',(#286));
#645=EDGE_LOOP('',(#287));
#646=EDGE_LOOP('',(#288));
#647=EDGE_LOOP('',(#289));
#648=EDGE_LOOP('',(#290));
#649=EDGE_LOOP('',(#291));
#650=EDGE_LOOP('',(#292));
#651=EDGE_LOOP('',(#293));
#652=EDGE_LOOP('',(#294));
#653=FACE_BOUND('',#551,.T.);
#654=FACE_BOUND('',#552,.T.);
#655=FACE_BOUND('',#553,.T.);
#656=FACE_BOUND('',#554,.T.);
#657=FACE_BOUND('',#555,.T.);
#658=FACE_BOUND('',#556,.T.);
#659=FACE_BOUND('',#557,.T.);
#660=FACE_BOUND('',#558,.T.);
#661=FACE_BOUND('',#559,.T.);
#662=FACE_BOUND('',#560,.T.);
#663=FACE_BOUND('',#561,.T.);
#664=FACE_BOUND('',#562,.T.);
#665=FACE_BOUND('',#563,.T.);
#666=FACE_BOUND('',#564,.T.);
#667=FACE_BOUND('',#565,.T.);
#668=FACE_BOUND('',#566,.T.);
#669=FACE_BOUND('',#567,.T.);
#670=FACE_BOUND('',#568,.T.);
#671=FACE_BOUND('',#569,.T.);
#672=FACE_BOUND('',#570,.T.);
#673=FACE_BOUND('',#571,.T.);
#674=FACE_BOUND('',#572,.T.);
#675=FACE_BOUND('',#573,.T.);
#676=FACE_BOUND('',#574,.T.);
#677=FACE_BOUND('',#575,.T.);
#678=FACE_BOUND('',#576,.T.);
#679=FACE_BOUND('',#577,.T.);
#680=FACE_BOUND('',#578,.T.);
#681=FACE_BOUND('',#579,.T.);
#682=FACE_BOUND('',#580,.T.);
#683=FACE_BOUND('',#581,.T.);
#684=FACE_BOUND('',#582,.T.);
#685=FACE_BOUND('',#583,.T.);
#686=FACE_BOUND('',#584,.T.);
#687=FACE_BOUND('',#585,.T.);
#688=FACE_BOUND('',#586,.T.);
#689=FACE_BOUND('',#587,.T.);
#690=FACE_BOUND('',#588,.T.);
#691=FACE_BOUND('',#589,.T.);
#692=FACE_BOUND('',#590,.T.);
#693=FACE_BOUND('',#591,.T.);
#694=FACE_BOUND('',#592,.T.);
#695=FACE_BOUND('',#593,.T.);
#696=FACE_BOUND('',#594,.T.);
#697=FACE_BOUND('',#595,.T.);
#698=FACE_BOUND('',#596,.T.);
#699=FACE_BOUND('',#597,.T.);
#700=FACE_BOUND('',#598,.T.);
#701=FACE_BOUND('',#599,.T.);
#702=FACE_BOUND('',#600,.T.);
#703=FACE_BOUND('',#601,.T.);
#704=FACE_BOUND('',#602,.T.);
#705=FACE_BOUND('',#603,.T.);
#706=FACE_BOUND('',#604,.T.);
#707=FACE_BOUND('',#605,.T.);
#708=FACE_BOUND('',#606,.T.);
#709=FACE_BOUND('',#607,.T.);
#710=FACE_BOUND('',#608,.T.);
#711=FACE_BOUND('',#609,.T.);
#712=FACE_BOUND('',#610,.T.);
#713=FACE_BOUND('',#611,.T.);
#714=FACE_BOUND('',#612,.T.);
#715=FACE_BOUND('',#613,.T.);
#716=FACE_BOUND('',#614,.T.);
#717=FACE_BOUND('',#615,.T.);
#718=FACE_BOUND('',#616,.T.);
#719=FACE_BOUND('',#617,.T.);
#720=FACE_BOUND('',#618,.T.);
#721=FACE_BOUND('',#619,.T.);
#722=FACE_BOUND('',#620,.T.);
#723=FACE_BOUND('',#621,.T.);
#724=FACE_BOUND('',#622,.T.);
#725=FACE_BOUND('',#623,.T.);
#726=FACE_BOUND('',#624,.T.);
#727=FACE_BOUND('',#625,.T.);
#728=FACE_BOUND('',#626,.T.);
#729=FACE_BOUND('',#627,.T.);
#730=FACE_BOUND('',#628,.T.);
#731=FACE_BOUND('',#629,.T.);
#732=FACE_BOUND('',#630,.T.);
#733=FACE_BOUND('',#631,.T.);
#734=FACE_BOUND('',#632,.T.);
#735=FACE_BOUND('',#633,.T.);
#736=FACE_BOUND('',#634,.T.);
#737=FACE_BOUND('',#635,.T.);
#738=FACE_BOUND('',#636,.T.);
#739=FACE_BOUND('',#637,.T.);
#740=FACE_BOUND('',#638,.T.);
#741=FACE_BOUND('',#639,.T.);
#742=FACE_BOUND('',#640,.T.);
#743=FACE_BOUND('',#641,.T.);
#744=FACE_BOUND('',#642,.T.);
#745=FACE_BOUND('',#643,.T.);
#746=FACE_BOUND('',#644,.T.);
#747=FACE_BOUND('',#645,.T.);
#748=FACE_BOUND('',#646,.T.);
#749=FACE_BOUND('',#647,.T.);
#750=FACE_BOUND('',#648,.T.);
#751=FACE_BOUND('',#649,.T.);
#752=FACE_BOUND('',#650,.T.);
#753=FACE_BOUND('',#651,.T.);
#754=FACE_BOUND('',#652,.T.);
#755=PLANE('',#863);
#756=PLANE('',#864);
#757=PLANE('',#865);
#758=PLANE('',#866);
#759=PLANE('',#867);
#760=PLANE('',#880);
#761=PLANE('',#889);
#762=PLANE('',#898);
#763=PLANE('',#899);
#764=PLANE('',#900);
#765=PLANE('',#913);
#766=PLANE('',#914);
#767=PLANE('',#919);
#768=PLANE('',#923);
#769=PLANE('',#924);
#770=PLANE('',#928);
#771=PLANE('',#929);
#772=PLANE('',#933);
#773=PLANE('',#934);
#774=PLANE('',#938);
#775=PLANE('',#949);
#776=PLANE('',#952);
#777=PLANE('',#955);
#778=PLANE('',#959);
#779=PLANE('',#962);
#780=PLANE('',#963);
#781=PLANE('',#964);
#782=PLANE('',#967);
#783=PLANE('',#970);
#784=PLANE('',#973);
#785=PLANE('',#976);
#786=PLANE('',#979);
#787=PLANE('',#982);
#788=ADVANCED_FACE('',(#653),#755,.F.);
#789=ADVANCED_FACE('',(#654),#756,.F.);
#790=ADVANCED_FACE('',(#655),#757,.T.);
#791=ADVANCED_FACE('',(#656),#758,.T.);
#792=ADVANCED_FACE('',(#657,#658,#659,#660,#661,#662),#759,.T.);
#793=ADVANCED_FACE('',(#663),#760,.F.);
#794=ADVANCED_FACE('',(#664,#665),#16,.T.);
#795=ADVANCED_FACE('',(#666,#667,#668,#669,#670,#671,#672),#761,.T.);
#796=ADVANCED_FACE('',(#673,#674),#14,.F.);
#797=ADVANCED_FACE('',(#675),#762,.F.);
#798=ADVANCED_FACE('',(#676),#763,.F.);
#799=ADVANCED_FACE('',(#677),#764,.T.);
#800=ADVANCED_FACE('',(#678,#679),#17,.T.);
#801=ADVANCED_FACE('',(#680,#681),#18,.T.);
#802=ADVANCED_FACE('',(#682,#683),#19,.T.);
#803=ADVANCED_FACE('',(#684,#685),#20,.T.);
#804=ADVANCED_FACE('',(#686),#765,.T.);
#805=ADVANCED_FACE('',(#687,#688,#689,#690,#691),#766,.T.);
#806=ADVANCED_FACE('',(#692,#693),#767,.T.);
#807=ADVANCED_FACE('',(#694,#695),#21,.F.);
#808=ADVANCED_FACE('',(#696),#768,.T.);
#809=ADVANCED_FACE('',(#697,#698),#769,.T.);
#810=ADVANCED_FACE('',(#699,#700),#22,.F.);
#811=ADVANCED_FACE('',(#701),#770,.T.);
#812=ADVANCED_FACE('',(#702,#703),#771,.T.);
#813=ADVANCED_FACE('',(#704,#705),#23,.F.);
#814=ADVANCED_FACE('',(#706),#772,.T.);
#815=ADVANCED_FACE('',(#707,#708),#773,.T.);
#816=ADVANCED_FACE('',(#709,#710),#24,.F.);
#817=ADVANCED_FACE('',(#711),#774,.T.);
#818=ADVANCED_FACE('',(#712),#25,.T.);
#819=ADVANCED_FACE('',(#713),#26,.T.);
#820=ADVANCED_FACE('',(#714),#27,.T.);
#821=ADVANCED_FACE('',(#715),#28,.T.);
#822=ADVANCED_FACE('',(#716),#29,.F.);
#823=ADVANCED_FACE('',(#717),#30,.F.);
#824=ADVANCED_FACE('',(#718),#31,.F.);
#825=ADVANCED_FACE('',(#719),#32,.F.);
#826=ADVANCED_FACE('',(#720,#721),#33,.F.);
#827=ADVANCED_FACE('',(#722),#775,.T.);
#828=ADVANCED_FACE('',(#723,#724),#34,.F.);
#829=ADVANCED_FACE('',(#725),#776,.T.);
#830=ADVANCED_FACE('',(#726,#727),#35,.F.);
#831=ADVANCED_FACE('',(#728),#777,.T.);
#832=ADVANCED_FACE('',(#729,#730),#36,.F.);
#833=ADVANCED_FACE('',(#731),#778,.T.);
#834=ADVANCED_FACE('',(#732,#733),#15,.F.);
#835=ADVANCED_FACE('',(#734),#779,.F.);
#836=ADVANCED_FACE('',(#735),#780,.T.);
#837=ADVANCED_FACE('',(#736),#781,.T.);
#838=ADVANCED_FACE('',(#737,#738),#37,.F.);
#839=ADVANCED_FACE('',(#739),#782,.T.);
#840=ADVANCED_FACE('',(#740,#741),#38,.F.);
#841=ADVANCED_FACE('',(#742),#783,.T.);
#842=ADVANCED_FACE('',(#743,#744),#39,.F.);
#843=ADVANCED_FACE('',(#745),#784,.T.);
#844=ADVANCED_FACE('',(#746,#747),#40,.F.);
#845=ADVANCED_FACE('',(#748),#785,.T.);
#846=ADVANCED_FACE('',(#749,#750),#12,.F.);
#847=ADVANCED_FACE('',(#751),#786,.T.);
#848=ADVANCED_FACE('',(#752,#753),#13,.F.);
#849=ADVANCED_FACE('',(#754),#787,.T.);
#850=CLOSED_SHELL('',(#788,#789,#790,#791,#792,#793,#794,#795,#796,#797,
#798,#799,#800,#801,#802,#803,#804,#805,#806,#807,#808,#809,#810,#811,#812,
#813,#814,#815,#816,#817,#818,#819,#820,#821,#822,#823,#824,#825,#826,#827,
#828,#829,#830,#831,#832,#833,#834,#835,#836,#837,#838,#839,#840,#841,#842,
#843,#844,#845,#846,#847,#848,#849));
#851=STYLED_ITEM('',(#852),#859);
#852=PRESENTATION_STYLE_ASSIGNMENT((#853));
#853=SURFACE_STYLE_USAGE(.BOTH.,#854);
#854=SURFACE_SIDE_STYLE('',(#855));
#855=SURFACE_STYLE_FILL_AREA(#856);
#856=FILL_AREA_STYLE('',(#857));
#857=FILL_AREA_STYLE_COLOUR('',#858);
#858=COLOUR_RGB('',0.647058823529412,0.647058823529412,0.647058823529412);
#859=MANIFOLD_SOLID_BREP('base',#850);
#860=SHAPE_DEFINITION_REPRESENTATION(#1510,#861);
#861=SHAPE_REPRESENTATION('base',(#862),#1505);
#862=AXIS2_PLACEMENT_3D('',#1265,#983,#984);
#863=AXIS2_PLACEMENT_3D('',#1266,#985,#986);
#864=AXIS2_PLACEMENT_3D('',#1275,#991,#992);
#865=AXIS2_PLACEMENT_3D('',#1284,#997,#998);
#866=AXIS2_PLACEMENT_3D('',#1293,#1003,#1004);
#867=AXIS2_PLACEMENT_3D('',#1302,#1009,#1010);
#868=AXIS2_PLACEMENT_3D('',#1303,#1011,#1012);
#869=AXIS2_PLACEMENT_3D('',#1305,#1013,#1014);
#870=AXIS2_PLACEMENT_3D('',#1307,#1015,#1016);
#871=AXIS2_PLACEMENT_3D('',#1312,#1018,#1019);
#872=AXIS2_PLACEMENT_3D('',#1316,#1021,#1022);
#873=AXIS2_PLACEMENT_3D('',#1320,#1024,#1025);
#874=AXIS2_PLACEMENT_3D('',#1324,#1027,#1028);
#875=AXIS2_PLACEMENT_3D('',#1325,#1029,#1030);
#876=AXIS2_PLACEMENT_3D('',#1327,#1031,#1032);
#877=AXIS2_PLACEMENT_3D('',#1328,#1033,#1034);
#878=AXIS2_PLACEMENT_3D('',#1329,#1035,#1036);
#879=AXIS2_PLACEMENT_3D('',#1330,#1037,#1038);
#880=AXIS2_PLACEMENT_3D('',#1331,#1039,#1040);
#881=AXIS2_PLACEMENT_3D('',#1332,#1041,#1042);
#882=AXIS2_PLACEMENT_3D('',#1333,#1043,#1044);
#883=AXIS2_PLACEMENT_3D('',#1334,#1045,#1046);
#884=AXIS2_PLACEMENT_3D('',#1335,#1047,#1048);
#885=AXIS2_PLACEMENT_3D('',#1336,#1049,#1050);
#886=AXIS2_PLACEMENT_3D('',#1337,#1051,#1052);
#887=AXIS2_PLACEMENT_3D('',#1339,#1053,#1054);
#888=AXIS2_PLACEMENT_3D('',#1344,#1056,#1057);
#889=AXIS2_PLACEMENT_3D('',#1347,#1059,#1060);
#890=AXIS2_PLACEMENT_3D('',#1348,#1061,#1062);
#891=AXIS2_PLACEMENT_3D('',#1350,#1063,#1064);
#892=AXIS2_PLACEMENT_3D('',#1352,#1065,#1066);
#893=AXIS2_PLACEMENT_3D('',#1354,#1067,#1068);
#894=AXIS2_PLACEMENT_3D('',#1356,#1069,#1070);
#895=AXIS2_PLACEMENT_3D('',#1358,#1071,#1072);
#896=AXIS2_PLACEMENT_3D('',#1364,#1075,#1076);
#897=AXIS2_PLACEMENT_3D('',#1365,#1077,#1078);
#898=AXIS2_PLACEMENT_3D('',#1366,#1079,#1080);
#899=AXIS2_PLACEMENT_3D('',#1372,#1084,#1085);
#900=AXIS2_PLACEMENT_3D('',#1378,#1089,#1090);
#901=AXIS2_PLACEMENT_3D('',#1384,#1094,#1095);
#902=AXIS2_PLACEMENT_3D('',#1385,#1096,#1097);
#903=AXIS2_PLACEMENT_3D('',#1387,#1098,#1099);
#904=AXIS2_PLACEMENT_3D('',#1389,#1100,#1101);
#905=AXIS2_PLACEMENT_3D('',#1390,#1102,#1103);
#906=AXIS2_PLACEMENT_3D('',#1392,#1104,#1105);
#907=AXIS2_PLACEMENT_3D('',#1394,#1106,#1107);
#908=AXIS2_PLACEMENT_3D('',#1395,#1108,#1109);
#909=AXIS2_PLACEMENT_3D('',#1397,#1110,#1111);
#910=AXIS2_PLACEMENT_3D('',#1399,#1112,#1113);
#911=AXIS2_PLACEMENT_3D('',#1400,#1114,#1115);
#912=AXIS2_PLACEMENT_3D('',#1402,#1116,#1117);
#913=AXIS2_PLACEMENT_3D('',#1404,#1118,#1119);
#914=AXIS2_PLACEMENT_3D('',#1410,#1123,#1124);
#915=AXIS2_PLACEMENT_3D('',#1411,#1125,#1126);
#916=AXIS2_PLACEMENT_3D('',#1412,#1127,#1128);
#917=AXIS2_PLACEMENT_3D('',#1413,#1129,#1130);
#918=AXIS2_PLACEMENT_3D('',#1414,#1131,#1132);
#919=AXIS2_PLACEMENT_3D('',#1415,#1133,#1134);
#920=AXIS2_PLACEMENT_3D('',#1416,#1135,#1136);
#921=AXIS2_PLACEMENT_3D('',#1418,#1137,#1138);
#922=AXIS2_PLACEMENT_3D('',#1419,#1139,#1140);
#923=AXIS2_PLACEMENT_3D('',#1421,#1141,#1142);
#924=AXIS2_PLACEMENT_3D('',#1422,#1143,#1144);
#925=AXIS2_PLACEMENT_3D('',#1423,#1145,#1146);
#926=AXIS2_PLACEMENT_3D('',#1425,#1147,#1148);
#927=AXIS2_PLACEMENT_3D('',#1426,#1149,#1150);
#928=AXIS2_PLACEMENT_3D('',#1428,#1151,#1152);
#929=AXIS2_PLACEMENT_3D('',#1429,#1153,#1154);
#930=AXIS2_PLACEMENT_3D('',#1430,#1155,#1156);
#931=AXIS2_PLACEMENT_3D('',#1432,#1157,#1158);
#932=AXIS2_PLACEMENT_3D('',#1433,#1159,#1160);
#933=AXIS2_PLACEMENT_3D('',#1435,#1161,#1162);
#934=AXIS2_PLACEMENT_3D('',#1436,#1163,#1164);
#935=AXIS2_PLACEMENT_3D('',#1437,#1165,#1166);
#936=AXIS2_PLACEMENT_3D('',#1439,#1167,#1168);
#937=AXIS2_PLACEMENT_3D('',#1440,#1169,#1170);
#938=AXIS2_PLACEMENT_3D('',#1442,#1171,#1172);
#939=AXIS2_PLACEMENT_3D('',#1443,#1173,#1174);
#940=AXIS2_PLACEMENT_3D('',#1444,#1175,#1176);
#941=AXIS2_PLACEMENT_3D('',#1445,#1177,#1178);
#942=AXIS2_PLACEMENT_3D('',#1446,#1179,#1180);
#943=AXIS2_PLACEMENT_3D('',#1447,#1181,#1182);
#944=AXIS2_PLACEMENT_3D('',#1448,#1183,#1184);
#945=AXIS2_PLACEMENT_3D('',#1449,#1185,#1186);
#946=AXIS2_PLACEMENT_3D('',#1450,#1187,#1188);
#947=AXIS2_PLACEMENT_3D('',#1451,#1189,#1190);
#948=AXIS2_PLACEMENT_3D('',#1452,#1191,#1192);
#949=AXIS2_PLACEMENT_3D('',#1454,#1193,#1194);
#950=AXIS2_PLACEMENT_3D('',#1455,#1195,#1196);
#951=AXIS2_PLACEMENT_3D('',#1456,#1197,#1198);
#952=AXIS2_PLACEMENT_3D('',#1458,#1199,#1200);
#953=AXIS2_PLACEMENT_3D('',#1459,#1201,#1202);
#954=AXIS2_PLACEMENT_3D('',#1460,#1203,#1204);
#955=AXIS2_PLACEMENT_3D('',#1462,#1205,#1206);
#956=AXIS2_PLACEMENT_3D('',#1463,#1207,#1208);
#957=AXIS2_PLACEMENT_3D('',#1464,#1209,#1210);
#958=AXIS2_PLACEMENT_3D('',#1469,#1213,#1214);
#959=AXIS2_PLACEMENT_3D('',#1471,#1215,#1216);
#960=AXIS2_PLACEMENT_3D('',#1472,#1217,#1218);
#961=AXIS2_PLACEMENT_3D('',#1474,#1219,#1220);
#962=AXIS2_PLACEMENT_3D('',#1475,#1221,#1222);
#963=AXIS2_PLACEMENT_3D('',#1477,#1224,#1225);
#964=AXIS2_PLACEMENT_3D('',#1479,#1227,#1228);
#965=AXIS2_PLACEMENT_3D('',#1480,#1229,#1230);
#966=AXIS2_PLACEMENT_3D('',#1481,#1231,#1232);
#967=AXIS2_PLACEMENT_3D('',#1483,#1233,#1234);
#968=AXIS2_PLACEMENT_3D('',#1484,#1235,#1236);
#969=AXIS2_PLACEMENT_3D('',#1485,#1237,#1238);
#970=AXIS2_PLACEMENT_3D('',#1487,#1239,#1240);
#971=AXIS2_PLACEMENT_3D('',#1488,#1241,#1242);
#972=AXIS2_PLACEMENT_3D('',#1489,#1243,#1244);
#973=AXIS2_PLACEMENT_3D('',#1491,#1245,#1246);
#974=AXIS2_PLACEMENT_3D('',#1492,#1247,#1248);
#975=AXIS2_PLACEMENT_3D('',#1493,#1249,#1250);
#976=AXIS2_PLACEMENT_3D('',#1495,#1251,#1252);
#977=AXIS2_PLACEMENT_3D('',#1496,#1253,#1254);
#978=AXIS2_PLACEMENT_3D('',#1497,#1255,#1256);
#979=AXIS2_PLACEMENT_3D('',#1499,#1257,#1258);
#980=AXIS2_PLACEMENT_3D('',#1500,#1259,#1260);
#981=AXIS2_PLACEMENT_3D('',#1501,#1261,#1262);
#982=AXIS2_PLACEMENT_3D('',#1503,#1263,#1264);
#983=DIRECTION('',(0.,0.,1.));
#984=DIRECTION('',(1.,0.,0.));
#985=DIRECTION('',(0.,-1.,0.));
#986=DIRECTION('',(0.,0.,-1.));
#987=DIRECTION('',(-1.,0.,0.));
#988=DIRECTION('',(0.,0.,-1.));
#989=DIRECTION('',(-1.,0.,0.));
#990=DIRECTION('',(0.,0.,-1.));
#991=DIRECTION('',(1.,0.,0.));
#992=DIRECTION('',(0.,0.,-1.));
#993=DIRECTION('',(0.,-1.,0.));
#994=DIRECTION('',(0.,0.,-1.));
#995=DIRECTION('',(0.,-1.,0.));
#996=DIRECTION('',(0.,0.,-1.));
#997=DIRECTION('',(0.,-1.,0.));
#998=DIRECTION('',(0.,0.,-1.));
#999=DIRECTION('',(-1.,0.,0.));
#1000=DIRECTION('',(0.,0.,-1.));
#1001=DIRECTION('',(-1.,0.,0.));
#1002=DIRECTION('',(0.,0.,-1.));
#1003=DIRECTION('',(1.,0.,0.));
#1004=DIRECTION('',(0.,0.,-1.));
#1005=DIRECTION('',(0.,-1.,0.));
#1006=DIRECTION('',(0.,0.,-1.));
#1007=DIRECTION('',(0.,-1.,0.));
#1008=DIRECTION('',(0.,0.,-1.));
#1009=DIRECTION('',(0.,0.,1.));
#1010=DIRECTION('',(1.,0.,0.));
#1011=DIRECTION('',(0.,0.,1.));
#1012=DIRECTION('',(1.,0.,0.));
#1013=DIRECTION('',(0.,0.,1.));
#1014=DIRECTION('',(1.,0.,0.));
#1015=DIRECTION('',(0.,0.,1.));
#1016=DIRECTION('',(1.,0.,0.));
#1017=DIRECTION('',(6.12323399573677E-17,-1.,0.));
#1018=DIRECTION('',(0.,0.,1.));
#1019=DIRECTION('',(1.,0.,0.));
#1020=DIRECTION('',(1.,0.,0.));
#1021=DIRECTION('',(0.,0.,1.));
#1022=DIRECTION('',(1.,0.,0.));
#1023=DIRECTION('',(0.,-1.,0.));
#1024=DIRECTION('',(0.,0.,1.));
#1025=DIRECTION('',(1.,0.,0.));
#1026=DIRECTION('',(1.,0.,0.));
#1027=DIRECTION('',(0.,0.,1.));
#1028=DIRECTION('',(1.,0.,0.));
#1029=DIRECTION('',(0.,0.,1.));
#1030=DIRECTION('',(1.,0.,0.));
#1031=DIRECTION('',(0.,0.,1.));
#1032=DIRECTION('',(1.,0.,0.));
#1033=DIRECTION('',(0.,0.,1.));
#1034=DIRECTION('',(1.,0.,0.));
#1035=DIRECTION('',(0.,0.,1.));
#1036=DIRECTION('',(1.,0.,0.));
#1037=DIRECTION('',(0.,0.,1.));
#1038=DIRECTION('',(1.,0.,0.));
#1039=DIRECTION('',(0.,0.,1.));
#1040=DIRECTION('',(1.,0.,0.));
#1041=DIRECTION('',(0.,0.,1.));
#1042=DIRECTION('',(1.,0.,0.));
#1043=DIRECTION('',(0.,0.,1.));
#1044=DIRECTION('',(1.,0.,0.));
#1045=DIRECTION('',(0.,0.,1.));
#1046=DIRECTION('',(1.,0.,0.));
#1047=DIRECTION('',(0.,0.,1.));
#1048=DIRECTION('',(1.,0.,0.));
#1049=DIRECTION('',(0.,0.,-1.));
#1050=DIRECTION('',(-1.,0.,0.));
#1051=DIRECTION('',(0.,0.,1.));
#1052=DIRECTION('',(1.,0.,0.));
#1053=DIRECTION('',(0.,0.,1.));
#1054=DIRECTION('',(1.,0.,0.));
#1055=DIRECTION('',(0.,0.,-1.));
#1056=DIRECTION('',(0.,0.,1.));
#1057=DIRECTION('',(1.,0.,0.));
#1058=DIRECTION('',(0.,0.,-1.));
#1059=DIRECTION('',(0.,0.,1.));
#1060=DIRECTION('',(1.,0.,0.));
#1061=DIRECTION('',(0.,0.,1.));
#1062=DIRECTION('',(1.,0.,0.));
#1063=DIRECTION('',(0.,0.,1.));
#1064=DIRECTION('',(1.,0.,0.));
#1065=DIRECTION('',(0.,0.,1.));
#1066=DIRECTION('',(1.,0.,0.));
#1067=DIRECTION('',(0.,0.,1.));
#1068=DIRECTION('',(1.,0.,0.));
#1069=DIRECTION('',(0.,0.,1.));
#1070=DIRECTION('',(1.,0.,0.));
#1071=DIRECTION('',(0.,0.,1.));
#1072=DIRECTION('',(1.,0.,0.));
#1073=DIRECTION('',(-1.,0.,0.));
#1074=DIRECTION('',(-1.,0.,0.));
#1075=DIRECTION('',(0.,0.,1.));
#1076=DIRECTION('',(1.,0.,0.));
#1077=DIRECTION('',(0.,0.,1.));
#1078=DIRECTION('',(1.,0.,0.));
#1079=DIRECTION('',(-1.,-6.12323399573677E-17,0.));
#1080=DIRECTION('',(6.12323399573677E-17,-1.,0.));
#1081=DIRECTION('',(0.,0.,1.));
#1082=DIRECTION('',(6.12323399573677E-17,-1.,0.));
#1083=DIRECTION('',(0.,0.,1.));
#1084=DIRECTION('',(0.,-1.,0.));
#1085=DIRECTION('',(0.,0.,-1.));
#1086=DIRECTION('',(0.,0.,1.));
#1087=DIRECTION('',(1.,0.,0.));
#1088=DIRECTION('',(0.,0.,1.));
#1089=DIRECTION('',(-1.,0.,0.));
#1090=DIRECTION('',(0.,0.,1.));
#1091=DIRECTION('',(0.,-1.,0.));
#1092=DIRECTION('',(0.,0.,1.));
#1093=DIRECTION('',(0.,0.,1.));
#1094=DIRECTION('',(0.,0.,1.));
#1095=DIRECTION('',(1.,0.,0.));
#1096=DIRECTION('',(0.,0.,1.));
#1097=DIRECTION('',(1.,0.,0.));
#1098=DIRECTION('',(0.,0.,1.));
#1099=DIRECTION('',(1.,0.,0.));
#1100=DIRECTION('',(0.,0.,1.));
#1101=DIRECTION('',(1.,0.,0.));
#1102=DIRECTION('',(0.,0.,1.));
#1103=DIRECTION('',(1.,0.,0.));
#1104=DIRECTION('',(0.,0.,1.));
#1105=DIRECTION('',(1.,0.,0.));
#1106=DIRECTION('',(0.,0.,1.));
#1107=DIRECTION('',(1.,0.,0.));
#1108=DIRECTION('',(0.,0.,1.));
#1109=DIRECTION('',(1.,0.,0.));
#1110=DIRECTION('',(0.,0.,1.));
#1111=DIRECTION('',(1.,0.,0.));
#1112=DIRECTION('',(0.,0.,1.));
#1113=DIRECTION('',(1.,0.,0.));
#1114=DIRECTION('',(0.,0.,1.));
#1115=DIRECTION('',(1.,0.,0.));
#1116=DIRECTION('',(0.,0.,1.));
#1117=DIRECTION('',(1.,0.,0.));
#1118=DIRECTION('',(0.,-1.,0.));
#1119=DIRECTION('',(0.,0.,-1.));
#1120=DIRECTION('',(1.,0.,0.));
#1121=DIRECTION('',(0.,0.,1.));
#1122=DIRECTION('',(0.,0.,1.));
#1123=DIRECTION('',(0.,0.,1.));
#1124=DIRECTION('',(1.,0.,0.));
#1125=DIRECTION('',(0.,0.,1.));
#1126=DIRECTION('',(1.,0.,0.));
#1127=DIRECTION('',(0.,0.,1.));
#1128=DIRECTION('',(1.,0.,0.));
#1129=DIRECTION('',(0.,0.,1.));
#1130=DIRECTION('',(1.,0.,0.));
#1131=DIRECTION('',(0.,0.,1.));
#1132=DIRECTION('',(1.,0.,0.));
#1133=DIRECTION('',(0.,0.,1.));
#1134=DIRECTION('',(1.,0.,0.));
#1135=DIRECTION('',(0.,0.,1.));
#1136=DIRECTION('',(1.,0.,0.));
#1137=DIRECTION('',(0.,0.,1.));
#1138=DIRECTION('',(1.,0.,0.));
#1139=DIRECTION('',(0.,0.,1.));
#1140=DIRECTION('',(1.,0.,0.));
#1141=DIRECTION('',(0.,0.,1.));
#1142=DIRECTION('',(1.,0.,0.));
#1143=DIRECTION('',(0.,0.,1.));
#1144=DIRECTION('',(1.,0.,0.));
#1145=DIRECTION('',(0.,0.,1.));
#1146=DIRECTION('',(1.,0.,0.));
#1147=DIRECTION('',(0.,0.,1.));
#1148=DIRECTION('',(1.,0.,0.));
#1149=DIRECTION('',(0.,0.,1.));
#1150=DIRECTION('',(1.,0.,0.));
#1151=DIRECTION('',(0.,0.,1.));
#1152=DIRECTION('',(1.,0.,0.));
#1153=DIRECTION('',(0.,0.,1.));
#1154=DIRECTION('',(1.,0.,0.));
#1155=DIRECTION('',(0.,0.,1.));
#1156=DIRECTION('',(1.,0.,0.));
#1157=DIRECTION('',(0.,0.,1.));
#1158=DIRECTION('',(1.,0.,0.));
#1159=DIRECTION('',(0.,0.,1.));
#1160=DIRECTION('',(1.,0.,0.));
#1161=DIRECTION('',(0.,0.,1.));
#1162=DIRECTION('',(1.,0.,0.));
#1163=DIRECTION('',(0.,0.,1.));
#1164=DIRECTION('',(1.,0.,0.));
#1165=DIRECTION('',(0.,0.,1.));
#1166=DIRECTION('',(1.,0.,0.));
#1167=DIRECTION('',(0.,0.,1.));
#1168=DIRECTION('',(1.,0.,0.));
#1169=DIRECTION('',(0.,0.,1.));
#1170=DIRECTION('',(1.,0.,0.));
#1171=DIRECTION('',(0.,0.,1.));
#1172=DIRECTION('',(1.,0.,0.));
#1173=DIRECTION('',(0.,0.,-1.));
#1174=DIRECTION('',(-1.,0.,0.));
#1175=DIRECTION('',(0.,0.,1.));
#1176=DIRECTION('',(1.,0.,0.));
#1177=DIRECTION('',(0.,0.,-1.));
#1178=DIRECTION('',(-1.,0.,0.));
#1179=DIRECTION('',(0.,0.,1.));
#1180=DIRECTION('',(1.,0.,0.));
#1181=DIRECTION('',(0.,0.,1.));
#1182=DIRECTION('',(1.,0.,0.));
#1183=DIRECTION('',(0.,0.,-1.));
#1184=DIRECTION('',(-1.,0.,0.));
#1185=DIRECTION('',(0.,0.,-1.));
#1186=DIRECTION('',(-1.,0.,0.));
#1187=DIRECTION('',(0.,0.,1.));
#1188=DIRECTION('',(1.,0.,0.));
#1189=DIRECTION('',(0.,0.,1.));
#1190=DIRECTION('',(1.,0.,0.));
#1191=DIRECTION('',(0.,0.,1.));
#1192=DIRECTION('',(1.,0.,0.));
#1193=DIRECTION('',(0.,0.,1.));
#1194=DIRECTION('',(1.,0.,0.));
#1195=DIRECTION('',(0.,0.,1.));
#1196=DIRECTION('',(1.,0.,0.));
#1197=DIRECTION('',(0.,0.,1.));
#1198=DIRECTION('',(1.,0.,0.));
#1199=DIRECTION('',(0.,0.,1.));
#1200=DIRECTION('',(1.,0.,0.));
#1201=DIRECTION('',(0.,0.,1.));
#1202=DIRECTION('',(1.,0.,0.));
#1203=DIRECTION('',(0.,0.,1.));
#1204=DIRECTION('',(1.,0.,0.));
#1205=DIRECTION('',(0.,0.,1.));
#1206=DIRECTION('',(1.,0.,0.));
#1207=DIRECTION('',(0.,0.,1.));
#1208=DIRECTION('',(1.,0.,0.));
#1209=DIRECTION('',(0.,0.,1.));
#1210=DIRECTION('',(1.,0.,0.));
#1211=DIRECTION('',(0.,0.,1.));
#1212=DIRECTION('',(0.,0.,1.));
#1213=DIRECTION('',(0.,0.,1.));
#1214=DIRECTION('',(1.,0.,0.));
#1215=DIRECTION('',(0.,0.,1.));
#1216=DIRECTION('',(1.,0.,0.));
#1217=DIRECTION('',(0.,0.,1.));
#1218=DIRECTION('',(1.,0.,0.));
#1219=DIRECTION('',(0.,0.,1.));
#1220=DIRECTION('',(1.,0.,0.));
#1221=DIRECTION('',(0.,1.,0.));
#1222=DIRECTION('',(0.,0.,1.));
#1223=DIRECTION('',(-1.,0.,0.));
#1224=DIRECTION('',(0.,1.,0.));
#1225=DIRECTION('',(0.,0.,1.));
#1226=DIRECTION('',(-1.,0.,0.));
#1227=DIRECTION('',(0.,0.,1.));
#1228=DIRECTION('',(1.,0.,0.));
#1229=DIRECTION('',(0.,0.,1.));
#1230=DIRECTION('',(1.,0.,0.));
#1231=DIRECTION('',(0.,0.,1.));
#1232=DIRECTION('',(1.,0.,0.));
#1233=DIRECTION('',(0.,0.,1.));
#1234=DIRECTION('',(1.,0.,0.));
#1235=DIRECTION('',(0.,0.,1.));
#1236=DIRECTION('',(1.,0.,0.));
#1237=DIRECTION('',(0.,0.,1.));
#1238=DIRECTION('',(1.,0.,0.));
#1239=DIRECTION('',(0.,0.,1.));
#1240=DIRECTION('',(1.,0.,0.));
#1241=DIRECTION('',(0.,0.,1.));
#1242=DIRECTION('',(1.,0.,0.));
#1243=DIRECTION('',(0.,0.,1.));
#1244=DIRECTION('',(1.,0.,0.));
#1245=DIRECTION('',(0.,0.,1.));
#1246=DIRECTION('',(1.,0.,0.));
#1247=DIRECTION('',(0.,0.,1.));
#1248=DIRECTION('',(1.,0.,0.));
#1249=DIRECTION('',(0.,0.,1.));
#1250=DIRECTION('',(1.,0.,0.));
#1251=DIRECTION('',(0.,0.,1.));
#1252=DIRECTION('',(1.,0.,0.));
#1253=DIRECTION('',(0.,0.,1.));
#1254=DIRECTION('',(-1.,0.,0.));
#1255=DIRECTION('',(0.,0.,1.));
#1256=DIRECTION('',(1.,0.,0.));
#1257=DIRECTION('',(0.,0.,1.));
#1258=DIRECTION('',(1.,0.,0.));
#1259=DIRECTION('',(0.,0.,1.));
#1260=DIRECTION('',(-1.,0.,0.));
#1261=DIRECTION('',(0.,0.,1.));
#1262=DIRECTION('',(1.,0.,0.));
#1263=DIRECTION('',(0.,0.,1.));
#1264=DIRECTION('',(1.,0.,0.));
#1265=CARTESIAN_POINT('',(0.,0.,0.));
#1266=CARTESIAN_POINT('',(0.04,0.05,0.01));
#1267=CARTESIAN_POINT('',(0.04,0.05,-0.01));
#1268=CARTESIAN_POINT('',(0.075,0.05,-0.01));
#1269=CARTESIAN_POINT('',(-0.075,0.05,-0.01));
#1270=CARTESIAN_POINT('',(-0.075,0.05,0.01));
#1271=CARTESIAN_POINT('',(-0.075,0.05,0.01));
#1272=CARTESIAN_POINT('',(0.04,0.05,0.01));
#1273=CARTESIAN_POINT('',(0.075,0.05,0.01));
#1274=CARTESIAN_POINT('',(0.075,0.05,-0.01));
#1275=CARTESIAN_POINT('',(-0.08,0.,0.01));
#1276=CARTESIAN_POINT('',(-0.08,0.,0.01));
#1277=CARTESIAN_POINT('',(-0.08,0.045,0.01));
#1278=CARTESIAN_POINT('',(-0.08,-0.045,0.01));
#1279=CARTESIAN_POINT('',(-0.08,0.045,0.01));
#1280=CARTESIAN_POINT('',(-0.08,0.045,-0.01));
#1281=CARTESIAN_POINT('',(-0.08,0.,-0.01));
#1282=CARTESIAN_POINT('',(-0.08,-0.045,-0.01));
#1283=CARTESIAN_POINT('',(-0.08,-0.045,0.01));
#1284=CARTESIAN_POINT('',(0.,-0.05,0.01));
#1285=CARTESIAN_POINT('',(0.,-0.05,-0.01));
#1286=CARTESIAN_POINT('',(0.075,-0.05,-0.01));
#1287=CARTESIAN_POINT('',(-0.075,-0.05,-0.01));
#1288=CARTESIAN_POINT('',(0.075,-0.05,0.01));
#1289=CARTESIAN_POINT('',(0.075,-0.05,0.01));
#1290=CARTESIAN_POINT('',(0.,-0.05,0.01));
#1291=CARTESIAN_POINT('',(-0.075,-0.05,0.01));
#1292=CARTESIAN_POINT('',(-0.075,-0.05,-0.01));
#1293=CARTESIAN_POINT('',(0.08,0.,0.01));
#1294=CARTESIAN_POINT('',(0.08,0.,-0.01));
#1295=CARTESIAN_POINT('',(0.08,0.045,-0.01));
#1296=CARTESIAN_POINT('',(0.08,-0.045,-0.01));
#1297=CARTESIAN_POINT('',(0.08,0.045,0.01));
#1298=CARTESIAN_POINT('',(0.08,0.045,0.01));
#1299=CARTESIAN_POINT('',(0.08,0.,0.01));
#1300=CARTESIAN_POINT('',(0.08,-0.045,0.01));
#1301=CARTESIAN_POINT('',(0.08,-0.045,0.01));
#1302=CARTESIAN_POINT('',(0.,0.0333,0.01));
#1303=CARTESIAN_POINT('',(0.077,9.18485099360515E-20,0.01));
#1304=CARTESIAN_POINT('',(0.0785,9.18485099360515E-20,0.01));
#1305=CARTESIAN_POINT('',(-0.005,0.04,0.01));
#1306=CARTESIAN_POINT('',(-0.0035,0.04,0.01));
#1307=CARTESIAN_POINT('',(-0.005,-0.04,0.01));
#1308=CARTESIAN_POINT('',(-0.0035,-0.04,0.01));
#1309=CARTESIAN_POINT('',(7.32164179578595E-20,0.,0.01));
#1310=CARTESIAN_POINT('',(-2.74347122008105E-18,0.046,0.01));
#1311=CARTESIAN_POINT('',(2.88990405599677E-18,-0.046,0.01));
#1312=CARTESIAN_POINT('',(0.001,0.046,0.01));
#1313=CARTESIAN_POINT('',(0.001,0.047,0.01));
#1314=CARTESIAN_POINT('',(0.0375,0.047,0.01));
#1315=CARTESIAN_POINT('',(0.074,0.047,0.01));
#1316=CARTESIAN_POINT('',(0.074,0.046,0.01));
#1317=CARTESIAN_POINT('',(0.075,0.046,0.01));
#1318=CARTESIAN_POINT('',(0.075,6.93889390390723E-18,0.01));
#1319=CARTESIAN_POINT('',(0.075,-0.046,0.01));
#1320=CARTESIAN_POINT('',(0.074,-0.046,0.01));
#1321=CARTESIAN_POINT('',(0.074,-0.047,0.01));
#1322=CARTESIAN_POINT('',(0.0375,-0.047,0.01));
#1323=CARTESIAN_POINT('',(0.001,-0.047,0.01));
#1324=CARTESIAN_POINT('',(0.001,-0.046,0.01));
#1325=CARTESIAN_POINT('',(-0.04,0.01,0.01));
#1326=CARTESIAN_POINT('',(-0.005,0.01,0.01));
#1327=CARTESIAN_POINT('',(-0.075,0.045,0.01));
#1328=CARTESIAN_POINT('',(-0.075,-0.045,0.01));
#1329=CARTESIAN_POINT('',(0.075,-0.045,0.01));
#1330=CARTESIAN_POINT('',(0.075,0.045,0.01));
#1331=CARTESIAN_POINT('',(0.,0.0333,-0.01));
#1332=CARTESIAN_POINT('',(-0.075,0.045,-0.01));
#1333=CARTESIAN_POINT('',(0.075,0.045,-0.01));
#1334=CARTESIAN_POINT('',(0.075,-0.045,-0.01));
#1335=CARTESIAN_POINT('',(-0.075,-0.045,-0.01));
#1336=CARTESIAN_POINT('',(-0.04,0.01,0.0636));
#1337=CARTESIAN_POINT('',(-0.04,0.01,0.015));
#1338=CARTESIAN_POINT('',(-0.01,0.01,0.015));
#1339=CARTESIAN_POINT('',(-0.04,0.01,0.0636));
#1340=CARTESIAN_POINT('',(-0.0104196010845019,0.015,0.0636));
#1341=CARTESIAN_POINT('',(-0.0104196010845019,0.005,0.0636));
#1342=CARTESIAN_POINT('',(-0.0104196010845019,0.015,0.0636));
#1343=CARTESIAN_POINT('',(-0.0104196010845019,0.015,0.0386));
#1344=CARTESIAN_POINT('',(-0.04,0.01,0.0386));
#1345=CARTESIAN_POINT('',(-0.0104196010845019,0.005,0.0386));
#1346=CARTESIAN_POINT('',(-0.0104196010845019,0.005,0.0636));
#1347=CARTESIAN_POINT('',(0.,0.,0.0636));
#1348=CARTESIAN_POINT('',(-0.04,0.03625,0.0636));
#1349=CARTESIAN_POINT('',(-0.03835,0.03625,0.0636));
#1350=CARTESIAN_POINT('',(-0.04,-0.01625,0.0636));
#1351=CARTESIAN_POINT('',(-0.03835,-0.01625,0.0636));
#1352=CARTESIAN_POINT('',(-0.0214384469938531,-0.00856155300614689,0.0636));
#1353=CARTESIAN_POINT('',(-0.0199384469938531,-0.00856155300614689,0.0636));
#1354=CARTESIAN_POINT('',(-0.0585615530061469,-0.00856155300614688,0.0636));
#1355=CARTESIAN_POINT('',(-0.0570615530061469,-0.00856155300614688,0.0636));
#1356=CARTESIAN_POINT('',(-0.0585615530061469,0.0285615530061469,0.0636));
#1357=CARTESIAN_POINT('',(-0.0570615530061469,0.0285615530061469,0.0636));
#1358=CARTESIAN_POINT('',(-0.0214384469938531,0.0285615530061469,0.0636));
#1359=CARTESIAN_POINT('',(-0.0199384469938531,0.0285615530061469,0.0636));
#1360=CARTESIAN_POINT('',(-0.0140312945157598,0.015,0.0636));
#1361=CARTESIAN_POINT('',(-0.0180625890315197,0.015,0.0636));
#1362=CARTESIAN_POINT('',(-0.0140312945157598,0.005,0.0636));
#1363=CARTESIAN_POINT('',(-0.0180625890315197,0.005,0.0636));
#1364=CARTESIAN_POINT('',(-0.04,0.01,0.0636));
#1365=CARTESIAN_POINT('',(-0.04,0.01,0.015));
#1366=CARTESIAN_POINT('',(7.32164179578595E-20,0.,-0.005));
#1367=CARTESIAN_POINT('',(2.88990405599677E-18,-0.046,-0.005));
#1368=CARTESIAN_POINT('',(2.88990405599677E-18,-0.046,-0.005));
#1369=CARTESIAN_POINT('',(7.32164179578595E-20,0.,-0.005));
#1370=CARTESIAN_POINT('',(-2.74347122008105E-18,0.046,-0.005));
#1371=CARTESIAN_POINT('',(-2.74347122008105E-18,0.046,-0.005));
#1372=CARTESIAN_POINT('',(0.0375,-0.047,-0.005));
#1373=CARTESIAN_POINT('',(0.074,-0.047,-0.005));
#1374=CARTESIAN_POINT('',(0.074,-0.047,-0.005));
#1375=CARTESIAN_POINT('',(0.0375,-0.047,-0.005));
#1376=CARTESIAN_POINT('',(0.001,-0.047,-0.005));
#1377=CARTESIAN_POINT('',(0.001,-0.047,0.01));
#1378=CARTESIAN_POINT('',(0.075,6.93889390390723E-18,-0.005));
#1379=CARTESIAN_POINT('',(0.075,6.93889390390723E-18,-0.005));
#1380=CARTESIAN_POINT('',(0.075,0.046,-0.005));
#1381=CARTESIAN_POINT('',(0.075,-0.046,-0.005));
#1382=CARTESIAN_POINT('',(0.075,-0.046,-0.005));
#1383=CARTESIAN_POINT('',(0.075,0.046,-0.005));
#1384=CARTESIAN_POINT('',(0.00475,0.0414,-0.005));
#1385=CARTESIAN_POINT('',(0.00475,0.0414,-0.005));
#1386=CARTESIAN_POINT('',(0.00775,0.0414,-0.005));
#1387=CARTESIAN_POINT('',(0.00475,0.0414,0.01));
#1388=CARTESIAN_POINT('',(0.00775,0.0414,0.01));
#1389=CARTESIAN_POINT('',(0.06925,-0.0414,-0.005));
#1390=CARTESIAN_POINT('',(0.06925,-0.0414,-0.005));
#1391=CARTESIAN_POINT('',(0.07225,-0.0414,-0.005));
#1392=CARTESIAN_POINT('',(0.06925,-0.0414,0.01));
#1393=CARTESIAN_POINT('',(0.07225,-0.0414,0.01));
#1394=CARTESIAN_POINT('',(0.00475,-0.0414,-0.005));
#1395=CARTESIAN_POINT('',(0.00475,-0.0414,-0.005));
#1396=CARTESIAN_POINT('',(0.00775,-0.0414,-0.005));
#1397=CARTESIAN_POINT('',(0.00475,-0.0414,0.01));
#1398=CARTESIAN_POINT('',(0.00775,-0.0414,0.01));
#1399=CARTESIAN_POINT('',(0.06925,0.0414,-0.005));
#1400=CARTESIAN_POINT('',(0.06925,0.0414,-0.005));
#1401=CARTESIAN_POINT('',(0.07225,0.0414,-0.005));
#1402=CARTESIAN_POINT('',(0.06925,0.0414,0.01));
#1403=CARTESIAN_POINT('',(0.07225,0.0414,0.01));
#1404=CARTESIAN_POINT('',(0.0375,0.047,-0.005));
#1405=CARTESIAN_POINT('',(0.0375,0.047,-0.005));
#1406=CARTESIAN_POINT('',(0.001,0.047,-0.005));
#1407=CARTESIAN_POINT('',(0.074,0.047,-0.005));
#1408=CARTESIAN_POINT('',(0.074,0.047,0.01));
#1409=CARTESIAN_POINT('',(0.001,0.047,-0.005));
#1410=CARTESIAN_POINT('',(0.,0.,-0.005));
#1411=CARTESIAN_POINT('',(0.074,-0.046,-0.005));
#1412=CARTESIAN_POINT('',(0.074,0.046,-0.005));
#1413=CARTESIAN_POINT('',(0.001,0.046,-0.005));
#1414=CARTESIAN_POINT('',(0.001,-0.046,-0.005));
#1415=CARTESIAN_POINT('',(0.,0.0333,0.01));
#1416=CARTESIAN_POINT('',(0.06925,0.0414,0.01));
#1417=CARTESIAN_POINT('',(0.07075,0.0414,0.01));
#1418=CARTESIAN_POINT('',(0.06925,0.0414,-0.005));
#1419=CARTESIAN_POINT('',(0.06925,0.0414,-0.005));
#1420=CARTESIAN_POINT('',(0.07075,0.0414,-0.005));
#1421=CARTESIAN_POINT('',(0.,0.,-0.005));
#1422=CARTESIAN_POINT('',(0.,0.0333,0.01));
#1423=CARTESIAN_POINT('',(0.00475,0.0414,0.01));
#1424=CARTESIAN_POINT('',(0.00625,0.0414,0.01));
#1425=CARTESIAN_POINT('',(0.00475,0.0414,-0.005));
#1426=CARTESIAN_POINT('',(0.00475,0.0414,-0.005));
#1427=CARTESIAN_POINT('',(0.00625,0.0414,-0.005));
#1428=CARTESIAN_POINT('',(0.,0.,-0.005));
#1429=CARTESIAN_POINT('',(0.,0.0333,0.01));
#1430=CARTESIAN_POINT('',(0.00475,-0.0414,0.01));
#1431=CARTESIAN_POINT('',(0.00625,-0.0414,0.01));
#1432=CARTESIAN_POINT('',(0.00475,-0.0414,-0.005));
#1433=CARTESIAN_POINT('',(0.00475,-0.0414,-0.005));
#1434=CARTESIAN_POINT('',(0.00625,-0.0414,-0.005));
#1435=CARTESIAN_POINT('',(0.,0.,-0.005));
#1436=CARTESIAN_POINT('',(0.,0.0333,0.01));
#1437=CARTESIAN_POINT('',(0.06925,-0.0414,0.01));
#1438=CARTESIAN_POINT('',(0.07075,-0.0414,0.01));
#1439=CARTESIAN_POINT('',(0.06925,-0.0414,-0.005));
#1440=CARTESIAN_POINT('',(0.06925,-0.0414,-0.005));
#1441=CARTESIAN_POINT('',(0.07075,-0.0414,-0.005));
#1442=CARTESIAN_POINT('',(0.,0.,-0.005));
#1443=CARTESIAN_POINT('',(-0.075,0.045,0.01));
#1444=CARTESIAN_POINT('',(0.075,0.045,0.01));
#1445=CARTESIAN_POINT('',(0.075,-0.045,0.01));
#1446=CARTESIAN_POINT('',(-0.075,-0.045,0.01));
#1447=CARTESIAN_POINT('',(0.074,-0.046,-0.005));
#1448=CARTESIAN_POINT('',(0.074,0.046,-0.005));
#1449=CARTESIAN_POINT('',(0.001,-0.046,-0.005));
#1450=CARTESIAN_POINT('',(0.001,0.046,-0.005));
#1451=CARTESIAN_POINT('',(-0.005,-0.04,0.));
#1452=CARTESIAN_POINT('',(-0.005,-0.04,0.));
#1453=CARTESIAN_POINT('',(-0.0035,-0.04,0.));
#1454=CARTESIAN_POINT('',(0.,0.,0.));
#1455=CARTESIAN_POINT('',(-0.005,0.04,0.));
#1456=CARTESIAN_POINT('',(-0.005,0.04,0.));
#1457=CARTESIAN_POINT('',(-0.0035,0.04,0.));
#1458=CARTESIAN_POINT('',(0.,0.,0.));
#1459=CARTESIAN_POINT('',(0.077,9.18485099360515E-20,0.));
#1460=CARTESIAN_POINT('',(0.077,9.18485099360515E-20,0.));
#1461=CARTESIAN_POINT('',(0.0785,9.18485099360515E-20,0.));
#1462=CARTESIAN_POINT('',(0.,0.,0.));
#1463=CARTESIAN_POINT('',(-0.04,0.01,0.0136));
#1464=CARTESIAN_POINT('',(-0.04,0.01,0.0386));
#1465=CARTESIAN_POINT('',(-0.0180625890315197,0.005,0.0386));
#1466=CARTESIAN_POINT('',(-0.0180625890315197,0.015,0.0386));
#1467=CARTESIAN_POINT('',(-0.0180625890315197,0.015,0.0386));
#1468=CARTESIAN_POINT('',(-0.0180625890315197,0.005,0.0386));
#1469=CARTESIAN_POINT('',(-0.04,0.01,0.0166));
#1470=CARTESIAN_POINT('',(-0.0175,0.01,0.0166));
#1471=CARTESIAN_POINT('',(-0.04,0.01,0.0136));
#1472=CARTESIAN_POINT('',(-0.04,0.01,0.0136));
#1473=CARTESIAN_POINT('',(-0.0205,0.01,0.0136));
#1474=CARTESIAN_POINT('',(-0.04,0.01,0.0166));
#1475=CARTESIAN_POINT('',(-0.0140312945157598,0.015,0.0386));
#1476=CARTESIAN_POINT('',(-0.0140312945157598,0.015,0.0386));
#1477=CARTESIAN_POINT('',(-0.0140312945157598,0.005,0.0386));
#1478=CARTESIAN_POINT('',(-0.0140312945157598,0.005,0.0386));
#1479=CARTESIAN_POINT('',(-0.04,0.01,0.0386));
#1480=CARTESIAN_POINT('',(-0.0214384469938531,0.0285615530061469,0.0536));
#1481=CARTESIAN_POINT('',(-0.0214384469938531,0.0285615530061469,0.0536));
#1482=CARTESIAN_POINT('',(-0.0199384469938531,0.0285615530061469,0.0536));
#1483=CARTESIAN_POINT('',(-0.0402098005422509,0.01,0.0536));
#1484=CARTESIAN_POINT('',(-0.0585615530061469,0.0285615530061469,0.0536));
#1485=CARTESIAN_POINT('',(-0.0585615530061469,0.0285615530061469,0.0536));
#1486=CARTESIAN_POINT('',(-0.0570615530061469,0.0285615530061469,0.0536));
#1487=CARTESIAN_POINT('',(-0.0402098005422509,0.01,0.0536));
#1488=CARTESIAN_POINT('',(-0.0585615530061469,-0.00856155300614688,0.0536));
#1489=CARTESIAN_POINT('',(-0.0585615530061469,-0.00856155300614688,0.0536));
#1490=CARTESIAN_POINT('',(-0.0570615530061469,-0.00856155300614688,0.0536));
#1491=CARTESIAN_POINT('',(-0.0402098005422509,0.01,0.0536));
#1492=CARTESIAN_POINT('',(-0.0214384469938531,-0.00856155300614689,0.0536));
#1493=CARTESIAN_POINT('',(-0.0214384469938531,-0.00856155300614689,0.0536));
#1494=CARTESIAN_POINT('',(-0.0199384469938531,-0.00856155300614689,0.0536));
#1495=CARTESIAN_POINT('',(-0.0402098005422509,0.01,0.0536));
#1496=CARTESIAN_POINT('',(-0.04,-0.01625,0.0636));
#1497=CARTESIAN_POINT('',(-0.04,-0.01625,0.0626));
#1498=CARTESIAN_POINT('',(-0.03935,-0.01625,0.0626));
#1499=CARTESIAN_POINT('',(-0.0402098005422509,0.01,0.0626));
#1500=CARTESIAN_POINT('',(-0.04,0.03625,0.0636));
#1501=CARTESIAN_POINT('',(-0.04,0.03625,0.0626));
#1502=CARTESIAN_POINT('',(-0.03935,0.03625,0.0626));
#1503=CARTESIAN_POINT('',(-0.0402098005422509,0.01,0.0626));
#1504=MECHANICAL_DESIGN_GEOMETRIC_PRESENTATION_REPRESENTATION('',(#851),
#1505);
#1505=(
GEOMETRIC_REPRESENTATION_CONTEXT(3)
GLOBAL_UNCERTAINTY_ASSIGNED_CONTEXT((#1506))
GLOBAL_UNIT_ASSIGNED_CONTEXT((#1509,#1508,#1507))
REPRESENTATION_CONTEXT('base','TOP_LEVEL_ASSEMBLY_PART')
);
#1506=UNCERTAINTY_MEASURE_WITH_UNIT(LENGTH_MEASURE(1.E-8),#1509,
'DISTANCE_ACCURACY_VALUE','Maximum Tolerance applied to model');
#1507=(
NAMED_UNIT(*)
SI_UNIT($,.STERADIAN.)
SOLID_ANGLE_UNIT()
);
#1508=(
NAMED_UNIT(*)
PLANE_ANGLE_UNIT()
SI_UNIT($,.RADIAN.)
);
#1509=(
LENGTH_UNIT()
NAMED_UNIT(*)
SI_UNIT($,.METRE.)
);
#1510=PRODUCT_DEFINITION_SHAPE('','',#1511);
#1511=PRODUCT_DEFINITION('','',#1513,#1512);
#1512=PRODUCT_DEFINITION_CONTEXT('',#1519,'design');
#1513=PRODUCT_DEFINITION_FORMATION_WITH_SPECIFIED_SOURCE('','',#1515,
 .NOT_KNOWN.);
#1514=PRODUCT_RELATED_PRODUCT_CATEGORY('','',(#1515));
#1515=PRODUCT('base','base','base',(#1517));
#1516=PRODUCT_CATEGORY('','');
#1517=PRODUCT_CONTEXT('',#1519,'mechanical');
#1518=APPLICATION_PROTOCOL_DEFINITION('international standard',
'ap242_managed_model_based_3d_engineering',2020,#1519);
#1519=APPLICATION_CONTEXT('managed model based 3d engineering');
ENDSEC;
END-ISO-10303-21;
