ISO-10303-21;
HEADER;
/* Generated by software containing ST-Developer
 * from STEP Tools, Inc. (www.steptools.com) 
 */
/* OPTION: using custom renumber hook */

FILE_DESCRIPTION(
/* description */ ('STEP AP242 Edition 2',
'CAx-IF Rec.Pracs.---Representation and Presentation of Product Manufa
cturing Information (PMI)---4.0---2014-10-13',
'CAx-IF Rec.Pracs.---3D Tessellated Geometry---0.4---2014-09-14','2;1',
'CAx-IF Rec.Pracs.---User Defined Attributes---1.5---2016-08-15'),
/* implementation_level */ '2;1');

FILE_NAME(
/* name */ 'Part Studio 1 - bearing_housing',
/* time_stamp */ '2026-08-24T08:31:46Z',
/* author */ (''),
/* organization */ (''),
/* preprocessor_version */ 'ST-DEVELOPER v20',
/* originating_system */ 'ONSHAPE BY PTC INC, 1.219',
/* authorisation */ '  ');

FILE_SCHEMA (('AP242_MANAGED_MODEL_BASED_3D_ENGINEERING_MIM_LF { 1 0 10303 442 3 1 4 }'));
ENDSEC;

DATA;
#10=SHAPE_REPRESENTATION_RELATIONSHIP('','',#296,#11);
#11=ADVANCED_BREP_SHAPE_REPRESENTATION('',(#294),#515);
#12=CONICAL_SURFACE('',#335,0.0015,0.785398163397448);
#13=CONICAL_SURFACE('',#338,0.0015,0.785398163397448);
#14=LINE('',#456,#22);
#15=LINE('',#460,#23);
#16=LINE('',#464,#24);
#17=LINE('',#468,#25);
#18=LINE('',#470,#26);
#19=LINE('',#472,#27);
#20=LINE('',#474,#28);
#21=LINE('',#475,#29);
#22=VECTOR('',#365,1.);
#23=VECTOR('',#368,1.);
#24=VECTOR('',#371,1.);
#25=VECTOR('',#374,1.);
#26=VECTOR('',#377,1.);
#27=VECTOR('',#380,1.);
#28=VECTOR('',#383,1.);
#29=VECTOR('',#384,1.);
#30=CYLINDRICAL_SURFACE('',#301,0.006);
#31=CYLINDRICAL_SURFACE('',#303,0.02);
#32=CYLINDRICAL_SURFACE('',#307,0.01105);
#33=CYLINDRICAL_SURFACE('',#323,0.0015);
#34=CYLINDRICAL_SURFACE('',#326,0.0015);
#35=CYLINDRICAL_SURFACE('',#329,0.0015);
#36=CYLINDRICAL_SURFACE('',#332,0.0015);
#37=ORIENTED_EDGE('',*,*,#95,.F.);
#38=ORIENTED_EDGE('',*,*,#96,.T.);
#39=ORIENTED_EDGE('',*,*,#95,.T.);
#40=ORIENTED_EDGE('',*,*,#97,.F.);
#41=ORIENTED_EDGE('',*,*,#98,.T.);
#42=ORIENTED_EDGE('',*,*,#99,.F.);
#43=ORIENTED_EDGE('',*,*,#97,.T.);
#44=ORIENTED_EDGE('',*,*,#98,.F.);
#45=ORIENTED_EDGE('',*,*,#100,.T.);
#46=ORIENTED_EDGE('',*,*,#101,.F.);
#47=ORIENTED_EDGE('',*,*,#102,.T.);
#48=ORIENTED_EDGE('',*,*,#103,.T.);
#49=ORIENTED_EDGE('',*,*,#104,.T.);
#50=ORIENTED_EDGE('',*,*,#105,.F.);
#51=ORIENTED_EDGE('',*,*,#106,.T.);
#52=ORIENTED_EDGE('',*,*,#107,.T.);
#53=ORIENTED_EDGE('',*,*,#96,.F.);
#54=ORIENTED_EDGE('',*,*,#104,.F.);
#55=ORIENTED_EDGE('',*,*,#108,.T.);
#56=ORIENTED_EDGE('',*,*,#108,.F.);
#57=ORIENTED_EDGE('',*,*,#103,.F.);
#58=ORIENTED_EDGE('',*,*,#109,.T.);
#59=ORIENTED_EDGE('',*,*,#105,.T.);
#60=ORIENTED_EDGE('',*,*,#110,.F.);
#61=ORIENTED_EDGE('',*,*,#107,.F.);
#62=ORIENTED_EDGE('',*,*,#111,.T.);
#63=ORIENTED_EDGE('',*,*,#101,.T.);
#64=ORIENTED_EDGE('',*,*,#112,.F.);
#65=ORIENTED_EDGE('',*,*,#113,.F.);
#66=ORIENTED_EDGE('',*,*,#114,.F.);
#67=ORIENTED_EDGE('',*,*,#115,.F.);
#68=ORIENTED_EDGE('',*,*,#116,.F.);
#69=ORIENTED_EDGE('',*,*,#117,.F.);
#70=ORIENTED_EDGE('',*,*,#109,.F.);
#71=ORIENTED_EDGE('',*,*,#102,.F.);
#72=ORIENTED_EDGE('',*,*,#111,.F.);
#73=ORIENTED_EDGE('',*,*,#106,.F.);
#74=ORIENTED_EDGE('',*,*,#99,.T.);
#75=ORIENTED_EDGE('',*,*,#100,.F.);
#76=ORIENTED_EDGE('',*,*,#110,.T.);
#77=ORIENTED_EDGE('',*,*,#118,.F.);
#78=ORIENTED_EDGE('',*,*,#117,.T.);
#79=ORIENTED_EDGE('',*,*,#118,.T.);
#80=ORIENTED_EDGE('',*,*,#119,.F.);
#81=ORIENTED_EDGE('',*,*,#116,.T.);
#82=ORIENTED_EDGE('',*,*,#119,.T.);
#83=ORIENTED_EDGE('',*,*,#120,.F.);
#84=ORIENTED_EDGE('',*,*,#115,.T.);
#85=ORIENTED_EDGE('',*,*,#120,.T.);
#86=ORIENTED_EDGE('',*,*,#121,.F.);
#87=ORIENTED_EDGE('',*,*,#114,.T.);
#88=ORIENTED_EDGE('',*,*,#121,.T.);
#89=ORIENTED_EDGE('',*,*,#122,.F.);
#90=ORIENTED_EDGE('',*,*,#113,.T.);
#91=ORIENTED_EDGE('',*,*,#122,.T.);
#92=ORIENTED_EDGE('',*,*,#123,.F.);
#93=ORIENTED_EDGE('',*,*,#112,.T.);
#94=ORIENTED_EDGE('',*,*,#123,.T.);
#95=EDGE_CURVE('',#124,#124,#149,.T.);
#96=EDGE_CURVE('',#125,#125,#150,.T.);
#97=EDGE_CURVE('',#126,#126,#151,.T.);
#98=EDGE_CURVE('',#127,#127,#152,.T.);
#99=EDGE_CURVE('',#128,#128,#153,.T.);
#100=EDGE_CURVE('',#129,#130,#154,.T.);
#101=EDGE_CURVE('',#131,#130,#14,.T.);
#102=EDGE_CURVE('',#131,#132,#155,.T.);
#103=EDGE_CURVE('',#132,#133,#15,.T.);
#104=EDGE_CURVE('',#133,#134,#156,.T.);
#105=EDGE_CURVE('',#135,#134,#16,.T.);
#106=EDGE_CURVE('',#135,#136,#157,.T.);
#107=EDGE_CURVE('',#136,#129,#17,.T.);
#108=EDGE_CURVE('',#133,#134,#18,.T.);
#109=EDGE_CURVE('',#132,#135,#19,.T.);
#110=EDGE_CURVE('',#129,#130,#20,.T.);
#111=EDGE_CURVE('',#136,#131,#21,.T.);
#112=EDGE_CURVE('',#137,#137,#158,.T.);
#113=EDGE_CURVE('',#138,#138,#159,.T.);
#114=EDGE_CURVE('',#139,#139,#160,.T.);
#115=EDGE_CURVE('',#140,#140,#161,.T.);
#116=EDGE_CURVE('',#141,#141,#162,.T.);
#117=EDGE_CURVE('',#142,#142,#163,.T.);
#118=EDGE_CURVE('',#143,#143,#164,.T.);
#119=EDGE_CURVE('',#144,#144,#165,.T.);
#120=EDGE_CURVE('',#145,#145,#166,.T.);
#121=EDGE_CURVE('',#146,#146,#167,.T.);
#122=EDGE_CURVE('',#147,#147,#168,.T.);
#123=EDGE_CURVE('',#148,#148,#169,.T.);
#124=VERTEX_POINT('',#440);
#125=VERTEX_POINT('',#442);
#126=VERTEX_POINT('',#445);
#127=VERTEX_POINT('',#448);
#128=VERTEX_POINT('',#450);
#129=VERTEX_POINT('',#454);
#130=VERTEX_POINT('',#455);
#131=VERTEX_POINT('',#457);
#132=VERTEX_POINT('',#459);
#133=VERTEX_POINT('',#461);
#134=VERTEX_POINT('',#463);
#135=VERTEX_POINT('',#465);
#136=VERTEX_POINT('',#467);
#137=VERTEX_POINT('',#478);
#138=VERTEX_POINT('',#480);
#139=VERTEX_POINT('',#482);
#140=VERTEX_POINT('',#484);
#141=VERTEX_POINT('',#486);
#142=VERTEX_POINT('',#488);
#143=VERTEX_POINT('',#492);
#144=VERTEX_POINT('',#496);
#145=VERTEX_POINT('',#500);
#146=VERTEX_POINT('',#504);
#147=VERTEX_POINT('',#508);
#148=VERTEX_POINT('',#512);
#149=CIRCLE('',#299,0.006);
#150=CIRCLE('',#300,0.01105);
#151=CIRCLE('',#302,0.006);
#152=CIRCLE('',#304,0.02);
#153=CIRCLE('',#305,0.02);
#154=CIRCLE('',#308,0.01105);
#155=CIRCLE('',#309,0.01105);
#156=CIRCLE('',#310,0.01105);
#157=CIRCLE('',#311,0.01105);
#158=CIRCLE('',#316,0.0015);
#159=CIRCLE('',#317,0.0015);
#160=CIRCLE('',#318,0.0015);
#161=CIRCLE('',#319,0.0015);
#162=CIRCLE('',#320,0.0015);
#163=CIRCLE('',#321,0.0015);
#164=CIRCLE('',#324,0.0015);
#165=CIRCLE('',#327,0.0015);
#166=CIRCLE('',#330,0.0015);
#167=CIRCLE('',#333,0.0015);
#168=CIRCLE('',#336,0.0008);
#169=CIRCLE('',#339,0.0008);
#170=EDGE_LOOP('',(#37));
#171=EDGE_LOOP('',(#38));
#172=EDGE_LOOP('',(#39));
#173=EDGE_LOOP('',(#40));
#174=EDGE_LOOP('',(#41));
#175=EDGE_LOOP('',(#42));
#176=EDGE_LOOP('',(#43));
#177=EDGE_LOOP('',(#44));
#178=EDGE_LOOP('',(#45,#46,#47,#48,#49,#50,#51,#52));
#179=EDGE_LOOP('',(#53));
#180=EDGE_LOOP('',(#54,#55));
#181=EDGE_LOOP('',(#56,#57,#58,#59));
#182=EDGE_LOOP('',(#60,#61,#62,#63));
#183=EDGE_LOOP('',(#64));
#184=EDGE_LOOP('',(#65));
#185=EDGE_LOOP('',(#66));
#186=EDGE_LOOP('',(#67));
#187=EDGE_LOOP('',(#68));
#188=EDGE_LOOP('',(#69));
#189=EDGE_LOOP('',(#70,#71,#72,#73));
#190=EDGE_LOOP('',(#74));
#191=EDGE_LOOP('',(#75,#76));
#192=EDGE_LOOP('',(#77));
#193=EDGE_LOOP('',(#78));
#194=EDGE_LOOP('',(#79));
#195=EDGE_LOOP('',(#80));
#196=EDGE_LOOP('',(#81));
#197=EDGE_LOOP('',(#82));
#198=EDGE_LOOP('',(#83));
#199=EDGE_LOOP('',(#84));
#200=EDGE_LOOP('',(#85));
#201=EDGE_LOOP('',(#86));
#202=EDGE_LOOP('',(#87));
#203=EDGE_LOOP('',(#88));
#204=EDGE_LOOP('',(#89));
#205=EDGE_LOOP('',(#90));
#206=EDGE_LOOP('',(#91));
#207=EDGE_LOOP('',(#92));
#208=EDGE_LOOP('',(#93));
#209=EDGE_LOOP('',(#94));
#210=FACE_BOUND('',#170,.T.);
#211=FACE_BOUND('',#171,.T.);
#212=FACE_BOUND('',#172,.T.);
#213=FACE_BOUND('',#173,.T.);
#214=FACE_BOUND('',#174,.T.);
#215=FACE_BOUND('',#175,.T.);
#216=FACE_BOUND('',#176,.T.);
#217=FACE_BOUND('',#177,.T.);
#218=FACE_BOUND('',#178,.T.);
#219=FACE_BOUND('',#179,.T.);
#220=FACE_BOUND('',#180,.T.);
#221=FACE_BOUND('',#181,.T.);
#222=FACE_BOUND('',#182,.T.);
#223=FACE_BOUND('',#183,.T.);
#224=FACE_BOUND('',#184,.T.);
#225=FACE_BOUND('',#185,.T.);
#226=FACE_BOUND('',#186,.T.);
#227=FACE_BOUND('',#187,.T.);
#228=FACE_BOUND('',#188,.T.);
#229=FACE_BOUND('',#189,.T.);
#230=FACE_BOUND('',#190,.T.);
#231=FACE_BOUND('',#191,.T.);
#232=FACE_BOUND('',#192,.T.);
#233=FACE_BOUND('',#193,.T.);
#234=FACE_BOUND('',#194,.T.);
#235=FACE_BOUND('',#195,.T.);
#236=FACE_BOUND('',#196,.T.);
#237=FACE_BOUND('',#197,.T.);
#238=FACE_BOUND('',#198,.T.);
#239=FACE_BOUND('',#199,.T.);
#240=FACE_BOUND('',#200,.T.);
#241=FACE_BOUND('',#201,.T.);
#242=FACE_BOUND('',#202,.T.);
#243=FACE_BOUND('',#203,.T.);
#244=FACE_BOUND('',#204,.T.);
#245=FACE_BOUND('',#205,.T.);
#246=FACE_BOUND('',#206,.T.);
#247=FACE_BOUND('',#207,.T.);
#248=FACE_BOUND('',#208,.T.);
#249=FACE_BOUND('',#209,.T.);
#250=PLANE('',#298);
#251=PLANE('',#306);
#252=PLANE('',#312);
#253=PLANE('',#313);
#254=PLANE('',#314);
#255=PLANE('',#315);
#256=PLANE('',#322);
#257=PLANE('',#325);
#258=PLANE('',#328);
#259=PLANE('',#331);
#260=PLANE('',#334);
#261=PLANE('',#337);
#262=PLANE('',#340);
#263=ADVANCED_FACE('',(#210,#211),#250,.T.);
#264=ADVANCED_FACE('',(#212,#213),#30,.F.);
#265=ADVANCED_FACE('',(#214,#215),#31,.T.);
#266=ADVANCED_FACE('',(#216,#217),#251,.F.);
#267=ADVANCED_FACE('',(#218,#219),#32,.F.);
#268=ADVANCED_FACE('',(#220),#252,.F.);
#269=ADVANCED_FACE('',(#221),#253,.T.);
#270=ADVANCED_FACE('',(#222),#254,.T.);
#271=ADVANCED_FACE('',(#223,#224,#225,#226,#227,#228,#229,#230),#255,.T.);
#272=ADVANCED_FACE('',(#231),#256,.F.);
#273=ADVANCED_FACE('',(#232,#233),#33,.F.);
#274=ADVANCED_FACE('',(#234),#257,.T.);
#275=ADVANCED_FACE('',(#235,#236),#34,.F.);
#276=ADVANCED_FACE('',(#237),#258,.T.);
#277=ADVANCED_FACE('',(#238,#239),#35,.F.);
#278=ADVANCED_FACE('',(#240),#259,.T.);
#279=ADVANCED_FACE('',(#241,#242),#36,.F.);
#280=ADVANCED_FACE('',(#243),#260,.T.);
#281=ADVANCED_FACE('',(#244,#245),#12,.T.);
#282=ADVANCED_FACE('',(#246),#261,.T.);
#283=ADVANCED_FACE('',(#247,#248),#13,.T.);
#284=ADVANCED_FACE('',(#249),#262,.T.);
#285=CLOSED_SHELL('',(#263,#264,#265,#266,#267,#268,#269,#270,#271,#272,
#273,#274,#275,#276,#277,#278,#279,#280,#281,#282,#283,#284));
#286=STYLED_ITEM('',(#287),#294);
#287=PRESENTATION_STYLE_ASSIGNMENT((#288));
#288=SURFACE_STYLE_USAGE(.BOTH.,#289);
#289=SURFACE_SIDE_STYLE('',(#290));
#290=SURFACE_STYLE_FILL_AREA(#291);
#291=FILL_AREA_STYLE('',(#292));
#292=FILL_AREA_STYLE_COLOUR('',#293);
#293=COLOUR_RGB('',0.498039215686275,0.498039215686275,0.498039215686275);
#294=MANIFOLD_SOLID_BREP('bearing_housing',#285);
#295=SHAPE_DEFINITION_REPRESENTATION(#520,#296);
#296=SHAPE_REPRESENTATION('bearing_housing',(#297),#515);
#297=AXIS2_PLACEMENT_3D('',#437,#341,#342);
#298=AXIS2_PLACEMENT_3D('',#438,#343,#344);
#299=AXIS2_PLACEMENT_3D('',#439,#345,#346);
#300=AXIS2_PLACEMENT_3D('',#441,#347,#348);
#301=AXIS2_PLACEMENT_3D('',#443,#349,#350);
#302=AXIS2_PLACEMENT_3D('',#444,#351,#352);
#303=AXIS2_PLACEMENT_3D('',#446,#353,#354);
#304=AXIS2_PLACEMENT_3D('',#447,#355,#356);
#305=AXIS2_PLACEMENT_3D('',#449,#357,#358);
#306=AXIS2_PLACEMENT_3D('',#451,#359,#360);
#307=AXIS2_PLACEMENT_3D('',#452,#361,#362);
#308=AXIS2_PLACEMENT_3D('',#453,#363,#364);
#309=AXIS2_PLACEMENT_3D('',#458,#366,#367);
#310=AXIS2_PLACEMENT_3D('',#462,#369,#370);
#311=AXIS2_PLACEMENT_3D('',#466,#372,#373);
#312=AXIS2_PLACEMENT_3D('',#469,#375,#376);
#313=AXIS2_PLACEMENT_3D('',#471,#378,#379);
#314=AXIS2_PLACEMENT_3D('',#473,#381,#382);
#315=AXIS2_PLACEMENT_3D('',#476,#385,#386);
#316=AXIS2_PLACEMENT_3D('',#477,#387,#388);
#317=AXIS2_PLACEMENT_3D('',#479,#389,#390);
#318=AXIS2_PLACEMENT_3D('',#481,#391,#392);
#319=AXIS2_PLACEMENT_3D('',#483,#393,#394);
#320=AXIS2_PLACEMENT_3D('',#485,#395,#396);
#321=AXIS2_PLACEMENT_3D('',#487,#397,#398);
#322=AXIS2_PLACEMENT_3D('',#489,#399,#400);
#323=AXIS2_PLACEMENT_3D('',#490,#401,#402);
#324=AXIS2_PLACEMENT_3D('',#491,#403,#404);
#325=AXIS2_PLACEMENT_3D('',#493,#405,#406);
#326=AXIS2_PLACEMENT_3D('',#494,#407,#408);
#327=AXIS2_PLACEMENT_3D('',#495,#409,#410);
#328=AXIS2_PLACEMENT_3D('',#497,#411,#412);
#329=AXIS2_PLACEMENT_3D('',#498,#413,#414);
#330=AXIS2_PLACEMENT_3D('',#499,#415,#416);
#331=AXIS2_PLACEMENT_3D('',#501,#417,#418);
#332=AXIS2_PLACEMENT_3D('',#502,#419,#420);
#333=AXIS2_PLACEMENT_3D('',#503,#421,#422);
#334=AXIS2_PLACEMENT_3D('',#505,#423,#424);
#335=AXIS2_PLACEMENT_3D('',#506,#425,#426);
#336=AXIS2_PLACEMENT_3D('',#507,#427,#428);
#337=AXIS2_PLACEMENT_3D('',#509,#429,#430);
#338=AXIS2_PLACEMENT_3D('',#510,#431,#432);
#339=AXIS2_PLACEMENT_3D('',#511,#433,#434);
#340=AXIS2_PLACEMENT_3D('',#513,#435,#436);
#341=DIRECTION('',(0.,0.,1.));
#342=DIRECTION('',(1.,0.,0.));
#343=DIRECTION('',(0.,0.,1.));
#344=DIRECTION('',(1.,0.,0.));
#345=DIRECTION('',(0.,0.,1.));
#346=DIRECTION('',(1.,0.,0.));
#347=DIRECTION('',(0.,0.,1.));
#348=DIRECTION('',(1.,0.,0.));
#349=DIRECTION('',(0.,0.,-1.));
#350=DIRECTION('',(-1.,0.,0.));
#351=DIRECTION('',(0.,0.,1.));
#352=DIRECTION('',(1.,0.,0.));
#353=DIRECTION('',(0.,0.,-1.));
#354=DIRECTION('',(-1.,0.,0.));
#355=DIRECTION('',(0.,0.,1.));
#356=DIRECTION('',(1.,0.,0.));
#357=DIRECTION('',(0.,0.,1.));
#358=DIRECTION('',(1.,0.,0.));
#359=DIRECTION('',(0.,0.,1.));
#360=DIRECTION('',(1.,0.,0.));
#361=DIRECTION('',(0.,0.,-1.));
#362=DIRECTION('',(-1.,0.,0.));
#363=DIRECTION('',(0.,0.,1.));
#364=DIRECTION('',(1.,0.,0.));
#365=DIRECTION('',(0.,0.,-1.));
#366=DIRECTION('',(0.,0.,1.));
#367=DIRECTION('',(1.,0.,0.));
#368=DIRECTION('',(0.,0.,-1.));
#369=DIRECTION('',(0.,0.,1.));
#370=DIRECTION('',(1.,0.,0.));
#371=DIRECTION('',(0.,0.,-1.));
#372=DIRECTION('',(0.,0.,1.));
#373=DIRECTION('',(1.,0.,0.));
#374=DIRECTION('',(0.,0.,-1.));
#375=DIRECTION('',(0.,0.,1.));
#376=DIRECTION('',(1.,0.,0.));
#377=DIRECTION('',(0.,-1.,0.));
#378=DIRECTION('',(1.,0.,0.));
#379=DIRECTION('',(0.,0.,-1.));
#380=DIRECTION('',(0.,-1.,0.));
#381=DIRECTION('',(-1.,0.,0.));
#382=DIRECTION('',(0.,0.,1.));
#383=DIRECTION('',(0.,1.,0.));
#384=DIRECTION('',(0.,1.,0.));
#385=DIRECTION('',(0.,0.,1.));
#386=DIRECTION('',(1.,0.,0.));
#387=DIRECTION('',(0.,0.,1.));
#388=DIRECTION('',(1.,0.,0.));
#389=DIRECTION('',(0.,0.,1.));
#390=DIRECTION('',(1.,0.,0.));
#391=DIRECTION('',(0.,0.,1.));
#392=DIRECTION('',(1.,0.,0.));
#393=DIRECTION('',(0.,0.,1.));
#394=DIRECTION('',(1.,0.,0.));
#395=DIRECTION('',(0.,0.,1.));
#396=DIRECTION('',(1.,0.,0.));
#397=DIRECTION('',(0.,0.,1.));
#398=DIRECTION('',(1.,0.,0.));
#399=DIRECTION('',(0.,0.,1.));
#400=DIRECTION('',(1.,0.,0.));
#401=DIRECTION('',(0.,0.,1.));
#402=DIRECTION('',(1.,0.,0.));
#403=DIRECTION('',(0.,0.,1.));
#404=DIRECTION('',(1.,0.,0.));
#405=DIRECTION('',(0.,0.,1.));
#406=DIRECTION('',(1.,0.,0.));
#407=DIRECTION('',(0.,0.,1.));
#408=DIRECTION('',(1.,0.,0.));
#409=DIRECTION('',(0.,0.,1.));
#410=DIRECTION('',(1.,0.,0.));
#411=DIRECTION('',(0.,0.,1.));
#412=DIRECTION('',(1.,0.,0.));
#413=DIRECTION('',(0.,0.,1.));
#414=DIRECTION('',(1.,0.,0.));
#415=DIRECTION('',(0.,0.,1.));
#416=DIRECTION('',(1.,0.,0.));
#417=DIRECTION('',(0.,0.,1.));
#418=DIRECTION('',(1.,0.,0.));
#419=DIRECTION('',(0.,0.,1.));
#420=DIRECTION('',(1.,0.,0.));
#421=DIRECTION('',(0.,0.,1.));
#422=DIRECTION('',(1.,0.,0.));
#423=DIRECTION('',(0.,0.,1.));
#424=DIRECTION('',(1.,0.,0.));
#425=DIRECTION('',(0.,0.,-1.));
#426=DIRECTION('',(1.,0.,0.));
#427=DIRECTION('',(0.,0.,1.));
#428=DIRECTION('',(1.,0.,0.));
#429=DIRECTION('',(0.,0.,1.));
#430=DIRECTION('',(1.,0.,0.));
#431=DIRECTION('',(0.,0.,-1.));
#432=DIRECTION('',(1.,0.,0.));
#433=DIRECTION('',(0.,0.,1.));
#434=DIRECTION('',(1.,0.,0.));
#435=DIRECTION('',(0.,0.,1.));
#436=DIRECTION('',(1.,0.,0.));
#437=CARTESIAN_POINT('',(0.,0.,0.));
#438=CARTESIAN_POINT('',(0.,0.,0.003));
#439=CARTESIAN_POINT('',(0.,3.67394039744206E-19,0.003));
#440=CARTESIAN_POINT('',(0.006,3.67394039744206E-19,0.003));
#441=CARTESIAN_POINT('',(0.,6.76617356528913E-19,0.003));
#442=CARTESIAN_POINT('',(0.01105,6.76617356528913E-19,0.003));
#443=CARTESIAN_POINT('',(0.,3.67394039744206E-19,0.003));
#444=CARTESIAN_POINT('',(0.,3.67394039744206E-19,0.));
#445=CARTESIAN_POINT('',(0.006,3.67394039744206E-19,0.));
#446=CARTESIAN_POINT('',(0.,1.22464679914735E-18,0.003));
#447=CARTESIAN_POINT('',(0.,1.22464679914735E-18,0.));
#448=CARTESIAN_POINT('',(0.02,1.22464679914735E-18,0.));
#449=CARTESIAN_POINT('',(0.,1.22464679914735E-18,0.0128));
#450=CARTESIAN_POINT('',(0.02,1.22464679914735E-18,0.0128));
#451=CARTESIAN_POINT('',(0.,0.,0.));
#452=CARTESIAN_POINT('',(0.,6.76617356528913E-19,0.0101));
#453=CARTESIAN_POINT('',(0.,6.76617356528913E-19,0.0101));
#454=CARTESIAN_POINT('',(0.006,-0.00927914327941971,0.0101));
#455=CARTESIAN_POINT('',(0.006,0.00927914327941971,0.0101));
#456=CARTESIAN_POINT('',(0.006,0.00927914327941971,0.0128));
#457=CARTESIAN_POINT('',(0.006,0.00927914327941971,0.0128));
#458=CARTESIAN_POINT('',(0.,6.76617356528913E-19,0.0128));
#459=CARTESIAN_POINT('',(-0.006,0.00927914327941971,0.0128));
#460=CARTESIAN_POINT('',(-0.006,0.00927914327941971,0.0128));
#461=CARTESIAN_POINT('',(-0.006,0.00927914327941971,0.0101));
#462=CARTESIAN_POINT('',(0.,6.76617356528913E-19,0.0101));
#463=CARTESIAN_POINT('',(-0.006,-0.00927914327941971,0.0101));
#464=CARTESIAN_POINT('',(-0.006,-0.00927914327941971,0.0128));
#465=CARTESIAN_POINT('',(-0.006,-0.00927914327941971,0.0128));
#466=CARTESIAN_POINT('',(0.,6.76617356528913E-19,0.0128));
#467=CARTESIAN_POINT('',(0.006,-0.00927914327941971,0.0128));
#468=CARTESIAN_POINT('',(0.006,-0.00927914327941971,0.0128));
#469=CARTESIAN_POINT('',(0.,0.,0.0101));
#470=CARTESIAN_POINT('',(-0.006,-0.00463957163970986,0.0101));
#471=CARTESIAN_POINT('',(-0.006,-0.00463957163970986,0.0128));
#472=CARTESIAN_POINT('',(-0.006,-0.00463957163970986,0.0128));
#473=CARTESIAN_POINT('',(0.006,0.00463957163970986,0.0128));
#474=CARTESIAN_POINT('',(0.006,0.00463957163970986,0.0101));
#475=CARTESIAN_POINT('',(0.006,0.00463957163970986,0.0128));
#476=CARTESIAN_POINT('',(0.,0.,0.0128));
#477=CARTESIAN_POINT('',(-0.0145887279377012,0.00530986272513101,0.0128));
#478=CARTESIAN_POINT('',(-0.0130887279377012,0.00530986272513101,0.0128));
#479=CARTESIAN_POINT('',(0.0145887279377012,-0.00530986272513101,0.0128));
#480=CARTESIAN_POINT('',(0.0160887279377012,-0.00530986272513101,0.0128));
#481=CARTESIAN_POINT('',(1.95156391047391E-18,0.015525,0.0128));
#482=CARTESIAN_POINT('',(0.0015,0.015525,0.0128));
#483=CARTESIAN_POINT('',(-0.015525,2.81892564846231E-18,0.0128));
#484=CARTESIAN_POINT('',(-0.014025,2.81892564846231E-18,0.0128));
#485=CARTESIAN_POINT('',(-3.90312782094781E-18,-0.015525,0.0128));
#486=CARTESIAN_POINT('',(0.0015,-0.015525,0.0128));
#487=CARTESIAN_POINT('',(0.015525,-4.77048955893622E-18,0.0128));
#488=CARTESIAN_POINT('',(0.017025,-4.77048955893622E-18,0.0128));
#489=CARTESIAN_POINT('',(0.,0.,0.0101));
#490=CARTESIAN_POINT('',(0.015525,-4.77048955893622E-18,0.0078));
#491=CARTESIAN_POINT('',(0.015525,-4.77048955893622E-18,0.0078));
#492=CARTESIAN_POINT('',(0.017025,-4.77048955893622E-18,0.0078));
#493=CARTESIAN_POINT('',(0.,0.,0.0078));
#494=CARTESIAN_POINT('',(-3.90312782094781E-18,-0.015525,0.0078));
#495=CARTESIAN_POINT('',(-3.90312782094781E-18,-0.015525,0.0078));
#496=CARTESIAN_POINT('',(0.0015,-0.015525,0.0078));
#497=CARTESIAN_POINT('',(0.,0.,0.0078));
#498=CARTESIAN_POINT('',(-0.015525,2.81892564846231E-18,0.0078));
#499=CARTESIAN_POINT('',(-0.015525,2.81892564846231E-18,0.0078));
#500=CARTESIAN_POINT('',(-0.014025,2.81892564846231E-18,0.0078));
#501=CARTESIAN_POINT('',(0.,0.,0.0078));
#502=CARTESIAN_POINT('',(1.95156391047391E-18,0.015525,0.0078));
#503=CARTESIAN_POINT('',(1.95156391047391E-18,0.015525,0.0078));
#504=CARTESIAN_POINT('',(0.0015,0.015525,0.0078));
#505=CARTESIAN_POINT('',(0.,0.,0.0078));
#506=CARTESIAN_POINT('',(0.0145887279377012,-0.00530986272513101,0.0128));
#507=CARTESIAN_POINT('',(0.0145887279377012,-0.00530986272513101,0.0135));
#508=CARTESIAN_POINT('',(0.0153887279377012,-0.00530986272513101,0.0135));
#509=CARTESIAN_POINT('',(0.,0.,0.0135));
#510=CARTESIAN_POINT('',(-0.0145887279377012,0.00530986272513101,0.0128));
#511=CARTESIAN_POINT('',(-0.0145887279377012,0.00530986272513101,0.0135));
#512=CARTESIAN_POINT('',(-0.0137887279377012,0.00530986272513101,0.0135));
#513=CARTESIAN_POINT('',(0.,0.,0.0135));
#514=MECHANICAL_DESIGN_GEOMETRIC_PRESENTATION_REPRESENTATION('',(#286),
#515);
#515=(
GEOMETRIC_REPRESENTATION_CONTEXT(3)
GLOBAL_UNCERTAINTY_ASSIGNED_CONTEXT((#516))
GLOBAL_UNIT_ASSIGNED_CONTEXT((#519,#518,#517))
REPRESENTATION_CONTEXT('bearing_housing','TOP_LEVEL_ASSEMBLY_PART')
);
#516=UNCERTAINTY_MEASURE_WITH_UNIT(LENGTH_MEASURE(1.E-8),#519,
'DISTANCE_ACCURACY_VALUE','Maximum Tolerance applied to model');
#517=(
NAMED_UNIT(*)
SI_UNIT($,.STERADIAN.)
SOLID_ANGLE_UNIT()
);
#518=(
NAMED_UNIT(*)
PLANE_ANGLE_UNIT()
SI_UNIT($,.RADIAN.)
);
#519=(
LENGTH_UNIT()
NAMED_UNIT(*)
SI_UNIT($,.METRE.)
);
#520=PRODUCT_DEFINITION_SHAPE('','',#521);
#521=PRODUCT_DEFINITION('','',#523,#522);
#522=PRODUCT_DEFINITION_CONTEXT('',#529,'design');
#523=PRODUCT_DEFINITION_FORMATION_WITH_SPECIFIED_SOURCE('','',#525,
 .NOT_KNOWN.);
#524=PRODUCT_RELATED_PRODUCT_CATEGORY('','',(#525));
#525=PRODUCT('bearing_housing','bearing_housing','bearing_housing',(#527));
#526=PRODUCT_CATEGORY('','');
#527=PRODUCT_CONTEXT('',#529,'mechanical');
#528=APPLICATION_PROTOCOL_DEFINITION('international standard',
'ap242_managed_model_based_3d_engineering',2020,#529);
#529=APPLICATION_CONTEXT('managed model based 3d engineering');
ENDSEC;
END-ISO-10303-21;
