ISO-10303-21;
HEADER;
/* Generated by software containing ST-Developer
 * from STEP Tools, Inc. (www.steptools.com) 
 */
/* OPTION: using custom renumber hook */

FILE_DESCRIPTION(
/* description */ ('STEP AP242 Edition 2',
'CAx-IF Rec.Pracs.---Representation and Presentation of Product Manufa
cturing Information (PMI)---4.0---2014-10-13',
'CAx-IF Rec.Pracs.---3D Tessellated Geometry---0.4---2014-09-14','2;1',
'CAx-IF Rec.Pracs.---User Defined Attributes---1.5---2016-08-15'),
/* implementation_level */ '2;1');

FILE_NAME(
/* name */ 'Part Studio 1 - encoder_cap',
/* time_stamp */ '2026-08-24T08:36:04Z',
/* author */ (''),
/* organization */ (''),
/* preprocessor_version */ 'ST-DEVELOPER v20',
/* originating_system */ 'ONSHAPE BY PTC INC, 1.219',
/* authorisation */ '  ');

FILE_SCHEMA (('AP242_MANAGED_MODEL_BASED_3D_ENGINEERING_MIM_LF { 1 0 10303 442 3 1 4 }'));
ENDSEC;

DATA;
#10=SHAPE_REPRESENTATION_RELATIONSHIP('','',#191,#11);
#11=ADVANCED_BREP_SHAPE_REPRESENTATION('',(#189),#317);
#12=PLANE('',#196);
#13=PLANE('',#212);
#14=PLANE('',#213);
#15=PLANE('',#214);
#16=LINE('',#274,#24);
#17=LINE('',#278,#25);
#18=LINE('',#280,#26);
#19=LINE('',#282,#27);
#20=LINE('',#284,#28);
#21=LINE('',#288,#29);
#22=LINE('',#312,#30);
#23=LINE('',#313,#31);
#24=VECTOR('',#221,1.);
#25=VECTOR('',#224,1.);
#26=VECTOR('',#227,1.);
#27=VECTOR('',#228,1.);
#28=VECTOR('',#229,1.);
#29=VECTOR('',#234,1.);
#30=VECTOR('',#263,1.);
#31=VECTOR('',#264,1.);
#32=ORIENTED_EDGE('',*,*,#72,.T.);
#33=ORIENTED_EDGE('',*,*,#73,.F.);
#34=ORIENTED_EDGE('',*,*,#74,.F.);
#35=ORIENTED_EDGE('',*,*,#75,.T.);
#36=ORIENTED_EDGE('',*,*,#76,.F.);
#37=ORIENTED_EDGE('',*,*,#77,.F.);
#38=ORIENTED_EDGE('',*,*,#78,.T.);
#39=ORIENTED_EDGE('',*,*,#73,.T.);
#40=ORIENTED_EDGE('',*,*,#79,.F.);
#41=ORIENTED_EDGE('',*,*,#80,.F.);
#42=ORIENTED_EDGE('',*,*,#81,.T.);
#43=ORIENTED_EDGE('',*,*,#77,.T.);
#44=ORIENTED_EDGE('',*,*,#82,.T.);
#45=ORIENTED_EDGE('',*,*,#83,.F.);
#46=ORIENTED_EDGE('',*,*,#84,.T.);
#47=ORIENTED_EDGE('',*,*,#85,.F.);
#48=ORIENTED_EDGE('',*,*,#86,.T.);
#49=ORIENTED_EDGE('',*,*,#87,.F.);
#50=ORIENTED_EDGE('',*,*,#88,.T.);
#51=ORIENTED_EDGE('',*,*,#89,.F.);
#52=ORIENTED_EDGE('',*,*,#90,.T.);
#53=ORIENTED_EDGE('',*,*,#75,.F.);
#54=ORIENTED_EDGE('',*,*,#91,.F.);
#55=ORIENTED_EDGE('',*,*,#80,.T.);
#56=ORIENTED_EDGE('',*,*,#88,.F.);
#57=ORIENTED_EDGE('',*,*,#86,.F.);
#58=ORIENTED_EDGE('',*,*,#84,.F.);
#59=ORIENTED_EDGE('',*,*,#82,.F.);
#60=ORIENTED_EDGE('',*,*,#74,.T.);
#61=ORIENTED_EDGE('',*,*,#78,.F.);
#62=ORIENTED_EDGE('',*,*,#81,.F.);
#63=ORIENTED_EDGE('',*,*,#91,.T.);
#64=ORIENTED_EDGE('',*,*,#89,.T.);
#65=ORIENTED_EDGE('',*,*,#87,.T.);
#66=ORIENTED_EDGE('',*,*,#85,.T.);
#67=ORIENTED_EDGE('',*,*,#83,.T.);
#68=ORIENTED_EDGE('',*,*,#72,.F.);
#69=ORIENTED_EDGE('',*,*,#90,.F.);
#70=ORIENTED_EDGE('',*,*,#79,.T.);
#71=ORIENTED_EDGE('',*,*,#76,.T.);
#72=EDGE_CURVE('',#92,#93,#108,.T.);
#73=EDGE_CURVE('',#94,#93,#16,.T.);
#74=EDGE_CURVE('',#95,#94,#109,.T.);
#75=EDGE_CURVE('',#95,#92,#17,.T.);
#76=EDGE_CURVE('',#96,#93,#18,.T.);
#77=EDGE_CURVE('',#97,#96,#19,.T.);
#78=EDGE_CURVE('',#97,#94,#20,.T.);
#79=EDGE_CURVE('',#98,#96,#110,.T.);
#80=EDGE_CURVE('',#99,#98,#21,.T.);
#81=EDGE_CURVE('',#99,#97,#111,.T.);
#82=EDGE_CURVE('',#100,#100,#112,.T.);
#83=EDGE_CURVE('',#101,#101,#113,.T.);
#84=EDGE_CURVE('',#102,#102,#114,.T.);
#85=EDGE_CURVE('',#103,#103,#115,.T.);
#86=EDGE_CURVE('',#104,#104,#116,.T.);
#87=EDGE_CURVE('',#105,#105,#117,.T.);
#88=EDGE_CURVE('',#106,#106,#118,.T.);
#89=EDGE_CURVE('',#107,#107,#119,.T.);
#90=EDGE_CURVE('',#98,#92,#22,.T.);
#91=EDGE_CURVE('',#99,#95,#23,.T.);
#92=VERTEX_POINT('',#272);
#93=VERTEX_POINT('',#273);
#94=VERTEX_POINT('',#275);
#95=VERTEX_POINT('',#277);
#96=VERTEX_POINT('',#281);
#97=VERTEX_POINT('',#283);
#98=VERTEX_POINT('',#287);
#99=VERTEX_POINT('',#289);
#100=VERTEX_POINT('',#293);
#101=VERTEX_POINT('',#295);
#102=VERTEX_POINT('',#298);
#103=VERTEX_POINT('',#300);
#104=VERTEX_POINT('',#303);
#105=VERTEX_POINT('',#305);
#106=VERTEX_POINT('',#308);
#107=VERTEX_POINT('',#310);
#108=CIRCLE('',#194,0.02);
#109=CIRCLE('',#195,0.02);
#110=CIRCLE('',#198,0.0025);
#111=CIRCLE('',#199,0.0025);
#112=CIRCLE('',#201,0.0015);
#113=CIRCLE('',#202,0.0015);
#114=CIRCLE('',#204,0.0015);
#115=CIRCLE('',#205,0.0015);
#116=CIRCLE('',#207,0.0015);
#117=CIRCLE('',#208,0.0015);
#118=CIRCLE('',#210,0.0015);
#119=CIRCLE('',#211,0.0015);
#120=EDGE_LOOP('',(#32,#33,#34,#35));
#121=EDGE_LOOP('',(#36,#37,#38,#39));
#122=EDGE_LOOP('',(#40,#41,#42,#43));
#123=EDGE_LOOP('',(#44));
#124=EDGE_LOOP('',(#45));
#125=EDGE_LOOP('',(#46));
#126=EDGE_LOOP('',(#47));
#127=EDGE_LOOP('',(#48));
#128=EDGE_LOOP('',(#49));
#129=EDGE_LOOP('',(#50));
#130=EDGE_LOOP('',(#51));
#131=EDGE_LOOP('',(#52,#53,#54,#55));
#132=EDGE_LOOP('',(#56));
#133=EDGE_LOOP('',(#57));
#134=EDGE_LOOP('',(#58));
#135=EDGE_LOOP('',(#59));
#136=EDGE_LOOP('',(#60,#61,#62,#63));
#137=EDGE_LOOP('',(#64));
#138=EDGE_LOOP('',(#65));
#139=EDGE_LOOP('',(#66));
#140=EDGE_LOOP('',(#67));
#141=EDGE_LOOP('',(#68,#69,#70,#71));
#142=FACE_BOUND('',#120,.T.);
#143=FACE_BOUND('',#121,.T.);
#144=FACE_BOUND('',#122,.T.);
#145=FACE_BOUND('',#123,.T.);
#146=FACE_BOUND('',#124,.T.);
#147=FACE_BOUND('',#125,.T.);
#148=FACE_BOUND('',#126,.T.);
#149=FACE_BOUND('',#127,.T.);
#150=FACE_BOUND('',#128,.T.);
#151=FACE_BOUND('',#129,.T.);
#152=FACE_BOUND('',#130,.T.);
#153=FACE_BOUND('',#131,.T.);
#154=FACE_BOUND('',#132,.T.);
#155=FACE_BOUND('',#133,.T.);
#156=FACE_BOUND('',#134,.T.);
#157=FACE_BOUND('',#135,.T.);
#158=FACE_BOUND('',#136,.T.);
#159=FACE_BOUND('',#137,.T.);
#160=FACE_BOUND('',#138,.T.);
#161=FACE_BOUND('',#139,.T.);
#162=FACE_BOUND('',#140,.T.);
#163=FACE_BOUND('',#141,.T.);
#164=CYLINDRICAL_SURFACE('',#193,0.02);
#165=CYLINDRICAL_SURFACE('',#197,0.0025);
#166=CYLINDRICAL_SURFACE('',#200,0.0015);
#167=CYLINDRICAL_SURFACE('',#203,0.0015);
#168=CYLINDRICAL_SURFACE('',#206,0.0015);
#169=CYLINDRICAL_SURFACE('',#209,0.0015);
#170=ADVANCED_FACE('',(#142),#164,.T.);
#171=ADVANCED_FACE('',(#143),#12,.T.);
#172=ADVANCED_FACE('',(#144),#165,.F.);
#173=ADVANCED_FACE('',(#145,#146),#166,.F.);
#174=ADVANCED_FACE('',(#147,#148),#167,.F.);
#175=ADVANCED_FACE('',(#149,#150),#168,.F.);
#176=ADVANCED_FACE('',(#151,#152),#169,.F.);
#177=ADVANCED_FACE('',(#153),#13,.F.);
#178=ADVANCED_FACE('',(#154,#155,#156,#157,#158),#14,.T.);
#179=ADVANCED_FACE('',(#159,#160,#161,#162,#163),#15,.F.);
#180=CLOSED_SHELL('',(#170,#171,#172,#173,#174,#175,#176,#177,#178,#179));
#181=STYLED_ITEM('',(#182),#189);
#182=PRESENTATION_STYLE_ASSIGNMENT((#183));
#183=SURFACE_STYLE_USAGE(.BOTH.,#184);
#184=SURFACE_SIDE_STYLE('',(#185));
#185=SURFACE_STYLE_FILL_AREA(#186);
#186=FILL_AREA_STYLE('',(#187));
#187=FILL_AREA_STYLE_COLOUR('',#188);
#188=COLOUR_RGB('',0.231372549019608,0.380392156862745,0.705882352941177);
#189=MANIFOLD_SOLID_BREP('encoder_cap',#180);
#190=SHAPE_DEFINITION_REPRESENTATION(#322,#191);
#191=SHAPE_REPRESENTATION('encoder_cap',(#192),#317);
#192=AXIS2_PLACEMENT_3D('',#269,#215,#216);
#193=AXIS2_PLACEMENT_3D('',#270,#217,#218);
#194=AXIS2_PLACEMENT_3D('',#271,#219,#220);
#195=AXIS2_PLACEMENT_3D('',#276,#222,#223);
#196=AXIS2_PLACEMENT_3D('',#279,#225,#226);
#197=AXIS2_PLACEMENT_3D('',#285,#230,#231);
#198=AXIS2_PLACEMENT_3D('',#286,#232,#233);
#199=AXIS2_PLACEMENT_3D('',#290,#235,#236);
#200=AXIS2_PLACEMENT_3D('',#291,#237,#238);
#201=AXIS2_PLACEMENT_3D('',#292,#239,#240);
#202=AXIS2_PLACEMENT_3D('',#294,#241,#242);
#203=AXIS2_PLACEMENT_3D('',#296,#243,#244);
#204=AXIS2_PLACEMENT_3D('',#297,#245,#246);
#205=AXIS2_PLACEMENT_3D('',#299,#247,#248);
#206=AXIS2_PLACEMENT_3D('',#301,#249,#250);
#207=AXIS2_PLACEMENT_3D('',#302,#251,#252);
#208=AXIS2_PLACEMENT_3D('',#304,#253,#254);
#209=AXIS2_PLACEMENT_3D('',#306,#255,#256);
#210=AXIS2_PLACEMENT_3D('',#307,#257,#258);
#211=AXIS2_PLACEMENT_3D('',#309,#259,#260);
#212=AXIS2_PLACEMENT_3D('',#311,#261,#262);
#213=AXIS2_PLACEMENT_3D('',#314,#265,#266);
#214=AXIS2_PLACEMENT_3D('',#315,#267,#268);
#215=DIRECTION('',(0.,0.,1.));
#216=DIRECTION('',(1.,0.,0.));
#217=DIRECTION('',(0.,0.,-1.));
#218=DIRECTION('',(-1.,0.,0.));
#219=DIRECTION('',(0.,0.,1.));
#220=DIRECTION('',(1.,0.,0.));
#221=DIRECTION('',(0.,0.,-1.));
#222=DIRECTION('',(0.,0.,1.));
#223=DIRECTION('',(1.,0.,0.));
#224=DIRECTION('',(0.,0.,-1.));
#225=DIRECTION('',(-0.707106781186548,-0.707106781186547,0.));
#226=DIRECTION('',(0.707106781186547,-0.707106781186548,0.));
#227=DIRECTION('',(-0.707106781186547,0.707106781186548,0.));
#228=DIRECTION('',(0.,0.,-1.));
#229=DIRECTION('',(-0.707106781186547,0.707106781186548,0.));
#230=DIRECTION('',(0.,0.,-1.));
#231=DIRECTION('',(-1.,0.,0.));
#232=DIRECTION('',(0.,0.,1.));
#233=DIRECTION('',(1.,0.,0.));
#234=DIRECTION('',(0.,0.,-1.));
#235=DIRECTION('',(0.,0.,1.));
#236=DIRECTION('',(1.,0.,0.));
#237=DIRECTION('',(0.,0.,-1.));
#238=DIRECTION('',(-1.,0.,0.));
#239=DIRECTION('',(0.,0.,1.));
#240=DIRECTION('',(1.,0.,0.));
#241=DIRECTION('',(0.,0.,1.));
#242=DIRECTION('',(1.,0.,0.));
#243=DIRECTION('',(0.,0.,-1.));
#244=DIRECTION('',(-1.,0.,0.));
#245=DIRECTION('',(0.,0.,1.));
#246=DIRECTION('',(1.,0.,0.));
#247=DIRECTION('',(0.,0.,1.));
#248=DIRECTION('',(1.,0.,0.));
#249=DIRECTION('',(0.,0.,-1.));
#250=DIRECTION('',(-1.,0.,0.));
#251=DIRECTION('',(0.,0.,1.));
#252=DIRECTION('',(1.,0.,0.));
#253=DIRECTION('',(0.,0.,1.));
#254=DIRECTION('',(1.,0.,0.));
#255=DIRECTION('',(0.,0.,-1.));
#256=DIRECTION('',(-1.,0.,0.));
#257=DIRECTION('',(0.,0.,1.));
#258=DIRECTION('',(1.,0.,0.));
#259=DIRECTION('',(0.,0.,1.));
#260=DIRECTION('',(1.,0.,0.));
#261=DIRECTION('',(-0.707106781186548,-0.707106781186547,0.));
#262=DIRECTION('',(0.707106781186547,-0.707106781186548,0.));
#263=DIRECTION('',(-0.707106781186547,0.707106781186548,0.));
#264=DIRECTION('',(-0.707106781186547,0.707106781186548,0.));
#265=DIRECTION('',(0.,0.,1.));
#266=DIRECTION('',(1.,0.,0.));
#267=DIRECTION('',(0.,0.,1.));
#268=DIRECTION('',(1.,0.,0.));
#269=CARTESIAN_POINT('',(0.,0.,0.));
#270=CARTESIAN_POINT('',(0.149313732981682,0.0128510361462832,0.002));
#271=CARTESIAN_POINT('',(0.149313732981682,0.0128510361462832,0.));
#272=CARTESIAN_POINT('',(0.133514750828313,0.025114484393719,0.));
#273=CARTESIAN_POINT('',(0.137050284734246,0.0286500182996518,0.));
#274=CARTESIAN_POINT('',(0.137050284734246,0.0286500182996518,0.002));
#275=CARTESIAN_POINT('',(0.137050284734246,0.0286500182996518,0.002));
#276=CARTESIAN_POINT('',(0.149313732981682,0.0128510361462832,0.002));
#277=CARTESIAN_POINT('',(0.133514750828313,0.025114484393719,0.002));
#278=CARTESIAN_POINT('',(0.133514750828313,0.025114484393719,0.002));
#279=CARTESIAN_POINT('',(0.144065892334447,0.0216344106994506,0.002));
#280=CARTESIAN_POINT('',(0.144065892334447,0.0216344106994506,0.));
#281=CARTESIAN_POINT('',(0.151081499934648,0.0146188030992495,0.));
#282=CARTESIAN_POINT('',(0.151081499934648,0.0146188030992495,0.002));
#283=CARTESIAN_POINT('',(0.151081499934648,0.0146188030992495,0.002));
#284=CARTESIAN_POINT('',(0.144065892334447,0.0216344106994506,0.002));
#285=CARTESIAN_POINT('',(0.149313732981682,0.0128510361462831,0.002));
#286=CARTESIAN_POINT('',(0.149313732981682,0.0128510361462831,0.));
#287=CARTESIAN_POINT('',(0.147545966028715,0.0110832691933168,0.));
#288=CARTESIAN_POINT('',(0.147545966028715,0.0110832691933168,0.002));
#289=CARTESIAN_POINT('',(0.147545966028715,0.0110832691933168,0.002));
#290=CARTESIAN_POINT('',(0.149313732981682,0.0128510361462831,0.002));
#291=CARTESIAN_POINT('',(0.132313732981682,0.0128510361462832,0.002));
#292=CARTESIAN_POINT('',(0.132313732981682,0.0128510361462832,0.002));
#293=CARTESIAN_POINT('',(0.133813732981682,0.0128510361462832,0.002));
#294=CARTESIAN_POINT('',(0.132313732981682,0.0128510361462832,0.));
#295=CARTESIAN_POINT('',(0.133813732981682,0.0128510361462832,0.));
#296=CARTESIAN_POINT('',(0.149313732981682,-0.00414896385371685,0.002));
#297=CARTESIAN_POINT('',(0.149313732981682,-0.00414896385371685,0.002));
#298=CARTESIAN_POINT('',(0.150813732981682,-0.00414896385371685,0.002));
#299=CARTESIAN_POINT('',(0.149313732981682,-0.00414896385371685,0.));
#300=CARTESIAN_POINT('',(0.150813732981682,-0.00414896385371685,0.));
#301=CARTESIAN_POINT('',(0.166313732981682,0.0128510361462832,0.002));
#302=CARTESIAN_POINT('',(0.166313732981682,0.0128510361462832,0.002));
#303=CARTESIAN_POINT('',(0.167813732981682,0.0128510361462832,0.002));
#304=CARTESIAN_POINT('',(0.166313732981682,0.0128510361462832,0.));
#305=CARTESIAN_POINT('',(0.167813732981682,0.0128510361462832,0.));
#306=CARTESIAN_POINT('',(0.149313732981682,0.0298510361462831,0.002));
#307=CARTESIAN_POINT('',(0.149313732981682,0.0298510361462831,0.002));
#308=CARTESIAN_POINT('',(0.150813732981682,0.0298510361462831,0.002));
#309=CARTESIAN_POINT('',(0.149313732981682,0.0298510361462831,0.));
#310=CARTESIAN_POINT('',(0.150813732981682,0.0298510361462831,0.));
#311=CARTESIAN_POINT('',(0.140530358428514,0.0180988767935179,0.002));
#312=CARTESIAN_POINT('',(0.140530358428514,0.0180988767935179,0.));
#313=CARTESIAN_POINT('',(0.140530358428514,0.0180988767935179,0.002));
#314=CARTESIAN_POINT('',(0.149313732981682,0.0128510361462832,0.002));
#315=CARTESIAN_POINT('',(0.149313732981682,0.0128510361462832,0.));
#316=MECHANICAL_DESIGN_GEOMETRIC_PRESENTATION_REPRESENTATION('',(#181),
#317);
#317=(
GEOMETRIC_REPRESENTATION_CONTEXT(3)
GLOBAL_UNCERTAINTY_ASSIGNED_CONTEXT((#318))
GLOBAL_UNIT_ASSIGNED_CONTEXT((#321,#320,#319))
REPRESENTATION_CONTEXT('encoder_cap','TOP_LEVEL_ASSEMBLY_PART')
);
#318=UNCERTAINTY_MEASURE_WITH_UNIT(LENGTH_MEASURE(1.E-8),#321,
'DISTANCE_ACCURACY_VALUE','Maximum Tolerance applied to model');
#319=(
NAMED_UNIT(*)
SI_UNIT($,.STERADIAN.)
SOLID_ANGLE_UNIT()
);
#320=(
NAMED_UNIT(*)
PLANE_ANGLE_UNIT()
SI_UNIT($,.RADIAN.)
);
#321=(
LENGTH_UNIT()
NAMED_UNIT(*)
SI_UNIT($,.METRE.)
);
#322=PRODUCT_DEFINITION_SHAPE('','',#323);
#323=PRODUCT_DEFINITION('','',#325,#324);
#324=PRODUCT_DEFINITION_CONTEXT('',#331,'design');
#325=PRODUCT_DEFINITION_FORMATION_WITH_SPECIFIED_SOURCE('','',#327,
 .NOT_KNOWN.);
#326=PRODUCT_RELATED_PRODUCT_CATEGORY('','',(#327));
#327=PRODUCT('encoder_cap','encoder_cap','encoder_cap',(#329));
#328=PRODUCT_CATEGORY('','');
#329=PRODUCT_CONTEXT('',#331,'mechanical');
#330=APPLICATION_PROTOCOL_DEFINITION('international standard',
'ap242_managed_model_based_3d_engineering',2020,#331);
#331=APPLICATION_CONTEXT('managed model based 3d engineering');
ENDSEC;
END-ISO-10303-21;
