ISO-10303-21;
HEADER;
/* Generated by software containing ST-Developer
 * from STEP Tools, Inc. (www.steptools.com) 
 */
/* OPTION: using custom renumber hook */

FILE_DESCRIPTION(
/* description */ ('STEP AP242 Edition 2',
'CAx-IF Rec.Pracs.---Representation and Presentation of Product Manufa
cturing Information (PMI)---4.0---2014-10-13',
'CAx-IF Rec.Pracs.---3D Tessellated Geometry---0.4---2014-09-14','2;1',
'CAx-IF Rec.Pracs.---User Defined Attributes---1.5---2016-08-15'),
/* implementation_level */ '2;1');

FILE_NAME(
/* name */ 'Part Studio 1 - encoder_housing',
/* time_stamp */ '2026-08-24T08:35:40Z',
/* author */ (''),
/* organization */ (''),
/* preprocessor_version */ 'ST-DEVELOPER v20',
/* originating_system */ 'ONSHAPE BY PTC INC, 1.219',
/* authorisation */ '  ');

FILE_SCHEMA (('AP242_MANAGED_MODEL_BASED_3D_ENGINEERING_MIM_LF { 1 0 10303 442 3 1 4 }'));
ENDSEC;

DATA;
#10=SHAPE_REPRESENTATION_RELATIONSHIP('','',#907,#11);
#11=ADVANCED_BREP_SHAPE_REPRESENTATION('',(#905),#1539);
#12=CONICAL_SURFACE('',#943,0.00165,0.785398163397448);
#13=CONICAL_SURFACE('',#946,0.00165,0.785398163397448);
#14=CIRCLE('',#914,0.0028);
#15=CIRCLE('',#915,0.0028);
#16=CIRCLE('',#917,0.0028);
#17=CIRCLE('',#918,0.0028);
#18=CIRCLE('',#920,0.02);
#19=CIRCLE('',#921,0.02);
#20=CIRCLE('',#923,0.001);
#21=CIRCLE('',#924,0.001);
#22=CIRCLE('',#925,0.001);
#23=CIRCLE('',#926,0.001);
#24=CIRCLE('',#927,0.001);
#25=CIRCLE('',#928,0.001);
#26=CIRCLE('',#929,0.001);
#27=CIRCLE('',#930,0.001);
#28=CIRCLE('',#931,0.001);
#29=CIRCLE('',#932,0.001);
#30=CIRCLE('',#933,0.001);
#31=CIRCLE('',#934,0.001);
#32=CIRCLE('',#935,0.0028);
#33=CIRCLE('',#936,0.0028);
#34=CIRCLE('',#937,0.00165);
#35=CIRCLE('',#938,0.00165);
#36=CIRCLE('',#939,0.0015);
#37=CIRCLE('',#940,0.0015);
#38=CIRCLE('',#941,0.0015);
#39=CIRCLE('',#942,0.0015);
#40=CIRCLE('',#944,0.00065);
#41=CIRCLE('',#947,0.00065);
#42=CIRCLE('',#950,0.0015);
#43=CIRCLE('',#951,0.0015);
#44=CIRCLE('',#952,0.0015);
#45=CIRCLE('',#953,0.0015);
#46=CIRCLE('',#954,0.0028);
#47=CIRCLE('',#955,0.0028);
#48=CIRCLE('',#959,0.0015);
#49=CIRCLE('',#962,0.0015);
#50=CIRCLE('',#965,0.0015);
#51=CIRCLE('',#968,0.0015);
#52=CIRCLE('',#973,0.0015);
#53=CIRCLE('',#975,0.001);
#54=CIRCLE('',#976,0.001);
#55=CIRCLE('',#977,0.001);
#56=CIRCLE('',#981,0.0015);
#57=CIRCLE('',#983,0.001);
#58=CIRCLE('',#984,0.001);
#59=CIRCLE('',#985,0.001);
#60=CIRCLE('',#989,0.0015);
#61=CIRCLE('',#991,0.001);
#62=CIRCLE('',#992,0.001);
#63=CIRCLE('',#993,0.001);
#64=CIRCLE('',#997,0.0015);
#65=CIRCLE('',#999,0.001);
#66=CIRCLE('',#1000,0.001);
#67=CIRCLE('',#1001,0.001);
#68=CYLINDRICAL_SURFACE('',#913,0.0028);
#69=CYLINDRICAL_SURFACE('',#916,0.0028);
#70=CYLINDRICAL_SURFACE('',#919,0.02);
#71=CYLINDRICAL_SURFACE('',#956,0.0028);
#72=CYLINDRICAL_SURFACE('',#957,0.0028);
#73=CYLINDRICAL_SURFACE('',#958,0.0015);
#74=CYLINDRICAL_SURFACE('',#961,0.0015);
#75=CYLINDRICAL_SURFACE('',#964,0.0015);
#76=CYLINDRICAL_SURFACE('',#967,0.0015);
#77=CYLINDRICAL_SURFACE('',#972,0.0015);
#78=CYLINDRICAL_SURFACE('',#980,0.0015);
#79=CYLINDRICAL_SURFACE('',#988,0.0015);
#80=CYLINDRICAL_SURFACE('',#996,0.0015);
#81=CYLINDRICAL_SURFACE('',#1002,0.001);
#82=CYLINDRICAL_SURFACE('',#1003,0.001);
#83=CYLINDRICAL_SURFACE('',#1004,0.001);
#84=CYLINDRICAL_SURFACE('',#1005,0.001);
#85=CYLINDRICAL_SURFACE('',#1006,0.001);
#86=CYLINDRICAL_SURFACE('',#1007,0.001);
#87=CYLINDRICAL_SURFACE('',#1008,0.001);
#88=CYLINDRICAL_SURFACE('',#1009,0.001);
#89=CYLINDRICAL_SURFACE('',#1010,0.001);
#90=CYLINDRICAL_SURFACE('',#1011,0.001);
#91=CYLINDRICAL_SURFACE('',#1012,0.001);
#92=CYLINDRICAL_SURFACE('',#1013,0.001);
#93=ORIENTED_EDGE('',*,*,#321,.T.);
#94=ORIENTED_EDGE('',*,*,#322,.T.);
#95=ORIENTED_EDGE('',*,*,#323,.T.);
#96=ORIENTED_EDGE('',*,*,#324,.T.);
#97=ORIENTED_EDGE('',*,*,#325,.T.);
#98=ORIENTED_EDGE('',*,*,#326,.F.);
#99=ORIENTED_EDGE('',*,*,#327,.T.);
#100=ORIENTED_EDGE('',*,*,#328,.T.);
#101=ORIENTED_EDGE('',*,*,#329,.F.);
#102=ORIENTED_EDGE('',*,*,#330,.T.);
#103=ORIENTED_EDGE('',*,*,#331,.F.);
#104=ORIENTED_EDGE('',*,*,#332,.T.);
#105=ORIENTED_EDGE('',*,*,#333,.F.);
#106=ORIENTED_EDGE('',*,*,#334,.F.);
#107=ORIENTED_EDGE('',*,*,#335,.F.);
#108=ORIENTED_EDGE('',*,*,#326,.T.);
#109=ORIENTED_EDGE('',*,*,#336,.F.);
#110=ORIENTED_EDGE('',*,*,#337,.T.);
#111=ORIENTED_EDGE('',*,*,#338,.F.);
#112=ORIENTED_EDGE('',*,*,#339,.F.);
#113=ORIENTED_EDGE('',*,*,#340,.F.);
#114=ORIENTED_EDGE('',*,*,#334,.T.);
#115=ORIENTED_EDGE('',*,*,#341,.F.);
#116=ORIENTED_EDGE('',*,*,#342,.T.);
#117=ORIENTED_EDGE('',*,*,#343,.T.);
#118=ORIENTED_EDGE('',*,*,#344,.T.);
#119=ORIENTED_EDGE('',*,*,#345,.T.);
#120=ORIENTED_EDGE('',*,*,#346,.T.);
#121=ORIENTED_EDGE('',*,*,#347,.T.);
#122=ORIENTED_EDGE('',*,*,#328,.F.);
#123=ORIENTED_EDGE('',*,*,#348,.T.);
#124=ORIENTED_EDGE('',*,*,#339,.T.);
#125=ORIENTED_EDGE('',*,*,#349,.T.);
#126=ORIENTED_EDGE('',*,*,#350,.F.);
#127=ORIENTED_EDGE('',*,*,#351,.T.);
#128=ORIENTED_EDGE('',*,*,#352,.F.);
#129=ORIENTED_EDGE('',*,*,#353,.T.);
#130=ORIENTED_EDGE('',*,*,#354,.F.);
#131=ORIENTED_EDGE('',*,*,#355,.T.);
#132=ORIENTED_EDGE('',*,*,#356,.T.);
#133=ORIENTED_EDGE('',*,*,#357,.F.);
#134=ORIENTED_EDGE('',*,*,#358,.T.);
#135=ORIENTED_EDGE('',*,*,#345,.F.);
#136=ORIENTED_EDGE('',*,*,#359,.T.);
#137=ORIENTED_EDGE('',*,*,#360,.T.);
#138=ORIENTED_EDGE('',*,*,#361,.T.);
#139=ORIENTED_EDGE('',*,*,#362,.F.);
#140=ORIENTED_EDGE('',*,*,#363,.T.);
#141=ORIENTED_EDGE('',*,*,#336,.T.);
#142=ORIENTED_EDGE('',*,*,#364,.T.);
#143=ORIENTED_EDGE('',*,*,#365,.T.);
#144=ORIENTED_EDGE('',*,*,#366,.T.);
#145=ORIENTED_EDGE('',*,*,#367,.F.);
#146=ORIENTED_EDGE('',*,*,#368,.T.);
#147=ORIENTED_EDGE('',*,*,#331,.T.);
#148=ORIENTED_EDGE('',*,*,#369,.T.);
#149=ORIENTED_EDGE('',*,*,#370,.T.);
#150=ORIENTED_EDGE('',*,*,#371,.T.);
#151=ORIENTED_EDGE('',*,*,#372,.F.);
#152=ORIENTED_EDGE('',*,*,#373,.T.);
#153=ORIENTED_EDGE('',*,*,#323,.F.);
#154=ORIENTED_EDGE('',*,*,#374,.T.);
#155=ORIENTED_EDGE('',*,*,#352,.T.);
#156=ORIENTED_EDGE('',*,*,#350,.T.);
#157=ORIENTED_EDGE('',*,*,#375,.T.);
#158=ORIENTED_EDGE('',*,*,#376,.T.);
#159=ORIENTED_EDGE('',*,*,#377,.F.);
#160=ORIENTED_EDGE('',*,*,#378,.F.);
#161=ORIENTED_EDGE('',*,*,#353,.F.);
#162=ORIENTED_EDGE('',*,*,#379,.F.);
#163=ORIENTED_EDGE('',*,*,#380,.F.);
#164=ORIENTED_EDGE('',*,*,#381,.F.);
#165=ORIENTED_EDGE('',*,*,#382,.F.);
#166=ORIENTED_EDGE('',*,*,#383,.F.);
#167=ORIENTED_EDGE('',*,*,#378,.T.);
#168=ORIENTED_EDGE('',*,*,#383,.T.);
#169=ORIENTED_EDGE('',*,*,#384,.F.);
#170=ORIENTED_EDGE('',*,*,#377,.T.);
#171=ORIENTED_EDGE('',*,*,#384,.T.);
#172=ORIENTED_EDGE('',*,*,#385,.F.);
#173=ORIENTED_EDGE('',*,*,#386,.F.);
#174=ORIENTED_EDGE('',*,*,#387,.F.);
#175=ORIENTED_EDGE('',*,*,#388,.F.);
#176=ORIENTED_EDGE('',*,*,#389,.F.);
#177=ORIENTED_EDGE('',*,*,#390,.F.);
#178=ORIENTED_EDGE('',*,*,#351,.F.);
#179=ORIENTED_EDGE('',*,*,#349,.F.);
#180=ORIENTED_EDGE('',*,*,#327,.F.);
#181=ORIENTED_EDGE('',*,*,#335,.T.);
#182=ORIENTED_EDGE('',*,*,#340,.T.);
#183=ORIENTED_EDGE('',*,*,#348,.F.);
#184=ORIENTED_EDGE('',*,*,#354,.T.);
#185=ORIENTED_EDGE('',*,*,#376,.F.);
#186=ORIENTED_EDGE('',*,*,#390,.T.);
#187=ORIENTED_EDGE('',*,*,#375,.F.);
#188=ORIENTED_EDGE('',*,*,#389,.T.);
#189=ORIENTED_EDGE('',*,*,#391,.F.);
#190=ORIENTED_EDGE('',*,*,#388,.T.);
#191=ORIENTED_EDGE('',*,*,#391,.T.);
#192=ORIENTED_EDGE('',*,*,#392,.F.);
#193=ORIENTED_EDGE('',*,*,#387,.T.);
#194=ORIENTED_EDGE('',*,*,#392,.T.);
#195=ORIENTED_EDGE('',*,*,#393,.F.);
#196=ORIENTED_EDGE('',*,*,#386,.T.);
#197=ORIENTED_EDGE('',*,*,#393,.T.);
#198=ORIENTED_EDGE('',*,*,#394,.F.);
#199=ORIENTED_EDGE('',*,*,#385,.T.);
#200=ORIENTED_EDGE('',*,*,#394,.T.);
#201=ORIENTED_EDGE('',*,*,#395,.T.);
#202=ORIENTED_EDGE('',*,*,#396,.T.);
#203=ORIENTED_EDGE('',*,*,#355,.F.);
#204=ORIENTED_EDGE('',*,*,#397,.T.);
#205=ORIENTED_EDGE('',*,*,#398,.F.);
#206=ORIENTED_EDGE('',*,*,#399,.T.);
#207=ORIENTED_EDGE('',*,*,#357,.T.);
#208=ORIENTED_EDGE('',*,*,#400,.T.);
#209=ORIENTED_EDGE('',*,*,#401,.F.);
#210=ORIENTED_EDGE('',*,*,#379,.T.);
#211=ORIENTED_EDGE('',*,*,#401,.T.);
#212=ORIENTED_EDGE('',*,*,#398,.T.);
#213=ORIENTED_EDGE('',*,*,#402,.T.);
#214=ORIENTED_EDGE('',*,*,#395,.F.);
#215=ORIENTED_EDGE('',*,*,#403,.T.);
#216=ORIENTED_EDGE('',*,*,#321,.F.);
#217=ORIENTED_EDGE('',*,*,#347,.F.);
#218=ORIENTED_EDGE('',*,*,#404,.T.);
#219=ORIENTED_EDGE('',*,*,#405,.F.);
#220=ORIENTED_EDGE('',*,*,#406,.T.);
#221=ORIENTED_EDGE('',*,*,#362,.T.);
#222=ORIENTED_EDGE('',*,*,#407,.T.);
#223=ORIENTED_EDGE('',*,*,#360,.F.);
#224=ORIENTED_EDGE('',*,*,#408,.T.);
#225=ORIENTED_EDGE('',*,*,#409,.T.);
#226=ORIENTED_EDGE('',*,*,#410,.T.);
#227=ORIENTED_EDGE('',*,*,#411,.F.);
#228=ORIENTED_EDGE('',*,*,#380,.T.);
#229=ORIENTED_EDGE('',*,*,#405,.T.);
#230=ORIENTED_EDGE('',*,*,#412,.T.);
#231=ORIENTED_EDGE('',*,*,#409,.F.);
#232=ORIENTED_EDGE('',*,*,#413,.T.);
#233=ORIENTED_EDGE('',*,*,#343,.F.);
#234=ORIENTED_EDGE('',*,*,#338,.T.);
#235=ORIENTED_EDGE('',*,*,#414,.T.);
#236=ORIENTED_EDGE('',*,*,#411,.T.);
#237=ORIENTED_EDGE('',*,*,#415,.T.);
#238=ORIENTED_EDGE('',*,*,#416,.T.);
#239=ORIENTED_EDGE('',*,*,#365,.F.);
#240=ORIENTED_EDGE('',*,*,#417,.T.);
#241=ORIENTED_EDGE('',*,*,#418,.F.);
#242=ORIENTED_EDGE('',*,*,#419,.T.);
#243=ORIENTED_EDGE('',*,*,#367,.T.);
#244=ORIENTED_EDGE('',*,*,#420,.T.);
#245=ORIENTED_EDGE('',*,*,#421,.F.);
#246=ORIENTED_EDGE('',*,*,#381,.T.);
#247=ORIENTED_EDGE('',*,*,#421,.T.);
#248=ORIENTED_EDGE('',*,*,#418,.T.);
#249=ORIENTED_EDGE('',*,*,#422,.T.);
#250=ORIENTED_EDGE('',*,*,#415,.F.);
#251=ORIENTED_EDGE('',*,*,#423,.T.);
#252=ORIENTED_EDGE('',*,*,#341,.T.);
#253=ORIENTED_EDGE('',*,*,#333,.T.);
#254=ORIENTED_EDGE('',*,*,#424,.T.);
#255=ORIENTED_EDGE('',*,*,#425,.F.);
#256=ORIENTED_EDGE('',*,*,#426,.T.);
#257=ORIENTED_EDGE('',*,*,#372,.T.);
#258=ORIENTED_EDGE('',*,*,#427,.T.);
#259=ORIENTED_EDGE('',*,*,#370,.F.);
#260=ORIENTED_EDGE('',*,*,#428,.T.);
#261=ORIENTED_EDGE('',*,*,#429,.T.);
#262=ORIENTED_EDGE('',*,*,#430,.T.);
#263=ORIENTED_EDGE('',*,*,#431,.F.);
#264=ORIENTED_EDGE('',*,*,#382,.T.);
#265=ORIENTED_EDGE('',*,*,#425,.T.);
#266=ORIENTED_EDGE('',*,*,#432,.T.);
#267=ORIENTED_EDGE('',*,*,#429,.F.);
#268=ORIENTED_EDGE('',*,*,#433,.T.);
#269=ORIENTED_EDGE('',*,*,#329,.T.);
#270=ORIENTED_EDGE('',*,*,#325,.F.);
#271=ORIENTED_EDGE('',*,*,#434,.T.);
#272=ORIENTED_EDGE('',*,*,#431,.T.);
#273=ORIENTED_EDGE('',*,*,#413,.F.);
#274=ORIENTED_EDGE('',*,*,#408,.F.);
#275=ORIENTED_EDGE('',*,*,#359,.F.);
#276=ORIENTED_EDGE('',*,*,#344,.F.);
#277=ORIENTED_EDGE('',*,*,#414,.F.);
#278=ORIENTED_EDGE('',*,*,#337,.F.);
#279=ORIENTED_EDGE('',*,*,#363,.F.);
#280=ORIENTED_EDGE('',*,*,#406,.F.);
#281=ORIENTED_EDGE('',*,*,#404,.F.);
#282=ORIENTED_EDGE('',*,*,#346,.F.);
#283=ORIENTED_EDGE('',*,*,#358,.F.);
#284=ORIENTED_EDGE('',*,*,#399,.F.);
#285=ORIENTED_EDGE('',*,*,#402,.F.);
#286=ORIENTED_EDGE('',*,*,#400,.F.);
#287=ORIENTED_EDGE('',*,*,#356,.F.);
#288=ORIENTED_EDGE('',*,*,#396,.F.);
#289=ORIENTED_EDGE('',*,*,#403,.F.);
#290=ORIENTED_EDGE('',*,*,#397,.F.);
#291=ORIENTED_EDGE('',*,*,#374,.F.);
#292=ORIENTED_EDGE('',*,*,#322,.F.);
#293=ORIENTED_EDGE('',*,*,#434,.F.);
#294=ORIENTED_EDGE('',*,*,#324,.F.);
#295=ORIENTED_EDGE('',*,*,#373,.F.);
#296=ORIENTED_EDGE('',*,*,#426,.F.);
#297=ORIENTED_EDGE('',*,*,#433,.F.);
#298=ORIENTED_EDGE('',*,*,#428,.F.);
#299=ORIENTED_EDGE('',*,*,#369,.F.);
#300=ORIENTED_EDGE('',*,*,#330,.F.);
#301=ORIENTED_EDGE('',*,*,#432,.F.);
#302=ORIENTED_EDGE('',*,*,#427,.F.);
#303=ORIENTED_EDGE('',*,*,#371,.F.);
#304=ORIENTED_EDGE('',*,*,#430,.F.);
#305=ORIENTED_EDGE('',*,*,#412,.F.);
#306=ORIENTED_EDGE('',*,*,#407,.F.);
#307=ORIENTED_EDGE('',*,*,#361,.F.);
#308=ORIENTED_EDGE('',*,*,#410,.F.);
#309=ORIENTED_EDGE('',*,*,#424,.F.);
#310=ORIENTED_EDGE('',*,*,#332,.F.);
#311=ORIENTED_EDGE('',*,*,#368,.F.);
#312=ORIENTED_EDGE('',*,*,#419,.F.);
#313=ORIENTED_EDGE('',*,*,#422,.F.);
#314=ORIENTED_EDGE('',*,*,#420,.F.);
#315=ORIENTED_EDGE('',*,*,#366,.F.);
#316=ORIENTED_EDGE('',*,*,#416,.F.);
#317=ORIENTED_EDGE('',*,*,#423,.F.);
#318=ORIENTED_EDGE('',*,*,#417,.F.);
#319=ORIENTED_EDGE('',*,*,#364,.F.);
#320=ORIENTED_EDGE('',*,*,#342,.F.);
#321=EDGE_CURVE('',#435,#436,#521,.T.);
#322=EDGE_CURVE('',#436,#437,#522,.T.);
#323=EDGE_CURVE('',#437,#438,#523,.T.);
#324=EDGE_CURVE('',#438,#439,#524,.F.);
#325=EDGE_CURVE('',#439,#440,#525,.T.);
#326=EDGE_CURVE('',#441,#440,#526,.T.);
#327=EDGE_CURVE('',#441,#442,#527,.T.);
#328=EDGE_CURVE('',#442,#435,#528,.T.);
#329=EDGE_CURVE('',#443,#440,#529,.T.);
#330=EDGE_CURVE('',#443,#444,#530,.T.);
#331=EDGE_CURVE('',#445,#444,#531,.T.);
#332=EDGE_CURVE('',#445,#446,#532,.F.);
#333=EDGE_CURVE('',#447,#446,#533,.T.);
#334=EDGE_CURVE('',#448,#447,#534,.T.);
#335=EDGE_CURVE('',#441,#448,#535,.T.);
#336=EDGE_CURVE('',#449,#450,#536,.T.);
#337=EDGE_CURVE('',#449,#451,#537,.F.);
#338=EDGE_CURVE('',#452,#451,#538,.T.);
#339=EDGE_CURVE('',#453,#452,#539,.T.);
#340=EDGE_CURVE('',#448,#453,#540,.T.);
#341=EDGE_CURVE('',#454,#447,#541,.T.);
#342=EDGE_CURVE('',#454,#450,#542,.T.);
#343=EDGE_CURVE('',#452,#455,#543,.T.);
#344=EDGE_CURVE('',#455,#456,#544,.T.);
#345=EDGE_CURVE('',#456,#457,#545,.T.);
#346=EDGE_CURVE('',#457,#458,#546,.F.);
#347=EDGE_CURVE('',#458,#435,#547,.T.);
#348=EDGE_CURVE('',#442,#453,#548,.T.);
#349=EDGE_CURVE('',#459,#459,#14,.T.);
#350=EDGE_CURVE('',#460,#460,#15,.T.);
#351=EDGE_CURVE('',#461,#461,#16,.T.);
#352=EDGE_CURVE('',#462,#462,#17,.T.);
#353=EDGE_CURVE('',#463,#463,#18,.T.);
#354=EDGE_CURVE('',#464,#464,#19,.T.);
#355=EDGE_CURVE('',#465,#466,#549,.T.);
#356=EDGE_CURVE('',#466,#467,#20,.T.);
#357=EDGE_CURVE('',#468,#467,#550,.T.);
#358=EDGE_CURVE('',#468,#457,#21,.F.);
#359=EDGE_CURVE('',#456,#469,#22,.F.);
#360=EDGE_CURVE('',#469,#470,#551,.T.);
#361=EDGE_CURVE('',#470,#471,#23,.T.);
#362=EDGE_CURVE('',#472,#471,#552,.T.);
#363=EDGE_CURVE('',#472,#449,#24,.F.);
#364=EDGE_CURVE('',#450,#473,#25,.F.);
#365=EDGE_CURVE('',#473,#474,#553,.T.);
#366=EDGE_CURVE('',#474,#475,#26,.T.);
#367=EDGE_CURVE('',#476,#475,#554,.T.);
#368=EDGE_CURVE('',#476,#445,#27,.F.);
#369=EDGE_CURVE('',#444,#477,#28,.F.);
#370=EDGE_CURVE('',#477,#478,#555,.T.);
#371=EDGE_CURVE('',#478,#479,#29,.T.);
#372=EDGE_CURVE('',#480,#479,#556,.T.);
#373=EDGE_CURVE('',#480,#438,#30,.F.);
#374=EDGE_CURVE('',#437,#465,#31,.F.);
#375=EDGE_CURVE('',#481,#481,#32,.T.);
#376=EDGE_CURVE('',#482,#482,#33,.T.);
#377=EDGE_CURVE('',#483,#483,#34,.T.);
#378=EDGE_CURVE('',#484,#484,#35,.T.);
#379=EDGE_CURVE('',#485,#485,#36,.T.);
#380=EDGE_CURVE('',#486,#486,#37,.T.);
#381=EDGE_CURVE('',#487,#487,#38,.T.);
#382=EDGE_CURVE('',#488,#488,#39,.T.);
#383=EDGE_CURVE('',#489,#489,#40,.T.);
#384=EDGE_CURVE('',#490,#490,#41,.T.);
#385=EDGE_CURVE('',#491,#491,#42,.T.);
#386=EDGE_CURVE('',#492,#492,#43,.T.);
#387=EDGE_CURVE('',#493,#493,#44,.T.);
#388=EDGE_CURVE('',#494,#494,#45,.T.);
#389=EDGE_CURVE('',#495,#495,#46,.T.);
#390=EDGE_CURVE('',#496,#496,#47,.T.);
#391=EDGE_CURVE('',#497,#497,#48,.T.);
#392=EDGE_CURVE('',#498,#498,#49,.T.);
#393=EDGE_CURVE('',#499,#499,#50,.T.);
#394=EDGE_CURVE('',#500,#500,#51,.T.);
#395=EDGE_CURVE('',#501,#502,#557,.T.);
#396=EDGE_CURVE('',#502,#466,#558,.T.);
#397=EDGE_CURVE('',#465,#501,#559,.F.);
#398=EDGE_CURVE('',#503,#504,#560,.T.);
#399=EDGE_CURVE('',#503,#468,#561,.T.);
#400=EDGE_CURVE('',#467,#504,#562,.F.);
#401=EDGE_CURVE('',#505,#505,#52,.T.);
#402=EDGE_CURVE('',#504,#502,#53,.F.);
#403=EDGE_CURVE('',#501,#436,#54,.T.);
#404=EDGE_CURVE('',#458,#503,#55,.T.);
#405=EDGE_CURVE('',#506,#507,#563,.T.);
#406=EDGE_CURVE('',#506,#472,#564,.T.);
#407=EDGE_CURVE('',#471,#507,#565,.F.);
#408=EDGE_CURVE('',#469,#508,#566,.F.);
#409=EDGE_CURVE('',#508,#509,#567,.T.);
#410=EDGE_CURVE('',#509,#470,#568,.T.);
#411=EDGE_CURVE('',#510,#510,#56,.T.);
#412=EDGE_CURVE('',#507,#509,#57,.F.);
#413=EDGE_CURVE('',#508,#455,#58,.T.);
#414=EDGE_CURVE('',#451,#506,#59,.T.);
#415=EDGE_CURVE('',#511,#512,#569,.T.);
#416=EDGE_CURVE('',#512,#474,#570,.T.);
#417=EDGE_CURVE('',#473,#511,#571,.F.);
#418=EDGE_CURVE('',#513,#514,#572,.T.);
#419=EDGE_CURVE('',#513,#476,#573,.T.);
#420=EDGE_CURVE('',#475,#514,#574,.F.);
#421=EDGE_CURVE('',#515,#515,#60,.T.);
#422=EDGE_CURVE('',#514,#512,#61,.F.);
#423=EDGE_CURVE('',#511,#454,#62,.T.);
#424=EDGE_CURVE('',#446,#513,#63,.T.);
#425=EDGE_CURVE('',#516,#517,#575,.T.);
#426=EDGE_CURVE('',#516,#480,#576,.T.);
#427=EDGE_CURVE('',#479,#517,#577,.F.);
#428=EDGE_CURVE('',#477,#518,#578,.F.);
#429=EDGE_CURVE('',#518,#519,#579,.T.);
#430=EDGE_CURVE('',#519,#478,#580,.T.);
#431=EDGE_CURVE('',#520,#520,#64,.T.);
#432=EDGE_CURVE('',#517,#519,#65,.F.);
#433=EDGE_CURVE('',#518,#443,#66,.T.);
#434=EDGE_CURVE('',#439,#516,#67,.T.);
#435=VERTEX_POINT('',#1289);
#436=VERTEX_POINT('',#1290);
#437=VERTEX_POINT('',#1292);
#438=VERTEX_POINT('',#1294);
#439=VERTEX_POINT('',#1296);
#440=VERTEX_POINT('',#1298);
#441=VERTEX_POINT('',#1300);
#442=VERTEX_POINT('',#1302);
#443=VERTEX_POINT('',#1306);
#444=VERTEX_POINT('',#1308);
#445=VERTEX_POINT('',#1310);
#446=VERTEX_POINT('',#1312);
#447=VERTEX_POINT('',#1314);
#448=VERTEX_POINT('',#1316);
#449=VERTEX_POINT('',#1320);
#450=VERTEX_POINT('',#1321);
#451=VERTEX_POINT('',#1323);
#452=VERTEX_POINT('',#1325);
#453=VERTEX_POINT('',#1327);
#454=VERTEX_POINT('',#1330);
#455=VERTEX_POINT('',#1334);
#456=VERTEX_POINT('',#1336);
#457=VERTEX_POINT('',#1338);
#458=VERTEX_POINT('',#1340);
#459=VERTEX_POINT('',#1345);
#460=VERTEX_POINT('',#1347);
#461=VERTEX_POINT('',#1350);
#462=VERTEX_POINT('',#1352);
#463=VERTEX_POINT('',#1355);
#464=VERTEX_POINT('',#1357);
#465=VERTEX_POINT('',#1360);
#466=VERTEX_POINT('',#1361);
#467=VERTEX_POINT('',#1363);
#468=VERTEX_POINT('',#1365);
#469=VERTEX_POINT('',#1368);
#470=VERTEX_POINT('',#1370);
#471=VERTEX_POINT('',#1372);
#472=VERTEX_POINT('',#1374);
#473=VERTEX_POINT('',#1377);
#474=VERTEX_POINT('',#1379);
#475=VERTEX_POINT('',#1381);
#476=VERTEX_POINT('',#1383);
#477=VERTEX_POINT('',#1386);
#478=VERTEX_POINT('',#1388);
#479=VERTEX_POINT('',#1390);
#480=VERTEX_POINT('',#1392);
#481=VERTEX_POINT('',#1396);
#482=VERTEX_POINT('',#1398);
#483=VERTEX_POINT('',#1400);
#484=VERTEX_POINT('',#1402);
#485=VERTEX_POINT('',#1404);
#486=VERTEX_POINT('',#1406);
#487=VERTEX_POINT('',#1408);
#488=VERTEX_POINT('',#1410);
#489=VERTEX_POINT('',#1413);
#490=VERTEX_POINT('',#1417);
#491=VERTEX_POINT('',#1421);
#492=VERTEX_POINT('',#1423);
#493=VERTEX_POINT('',#1425);
#494=VERTEX_POINT('',#1427);
#495=VERTEX_POINT('',#1429);
#496=VERTEX_POINT('',#1431);
#497=VERTEX_POINT('',#1436);
#498=VERTEX_POINT('',#1440);
#499=VERTEX_POINT('',#1444);
#500=VERTEX_POINT('',#1448);
#501=VERTEX_POINT('',#1452);
#502=VERTEX_POINT('',#1453);
#503=VERTEX_POINT('',#1458);
#504=VERTEX_POINT('',#1459);
#505=VERTEX_POINT('',#1464);
#506=VERTEX_POINT('',#1471);
#507=VERTEX_POINT('',#1472);
#508=VERTEX_POINT('',#1477);
#509=VERTEX_POINT('',#1479);
#510=VERTEX_POINT('',#1483);
#511=VERTEX_POINT('',#1490);
#512=VERTEX_POINT('',#1491);
#513=VERTEX_POINT('',#1496);
#514=VERTEX_POINT('',#1497);
#515=VERTEX_POINT('',#1502);
#516=VERTEX_POINT('',#1509);
#517=VERTEX_POINT('',#1510);
#518=VERTEX_POINT('',#1515);
#519=VERTEX_POINT('',#1517);
#520=VERTEX_POINT('',#1521);
#521=LINE('',#1288,#581);
#522=LINE('',#1291,#582);
#523=LINE('',#1293,#583);
#524=LINE('',#1295,#584);
#525=LINE('',#1297,#585);
#526=LINE('',#1299,#586);
#527=LINE('',#1301,#587);
#528=LINE('',#1303,#588);
#529=LINE('',#1305,#589);
#530=LINE('',#1307,#590);
#531=LINE('',#1309,#591);
#532=LINE('',#1311,#592);
#533=LINE('',#1313,#593);
#534=LINE('',#1315,#594);
#535=LINE('',#1317,#595);
#536=LINE('',#1319,#596);
#537=LINE('',#1322,#597);
#538=LINE('',#1324,#598);
#539=LINE('',#1326,#599);
#540=LINE('',#1328,#600);
#541=LINE('',#1329,#601);
#542=LINE('',#1331,#602);
#543=LINE('',#1333,#603);
#544=LINE('',#1335,#604);
#545=LINE('',#1337,#605);
#546=LINE('',#1339,#606);
#547=LINE('',#1341,#607);
#548=LINE('',#1342,#608);
#549=LINE('',#1359,#609);
#550=LINE('',#1364,#610);
#551=LINE('',#1369,#611);
#552=LINE('',#1373,#612);
#553=LINE('',#1378,#613);
#554=LINE('',#1382,#614);
#555=LINE('',#1387,#615);
#556=LINE('',#1391,#616);
#557=LINE('',#1451,#617);
#558=LINE('',#1454,#618);
#559=LINE('',#1455,#619);
#560=LINE('',#1457,#620);
#561=LINE('',#1460,#621);
#562=LINE('',#1461,#622);
#563=LINE('',#1470,#623);
#564=LINE('',#1473,#624);
#565=LINE('',#1474,#625);
#566=LINE('',#1476,#626);
#567=LINE('',#1478,#627);
#568=LINE('',#1480,#628);
#569=LINE('',#1489,#629);
#570=LINE('',#1492,#630);
#571=LINE('',#1493,#631);
#572=LINE('',#1495,#632);
#573=LINE('',#1498,#633);
#574=LINE('',#1499,#634);
#575=LINE('',#1508,#635);
#576=LINE('',#1511,#636);
#577=LINE('',#1512,#637);
#578=LINE('',#1514,#638);
#579=LINE('',#1516,#639);
#580=LINE('',#1518,#640);
#581=VECTOR('',#1018,1.);
#582=VECTOR('',#1019,1.);
#583=VECTOR('',#1020,1.);
#584=VECTOR('',#1021,1.);
#585=VECTOR('',#1022,1.);
#586=VECTOR('',#1023,1.);
#587=VECTOR('',#1024,1.);
#588=VECTOR('',#1025,1.);
#589=VECTOR('',#1028,1.);
#590=VECTOR('',#1029,1.);
#591=VECTOR('',#1030,1.);
#592=VECTOR('',#1031,1.);
#593=VECTOR('',#1032,1.);
#594=VECTOR('',#1033,1.);
#595=VECTOR('',#1034,1.);
#596=VECTOR('',#1037,1.);
#597=VECTOR('',#1038,1.);
#598=VECTOR('',#1039,1.);
#599=VECTOR('',#1040,1.);
#600=VECTOR('',#1041,1.);
#601=VECTOR('',#1042,1.);
#602=VECTOR('',#1043,1.);
#603=VECTOR('',#1046,1.);
#604=VECTOR('',#1047,1.);
#605=VECTOR('',#1048,1.);
#606=VECTOR('',#1049,1.);
#607=VECTOR('',#1050,1.);
#608=VECTOR('',#1051,1.);
#609=VECTOR('',#1072,1.);
#610=VECTOR('',#1075,1.);
#611=VECTOR('',#1080,1.);
#612=VECTOR('',#1083,1.);
#613=VECTOR('',#1088,1.);
#614=VECTOR('',#1091,1.);
#615=VECTOR('',#1096,1.);
#616=VECTOR('',#1099,1.);
#617=VECTOR('',#1176,1.);
#618=VECTOR('',#1177,1.);
#619=VECTOR('',#1178,1.);
#620=VECTOR('',#1181,1.);
#621=VECTOR('',#1182,1.);
#622=VECTOR('',#1183,1.);
#623=VECTOR('',#1198,1.);
#624=VECTOR('',#1199,1.);
#625=VECTOR('',#1200,1.);
#626=VECTOR('',#1203,1.);
#627=VECTOR('',#1204,1.);
#628=VECTOR('',#1205,1.);
#629=VECTOR('',#1220,1.);
#630=VECTOR('',#1221,1.);
#631=VECTOR('',#1222,1.);
#632=VECTOR('',#1225,1.);
#633=VECTOR('',#1226,1.);
#634=VECTOR('',#1227,1.);
#635=VECTOR('',#1242,1.);
#636=VECTOR('',#1243,1.);
#637=VECTOR('',#1244,1.);
#638=VECTOR('',#1247,1.);
#639=VECTOR('',#1248,1.);
#640=VECTOR('',#1249,1.);
#641=EDGE_LOOP('',(#93,#94,#95,#96,#97,#98,#99,#100));
#642=EDGE_LOOP('',(#101,#102,#103,#104,#105,#106,#107,#108));
#643=EDGE_LOOP('',(#109,#110,#111,#112,#113,#114,#115,#116));
#644=EDGE_LOOP('',(#117,#118,#119,#120,#121,#122,#123,#124));
#645=EDGE_LOOP('',(#125));
#646=EDGE_LOOP('',(#126));
#647=EDGE_LOOP('',(#127));
#648=EDGE_LOOP('',(#128));
#649=EDGE_LOOP('',(#129));
#650=EDGE_LOOP('',(#130));
#651=EDGE_LOOP('',(#131,#132,#133,#134,#135,#136,#137,#138,#139,#140,#141,
#142,#143,#144,#145,#146,#147,#148,#149,#150,#151,#152,#153,#154));
#652=EDGE_LOOP('',(#155));
#653=EDGE_LOOP('',(#156));
#654=EDGE_LOOP('',(#157));
#655=EDGE_LOOP('',(#158));
#656=EDGE_LOOP('',(#159));
#657=EDGE_LOOP('',(#160));
#658=EDGE_LOOP('',(#161));
#659=EDGE_LOOP('',(#162));
#660=EDGE_LOOP('',(#163));
#661=EDGE_LOOP('',(#164));
#662=EDGE_LOOP('',(#165));
#663=EDGE_LOOP('',(#166));
#664=EDGE_LOOP('',(#167));
#665=EDGE_LOOP('',(#168));
#666=EDGE_LOOP('',(#169));
#667=EDGE_LOOP('',(#170));
#668=EDGE_LOOP('',(#171));
#669=EDGE_LOOP('',(#172));
#670=EDGE_LOOP('',(#173));
#671=EDGE_LOOP('',(#174));
#672=EDGE_LOOP('',(#175));
#673=EDGE_LOOP('',(#176));
#674=EDGE_LOOP('',(#177));
#675=EDGE_LOOP('',(#178));
#676=EDGE_LOOP('',(#179));
#677=EDGE_LOOP('',(#180,#181,#182,#183));
#678=EDGE_LOOP('',(#184));
#679=EDGE_LOOP('',(#185));
#680=EDGE_LOOP('',(#186));
#681=EDGE_LOOP('',(#187));
#682=EDGE_LOOP('',(#188));
#683=EDGE_LOOP('',(#189));
#684=EDGE_LOOP('',(#190));
#685=EDGE_LOOP('',(#191));
#686=EDGE_LOOP('',(#192));
#687=EDGE_LOOP('',(#193));
#688=EDGE_LOOP('',(#194));
#689=EDGE_LOOP('',(#195));
#690=EDGE_LOOP('',(#196));
#691=EDGE_LOOP('',(#197));
#692=EDGE_LOOP('',(#198));
#693=EDGE_LOOP('',(#199));
#694=EDGE_LOOP('',(#200));
#695=EDGE_LOOP('',(#201,#202,#203,#204));
#696=EDGE_LOOP('',(#205,#206,#207,#208));
#697=EDGE_LOOP('',(#209));
#698=EDGE_LOOP('',(#210));
#699=EDGE_LOOP('',(#211));
#700=EDGE_LOOP('',(#212,#213,#214,#215,#216,#217,#218));
#701=EDGE_LOOP('',(#219,#220,#221,#222));
#702=EDGE_LOOP('',(#223,#224,#225,#226));
#703=EDGE_LOOP('',(#227));
#704=EDGE_LOOP('',(#228));
#705=EDGE_LOOP('',(#229,#230,#231,#232,#233,#234,#235));
#706=EDGE_LOOP('',(#236));
#707=EDGE_LOOP('',(#237,#238,#239,#240));
#708=EDGE_LOOP('',(#241,#242,#243,#244));
#709=EDGE_LOOP('',(#245));
#710=EDGE_LOOP('',(#246));
#711=EDGE_LOOP('',(#247));
#712=EDGE_LOOP('',(#248,#249,#250,#251,#252,#253,#254));
#713=EDGE_LOOP('',(#255,#256,#257,#258));
#714=EDGE_LOOP('',(#259,#260,#261,#262));
#715=EDGE_LOOP('',(#263));
#716=EDGE_LOOP('',(#264));
#717=EDGE_LOOP('',(#265,#266,#267,#268,#269,#270,#271));
#718=EDGE_LOOP('',(#272));
#719=EDGE_LOOP('',(#273,#274,#275,#276));
#720=EDGE_LOOP('',(#277,#278,#279,#280));
#721=EDGE_LOOP('',(#281,#282,#283,#284));
#722=EDGE_LOOP('',(#285,#286,#287,#288));
#723=EDGE_LOOP('',(#289,#290,#291,#292));
#724=EDGE_LOOP('',(#293,#294,#295,#296));
#725=EDGE_LOOP('',(#297,#298,#299,#300));
#726=EDGE_LOOP('',(#301,#302,#303,#304));
#727=EDGE_LOOP('',(#305,#306,#307,#308));
#728=EDGE_LOOP('',(#309,#310,#311,#312));
#729=EDGE_LOOP('',(#313,#314,#315,#316));
#730=EDGE_LOOP('',(#317,#318,#319,#320));
#731=FACE_BOUND('',#641,.T.);
#732=FACE_BOUND('',#642,.T.);
#733=FACE_BOUND('',#643,.T.);
#734=FACE_BOUND('',#644,.T.);
#735=FACE_BOUND('',#645,.T.);
#736=FACE_BOUND('',#646,.T.);
#737=FACE_BOUND('',#647,.T.);
#738=FACE_BOUND('',#648,.T.);
#739=FACE_BOUND('',#649,.T.);
#740=FACE_BOUND('',#650,.T.);
#741=FACE_BOUND('',#651,.T.);
#742=FACE_BOUND('',#652,.T.);
#743=FACE_BOUND('',#653,.T.);
#744=FACE_BOUND('',#654,.T.);
#745=FACE_BOUND('',#655,.T.);
#746=FACE_BOUND('',#656,.T.);
#747=FACE_BOUND('',#657,.T.);
#748=FACE_BOUND('',#658,.T.);
#749=FACE_BOUND('',#659,.T.);
#750=FACE_BOUND('',#660,.T.);
#751=FACE_BOUND('',#661,.T.);
#752=FACE_BOUND('',#662,.T.);
#753=FACE_BOUND('',#663,.T.);
#754=FACE_BOUND('',#664,.T.);
#755=FACE_BOUND('',#665,.T.);
#756=FACE_BOUND('',#666,.T.);
#757=FACE_BOUND('',#667,.T.);
#758=FACE_BOUND('',#668,.T.);
#759=FACE_BOUND('',#669,.T.);
#760=FACE_BOUND('',#670,.T.);
#761=FACE_BOUND('',#671,.T.);
#762=FACE_BOUND('',#672,.T.);
#763=FACE_BOUND('',#673,.T.);
#764=FACE_BOUND('',#674,.T.);
#765=FACE_BOUND('',#675,.T.);
#766=FACE_BOUND('',#676,.T.);
#767=FACE_BOUND('',#677,.T.);
#768=FACE_BOUND('',#678,.T.);
#769=FACE_BOUND('',#679,.T.);
#770=FACE_BOUND('',#680,.T.);
#771=FACE_BOUND('',#681,.T.);
#772=FACE_BOUND('',#682,.T.);
#773=FACE_BOUND('',#683,.T.);
#774=FACE_BOUND('',#684,.T.);
#775=FACE_BOUND('',#685,.T.);
#776=FACE_BOUND('',#686,.T.);
#777=FACE_BOUND('',#687,.T.);
#778=FACE_BOUND('',#688,.T.);
#779=FACE_BOUND('',#689,.T.);
#780=FACE_BOUND('',#690,.T.);
#781=FACE_BOUND('',#691,.T.);
#782=FACE_BOUND('',#692,.T.);
#783=FACE_BOUND('',#693,.T.);
#784=FACE_BOUND('',#694,.T.);
#785=FACE_BOUND('',#695,.T.);
#786=FACE_BOUND('',#696,.T.);
#787=FACE_BOUND('',#697,.T.);
#788=FACE_BOUND('',#698,.T.);
#789=FACE_BOUND('',#699,.T.);
#790=FACE_BOUND('',#700,.T.);
#791=FACE_BOUND('',#701,.T.);
#792=FACE_BOUND('',#702,.T.);
#793=FACE_BOUND('',#703,.T.);
#794=FACE_BOUND('',#704,.T.);
#795=FACE_BOUND('',#705,.T.);
#796=FACE_BOUND('',#706,.T.);
#797=FACE_BOUND('',#707,.T.);
#798=FACE_BOUND('',#708,.T.);
#799=FACE_BOUND('',#709,.T.);
#800=FACE_BOUND('',#710,.T.);
#801=FACE_BOUND('',#711,.T.);
#802=FACE_BOUND('',#712,.T.);
#803=FACE_BOUND('',#713,.T.);
#804=FACE_BOUND('',#714,.T.);
#805=FACE_BOUND('',#715,.T.);
#806=FACE_BOUND('',#716,.T.);
#807=FACE_BOUND('',#717,.T.);
#808=FACE_BOUND('',#718,.T.);
#809=FACE_BOUND('',#719,.T.);
#810=FACE_BOUND('',#720,.T.);
#811=FACE_BOUND('',#721,.T.);
#812=FACE_BOUND('',#722,.T.);
#813=FACE_BOUND('',#723,.T.);
#814=FACE_BOUND('',#724,.T.);
#815=FACE_BOUND('',#725,.T.);
#816=FACE_BOUND('',#726,.T.);
#817=FACE_BOUND('',#727,.T.);
#818=FACE_BOUND('',#728,.T.);
#819=FACE_BOUND('',#729,.T.);
#820=FACE_BOUND('',#730,.T.);
#821=PLANE('',#909);
#822=PLANE('',#910);
#823=PLANE('',#911);
#824=PLANE('',#912);
#825=PLANE('',#922);
#826=PLANE('',#945);
#827=PLANE('',#948);
#828=PLANE('',#949);
#829=PLANE('',#960);
#830=PLANE('',#963);
#831=PLANE('',#966);
#832=PLANE('',#969);
#833=PLANE('',#970);
#834=PLANE('',#971);
#835=PLANE('',#974);
#836=PLANE('',#978);
#837=PLANE('',#979);
#838=PLANE('',#982);
#839=PLANE('',#986);
#840=PLANE('',#987);
#841=PLANE('',#990);
#842=PLANE('',#994);
#843=PLANE('',#995);
#844=PLANE('',#998);
#845=ADVANCED_FACE('',(#731),#821,.T.);
#846=ADVANCED_FACE('',(#732),#822,.F.);
#847=ADVANCED_FACE('',(#733),#823,.F.);
#848=ADVANCED_FACE('',(#734),#824,.T.);
#849=ADVANCED_FACE('',(#735,#736),#68,.F.);
#850=ADVANCED_FACE('',(#737,#738),#69,.F.);
#851=ADVANCED_FACE('',(#739,#740),#70,.T.);
#852=ADVANCED_FACE('',(#741,#742,#743,#744,#745,#746,#747,#748,#749,#750,
#751,#752),#825,.T.);
#853=ADVANCED_FACE('',(#753,#754),#12,.F.);
#854=ADVANCED_FACE('',(#755),#826,.T.);
#855=ADVANCED_FACE('',(#756,#757),#13,.F.);
#856=ADVANCED_FACE('',(#758),#827,.T.);
#857=ADVANCED_FACE('',(#759,#760,#761,#762,#763,#764,#765,#766,#767,#768),
#828,.T.);
#858=ADVANCED_FACE('',(#769,#770),#71,.F.);
#859=ADVANCED_FACE('',(#771,#772),#72,.F.);
#860=ADVANCED_FACE('',(#773,#774),#73,.F.);
#861=ADVANCED_FACE('',(#775),#829,.T.);
#862=ADVANCED_FACE('',(#776,#777),#74,.F.);
#863=ADVANCED_FACE('',(#778),#830,.T.);
#864=ADVANCED_FACE('',(#779,#780),#75,.F.);
#865=ADVANCED_FACE('',(#781),#831,.T.);
#866=ADVANCED_FACE('',(#782,#783),#76,.F.);
#867=ADVANCED_FACE('',(#784),#832,.T.);
#868=ADVANCED_FACE('',(#785),#833,.T.);
#869=ADVANCED_FACE('',(#786),#834,.F.);
#870=ADVANCED_FACE('',(#787,#788),#77,.F.);
#871=ADVANCED_FACE('',(#789,#790),#835,.F.);
#872=ADVANCED_FACE('',(#791),#836,.F.);
#873=ADVANCED_FACE('',(#792),#837,.T.);
#874=ADVANCED_FACE('',(#793,#794),#78,.F.);
#875=ADVANCED_FACE('',(#795,#796),#838,.F.);
#876=ADVANCED_FACE('',(#797),#839,.T.);
#877=ADVANCED_FACE('',(#798),#840,.F.);
#878=ADVANCED_FACE('',(#799,#800),#79,.F.);
#879=ADVANCED_FACE('',(#801,#802),#841,.F.);
#880=ADVANCED_FACE('',(#803),#842,.F.);
#881=ADVANCED_FACE('',(#804),#843,.T.);
#882=ADVANCED_FACE('',(#805,#806),#80,.F.);
#883=ADVANCED_FACE('',(#807,#808),#844,.F.);
#884=ADVANCED_FACE('',(#809),#81,.F.);
#885=ADVANCED_FACE('',(#810),#82,.F.);
#886=ADVANCED_FACE('',(#811),#83,.F.);
#887=ADVANCED_FACE('',(#812),#84,.T.);
#888=ADVANCED_FACE('',(#813),#85,.F.);
#889=ADVANCED_FACE('',(#814),#86,.F.);
#890=ADVANCED_FACE('',(#815),#87,.F.);
#891=ADVANCED_FACE('',(#816),#88,.T.);
#892=ADVANCED_FACE('',(#817),#89,.T.);
#893=ADVANCED_FACE('',(#818),#90,.F.);
#894=ADVANCED_FACE('',(#819),#91,.T.);
#895=ADVANCED_FACE('',(#820),#92,.F.);
#896=CLOSED_SHELL('',(#845,#846,#847,#848,#849,#850,#851,#852,#853,#854,
#855,#856,#857,#858,#859,#860,#861,#862,#863,#864,#865,#866,#867,#868,#869,
#870,#871,#872,#873,#874,#875,#876,#877,#878,#879,#880,#881,#882,#883,#884,
#885,#886,#887,#888,#889,#890,#891,#892,#893,#894,#895));
#897=STYLED_ITEM('',(#898),#905);
#898=PRESENTATION_STYLE_ASSIGNMENT((#899));
#899=SURFACE_STYLE_USAGE(.BOTH.,#900);
#900=SURFACE_SIDE_STYLE('',(#901));
#901=SURFACE_STYLE_FILL_AREA(#902);
#902=FILL_AREA_STYLE('',(#903));
#903=FILL_AREA_STYLE_COLOUR('',#904);
#904=COLOUR_RGB('',0.231372549019608,0.380392156862745,0.705882352941177);
#905=MANIFOLD_SOLID_BREP('encoder_housing',#896);
#906=SHAPE_DEFINITION_REPRESENTATION(#1544,#907);
#907=SHAPE_REPRESENTATION('encoder_housing',(#908),#1539);
#908=AXIS2_PLACEMENT_3D('',#1286,#1014,#1015);
#909=AXIS2_PLACEMENT_3D('',#1287,#1016,#1017);
#910=AXIS2_PLACEMENT_3D('',#1304,#1026,#1027);
#911=AXIS2_PLACEMENT_3D('',#1318,#1035,#1036);
#912=AXIS2_PLACEMENT_3D('',#1332,#1044,#1045);
#913=AXIS2_PLACEMENT_3D('',#1343,#1052,#1053);
#914=AXIS2_PLACEMENT_3D('',#1344,#1054,#1055);
#915=AXIS2_PLACEMENT_3D('',#1346,#1056,#1057);
#916=AXIS2_PLACEMENT_3D('',#1348,#1058,#1059);
#917=AXIS2_PLACEMENT_3D('',#1349,#1060,#1061);
#918=AXIS2_PLACEMENT_3D('',#1351,#1062,#1063);
#919=AXIS2_PLACEMENT_3D('',#1353,#1064,#1065);
#920=AXIS2_PLACEMENT_3D('',#1354,#1066,#1067);
#921=AXIS2_PLACEMENT_3D('',#1356,#1068,#1069);
#922=AXIS2_PLACEMENT_3D('',#1358,#1070,#1071);
#923=AXIS2_PLACEMENT_3D('',#1362,#1073,#1074);
#924=AXIS2_PLACEMENT_3D('',#1366,#1076,#1077);
#925=AXIS2_PLACEMENT_3D('',#1367,#1078,#1079);
#926=AXIS2_PLACEMENT_3D('',#1371,#1081,#1082);
#927=AXIS2_PLACEMENT_3D('',#1375,#1084,#1085);
#928=AXIS2_PLACEMENT_3D('',#1376,#1086,#1087);
#929=AXIS2_PLACEMENT_3D('',#1380,#1089,#1090);
#930=AXIS2_PLACEMENT_3D('',#1384,#1092,#1093);
#931=AXIS2_PLACEMENT_3D('',#1385,#1094,#1095);
#932=AXIS2_PLACEMENT_3D('',#1389,#1097,#1098);
#933=AXIS2_PLACEMENT_3D('',#1393,#1100,#1101);
#934=AXIS2_PLACEMENT_3D('',#1394,#1102,#1103);
#935=AXIS2_PLACEMENT_3D('',#1395,#1104,#1105);
#936=AXIS2_PLACEMENT_3D('',#1397,#1106,#1107);
#937=AXIS2_PLACEMENT_3D('',#1399,#1108,#1109);
#938=AXIS2_PLACEMENT_3D('',#1401,#1110,#1111);
#939=AXIS2_PLACEMENT_3D('',#1403,#1112,#1113);
#940=AXIS2_PLACEMENT_3D('',#1405,#1114,#1115);
#941=AXIS2_PLACEMENT_3D('',#1407,#1116,#1117);
#942=AXIS2_PLACEMENT_3D('',#1409,#1118,#1119);
#943=AXIS2_PLACEMENT_3D('',#1411,#1120,#1121);
#944=AXIS2_PLACEMENT_3D('',#1412,#1122,#1123);
#945=AXIS2_PLACEMENT_3D('',#1414,#1124,#1125);
#946=AXIS2_PLACEMENT_3D('',#1415,#1126,#1127);
#947=AXIS2_PLACEMENT_3D('',#1416,#1128,#1129);
#948=AXIS2_PLACEMENT_3D('',#1418,#1130,#1131);
#949=AXIS2_PLACEMENT_3D('',#1419,#1132,#1133);
#950=AXIS2_PLACEMENT_3D('',#1420,#1134,#1135);
#951=AXIS2_PLACEMENT_3D('',#1422,#1136,#1137);
#952=AXIS2_PLACEMENT_3D('',#1424,#1138,#1139);
#953=AXIS2_PLACEMENT_3D('',#1426,#1140,#1141);
#954=AXIS2_PLACEMENT_3D('',#1428,#1142,#1143);
#955=AXIS2_PLACEMENT_3D('',#1430,#1144,#1145);
#956=AXIS2_PLACEMENT_3D('',#1432,#1146,#1147);
#957=AXIS2_PLACEMENT_3D('',#1433,#1148,#1149);
#958=AXIS2_PLACEMENT_3D('',#1434,#1150,#1151);
#959=AXIS2_PLACEMENT_3D('',#1435,#1152,#1153);
#960=AXIS2_PLACEMENT_3D('',#1437,#1154,#1155);
#961=AXIS2_PLACEMENT_3D('',#1438,#1156,#1157);
#962=AXIS2_PLACEMENT_3D('',#1439,#1158,#1159);
#963=AXIS2_PLACEMENT_3D('',#1441,#1160,#1161);
#964=AXIS2_PLACEMENT_3D('',#1442,#1162,#1163);
#965=AXIS2_PLACEMENT_3D('',#1443,#1164,#1165);
#966=AXIS2_PLACEMENT_3D('',#1445,#1166,#1167);
#967=AXIS2_PLACEMENT_3D('',#1446,#1168,#1169);
#968=AXIS2_PLACEMENT_3D('',#1447,#1170,#1171);
#969=AXIS2_PLACEMENT_3D('',#1449,#1172,#1173);
#970=AXIS2_PLACEMENT_3D('',#1450,#1174,#1175);
#971=AXIS2_PLACEMENT_3D('',#1456,#1179,#1180);
#972=AXIS2_PLACEMENT_3D('',#1462,#1184,#1185);
#973=AXIS2_PLACEMENT_3D('',#1463,#1186,#1187);
#974=AXIS2_PLACEMENT_3D('',#1465,#1188,#1189);
#975=AXIS2_PLACEMENT_3D('',#1466,#1190,#1191);
#976=AXIS2_PLACEMENT_3D('',#1467,#1192,#1193);
#977=AXIS2_PLACEMENT_3D('',#1468,#1194,#1195);
#978=AXIS2_PLACEMENT_3D('',#1469,#1196,#1197);
#979=AXIS2_PLACEMENT_3D('',#1475,#1201,#1202);
#980=AXIS2_PLACEMENT_3D('',#1481,#1206,#1207);
#981=AXIS2_PLACEMENT_3D('',#1482,#1208,#1209);
#982=AXIS2_PLACEMENT_3D('',#1484,#1210,#1211);
#983=AXIS2_PLACEMENT_3D('',#1485,#1212,#1213);
#984=AXIS2_PLACEMENT_3D('',#1486,#1214,#1215);
#985=AXIS2_PLACEMENT_3D('',#1487,#1216,#1217);
#986=AXIS2_PLACEMENT_3D('',#1488,#1218,#1219);
#987=AXIS2_PLACEMENT_3D('',#1494,#1223,#1224);
#988=AXIS2_PLACEMENT_3D('',#1500,#1228,#1229);
#989=AXIS2_PLACEMENT_3D('',#1501,#1230,#1231);
#990=AXIS2_PLACEMENT_3D('',#1503,#1232,#1233);
#991=AXIS2_PLACEMENT_3D('',#1504,#1234,#1235);
#992=AXIS2_PLACEMENT_3D('',#1505,#1236,#1237);
#993=AXIS2_PLACEMENT_3D('',#1506,#1238,#1239);
#994=AXIS2_PLACEMENT_3D('',#1507,#1240,#1241);
#995=AXIS2_PLACEMENT_3D('',#1513,#1245,#1246);
#996=AXIS2_PLACEMENT_3D('',#1519,#1250,#1251);
#997=AXIS2_PLACEMENT_3D('',#1520,#1252,#1253);
#998=AXIS2_PLACEMENT_3D('',#1522,#1254,#1255);
#999=AXIS2_PLACEMENT_3D('',#1523,#1256,#1257);
#1000=AXIS2_PLACEMENT_3D('',#1524,#1258,#1259);
#1001=AXIS2_PLACEMENT_3D('',#1525,#1260,#1261);
#1002=AXIS2_PLACEMENT_3D('',#1526,#1262,#1263);
#1003=AXIS2_PLACEMENT_3D('',#1527,#1264,#1265);
#1004=AXIS2_PLACEMENT_3D('',#1528,#1266,#1267);
#1005=AXIS2_PLACEMENT_3D('',#1529,#1268,#1269);
#1006=AXIS2_PLACEMENT_3D('',#1530,#1270,#1271);
#1007=AXIS2_PLACEMENT_3D('',#1531,#1272,#1273);
#1008=AXIS2_PLACEMENT_3D('',#1532,#1274,#1275);
#1009=AXIS2_PLACEMENT_3D('',#1533,#1276,#1277);
#1010=AXIS2_PLACEMENT_3D('',#1534,#1278,#1279);
#1011=AXIS2_PLACEMENT_3D('',#1535,#1280,#1281);
#1012=AXIS2_PLACEMENT_3D('',#1536,#1282,#1283);
#1013=AXIS2_PLACEMENT_3D('',#1537,#1284,#1285);
#1014=DIRECTION('',(0.,0.,1.));
#1015=DIRECTION('',(1.,0.,0.));
#1016=DIRECTION('',(-1.,0.,0.));
#1017=DIRECTION('',(0.,0.,1.));
#1018=DIRECTION('',(0.,-1.,0.));
#1019=DIRECTION('',(0.,0.,-1.));
#1020=DIRECTION('',(0.,-1.,0.));
#1021=DIRECTION('',(0.,0.,-1.));
#1022=DIRECTION('',(0.,-1.,0.));
#1023=DIRECTION('',(0.,0.,-1.));
#1024=DIRECTION('',(0.,1.,0.));
#1025=DIRECTION('',(0.,0.,-1.));
#1026=DIRECTION('',(1.4954512723938E-16,-1.,0.));
#1027=DIRECTION('',(1.,1.4954512723938E-16,0.));
#1028=DIRECTION('',(1.,1.4954512723938E-16,0.));
#1029=DIRECTION('',(0.,0.,-1.));
#1030=DIRECTION('',(1.,1.4954512723938E-16,0.));
#1031=DIRECTION('',(0.,0.,-1.));
#1032=DIRECTION('',(1.,1.4954512723938E-16,0.));
#1033=DIRECTION('',(0.,0.,-1.));
#1034=DIRECTION('',(-1.,-1.4954512723938E-16,0.));
#1035=DIRECTION('',(-1.,0.,0.));
#1036=DIRECTION('',(0.,0.,1.));
#1037=DIRECTION('',(0.,-1.,0.));
#1038=DIRECTION('',(0.,0.,-1.));
#1039=DIRECTION('',(0.,-1.,0.));
#1040=DIRECTION('',(0.,0.,-1.));
#1041=DIRECTION('',(0.,1.,0.));
#1042=DIRECTION('',(0.,-1.,0.));
#1043=DIRECTION('',(0.,0.,-1.));
#1044=DIRECTION('',(1.4954512723938E-16,-1.,0.));
#1045=DIRECTION('',(1.,1.4954512723938E-16,0.));
#1046=DIRECTION('',(1.,1.4954512723938E-16,0.));
#1047=DIRECTION('',(0.,0.,-1.));
#1048=DIRECTION('',(1.,1.4954512723938E-16,0.));
#1049=DIRECTION('',(0.,0.,-1.));
#1050=DIRECTION('',(1.,1.4954512723938E-16,0.));
#1051=DIRECTION('',(-1.,-1.4954512723938E-16,0.));
#1052=DIRECTION('',(0.,0.,1.));
#1053=DIRECTION('',(1.,0.,0.));
#1054=DIRECTION('',(0.,0.,1.));
#1055=DIRECTION('',(1.,0.,0.));
#1056=DIRECTION('',(0.,0.,1.));
#1057=DIRECTION('',(1.,0.,0.));
#1058=DIRECTION('',(0.,0.,1.));
#1059=DIRECTION('',(1.,0.,0.));
#1060=DIRECTION('',(0.,0.,1.));
#1061=DIRECTION('',(1.,0.,0.));
#1062=DIRECTION('',(0.,0.,1.));
#1063=DIRECTION('',(1.,0.,0.));
#1064=DIRECTION('',(0.,0.,-1.));
#1065=DIRECTION('',(-1.,0.,0.));
#1066=DIRECTION('',(0.,0.,1.));
#1067=DIRECTION('',(1.,0.,0.));
#1068=DIRECTION('',(0.,0.,1.));
#1069=DIRECTION('',(1.,0.,0.));
#1070=DIRECTION('',(0.,0.,-1.));
#1071=DIRECTION('',(1.,0.,0.));
#1072=DIRECTION('',(-1.,0.,0.));
#1073=DIRECTION('',(0.,0.,-1.));
#1074=DIRECTION('',(-1.,0.,0.));
#1075=DIRECTION('',(-2.62836890299516E-16,-1.,0.));
#1076=DIRECTION('',(0.,0.,-1.));
#1077=DIRECTION('',(-1.,0.,0.));
#1078=DIRECTION('',(0.,0.,-1.));
#1079=DIRECTION('',(-1.,0.,0.));
#1080=DIRECTION('',(-2.62836890299516E-16,-1.,0.));
#1081=DIRECTION('',(0.,0.,-1.));
#1082=DIRECTION('',(-1.,0.,0.));
#1083=DIRECTION('',(1.,0.,0.));
#1084=DIRECTION('',(0.,0.,-1.));
#1085=DIRECTION('',(-1.,0.,0.));
#1086=DIRECTION('',(0.,0.,-1.));
#1087=DIRECTION('',(-1.,0.,0.));
#1088=DIRECTION('',(1.,0.,0.));
#1089=DIRECTION('',(0.,0.,-1.));
#1090=DIRECTION('',(-1.,0.,0.));
#1091=DIRECTION('',(0.,1.,0.));
#1092=DIRECTION('',(0.,0.,-1.));
#1093=DIRECTION('',(-1.,0.,0.));
#1094=DIRECTION('',(0.,0.,-1.));
#1095=DIRECTION('',(-1.,0.,0.));
#1096=DIRECTION('',(2.62836890299516E-16,1.,0.));
#1097=DIRECTION('',(0.,0.,-1.));
#1098=DIRECTION('',(-1.,0.,0.));
#1099=DIRECTION('',(-1.,0.,0.));
#1100=DIRECTION('',(0.,0.,-1.));
#1101=DIRECTION('',(-1.,0.,0.));
#1102=DIRECTION('',(0.,0.,-1.));
#1103=DIRECTION('',(-1.,0.,0.));
#1104=DIRECTION('',(0.,0.,1.));
#1105=DIRECTION('',(1.,0.,0.));
#1106=DIRECTION('',(0.,0.,1.));
#1107=DIRECTION('',(1.,0.,0.));
#1108=DIRECTION('',(0.,0.,-1.));
#1109=DIRECTION('',(-1.,0.,0.));
#1110=DIRECTION('',(0.,0.,-1.));
#1111=DIRECTION('',(-1.,0.,0.));
#1112=DIRECTION('',(0.,0.,-1.));
#1113=DIRECTION('',(-1.,0.,0.));
#1114=DIRECTION('',(0.,0.,-1.));
#1115=DIRECTION('',(-1.,0.,0.));
#1116=DIRECTION('',(0.,0.,-1.));
#1117=DIRECTION('',(-1.,0.,0.));
#1118=DIRECTION('',(0.,0.,-1.));
#1119=DIRECTION('',(-1.,0.,0.));
#1120=DIRECTION('',(0.,0.,-1.));
#1121=DIRECTION('',(1.,0.,0.));
#1122=DIRECTION('',(0.,0.,-1.));
#1123=DIRECTION('',(-1.,0.,0.));
#1124=DIRECTION('',(0.,0.,-1.));
#1125=DIRECTION('',(1.,0.,0.));
#1126=DIRECTION('',(0.,0.,-1.));
#1127=DIRECTION('',(1.,0.,0.));
#1128=DIRECTION('',(0.,0.,-1.));
#1129=DIRECTION('',(-1.,0.,0.));
#1130=DIRECTION('',(0.,0.,-1.));
#1131=DIRECTION('',(1.,0.,0.));
#1132=DIRECTION('',(0.,0.,1.));
#1133=DIRECTION('',(1.,0.,0.));
#1134=DIRECTION('',(0.,0.,1.));
#1135=DIRECTION('',(1.,0.,0.));
#1136=DIRECTION('',(0.,0.,1.));
#1137=DIRECTION('',(1.,0.,0.));
#1138=DIRECTION('',(0.,0.,1.));
#1139=DIRECTION('',(1.,0.,0.));
#1140=DIRECTION('',(0.,0.,1.));
#1141=DIRECTION('',(1.,0.,0.));
#1142=DIRECTION('',(0.,0.,1.));
#1143=DIRECTION('',(1.,0.,0.));
#1144=DIRECTION('',(0.,0.,1.));
#1145=DIRECTION('',(1.,0.,0.));
#1146=DIRECTION('',(0.,0.,1.));
#1147=DIRECTION('',(1.,0.,0.));
#1148=DIRECTION('',(0.,0.,1.));
#1149=DIRECTION('',(1.,0.,0.));
#1150=DIRECTION('',(0.,0.,1.));
#1151=DIRECTION('',(1.,0.,0.));
#1152=DIRECTION('',(0.,0.,1.));
#1153=DIRECTION('',(1.,0.,0.));
#1154=DIRECTION('',(0.,0.,1.));
#1155=DIRECTION('',(1.,0.,0.));
#1156=DIRECTION('',(0.,0.,1.));
#1157=DIRECTION('',(1.,0.,0.));
#1158=DIRECTION('',(0.,0.,1.));
#1159=DIRECTION('',(1.,0.,0.));
#1160=DIRECTION('',(0.,0.,1.));
#1161=DIRECTION('',(1.,0.,0.));
#1162=DIRECTION('',(0.,0.,1.));
#1163=DIRECTION('',(1.,0.,0.));
#1164=DIRECTION('',(0.,0.,1.));
#1165=DIRECTION('',(1.,0.,0.));
#1166=DIRECTION('',(0.,0.,1.));
#1167=DIRECTION('',(1.,0.,0.));
#1168=DIRECTION('',(0.,0.,1.));
#1169=DIRECTION('',(1.,0.,0.));
#1170=DIRECTION('',(0.,0.,1.));
#1171=DIRECTION('',(1.,0.,0.));
#1172=DIRECTION('',(0.,0.,1.));
#1173=DIRECTION('',(1.,0.,0.));
#1174=DIRECTION('',(0.,-1.,0.));
#1175=DIRECTION('',(0.,0.,-1.));
#1176=DIRECTION('',(-1.,0.,0.));
#1177=DIRECTION('',(0.,0.,-1.));
#1178=DIRECTION('',(0.,0.,-1.));
#1179=DIRECTION('',(1.,-2.62836890299516E-16,0.));
#1180=DIRECTION('',(2.62836890299516E-16,1.,0.));
#1181=DIRECTION('',(-2.62836890299516E-16,-1.,0.));
#1182=DIRECTION('',(0.,0.,-1.));
#1183=DIRECTION('',(0.,0.,-1.));
#1184=DIRECTION('',(0.,0.,-1.));
#1185=DIRECTION('',(-1.,0.,0.));
#1186=DIRECTION('',(0.,0.,-1.));
#1187=DIRECTION('',(-1.,0.,0.));
#1188=DIRECTION('',(0.,0.,-1.));
#1189=DIRECTION('',(1.,0.,0.));
#1190=DIRECTION('',(0.,0.,-1.));
#1191=DIRECTION('',(-1.,0.,0.));
#1192=DIRECTION('',(0.,0.,-1.));
#1193=DIRECTION('',(-1.,0.,0.));
#1194=DIRECTION('',(0.,0.,-1.));
#1195=DIRECTION('',(-1.,0.,0.));
#1196=DIRECTION('',(0.,1.,0.));
#1197=DIRECTION('',(0.,0.,1.));
#1198=DIRECTION('',(1.,0.,0.));
#1199=DIRECTION('',(0.,0.,-1.));
#1200=DIRECTION('',(0.,0.,-1.));
#1201=DIRECTION('',(1.,-2.62836890299516E-16,0.));
#1202=DIRECTION('',(2.62836890299516E-16,1.,0.));
#1203=DIRECTION('',(0.,0.,-1.));
#1204=DIRECTION('',(-2.62836890299516E-16,-1.,0.));
#1205=DIRECTION('',(0.,0.,-1.));
#1206=DIRECTION('',(0.,0.,-1.));
#1207=DIRECTION('',(-1.,0.,0.));
#1208=DIRECTION('',(0.,0.,-1.));
#1209=DIRECTION('',(-1.,0.,0.));
#1210=DIRECTION('',(0.,0.,-1.));
#1211=DIRECTION('',(1.,0.,0.));
#1212=DIRECTION('',(0.,0.,-1.));
#1213=DIRECTION('',(-1.,0.,0.));
#1214=DIRECTION('',(0.,0.,-1.));
#1215=DIRECTION('',(-1.,0.,0.));
#1216=DIRECTION('',(0.,0.,-1.));
#1217=DIRECTION('',(-1.,0.,0.));
#1218=DIRECTION('',(0.,1.,0.));
#1219=DIRECTION('',(0.,0.,1.));
#1220=DIRECTION('',(1.,0.,0.));
#1221=DIRECTION('',(0.,0.,-1.));
#1222=DIRECTION('',(0.,0.,-1.));
#1223=DIRECTION('',(-1.,0.,0.));
#1224=DIRECTION('',(0.,0.,1.));
#1225=DIRECTION('',(0.,1.,0.));
#1226=DIRECTION('',(0.,0.,-1.));
#1227=DIRECTION('',(0.,0.,-1.));
#1228=DIRECTION('',(0.,0.,-1.));
#1229=DIRECTION('',(-1.,0.,0.));
#1230=DIRECTION('',(0.,0.,-1.));
#1231=DIRECTION('',(-1.,0.,0.));
#1232=DIRECTION('',(0.,0.,-1.));
#1233=DIRECTION('',(1.,0.,0.));
#1234=DIRECTION('',(0.,0.,-1.));
#1235=DIRECTION('',(-1.,0.,0.));
#1236=DIRECTION('',(0.,0.,-1.));
#1237=DIRECTION('',(-1.,0.,0.));
#1238=DIRECTION('',(0.,0.,-1.));
#1239=DIRECTION('',(-1.,0.,0.));
#1240=DIRECTION('',(0.,-1.,0.));
#1241=DIRECTION('',(0.,0.,-1.));
#1242=DIRECTION('',(-1.,0.,0.));
#1243=DIRECTION('',(0.,0.,-1.));
#1244=DIRECTION('',(0.,0.,-1.));
#1245=DIRECTION('',(-1.,2.62836890299516E-16,0.));
#1246=DIRECTION('',(-2.62836890299516E-16,-1.,0.));
#1247=DIRECTION('',(0.,0.,-1.));
#1248=DIRECTION('',(2.62836890299516E-16,1.,0.));
#1249=DIRECTION('',(0.,0.,-1.));
#1250=DIRECTION('',(0.,0.,-1.));
#1251=DIRECTION('',(-1.,0.,0.));
#1252=DIRECTION('',(0.,0.,-1.));
#1253=DIRECTION('',(-1.,0.,0.));
#1254=DIRECTION('',(0.,0.,-1.));
#1255=DIRECTION('',(1.,0.,0.));
#1256=DIRECTION('',(0.,0.,-1.));
#1257=DIRECTION('',(-1.,0.,0.));
#1258=DIRECTION('',(0.,0.,-1.));
#1259=DIRECTION('',(-1.,0.,0.));
#1260=DIRECTION('',(0.,0.,-1.));
#1261=DIRECTION('',(-1.,0.,0.));
#1262=DIRECTION('',(0.,0.,1.));
#1263=DIRECTION('',(1.,0.,0.));
#1264=DIRECTION('',(0.,0.,1.));
#1265=DIRECTION('',(1.,0.,0.));
#1266=DIRECTION('',(0.,0.,-1.));
#1267=DIRECTION('',(-1.,0.,0.));
#1268=DIRECTION('',(0.,0.,1.));
#1269=DIRECTION('',(1.,0.,0.));
#1270=DIRECTION('',(0.,0.,1.));
#1271=DIRECTION('',(1.,0.,0.));
#1272=DIRECTION('',(0.,0.,-1.));
#1273=DIRECTION('',(-1.,0.,0.));
#1274=DIRECTION('',(0.,0.,-1.));
#1275=DIRECTION('',(-1.,0.,0.));
#1276=DIRECTION('',(0.,0.,1.));
#1277=DIRECTION('',(1.,0.,0.));
#1278=DIRECTION('',(0.,0.,1.));
#1279=DIRECTION('',(1.,0.,0.));
#1280=DIRECTION('',(0.,0.,1.));
#1281=DIRECTION('',(1.,0.,0.));
#1282=DIRECTION('',(0.,0.,1.));
#1283=DIRECTION('',(1.,0.,0.));
#1284=DIRECTION('',(0.,0.,-1.));
#1285=DIRECTION('',(-1.,0.,0.));
#1286=CARTESIAN_POINT('',(0.,0.,0.));
#1287=CARTESIAN_POINT('',(0.0116,0.1,0.0043));
#1288=CARTESIAN_POINT('',(0.0116,0.1,0.0048));
#1289=CARTESIAN_POINT('',(0.0116,0.1116,0.0048));
#1290=CARTESIAN_POINT('',(0.0116,0.104,0.0048));
#1291=CARTESIAN_POINT('',(0.0116,0.104,0.0018));
#1292=CARTESIAN_POINT('',(0.0116,0.104,0.0018));
#1293=CARTESIAN_POINT('',(0.0116,0.1,0.0018));
#1294=CARTESIAN_POINT('',(0.0116,0.096,0.0018));
#1295=CARTESIAN_POINT('',(0.0116,0.096,0.0043));
#1296=CARTESIAN_POINT('',(0.0116,0.096,0.0048));
#1297=CARTESIAN_POINT('',(0.0116,0.1,0.0048));
#1298=CARTESIAN_POINT('',(0.0116,0.0884,0.0048));
#1299=CARTESIAN_POINT('',(0.0116,0.0884,0.0043));
#1300=CARTESIAN_POINT('',(0.0116,0.0884,0.0148));
#1301=CARTESIAN_POINT('',(0.0116,0.1,0.0148));
#1302=CARTESIAN_POINT('',(0.0116,0.1116,0.0148));
#1303=CARTESIAN_POINT('',(0.0116,0.1116,0.0043));
#1304=CARTESIAN_POINT('',(0.,0.0884,0.0043));
#1305=CARTESIAN_POINT('',(0.,0.0884,0.0048));
#1306=CARTESIAN_POINT('',(0.004,0.0884,0.0048));
#1307=CARTESIAN_POINT('',(0.004,0.0884,0.0043));
#1308=CARTESIAN_POINT('',(0.004,0.0884,0.0018));
#1309=CARTESIAN_POINT('',(0.,0.0884,0.0018));
#1310=CARTESIAN_POINT('',(-0.004,0.0884,0.0018));
#1311=CARTESIAN_POINT('',(-0.004,0.0884,0.0048));
#1312=CARTESIAN_POINT('',(-0.004,0.0884,0.0048));
#1313=CARTESIAN_POINT('',(0.,0.0884,0.0048));
#1314=CARTESIAN_POINT('',(-0.0116,0.0884,0.0048));
#1315=CARTESIAN_POINT('',(-0.0116,0.0884,0.0043));
#1316=CARTESIAN_POINT('',(-0.0116,0.0884,0.0148));
#1317=CARTESIAN_POINT('',(0.,0.0884,0.0148));
#1318=CARTESIAN_POINT('',(-0.0116,0.1,0.0043));
#1319=CARTESIAN_POINT('',(-0.0116,0.1,0.0018));
#1320=CARTESIAN_POINT('',(-0.0116,0.104,0.0018));
#1321=CARTESIAN_POINT('',(-0.0116,0.096,0.0018));
#1322=CARTESIAN_POINT('',(-0.0116,0.104,0.0048));
#1323=CARTESIAN_POINT('',(-0.0116,0.104,0.0048));
#1324=CARTESIAN_POINT('',(-0.0116,0.1,0.0048));
#1325=CARTESIAN_POINT('',(-0.0116,0.1116,0.0048));
#1326=CARTESIAN_POINT('',(-0.0116,0.1116,0.0043));
#1327=CARTESIAN_POINT('',(-0.0116,0.1116,0.0148));
#1328=CARTESIAN_POINT('',(-0.0116,0.1,0.0148));
#1329=CARTESIAN_POINT('',(-0.0116,0.1,0.0048));
#1330=CARTESIAN_POINT('',(-0.0116,0.096,0.0048));
#1331=CARTESIAN_POINT('',(-0.0116,0.096,0.0043));
#1332=CARTESIAN_POINT('',(0.,0.1116,0.0043));
#1333=CARTESIAN_POINT('',(0.,0.1116,0.0048));
#1334=CARTESIAN_POINT('',(-0.004,0.1116,0.0048));
#1335=CARTESIAN_POINT('',(-0.004,0.1116,0.0018));
#1336=CARTESIAN_POINT('',(-0.004,0.1116,0.0018));
#1337=CARTESIAN_POINT('',(0.,0.1116,0.0018));
#1338=CARTESIAN_POINT('',(0.004,0.1116,0.0018));
#1339=CARTESIAN_POINT('',(0.004,0.1116,0.0043));
#1340=CARTESIAN_POINT('',(0.004,0.1116,0.0048));
#1341=CARTESIAN_POINT('',(0.,0.1116,0.0048));
#1342=CARTESIAN_POINT('',(0.,0.1116,0.0148));
#1343=CARTESIAN_POINT('',(0.015525,0.1,0.0043));
#1344=CARTESIAN_POINT('',(0.015525,0.1,0.0148));
#1345=CARTESIAN_POINT('',(0.018325,0.1,0.0148));
#1346=CARTESIAN_POINT('',(0.015525,0.1,0.0018));
#1347=CARTESIAN_POINT('',(0.018325,0.1,0.0018));
#1348=CARTESIAN_POINT('',(-0.015525,0.1,0.0043));
#1349=CARTESIAN_POINT('',(-0.015525,0.1,0.0148));
#1350=CARTESIAN_POINT('',(-0.012725,0.1,0.0148));
#1351=CARTESIAN_POINT('',(-0.015525,0.1,0.0018));
#1352=CARTESIAN_POINT('',(-0.012725,0.1,0.0018));
#1353=CARTESIAN_POINT('',(0.,0.1,0.0043));
#1354=CARTESIAN_POINT('',(0.,0.1,0.0018));
#1355=CARTESIAN_POINT('',(0.02,0.1,0.0018));
#1356=CARTESIAN_POINT('',(0.,0.1,0.0148));
#1357=CARTESIAN_POINT('',(0.02,0.1,0.0148));
#1358=CARTESIAN_POINT('',(0.,0.1,0.0018));
#1359=CARTESIAN_POINT('',(0.0083,0.105,0.0018));
#1360=CARTESIAN_POINT('',(0.0106,0.105,0.0018));
#1361=CARTESIAN_POINT('',(0.006,0.105,0.0018));
#1362=CARTESIAN_POINT('',(0.006,0.106,0.0018));
#1363=CARTESIAN_POINT('',(0.005,0.106,0.0018));
#1364=CARTESIAN_POINT('',(0.005,0.1083,0.0018));
#1365=CARTESIAN_POINT('',(0.005,0.1106,0.0018));
#1366=CARTESIAN_POINT('',(0.004,0.1106,0.0018));
#1367=CARTESIAN_POINT('',(-0.004,0.1106,0.0018));
#1368=CARTESIAN_POINT('',(-0.005,0.1106,0.0018));
#1369=CARTESIAN_POINT('',(-0.005,0.1083,0.0018));
#1370=CARTESIAN_POINT('',(-0.005,0.106,0.0018));
#1371=CARTESIAN_POINT('',(-0.006,0.106,0.0018));
#1372=CARTESIAN_POINT('',(-0.006,0.105,0.0018));
#1373=CARTESIAN_POINT('',(-0.0083,0.105,0.0018));
#1374=CARTESIAN_POINT('',(-0.0106,0.105,0.0018));
#1375=CARTESIAN_POINT('',(-0.0106,0.104,0.0018));
#1376=CARTESIAN_POINT('',(-0.0106,0.096,0.0018));
#1377=CARTESIAN_POINT('',(-0.0106,0.095,0.0018));
#1378=CARTESIAN_POINT('',(-0.0083,0.095,0.0018));
#1379=CARTESIAN_POINT('',(-0.006,0.095,0.0018));
#1380=CARTESIAN_POINT('',(-0.006,0.094,0.0018));
#1381=CARTESIAN_POINT('',(-0.005,0.094,0.0018));
#1382=CARTESIAN_POINT('',(-0.005,0.0917,0.0018));
#1383=CARTESIAN_POINT('',(-0.005,0.0894,0.0018));
#1384=CARTESIAN_POINT('',(-0.004,0.0894,0.0018));
#1385=CARTESIAN_POINT('',(0.004,0.0894,0.0018));
#1386=CARTESIAN_POINT('',(0.005,0.0894,0.0018));
#1387=CARTESIAN_POINT('',(0.005,0.0917,0.0018));
#1388=CARTESIAN_POINT('',(0.005,0.094,0.0018));
#1389=CARTESIAN_POINT('',(0.006,0.094,0.0018));
#1390=CARTESIAN_POINT('',(0.006,0.095,0.0018));
#1391=CARTESIAN_POINT('',(0.0083,0.095,0.0018));
#1392=CARTESIAN_POINT('',(0.0106,0.095,0.0018));
#1393=CARTESIAN_POINT('',(0.0106,0.096,0.0018));
#1394=CARTESIAN_POINT('',(0.0106,0.104,0.0018));
#1395=CARTESIAN_POINT('',(-2.16840434497101E-18,0.084475,0.0018));
#1396=CARTESIAN_POINT('',(0.0028,0.084475,0.0018));
#1397=CARTESIAN_POINT('',(0.,0.115525,0.0018));
#1398=CARTESIAN_POINT('',(0.0028,0.115525,0.0018));
#1399=CARTESIAN_POINT('',(0.0145887279377012,0.094690137274869,0.0018));
#1400=CARTESIAN_POINT('',(0.0129387279377012,0.094690137274869,0.0018));
#1401=CARTESIAN_POINT('',(-0.0145887279377012,0.105309862725131,0.0018));
#1402=CARTESIAN_POINT('',(-0.0162387279377012,0.105309862725131,0.0018));
#1403=CARTESIAN_POINT('',(0.00799030662740799,0.107990306627408,0.0018));
#1404=CARTESIAN_POINT('',(0.00649030662740799,0.107990306627408,0.0018));
#1405=CARTESIAN_POINT('',(-0.00799030662740799,0.107990306627408,0.0018));
#1406=CARTESIAN_POINT('',(-0.00949030662740799,0.107990306627408,0.0018));
#1407=CARTESIAN_POINT('',(-0.00799030662740799,0.092009693372592,0.0018));
#1408=CARTESIAN_POINT('',(-0.00949030662740799,0.092009693372592,0.0018));
#1409=CARTESIAN_POINT('',(0.00799030662740799,0.092009693372592,0.0018));
#1410=CARTESIAN_POINT('',(0.00649030662740799,0.092009693372592,0.0018));
#1411=CARTESIAN_POINT('',(-0.0145887279377012,0.105309862725131,0.0018));
#1412=CARTESIAN_POINT('',(-0.0145887279377012,0.105309862725131,0.0028));
#1413=CARTESIAN_POINT('',(-0.0152387279377012,0.105309862725131,0.0028));
#1414=CARTESIAN_POINT('',(0.,0.1,0.0028));
#1415=CARTESIAN_POINT('',(0.0145887279377012,0.094690137274869,0.0018));
#1416=CARTESIAN_POINT('',(0.0145887279377012,0.094690137274869,0.0028));
#1417=CARTESIAN_POINT('',(0.0139387279377012,0.094690137274869,0.0028));
#1418=CARTESIAN_POINT('',(0.,0.1,0.0028));
#1419=CARTESIAN_POINT('',(0.,0.1,0.0148));
#1420=CARTESIAN_POINT('',(-0.00581434243653637,0.11597477455336,0.0148));
#1421=CARTESIAN_POINT('',(-0.00431434243653637,0.11597477455336,0.0148));
#1422=CARTESIAN_POINT('',(0.0159747745533605,0.105814342436536,0.0148));
#1423=CARTESIAN_POINT('',(0.0174747745533605,0.105814342436536,0.0148));
#1424=CARTESIAN_POINT('',(0.00581434243653638,0.0840252254466396,0.0148));
#1425=CARTESIAN_POINT('',(0.00731434243653638,0.0840252254466396,0.0148));
#1426=CARTESIAN_POINT('',(-0.0159747745533605,0.0941856575634636,0.0148));
#1427=CARTESIAN_POINT('',(-0.0144747745533605,0.0941856575634636,0.0148));
#1428=CARTESIAN_POINT('',(-2.16840434497101E-18,0.084475,0.0148));
#1429=CARTESIAN_POINT('',(0.0028,0.084475,0.0148));
#1430=CARTESIAN_POINT('',(0.,0.115525,0.0148));
#1431=CARTESIAN_POINT('',(0.0028,0.115525,0.0148));
#1432=CARTESIAN_POINT('',(0.,0.115525,0.0018));
#1433=CARTESIAN_POINT('',(-2.16840434497101E-18,0.084475,0.0018));
#1434=CARTESIAN_POINT('',(-0.0159747745533605,0.0941856575634636,0.0068));
#1435=CARTESIAN_POINT('',(-0.0159747745533605,0.0941856575634636,0.0068));
#1436=CARTESIAN_POINT('',(-0.0144747745533605,0.0941856575634636,0.0068));
#1437=CARTESIAN_POINT('',(0.,0.1,0.0068));
#1438=CARTESIAN_POINT('',(0.00581434243653638,0.0840252254466396,0.0068));
#1439=CARTESIAN_POINT('',(0.00581434243653638,0.0840252254466396,0.0068));
#1440=CARTESIAN_POINT('',(0.00731434243653638,0.0840252254466396,0.0068));
#1441=CARTESIAN_POINT('',(0.,0.1,0.0068));
#1442=CARTESIAN_POINT('',(0.0159747745533605,0.105814342436536,0.0068));
#1443=CARTESIAN_POINT('',(0.0159747745533605,0.105814342436536,0.0068));
#1444=CARTESIAN_POINT('',(0.0174747745533605,0.105814342436536,0.0068));
#1445=CARTESIAN_POINT('',(0.,0.1,0.0068));
#1446=CARTESIAN_POINT('',(-0.00581434243653637,0.11597477455336,0.0068));
#1447=CARTESIAN_POINT('',(-0.00581434243653637,0.11597477455336,0.0068));
#1448=CARTESIAN_POINT('',(-0.00431434243653637,0.11597477455336,0.0068));
#1449=CARTESIAN_POINT('',(0.,0.1,0.0068));
#1450=CARTESIAN_POINT('',(0.0083,0.105,0.0048));
#1451=CARTESIAN_POINT('',(0.0083,0.105,0.0048));
#1452=CARTESIAN_POINT('',(0.0106,0.105,0.0048));
#1453=CARTESIAN_POINT('',(0.006,0.105,0.0048));
#1454=CARTESIAN_POINT('',(0.006,0.105,0.0018));
#1455=CARTESIAN_POINT('',(0.0106,0.105,0.0048));
#1456=CARTESIAN_POINT('',(0.005,0.1083,0.0048));
#1457=CARTESIAN_POINT('',(0.005,0.1083,0.0048));
#1458=CARTESIAN_POINT('',(0.005,0.1106,0.0048));
#1459=CARTESIAN_POINT('',(0.005,0.106,0.0048));
#1460=CARTESIAN_POINT('',(0.005,0.1106,0.0048));
#1461=CARTESIAN_POINT('',(0.005,0.106,0.0048));
#1462=CARTESIAN_POINT('',(0.00799030662740799,0.107990306627408,0.0048));
#1463=CARTESIAN_POINT('',(0.00799030662740799,0.107990306627408,0.0048));
#1464=CARTESIAN_POINT('',(0.00649030662740799,0.107990306627408,0.0048));
#1465=CARTESIAN_POINT('',(0.,0.1,0.0048));
#1466=CARTESIAN_POINT('',(0.006,0.106,0.0048));
#1467=CARTESIAN_POINT('',(0.0106,0.104,0.0048));
#1468=CARTESIAN_POINT('',(0.004,0.1106,0.0048));
#1469=CARTESIAN_POINT('',(-0.0083,0.105,0.0048));
#1470=CARTESIAN_POINT('',(-0.0083,0.105,0.0048));
#1471=CARTESIAN_POINT('',(-0.0106,0.105,0.0048));
#1472=CARTESIAN_POINT('',(-0.006,0.105,0.0048));
#1473=CARTESIAN_POINT('',(-0.0106,0.105,0.0018));
#1474=CARTESIAN_POINT('',(-0.006,0.105,0.0048));
#1475=CARTESIAN_POINT('',(-0.005,0.1083,0.0048));
#1476=CARTESIAN_POINT('',(-0.005,0.1106,0.0048));
#1477=CARTESIAN_POINT('',(-0.005,0.1106,0.0048));
#1478=CARTESIAN_POINT('',(-0.005,0.1083,0.0048));
#1479=CARTESIAN_POINT('',(-0.005,0.106,0.0048));
#1480=CARTESIAN_POINT('',(-0.005,0.106,0.0018));
#1481=CARTESIAN_POINT('',(-0.00799030662740799,0.107990306627408,0.0048));
#1482=CARTESIAN_POINT('',(-0.00799030662740799,0.107990306627408,0.0048));
#1483=CARTESIAN_POINT('',(-0.00949030662740799,0.107990306627408,0.0048));
#1484=CARTESIAN_POINT('',(0.,0.1,0.0048));
#1485=CARTESIAN_POINT('',(-0.006,0.106,0.0048));
#1486=CARTESIAN_POINT('',(-0.004,0.1106,0.0048));
#1487=CARTESIAN_POINT('',(-0.0106,0.104,0.0048));
#1488=CARTESIAN_POINT('',(-0.0083,0.095,0.0048));
#1489=CARTESIAN_POINT('',(-0.0083,0.095,0.0048));
#1490=CARTESIAN_POINT('',(-0.0106,0.095,0.0048));
#1491=CARTESIAN_POINT('',(-0.006,0.095,0.0048));
#1492=CARTESIAN_POINT('',(-0.006,0.095,0.0018));
#1493=CARTESIAN_POINT('',(-0.0106,0.095,0.0048));
#1494=CARTESIAN_POINT('',(-0.005,0.0917,0.0048));
#1495=CARTESIAN_POINT('',(-0.005,0.0917,0.0048));
#1496=CARTESIAN_POINT('',(-0.005,0.0894,0.0048));
#1497=CARTESIAN_POINT('',(-0.005,0.094,0.0048));
#1498=CARTESIAN_POINT('',(-0.005,0.0894,0.0018));
#1499=CARTESIAN_POINT('',(-0.005,0.094,0.0048));
#1500=CARTESIAN_POINT('',(-0.00799030662740799,0.092009693372592,0.0048));
#1501=CARTESIAN_POINT('',(-0.00799030662740799,0.092009693372592,0.0048));
#1502=CARTESIAN_POINT('',(-0.00949030662740799,0.092009693372592,0.0048));
#1503=CARTESIAN_POINT('',(0.,0.1,0.0048));
#1504=CARTESIAN_POINT('',(-0.006,0.094,0.0048));
#1505=CARTESIAN_POINT('',(-0.0106,0.096,0.0048));
#1506=CARTESIAN_POINT('',(-0.004,0.0894,0.0048));
#1507=CARTESIAN_POINT('',(0.0083,0.095,0.0048));
#1508=CARTESIAN_POINT('',(0.0083,0.095,0.0048));
#1509=CARTESIAN_POINT('',(0.0106,0.095,0.0048));
#1510=CARTESIAN_POINT('',(0.006,0.095,0.0048));
#1511=CARTESIAN_POINT('',(0.0106,0.095,0.0048));
#1512=CARTESIAN_POINT('',(0.006,0.095,0.0048));
#1513=CARTESIAN_POINT('',(0.005,0.0917,0.0048));
#1514=CARTESIAN_POINT('',(0.005,0.0894,0.0048));
#1515=CARTESIAN_POINT('',(0.005,0.0894,0.0048));
#1516=CARTESIAN_POINT('',(0.005,0.0917,0.0048));
#1517=CARTESIAN_POINT('',(0.005,0.094,0.0048));
#1518=CARTESIAN_POINT('',(0.005,0.094,0.0018));
#1519=CARTESIAN_POINT('',(0.00799030662740799,0.092009693372592,0.0048));
#1520=CARTESIAN_POINT('',(0.00799030662740799,0.092009693372592,0.0048));
#1521=CARTESIAN_POINT('',(0.00649030662740799,0.092009693372592,0.0048));
#1522=CARTESIAN_POINT('',(0.,0.1,0.0048));
#1523=CARTESIAN_POINT('',(0.006,0.094,0.0048));
#1524=CARTESIAN_POINT('',(0.004,0.0894,0.0048));
#1525=CARTESIAN_POINT('',(0.0106,0.096,0.0048));
#1526=CARTESIAN_POINT('',(-0.004,0.1106,0.0043));
#1527=CARTESIAN_POINT('',(-0.0106,0.104,0.0048));
#1528=CARTESIAN_POINT('',(0.004,0.1106,0.0048));
#1529=CARTESIAN_POINT('',(0.006,0.106,0.0048));
#1530=CARTESIAN_POINT('',(0.0106,0.104,0.0043));
#1531=CARTESIAN_POINT('',(0.0106,0.096,0.0048));
#1532=CARTESIAN_POINT('',(0.004,0.0894,0.0043));
#1533=CARTESIAN_POINT('',(0.006,0.094,0.0048));
#1534=CARTESIAN_POINT('',(-0.006,0.106,0.0048));
#1535=CARTESIAN_POINT('',(-0.004,0.0894,0.0048));
#1536=CARTESIAN_POINT('',(-0.006,0.094,0.0048));
#1537=CARTESIAN_POINT('',(-0.0106,0.096,0.0043));
#1538=MECHANICAL_DESIGN_GEOMETRIC_PRESENTATION_REPRESENTATION('',(#897),
#1539);
#1539=(
GEOMETRIC_REPRESENTATION_CONTEXT(3)
GLOBAL_UNCERTAINTY_ASSIGNED_CONTEXT((#1540))
GLOBAL_UNIT_ASSIGNED_CONTEXT((#1543,#1542,#1541))
REPRESENTATION_CONTEXT('encoder_housing','TOP_LEVEL_ASSEMBLY_PART')
);
#1540=UNCERTAINTY_MEASURE_WITH_UNIT(LENGTH_MEASURE(1.E-8),#1543,
'DISTANCE_ACCURACY_VALUE','Maximum Tolerance applied to model');
#1541=(
NAMED_UNIT(*)
SI_UNIT($,.STERADIAN.)
SOLID_ANGLE_UNIT()
);
#1542=(
NAMED_UNIT(*)
PLANE_ANGLE_UNIT()
SI_UNIT($,.RADIAN.)
);
#1543=(
LENGTH_UNIT()
NAMED_UNIT(*)
SI_UNIT($,.METRE.)
);
#1544=PRODUCT_DEFINITION_SHAPE('','',#1545);
#1545=PRODUCT_DEFINITION('','',#1547,#1546);
#1546=PRODUCT_DEFINITION_CONTEXT('',#1553,'design');
#1547=PRODUCT_DEFINITION_FORMATION_WITH_SPECIFIED_SOURCE('','',#1549,
 .NOT_KNOWN.);
#1548=PRODUCT_RELATED_PRODUCT_CATEGORY('','',(#1549));
#1549=PRODUCT('encoder_housing','encoder_housing','encoder_housing',(#1551));
#1550=PRODUCT_CATEGORY('','');
#1551=PRODUCT_CONTEXT('',#1553,'mechanical');
#1552=APPLICATION_PROTOCOL_DEFINITION('international standard',
'ap242_managed_model_based_3d_engineering',2020,#1553);
#1553=APPLICATION_CONTEXT('managed model based 3d engineering');
ENDSEC;
END-ISO-10303-21;
