ISO-10303-21;
HEADER;
/* Generated by software containing ST-Developer
 * from STEP Tools, Inc. (www.steptools.com) 
 */
/* OPTION: using custom renumber hook */

FILE_DESCRIPTION(
/* description */ ('STEP AP242 Edition 2',
'CAx-IF Rec.Pracs.---Representation and Presentation of Product Manufa
cturing Information (PMI)---4.0---2014-10-13',
'CAx-IF Rec.Pracs.---3D Tessellated Geometry---0.4---2014-09-14','2;1',
'CAx-IF Rec.Pracs.---User Defined Attributes---1.5---2016-08-15'),
/* implementation_level */ '2;1');

FILE_NAME(
/* name */ 'Part Studio 1 - handle-body',
/* time_stamp */ '2026-08-24T08:35:13Z',
/* author */ (''),
/* organization */ (''),
/* preprocessor_version */ 'ST-DEVELOPER v20',
/* originating_system */ 'ONSHAPE BY PTC INC, 1.219',
/* authorisation */ '  ');

FILE_SCHEMA (('AP242_MANAGED_MODEL_BASED_3D_ENGINEERING_MIM_LF { 1 0 10303 442 3 1 4 }'));
ENDSEC;

DATA;
#10=SHAPE_REPRESENTATION_RELATIONSHIP('','',#281,#11);
#11=ADVANCED_BREP_SHAPE_REPRESENTATION('',(#279),#491);
#12=TOROIDAL_SURFACE('',#327,0.013,0.003);
#13=DEGENERATE_TOROIDAL_SURFACE('',#326,0.002,0.003,.T.);
#14=CONICAL_SURFACE('',#305,0.0015,0.785398163397448);
#15=CONICAL_SURFACE('',#308,0.0015,0.785398163397448);
#16=CONICAL_SURFACE('',#311,0.00165,0.785398163397448);
#17=CONICAL_SURFACE('',#314,0.00165,0.785398163397448);
#18=CYLINDRICAL_SURFACE('',#300,0.02);
#19=CYLINDRICAL_SURFACE('',#301,0.0015);
#20=CYLINDRICAL_SURFACE('',#302,0.0015);
#21=CYLINDRICAL_SURFACE('',#303,0.0015);
#22=CYLINDRICAL_SURFACE('',#304,0.0015);
#23=CYLINDRICAL_SURFACE('',#317,0.005);
#24=CYLINDRICAL_SURFACE('',#320,0.01);
#25=ORIENTED_EDGE('',*,*,#73,.T.);
#26=ORIENTED_EDGE('',*,*,#74,.F.);
#27=ORIENTED_EDGE('',*,*,#75,.F.);
#28=ORIENTED_EDGE('',*,*,#76,.F.);
#29=ORIENTED_EDGE('',*,*,#77,.F.);
#30=ORIENTED_EDGE('',*,*,#78,.F.);
#31=ORIENTED_EDGE('',*,*,#79,.F.);
#32=ORIENTED_EDGE('',*,*,#80,.T.);
#33=ORIENTED_EDGE('',*,*,#81,.T.);
#34=ORIENTED_EDGE('',*,*,#82,.T.);
#35=ORIENTED_EDGE('',*,*,#83,.T.);
#36=ORIENTED_EDGE('',*,*,#84,.T.);
#37=ORIENTED_EDGE('',*,*,#85,.F.);
#38=ORIENTED_EDGE('',*,*,#86,.F.);
#39=ORIENTED_EDGE('',*,*,#87,.F.);
#40=ORIENTED_EDGE('',*,*,#87,.T.);
#41=ORIENTED_EDGE('',*,*,#80,.F.);
#42=ORIENTED_EDGE('',*,*,#77,.T.);
#43=ORIENTED_EDGE('',*,*,#84,.F.);
#44=ORIENTED_EDGE('',*,*,#76,.T.);
#45=ORIENTED_EDGE('',*,*,#83,.F.);
#46=ORIENTED_EDGE('',*,*,#75,.T.);
#47=ORIENTED_EDGE('',*,*,#82,.F.);
#48=ORIENTED_EDGE('',*,*,#74,.T.);
#49=ORIENTED_EDGE('',*,*,#81,.F.);
#50=ORIENTED_EDGE('',*,*,#88,.F.);
#51=ORIENTED_EDGE('',*,*,#78,.T.);
#52=ORIENTED_EDGE('',*,*,#88,.T.);
#53=ORIENTED_EDGE('',*,*,#89,.F.);
#54=ORIENTED_EDGE('',*,*,#79,.T.);
#55=ORIENTED_EDGE('',*,*,#89,.T.);
#56=ORIENTED_EDGE('',*,*,#90,.F.);
#57=ORIENTED_EDGE('',*,*,#85,.T.);
#58=ORIENTED_EDGE('',*,*,#90,.T.);
#59=ORIENTED_EDGE('',*,*,#91,.F.);
#60=ORIENTED_EDGE('',*,*,#86,.T.);
#61=ORIENTED_EDGE('',*,*,#91,.T.);
#62=ORIENTED_EDGE('',*,*,#92,.T.);
#63=ORIENTED_EDGE('',*,*,#93,.T.);
#64=ORIENTED_EDGE('',*,*,#94,.T.);
#65=ORIENTED_EDGE('',*,*,#95,.F.);
#66=ORIENTED_EDGE('',*,*,#93,.F.);
#67=ORIENTED_EDGE('',*,*,#95,.T.);
#68=ORIENTED_EDGE('',*,*,#96,.T.);
#69=ORIENTED_EDGE('',*,*,#96,.F.);
#70=ORIENTED_EDGE('',*,*,#92,.F.);
#71=ORIENTED_EDGE('',*,*,#73,.F.);
#72=ORIENTED_EDGE('',*,*,#94,.F.);
#73=EDGE_CURVE('',#97,#97,#121,.F.);
#74=EDGE_CURVE('',#98,#98,#122,.T.);
#75=EDGE_CURVE('',#99,#99,#123,.T.);
#76=EDGE_CURVE('',#100,#100,#124,.T.);
#77=EDGE_CURVE('',#101,#101,#125,.T.);
#78=EDGE_CURVE('',#102,#102,#126,.T.);
#79=EDGE_CURVE('',#103,#103,#127,.T.);
#80=EDGE_CURVE('',#104,#104,#128,.T.);
#81=EDGE_CURVE('',#105,#105,#129,.T.);
#82=EDGE_CURVE('',#106,#106,#130,.T.);
#83=EDGE_CURVE('',#107,#107,#131,.T.);
#84=EDGE_CURVE('',#108,#108,#132,.T.);
#85=EDGE_CURVE('',#109,#109,#133,.T.);
#86=EDGE_CURVE('',#110,#110,#134,.T.);
#87=EDGE_CURVE('',#111,#111,#135,.T.);
#88=EDGE_CURVE('',#112,#112,#136,.T.);
#89=EDGE_CURVE('',#113,#113,#137,.T.);
#90=EDGE_CURVE('',#114,#114,#138,.T.);
#91=EDGE_CURVE('',#115,#115,#139,.T.);
#92=EDGE_CURVE('',#116,#116,#140,.F.);
#93=EDGE_CURVE('',#117,#117,#141,.T.);
#94=EDGE_CURVE('',#118,#118,#142,.T.);
#95=EDGE_CURVE('',#119,#119,#143,.T.);
#96=EDGE_CURVE('',#120,#120,#144,.T.);
#97=VERTEX_POINT('',#423);
#98=VERTEX_POINT('',#425);
#99=VERTEX_POINT('',#427);
#100=VERTEX_POINT('',#429);
#101=VERTEX_POINT('',#431);
#102=VERTEX_POINT('',#433);
#103=VERTEX_POINT('',#435);
#104=VERTEX_POINT('',#437);
#105=VERTEX_POINT('',#440);
#106=VERTEX_POINT('',#442);
#107=VERTEX_POINT('',#444);
#108=VERTEX_POINT('',#446);
#109=VERTEX_POINT('',#448);
#110=VERTEX_POINT('',#450);
#111=VERTEX_POINT('',#452);
#112=VERTEX_POINT('',#460);
#113=VERTEX_POINT('',#464);
#114=VERTEX_POINT('',#468);
#115=VERTEX_POINT('',#472);
#116=VERTEX_POINT('',#476);
#117=VERTEX_POINT('',#478);
#118=VERTEX_POINT('',#481);
#119=VERTEX_POINT('',#483);
#120=VERTEX_POINT('',#487);
#121=CIRCLE('',#284,0.013);
#122=CIRCLE('',#285,0.0015);
#123=CIRCLE('',#286,0.0015);
#124=CIRCLE('',#287,0.0015);
#125=CIRCLE('',#288,0.0015);
#126=CIRCLE('',#289,0.0015);
#127=CIRCLE('',#290,0.0015);
#128=CIRCLE('',#291,0.02);
#129=CIRCLE('',#293,0.0015);
#130=CIRCLE('',#294,0.0015);
#131=CIRCLE('',#295,0.0015);
#132=CIRCLE('',#296,0.0015);
#133=CIRCLE('',#297,0.00165);
#134=CIRCLE('',#298,0.00165);
#135=CIRCLE('',#299,0.02);
#136=CIRCLE('',#306,0.0008);
#137=CIRCLE('',#309,0.0008);
#138=CIRCLE('',#312,0.00065);
#139=CIRCLE('',#315,0.00065);
#140=CIRCLE('',#318,0.005);
#141=CIRCLE('',#319,0.005);
#142=CIRCLE('',#321,0.01);
#143=CIRCLE('',#322,0.01);
#144=CIRCLE('',#325,0.002);
#145=EDGE_LOOP('',(#25));
#146=EDGE_LOOP('',(#26));
#147=EDGE_LOOP('',(#27));
#148=EDGE_LOOP('',(#28));
#149=EDGE_LOOP('',(#29));
#150=EDGE_LOOP('',(#30));
#151=EDGE_LOOP('',(#31));
#152=EDGE_LOOP('',(#32));
#153=EDGE_LOOP('',(#33));
#154=EDGE_LOOP('',(#34));
#155=EDGE_LOOP('',(#35));
#156=EDGE_LOOP('',(#36));
#157=EDGE_LOOP('',(#37));
#158=EDGE_LOOP('',(#38));
#159=EDGE_LOOP('',(#39));
#160=EDGE_LOOP('',(#40));
#161=EDGE_LOOP('',(#41));
#162=EDGE_LOOP('',(#42));
#163=EDGE_LOOP('',(#43));
#164=EDGE_LOOP('',(#44));
#165=EDGE_LOOP('',(#45));
#166=EDGE_LOOP('',(#46));
#167=EDGE_LOOP('',(#47));
#168=EDGE_LOOP('',(#48));
#169=EDGE_LOOP('',(#49));
#170=EDGE_LOOP('',(#50));
#171=EDGE_LOOP('',(#51));
#172=EDGE_LOOP('',(#52));
#173=EDGE_LOOP('',(#53));
#174=EDGE_LOOP('',(#54));
#175=EDGE_LOOP('',(#55));
#176=EDGE_LOOP('',(#56));
#177=EDGE_LOOP('',(#57));
#178=EDGE_LOOP('',(#58));
#179=EDGE_LOOP('',(#59));
#180=EDGE_LOOP('',(#60));
#181=EDGE_LOOP('',(#61));
#182=EDGE_LOOP('',(#62));
#183=EDGE_LOOP('',(#63));
#184=EDGE_LOOP('',(#64));
#185=EDGE_LOOP('',(#65));
#186=EDGE_LOOP('',(#66));
#187=EDGE_LOOP('',(#67));
#188=EDGE_LOOP('',(#68));
#189=EDGE_LOOP('',(#69));
#190=EDGE_LOOP('',(#70));
#191=EDGE_LOOP('',(#71));
#192=EDGE_LOOP('',(#72));
#193=FACE_BOUND('',#145,.T.);
#194=FACE_BOUND('',#146,.T.);
#195=FACE_BOUND('',#147,.T.);
#196=FACE_BOUND('',#148,.T.);
#197=FACE_BOUND('',#149,.T.);
#198=FACE_BOUND('',#150,.T.);
#199=FACE_BOUND('',#151,.T.);
#200=FACE_BOUND('',#152,.T.);
#201=FACE_BOUND('',#153,.T.);
#202=FACE_BOUND('',#154,.T.);
#203=FACE_BOUND('',#155,.T.);
#204=FACE_BOUND('',#156,.T.);
#205=FACE_BOUND('',#157,.T.);
#206=FACE_BOUND('',#158,.T.);
#207=FACE_BOUND('',#159,.T.);
#208=FACE_BOUND('',#160,.T.);
#209=FACE_BOUND('',#161,.T.);
#210=FACE_BOUND('',#162,.T.);
#211=FACE_BOUND('',#163,.T.);
#212=FACE_BOUND('',#164,.T.);
#213=FACE_BOUND('',#165,.T.);
#214=FACE_BOUND('',#166,.T.);
#215=FACE_BOUND('',#167,.T.);
#216=FACE_BOUND('',#168,.T.);
#217=FACE_BOUND('',#169,.T.);
#218=FACE_BOUND('',#170,.T.);
#219=FACE_BOUND('',#171,.T.);
#220=FACE_BOUND('',#172,.T.);
#221=FACE_BOUND('',#173,.T.);
#222=FACE_BOUND('',#174,.T.);
#223=FACE_BOUND('',#175,.T.);
#224=FACE_BOUND('',#176,.T.);
#225=FACE_BOUND('',#177,.T.);
#226=FACE_BOUND('',#178,.T.);
#227=FACE_BOUND('',#179,.T.);
#228=FACE_BOUND('',#180,.T.);
#229=FACE_BOUND('',#181,.T.);
#230=FACE_BOUND('',#182,.T.);
#231=FACE_BOUND('',#183,.T.);
#232=FACE_BOUND('',#184,.T.);
#233=FACE_BOUND('',#185,.T.);
#234=FACE_BOUND('',#186,.T.);
#235=FACE_BOUND('',#187,.T.);
#236=FACE_BOUND('',#188,.T.);
#237=FACE_BOUND('',#189,.T.);
#238=FACE_BOUND('',#190,.T.);
#239=FACE_BOUND('',#191,.T.);
#240=FACE_BOUND('',#192,.T.);
#241=PLANE('',#283);
#242=PLANE('',#292);
#243=PLANE('',#307);
#244=PLANE('',#310);
#245=PLANE('',#313);
#246=PLANE('',#316);
#247=PLANE('',#323);
#248=PLANE('',#324);
#249=ADVANCED_FACE('',(#193,#194,#195,#196,#197,#198,#199,#200),#241,.T.);
#250=ADVANCED_FACE('',(#201,#202,#203,#204,#205,#206,#207),#242,.F.);
#251=ADVANCED_FACE('',(#208,#209),#18,.T.);
#252=ADVANCED_FACE('',(#210,#211),#19,.F.);
#253=ADVANCED_FACE('',(#212,#213),#20,.F.);
#254=ADVANCED_FACE('',(#214,#215),#21,.F.);
#255=ADVANCED_FACE('',(#216,#217),#22,.F.);
#256=ADVANCED_FACE('',(#218,#219),#14,.T.);
#257=ADVANCED_FACE('',(#220),#243,.T.);
#258=ADVANCED_FACE('',(#221,#222),#15,.T.);
#259=ADVANCED_FACE('',(#223),#244,.T.);
#260=ADVANCED_FACE('',(#224,#225),#16,.F.);
#261=ADVANCED_FACE('',(#226),#245,.T.);
#262=ADVANCED_FACE('',(#227,#228),#17,.F.);
#263=ADVANCED_FACE('',(#229),#246,.T.);
#264=ADVANCED_FACE('',(#230,#231),#23,.F.);
#265=ADVANCED_FACE('',(#232,#233),#24,.T.);
#266=ADVANCED_FACE('',(#234,#235),#247,.T.);
#267=ADVANCED_FACE('',(#236),#248,.T.);
#268=ADVANCED_FACE('',(#237,#238),#13,.F.);
#269=ADVANCED_FACE('',(#239,#240),#12,.F.);
#270=CLOSED_SHELL('',(#249,#250,#251,#252,#253,#254,#255,#256,#257,#258,
#259,#260,#261,#262,#263,#264,#265,#266,#267,#268,#269));
#271=STYLED_ITEM('',(#272),#279);
#272=PRESENTATION_STYLE_ASSIGNMENT((#273));
#273=SURFACE_STYLE_USAGE(.BOTH.,#274);
#274=SURFACE_SIDE_STYLE('',(#275));
#275=SURFACE_STYLE_FILL_AREA(#276);
#276=FILL_AREA_STYLE('',(#277));
#277=FILL_AREA_STYLE_COLOUR('',#278);
#278=COLOUR_RGB('',0.917647058823529,0.917647058823529,0.917647058823529);
#279=MANIFOLD_SOLID_BREP('handle-body',#270);
#280=SHAPE_DEFINITION_REPRESENTATION(#496,#281);
#281=SHAPE_REPRESENTATION('handle-body',(#282),#491);
#282=AXIS2_PLACEMENT_3D('',#420,#328,#329);
#283=AXIS2_PLACEMENT_3D('',#421,#330,#331);
#284=AXIS2_PLACEMENT_3D('',#422,#332,#333);
#285=AXIS2_PLACEMENT_3D('',#424,#334,#335);
#286=AXIS2_PLACEMENT_3D('',#426,#336,#337);
#287=AXIS2_PLACEMENT_3D('',#428,#338,#339);
#288=AXIS2_PLACEMENT_3D('',#430,#340,#341);
#289=AXIS2_PLACEMENT_3D('',#432,#342,#343);
#290=AXIS2_PLACEMENT_3D('',#434,#344,#345);
#291=AXIS2_PLACEMENT_3D('',#436,#346,#347);
#292=AXIS2_PLACEMENT_3D('',#438,#348,#349);
#293=AXIS2_PLACEMENT_3D('',#439,#350,#351);
#294=AXIS2_PLACEMENT_3D('',#441,#352,#353);
#295=AXIS2_PLACEMENT_3D('',#443,#354,#355);
#296=AXIS2_PLACEMENT_3D('',#445,#356,#357);
#297=AXIS2_PLACEMENT_3D('',#447,#358,#359);
#298=AXIS2_PLACEMENT_3D('',#449,#360,#361);
#299=AXIS2_PLACEMENT_3D('',#451,#362,#363);
#300=AXIS2_PLACEMENT_3D('',#453,#364,#365);
#301=AXIS2_PLACEMENT_3D('',#454,#366,#367);
#302=AXIS2_PLACEMENT_3D('',#455,#368,#369);
#303=AXIS2_PLACEMENT_3D('',#456,#370,#371);
#304=AXIS2_PLACEMENT_3D('',#457,#372,#373);
#305=AXIS2_PLACEMENT_3D('',#458,#374,#375);
#306=AXIS2_PLACEMENT_3D('',#459,#376,#377);
#307=AXIS2_PLACEMENT_3D('',#461,#378,#379);
#308=AXIS2_PLACEMENT_3D('',#462,#380,#381);
#309=AXIS2_PLACEMENT_3D('',#463,#382,#383);
#310=AXIS2_PLACEMENT_3D('',#465,#384,#385);
#311=AXIS2_PLACEMENT_3D('',#466,#386,#387);
#312=AXIS2_PLACEMENT_3D('',#467,#388,#389);
#313=AXIS2_PLACEMENT_3D('',#469,#390,#391);
#314=AXIS2_PLACEMENT_3D('',#470,#392,#393);
#315=AXIS2_PLACEMENT_3D('',#471,#394,#395);
#316=AXIS2_PLACEMENT_3D('',#473,#396,#397);
#317=AXIS2_PLACEMENT_3D('',#474,#398,#399);
#318=AXIS2_PLACEMENT_3D('',#475,#400,#401);
#319=AXIS2_PLACEMENT_3D('',#477,#402,#403);
#320=AXIS2_PLACEMENT_3D('',#479,#404,#405);
#321=AXIS2_PLACEMENT_3D('',#480,#406,#407);
#322=AXIS2_PLACEMENT_3D('',#482,#408,#409);
#323=AXIS2_PLACEMENT_3D('',#484,#410,#411);
#324=AXIS2_PLACEMENT_3D('',#485,#412,#413);
#325=AXIS2_PLACEMENT_3D('',#486,#414,#415);
#326=AXIS2_PLACEMENT_3D('',#488,#416,#417);
#327=AXIS2_PLACEMENT_3D('',#489,#418,#419);
#328=DIRECTION('',(0.,0.,1.));
#329=DIRECTION('',(1.,0.,0.));
#330=DIRECTION('',(0.,0.,1.));
#331=DIRECTION('',(1.,0.,0.));
#332=DIRECTION('',(0.,0.,1.));
#333=DIRECTION('',(1.,0.,0.));
#334=DIRECTION('',(0.,0.,1.));
#335=DIRECTION('',(1.,0.,0.));
#336=DIRECTION('',(0.,0.,1.));
#337=DIRECTION('',(6.12323399573677E-17,1.,0.));
#338=DIRECTION('',(0.,0.,1.));
#339=DIRECTION('',(-1.,1.22464679914735E-16,0.));
#340=DIRECTION('',(0.,0.,1.));
#341=DIRECTION('',(-1.83697019872103E-16,-1.,0.));
#342=DIRECTION('',(0.,0.,1.));
#343=DIRECTION('',(1.,0.,0.));
#344=DIRECTION('',(0.,0.,1.));
#345=DIRECTION('',(1.,0.,0.));
#346=DIRECTION('',(0.,0.,1.));
#347=DIRECTION('',(1.,0.,0.));
#348=DIRECTION('',(0.,0.,1.));
#349=DIRECTION('',(1.,0.,0.));
#350=DIRECTION('',(0.,0.,1.));
#351=DIRECTION('',(1.,0.,0.));
#352=DIRECTION('',(0.,0.,1.));
#353=DIRECTION('',(6.12323399573677E-17,1.,0.));
#354=DIRECTION('',(0.,0.,1.));
#355=DIRECTION('',(-1.,1.22464679914735E-16,0.));
#356=DIRECTION('',(0.,0.,1.));
#357=DIRECTION('',(-1.83697019872103E-16,-1.,0.));
#358=DIRECTION('',(0.,0.,-1.));
#359=DIRECTION('',(-1.,0.,0.));
#360=DIRECTION('',(0.,0.,-1.));
#361=DIRECTION('',(-1.,0.,0.));
#362=DIRECTION('',(0.,0.,1.));
#363=DIRECTION('',(1.,0.,0.));
#364=DIRECTION('',(0.,0.,-1.));
#365=DIRECTION('',(-1.,0.,0.));
#366=DIRECTION('',(0.,0.,1.));
#367=DIRECTION('',(-1.83697019872103E-16,-1.,0.));
#368=DIRECTION('',(0.,0.,1.));
#369=DIRECTION('',(-1.,1.22464679914735E-16,0.));
#370=DIRECTION('',(0.,0.,1.));
#371=DIRECTION('',(6.12323399573677E-17,1.,0.));
#372=DIRECTION('',(0.,0.,1.));
#373=DIRECTION('',(1.,0.,0.));
#374=DIRECTION('',(0.,0.,-1.));
#375=DIRECTION('',(1.,0.,0.));
#376=DIRECTION('',(0.,0.,1.));
#377=DIRECTION('',(1.,0.,0.));
#378=DIRECTION('',(0.,0.,1.));
#379=DIRECTION('',(1.,0.,0.));
#380=DIRECTION('',(0.,0.,-1.));
#381=DIRECTION('',(1.,0.,0.));
#382=DIRECTION('',(0.,0.,1.));
#383=DIRECTION('',(1.,0.,0.));
#384=DIRECTION('',(0.,0.,1.));
#385=DIRECTION('',(1.,0.,0.));
#386=DIRECTION('',(0.,0.,-1.));
#387=DIRECTION('',(1.,0.,0.));
#388=DIRECTION('',(0.,0.,-1.));
#389=DIRECTION('',(-1.,0.,0.));
#390=DIRECTION('',(0.,0.,-1.));
#391=DIRECTION('',(1.,0.,0.));
#392=DIRECTION('',(0.,0.,-1.));
#393=DIRECTION('',(1.,0.,0.));
#394=DIRECTION('',(0.,0.,-1.));
#395=DIRECTION('',(-1.,0.,0.));
#396=DIRECTION('',(0.,0.,-1.));
#397=DIRECTION('',(1.,0.,0.));
#398=DIRECTION('',(0.,0.,-1.));
#399=DIRECTION('',(-1.,0.,0.));
#400=DIRECTION('',(0.,0.,1.));
#401=DIRECTION('',(1.,0.,0.));
#402=DIRECTION('',(0.,0.,1.));
#403=DIRECTION('',(1.,0.,0.));
#404=DIRECTION('',(0.,0.,-1.));
#405=DIRECTION('',(-1.,0.,0.));
#406=DIRECTION('',(0.,0.,1.));
#407=DIRECTION('',(1.,0.,0.));
#408=DIRECTION('',(0.,0.,1.));
#409=DIRECTION('',(1.,0.,0.));
#410=DIRECTION('',(0.,0.,1.));
#411=DIRECTION('',(1.,0.,0.));
#412=DIRECTION('',(0.,0.,1.));
#413=DIRECTION('',(1.,0.,0.));
#414=DIRECTION('',(0.,0.,1.));
#415=DIRECTION('',(1.,0.,0.));
#416=DIRECTION('',(0.,0.,1.));
#417=DIRECTION('',(1.,0.,0.));
#418=DIRECTION('',(0.,0.,1.));
#419=DIRECTION('',(1.,0.,0.));
#420=CARTESIAN_POINT('',(0.,0.,0.));
#421=CARTESIAN_POINT('',(-1.73472347597681E-18,0.,0.005));
#422=CARTESIAN_POINT('',(-1.7347234759768E-18,6.12323399573677E-19,0.005));
#423=CARTESIAN_POINT('',(0.013,6.12323399573677E-19,0.005));
#424=CARTESIAN_POINT('',(-1.73472347597681E-18,0.015525,0.005));
#425=CARTESIAN_POINT('',(0.0015,0.015525,0.005));
#426=CARTESIAN_POINT('',(-0.015525,0.,0.005));
#427=CARTESIAN_POINT('',(-0.015525,0.0015,0.005));
#428=CARTESIAN_POINT('',(-1.73472347597681E-18,-0.015525,0.005));
#429=CARTESIAN_POINT('',(-0.0015,-0.015525,0.005));
#430=CARTESIAN_POINT('',(0.015525,-3.46944695195361E-18,0.005));
#431=CARTESIAN_POINT('',(0.015525,-0.0015,0.005));
#432=CARTESIAN_POINT('',(0.0145887279377012,-0.00530986272513101,0.005));
#433=CARTESIAN_POINT('',(0.0160887279377012,-0.00530986272513101,0.005));
#434=CARTESIAN_POINT('',(-0.0145887279377012,0.00530986272513101,0.005));
#435=CARTESIAN_POINT('',(-0.0130887279377012,0.00530986272513101,0.005));
#436=CARTESIAN_POINT('',(-1.73472347597681E-18,0.,0.005));
#437=CARTESIAN_POINT('',(0.02,0.,0.005));
#438=CARTESIAN_POINT('',(-1.54074395550979E-33,0.,8.67361737988404E-19));
#439=CARTESIAN_POINT('',(-1.54074395550979E-33,0.015525,8.67361737988404E-19));
#440=CARTESIAN_POINT('',(0.0015,0.015525,8.67361737988404E-19));
#441=CARTESIAN_POINT('',(-0.015525,0.,8.67361737988404E-19));
#442=CARTESIAN_POINT('',(-0.015525,0.0015,8.67361737988404E-19));
#443=CARTESIAN_POINT('',(-1.54074395550979E-33,-0.015525,8.67361737988404E-19));
#444=CARTESIAN_POINT('',(-0.0015,-0.015525,8.67361737988404E-19));
#445=CARTESIAN_POINT('',(0.015525,-3.46944695195361E-18,8.67361737988404E-19));
#446=CARTESIAN_POINT('',(0.015525,-0.0015,8.67361737988404E-19));
#447=CARTESIAN_POINT('',(-0.0145887279377012,0.00530986272513101,8.67361737988404E-19));
#448=CARTESIAN_POINT('',(-0.0162387279377012,0.00530986272513101,8.67361737988404E-19));
#449=CARTESIAN_POINT('',(0.0145887279377012,-0.00530986272513101,8.67361737988404E-19));
#450=CARTESIAN_POINT('',(0.0129387279377012,-0.00530986272513101,8.67361737988404E-19));
#451=CARTESIAN_POINT('',(-1.54074395550979E-33,0.,8.67361737988404E-19));
#452=CARTESIAN_POINT('',(0.02,0.,8.67361737988404E-19));
#453=CARTESIAN_POINT('',(-1.73472347597681E-18,0.,0.005));
#454=CARTESIAN_POINT('',(0.015525,-3.46944695195361E-18,-0.02));
#455=CARTESIAN_POINT('',(3.85185988877447E-34,-0.015525,-0.02));
#456=CARTESIAN_POINT('',(-0.015525,0.,-0.02));
#457=CARTESIAN_POINT('',(3.85185988877447E-34,0.015525,-0.02));
#458=CARTESIAN_POINT('',(0.0145887279377012,-0.00530986272513101,0.005));
#459=CARTESIAN_POINT('',(0.0145887279377012,-0.00530986272513101,0.0057));
#460=CARTESIAN_POINT('',(0.0153887279377012,-0.00530986272513101,0.0057));
#461=CARTESIAN_POINT('',(-1.97758476261356E-18,0.,0.0057));
#462=CARTESIAN_POINT('',(-0.0145887279377012,0.00530986272513101,0.005));
#463=CARTESIAN_POINT('',(-0.0145887279377012,0.00530986272513101,0.0057));
#464=CARTESIAN_POINT('',(-0.0137887279377012,0.00530986272513101,0.0057));
#465=CARTESIAN_POINT('',(-1.97758476261356E-18,0.,0.0057));
#466=CARTESIAN_POINT('',(-0.0145887279377012,0.00530986272513101,8.67361737988404E-19));
#467=CARTESIAN_POINT('',(-0.0145887279377012,0.00530986272513101,0.001));
#468=CARTESIAN_POINT('',(-0.0152387279377012,0.00530986272513101,0.001));
#469=CARTESIAN_POINT('',(-3.46944695195363E-19,-0.058,0.001));
#470=CARTESIAN_POINT('',(0.0145887279377012,-0.00530986272513101,8.67361737988404E-19));
#471=CARTESIAN_POINT('',(0.0145887279377012,-0.00530986272513101,0.001));
#472=CARTESIAN_POINT('',(0.0139387279377012,-0.00530986272513101,0.001));
#473=CARTESIAN_POINT('',(-3.46944695195363E-19,-0.058,0.001));
#474=CARTESIAN_POINT('',(-1.7347234759768E-18,3.06161699786838E-19,0.105));
#475=CARTESIAN_POINT('',(-1.7347234759768E-18,3.06161699786838E-19,0.008));
#476=CARTESIAN_POINT('',(0.005,3.06161699786838E-19,0.008));
#477=CARTESIAN_POINT('',(-1.7347234759768E-18,3.06161699786838E-19,0.105));
#478=CARTESIAN_POINT('',(0.005,3.06161699786838E-19,0.105));
#479=CARTESIAN_POINT('',(-1.7347234759768E-18,6.12323399573677E-19,0.105));
#480=CARTESIAN_POINT('',(-1.7347234759768E-18,6.12323399573677E-19,0.008));
#481=CARTESIAN_POINT('',(0.01,6.12323399573677E-19,0.008));
#482=CARTESIAN_POINT('',(-1.7347234759768E-18,6.12323399573677E-19,0.105));
#483=CARTESIAN_POINT('',(0.01,6.12323399573677E-19,0.105));
#484=CARTESIAN_POINT('',(0.,0.,0.105));
#485=CARTESIAN_POINT('',(-1.73472347597681E-18,0.,0.005));
#486=CARTESIAN_POINT('',(-1.7347234759768E-18,3.06161699786838E-19,0.005));
#487=CARTESIAN_POINT('',(0.002,3.06161699786838E-19,0.005));
#488=CARTESIAN_POINT('',(-1.7347234759768E-18,3.06161699786838E-19,0.008));
#489=CARTESIAN_POINT('',(-1.7347234759768E-18,6.12323399573677E-19,0.008));
#490=MECHANICAL_DESIGN_GEOMETRIC_PRESENTATION_REPRESENTATION('',(#271),
#491);
#491=(
GEOMETRIC_REPRESENTATION_CONTEXT(3)
GLOBAL_UNCERTAINTY_ASSIGNED_CONTEXT((#492))
GLOBAL_UNIT_ASSIGNED_CONTEXT((#495,#494,#493))
REPRESENTATION_CONTEXT('handle-body','TOP_LEVEL_ASSEMBLY_PART')
);
#492=UNCERTAINTY_MEASURE_WITH_UNIT(LENGTH_MEASURE(1.E-8),#495,
'DISTANCE_ACCURACY_VALUE','Maximum Tolerance applied to model');
#493=(
NAMED_UNIT(*)
SI_UNIT($,.STERADIAN.)
SOLID_ANGLE_UNIT()
);
#494=(
NAMED_UNIT(*)
PLANE_ANGLE_UNIT()
SI_UNIT($,.RADIAN.)
);
#495=(
LENGTH_UNIT()
NAMED_UNIT(*)
SI_UNIT($,.METRE.)
);
#496=PRODUCT_DEFINITION_SHAPE('','',#497);
#497=PRODUCT_DEFINITION('','',#499,#498);
#498=PRODUCT_DEFINITION_CONTEXT('',#505,'design');
#499=PRODUCT_DEFINITION_FORMATION_WITH_SPECIFIED_SOURCE('','',#501,
 .NOT_KNOWN.);
#500=PRODUCT_RELATED_PRODUCT_CATEGORY('','',(#501));
#501=PRODUCT('handle-body','handle-body','handle-body',(#503));
#502=PRODUCT_CATEGORY('','');
#503=PRODUCT_CONTEXT('',#505,'mechanical');
#504=APPLICATION_PROTOCOL_DEFINITION('international standard',
'ap242_managed_model_based_3d_engineering',2020,#505);
#505=APPLICATION_CONTEXT('managed model based 3d engineering');
ENDSEC;
END-ISO-10303-21;
