ISO-10303-21;
HEADER;
/* Generated by software containing ST-Developer
 * from STEP Tools, Inc. (www.steptools.com) 
 */
/* OPTION: using custom renumber hook */

FILE_DESCRIPTION(
/* description */ ('STEP AP242 Edition 2',
'CAx-IF Rec.Pracs.---Representation and Presentation of Product Manufa
cturing Information (PMI)---4.0---2014-10-13',
'CAx-IF Rec.Pracs.---3D Tessellated Geometry---0.4---2014-09-14','2;1',
'CAx-IF Rec.Pracs.---User Defined Attributes---1.5---2016-08-15'),
/* implementation_level */ '2;1');

FILE_NAME(
/* name */ 'Part Studio 1 - handle_base',
/* time_stamp */ '2026-08-24T08:34:59Z',
/* author */ (''),
/* organization */ (''),
/* preprocessor_version */ 'ST-DEVELOPER v20',
/* originating_system */ 'ONSHAPE BY PTC INC, 1.219',
/* authorisation */ '  ');

FILE_SCHEMA (('AP242_MANAGED_MODEL_BASED_3D_ENGINEERING_MIM_LF { 1 0 10303 442 3 1 4 }'));
ENDSEC;

DATA;
#10=SHAPE_REPRESENTATION_RELATIONSHIP('','',#596,#11);
#11=ADVANCED_BREP_SHAPE_REPRESENTATION('',(#594),#1021);
#12=CONICAL_SURFACE('',#650,0.0015,0.785398163397448);
#13=CONICAL_SURFACE('',#653,0.0015,0.785398163397448);
#14=CONICAL_SURFACE('',#656,0.00165,0.785398163397448);
#15=CONICAL_SURFACE('',#659,0.00165,0.785398163397448);
#16=B_SPLINE_CURVE_WITH_KNOTS('',3,(#970,#971,#972,#973,#974,#975),
 .UNSPECIFIED.,.F.,.F.,(4,1,1,4),(3.19867204157556E-17,0.00188401712125521,
0.00282602568188279,0.00376803424251038),.UNSPECIFIED.);
#17=B_SPLINE_CURVE_WITH_KNOTS('',3,(#977,#978,#979,#980,#981,#982),
 .UNSPECIFIED.,.F.,.F.,(4,1,1,4),(0.,0.000942181049142701,0.0018843620982854,
0.0037687241965708),.UNSPECIFIED.);
#18=CYLINDRICAL_SURFACE('',#640,0.02);
#19=CYLINDRICAL_SURFACE('',#641,0.02);
#20=CYLINDRICAL_SURFACE('',#642,0.002);
#21=CYLINDRICAL_SURFACE('',#643,0.002);
#22=CYLINDRICAL_SURFACE('',#644,0.02);
#23=CYLINDRICAL_SURFACE('',#645,0.0015);
#24=CYLINDRICAL_SURFACE('',#646,0.0015);
#25=CYLINDRICAL_SURFACE('',#647,0.0015);
#26=CYLINDRICAL_SURFACE('',#648,0.0015);
#27=CYLINDRICAL_SURFACE('',#649,0.0075);
#28=CYLINDRICAL_SURFACE('',#662,0.02);
#29=CYLINDRICAL_SURFACE('',#664,0.0025);
#30=CYLINDRICAL_SURFACE('',#666,0.0015);
#31=CYLINDRICAL_SURFACE('',#667,0.0015);
#32=CYLINDRICAL_SURFACE('',#668,0.02);
#33=CYLINDRICAL_SURFACE('',#669,0.0015);
#34=CYLINDRICAL_SURFACE('',#670,0.0015);
#35=CIRCLE('',#599,0.0015);
#36=CIRCLE('',#601,0.02);
#37=CIRCLE('',#602,0.0025);
#38=CIRCLE('',#603,0.02);
#39=CIRCLE('',#604,0.0015);
#40=CIRCLE('',#605,0.0015);
#41=CIRCLE('',#606,0.0015);
#42=CIRCLE('',#607,0.0015);
#43=CIRCLE('',#609,0.002);
#44=CIRCLE('',#611,0.02);
#45=CIRCLE('',#612,0.0015);
#46=CIRCLE('',#613,0.0015);
#47=CIRCLE('',#614,0.0015);
#48=CIRCLE('',#615,0.0015);
#49=CIRCLE('',#616,0.0075);
#50=CIRCLE('',#617,0.0015);
#51=CIRCLE('',#618,0.0015);
#52=CIRCLE('',#620,0.002);
#53=CIRCLE('',#622,0.02);
#54=CIRCLE('',#623,0.0025);
#55=CIRCLE('',#624,0.02);
#56=CIRCLE('',#625,0.0015);
#57=CIRCLE('',#626,0.0015);
#58=CIRCLE('',#627,0.0015);
#59=CIRCLE('',#628,0.0015);
#60=CIRCLE('',#630,0.02);
#61=CIRCLE('',#631,0.0015);
#62=CIRCLE('',#632,0.02);
#63=CIRCLE('',#633,0.02);
#64=CIRCLE('',#634,0.0015);
#65=CIRCLE('',#635,0.0015);
#66=CIRCLE('',#636,0.0015);
#67=CIRCLE('',#637,0.0075);
#68=CIRCLE('',#638,0.00165);
#69=CIRCLE('',#639,0.00165);
#70=CIRCLE('',#651,0.0008);
#71=CIRCLE('',#654,0.0008);
#72=CIRCLE('',#657,0.00065);
#73=CIRCLE('',#660,0.00065);
#74=ORIENTED_EDGE('',*,*,#216,.T.);
#75=ORIENTED_EDGE('',*,*,#217,.T.);
#76=ORIENTED_EDGE('',*,*,#218,.F.);
#77=ORIENTED_EDGE('',*,*,#219,.T.);
#78=ORIENTED_EDGE('',*,*,#220,.T.);
#79=ORIENTED_EDGE('',*,*,#221,.F.);
#80=ORIENTED_EDGE('',*,*,#222,.F.);
#81=ORIENTED_EDGE('',*,*,#223,.F.);
#82=ORIENTED_EDGE('',*,*,#224,.T.);
#83=ORIENTED_EDGE('',*,*,#225,.T.);
#84=ORIENTED_EDGE('',*,*,#226,.F.);
#85=ORIENTED_EDGE('',*,*,#227,.F.);
#86=ORIENTED_EDGE('',*,*,#228,.T.);
#87=ORIENTED_EDGE('',*,*,#229,.T.);
#88=ORIENTED_EDGE('',*,*,#230,.F.);
#89=ORIENTED_EDGE('',*,*,#216,.F.);
#90=ORIENTED_EDGE('',*,*,#231,.T.);
#91=ORIENTED_EDGE('',*,*,#232,.T.);
#92=ORIENTED_EDGE('',*,*,#233,.T.);
#93=ORIENTED_EDGE('',*,*,#234,.T.);
#94=ORIENTED_EDGE('',*,*,#235,.F.);
#95=ORIENTED_EDGE('',*,*,#236,.F.);
#96=ORIENTED_EDGE('',*,*,#221,.T.);
#97=ORIENTED_EDGE('',*,*,#237,.T.);
#98=ORIENTED_EDGE('',*,*,#238,.F.);
#99=ORIENTED_EDGE('',*,*,#239,.T.);
#100=ORIENTED_EDGE('',*,*,#240,.T.);
#101=ORIENTED_EDGE('',*,*,#241,.T.);
#102=ORIENTED_EDGE('',*,*,#242,.T.);
#103=ORIENTED_EDGE('',*,*,#243,.F.);
#104=ORIENTED_EDGE('',*,*,#240,.F.);
#105=ORIENTED_EDGE('',*,*,#244,.F.);
#106=ORIENTED_EDGE('',*,*,#245,.F.);
#107=ORIENTED_EDGE('',*,*,#246,.F.);
#108=ORIENTED_EDGE('',*,*,#247,.F.);
#109=ORIENTED_EDGE('',*,*,#248,.F.);
#110=ORIENTED_EDGE('',*,*,#249,.F.);
#111=ORIENTED_EDGE('',*,*,#250,.F.);
#112=ORIENTED_EDGE('',*,*,#251,.F.);
#113=ORIENTED_EDGE('',*,*,#242,.F.);
#114=ORIENTED_EDGE('',*,*,#252,.T.);
#115=ORIENTED_EDGE('',*,*,#253,.T.);
#116=ORIENTED_EDGE('',*,*,#254,.T.);
#117=ORIENTED_EDGE('',*,*,#227,.T.);
#118=ORIENTED_EDGE('',*,*,#255,.T.);
#119=ORIENTED_EDGE('',*,*,#243,.T.);
#120=ORIENTED_EDGE('',*,*,#251,.T.);
#121=ORIENTED_EDGE('',*,*,#256,.T.);
#122=ORIENTED_EDGE('',*,*,#257,.F.);
#123=ORIENTED_EDGE('',*,*,#258,.F.);
#124=ORIENTED_EDGE('',*,*,#259,.T.);
#125=ORIENTED_EDGE('',*,*,#260,.T.);
#126=ORIENTED_EDGE('',*,*,#235,.T.);
#127=ORIENTED_EDGE('',*,*,#261,.F.);
#128=ORIENTED_EDGE('',*,*,#262,.F.);
#129=ORIENTED_EDGE('',*,*,#263,.F.);
#130=ORIENTED_EDGE('',*,*,#264,.F.);
#131=ORIENTED_EDGE('',*,*,#238,.T.);
#132=ORIENTED_EDGE('',*,*,#265,.T.);
#133=ORIENTED_EDGE('',*,*,#266,.F.);
#134=ORIENTED_EDGE('',*,*,#218,.T.);
#135=ORIENTED_EDGE('',*,*,#267,.T.);
#136=ORIENTED_EDGE('',*,*,#230,.T.);
#137=ORIENTED_EDGE('',*,*,#268,.F.);
#138=ORIENTED_EDGE('',*,*,#269,.T.);
#139=ORIENTED_EDGE('',*,*,#253,.F.);
#140=ORIENTED_EDGE('',*,*,#270,.F.);
#141=ORIENTED_EDGE('',*,*,#271,.T.);
#142=ORIENTED_EDGE('',*,*,#272,.T.);
#143=ORIENTED_EDGE('',*,*,#273,.T.);
#144=ORIENTED_EDGE('',*,*,#274,.T.);
#145=ORIENTED_EDGE('',*,*,#275,.F.);
#146=ORIENTED_EDGE('',*,*,#276,.F.);
#147=ORIENTED_EDGE('',*,*,#219,.F.);
#148=ORIENTED_EDGE('',*,*,#266,.T.);
#149=ORIENTED_EDGE('',*,*,#277,.T.);
#150=ORIENTED_EDGE('',*,*,#278,.T.);
#151=ORIENTED_EDGE('',*,*,#268,.T.);
#152=ORIENTED_EDGE('',*,*,#229,.F.);
#153=ORIENTED_EDGE('',*,*,#237,.F.);
#154=ORIENTED_EDGE('',*,*,#220,.F.);
#155=ORIENTED_EDGE('',*,*,#277,.F.);
#156=ORIENTED_EDGE('',*,*,#265,.F.);
#157=ORIENTED_EDGE('',*,*,#278,.F.);
#158=ORIENTED_EDGE('',*,*,#228,.F.);
#159=ORIENTED_EDGE('',*,*,#254,.F.);
#160=ORIENTED_EDGE('',*,*,#269,.F.);
#161=ORIENTED_EDGE('',*,*,#239,.F.);
#162=ORIENTED_EDGE('',*,*,#270,.T.);
#163=ORIENTED_EDGE('',*,*,#252,.F.);
#164=ORIENTED_EDGE('',*,*,#241,.F.);
#165=ORIENTED_EDGE('',*,*,#247,.T.);
#166=ORIENTED_EDGE('',*,*,#273,.F.);
#167=ORIENTED_EDGE('',*,*,#246,.T.);
#168=ORIENTED_EDGE('',*,*,#272,.F.);
#169=ORIENTED_EDGE('',*,*,#245,.T.);
#170=ORIENTED_EDGE('',*,*,#271,.F.);
#171=ORIENTED_EDGE('',*,*,#244,.T.);
#172=ORIENTED_EDGE('',*,*,#267,.F.);
#173=ORIENTED_EDGE('',*,*,#217,.F.);
#174=ORIENTED_EDGE('',*,*,#248,.T.);
#175=ORIENTED_EDGE('',*,*,#274,.F.);
#176=ORIENTED_EDGE('',*,*,#279,.F.);
#177=ORIENTED_EDGE('',*,*,#249,.T.);
#178=ORIENTED_EDGE('',*,*,#279,.T.);
#179=ORIENTED_EDGE('',*,*,#280,.F.);
#180=ORIENTED_EDGE('',*,*,#250,.T.);
#181=ORIENTED_EDGE('',*,*,#280,.T.);
#182=ORIENTED_EDGE('',*,*,#281,.F.);
#183=ORIENTED_EDGE('',*,*,#275,.T.);
#184=ORIENTED_EDGE('',*,*,#281,.T.);
#185=ORIENTED_EDGE('',*,*,#282,.F.);
#186=ORIENTED_EDGE('',*,*,#276,.T.);
#187=ORIENTED_EDGE('',*,*,#282,.T.);
#188=ORIENTED_EDGE('',*,*,#255,.F.);
#189=ORIENTED_EDGE('',*,*,#226,.T.);
#190=ORIENTED_EDGE('',*,*,#283,.T.);
#191=ORIENTED_EDGE('',*,*,#256,.F.);
#192=ORIENTED_EDGE('',*,*,#257,.T.);
#193=ORIENTED_EDGE('',*,*,#283,.F.);
#194=ORIENTED_EDGE('',*,*,#225,.F.);
#195=ORIENTED_EDGE('',*,*,#284,.T.);
#196=ORIENTED_EDGE('',*,*,#258,.T.);
#197=ORIENTED_EDGE('',*,*,#284,.F.);
#198=ORIENTED_EDGE('',*,*,#224,.F.);
#199=ORIENTED_EDGE('',*,*,#285,.T.);
#200=ORIENTED_EDGE('',*,*,#259,.F.);
#201=ORIENTED_EDGE('',*,*,#285,.F.);
#202=ORIENTED_EDGE('',*,*,#223,.T.);
#203=ORIENTED_EDGE('',*,*,#286,.T.);
#204=ORIENTED_EDGE('',*,*,#233,.F.);
#205=ORIENTED_EDGE('',*,*,#263,.T.);
#206=ORIENTED_EDGE('',*,*,#232,.F.);
#207=ORIENTED_EDGE('',*,*,#262,.T.);
#208=ORIENTED_EDGE('',*,*,#222,.T.);
#209=ORIENTED_EDGE('',*,*,#236,.T.);
#210=ORIENTED_EDGE('',*,*,#260,.F.);
#211=ORIENTED_EDGE('',*,*,#286,.F.);
#212=ORIENTED_EDGE('',*,*,#231,.F.);
#213=ORIENTED_EDGE('',*,*,#261,.T.);
#214=ORIENTED_EDGE('',*,*,#234,.F.);
#215=ORIENTED_EDGE('',*,*,#264,.T.);
#216=EDGE_CURVE('',#287,#288,#342,.T.);
#217=EDGE_CURVE('',#288,#287,#35,.T.);
#218=EDGE_CURVE('',#289,#287,#343,.T.);
#219=EDGE_CURVE('',#289,#290,#344,.F.);
#220=EDGE_CURVE('',#290,#291,#345,.F.);
#221=EDGE_CURVE('',#292,#291,#346,.T.);
#222=EDGE_CURVE('',#293,#292,#36,.T.);
#223=EDGE_CURVE('',#294,#293,#347,.T.);
#224=EDGE_CURVE('',#294,#295,#37,.T.);
#225=EDGE_CURVE('',#295,#296,#348,.T.);
#226=EDGE_CURVE('',#297,#296,#38,.T.);
#227=EDGE_CURVE('',#298,#297,#349,.T.);
#228=EDGE_CURVE('',#298,#299,#350,.F.);
#229=EDGE_CURVE('',#299,#300,#351,.T.);
#230=EDGE_CURVE('',#288,#300,#352,.T.);
#231=EDGE_CURVE('',#301,#301,#39,.T.);
#232=EDGE_CURVE('',#302,#302,#40,.T.);
#233=EDGE_CURVE('',#303,#303,#41,.T.);
#234=EDGE_CURVE('',#304,#304,#42,.T.);
#235=EDGE_CURVE('',#305,#306,#353,.T.);
#236=EDGE_CURVE('',#292,#305,#354,.T.);
#237=EDGE_CURVE('',#291,#307,#43,.F.);
#238=EDGE_CURVE('',#308,#307,#355,.T.);
#239=EDGE_CURVE('',#308,#309,#356,.T.);
#240=EDGE_CURVE('',#309,#306,#357,.T.);
#241=EDGE_CURVE('',#309,#310,#44,.T.);
#242=EDGE_CURVE('',#310,#311,#358,.T.);
#243=EDGE_CURVE('',#306,#311,#359,.T.);
#244=EDGE_CURVE('',#312,#312,#45,.T.);
#245=EDGE_CURVE('',#313,#313,#46,.T.);
#246=EDGE_CURVE('',#314,#314,#47,.T.);
#247=EDGE_CURVE('',#315,#315,#48,.T.);
#248=EDGE_CURVE('',#316,#316,#49,.T.);
#249=EDGE_CURVE('',#317,#317,#50,.T.);
#250=EDGE_CURVE('',#318,#318,#51,.T.);
#251=EDGE_CURVE('',#311,#319,#360,.T.);
#252=EDGE_CURVE('',#310,#320,#361,.T.);
#253=EDGE_CURVE('',#320,#321,#362,.T.);
#254=EDGE_CURVE('',#321,#298,#52,.F.);
#255=EDGE_CURVE('',#297,#319,#363,.T.);
#256=EDGE_CURVE('',#319,#322,#53,.T.);
#257=EDGE_CURVE('',#323,#322,#364,.T.);
#258=EDGE_CURVE('',#324,#323,#54,.T.);
#259=EDGE_CURVE('',#324,#325,#365,.T.);
#260=EDGE_CURVE('',#325,#305,#55,.T.);
#261=EDGE_CURVE('',#326,#326,#56,.T.);
#262=EDGE_CURVE('',#327,#327,#57,.T.);
#263=EDGE_CURVE('',#328,#328,#58,.T.);
#264=EDGE_CURVE('',#329,#329,#59,.T.);
#265=EDGE_CURVE('',#307,#330,#366,.T.);
#266=EDGE_CURVE('',#289,#330,#60,.T.);
#267=EDGE_CURVE('',#287,#288,#61,.T.);
#268=EDGE_CURVE('',#331,#300,#62,.T.);
#269=EDGE_CURVE('',#331,#321,#367,.T.);
#270=EDGE_CURVE('',#308,#320,#63,.T.);
#271=EDGE_CURVE('',#332,#332,#64,.T.);
#272=EDGE_CURVE('',#333,#333,#65,.T.);
#273=EDGE_CURVE('',#334,#334,#66,.T.);
#274=EDGE_CURVE('',#335,#335,#67,.T.);
#275=EDGE_CURVE('',#336,#336,#68,.T.);
#276=EDGE_CURVE('',#337,#337,#69,.T.);
#277=EDGE_CURVE('',#330,#290,#16,.T.);
#278=EDGE_CURVE('',#299,#331,#17,.T.);
#279=EDGE_CURVE('',#338,#338,#70,.T.);
#280=EDGE_CURVE('',#339,#339,#71,.T.);
#281=EDGE_CURVE('',#340,#340,#72,.T.);
#282=EDGE_CURVE('',#341,#341,#73,.T.);
#283=EDGE_CURVE('',#296,#322,#368,.T.);
#284=EDGE_CURVE('',#295,#323,#369,.T.);
#285=EDGE_CURVE('',#294,#324,#370,.T.);
#286=EDGE_CURVE('',#293,#325,#371,.T.);
#287=VERTEX_POINT('',#852);
#288=VERTEX_POINT('',#853);
#289=VERTEX_POINT('',#857);
#290=VERTEX_POINT('',#859);
#291=VERTEX_POINT('',#861);
#292=VERTEX_POINT('',#863);
#293=VERTEX_POINT('',#865);
#294=VERTEX_POINT('',#867);
#295=VERTEX_POINT('',#869);
#296=VERTEX_POINT('',#871);
#297=VERTEX_POINT('',#873);
#298=VERTEX_POINT('',#875);
#299=VERTEX_POINT('',#877);
#300=VERTEX_POINT('',#879);
#301=VERTEX_POINT('',#882);
#302=VERTEX_POINT('',#884);
#303=VERTEX_POINT('',#886);
#304=VERTEX_POINT('',#888);
#305=VERTEX_POINT('',#891);
#306=VERTEX_POINT('',#892);
#307=VERTEX_POINT('',#895);
#308=VERTEX_POINT('',#897);
#309=VERTEX_POINT('',#899);
#310=VERTEX_POINT('',#903);
#311=VERTEX_POINT('',#905);
#312=VERTEX_POINT('',#908);
#313=VERTEX_POINT('',#910);
#314=VERTEX_POINT('',#912);
#315=VERTEX_POINT('',#914);
#316=VERTEX_POINT('',#916);
#317=VERTEX_POINT('',#918);
#318=VERTEX_POINT('',#920);
#319=VERTEX_POINT('',#923);
#320=VERTEX_POINT('',#925);
#321=VERTEX_POINT('',#927);
#322=VERTEX_POINT('',#932);
#323=VERTEX_POINT('',#934);
#324=VERTEX_POINT('',#936);
#325=VERTEX_POINT('',#938);
#326=VERTEX_POINT('',#941);
#327=VERTEX_POINT('',#943);
#328=VERTEX_POINT('',#945);
#329=VERTEX_POINT('',#947);
#330=VERTEX_POINT('',#950);
#331=VERTEX_POINT('',#954);
#332=VERTEX_POINT('',#958);
#333=VERTEX_POINT('',#960);
#334=VERTEX_POINT('',#962);
#335=VERTEX_POINT('',#964);
#336=VERTEX_POINT('',#966);
#337=VERTEX_POINT('',#968);
#338=VERTEX_POINT('',#993);
#339=VERTEX_POINT('',#997);
#340=VERTEX_POINT('',#1001);
#341=VERTEX_POINT('',#1005);
#342=LINE('',#851,#372);
#343=LINE('',#856,#373);
#344=LINE('',#858,#374);
#345=LINE('',#860,#375);
#346=LINE('',#862,#376);
#347=LINE('',#866,#377);
#348=LINE('',#870,#378);
#349=LINE('',#874,#379);
#350=LINE('',#876,#380);
#351=LINE('',#878,#381);
#352=LINE('',#880,#382);
#353=LINE('',#890,#383);
#354=LINE('',#893,#384);
#355=LINE('',#896,#385);
#356=LINE('',#898,#386);
#357=LINE('',#900,#387);
#358=LINE('',#904,#388);
#359=LINE('',#906,#389);
#360=LINE('',#922,#390);
#361=LINE('',#924,#391);
#362=LINE('',#926,#392);
#363=LINE('',#929,#393);
#364=LINE('',#933,#394);
#365=LINE('',#937,#395);
#366=LINE('',#949,#396);
#367=LINE('',#955,#397);
#368=LINE('',#1008,#398);
#369=LINE('',#1010,#399);
#370=LINE('',#1012,#400);
#371=LINE('',#1014,#401);
#372=VECTOR('',#675,1.);
#373=VECTOR('',#680,1.);
#374=VECTOR('',#681,1.);
#375=VECTOR('',#682,1.);
#376=VECTOR('',#683,1.);
#377=VECTOR('',#686,1.);
#378=VECTOR('',#689,1.);
#379=VECTOR('',#692,1.);
#380=VECTOR('',#693,1.);
#381=VECTOR('',#694,1.);
#382=VECTOR('',#695,1.);
#383=VECTOR('',#706,1.);
#384=VECTOR('',#707,1.);
#385=VECTOR('',#710,1.);
#386=VECTOR('',#711,1.);
#387=VECTOR('',#712,1.);
#388=VECTOR('',#717,1.);
#389=VECTOR('',#718,1.);
#390=VECTOR('',#735,1.);
#391=VECTOR('',#736,1.);
#392=VECTOR('',#737,1.);
#393=VECTOR('',#740,1.);
#394=VECTOR('',#745,1.);
#395=VECTOR('',#748,1.);
#396=VECTOR('',#761,1.);
#397=VECTOR('',#768,1.);
#398=VECTOR('',#829,1.);
#399=VECTOR('',#832,1.);
#400=VECTOR('',#835,1.);
#401=VECTOR('',#838,1.);
#402=EDGE_LOOP('',(#74,#75));
#403=EDGE_LOOP('',(#76,#77,#78,#79,#80,#81,#82,#83,#84,#85,#86,#87,#88,
#89));
#404=EDGE_LOOP('',(#90));
#405=EDGE_LOOP('',(#91));
#406=EDGE_LOOP('',(#92));
#407=EDGE_LOOP('',(#93));
#408=EDGE_LOOP('',(#94,#95,#96,#97,#98,#99,#100));
#409=EDGE_LOOP('',(#101,#102,#103,#104));
#410=EDGE_LOOP('',(#105));
#411=EDGE_LOOP('',(#106));
#412=EDGE_LOOP('',(#107));
#413=EDGE_LOOP('',(#108));
#414=EDGE_LOOP('',(#109));
#415=EDGE_LOOP('',(#110));
#416=EDGE_LOOP('',(#111));
#417=EDGE_LOOP('',(#112,#113,#114,#115,#116,#117,#118));
#418=EDGE_LOOP('',(#119,#120,#121,#122,#123,#124,#125,#126));
#419=EDGE_LOOP('',(#127));
#420=EDGE_LOOP('',(#128));
#421=EDGE_LOOP('',(#129));
#422=EDGE_LOOP('',(#130));
#423=EDGE_LOOP('',(#131,#132,#133,#134,#135,#136,#137,#138,#139,#140));
#424=EDGE_LOOP('',(#141));
#425=EDGE_LOOP('',(#142));
#426=EDGE_LOOP('',(#143));
#427=EDGE_LOOP('',(#144));
#428=EDGE_LOOP('',(#145));
#429=EDGE_LOOP('',(#146));
#430=EDGE_LOOP('',(#147,#148,#149));
#431=EDGE_LOOP('',(#150,#151,#152));
#432=EDGE_LOOP('',(#153,#154,#155,#156));
#433=EDGE_LOOP('',(#157,#158,#159,#160));
#434=EDGE_LOOP('',(#161,#162,#163,#164));
#435=EDGE_LOOP('',(#165));
#436=EDGE_LOOP('',(#166));
#437=EDGE_LOOP('',(#167));
#438=EDGE_LOOP('',(#168));
#439=EDGE_LOOP('',(#169));
#440=EDGE_LOOP('',(#170));
#441=EDGE_LOOP('',(#171));
#442=EDGE_LOOP('',(#172,#173));
#443=EDGE_LOOP('',(#174));
#444=EDGE_LOOP('',(#175));
#445=EDGE_LOOP('',(#176));
#446=EDGE_LOOP('',(#177));
#447=EDGE_LOOP('',(#178));
#448=EDGE_LOOP('',(#179));
#449=EDGE_LOOP('',(#180));
#450=EDGE_LOOP('',(#181));
#451=EDGE_LOOP('',(#182));
#452=EDGE_LOOP('',(#183));
#453=EDGE_LOOP('',(#184));
#454=EDGE_LOOP('',(#185));
#455=EDGE_LOOP('',(#186));
#456=EDGE_LOOP('',(#187));
#457=EDGE_LOOP('',(#188,#189,#190,#191));
#458=EDGE_LOOP('',(#192,#193,#194,#195));
#459=EDGE_LOOP('',(#196,#197,#198,#199));
#460=EDGE_LOOP('',(#200,#201,#202,#203));
#461=EDGE_LOOP('',(#204));
#462=EDGE_LOOP('',(#205));
#463=EDGE_LOOP('',(#206));
#464=EDGE_LOOP('',(#207));
#465=EDGE_LOOP('',(#208,#209,#210,#211));
#466=EDGE_LOOP('',(#212));
#467=EDGE_LOOP('',(#213));
#468=EDGE_LOOP('',(#214));
#469=EDGE_LOOP('',(#215));
#470=FACE_BOUND('',#402,.T.);
#471=FACE_BOUND('',#403,.T.);
#472=FACE_BOUND('',#404,.T.);
#473=FACE_BOUND('',#405,.T.);
#474=FACE_BOUND('',#406,.T.);
#475=FACE_BOUND('',#407,.T.);
#476=FACE_BOUND('',#408,.T.);
#477=FACE_BOUND('',#409,.T.);
#478=FACE_BOUND('',#410,.T.);
#479=FACE_BOUND('',#411,.T.);
#480=FACE_BOUND('',#412,.T.);
#481=FACE_BOUND('',#413,.T.);
#482=FACE_BOUND('',#414,.T.);
#483=FACE_BOUND('',#415,.T.);
#484=FACE_BOUND('',#416,.T.);
#485=FACE_BOUND('',#417,.T.);
#486=FACE_BOUND('',#418,.T.);
#487=FACE_BOUND('',#419,.T.);
#488=FACE_BOUND('',#420,.T.);
#489=FACE_BOUND('',#421,.T.);
#490=FACE_BOUND('',#422,.T.);
#491=FACE_BOUND('',#423,.T.);
#492=FACE_BOUND('',#424,.T.);
#493=FACE_BOUND('',#425,.T.);
#494=FACE_BOUND('',#426,.T.);
#495=FACE_BOUND('',#427,.T.);
#496=FACE_BOUND('',#428,.T.);
#497=FACE_BOUND('',#429,.T.);
#498=FACE_BOUND('',#430,.T.);
#499=FACE_BOUND('',#431,.T.);
#500=FACE_BOUND('',#432,.T.);
#501=FACE_BOUND('',#433,.T.);
#502=FACE_BOUND('',#434,.T.);
#503=FACE_BOUND('',#435,.T.);
#504=FACE_BOUND('',#436,.T.);
#505=FACE_BOUND('',#437,.T.);
#506=FACE_BOUND('',#438,.T.);
#507=FACE_BOUND('',#439,.T.);
#508=FACE_BOUND('',#440,.T.);
#509=FACE_BOUND('',#441,.T.);
#510=FACE_BOUND('',#442,.T.);
#511=FACE_BOUND('',#443,.T.);
#512=FACE_BOUND('',#444,.T.);
#513=FACE_BOUND('',#445,.T.);
#514=FACE_BOUND('',#446,.T.);
#515=FACE_BOUND('',#447,.T.);
#516=FACE_BOUND('',#448,.T.);
#517=FACE_BOUND('',#449,.T.);
#518=FACE_BOUND('',#450,.T.);
#519=FACE_BOUND('',#451,.T.);
#520=FACE_BOUND('',#452,.T.);
#521=FACE_BOUND('',#453,.T.);
#522=FACE_BOUND('',#454,.T.);
#523=FACE_BOUND('',#455,.T.);
#524=FACE_BOUND('',#456,.T.);
#525=FACE_BOUND('',#457,.T.);
#526=FACE_BOUND('',#458,.T.);
#527=FACE_BOUND('',#459,.T.);
#528=FACE_BOUND('',#460,.T.);
#529=FACE_BOUND('',#461,.T.);
#530=FACE_BOUND('',#462,.T.);
#531=FACE_BOUND('',#463,.T.);
#532=FACE_BOUND('',#464,.T.);
#533=FACE_BOUND('',#465,.T.);
#534=FACE_BOUND('',#466,.T.);
#535=FACE_BOUND('',#467,.T.);
#536=FACE_BOUND('',#468,.T.);
#537=FACE_BOUND('',#469,.T.);
#538=PLANE('',#598);
#539=PLANE('',#600);
#540=PLANE('',#608);
#541=PLANE('',#610);
#542=PLANE('',#619);
#543=PLANE('',#621);
#544=PLANE('',#629);
#545=PLANE('',#652);
#546=PLANE('',#655);
#547=PLANE('',#658);
#548=PLANE('',#661);
#549=PLANE('',#663);
#550=PLANE('',#665);
#551=ADVANCED_FACE('',(#470),#538,.T.);
#552=ADVANCED_FACE('',(#471,#472,#473,#474,#475),#539,.F.);
#553=ADVANCED_FACE('',(#476),#540,.T.);
#554=ADVANCED_FACE('',(#477,#478,#479,#480,#481,#482,#483,#484),#541,.T.);
#555=ADVANCED_FACE('',(#485),#542,.T.);
#556=ADVANCED_FACE('',(#486,#487,#488,#489,#490),#543,.T.);
#557=ADVANCED_FACE('',(#491,#492,#493,#494,#495,#496,#497),#544,.F.);
#558=ADVANCED_FACE('',(#498),#18,.F.);
#559=ADVANCED_FACE('',(#499),#19,.F.);
#560=ADVANCED_FACE('',(#500),#20,.F.);
#561=ADVANCED_FACE('',(#501),#21,.F.);
#562=ADVANCED_FACE('',(#502),#22,.T.);
#563=ADVANCED_FACE('',(#503,#504),#23,.F.);
#564=ADVANCED_FACE('',(#505,#506),#24,.F.);
#565=ADVANCED_FACE('',(#507,#508),#25,.F.);
#566=ADVANCED_FACE('',(#509,#510),#26,.F.);
#567=ADVANCED_FACE('',(#511,#512),#27,.F.);
#568=ADVANCED_FACE('',(#513,#514),#12,.T.);
#569=ADVANCED_FACE('',(#515),#545,.T.);
#570=ADVANCED_FACE('',(#516,#517),#13,.T.);
#571=ADVANCED_FACE('',(#518),#546,.T.);
#572=ADVANCED_FACE('',(#519,#520),#14,.F.);
#573=ADVANCED_FACE('',(#521),#547,.T.);
#574=ADVANCED_FACE('',(#522,#523),#15,.F.);
#575=ADVANCED_FACE('',(#524),#548,.T.);
#576=ADVANCED_FACE('',(#525),#28,.T.);
#577=ADVANCED_FACE('',(#526),#549,.F.);
#578=ADVANCED_FACE('',(#527),#29,.F.);
#579=ADVANCED_FACE('',(#528),#550,.T.);
#580=ADVANCED_FACE('',(#529,#530),#30,.F.);
#581=ADVANCED_FACE('',(#531,#532),#31,.F.);
#582=ADVANCED_FACE('',(#533),#32,.T.);
#583=ADVANCED_FACE('',(#534,#535),#33,.F.);
#584=ADVANCED_FACE('',(#536,#537),#34,.F.);
#585=CLOSED_SHELL('',(#551,#552,#553,#554,#555,#556,#557,#558,#559,#560,
#561,#562,#563,#564,#565,#566,#567,#568,#569,#570,#571,#572,#573,#574,#575,
#576,#577,#578,#579,#580,#581,#582,#583,#584));
#586=STYLED_ITEM('',(#587),#594);
#587=PRESENTATION_STYLE_ASSIGNMENT((#588));
#588=SURFACE_STYLE_USAGE(.BOTH.,#589);
#589=SURFACE_SIDE_STYLE('',(#590));
#590=SURFACE_STYLE_FILL_AREA(#591);
#591=FILL_AREA_STYLE('',(#592));
#592=FILL_AREA_STYLE_COLOUR('',#593);
#593=COLOUR_RGB('',0.768627450980392,0.886274509803922,0.952941176470588);
#594=MANIFOLD_SOLID_BREP('handle_base',#585);
#595=SHAPE_DEFINITION_REPRESENTATION(#1026,#596);
#596=SHAPE_REPRESENTATION('handle_base',(#597),#1021);
#597=AXIS2_PLACEMENT_3D('',#849,#671,#672);
#598=AXIS2_PLACEMENT_3D('',#850,#673,#674);
#599=AXIS2_PLACEMENT_3D('',#854,#676,#677);
#600=AXIS2_PLACEMENT_3D('',#855,#678,#679);
#601=AXIS2_PLACEMENT_3D('',#864,#684,#685);
#602=AXIS2_PLACEMENT_3D('',#868,#687,#688);
#603=AXIS2_PLACEMENT_3D('',#872,#690,#691);
#604=AXIS2_PLACEMENT_3D('',#881,#696,#697);
#605=AXIS2_PLACEMENT_3D('',#883,#698,#699);
#606=AXIS2_PLACEMENT_3D('',#885,#700,#701);
#607=AXIS2_PLACEMENT_3D('',#887,#702,#703);
#608=AXIS2_PLACEMENT_3D('',#889,#704,#705);
#609=AXIS2_PLACEMENT_3D('',#894,#708,#709);
#610=AXIS2_PLACEMENT_3D('',#901,#713,#714);
#611=AXIS2_PLACEMENT_3D('',#902,#715,#716);
#612=AXIS2_PLACEMENT_3D('',#907,#719,#720);
#613=AXIS2_PLACEMENT_3D('',#909,#721,#722);
#614=AXIS2_PLACEMENT_3D('',#911,#723,#724);
#615=AXIS2_PLACEMENT_3D('',#913,#725,#726);
#616=AXIS2_PLACEMENT_3D('',#915,#727,#728);
#617=AXIS2_PLACEMENT_3D('',#917,#729,#730);
#618=AXIS2_PLACEMENT_3D('',#919,#731,#732);
#619=AXIS2_PLACEMENT_3D('',#921,#733,#734);
#620=AXIS2_PLACEMENT_3D('',#928,#738,#739);
#621=AXIS2_PLACEMENT_3D('',#930,#741,#742);
#622=AXIS2_PLACEMENT_3D('',#931,#743,#744);
#623=AXIS2_PLACEMENT_3D('',#935,#746,#747);
#624=AXIS2_PLACEMENT_3D('',#939,#749,#750);
#625=AXIS2_PLACEMENT_3D('',#940,#751,#752);
#626=AXIS2_PLACEMENT_3D('',#942,#753,#754);
#627=AXIS2_PLACEMENT_3D('',#944,#755,#756);
#628=AXIS2_PLACEMENT_3D('',#946,#757,#758);
#629=AXIS2_PLACEMENT_3D('',#948,#759,#760);
#630=AXIS2_PLACEMENT_3D('',#951,#762,#763);
#631=AXIS2_PLACEMENT_3D('',#952,#764,#765);
#632=AXIS2_PLACEMENT_3D('',#953,#766,#767);
#633=AXIS2_PLACEMENT_3D('',#956,#769,#770);
#634=AXIS2_PLACEMENT_3D('',#957,#771,#772);
#635=AXIS2_PLACEMENT_3D('',#959,#773,#774);
#636=AXIS2_PLACEMENT_3D('',#961,#775,#776);
#637=AXIS2_PLACEMENT_3D('',#963,#777,#778);
#638=AXIS2_PLACEMENT_3D('',#965,#779,#780);
#639=AXIS2_PLACEMENT_3D('',#967,#781,#782);
#640=AXIS2_PLACEMENT_3D('',#969,#783,#784);
#641=AXIS2_PLACEMENT_3D('',#976,#785,#786);
#642=AXIS2_PLACEMENT_3D('',#983,#787,#788);
#643=AXIS2_PLACEMENT_3D('',#984,#789,#790);
#644=AXIS2_PLACEMENT_3D('',#985,#791,#792);
#645=AXIS2_PLACEMENT_3D('',#986,#793,#794);
#646=AXIS2_PLACEMENT_3D('',#987,#795,#796);
#647=AXIS2_PLACEMENT_3D('',#988,#797,#798);
#648=AXIS2_PLACEMENT_3D('',#989,#799,#800);
#649=AXIS2_PLACEMENT_3D('',#990,#801,#802);
#650=AXIS2_PLACEMENT_3D('',#991,#803,#804);
#651=AXIS2_PLACEMENT_3D('',#992,#805,#806);
#652=AXIS2_PLACEMENT_3D('',#994,#807,#808);
#653=AXIS2_PLACEMENT_3D('',#995,#809,#810);
#654=AXIS2_PLACEMENT_3D('',#996,#811,#812);
#655=AXIS2_PLACEMENT_3D('',#998,#813,#814);
#656=AXIS2_PLACEMENT_3D('',#999,#815,#816);
#657=AXIS2_PLACEMENT_3D('',#1000,#817,#818);
#658=AXIS2_PLACEMENT_3D('',#1002,#819,#820);
#659=AXIS2_PLACEMENT_3D('',#1003,#821,#822);
#660=AXIS2_PLACEMENT_3D('',#1004,#823,#824);
#661=AXIS2_PLACEMENT_3D('',#1006,#825,#826);
#662=AXIS2_PLACEMENT_3D('',#1007,#827,#828);
#663=AXIS2_PLACEMENT_3D('',#1009,#830,#831);
#664=AXIS2_PLACEMENT_3D('',#1011,#833,#834);
#665=AXIS2_PLACEMENT_3D('',#1013,#836,#837);
#666=AXIS2_PLACEMENT_3D('',#1015,#839,#840);
#667=AXIS2_PLACEMENT_3D('',#1016,#841,#842);
#668=AXIS2_PLACEMENT_3D('',#1017,#843,#844);
#669=AXIS2_PLACEMENT_3D('',#1018,#845,#846);
#670=AXIS2_PLACEMENT_3D('',#1019,#847,#848);
#671=DIRECTION('',(0.,0.,1.));
#672=DIRECTION('',(1.,0.,0.));
#673=DIRECTION('',(1.,0.,0.));
#674=DIRECTION('',(0.,-1.,-1.22464679914735E-16));
#675=DIRECTION('',(0.,-1.,-1.22464679914735E-16));
#676=DIRECTION('',(1.,0.,0.));
#677=DIRECTION('',(0.,-1.,-1.22464679914735E-16));
#678=DIRECTION('',(0.,1.22464679914735E-16,-1.));
#679=DIRECTION('',(1.,0.,0.));
#680=DIRECTION('',(0.,-1.,-1.22464679914735E-16));
#681=DIRECTION('',(1.,0.,0.));
#682=DIRECTION('',(0.,-1.,-1.22464679914735E-16));
#683=DIRECTION('',(1.,0.,0.));
#684=DIRECTION('',(0.,1.22464679914735E-16,-1.));
#685=DIRECTION('',(1.,0.,0.));
#686=DIRECTION('',(-1.,0.,0.));
#687=DIRECTION('',(0.,1.22464679914735E-16,-1.));
#688=DIRECTION('',(1.,0.,0.));
#689=DIRECTION('',(-1.,1.31132768882862E-16,1.60591325675727E-32));
#690=DIRECTION('',(0.,1.22464679914735E-16,-1.));
#691=DIRECTION('',(1.,0.,0.));
#692=DIRECTION('',(-1.,0.,0.));
#693=DIRECTION('',(0.,-1.,-1.22464679914735E-16));
#694=DIRECTION('',(1.,0.,0.));
#695=DIRECTION('',(0.,-1.,-1.22464679914735E-16));
#696=DIRECTION('',(0.,1.22464679914735E-16,-1.));
#697=DIRECTION('',(1.,0.,0.));
#698=DIRECTION('',(0.,1.22464679914735E-16,-1.));
#699=DIRECTION('',(1.,0.,0.));
#700=DIRECTION('',(0.,1.22464679914735E-16,-1.));
#701=DIRECTION('',(1.,0.,0.));
#702=DIRECTION('',(0.,1.22464679914735E-16,-1.));
#703=DIRECTION('',(1.,0.,0.));
#704=DIRECTION('',(0.,1.,1.22464679914735E-16));
#705=DIRECTION('',(0.,-1.22464679914735E-16,1.));
#706=DIRECTION('',(1.,0.,0.));
#707=DIRECTION('',(0.,1.22464679914735E-16,-1.));
#708=DIRECTION('',(0.,1.,1.22464679914735E-16));
#709=DIRECTION('',(0.,-1.22464679914735E-16,1.));
#710=DIRECTION('',(0.,1.22464679914735E-16,-1.));
#711=DIRECTION('',(1.,0.,0.));
#712=DIRECTION('',(0.,1.22464679914735E-16,-1.));
#713=DIRECTION('',(1.,0.,0.));
#714=DIRECTION('',(0.,-1.22464679914735E-16,1.));
#715=DIRECTION('',(1.,0.,0.));
#716=DIRECTION('',(0.,-1.,-1.22464679914735E-16));
#717=DIRECTION('',(0.,1.22464679914735E-16,-1.));
#718=DIRECTION('',(0.,-1.,-1.22464679914735E-16));
#719=DIRECTION('',(1.,0.,0.));
#720=DIRECTION('',(0.,-1.,-1.22464679914735E-16));
#721=DIRECTION('',(1.,0.,0.));
#722=DIRECTION('',(0.,6.12323399573677E-17,-1.));
#723=DIRECTION('',(1.,0.,0.));
#724=DIRECTION('',(0.,1.,0.));
#725=DIRECTION('',(1.,0.,0.));
#726=DIRECTION('',(0.,6.12323399573677E-17,1.));
#727=DIRECTION('',(1.,0.,0.));
#728=DIRECTION('',(0.,-1.,-1.22464679914735E-16));
#729=DIRECTION('',(1.,0.,0.));
#730=DIRECTION('',(0.,-1.,-1.22464679914735E-16));
#731=DIRECTION('',(1.,0.,0.));
#732=DIRECTION('',(0.,-1.,-1.22464679914735E-16));
#733=DIRECTION('',(0.,-1.,-1.22464679914735E-16));
#734=DIRECTION('',(0.,1.22464679914735E-16,-1.));
#735=DIRECTION('',(-1.,0.,0.));
#736=DIRECTION('',(-1.,0.,0.));
#737=DIRECTION('',(0.,1.22464679914735E-16,-1.));
#738=DIRECTION('',(0.,-1.,-1.22464679914735E-16));
#739=DIRECTION('',(0.,1.22464679914735E-16,-1.));
#740=DIRECTION('',(0.,1.22464679914735E-16,-1.));
#741=DIRECTION('',(0.,1.22464679914735E-16,-1.));
#742=DIRECTION('',(1.,0.,0.));
#743=DIRECTION('',(0.,1.22464679914735E-16,-1.));
#744=DIRECTION('',(1.,0.,0.));
#745=DIRECTION('',(-1.,1.31132768882862E-16,1.60591325675727E-32));
#746=DIRECTION('',(0.,1.22464679914735E-16,-1.));
#747=DIRECTION('',(1.,0.,0.));
#748=DIRECTION('',(-1.,0.,0.));
#749=DIRECTION('',(0.,1.22464679914735E-16,-1.));
#750=DIRECTION('',(1.,0.,0.));
#751=DIRECTION('',(0.,1.22464679914735E-16,-1.));
#752=DIRECTION('',(1.,0.,0.));
#753=DIRECTION('',(0.,1.22464679914735E-16,-1.));
#754=DIRECTION('',(1.,0.,0.));
#755=DIRECTION('',(0.,1.22464679914735E-16,-1.));
#756=DIRECTION('',(1.,0.,0.));
#757=DIRECTION('',(0.,1.22464679914735E-16,-1.));
#758=DIRECTION('',(1.,0.,0.));
#759=DIRECTION('',(1.,0.,0.));
#760=DIRECTION('',(0.,-1.22464679914735E-16,1.));
#761=DIRECTION('',(0.,-1.,-1.22464679914735E-16));
#762=DIRECTION('',(1.,0.,0.));
#763=DIRECTION('',(0.,-1.,-1.22464679914735E-16));
#764=DIRECTION('',(1.,0.,0.));
#765=DIRECTION('',(0.,-1.,-1.22464679914735E-16));
#766=DIRECTION('',(1.,0.,0.));
#767=DIRECTION('',(0.,-1.,-1.22464679914735E-16));
#768=DIRECTION('',(0.,-1.,-1.22464679914735E-16));
#769=DIRECTION('',(1.,0.,0.));
#770=DIRECTION('',(0.,-1.,-1.22464679914735E-16));
#771=DIRECTION('',(1.,0.,0.));
#772=DIRECTION('',(0.,6.12323399573677E-17,-1.));
#773=DIRECTION('',(1.,0.,0.));
#774=DIRECTION('',(0.,1.,0.));
#775=DIRECTION('',(1.,0.,0.));
#776=DIRECTION('',(0.,6.12323399573677E-17,1.));
#777=DIRECTION('',(1.,0.,0.));
#778=DIRECTION('',(0.,-1.,-1.22464679914735E-16));
#779=DIRECTION('',(-1.,0.,0.));
#780=DIRECTION('',(0.,1.,1.22464679914735E-16));
#781=DIRECTION('',(-1.,0.,0.));
#782=DIRECTION('',(0.,1.,1.22464679914735E-16));
#783=DIRECTION('',(1.,0.,0.));
#784=DIRECTION('',(0.,-1.22464679914735E-16,1.));
#785=DIRECTION('',(1.,0.,0.));
#786=DIRECTION('',(0.,-1.22464679914735E-16,1.));
#787=DIRECTION('',(0.,1.,1.22464679914735E-16));
#788=DIRECTION('',(0.,-1.22464679914735E-16,1.));
#789=DIRECTION('',(0.,1.,1.22464679914735E-16));
#790=DIRECTION('',(0.,-1.22464679914735E-16,1.));
#791=DIRECTION('',(-1.,0.,0.));
#792=DIRECTION('',(0.,1.,1.22464679914735E-16));
#793=DIRECTION('',(1.,0.,0.));
#794=DIRECTION('',(0.,6.12323399573677E-17,1.));
#795=DIRECTION('',(1.,0.,0.));
#796=DIRECTION('',(0.,1.,0.));
#797=DIRECTION('',(1.,0.,0.));
#798=DIRECTION('',(0.,6.12323399573677E-17,-1.));
#799=DIRECTION('',(1.,0.,0.));
#800=DIRECTION('',(0.,-1.,-1.22464679914735E-16));
#801=DIRECTION('',(1.,0.,0.));
#802=DIRECTION('',(0.,-1.,-1.22464679914735E-16));
#803=DIRECTION('',(-1.,0.,0.));
#804=DIRECTION('',(0.,-1.,-1.22464679914735E-16));
#805=DIRECTION('',(1.,0.,0.));
#806=DIRECTION('',(0.,-1.,-1.22464679914735E-16));
#807=DIRECTION('',(1.,0.,0.));
#808=DIRECTION('',(0.,-1.,-1.22464679914735E-16));
#809=DIRECTION('',(-1.,0.,0.));
#810=DIRECTION('',(0.,-1.,-1.22464679914735E-16));
#811=DIRECTION('',(1.,0.,0.));
#812=DIRECTION('',(0.,-1.,-1.22464679914735E-16));
#813=DIRECTION('',(1.,0.,0.));
#814=DIRECTION('',(0.,-1.,-1.22464679914735E-16));
#815=DIRECTION('',(-1.,0.,0.));
#816=DIRECTION('',(0.,-1.,-1.22464679914735E-16));
#817=DIRECTION('',(-1.,0.,0.));
#818=DIRECTION('',(0.,1.,1.22464679914735E-16));
#819=DIRECTION('',(-1.,0.,0.));
#820=DIRECTION('',(0.,-1.,-1.22464679914735E-16));
#821=DIRECTION('',(-1.,0.,0.));
#822=DIRECTION('',(0.,-1.,-1.22464679914735E-16));
#823=DIRECTION('',(-1.,0.,0.));
#824=DIRECTION('',(0.,1.,1.22464679914735E-16));
#825=DIRECTION('',(-1.,0.,0.));
#826=DIRECTION('',(0.,-1.,-1.22464679914735E-16));
#827=DIRECTION('',(0.,1.22464679914735E-16,-1.));
#828=DIRECTION('',(1.,0.,0.));
#829=DIRECTION('',(0.,1.22464679914735E-16,-1.));
#830=DIRECTION('',(-1.31132768882862E-16,-1.,-1.22464679914735E-16));
#831=DIRECTION('',(-1.,1.31132768882862E-16,1.60591325675727E-32));
#832=DIRECTION('',(0.,1.22464679914735E-16,-1.));
#833=DIRECTION('',(0.,1.22464679914735E-16,-1.));
#834=DIRECTION('',(1.,0.,0.));
#835=DIRECTION('',(0.,1.22464679914735E-16,-1.));
#836=DIRECTION('',(0.,-1.,-1.22464679914735E-16));
#837=DIRECTION('',(0.,1.22464679914735E-16,-1.));
#838=DIRECTION('',(0.,1.22464679914735E-16,-1.));
#839=DIRECTION('',(0.,1.22464679914735E-16,-1.));
#840=DIRECTION('',(1.,0.,0.));
#841=DIRECTION('',(0.,1.22464679914735E-16,-1.));
#842=DIRECTION('',(1.,0.,0.));
#843=DIRECTION('',(0.,1.22464679914735E-16,-1.));
#844=DIRECTION('',(1.,0.,0.));
#845=DIRECTION('',(0.,1.22464679914735E-16,-1.));
#846=DIRECTION('',(1.,0.,0.));
#847=DIRECTION('',(0.,1.22464679914735E-16,-1.));
#848=DIRECTION('',(1.,0.,0.));
#849=CARTESIAN_POINT('',(0.,0.,0.));
#850=CARTESIAN_POINT('',(0.125,2.95937027512416E-18,-0.0132));
#851=CARTESIAN_POINT('',(0.125,3.57169367469783E-18,-0.0182));
#852=CARTESIAN_POINT('',(0.125,0.00140512454963964,-0.0182));
#853=CARTESIAN_POINT('',(0.125,-0.00140512454963964,-0.0182));
#854=CARTESIAN_POINT('',(0.125,1.03390241768786E-18,-0.018725));
#855=CARTESIAN_POINT('',(0.105,3.57169367469783E-18,-0.0182));
#856=CARTESIAN_POINT('',(0.125,3.57169367469783E-18,-0.0182));
#857=CARTESIAN_POINT('',(0.125,0.013228756555323,-0.0182));
#858=CARTESIAN_POINT('',(0.125,0.013228756555323,-0.0182));
#859=CARTESIAN_POINT('',(0.123,0.013228756555323,-0.0182));
#860=CARTESIAN_POINT('',(0.123,0.02,-0.0182));
#861=CARTESIAN_POINT('',(0.123,0.02,-0.0182));
#862=CARTESIAN_POINT('',(0.115,0.02,-0.0182));
#863=CARTESIAN_POINT('',(0.1,0.02,-0.0182));
#864=CARTESIAN_POINT('',(0.1,4.22221497818914E-18,-0.0182));
#865=CARTESIAN_POINT('',(0.0801568651670156,0.0025,-0.0182));
#866=CARTESIAN_POINT('',(0.0900784325835078,0.0025,-0.0182));
#867=CARTESIAN_POINT('',(0.1,0.0025,-0.0182));
#868=CARTESIAN_POINT('',(0.1,1.83697019872103E-18,-0.0182));
#869=CARTESIAN_POINT('',(0.1,-0.0025,-0.0182));
#870=CARTESIAN_POINT('',(0.0900784325835078,-0.0025,-0.0182));
#871=CARTESIAN_POINT('',(0.0801568651670156,-0.0025,-0.0182));
#872=CARTESIAN_POINT('',(0.1,4.22221497818914E-18,-0.0182));
#873=CARTESIAN_POINT('',(0.1,-0.02,-0.0182));
#874=CARTESIAN_POINT('',(0.115,-0.02,-0.0182));
#875=CARTESIAN_POINT('',(0.123,-0.02,-0.0182));
#876=CARTESIAN_POINT('',(0.123,-0.0132287565553229,-0.0182));
#877=CARTESIAN_POINT('',(0.123,-0.0132287565553229,-0.0182));
#878=CARTESIAN_POINT('',(0.123,-0.0132287565553229,-0.0182));
#879=CARTESIAN_POINT('',(0.125,-0.0132287565553229,-0.0182));
#880=CARTESIAN_POINT('',(0.125,3.57169367469783E-18,-0.0182));
#881=CARTESIAN_POINT('',(0.0941856575634636,-0.0159747745533605,-0.0182));
#882=CARTESIAN_POINT('',(0.0956856575634636,-0.0159747745533605,-0.0182));
#883=CARTESIAN_POINT('',(0.11597477455336,-0.00581434243653636,-0.0182));
#884=CARTESIAN_POINT('',(0.11747477455336,-0.00581434243653636,-0.0182));
#885=CARTESIAN_POINT('',(0.105814342436536,0.0159747745533605,-0.0182));
#886=CARTESIAN_POINT('',(0.107314342436536,0.0159747745533605,-0.0182));
#887=CARTESIAN_POINT('',(0.0840252254466396,0.00581434243653636,-0.0182));
#888=CARTESIAN_POINT('',(0.0855252254466396,0.00581434243653636,-0.0182));
#889=CARTESIAN_POINT('',(0.115,0.02,-0.0182));
#890=CARTESIAN_POINT('',(0.115,0.02,-0.0232));
#891=CARTESIAN_POINT('',(0.1,0.02,-0.0232));
#892=CARTESIAN_POINT('',(0.13,0.02,-0.0232));
#893=CARTESIAN_POINT('',(0.1,0.02,-0.0182));
#894=CARTESIAN_POINT('',(0.123,0.02,-0.0162));
#895=CARTESIAN_POINT('',(0.125,0.02,-0.0162));
#896=CARTESIAN_POINT('',(0.125,0.02,-0.0032));
#897=CARTESIAN_POINT('',(0.125,0.02,-0.0032));
#898=CARTESIAN_POINT('',(0.115,0.02,-0.0032));
#899=CARTESIAN_POINT('',(0.13,0.02,-0.0032));
#900=CARTESIAN_POINT('',(0.13,0.02,-0.0182));
#901=CARTESIAN_POINT('',(0.13,3.57169367469783E-18,-0.0182));
#902=CARTESIAN_POINT('',(0.13,8.67361737988404E-19,-0.0032));
#903=CARTESIAN_POINT('',(0.13,-0.02,-0.0032));
#904=CARTESIAN_POINT('',(0.13,-0.02,-0.0182));
#905=CARTESIAN_POINT('',(0.13,-0.02,-0.0232));
#906=CARTESIAN_POINT('',(0.13,4.18401707427151E-18,-0.0232));
#907=CARTESIAN_POINT('',(0.13,2.76862589366467E-18,-0.018725));
#908=CARTESIAN_POINT('',(0.13,-0.0015,-0.018725));
#909=CARTESIAN_POINT('',(0.13,0.015525,-0.0032));
#910=CARTESIAN_POINT('',(0.13,0.015525,-0.0047));
#911=CARTESIAN_POINT('',(0.13,-1.03390241768786E-18,0.012325));
#912=CARTESIAN_POINT('',(0.13,0.0015,0.012325));
#913=CARTESIAN_POINT('',(0.13,-0.015525,-0.0032));
#914=CARTESIAN_POINT('',(0.13,-0.015525,-0.0017));
#915=CARTESIAN_POINT('',(0.13,8.67361737988404E-19,-0.0032));
#916=CARTESIAN_POINT('',(0.13,-0.0075,-0.0032));
#917=CARTESIAN_POINT('',(0.13,-0.0145887279377012,0.00210986272513101));
#918=CARTESIAN_POINT('',(0.13,-0.0160887279377012,0.00210986272513101));
#919=CARTESIAN_POINT('',(0.13,0.0145887279377012,-0.008509862725131));
#920=CARTESIAN_POINT('',(0.13,0.0130887279377012,-0.008509862725131));
#921=CARTESIAN_POINT('',(0.115,-0.02,-0.0182));
#922=CARTESIAN_POINT('',(0.115,-0.02,-0.0232));
#923=CARTESIAN_POINT('',(0.1,-0.02,-0.0232));
#924=CARTESIAN_POINT('',(0.115,-0.02,-0.0032));
#925=CARTESIAN_POINT('',(0.125,-0.02,-0.0032));
#926=CARTESIAN_POINT('',(0.125,-0.02,-0.0032));
#927=CARTESIAN_POINT('',(0.125,-0.02,-0.0162));
#928=CARTESIAN_POINT('',(0.123,-0.02,-0.0162));
#929=CARTESIAN_POINT('',(0.1,-0.02,-0.0182));
#930=CARTESIAN_POINT('',(0.105,4.18401707427151E-18,-0.0232));
#931=CARTESIAN_POINT('',(0.1,4.83453837776282E-18,-0.0232));
#932=CARTESIAN_POINT('',(0.0801568651670156,-0.0025,-0.0232));
#933=CARTESIAN_POINT('',(0.0900784325835078,-0.0025,-0.0232));
#934=CARTESIAN_POINT('',(0.1,-0.0025,-0.0232));
#935=CARTESIAN_POINT('',(0.1,2.4492935982947E-18,-0.0232));
#936=CARTESIAN_POINT('',(0.1,0.0025,-0.0232));
#937=CARTESIAN_POINT('',(0.0900784325835078,0.0025,-0.0232));
#938=CARTESIAN_POINT('',(0.0801568651670156,0.0025,-0.0232));
#939=CARTESIAN_POINT('',(0.1,4.83453837776282E-18,-0.0232));
#940=CARTESIAN_POINT('',(0.0941856575634636,-0.0159747745533605,-0.0232));
#941=CARTESIAN_POINT('',(0.0956856575634636,-0.0159747745533605,-0.0232));
#942=CARTESIAN_POINT('',(0.11597477455336,-0.00581434243653636,-0.0232));
#943=CARTESIAN_POINT('',(0.11747477455336,-0.00581434243653636,-0.0232));
#944=CARTESIAN_POINT('',(0.105814342436536,0.0159747745533605,-0.0232));
#945=CARTESIAN_POINT('',(0.107314342436536,0.0159747745533605,-0.0232));
#946=CARTESIAN_POINT('',(0.0840252254466396,0.00581434243653636,-0.0232));
#947=CARTESIAN_POINT('',(0.0855252254466396,0.00581434243653636,-0.0232));
#948=CARTESIAN_POINT('',(0.125,1.7347234759768E-18,-0.0032));
#949=CARTESIAN_POINT('',(0.125,0.013228756555323,-0.0162));
#950=CARTESIAN_POINT('',(0.125,0.0151986841535707,-0.0162));
#951=CARTESIAN_POINT('',(0.125,-8.673617379884E-19,-0.0032));
#952=CARTESIAN_POINT('',(0.125,1.03390241768786E-18,-0.018725));
#953=CARTESIAN_POINT('',(0.125,-8.673617379884E-19,-0.0032));
#954=CARTESIAN_POINT('',(0.125,-0.0151986841535707,-0.0162));
#955=CARTESIAN_POINT('',(0.125,-0.02,-0.0162));
#956=CARTESIAN_POINT('',(0.125,-8.673617379884E-19,-0.0032));
#957=CARTESIAN_POINT('',(0.125,0.015525,-0.0032));
#958=CARTESIAN_POINT('',(0.125,0.015525,-0.0047));
#959=CARTESIAN_POINT('',(0.125,-2.76862589366466E-18,0.012325));
#960=CARTESIAN_POINT('',(0.125,0.0015,0.012325));
#961=CARTESIAN_POINT('',(0.125,-0.015525,-0.0032));
#962=CARTESIAN_POINT('',(0.125,-0.015525,-0.0017));
#963=CARTESIAN_POINT('',(0.125,-8.673617379884E-19,-0.0032));
#964=CARTESIAN_POINT('',(0.125,-0.0075,-0.0032));
#965=CARTESIAN_POINT('',(0.125,0.0145887279377012,-0.008509862725131));
#966=CARTESIAN_POINT('',(0.125,0.0162387279377012,-0.008509862725131));
#967=CARTESIAN_POINT('',(0.125,-0.0145887279377012,0.002109862725131));
#968=CARTESIAN_POINT('',(0.125,-0.0129387279377012,0.002109862725131));
#969=CARTESIAN_POINT('',(0.125,-8.67361737988404E-19,-0.0032));
#970=CARTESIAN_POINT('',(0.125,0.0151986841535707,-0.0162));
#971=CARTESIAN_POINT('',(0.125,0.0147861781018202,-0.0166822730147686));
#972=CARTESIAN_POINT('',(0.124757006049159,0.0141413607964432,-0.0173615832710306));
#973=CARTESIAN_POINT('',(0.123934250082062,0.0134137764634777,-0.0180384706327318));
#974=CARTESIAN_POINT('',(0.123320150651059,0.013228756555323,-0.0182));
#975=CARTESIAN_POINT('',(0.123,0.013228756555323,-0.0182));
#976=CARTESIAN_POINT('',(0.125,-8.67361737988404E-19,-0.0032));
#977=CARTESIAN_POINT('',(0.123,-0.0132287565553229,-0.0182));
#978=CARTESIAN_POINT('',(0.123319997948399,-0.0132287565553229,-0.0182));
#979=CARTESIAN_POINT('',(0.123930288012976,-0.0134120988569032,-0.0180399344873384));
#980=CARTESIAN_POINT('',(0.124755958993535,-0.0141383130886953,-0.0173646661956724));
#981=CARTESIAN_POINT('',(0.125,-0.0147862883106722,-0.016682144166343));
#982=CARTESIAN_POINT('',(0.125,-0.0151986841535707,-0.0162));
#983=CARTESIAN_POINT('',(0.123,3.32676431486836E-18,-0.0162));
#984=CARTESIAN_POINT('',(0.123,3.32676431486836E-18,-0.0162));
#985=CARTESIAN_POINT('',(0.13,8.67361737988404E-19,-0.0032));
#986=CARTESIAN_POINT('',(0.105,-0.015525,-0.0032));
#987=CARTESIAN_POINT('',(0.105,-2.76862589366467E-18,0.012325));
#988=CARTESIAN_POINT('',(0.105,0.015525,-0.0032));
#989=CARTESIAN_POINT('',(0.105,1.03390241768786E-18,-0.018725));
#990=CARTESIAN_POINT('',(0.105,-8.67361737988404E-19,-0.0032));
#991=CARTESIAN_POINT('',(0.13,-0.0145887279377012,0.00210986272513101));
#992=CARTESIAN_POINT('',(0.1307,-0.0145887279377012,0.00210986272513101));
#993=CARTESIAN_POINT('',(0.1307,-0.0153887279377012,0.00210986272513101));
#994=CARTESIAN_POINT('',(0.1307,1.11022302462516E-18,-0.0032));
#995=CARTESIAN_POINT('',(0.13,0.0145887279377012,-0.008509862725131));
#996=CARTESIAN_POINT('',(0.1307,0.0145887279377012,-0.008509862725131));
#997=CARTESIAN_POINT('',(0.1307,0.0137887279377012,-0.008509862725131));
#998=CARTESIAN_POINT('',(0.1307,1.11022302462516E-18,-0.0032));
#999=CARTESIAN_POINT('',(0.125,0.0145887279377012,-0.008509862725131));
#1000=CARTESIAN_POINT('',(0.126,0.0145887279377012,-0.008509862725131));
#1001=CARTESIAN_POINT('',(0.126,0.0152387279377012,-0.008509862725131));
#1002=CARTESIAN_POINT('',(0.126,-7.62336847784769E-18,0.0548));
#1003=CARTESIAN_POINT('',(0.125,-0.0145887279377012,0.002109862725131));
#1004=CARTESIAN_POINT('',(0.126,-0.0145887279377012,0.002109862725131));
#1005=CARTESIAN_POINT('',(0.126,-0.0139387279377012,0.002109862725131));
#1006=CARTESIAN_POINT('',(0.126,-7.62336847784769E-18,0.0548));
#1007=CARTESIAN_POINT('',(0.1,4.22221497818914E-18,-0.0182));
#1008=CARTESIAN_POINT('',(0.0801568651670156,-0.0025,-0.0182));
#1009=CARTESIAN_POINT('',(0.0900784325835078,-0.0025,-0.0182));
#1010=CARTESIAN_POINT('',(0.1,-0.0025,-0.0182));
#1011=CARTESIAN_POINT('',(0.1,1.83697019872103E-18,-0.0182));
#1012=CARTESIAN_POINT('',(0.1,0.0025,-0.0182));
#1013=CARTESIAN_POINT('',(0.0900784325835078,0.0025,-0.0182));
#1014=CARTESIAN_POINT('',(0.0801568651670156,0.0025,-0.0182));
#1015=CARTESIAN_POINT('',(0.105814342436536,0.0159747745533605,-0.0182));
#1016=CARTESIAN_POINT('',(0.11597477455336,-0.00581434243653636,-0.0182));
#1017=CARTESIAN_POINT('',(0.1,4.22221497818914E-18,-0.0182));
#1018=CARTESIAN_POINT('',(0.0941856575634636,-0.0159747745533605,-0.0182));
#1019=CARTESIAN_POINT('',(0.0840252254466396,0.00581434243653636,-0.0182));
#1020=MECHANICAL_DESIGN_GEOMETRIC_PRESENTATION_REPRESENTATION('',(#586),
#1021);
#1021=(
GEOMETRIC_REPRESENTATION_CONTEXT(3)
GLOBAL_UNCERTAINTY_ASSIGNED_CONTEXT((#1022))
GLOBAL_UNIT_ASSIGNED_CONTEXT((#1025,#1024,#1023))
REPRESENTATION_CONTEXT('handle_base','TOP_LEVEL_ASSEMBLY_PART')
);
#1022=UNCERTAINTY_MEASURE_WITH_UNIT(LENGTH_MEASURE(2.E-5),#1025,
'DISTANCE_ACCURACY_VALUE','Maximum Tolerance applied to model');
#1023=(
NAMED_UNIT(*)
SI_UNIT($,.STERADIAN.)
SOLID_ANGLE_UNIT()
);
#1024=(
NAMED_UNIT(*)
PLANE_ANGLE_UNIT()
SI_UNIT($,.RADIAN.)
);
#1025=(
LENGTH_UNIT()
NAMED_UNIT(*)
SI_UNIT($,.METRE.)
);
#1026=PRODUCT_DEFINITION_SHAPE('','',#1027);
#1027=PRODUCT_DEFINITION('','',#1029,#1028);
#1028=PRODUCT_DEFINITION_CONTEXT('',#1035,'design');
#1029=PRODUCT_DEFINITION_FORMATION_WITH_SPECIFIED_SOURCE('','',#1031,
 .NOT_KNOWN.);
#1030=PRODUCT_RELATED_PRODUCT_CATEGORY('','',(#1031));
#1031=PRODUCT('handle_base','handle_base','handle_base',(#1033));
#1032=PRODUCT_CATEGORY('','');
#1033=PRODUCT_CONTEXT('',#1035,'mechanical');
#1034=APPLICATION_PROTOCOL_DEFINITION('international standard',
'ap242_managed_model_based_3d_engineering',2020,#1035);
#1035=APPLICATION_CONTEXT('managed model based 3d engineering');
ENDSEC;
END-ISO-10303-21;
