ISO-10303-21;
HEADER;
/* Generated by software containing ST-Developer
 * from STEP Tools, Inc. (www.steptools.com) 
 */
/* OPTION: using custom renumber hook */

FILE_DESCRIPTION(
/* description */ ('STEP AP242 Edition 2',
'CAx-IF Rec.Pracs.---Representation and Presentation of Product Manufa
cturing Information (PMI)---4.0---2014-10-13',
'CAx-IF Rec.Pracs.---3D Tessellated Geometry---0.4---2014-09-14','2;1',
'CAx-IF Rec.Pracs.---User Defined Attributes---1.5---2016-08-15'),
/* implementation_level */ '2;1');

FILE_NAME(
/* name */ 'Part Studio 1 - link_perpendicular_base',
/* time_stamp */ '2026-08-24T08:33:20Z',
/* author */ (''),
/* organization */ (''),
/* preprocessor_version */ 'ST-DEVELOPER v20',
/* originating_system */ 'ONSHAPE BY PTC INC, 1.219',
/* authorisation */ '  ');

FILE_SCHEMA (('AP242_MANAGED_MODEL_BASED_3D_ENGINEERING_MIM_LF { 1 0 10303 442 3 1 4 }'));
ENDSEC;

DATA;
#10=SHAPE_REPRESENTATION_RELATIONSHIP('','',#193,#11);
#11=ADVANCED_BREP_SHAPE_REPRESENTATION('',(#191),#323);
#12=LINE('',#295,#20);
#13=LINE('',#299,#21);
#14=LINE('',#301,#22);
#15=LINE('',#303,#23);
#16=LINE('',#305,#24);
#17=LINE('',#309,#25);
#18=LINE('',#311,#26);
#19=LINE('',#313,#27);
#20=VECTOR('',#242,1.);
#21=VECTOR('',#245,1.);
#22=VECTOR('',#248,1.);
#23=VECTOR('',#249,1.);
#24=VECTOR('',#250,1.);
#25=VECTOR('',#255,1.);
#26=VECTOR('',#258,1.);
#27=VECTOR('',#259,1.);
#28=PLANE('',#198);
#29=PLANE('',#202);
#30=PLANE('',#207);
#31=PLANE('',#210);
#32=PLANE('',#215);
#33=ORIENTED_EDGE('',*,*,#73,.F.);
#34=ORIENTED_EDGE('',*,*,#74,.T.);
#35=ORIENTED_EDGE('',*,*,#75,.F.);
#36=ORIENTED_EDGE('',*,*,#76,.F.);
#37=ORIENTED_EDGE('',*,*,#77,.F.);
#38=ORIENTED_EDGE('',*,*,#73,.T.);
#39=ORIENTED_EDGE('',*,*,#78,.F.);
#40=ORIENTED_EDGE('',*,*,#79,.F.);
#41=ORIENTED_EDGE('',*,*,#80,.T.);
#42=ORIENTED_EDGE('',*,*,#81,.T.);
#43=ORIENTED_EDGE('',*,*,#82,.T.);
#44=ORIENTED_EDGE('',*,*,#83,.F.);
#45=ORIENTED_EDGE('',*,*,#74,.F.);
#46=ORIENTED_EDGE('',*,*,#84,.T.);
#47=ORIENTED_EDGE('',*,*,#85,.T.);
#48=ORIENTED_EDGE('',*,*,#86,.F.);
#49=ORIENTED_EDGE('',*,*,#81,.F.);
#50=ORIENTED_EDGE('',*,*,#86,.T.);
#51=ORIENTED_EDGE('',*,*,#87,.T.);
#52=ORIENTED_EDGE('',*,*,#88,.F.);
#53=ORIENTED_EDGE('',*,*,#82,.F.);
#54=ORIENTED_EDGE('',*,*,#89,.F.);
#55=ORIENTED_EDGE('',*,*,#83,.T.);
#56=ORIENTED_EDGE('',*,*,#88,.T.);
#57=ORIENTED_EDGE('',*,*,#90,.F.);
#58=ORIENTED_EDGE('',*,*,#89,.T.);
#59=ORIENTED_EDGE('',*,*,#91,.T.);
#60=ORIENTED_EDGE('',*,*,#84,.F.);
#61=ORIENTED_EDGE('',*,*,#80,.F.);
#62=ORIENTED_EDGE('',*,*,#92,.F.);
#63=ORIENTED_EDGE('',*,*,#77,.T.);
#64=ORIENTED_EDGE('',*,*,#87,.F.);
#65=ORIENTED_EDGE('',*,*,#85,.F.);
#66=ORIENTED_EDGE('',*,*,#91,.F.);
#67=ORIENTED_EDGE('',*,*,#90,.T.);
#68=ORIENTED_EDGE('',*,*,#92,.T.);
#69=ORIENTED_EDGE('',*,*,#76,.T.);
#70=ORIENTED_EDGE('',*,*,#79,.T.);
#71=ORIENTED_EDGE('',*,*,#75,.T.);
#72=ORIENTED_EDGE('',*,*,#78,.T.);
#73=EDGE_CURVE('',#93,#93,#109,.T.);
#74=EDGE_CURVE('',#94,#94,#110,.T.);
#75=EDGE_CURVE('',#95,#95,#111,.T.);
#76=EDGE_CURVE('',#96,#96,#112,.T.);
#77=EDGE_CURVE('',#97,#97,#113,.T.);
#78=EDGE_CURVE('',#98,#98,#114,.T.);
#79=EDGE_CURVE('',#99,#99,#115,.T.);
#80=EDGE_CURVE('',#100,#101,#116,.T.);
#81=EDGE_CURVE('',#101,#102,#12,.T.);
#82=EDGE_CURVE('',#102,#103,#117,.T.);
#83=EDGE_CURVE('',#100,#103,#13,.T.);
#84=EDGE_CURVE('',#101,#104,#14,.T.);
#85=EDGE_CURVE('',#104,#105,#15,.T.);
#86=EDGE_CURVE('',#102,#105,#16,.T.);
#87=EDGE_CURVE('',#105,#106,#118,.T.);
#88=EDGE_CURVE('',#103,#106,#17,.T.);
#89=EDGE_CURVE('',#100,#107,#18,.T.);
#90=EDGE_CURVE('',#107,#106,#19,.T.);
#91=EDGE_CURVE('',#107,#104,#119,.T.);
#92=EDGE_CURVE('',#108,#108,#120,.T.);
#93=VERTEX_POINT('',#277);
#94=VERTEX_POINT('',#279);
#95=VERTEX_POINT('',#282);
#96=VERTEX_POINT('',#284);
#97=VERTEX_POINT('',#286);
#98=VERTEX_POINT('',#289);
#99=VERTEX_POINT('',#291);
#100=VERTEX_POINT('',#293);
#101=VERTEX_POINT('',#294);
#102=VERTEX_POINT('',#296);
#103=VERTEX_POINT('',#298);
#104=VERTEX_POINT('',#302);
#105=VERTEX_POINT('',#304);
#106=VERTEX_POINT('',#308);
#107=VERTEX_POINT('',#312);
#108=VERTEX_POINT('',#318);
#109=CIRCLE('',#196,0.02);
#110=CIRCLE('',#197,0.02);
#111=CIRCLE('',#199,0.0015);
#112=CIRCLE('',#200,0.0015);
#113=CIRCLE('',#201,0.005);
#114=CIRCLE('',#203,0.0015);
#115=CIRCLE('',#204,0.0015);
#116=CIRCLE('',#205,0.00415);
#117=CIRCLE('',#206,0.00415);
#118=CIRCLE('',#209,0.00415);
#119=CIRCLE('',#212,0.00415);
#120=CIRCLE('',#214,0.005);
#121=EDGE_LOOP('',(#33));
#122=EDGE_LOOP('',(#34));
#123=EDGE_LOOP('',(#35));
#124=EDGE_LOOP('',(#36));
#125=EDGE_LOOP('',(#37));
#126=EDGE_LOOP('',(#38));
#127=EDGE_LOOP('',(#39));
#128=EDGE_LOOP('',(#40));
#129=EDGE_LOOP('',(#41,#42,#43,#44));
#130=EDGE_LOOP('',(#45));
#131=EDGE_LOOP('',(#46,#47,#48,#49));
#132=EDGE_LOOP('',(#50,#51,#52,#53));
#133=EDGE_LOOP('',(#54,#55,#56,#57));
#134=EDGE_LOOP('',(#58,#59,#60,#61));
#135=EDGE_LOOP('',(#62));
#136=EDGE_LOOP('',(#63));
#137=EDGE_LOOP('',(#64,#65,#66,#67));
#138=EDGE_LOOP('',(#68));
#139=EDGE_LOOP('',(#69));
#140=EDGE_LOOP('',(#70));
#141=EDGE_LOOP('',(#71));
#142=EDGE_LOOP('',(#72));
#143=FACE_BOUND('',#121,.T.);
#144=FACE_BOUND('',#122,.T.);
#145=FACE_BOUND('',#123,.T.);
#146=FACE_BOUND('',#124,.T.);
#147=FACE_BOUND('',#125,.T.);
#148=FACE_BOUND('',#126,.T.);
#149=FACE_BOUND('',#127,.T.);
#150=FACE_BOUND('',#128,.T.);
#151=FACE_BOUND('',#129,.T.);
#152=FACE_BOUND('',#130,.T.);
#153=FACE_BOUND('',#131,.T.);
#154=FACE_BOUND('',#132,.T.);
#155=FACE_BOUND('',#133,.T.);
#156=FACE_BOUND('',#134,.T.);
#157=FACE_BOUND('',#135,.T.);
#158=FACE_BOUND('',#136,.T.);
#159=FACE_BOUND('',#137,.T.);
#160=FACE_BOUND('',#138,.T.);
#161=FACE_BOUND('',#139,.T.);
#162=FACE_BOUND('',#140,.T.);
#163=FACE_BOUND('',#141,.T.);
#164=FACE_BOUND('',#142,.T.);
#165=CYLINDRICAL_SURFACE('',#195,0.02);
#166=CYLINDRICAL_SURFACE('',#208,0.00415);
#167=CYLINDRICAL_SURFACE('',#211,0.00415);
#168=CYLINDRICAL_SURFACE('',#213,0.005);
#169=CYLINDRICAL_SURFACE('',#216,0.0015);
#170=CYLINDRICAL_SURFACE('',#217,0.0015);
#171=ADVANCED_FACE('',(#143,#144),#165,.T.);
#172=ADVANCED_FACE('',(#145,#146,#147,#148),#28,.T.);
#173=ADVANCED_FACE('',(#149,#150,#151,#152),#29,.F.);
#174=ADVANCED_FACE('',(#153),#30,.F.);
#175=ADVANCED_FACE('',(#154),#166,.F.);
#176=ADVANCED_FACE('',(#155),#31,.T.);
#177=ADVANCED_FACE('',(#156),#167,.F.);
#178=ADVANCED_FACE('',(#157,#158),#168,.T.);
#179=ADVANCED_FACE('',(#159,#160),#32,.T.);
#180=ADVANCED_FACE('',(#161,#162),#169,.F.);
#181=ADVANCED_FACE('',(#163,#164),#170,.F.);
#182=CLOSED_SHELL('',(#171,#172,#173,#174,#175,#176,#177,#178,#179,#180,
#181));
#183=STYLED_ITEM('',(#184),#191);
#184=PRESENTATION_STYLE_ASSIGNMENT((#185));
#185=SURFACE_STYLE_USAGE(.BOTH.,#186);
#186=SURFACE_SIDE_STYLE('',(#187));
#187=SURFACE_STYLE_FILL_AREA(#188);
#188=FILL_AREA_STYLE('',(#189));
#189=FILL_AREA_STYLE_COLOUR('',#190);
#190=COLOUR_RGB('',0.498039215686275,0.498039215686275,0.498039215686275);
#191=MANIFOLD_SOLID_BREP('link_perpendicular_base',#182);
#192=SHAPE_DEFINITION_REPRESENTATION(#328,#193);
#193=SHAPE_REPRESENTATION('link_perpendicular_base',(#194),#323);
#194=AXIS2_PLACEMENT_3D('',#274,#218,#219);
#195=AXIS2_PLACEMENT_3D('',#275,#220,#221);
#196=AXIS2_PLACEMENT_3D('',#276,#222,#223);
#197=AXIS2_PLACEMENT_3D('',#278,#224,#225);
#198=AXIS2_PLACEMENT_3D('',#280,#226,#227);
#199=AXIS2_PLACEMENT_3D('',#281,#228,#229);
#200=AXIS2_PLACEMENT_3D('',#283,#230,#231);
#201=AXIS2_PLACEMENT_3D('',#285,#232,#233);
#202=AXIS2_PLACEMENT_3D('',#287,#234,#235);
#203=AXIS2_PLACEMENT_3D('',#288,#236,#237);
#204=AXIS2_PLACEMENT_3D('',#290,#238,#239);
#205=AXIS2_PLACEMENT_3D('',#292,#240,#241);
#206=AXIS2_PLACEMENT_3D('',#297,#243,#244);
#207=AXIS2_PLACEMENT_3D('',#300,#246,#247);
#208=AXIS2_PLACEMENT_3D('',#306,#251,#252);
#209=AXIS2_PLACEMENT_3D('',#307,#253,#254);
#210=AXIS2_PLACEMENT_3D('',#310,#256,#257);
#211=AXIS2_PLACEMENT_3D('',#314,#260,#261);
#212=AXIS2_PLACEMENT_3D('',#315,#262,#263);
#213=AXIS2_PLACEMENT_3D('',#316,#264,#265);
#214=AXIS2_PLACEMENT_3D('',#317,#266,#267);
#215=AXIS2_PLACEMENT_3D('',#319,#268,#269);
#216=AXIS2_PLACEMENT_3D('',#320,#270,#271);
#217=AXIS2_PLACEMENT_3D('',#321,#272,#273);
#218=DIRECTION('',(0.,0.,1.));
#219=DIRECTION('',(1.,0.,0.));
#220=DIRECTION('',(-3.46046103749243E-31,2.4492935982947E-16,-1.));
#221=DIRECTION('',(-1.,-6.86566818075333E-15,-1.33555760856424E-30));
#222=DIRECTION('',(3.46046103749243E-31,-2.4492935982947E-16,1.));
#223=DIRECTION('',(1.,6.86566818075333E-15,1.33555760856424E-30));
#224=DIRECTION('',(3.46046103749243E-31,-2.4492935982947E-16,1.));
#225=DIRECTION('',(1.,6.86566818075333E-15,1.33555760856424E-30));
#226=DIRECTION('',(3.46046103749243E-31,-2.4492935982947E-16,1.));
#227=DIRECTION('',(1.,6.86566818075333E-15,1.33555760856424E-30));
#228=DIRECTION('',(3.46046103749243E-31,-2.4492935982947E-16,1.));
#229=DIRECTION('',(-6.07153216591883E-16,-1.,-2.4492935982947E-16));
#230=DIRECTION('',(3.46046103749243E-31,-2.4492935982947E-16,1.));
#231=DIRECTION('',(-6.07153216591883E-16,-1.,-2.4492935982947E-16));
#232=DIRECTION('',(3.46046103749243E-31,-2.4492935982947E-16,1.));
#233=DIRECTION('',(1.,6.86566818075333E-15,1.33555760856424E-30));
#234=DIRECTION('',(3.46046103749243E-31,-2.4492935982947E-16,1.));
#235=DIRECTION('',(1.,6.86566818075333E-15,1.33555760856424E-30));
#236=DIRECTION('',(-3.46046103749243E-31,2.4492935982947E-16,-1.));
#237=DIRECTION('',(6.07153216591883E-16,1.,2.4492935982947E-16));
#238=DIRECTION('',(-3.46046103749243E-31,2.4492935982947E-16,-1.));
#239=DIRECTION('',(6.07153216591883E-16,1.,2.4492935982947E-16));
#240=DIRECTION('',(3.46046103749243E-31,-2.4492935982947E-16,1.));
#241=DIRECTION('',(1.,6.86566818075333E-15,1.33555760856424E-30));
#242=DIRECTION('',(-7.50771814446705E-15,1.,2.4492935982947E-16));
#243=DIRECTION('',(3.46046103749243E-31,-2.4492935982947E-16,1.));
#244=DIRECTION('',(1.,6.86566818075333E-15,1.33555760856424E-30));
#245=DIRECTION('',(-4.13695583496995E-15,1.,2.4492935982947E-16));
#246=DIRECTION('',(1.,7.50771814446705E-15,1.49281449515517E-30));
#247=DIRECTION('',(-7.50771814446705E-15,1.,2.4492935982947E-16));
#248=DIRECTION('',(3.46046103749243E-31,-2.4492935982947E-16,1.));
#249=DIRECTION('',(-7.50771814446705E-15,1.,2.4492935982947E-16));
#250=DIRECTION('',(3.46046103749243E-31,-2.4492935982947E-16,1.));
#251=DIRECTION('',(3.46046103749243E-31,-2.4492935982947E-16,1.));
#252=DIRECTION('',(1.,6.86566818075333E-15,1.33555760856424E-30));
#253=DIRECTION('',(3.46046103749243E-31,-2.4492935982947E-16,1.));
#254=DIRECTION('',(1.,6.86566818075333E-15,1.33555760856424E-30));
#255=DIRECTION('',(3.46046103749243E-31,-2.4492935982947E-16,1.));
#256=DIRECTION('',(1.,4.13695583496995E-15,6.67215840552741E-31));
#257=DIRECTION('',(-4.13695583496995E-15,1.,2.4492935982947E-16));
#258=DIRECTION('',(3.46046103749243E-31,-2.4492935982947E-16,1.));
#259=DIRECTION('',(-4.13695583496995E-15,1.,2.4492935982947E-16));
#260=DIRECTION('',(3.46046103749243E-31,-2.4492935982947E-16,1.));
#261=DIRECTION('',(1.,6.86566818075333E-15,1.33555760856424E-30));
#262=DIRECTION('',(3.46046103749243E-31,-2.4492935982947E-16,1.));
#263=DIRECTION('',(1.,6.86566818075333E-15,1.33555760856424E-30));
#264=DIRECTION('',(-3.46046103749243E-31,2.4492935982947E-16,-1.));
#265=DIRECTION('',(-1.,-6.86566818075333E-15,-1.33555760856424E-30));
#266=DIRECTION('',(3.46046103749243E-31,-2.4492935982947E-16,1.));
#267=DIRECTION('',(1.,6.86566818075333E-15,1.33555760856424E-30));
#268=DIRECTION('',(3.46046103749243E-31,-2.4492935982947E-16,1.));
#269=DIRECTION('',(1.,6.86566818075333E-15,1.33555760856424E-30));
#270=DIRECTION('',(-3.46046103749243E-31,2.4492935982947E-16,-1.));
#271=DIRECTION('',(6.07153216591883E-16,1.,2.4492935982947E-16));
#272=DIRECTION('',(-3.46046103749243E-31,2.4492935982947E-16,-1.));
#273=DIRECTION('',(6.07153216591883E-16,1.,2.4492935982947E-16));
#274=CARTESIAN_POINT('',(0.,0.,0.));
#275=CARTESIAN_POINT('',(0.05,2.38578631157915E-17,0.00395));
#276=CARTESIAN_POINT('',(0.05,2.38578631157915E-17,0.00395));
#277=CARTESIAN_POINT('',(0.07,1.61171226730858E-16,0.00395));
#278=CARTESIAN_POINT('',(0.05,2.4102792475621E-17,0.00195));
#279=CARTESIAN_POINT('',(0.07,1.61416156090688E-16,0.00195));
#280=CARTESIAN_POINT('',(0.05,2.21231396398147E-17,0.00395));
#281=CARTESIAN_POINT('',(0.05,0.015,0.00395));
#282=CARTESIAN_POINT('',(0.05,0.0135,0.00395));
#283=CARTESIAN_POINT('',(0.05,-0.015,0.00395));
#284=CARTESIAN_POINT('',(0.05,-0.0165,0.00395));
#285=CARTESIAN_POINT('',(0.05,2.21231396398147E-17,0.00395));
#286=CARTESIAN_POINT('',(0.055,5.64514805435814E-17,0.00395));
#287=CARTESIAN_POINT('',(0.05,2.23680689996442E-17,0.00195));
#288=CARTESIAN_POINT('',(0.05,0.015,0.00195));
#289=CARTESIAN_POINT('',(0.05,0.0165,0.00195));
#290=CARTESIAN_POINT('',(0.05,-0.015,0.00195));
#291=CARTESIAN_POINT('',(0.05,-0.0135,0.00195));
#292=CARTESIAN_POINT('',(0.05,-5.38750661598472E-18,0.00195));
#293=CARTESIAN_POINT('',(0.04685,-0.00270185121722127,0.00195));
#294=CARTESIAN_POINT('',(0.05315,-0.00270185121722125,0.00195));
#295=CARTESIAN_POINT('',(0.05315,4.64763885070319E-17,0.00195));
#296=CARTESIAN_POINT('',(0.05315,0.00270185121722128,0.00195));
#297=CARTESIAN_POINT('',(0.05,2.23680689996442E-17,0.00195));
#298=CARTESIAN_POINT('',(0.04685,0.0027018512172212,0.00195));
#299=CARTESIAN_POINT('',(0.04685,8.66809034811736E-18,0.00195));
#300=CARTESIAN_POINT('',(0.05315,1.42312125857904E-17,-0.01805));
#301=CARTESIAN_POINT('',(0.05315,-0.00270185121722125,-0.01805));
#302=CARTESIAN_POINT('',(0.05315,-0.00270185121722126,0.00695));
#303=CARTESIAN_POINT('',(0.05315,7.70014863596844E-18,0.00695));
#304=CARTESIAN_POINT('',(0.05315,0.00270185121722127,0.00695));
#305=CARTESIAN_POINT('',(0.05315,0.00270185121722128,-0.01805));
#306=CARTESIAN_POINT('',(0.05,2.65520860739157E-17,-0.01805));
#307=CARTESIAN_POINT('',(0.05,2.17557456000705E-17,0.00695));
#308=CARTESIAN_POINT('',(0.04685,0.0027018512172212,0.00695));
#309=CARTESIAN_POINT('',(0.04685,0.00270185121722121,-0.01805));
#310=CARTESIAN_POINT('',(0.04685,-2.87812560010545E-17,-0.01805));
#311=CARTESIAN_POINT('',(0.04685,-0.00270185121722127,-0.01805));
#312=CARTESIAN_POINT('',(0.04685,-0.00270185121722127,0.00695));
#313=CARTESIAN_POINT('',(0.04685,-3.53123199508765E-17,0.00695));
#314=CARTESIAN_POINT('',(0.05,5.31233934263601E-19,-0.01805));
#315=CARTESIAN_POINT('',(0.05,-5.9998300155584E-18,0.00695));
#316=CARTESIAN_POINT('',(0.05,2.17557456000705E-17,0.00695));
#317=CARTESIAN_POINT('',(0.05,2.17557456000705E-17,0.00695));
#318=CARTESIAN_POINT('',(0.055,5.60840865038372E-17,0.00695));
#319=CARTESIAN_POINT('',(0.05,2.17557456000705E-17,0.00695));
#320=CARTESIAN_POINT('',(0.05,-0.015,0.00495));
#321=CARTESIAN_POINT('',(0.05,0.015,0.00495));
#322=MECHANICAL_DESIGN_GEOMETRIC_PRESENTATION_REPRESENTATION('',(#183),
#323);
#323=(
GEOMETRIC_REPRESENTATION_CONTEXT(3)
GLOBAL_UNCERTAINTY_ASSIGNED_CONTEXT((#324))
GLOBAL_UNIT_ASSIGNED_CONTEXT((#327,#326,#325))
REPRESENTATION_CONTEXT('link_perpendicular_base',
'TOP_LEVEL_ASSEMBLY_PART')
);
#324=UNCERTAINTY_MEASURE_WITH_UNIT(LENGTH_MEASURE(1.E-8),#327,
'DISTANCE_ACCURACY_VALUE','Maximum Tolerance applied to model');
#325=(
NAMED_UNIT(*)
SI_UNIT($,.STERADIAN.)
SOLID_ANGLE_UNIT()
);
#326=(
NAMED_UNIT(*)
PLANE_ANGLE_UNIT()
SI_UNIT($,.RADIAN.)
);
#327=(
LENGTH_UNIT()
NAMED_UNIT(*)
SI_UNIT($,.METRE.)
);
#328=PRODUCT_DEFINITION_SHAPE('','',#329);
#329=PRODUCT_DEFINITION('','',#331,#330);
#330=PRODUCT_DEFINITION_CONTEXT('',#337,'design');
#331=PRODUCT_DEFINITION_FORMATION_WITH_SPECIFIED_SOURCE('','',#333,
 .NOT_KNOWN.);
#332=PRODUCT_RELATED_PRODUCT_CATEGORY('','',(#333));
#333=PRODUCT('link_perpendicular_base','link_perpendicular_base',
'link_perpendicular_base',(#335));
#334=PRODUCT_CATEGORY('','');
#335=PRODUCT_CONTEXT('',#337,'mechanical');
#336=APPLICATION_PROTOCOL_DEFINITION('international standard',
'ap242_managed_model_based_3d_engineering',2020,#337);
#337=APPLICATION_CONTEXT('managed model based 3d engineering');
ENDSEC;
END-ISO-10303-21;
