ISO-10303-21;
HEADER;
/* Generated by software containing ST-Developer
 * from STEP Tools, Inc. (www.steptools.com) 
 */
/* OPTION: using custom renumber hook */

FILE_DESCRIPTION(
/* description */ ('STEP AP242 Edition 2',
'CAx-IF Rec.Pracs.---Representation and Presentation of Product Manufa
cturing Information (PMI)---4.0---2014-10-13',
'CAx-IF Rec.Pracs.---3D Tessellated Geometry---0.4---2014-09-14','2;1',
'CAx-IF Rec.Pracs.---User Defined Attributes---1.5---2016-08-15'),
/* implementation_level */ '2;1');

FILE_NAME(
/* name */ 'Part Studio 1 - link-perpendicular-body',
/* time_stamp */ '2026-08-24T08:32:23Z',
/* author */ (''),
/* organization */ (''),
/* preprocessor_version */ 'ST-DEVELOPER v20',
/* originating_system */ 'ONSHAPE BY PTC INC, 1.219',
/* authorisation */ '  ');

FILE_SCHEMA (('AP242_MANAGED_MODEL_BASED_3D_ENGINEERING_MIM_LF { 1 0 10303 442 3 1 4 }'));
ENDSEC;

DATA;
#10=SHAPE_REPRESENTATION_RELATIONSHIP('','',#600,#11);
#11=ADVANCED_BREP_SHAPE_REPRESENTATION('',(#598),#1040);
#12=CONICAL_SURFACE('',#661,0.0015,0.785398163397448);
#13=CONICAL_SURFACE('',#664,0.0015,0.785398163397448);
#14=CONICAL_SURFACE('',#667,0.00165,0.785398163397448);
#15=CONICAL_SURFACE('',#670,0.00165,0.785398163397448);
#16=PLANE('',#607);
#17=PLANE('',#611);
#18=PLANE('',#615);
#19=PLANE('',#628);
#20=PLANE('',#643);
#21=PLANE('',#644);
#22=PLANE('',#647);
#23=PLANE('',#648);
#24=PLANE('',#651);
#25=PLANE('',#663);
#26=PLANE('',#666);
#27=PLANE('',#669);
#28=PLANE('',#672);
#29=ELLIPSE('',#605,0.938057757885118,0.02);
#30=B_SPLINE_CURVE_WITH_KNOTS('',3,(#864,#865,#866,#867,#868,#869,#870,
#871),.UNSPECIFIED.,.F.,.F.,(4,1,1,1,1,4),(-0.0029901632987673,-0.00149292678705325,
4.30972466080519E-6,0.00150154623637486,0.00225016449223189,0.00299878274808892),
 .UNSPECIFIED.);
#31=B_SPLINE_CURVE_WITH_KNOTS('',3,(#873,#874,#875,#876,#877),
 .UNSPECIFIED.,.F.,.F.,(4,1,4),(0.,0.00167581348024919,0.00335162696049838),
 .UNSPECIFIED.);
#32=B_SPLINE_CURVE_WITH_KNOTS('',3,(#881,#882,#883,#884,#885),
 .UNSPECIFIED.,.F.,.F.,(4,1,4),(0.,0.00167541013244935,0.00335082026489869),
 .UNSPECIFIED.);
#33=B_SPLINE_CURVE_WITH_KNOTS('',3,(#891,#892,#893,#894,#895,#896,#897,
#898,#899),.UNSPECIFIED.,.F.,.F.,(4,1,1,1,1,1,4),(-0.0023245591412433,-0.00158824046619576,
-0.000851921791148218,-0.000115603116100677,0.000620715558946864,0.00209335290904195,
0.00356599025913703),.UNSPECIFIED.);
#34=LINE('',#862,#56);
#35=LINE('',#887,#57);
#36=LINE('',#901,#58);
#37=LINE('',#905,#59);
#38=LINE('',#908,#60);
#39=LINE('',#910,#61);
#40=LINE('',#912,#62);
#41=LINE('',#918,#63);
#42=LINE('',#920,#64);
#43=LINE('',#923,#65);
#44=LINE('',#924,#66);
#45=LINE('',#937,#67);
#46=LINE('',#939,#68);
#47=LINE('',#940,#69);
#48=LINE('',#966,#70);
#49=LINE('',#971,#71);
#50=LINE('',#974,#72);
#51=LINE('',#991,#73);
#52=LINE('',#998,#74);
#53=LINE('',#999,#75);
#54=LINE('',#1001,#76);
#55=LINE('',#1002,#77);
#56=VECTOR('',#685,1.);
#57=VECTOR('',#688,1.);
#58=VECTOR('',#691,1.);
#59=VECTOR('',#696,1.);
#60=VECTOR('',#697,1.);
#61=VECTOR('',#698,1.);
#62=VECTOR('',#699,1.);
#63=VECTOR('',#706,1.);
#64=VECTOR('',#709,1.);
#65=VECTOR('',#710,1.);
#66=VECTOR('',#711,1.);
#67=VECTOR('',#728,1.);
#68=VECTOR('',#729,1.);
#69=VECTOR('',#730,1.);
#70=VECTOR('',#757,1.);
#71=VECTOR('',#760,1.);
#72=VECTOR('',#763,1.);
#73=VECTOR('',#782,1.);
#74=VECTOR('',#791,1.);
#75=VECTOR('',#792,1.);
#76=VECTOR('',#795,1.);
#77=VECTOR('',#796,1.);
#78=ORIENTED_EDGE('',*,*,#214,.F.);
#79=ORIENTED_EDGE('',*,*,#215,.T.);
#80=ORIENTED_EDGE('',*,*,#216,.T.);
#81=ORIENTED_EDGE('',*,*,#217,.T.);
#82=ORIENTED_EDGE('',*,*,#218,.F.);
#83=ORIENTED_EDGE('',*,*,#219,.T.);
#84=ORIENTED_EDGE('',*,*,#220,.F.);
#85=ORIENTED_EDGE('',*,*,#221,.F.);
#86=ORIENTED_EDGE('',*,*,#222,.T.);
#87=ORIENTED_EDGE('',*,*,#223,.F.);
#88=ORIENTED_EDGE('',*,*,#224,.T.);
#89=ORIENTED_EDGE('',*,*,#225,.F.);
#90=ORIENTED_EDGE('',*,*,#226,.T.);
#91=ORIENTED_EDGE('',*,*,#227,.T.);
#92=ORIENTED_EDGE('',*,*,#228,.F.);
#93=ORIENTED_EDGE('',*,*,#229,.F.);
#94=ORIENTED_EDGE('',*,*,#228,.T.);
#95=ORIENTED_EDGE('',*,*,#230,.T.);
#96=ORIENTED_EDGE('',*,*,#231,.F.);
#97=ORIENTED_EDGE('',*,*,#232,.F.);
#98=ORIENTED_EDGE('',*,*,#233,.T.);
#99=ORIENTED_EDGE('',*,*,#231,.T.);
#100=ORIENTED_EDGE('',*,*,#234,.F.);
#101=ORIENTED_EDGE('',*,*,#235,.F.);
#102=ORIENTED_EDGE('',*,*,#232,.T.);
#103=ORIENTED_EDGE('',*,*,#236,.T.);
#104=ORIENTED_EDGE('',*,*,#226,.F.);
#105=ORIENTED_EDGE('',*,*,#237,.T.);
#106=ORIENTED_EDGE('',*,*,#238,.T.);
#107=ORIENTED_EDGE('',*,*,#239,.T.);
#108=ORIENTED_EDGE('',*,*,#240,.T.);
#109=ORIENTED_EDGE('',*,*,#241,.F.);
#110=ORIENTED_EDGE('',*,*,#220,.T.);
#111=ORIENTED_EDGE('',*,*,#242,.T.);
#112=ORIENTED_EDGE('',*,*,#243,.T.);
#113=ORIENTED_EDGE('',*,*,#244,.T.);
#114=ORIENTED_EDGE('',*,*,#245,.F.);
#115=ORIENTED_EDGE('',*,*,#246,.F.);
#116=ORIENTED_EDGE('',*,*,#247,.F.);
#117=ORIENTED_EDGE('',*,*,#248,.F.);
#118=ORIENTED_EDGE('',*,*,#249,.F.);
#119=ORIENTED_EDGE('',*,*,#250,.F.);
#120=ORIENTED_EDGE('',*,*,#251,.F.);
#121=ORIENTED_EDGE('',*,*,#252,.F.);
#122=ORIENTED_EDGE('',*,*,#253,.F.);
#123=ORIENTED_EDGE('',*,*,#254,.F.);
#124=ORIENTED_EDGE('',*,*,#255,.F.);
#125=ORIENTED_EDGE('',*,*,#256,.T.);
#126=ORIENTED_EDGE('',*,*,#257,.F.);
#127=ORIENTED_EDGE('',*,*,#258,.F.);
#128=ORIENTED_EDGE('',*,*,#259,.T.);
#129=ORIENTED_EDGE('',*,*,#215,.F.);
#130=ORIENTED_EDGE('',*,*,#260,.T.);
#131=ORIENTED_EDGE('',*,*,#223,.T.);
#132=ORIENTED_EDGE('',*,*,#261,.T.);
#133=ORIENTED_EDGE('',*,*,#262,.T.);
#134=ORIENTED_EDGE('',*,*,#263,.T.);
#135=ORIENTED_EDGE('',*,*,#264,.T.);
#136=ORIENTED_EDGE('',*,*,#265,.T.);
#137=ORIENTED_EDGE('',*,*,#266,.T.);
#138=ORIENTED_EDGE('',*,*,#267,.F.);
#139=ORIENTED_EDGE('',*,*,#268,.F.);
#140=ORIENTED_EDGE('',*,*,#218,.T.);
#141=ORIENTED_EDGE('',*,*,#269,.T.);
#142=ORIENTED_EDGE('',*,*,#270,.F.);
#143=ORIENTED_EDGE('',*,*,#271,.F.);
#144=ORIENTED_EDGE('',*,*,#227,.F.);
#145=ORIENTED_EDGE('',*,*,#236,.F.);
#146=ORIENTED_EDGE('',*,*,#234,.T.);
#147=ORIENTED_EDGE('',*,*,#230,.F.);
#148=ORIENTED_EDGE('',*,*,#214,.T.);
#149=ORIENTED_EDGE('',*,*,#260,.F.);
#150=ORIENTED_EDGE('',*,*,#243,.F.);
#151=ORIENTED_EDGE('',*,*,#272,.T.);
#152=ORIENTED_EDGE('',*,*,#258,.T.);
#153=ORIENTED_EDGE('',*,*,#273,.T.);
#154=ORIENTED_EDGE('',*,*,#256,.F.);
#155=ORIENTED_EDGE('',*,*,#274,.T.);
#156=ORIENTED_EDGE('',*,*,#221,.T.);
#157=ORIENTED_EDGE('',*,*,#241,.T.);
#158=ORIENTED_EDGE('',*,*,#275,.F.);
#159=ORIENTED_EDGE('',*,*,#261,.F.);
#160=ORIENTED_EDGE('',*,*,#222,.F.);
#161=ORIENTED_EDGE('',*,*,#274,.F.);
#162=ORIENTED_EDGE('',*,*,#259,.F.);
#163=ORIENTED_EDGE('',*,*,#272,.F.);
#164=ORIENTED_EDGE('',*,*,#216,.F.);
#165=ORIENTED_EDGE('',*,*,#276,.T.);
#166=ORIENTED_EDGE('',*,*,#277,.T.);
#167=ORIENTED_EDGE('',*,*,#224,.F.);
#168=ORIENTED_EDGE('',*,*,#225,.T.);
#169=ORIENTED_EDGE('',*,*,#229,.T.);
#170=ORIENTED_EDGE('',*,*,#233,.F.);
#171=ORIENTED_EDGE('',*,*,#235,.T.);
#172=ORIENTED_EDGE('',*,*,#217,.F.);
#173=ORIENTED_EDGE('',*,*,#242,.F.);
#174=ORIENTED_EDGE('',*,*,#219,.F.);
#175=ORIENTED_EDGE('',*,*,#269,.F.);
#176=ORIENTED_EDGE('',*,*,#257,.T.);
#177=ORIENTED_EDGE('',*,*,#275,.T.);
#178=ORIENTED_EDGE('',*,*,#244,.F.);
#179=ORIENTED_EDGE('',*,*,#273,.F.);
#180=ORIENTED_EDGE('',*,*,#248,.T.);
#181=ORIENTED_EDGE('',*,*,#265,.F.);
#182=ORIENTED_EDGE('',*,*,#247,.T.);
#183=ORIENTED_EDGE('',*,*,#264,.F.);
#184=ORIENTED_EDGE('',*,*,#246,.T.);
#185=ORIENTED_EDGE('',*,*,#263,.F.);
#186=ORIENTED_EDGE('',*,*,#245,.T.);
#187=ORIENTED_EDGE('',*,*,#262,.F.);
#188=ORIENTED_EDGE('',*,*,#249,.T.);
#189=ORIENTED_EDGE('',*,*,#266,.F.);
#190=ORIENTED_EDGE('',*,*,#278,.F.);
#191=ORIENTED_EDGE('',*,*,#250,.T.);
#192=ORIENTED_EDGE('',*,*,#278,.T.);
#193=ORIENTED_EDGE('',*,*,#279,.F.);
#194=ORIENTED_EDGE('',*,*,#251,.T.);
#195=ORIENTED_EDGE('',*,*,#279,.T.);
#196=ORIENTED_EDGE('',*,*,#280,.F.);
#197=ORIENTED_EDGE('',*,*,#267,.T.);
#198=ORIENTED_EDGE('',*,*,#280,.T.);
#199=ORIENTED_EDGE('',*,*,#281,.F.);
#200=ORIENTED_EDGE('',*,*,#268,.T.);
#201=ORIENTED_EDGE('',*,*,#281,.T.);
#202=ORIENTED_EDGE('',*,*,#240,.F.);
#203=ORIENTED_EDGE('',*,*,#255,.T.);
#204=ORIENTED_EDGE('',*,*,#239,.F.);
#205=ORIENTED_EDGE('',*,*,#254,.T.);
#206=ORIENTED_EDGE('',*,*,#238,.F.);
#207=ORIENTED_EDGE('',*,*,#253,.T.);
#208=ORIENTED_EDGE('',*,*,#237,.F.);
#209=ORIENTED_EDGE('',*,*,#252,.T.);
#210=ORIENTED_EDGE('',*,*,#277,.F.);
#211=ORIENTED_EDGE('',*,*,#271,.T.);
#212=ORIENTED_EDGE('',*,*,#276,.F.);
#213=ORIENTED_EDGE('',*,*,#270,.T.);
#214=EDGE_CURVE('',#282,#283,#337,.T.);
#215=EDGE_CURVE('',#282,#284,#34,.F.);
#216=EDGE_CURVE('',#284,#285,#30,.T.);
#217=EDGE_CURVE('',#285,#286,#31,.T.);
#218=EDGE_CURVE('',#287,#286,#338,.T.);
#219=EDGE_CURVE('',#287,#288,#32,.T.);
#220=EDGE_CURVE('',#289,#288,#35,.F.);
#221=EDGE_CURVE('',#290,#289,#29,.T.);
#222=EDGE_CURVE('',#290,#291,#33,.T.);
#223=EDGE_CURVE('',#283,#291,#36,.F.);
#224=EDGE_CURVE('',#292,#292,#339,.T.);
#225=EDGE_CURVE('',#293,#294,#37,.T.);
#226=EDGE_CURVE('',#293,#295,#38,.T.);
#227=EDGE_CURVE('',#295,#296,#39,.T.);
#228=EDGE_CURVE('',#294,#296,#40,.T.);
#229=EDGE_CURVE('',#294,#297,#340,.F.);
#230=EDGE_CURVE('',#296,#298,#341,.T.);
#231=EDGE_CURVE('',#297,#298,#41,.T.);
#232=EDGE_CURVE('',#299,#300,#42,.T.);
#233=EDGE_CURVE('',#299,#297,#43,.T.);
#234=EDGE_CURVE('',#300,#298,#44,.T.);
#235=EDGE_CURVE('',#299,#293,#342,.F.);
#236=EDGE_CURVE('',#300,#295,#343,.T.);
#237=EDGE_CURVE('',#301,#301,#344,.T.);
#238=EDGE_CURVE('',#302,#302,#345,.T.);
#239=EDGE_CURVE('',#303,#303,#346,.T.);
#240=EDGE_CURVE('',#304,#304,#347,.T.);
#241=EDGE_CURVE('',#289,#305,#45,.T.);
#242=EDGE_CURVE('',#288,#285,#46,.F.);
#243=EDGE_CURVE('',#285,#306,#47,.T.);
#244=EDGE_CURVE('',#306,#305,#348,.T.);
#245=EDGE_CURVE('',#307,#307,#349,.T.);
#246=EDGE_CURVE('',#308,#308,#350,.T.);
#247=EDGE_CURVE('',#309,#309,#351,.T.);
#248=EDGE_CURVE('',#310,#310,#352,.T.);
#249=EDGE_CURVE('',#311,#311,#353,.T.);
#250=EDGE_CURVE('',#312,#312,#354,.T.);
#251=EDGE_CURVE('',#313,#313,#355,.T.);
#252=EDGE_CURVE('',#314,#314,#356,.T.);
#253=EDGE_CURVE('',#315,#315,#357,.T.);
#254=EDGE_CURVE('',#316,#316,#358,.T.);
#255=EDGE_CURVE('',#317,#317,#359,.T.);
#256=EDGE_CURVE('',#318,#319,#48,.T.);
#257=EDGE_CURVE('',#320,#319,#360,.T.);
#258=EDGE_CURVE('',#321,#320,#49,.T.);
#259=EDGE_CURVE('',#321,#284,#361,.T.);
#260=EDGE_CURVE('',#282,#283,#50,.T.);
#261=EDGE_CURVE('',#291,#318,#362,.T.);
#262=EDGE_CURVE('',#322,#322,#363,.T.);
#263=EDGE_CURVE('',#323,#323,#364,.T.);
#264=EDGE_CURVE('',#324,#324,#365,.T.);
#265=EDGE_CURVE('',#325,#325,#366,.T.);
#266=EDGE_CURVE('',#326,#326,#367,.T.);
#267=EDGE_CURVE('',#327,#327,#368,.T.);
#268=EDGE_CURVE('',#328,#328,#369,.T.);
#269=EDGE_CURVE('',#286,#287,#51,.T.);
#270=EDGE_CURVE('',#329,#329,#370,.T.);
#271=EDGE_CURVE('',#330,#330,#371,.T.);
#272=EDGE_CURVE('',#285,#321,#52,.F.);
#273=EDGE_CURVE('',#320,#306,#53,.T.);
#274=EDGE_CURVE('',#318,#290,#54,.T.);
#275=EDGE_CURVE('',#319,#305,#55,.T.);
#276=EDGE_CURVE('',#331,#331,#372,.T.);
#277=EDGE_CURVE('',#332,#332,#373,.T.);
#278=EDGE_CURVE('',#333,#333,#374,.T.);
#279=EDGE_CURVE('',#334,#334,#375,.T.);
#280=EDGE_CURVE('',#335,#335,#376,.T.);
#281=EDGE_CURVE('',#336,#336,#377,.T.);
#282=VERTEX_POINT('',#860);
#283=VERTEX_POINT('',#861);
#284=VERTEX_POINT('',#863);
#285=VERTEX_POINT('',#872);
#286=VERTEX_POINT('',#878);
#287=VERTEX_POINT('',#880);
#288=VERTEX_POINT('',#886);
#289=VERTEX_POINT('',#888);
#290=VERTEX_POINT('',#890);
#291=VERTEX_POINT('',#900);
#292=VERTEX_POINT('',#903);
#293=VERTEX_POINT('',#906);
#294=VERTEX_POINT('',#907);
#295=VERTEX_POINT('',#909);
#296=VERTEX_POINT('',#911);
#297=VERTEX_POINT('',#915);
#298=VERTEX_POINT('',#917);
#299=VERTEX_POINT('',#921);
#300=VERTEX_POINT('',#922);
#301=VERTEX_POINT('',#930);
#302=VERTEX_POINT('',#932);
#303=VERTEX_POINT('',#934);
#304=VERTEX_POINT('',#936);
#305=VERTEX_POINT('',#938);
#306=VERTEX_POINT('',#941);
#307=VERTEX_POINT('',#944);
#308=VERTEX_POINT('',#946);
#309=VERTEX_POINT('',#948);
#310=VERTEX_POINT('',#950);
#311=VERTEX_POINT('',#952);
#312=VERTEX_POINT('',#954);
#313=VERTEX_POINT('',#956);
#314=VERTEX_POINT('',#959);
#315=VERTEX_POINT('',#961);
#316=VERTEX_POINT('',#963);
#317=VERTEX_POINT('',#965);
#318=VERTEX_POINT('',#967);
#319=VERTEX_POINT('',#968);
#320=VERTEX_POINT('',#970);
#321=VERTEX_POINT('',#972);
#322=VERTEX_POINT('',#977);
#323=VERTEX_POINT('',#979);
#324=VERTEX_POINT('',#981);
#325=VERTEX_POINT('',#983);
#326=VERTEX_POINT('',#985);
#327=VERTEX_POINT('',#987);
#328=VERTEX_POINT('',#989);
#329=VERTEX_POINT('',#994);
#330=VERTEX_POINT('',#996);
#331=VERTEX_POINT('',#1007);
#332=VERTEX_POINT('',#1009);
#333=VERTEX_POINT('',#1019);
#334=VERTEX_POINT('',#1023);
#335=VERTEX_POINT('',#1027);
#336=VERTEX_POINT('',#1031);
#337=CIRCLE('',#603,0.02);
#338=CIRCLE('',#604,0.02);
#339=CIRCLE('',#606,0.02);
#340=CIRCLE('',#609,0.00415);
#341=CIRCLE('',#610,0.00415);
#342=CIRCLE('',#613,0.00415);
#343=CIRCLE('',#614,0.00415);
#344=CIRCLE('',#616,0.0015);
#345=CIRCLE('',#617,0.0015);
#346=CIRCLE('',#618,0.0015);
#347=CIRCLE('',#619,0.0015);
#348=CIRCLE('',#620,0.02);
#349=CIRCLE('',#621,0.0015);
#350=CIRCLE('',#622,0.0015);
#351=CIRCLE('',#623,0.0015);
#352=CIRCLE('',#624,0.0015);
#353=CIRCLE('',#625,0.0075);
#354=CIRCLE('',#626,0.0015);
#355=CIRCLE('',#627,0.0015);
#356=CIRCLE('',#629,0.0015);
#357=CIRCLE('',#630,0.0015);
#358=CIRCLE('',#631,0.0015);
#359=CIRCLE('',#632,0.0015);
#360=CIRCLE('',#633,0.02);
#361=CIRCLE('',#634,0.002);
#362=CIRCLE('',#635,0.002);
#363=CIRCLE('',#636,0.0015);
#364=CIRCLE('',#637,0.0015);
#365=CIRCLE('',#638,0.0015);
#366=CIRCLE('',#639,0.0015);
#367=CIRCLE('',#640,0.0075);
#368=CIRCLE('',#641,0.00165);
#369=CIRCLE('',#642,0.00165);
#370=CIRCLE('',#645,0.0015);
#371=CIRCLE('',#646,0.0015);
#372=CIRCLE('',#652,0.0015);
#373=CIRCLE('',#653,0.0015);
#374=CIRCLE('',#662,0.0008);
#375=CIRCLE('',#665,0.0008);
#376=CIRCLE('',#668,0.00065);
#377=CIRCLE('',#671,0.00065);
#378=EDGE_LOOP('',(#78,#79,#80,#81,#82,#83,#84,#85,#86,#87));
#379=EDGE_LOOP('',(#88));
#380=EDGE_LOOP('',(#89,#90,#91,#92));
#381=EDGE_LOOP('',(#93,#94,#95,#96));
#382=EDGE_LOOP('',(#97,#98,#99,#100));
#383=EDGE_LOOP('',(#101,#102,#103,#104));
#384=EDGE_LOOP('',(#105));
#385=EDGE_LOOP('',(#106));
#386=EDGE_LOOP('',(#107));
#387=EDGE_LOOP('',(#108));
#388=EDGE_LOOP('',(#109,#110,#111,#112,#113));
#389=EDGE_LOOP('',(#114));
#390=EDGE_LOOP('',(#115));
#391=EDGE_LOOP('',(#116));
#392=EDGE_LOOP('',(#117));
#393=EDGE_LOOP('',(#118));
#394=EDGE_LOOP('',(#119));
#395=EDGE_LOOP('',(#120));
#396=EDGE_LOOP('',(#121));
#397=EDGE_LOOP('',(#122));
#398=EDGE_LOOP('',(#123));
#399=EDGE_LOOP('',(#124));
#400=EDGE_LOOP('',(#125,#126,#127,#128,#129,#130,#131,#132));
#401=EDGE_LOOP('',(#133));
#402=EDGE_LOOP('',(#134));
#403=EDGE_LOOP('',(#135));
#404=EDGE_LOOP('',(#136));
#405=EDGE_LOOP('',(#137));
#406=EDGE_LOOP('',(#138));
#407=EDGE_LOOP('',(#139));
#408=EDGE_LOOP('',(#140,#141));
#409=EDGE_LOOP('',(#142));
#410=EDGE_LOOP('',(#143));
#411=EDGE_LOOP('',(#144,#145,#146,#147));
#412=EDGE_LOOP('',(#148,#149));
#413=EDGE_LOOP('',(#150,#151,#152,#153));
#414=EDGE_LOOP('',(#154,#155,#156,#157,#158));
#415=EDGE_LOOP('',(#159,#160,#161));
#416=EDGE_LOOP('',(#162,#163,#164));
#417=EDGE_LOOP('',(#165));
#418=EDGE_LOOP('',(#166));
#419=EDGE_LOOP('',(#167));
#420=EDGE_LOOP('',(#168,#169,#170,#171));
#421=EDGE_LOOP('',(#172,#173,#174,#175));
#422=EDGE_LOOP('',(#176,#177,#178,#179));
#423=EDGE_LOOP('',(#180));
#424=EDGE_LOOP('',(#181));
#425=EDGE_LOOP('',(#182));
#426=EDGE_LOOP('',(#183));
#427=EDGE_LOOP('',(#184));
#428=EDGE_LOOP('',(#185));
#429=EDGE_LOOP('',(#186));
#430=EDGE_LOOP('',(#187));
#431=EDGE_LOOP('',(#188));
#432=EDGE_LOOP('',(#189));
#433=EDGE_LOOP('',(#190));
#434=EDGE_LOOP('',(#191));
#435=EDGE_LOOP('',(#192));
#436=EDGE_LOOP('',(#193));
#437=EDGE_LOOP('',(#194));
#438=EDGE_LOOP('',(#195));
#439=EDGE_LOOP('',(#196));
#440=EDGE_LOOP('',(#197));
#441=EDGE_LOOP('',(#198));
#442=EDGE_LOOP('',(#199));
#443=EDGE_LOOP('',(#200));
#444=EDGE_LOOP('',(#201));
#445=EDGE_LOOP('',(#202));
#446=EDGE_LOOP('',(#203));
#447=EDGE_LOOP('',(#204));
#448=EDGE_LOOP('',(#205));
#449=EDGE_LOOP('',(#206));
#450=EDGE_LOOP('',(#207));
#451=EDGE_LOOP('',(#208));
#452=EDGE_LOOP('',(#209));
#453=EDGE_LOOP('',(#210));
#454=EDGE_LOOP('',(#211));
#455=EDGE_LOOP('',(#212));
#456=EDGE_LOOP('',(#213));
#457=FACE_BOUND('',#378,.T.);
#458=FACE_BOUND('',#379,.T.);
#459=FACE_BOUND('',#380,.T.);
#460=FACE_BOUND('',#381,.T.);
#461=FACE_BOUND('',#382,.T.);
#462=FACE_BOUND('',#383,.T.);
#463=FACE_BOUND('',#384,.T.);
#464=FACE_BOUND('',#385,.T.);
#465=FACE_BOUND('',#386,.T.);
#466=FACE_BOUND('',#387,.T.);
#467=FACE_BOUND('',#388,.T.);
#468=FACE_BOUND('',#389,.T.);
#469=FACE_BOUND('',#390,.T.);
#470=FACE_BOUND('',#391,.T.);
#471=FACE_BOUND('',#392,.T.);
#472=FACE_BOUND('',#393,.T.);
#473=FACE_BOUND('',#394,.T.);
#474=FACE_BOUND('',#395,.T.);
#475=FACE_BOUND('',#396,.T.);
#476=FACE_BOUND('',#397,.T.);
#477=FACE_BOUND('',#398,.T.);
#478=FACE_BOUND('',#399,.T.);
#479=FACE_BOUND('',#400,.T.);
#480=FACE_BOUND('',#401,.T.);
#481=FACE_BOUND('',#402,.T.);
#482=FACE_BOUND('',#403,.T.);
#483=FACE_BOUND('',#404,.T.);
#484=FACE_BOUND('',#405,.T.);
#485=FACE_BOUND('',#406,.T.);
#486=FACE_BOUND('',#407,.T.);
#487=FACE_BOUND('',#408,.T.);
#488=FACE_BOUND('',#409,.T.);
#489=FACE_BOUND('',#410,.T.);
#490=FACE_BOUND('',#411,.T.);
#491=FACE_BOUND('',#412,.T.);
#492=FACE_BOUND('',#413,.T.);
#493=FACE_BOUND('',#414,.T.);
#494=FACE_BOUND('',#415,.T.);
#495=FACE_BOUND('',#416,.T.);
#496=FACE_BOUND('',#417,.T.);
#497=FACE_BOUND('',#418,.T.);
#498=FACE_BOUND('',#419,.T.);
#499=FACE_BOUND('',#420,.T.);
#500=FACE_BOUND('',#421,.T.);
#501=FACE_BOUND('',#422,.T.);
#502=FACE_BOUND('',#423,.T.);
#503=FACE_BOUND('',#424,.T.);
#504=FACE_BOUND('',#425,.T.);
#505=FACE_BOUND('',#426,.T.);
#506=FACE_BOUND('',#427,.T.);
#507=FACE_BOUND('',#428,.T.);
#508=FACE_BOUND('',#429,.T.);
#509=FACE_BOUND('',#430,.T.);
#510=FACE_BOUND('',#431,.T.);
#511=FACE_BOUND('',#432,.T.);
#512=FACE_BOUND('',#433,.T.);
#513=FACE_BOUND('',#434,.T.);
#514=FACE_BOUND('',#435,.T.);
#515=FACE_BOUND('',#436,.T.);
#516=FACE_BOUND('',#437,.T.);
#517=FACE_BOUND('',#438,.T.);
#518=FACE_BOUND('',#439,.T.);
#519=FACE_BOUND('',#440,.T.);
#520=FACE_BOUND('',#441,.T.);
#521=FACE_BOUND('',#442,.T.);
#522=FACE_BOUND('',#443,.T.);
#523=FACE_BOUND('',#444,.T.);
#524=FACE_BOUND('',#445,.T.);
#525=FACE_BOUND('',#446,.T.);
#526=FACE_BOUND('',#447,.T.);
#527=FACE_BOUND('',#448,.T.);
#528=FACE_BOUND('',#449,.T.);
#529=FACE_BOUND('',#450,.T.);
#530=FACE_BOUND('',#451,.T.);
#531=FACE_BOUND('',#452,.T.);
#532=FACE_BOUND('',#453,.T.);
#533=FACE_BOUND('',#454,.T.);
#534=FACE_BOUND('',#455,.T.);
#535=FACE_BOUND('',#456,.T.);
#536=CYLINDRICAL_SURFACE('',#602,0.02);
#537=CYLINDRICAL_SURFACE('',#608,0.00415);
#538=CYLINDRICAL_SURFACE('',#612,0.00415);
#539=CYLINDRICAL_SURFACE('',#649,0.002);
#540=CYLINDRICAL_SURFACE('',#650,0.002);
#541=CYLINDRICAL_SURFACE('',#654,0.002);
#542=CYLINDRICAL_SURFACE('',#655,0.02);
#543=CYLINDRICAL_SURFACE('',#656,0.0015);
#544=CYLINDRICAL_SURFACE('',#657,0.0015);
#545=CYLINDRICAL_SURFACE('',#658,0.0015);
#546=CYLINDRICAL_SURFACE('',#659,0.0015);
#547=CYLINDRICAL_SURFACE('',#660,0.0075);
#548=CYLINDRICAL_SURFACE('',#673,0.0015);
#549=CYLINDRICAL_SURFACE('',#674,0.0015);
#550=CYLINDRICAL_SURFACE('',#675,0.0015);
#551=CYLINDRICAL_SURFACE('',#676,0.0015);
#552=CYLINDRICAL_SURFACE('',#677,0.0015);
#553=CYLINDRICAL_SURFACE('',#678,0.0015);
#554=ADVANCED_FACE('',(#457,#458),#536,.T.);
#555=ADVANCED_FACE('',(#459),#16,.F.);
#556=ADVANCED_FACE('',(#460),#537,.F.);
#557=ADVANCED_FACE('',(#461),#17,.T.);
#558=ADVANCED_FACE('',(#462),#538,.F.);
#559=ADVANCED_FACE('',(#463,#464,#465,#466,#467,#468,#469,#470,#471,#472,
#473,#474),#18,.T.);
#560=ADVANCED_FACE('',(#475,#476,#477,#478,#479,#480,#481,#482,#483,#484,
#485,#486),#19,.F.);
#561=ADVANCED_FACE('',(#487),#20,.T.);
#562=ADVANCED_FACE('',(#488,#489,#490,#491),#21,.T.);
#563=ADVANCED_FACE('',(#492),#22,.T.);
#564=ADVANCED_FACE('',(#493),#23,.F.);
#565=ADVANCED_FACE('',(#494),#539,.F.);
#566=ADVANCED_FACE('',(#495),#540,.F.);
#567=ADVANCED_FACE('',(#496,#497,#498,#499),#24,.T.);
#568=ADVANCED_FACE('',(#500),#541,.F.);
#569=ADVANCED_FACE('',(#501),#542,.T.);
#570=ADVANCED_FACE('',(#502,#503),#543,.F.);
#571=ADVANCED_FACE('',(#504,#505),#544,.F.);
#572=ADVANCED_FACE('',(#506,#507),#545,.F.);
#573=ADVANCED_FACE('',(#508,#509),#546,.F.);
#574=ADVANCED_FACE('',(#510,#511),#547,.F.);
#575=ADVANCED_FACE('',(#512,#513),#12,.T.);
#576=ADVANCED_FACE('',(#514),#25,.T.);
#577=ADVANCED_FACE('',(#515,#516),#13,.T.);
#578=ADVANCED_FACE('',(#517),#26,.T.);
#579=ADVANCED_FACE('',(#518,#519),#14,.F.);
#580=ADVANCED_FACE('',(#520),#27,.T.);
#581=ADVANCED_FACE('',(#521,#522),#15,.F.);
#582=ADVANCED_FACE('',(#523),#28,.T.);
#583=ADVANCED_FACE('',(#524,#525),#548,.F.);
#584=ADVANCED_FACE('',(#526,#527),#549,.F.);
#585=ADVANCED_FACE('',(#528,#529),#550,.F.);
#586=ADVANCED_FACE('',(#530,#531),#551,.F.);
#587=ADVANCED_FACE('',(#532,#533),#552,.F.);
#588=ADVANCED_FACE('',(#534,#535),#553,.F.);
#589=CLOSED_SHELL('',(#554,#555,#556,#557,#558,#559,#560,#561,#562,#563,
#564,#565,#566,#567,#568,#569,#570,#571,#572,#573,#574,#575,#576,#577,#578,
#579,#580,#581,#582,#583,#584,#585,#586,#587,#588));
#590=STYLED_ITEM('',(#591),#598);
#591=PRESENTATION_STYLE_ASSIGNMENT((#592));
#592=SURFACE_STYLE_USAGE(.BOTH.,#593);
#593=SURFACE_SIDE_STYLE('',(#594));
#594=SURFACE_STYLE_FILL_AREA(#595);
#595=FILL_AREA_STYLE('',(#596));
#596=FILL_AREA_STYLE_COLOUR('',#597);
#597=COLOUR_RGB('',0.972549019607843,0.529411764705882,0.00392156862745098);
#598=MANIFOLD_SOLID_BREP('link-perpendicular-body',#589);
#599=SHAPE_DEFINITION_REPRESENTATION(#1045,#600);
#600=SHAPE_REPRESENTATION('link-perpendicular-body',(#601),#1040);
#601=AXIS2_PLACEMENT_3D('',#857,#679,#680);
#602=AXIS2_PLACEMENT_3D('',#858,#681,#682);
#603=AXIS2_PLACEMENT_3D('',#859,#683,#684);
#604=AXIS2_PLACEMENT_3D('',#879,#686,#687);
#605=AXIS2_PLACEMENT_3D('',#889,#689,#690);
#606=AXIS2_PLACEMENT_3D('',#902,#692,#693);
#607=AXIS2_PLACEMENT_3D('',#904,#694,#695);
#608=AXIS2_PLACEMENT_3D('',#913,#700,#701);
#609=AXIS2_PLACEMENT_3D('',#914,#702,#703);
#610=AXIS2_PLACEMENT_3D('',#916,#704,#705);
#611=AXIS2_PLACEMENT_3D('',#919,#707,#708);
#612=AXIS2_PLACEMENT_3D('',#925,#712,#713);
#613=AXIS2_PLACEMENT_3D('',#926,#714,#715);
#614=AXIS2_PLACEMENT_3D('',#927,#716,#717);
#615=AXIS2_PLACEMENT_3D('',#928,#718,#719);
#616=AXIS2_PLACEMENT_3D('',#929,#720,#721);
#617=AXIS2_PLACEMENT_3D('',#931,#722,#723);
#618=AXIS2_PLACEMENT_3D('',#933,#724,#725);
#619=AXIS2_PLACEMENT_3D('',#935,#726,#727);
#620=AXIS2_PLACEMENT_3D('',#942,#731,#732);
#621=AXIS2_PLACEMENT_3D('',#943,#733,#734);
#622=AXIS2_PLACEMENT_3D('',#945,#735,#736);
#623=AXIS2_PLACEMENT_3D('',#947,#737,#738);
#624=AXIS2_PLACEMENT_3D('',#949,#739,#740);
#625=AXIS2_PLACEMENT_3D('',#951,#741,#742);
#626=AXIS2_PLACEMENT_3D('',#953,#743,#744);
#627=AXIS2_PLACEMENT_3D('',#955,#745,#746);
#628=AXIS2_PLACEMENT_3D('',#957,#747,#748);
#629=AXIS2_PLACEMENT_3D('',#958,#749,#750);
#630=AXIS2_PLACEMENT_3D('',#960,#751,#752);
#631=AXIS2_PLACEMENT_3D('',#962,#753,#754);
#632=AXIS2_PLACEMENT_3D('',#964,#755,#756);
#633=AXIS2_PLACEMENT_3D('',#969,#758,#759);
#634=AXIS2_PLACEMENT_3D('',#973,#761,#762);
#635=AXIS2_PLACEMENT_3D('',#975,#764,#765);
#636=AXIS2_PLACEMENT_3D('',#976,#766,#767);
#637=AXIS2_PLACEMENT_3D('',#978,#768,#769);
#638=AXIS2_PLACEMENT_3D('',#980,#770,#771);
#639=AXIS2_PLACEMENT_3D('',#982,#772,#773);
#640=AXIS2_PLACEMENT_3D('',#984,#774,#775);
#641=AXIS2_PLACEMENT_3D('',#986,#776,#777);
#642=AXIS2_PLACEMENT_3D('',#988,#778,#779);
#643=AXIS2_PLACEMENT_3D('',#990,#780,#781);
#644=AXIS2_PLACEMENT_3D('',#992,#783,#784);
#645=AXIS2_PLACEMENT_3D('',#993,#785,#786);
#646=AXIS2_PLACEMENT_3D('',#995,#787,#788);
#647=AXIS2_PLACEMENT_3D('',#997,#789,#790);
#648=AXIS2_PLACEMENT_3D('',#1000,#793,#794);
#649=AXIS2_PLACEMENT_3D('',#1003,#797,#798);
#650=AXIS2_PLACEMENT_3D('',#1004,#799,#800);
#651=AXIS2_PLACEMENT_3D('',#1005,#801,#802);
#652=AXIS2_PLACEMENT_3D('',#1006,#803,#804);
#653=AXIS2_PLACEMENT_3D('',#1008,#805,#806);
#654=AXIS2_PLACEMENT_3D('',#1010,#807,#808);
#655=AXIS2_PLACEMENT_3D('',#1011,#809,#810);
#656=AXIS2_PLACEMENT_3D('',#1012,#811,#812);
#657=AXIS2_PLACEMENT_3D('',#1013,#813,#814);
#658=AXIS2_PLACEMENT_3D('',#1014,#815,#816);
#659=AXIS2_PLACEMENT_3D('',#1015,#817,#818);
#660=AXIS2_PLACEMENT_3D('',#1016,#819,#820);
#661=AXIS2_PLACEMENT_3D('',#1017,#821,#822);
#662=AXIS2_PLACEMENT_3D('',#1018,#823,#824);
#663=AXIS2_PLACEMENT_3D('',#1020,#825,#826);
#664=AXIS2_PLACEMENT_3D('',#1021,#827,#828);
#665=AXIS2_PLACEMENT_3D('',#1022,#829,#830);
#666=AXIS2_PLACEMENT_3D('',#1024,#831,#832);
#667=AXIS2_PLACEMENT_3D('',#1025,#833,#834);
#668=AXIS2_PLACEMENT_3D('',#1026,#835,#836);
#669=AXIS2_PLACEMENT_3D('',#1028,#837,#838);
#670=AXIS2_PLACEMENT_3D('',#1029,#839,#840);
#671=AXIS2_PLACEMENT_3D('',#1030,#841,#842);
#672=AXIS2_PLACEMENT_3D('',#1032,#843,#844);
#673=AXIS2_PLACEMENT_3D('',#1033,#845,#846);
#674=AXIS2_PLACEMENT_3D('',#1034,#847,#848);
#675=AXIS2_PLACEMENT_3D('',#1035,#849,#850);
#676=AXIS2_PLACEMENT_3D('',#1036,#851,#852);
#677=AXIS2_PLACEMENT_3D('',#1037,#853,#854);
#678=AXIS2_PLACEMENT_3D('',#1038,#855,#856);
#679=DIRECTION('',(0.,0.,1.));
#680=DIRECTION('',(1.,0.,0.));
#681=DIRECTION('',(0.,0.,-1.));
#682=DIRECTION('',(-1.,0.,0.));
#683=DIRECTION('',(0.,0.,1.));
#684=DIRECTION('',(1.,0.,0.));
#685=DIRECTION('',(0.,0.,-1.));
#686=DIRECTION('',(0.,0.,1.));
#687=DIRECTION('',(1.,0.,0.));
#688=DIRECTION('',(0.,0.,-1.));
#689=DIRECTION('',(-3.46865830895717E-16,-0.999772689132485,0.0213206487893567));
#690=DIRECTION('',(-7.39708599559071E-18,-0.0213206487893567,-0.999772689132485));
#691=DIRECTION('',(0.,0.,-1.));
#692=DIRECTION('',(0.,0.,1.));
#693=DIRECTION('',(1.,0.,0.));
#694=DIRECTION('',(1.,6.42049963713728E-16,0.));
#695=DIRECTION('',(-6.42049963713728E-16,1.,0.));
#696=DIRECTION('',(-6.42049963713728E-16,1.,0.));
#697=DIRECTION('',(0.,0.,1.));
#698=DIRECTION('',(-6.42049963713728E-16,1.,0.));
#699=DIRECTION('',(0.,0.,1.));
#700=DIRECTION('',(0.,0.,1.));
#701=DIRECTION('',(1.,0.,0.));
#702=DIRECTION('',(0.,0.,-1.));
#703=DIRECTION('',(-1.,0.,0.));
#704=DIRECTION('',(0.,0.,1.));
#705=DIRECTION('',(1.,0.,0.));
#706=DIRECTION('',(0.,0.,1.));
#707=DIRECTION('',(1.,-2.72871234578338E-15,0.));
#708=DIRECTION('',(2.72871234578338E-15,1.,0.));
#709=DIRECTION('',(0.,0.,1.));
#710=DIRECTION('',(2.72871234578338E-15,1.,0.));
#711=DIRECTION('',(2.72871234578338E-15,1.,0.));
#712=DIRECTION('',(0.,0.,1.));
#713=DIRECTION('',(1.,0.,0.));
#714=DIRECTION('',(0.,0.,-1.));
#715=DIRECTION('',(-1.,0.,0.));
#716=DIRECTION('',(0.,0.,1.));
#717=DIRECTION('',(1.,0.,0.));
#718=DIRECTION('',(-1.,3.46944695195362E-16,0.));
#719=DIRECTION('',(-3.46944695195362E-16,-1.,0.));
#720=DIRECTION('',(1.,-3.03576608295942E-16,0.));
#721=DIRECTION('',(3.03576608295942E-16,1.,0.));
#722=DIRECTION('',(1.,-3.03576608295942E-16,0.));
#723=DIRECTION('',(3.03576608295942E-16,1.,0.));
#724=DIRECTION('',(1.,-3.03576608295942E-16,0.));
#725=DIRECTION('',(3.03576608295942E-16,1.,0.));
#726=DIRECTION('',(1.,-3.03576608295942E-16,0.));
#727=DIRECTION('',(3.03576608295942E-16,1.,0.));
#728=DIRECTION('',(7.39708599559071E-18,0.0213206487893567,0.999772689132485));
#729=DIRECTION('',(3.46944695195362E-16,1.,0.));
#730=DIRECTION('',(0.,0.,1.));
#731=DIRECTION('',(-1.,3.46944695195362E-16,0.));
#732=DIRECTION('',(3.46944695195362E-16,1.,0.));
#733=DIRECTION('',(-1.,3.46944695195362E-16,0.));
#734=DIRECTION('',(3.46944695195362E-16,1.,0.));
#735=DIRECTION('',(-1.,3.46944695195362E-16,0.));
#736=DIRECTION('',(2.12442355226077E-32,6.12323399573677E-17,-1.));
#737=DIRECTION('',(-1.,3.46944695195362E-16,0.));
#738=DIRECTION('',(-3.46944695195362E-16,-1.,-1.22464679914735E-16));
#739=DIRECTION('',(-1.,3.46944695195362E-16,0.));
#740=DIRECTION('',(-6.3732706567823E-32,-1.83697019872103E-16,1.));
#741=DIRECTION('',(-1.,3.46944695195362E-16,0.));
#742=DIRECTION('',(3.46944695195362E-16,1.,0.));
#743=DIRECTION('',(-1.,3.46944695195362E-16,0.));
#744=DIRECTION('',(3.46944695195362E-16,1.,0.));
#745=DIRECTION('',(-1.,3.46944695195362E-16,0.));
#746=DIRECTION('',(3.46944695195362E-16,1.,0.));
#747=DIRECTION('',(-1.,3.03576608295942E-16,0.));
#748=DIRECTION('',(-3.03576608295942E-16,-1.,0.));
#749=DIRECTION('',(1.,-3.03576608295942E-16,0.));
#750=DIRECTION('',(3.03576608295942E-16,1.,0.));
#751=DIRECTION('',(1.,-3.03576608295942E-16,0.));
#752=DIRECTION('',(3.03576608295942E-16,1.,0.));
#753=DIRECTION('',(1.,-3.03576608295942E-16,0.));
#754=DIRECTION('',(3.03576608295942E-16,1.,0.));
#755=DIRECTION('',(1.,-3.03576608295942E-16,0.));
#756=DIRECTION('',(3.03576608295942E-16,1.,0.));
#757=DIRECTION('',(6.47245024614187E-18,0.0213206487893567,0.999772689132485));
#758=DIRECTION('',(-1.,3.46944695195362E-16,0.));
#759=DIRECTION('',(3.46944695195362E-16,1.,0.));
#760=DIRECTION('',(0.,0.,1.));
#761=DIRECTION('',(-1.,3.03576608295942E-16,0.));
#762=DIRECTION('',(-3.03576608295942E-16,-1.,0.));
#763=DIRECTION('',(3.03576608295942E-16,1.,0.));
#764=DIRECTION('',(-1.,3.03576608295942E-16,0.));
#765=DIRECTION('',(-3.03576608295942E-16,-1.,0.));
#766=DIRECTION('',(-1.,3.46944695195362E-16,0.));
#767=DIRECTION('',(3.46944695195362E-16,1.,0.));
#768=DIRECTION('',(-1.,3.46944695195362E-16,0.));
#769=DIRECTION('',(2.12442355226077E-32,6.12323399573677E-17,-1.));
#770=DIRECTION('',(-1.,3.46944695195362E-16,0.));
#771=DIRECTION('',(-3.46944695195362E-16,-1.,-1.22464679914735E-16));
#772=DIRECTION('',(-1.,3.46944695195362E-16,0.));
#773=DIRECTION('',(-6.3732706567823E-32,-1.83697019872103E-16,1.));
#774=DIRECTION('',(-1.,3.46944695195362E-16,0.));
#775=DIRECTION('',(3.46944695195362E-16,1.,0.));
#776=DIRECTION('',(1.,-3.46944695195362E-16,0.));
#777=DIRECTION('',(-3.46944695195362E-16,-1.,0.));
#778=DIRECTION('',(1.,-3.46944695195362E-16,0.));
#779=DIRECTION('',(-3.46944695195362E-16,-1.,0.));
#780=DIRECTION('',(0.,0.,1.));
#781=DIRECTION('',(1.,0.,0.));
#782=DIRECTION('',(3.46944695195362E-16,1.,0.));
#783=DIRECTION('',(0.,0.,1.));
#784=DIRECTION('',(1.,0.,0.));
#785=DIRECTION('',(0.,0.,1.));
#786=DIRECTION('',(1.,0.,0.));
#787=DIRECTION('',(0.,0.,1.));
#788=DIRECTION('',(1.,0.,0.));
#789=DIRECTION('',(-3.46944695195362E-16,-1.,0.));
#790=DIRECTION('',(1.,-3.46944695195362E-16,0.));
#791=DIRECTION('',(-1.,3.46944695195362E-16,0.));
#792=DIRECTION('',(-1.,3.46944695195362E-16,0.));
#793=DIRECTION('',(-3.46865830895717E-16,-0.999772689132485,0.0213206487893567));
#794=DIRECTION('',(0.,-0.0213206487893567,-0.999772689132485));
#795=DIRECTION('',(-1.,3.46944695195362E-16,0.));
#796=DIRECTION('',(-1.,3.46944695195362E-16,0.));
#797=DIRECTION('',(-1.,3.46944695195362E-16,0.));
#798=DIRECTION('',(-3.46944695195362E-16,-1.,0.));
#799=DIRECTION('',(1.,-3.46944695195362E-16,0.));
#800=DIRECTION('',(3.46944695195362E-16,1.,0.));
#801=DIRECTION('',(0.,0.,-1.));
#802=DIRECTION('',(1.,0.,0.));
#803=DIRECTION('',(0.,0.,1.));
#804=DIRECTION('',(1.,0.,0.));
#805=DIRECTION('',(0.,0.,1.));
#806=DIRECTION('',(1.,0.,0.));
#807=DIRECTION('',(-3.46944695195362E-16,-1.,0.));
#808=DIRECTION('',(1.,-3.46944695195362E-16,0.));
#809=DIRECTION('',(1.,-3.46944695195362E-16,0.));
#810=DIRECTION('',(-3.46944695195362E-16,-1.,0.));
#811=DIRECTION('',(-1.,3.46944695195362E-16,0.));
#812=DIRECTION('',(-6.3732706567823E-32,-1.83697019872103E-16,1.));
#813=DIRECTION('',(-1.,3.46944695195362E-16,0.));
#814=DIRECTION('',(-3.46944695195362E-16,-1.,-1.22464679914735E-16));
#815=DIRECTION('',(-1.,3.46944695195362E-16,0.));
#816=DIRECTION('',(2.12442355226077E-32,6.12323399573677E-17,-1.));
#817=DIRECTION('',(-1.,3.46944695195362E-16,0.));
#818=DIRECTION('',(3.46944695195362E-16,1.,0.));
#819=DIRECTION('',(-1.,3.46944695195362E-16,0.));
#820=DIRECTION('',(3.46944695195362E-16,1.,0.));
#821=DIRECTION('',(1.,-3.46944695195362E-16,0.));
#822=DIRECTION('',(3.46944695195362E-16,1.,0.));
#823=DIRECTION('',(-1.,3.46944695195362E-16,0.));
#824=DIRECTION('',(3.46944695195362E-16,1.,0.));
#825=DIRECTION('',(-1.,3.46944695195362E-16,0.));
#826=DIRECTION('',(3.46944695195362E-16,1.,0.));
#827=DIRECTION('',(1.,-3.46944695195362E-16,0.));
#828=DIRECTION('',(3.46944695195362E-16,1.,0.));
#829=DIRECTION('',(-1.,3.46944695195362E-16,0.));
#830=DIRECTION('',(3.46944695195362E-16,1.,0.));
#831=DIRECTION('',(-1.,3.46944695195362E-16,0.));
#832=DIRECTION('',(3.46944695195362E-16,1.,0.));
#833=DIRECTION('',(1.,-3.46944695195362E-16,0.));
#834=DIRECTION('',(3.46944695195362E-16,1.,0.));
#835=DIRECTION('',(1.,-3.46944695195362E-16,0.));
#836=DIRECTION('',(-3.46944695195362E-16,-1.,0.));
#837=DIRECTION('',(1.,-3.46944695195362E-16,0.));
#838=DIRECTION('',(3.46944695195362E-16,1.,0.));
#839=DIRECTION('',(1.,-3.46944695195362E-16,0.));
#840=DIRECTION('',(3.46944695195362E-16,1.,0.));
#841=DIRECTION('',(1.,-3.46944695195362E-16,0.));
#842=DIRECTION('',(-3.46944695195362E-16,-1.,0.));
#843=DIRECTION('',(1.,-3.46944695195362E-16,0.));
#844=DIRECTION('',(3.46944695195362E-16,1.,0.));
#845=DIRECTION('',(1.,-3.03576608295942E-16,0.));
#846=DIRECTION('',(3.03576608295942E-16,1.,0.));
#847=DIRECTION('',(1.,-3.03576608295942E-16,0.));
#848=DIRECTION('',(3.03576608295942E-16,1.,0.));
#849=DIRECTION('',(1.,-3.03576608295942E-16,0.));
#850=DIRECTION('',(3.03576608295942E-16,1.,0.));
#851=DIRECTION('',(1.,-3.03576608295942E-16,0.));
#852=DIRECTION('',(3.03576608295942E-16,1.,0.));
#853=DIRECTION('',(0.,0.,1.));
#854=DIRECTION('',(1.,0.,0.));
#855=DIRECTION('',(0.,0.,1.));
#856=DIRECTION('',(1.,0.,0.));
#857=CARTESIAN_POINT('',(0.,0.,0.));
#858=CARTESIAN_POINT('',(0.,1.22464679914735E-18,0.005));
#859=CARTESIAN_POINT('',(0.,1.22464679914735E-18,0.005));
#860=CARTESIAN_POINT('',(-0.0035,-0.0196913686675152,0.005));
#861=CARTESIAN_POINT('',(-0.0035,0.0196913686675152,0.005));
#862=CARTESIAN_POINT('',(-0.0035,-0.0196913686675152,0.005));
#863=CARTESIAN_POINT('',(-0.0035,-0.0196913686675152,0.00504300098779889));
#864=CARTESIAN_POINT('',(-0.0035,-0.0196913686675152,0.00504300098779889));
#865=CARTESIAN_POINT('',(-0.00399200664994028,-0.0196039180030202,0.00506143393140271));
#866=CARTESIAN_POINT('',(-0.00496404659167666,-0.0193931212063356,0.00511704191826446));
#867=CARTESIAN_POINT('',(-0.00638634737815425,-0.0189723407751474,0.00532182930801386));
#868=CARTESIAN_POINT('',(-0.0075166853514684,-0.0185432555192082,0.00569202968001818));
#869=CARTESIAN_POINT('',(-0.00828067349487886,-0.0182076803644604,0.00627246769318733));
#870=CARTESIAN_POINT('',(-0.00849999867548111,-0.0181038676121105,0.00674554744620227));
#871=CARTESIAN_POINT('',(-0.00849999999998729,-0.0181038669902377,0.00699999511197869));
#872=CARTESIAN_POINT('',(-0.0085,-0.0181038669902316,0.007));
#873=CARTESIAN_POINT('',(-0.0085,-0.0181038669902317,0.007));
#874=CARTESIAN_POINT('',(-0.0085,-0.0181038669902316,0.00643304805906665));
#875=CARTESIAN_POINT('',(-0.00901928659157844,-0.0178679871581025,0.00535172196626263));
#876=CARTESIAN_POINT('',(-0.0100190676009025,-0.0173187063199988,0.005));
#877=CARTESIAN_POINT('',(-0.0105,-0.0170220445305492,0.005));
#878=CARTESIAN_POINT('',(-0.0105,-0.0170220445305492,0.005));
#879=CARTESIAN_POINT('',(0.,1.22464679914735E-18,0.005));
#880=CARTESIAN_POINT('',(-0.0105,0.0170220445305492,0.005));
#881=CARTESIAN_POINT('',(-0.0105,0.0170220445305492,0.005));
#882=CARTESIAN_POINT('',(-0.0100182702890523,0.0173191981395574,0.005));
#883=CARTESIAN_POINT('',(-0.0090239858367032,0.017865531495898,0.00534861230017872));
#884=CARTESIAN_POINT('',(-0.0085,0.0181038669902318,0.00643129572332017));
#885=CARTESIAN_POINT('',(-0.0085,0.0181038669902318,0.007));
#886=CARTESIAN_POINT('',(-0.0085,0.0181038669902317,0.007));
#887=CARTESIAN_POINT('',(-0.0085,0.0181038669902317,0.005));
#888=CARTESIAN_POINT('',(-0.0085,0.0181038669902317,0.005));
#889=CARTESIAN_POINT('',(0.,1.22464679914735E-18,-0.843930628863235));
#890=CARTESIAN_POINT('',(-0.0084065974873332,0.0181474273296785,0.00704264129757871));
#891=CARTESIAN_POINT('',(-0.0084065974873332,0.0181474273296785,0.00704264129757871));
#892=CARTESIAN_POINT('',(-0.00841819964688056,0.0181420527559979,0.00679061557196506));
#893=CARTESIAN_POINT('',(-0.00821766233843636,0.0182360039136397,0.00631027631950614));
#894=CARTESIAN_POINT('',(-0.0076560555770388,0.0184806359053927,0.00586773222109416));
#895=CARTESIAN_POINT('',(-0.00701873506185049,0.0187324059278997,0.00557182095944806));
#896=CARTESIAN_POINT('',(-0.00611551203993315,0.0190527435341395,0.00530720719981287));
#897=CARTESIAN_POINT('',(-0.0049527473039026,0.0193956083751599,0.00513368731813324));
#898=CARTESIAN_POINT('',(-0.00398643735927453,0.0196049079046191,0.00507281283331568));
#899=CARTESIAN_POINT('',(-0.0035,0.0196913686675152,0.00505258505748122));
#900=CARTESIAN_POINT('',(-0.0035,0.0196913686675152,0.00505258505748122));
#901=CARTESIAN_POINT('',(-0.0035,0.0196913686675152,0.00505258505748122));
#902=CARTESIAN_POINT('',(0.,1.22464679914735E-18,0.002));
#903=CARTESIAN_POINT('',(0.02,1.22464679914735E-18,0.002));
#904=CARTESIAN_POINT('',(0.00315,-3.46944695195361E-17,-0.02));
#905=CARTESIAN_POINT('',(0.00315,-3.46944695195361E-17,0.002));
#906=CARTESIAN_POINT('',(0.00315,-0.0027018512172213,0.002));
#907=CARTESIAN_POINT('',(0.00315,0.00270185121722123,0.002));
#908=CARTESIAN_POINT('',(0.00315,-0.0027018512172213,-0.02));
#909=CARTESIAN_POINT('',(0.00315,-0.0027018512172213,0.005));
#910=CARTESIAN_POINT('',(0.00315,-3.46944695195361E-17,0.005));
#911=CARTESIAN_POINT('',(0.00315,0.00270185121722123,0.005));
#912=CARTESIAN_POINT('',(0.00315,0.00270185121722123,-0.02));
#913=CARTESIAN_POINT('',(-6.50521303491303E-19,2.16840434497101E-19,-0.02));
#914=CARTESIAN_POINT('',(-6.50521303491303E-19,2.16840434497101E-19,0.002));
#915=CARTESIAN_POINT('',(-0.00315,0.0027018512172212,0.002));
#916=CARTESIAN_POINT('',(-6.50521303491303E-19,2.16840434497101E-19,0.005));
#917=CARTESIAN_POINT('',(-0.00315,0.0027018512172212,0.005));
#918=CARTESIAN_POINT('',(-0.00315,0.0027018512172212,-0.02));
#919=CARTESIAN_POINT('',(-0.00315,-3.46944695195361E-17,-0.02));
#920=CARTESIAN_POINT('',(-0.00315,-0.00270185121722127,-0.02));
#921=CARTESIAN_POINT('',(-0.00315,-0.00270185121722127,0.002));
#922=CARTESIAN_POINT('',(-0.00315,-0.00270185121722128,0.005));
#923=CARTESIAN_POINT('',(-0.00315,-3.46944695195361E-17,0.002));
#924=CARTESIAN_POINT('',(-0.00315,-3.46944695195361E-17,0.005));
#925=CARTESIAN_POINT('',(-1.23599047663347E-17,-2.77555756156289E-17,-0.02));
#926=CARTESIAN_POINT('',(-1.23599047663347E-17,-2.77555756156289E-17,0.002));
#927=CARTESIAN_POINT('',(-1.23599047663347E-17,-2.77555756156289E-17,0.005));
#928=CARTESIAN_POINT('',(-0.0085,0.,0.05));
#929=CARTESIAN_POINT('',(-0.0085,-0.00799030662740799,0.022009693372592));
#930=CARTESIAN_POINT('',(-0.0085,-0.00649030662740799,0.022009693372592));
#931=CARTESIAN_POINT('',(-0.0085,-0.00799030662740799,0.037990306627408));
#932=CARTESIAN_POINT('',(-0.0085,-0.00649030662740799,0.037990306627408));
#933=CARTESIAN_POINT('',(-0.0085,0.00799030662740799,0.037990306627408));
#934=CARTESIAN_POINT('',(-0.0085,0.00949030662740799,0.037990306627408));
#935=CARTESIAN_POINT('',(-0.0085,0.00799030662740799,0.0220096933725921));
#936=CARTESIAN_POINT('',(-0.0085,0.00949030662740799,0.0220096933725921));
#937=CARTESIAN_POINT('',(-0.0085,0.0182887233805892,0.0136683277003875));
#938=CARTESIAN_POINT('',(-0.0085,0.0184735797709466,0.0223366554007749));
#939=CARTESIAN_POINT('',(-0.0085,-0.0181038669902316,0.007));
#940=CARTESIAN_POINT('',(-0.0085,-0.0181038669902316,0.01325));
#941=CARTESIAN_POINT('',(-0.0085,-0.0181038669902316,0.0215));
#942=CARTESIAN_POINT('',(-0.0085,0.,0.03));
#943=CARTESIAN_POINT('',(-0.0085,0.,0.014475));
#944=CARTESIAN_POINT('',(-0.0085,0.0015,0.014475));
#945=CARTESIAN_POINT('',(-0.0085,-0.015525,0.03));
#946=CARTESIAN_POINT('',(-0.0085,-0.015525,0.0285));
#947=CARTESIAN_POINT('',(-0.0085,0.,0.045525));
#948=CARTESIAN_POINT('',(-0.0085,-0.0015,0.045525));
#949=CARTESIAN_POINT('',(-0.0085,0.015525,0.03));
#950=CARTESIAN_POINT('',(-0.0085,0.015525,0.0315));
#951=CARTESIAN_POINT('',(-0.0085,0.,0.03));
#952=CARTESIAN_POINT('',(-0.0085,0.0075,0.03));
#953=CARTESIAN_POINT('',(-0.0085,0.0145887279377012,0.035309862725131));
#954=CARTESIAN_POINT('',(-0.0085,0.0160887279377012,0.035309862725131));
#955=CARTESIAN_POINT('',(-0.0085,-0.0145887279377012,0.024690137274869));
#956=CARTESIAN_POINT('',(-0.0085,-0.0130887279377012,0.024690137274869));
#957=CARTESIAN_POINT('',(-0.0035,-0.01,0.05));
#958=CARTESIAN_POINT('',(-0.0035,-0.00799030662740799,0.022009693372592));
#959=CARTESIAN_POINT('',(-0.0035,-0.00649030662740799,0.022009693372592));
#960=CARTESIAN_POINT('',(-0.0035,-0.00799030662740799,0.037990306627408));
#961=CARTESIAN_POINT('',(-0.0035,-0.00649030662740799,0.037990306627408));
#962=CARTESIAN_POINT('',(-0.0035,0.00799030662740799,0.037990306627408));
#963=CARTESIAN_POINT('',(-0.0035,0.00949030662740799,0.037990306627408));
#964=CARTESIAN_POINT('',(-0.0035,0.00799030662740799,0.0220096933725921));
#965=CARTESIAN_POINT('',(-0.0035,0.00949030662740799,0.0220096933725921));
#966=CARTESIAN_POINT('',(-0.0035,0.0190503029204311,0.0493804878723699));
#967=CARTESIAN_POINT('',(-0.0035,0.0181474273296785,0.00704264129757871));
#968=CARTESIAN_POINT('',(-0.0035,0.0184735797709466,0.0223366554007749));
#969=CARTESIAN_POINT('',(-0.0035,0.,0.03));
#970=CARTESIAN_POINT('',(-0.0035,-0.0181038669902317,0.0215));
#971=CARTESIAN_POINT('',(-0.0035,-0.0181038669902317,0.05));
#972=CARTESIAN_POINT('',(-0.0035,-0.0181038669902317,0.007));
#973=CARTESIAN_POINT('',(-0.0035,-0.0201038669902317,0.007));
#974=CARTESIAN_POINT('',(-0.0035,-0.01,0.005));
#975=CARTESIAN_POINT('',(-0.0035,0.0201469727079435,0.007));
#976=CARTESIAN_POINT('',(-0.0035,0.,0.014475));
#977=CARTESIAN_POINT('',(-0.0035,0.0015,0.014475));
#978=CARTESIAN_POINT('',(-0.0035,-0.015525,0.03));
#979=CARTESIAN_POINT('',(-0.0035,-0.015525,0.0285));
#980=CARTESIAN_POINT('',(-0.0035,0.,0.045525));
#981=CARTESIAN_POINT('',(-0.0035,-0.0015,0.045525));
#982=CARTESIAN_POINT('',(-0.0035,0.015525,0.03));
#983=CARTESIAN_POINT('',(-0.0035,0.015525,0.0315));
#984=CARTESIAN_POINT('',(-0.0035,0.,0.03));
#985=CARTESIAN_POINT('',(-0.0035,0.0075,0.03));
#986=CARTESIAN_POINT('',(-0.0035,-0.0145887279377012,0.024690137274869));
#987=CARTESIAN_POINT('',(-0.0035,-0.0162387279377012,0.024690137274869));
#988=CARTESIAN_POINT('',(-0.0035,0.0145887279377012,0.035309862725131));
#989=CARTESIAN_POINT('',(-0.0035,0.0129387279377012,0.035309862725131));
#990=CARTESIAN_POINT('',(0.,0.,0.005));
#991=CARTESIAN_POINT('',(-0.0105,0.0181038669902317,0.005));
#992=CARTESIAN_POINT('',(0.,0.,0.005));
#993=CARTESIAN_POINT('',(0.,-0.015,0.005));
#994=CARTESIAN_POINT('',(0.0015,-0.015,0.005));
#995=CARTESIAN_POINT('',(4.33680868994202E-19,0.015,0.005));
#996=CARTESIAN_POINT('',(0.0015,0.015,0.005));
#997=CARTESIAN_POINT('',(0.0165,-0.0181038669902317,0.01325));
#998=CARTESIAN_POINT('',(-0.0035,-0.0181038669902317,0.007));
#999=CARTESIAN_POINT('',(0.0165,-0.0181038669902317,0.0215));
#1000=CARTESIAN_POINT('',(0.0165,0.0182887233805892,0.0136683277003875));
#1001=CARTESIAN_POINT('',(0.0165,0.0181474273296785,0.00704264129757872));
#1002=CARTESIAN_POINT('',(0.0165,0.0184735797709466,0.0223366554007749));
#1003=CARTESIAN_POINT('',(0.0165,0.0201469727079435,0.007));
#1004=CARTESIAN_POINT('',(-6.97493000517402E-18,-0.0201038669902317,0.007));
#1005=CARTESIAN_POINT('',(0.,0.,0.002));
#1006=CARTESIAN_POINT('',(0.,-0.015,0.002));
#1007=CARTESIAN_POINT('',(0.0015,-0.015,0.002));
#1008=CARTESIAN_POINT('',(4.33680868994202E-19,0.015,0.002));
#1009=CARTESIAN_POINT('',(0.0015,0.015,0.002));
#1010=CARTESIAN_POINT('',(-0.0105,3.6429192995513E-18,0.007));
#1011=CARTESIAN_POINT('',(-0.0085,0.,0.03));
#1012=CARTESIAN_POINT('',(0.0165,0.015525,0.03));
#1013=CARTESIAN_POINT('',(0.0165,-6.93889390390723E-18,0.045525));
#1014=CARTESIAN_POINT('',(0.0165,-0.015525,0.03));
#1015=CARTESIAN_POINT('',(0.0165,-6.93889390390723E-18,0.014475));
#1016=CARTESIAN_POINT('',(0.0165,-6.93889390390723E-18,0.03));
#1017=CARTESIAN_POINT('',(-0.0085,0.0145887279377012,0.035309862725131));
#1018=CARTESIAN_POINT('',(-0.0092,0.0145887279377012,0.035309862725131));
#1019=CARTESIAN_POINT('',(-0.0092,0.0153887279377012,0.035309862725131));
#1020=CARTESIAN_POINT('',(-0.0092,0.,0.03));
#1021=CARTESIAN_POINT('',(-0.0085,-0.0145887279377012,0.024690137274869));
#1022=CARTESIAN_POINT('',(-0.0092,-0.0145887279377012,0.024690137274869));
#1023=CARTESIAN_POINT('',(-0.0092,-0.0137887279377012,0.024690137274869));
#1024=CARTESIAN_POINT('',(-0.0092,0.,0.03));
#1025=CARTESIAN_POINT('',(-0.0035,-0.0145887279377012,0.024690137274869));
#1026=CARTESIAN_POINT('',(-0.0045,-0.0145887279377012,0.024690137274869));
#1027=CARTESIAN_POINT('',(-0.0045,-0.0152387279377012,0.024690137274869));
#1028=CARTESIAN_POINT('',(-0.0045,0.,0.088));
#1029=CARTESIAN_POINT('',(-0.0035,0.0145887279377012,0.035309862725131));
#1030=CARTESIAN_POINT('',(-0.0045,0.0145887279377012,0.035309862725131));
#1031=CARTESIAN_POINT('',(-0.0045,0.0139387279377012,0.035309862725131));
#1032=CARTESIAN_POINT('',(-0.0045,0.,0.088));
#1033=CARTESIAN_POINT('',(-0.0085,0.00799030662740799,0.0220096933725921));
#1034=CARTESIAN_POINT('',(-0.0085,0.00799030662740799,0.037990306627408));
#1035=CARTESIAN_POINT('',(-0.0085,-0.00799030662740799,0.037990306627408));
#1036=CARTESIAN_POINT('',(-0.0085,-0.00799030662740799,0.022009693372592));
#1037=CARTESIAN_POINT('',(4.33680868994202E-19,0.015,0.002));
#1038=CARTESIAN_POINT('',(0.,-0.015,0.002));
#1039=MECHANICAL_DESIGN_GEOMETRIC_PRESENTATION_REPRESENTATION('',(#590),
#1040);
#1040=(
GEOMETRIC_REPRESENTATION_CONTEXT(3)
GLOBAL_UNCERTAINTY_ASSIGNED_CONTEXT((#1041))
GLOBAL_UNIT_ASSIGNED_CONTEXT((#1044,#1043,#1042))
REPRESENTATION_CONTEXT('link-perpendicular-body',
'TOP_LEVEL_ASSEMBLY_PART')
);
#1041=UNCERTAINTY_MEASURE_WITH_UNIT(LENGTH_MEASURE(2.E-5),#1044,
'DISTANCE_ACCURACY_VALUE','Maximum Tolerance applied to model');
#1042=(
NAMED_UNIT(*)
SI_UNIT($,.STERADIAN.)
SOLID_ANGLE_UNIT()
);
#1043=(
NAMED_UNIT(*)
PLANE_ANGLE_UNIT()
SI_UNIT($,.RADIAN.)
);
#1044=(
LENGTH_UNIT()
NAMED_UNIT(*)
SI_UNIT($,.METRE.)
);
#1045=PRODUCT_DEFINITION_SHAPE('','',#1046);
#1046=PRODUCT_DEFINITION('','',#1048,#1047);
#1047=PRODUCT_DEFINITION_CONTEXT('',#1054,'design');
#1048=PRODUCT_DEFINITION_FORMATION_WITH_SPECIFIED_SOURCE('','',#1050,
 .NOT_KNOWN.);
#1049=PRODUCT_RELATED_PRODUCT_CATEGORY('','',(#1050));
#1050=PRODUCT('link-perpendicular-body','link-perpendicular-body',
'link-perpendicular-body',(#1052));
#1051=PRODUCT_CATEGORY('','');
#1052=PRODUCT_CONTEXT('',#1054,'mechanical');
#1053=APPLICATION_PROTOCOL_DEFINITION('international standard',
'ap242_managed_model_based_3d_engineering',2020,#1054);
#1054=APPLICATION_CONTEXT('managed model based 3d engineering');
ENDSEC;
END-ISO-10303-21;
