ISO-10303-21;
HEADER;
/* Generated by software containing ST-Developer
 * from STEP Tools, Inc. (www.steptools.com) 
 */
/* OPTION: using custom renumber hook */

FILE_DESCRIPTION(
/* description */ ('STEP AP242 Edition 2',
'CAx-IF Rec.Pracs.---Representation and Presentation of Product Manufa
cturing Information (PMI)---4.0---2014-10-13',
'CAx-IF Rec.Pracs.---3D Tessellated Geometry---0.4---2014-09-14','2;1',
'CAx-IF Rec.Pracs.---User Defined Attributes---1.5---2016-08-15'),
/* implementation_level */ '2;1');

FILE_NAME(
/* name */ 'Part Studio 1 - elbow-to-shoulder-link',
/* time_stamp */ '2026-08-24T08:36:41Z',
/* author */ (''),
/* organization */ (''),
/* preprocessor_version */ 'ST-DEVELOPER v20',
/* originating_system */ 'ONSHAPE BY PTC INC, 1.219',
/* authorisation */ '  ');

FILE_SCHEMA (('AP242_MANAGED_MODEL_BASED_3D_ENGINEERING_MIM_LF { 1 0 10303 442 3 1 4 }'));
ENDSEC;

DATA;
#10=SHAPE_REPRESENTATION_RELATIONSHIP('','',#1055,#11);
#11=ADVANCED_BREP_SHAPE_REPRESENTATION('',(#1053),#1763);
#12=CONICAL_SURFACE('',#1157,0.0015,0.785398163397448);
#13=CONICAL_SURFACE('',#1160,0.0015,0.785398163397448);
#14=CONICAL_SURFACE('',#1163,0.00165,0.785398163397448);
#15=CONICAL_SURFACE('',#1166,0.00165,0.785398163397448);
#16=PLANE('',#1060);
#17=PLANE('',#1064);
#18=PLANE('',#1068);
#19=PLANE('',#1072);
#20=PLANE('',#1076);
#21=PLANE('',#1077);
#22=PLANE('',#1078);
#23=PLANE('',#1082);
#24=PLANE('',#1086);
#25=PLANE('',#1087);
#26=PLANE('',#1088);
#27=PLANE('',#1092);
#28=PLANE('',#1099);
#29=PLANE('',#1127);
#30=PLANE('',#1131);
#31=PLANE('',#1132);
#32=PLANE('',#1133);
#33=PLANE('',#1134);
#34=PLANE('',#1138);
#35=PLANE('',#1139);
#36=PLANE('',#1143);
#37=PLANE('',#1149);
#38=PLANE('',#1156);
#39=PLANE('',#1159);
#40=PLANE('',#1162);
#41=PLANE('',#1165);
#42=PLANE('',#1168);
#43=LINE('',#1480,#117);
#44=LINE('',#1484,#118);
#45=LINE('',#1486,#119);
#46=LINE('',#1488,#120);
#47=LINE('',#1490,#121);
#48=LINE('',#1494,#122);
#49=LINE('',#1498,#123);
#50=LINE('',#1501,#124);
#51=LINE('',#1503,#125);
#52=LINE('',#1505,#126);
#53=LINE('',#1509,#127);
#54=LINE('',#1513,#128);
#55=LINE('',#1515,#129);
#56=LINE('',#1517,#130);
#57=LINE('',#1522,#131);
#58=LINE('',#1526,#132);
#59=LINE('',#1528,#133);
#60=LINE('',#1530,#134);
#61=LINE('',#1532,#135);
#62=LINE('',#1536,#136);
#63=LINE('',#1540,#137);
#64=LINE('',#1543,#138);
#65=LINE('',#1545,#139);
#66=LINE('',#1547,#140);
#67=LINE('',#1549,#141);
#68=LINE('',#1551,#142);
#69=LINE('',#1553,#143);
#70=LINE('',#1555,#144);
#71=LINE('',#1557,#145);
#72=LINE('',#1559,#146);
#73=LINE('',#1564,#147);
#74=LINE('',#1568,#148);
#75=LINE('',#1570,#149);
#76=LINE('',#1572,#150);
#77=LINE('',#1574,#151);
#78=LINE('',#1578,#152);
#79=LINE('',#1582,#153);
#80=LINE('',#1585,#154);
#81=LINE('',#1587,#155);
#82=LINE('',#1589,#156);
#83=LINE('',#1591,#157);
#84=LINE('',#1593,#158);
#85=LINE('',#1595,#159);
#86=LINE('',#1597,#160);
#87=LINE('',#1599,#161);
#88=LINE('',#1601,#162);
#89=LINE('',#1606,#163);
#90=LINE('',#1610,#164);
#91=LINE('',#1612,#165);
#92=LINE('',#1614,#166);
#93=LINE('',#1616,#167);
#94=LINE('',#1620,#168);
#95=LINE('',#1627,#169);
#96=LINE('',#1631,#170);
#97=LINE('',#1633,#171);
#98=LINE('',#1635,#172);
#99=LINE('',#1637,#173);
#100=LINE('',#1641,#174);
#101=LINE('',#1685,#175);
#102=LINE('',#1686,#176);
#103=LINE('',#1691,#177);
#104=LINE('',#1692,#178);
#105=LINE('',#1694,#179);
#106=LINE('',#1695,#180);
#107=LINE('',#1697,#181);
#108=LINE('',#1698,#182);
#109=LINE('',#1700,#183);
#110=LINE('',#1701,#184);
#111=LINE('',#1708,#185);
#112=LINE('',#1711,#186);
#113=LINE('',#1713,#187);
#114=LINE('',#1715,#188);
#115=LINE('',#1717,#189);
#116=LINE('',#1718,#190);
#117=VECTOR('',#1177,1.);
#118=VECTOR('',#1180,1.);
#119=VECTOR('',#1183,1.);
#120=VECTOR('',#1184,1.);
#121=VECTOR('',#1185,1.);
#122=VECTOR('',#1190,1.);
#123=VECTOR('',#1195,1.);
#124=VECTOR('',#1196,1.);
#125=VECTOR('',#1197,1.);
#126=VECTOR('',#1198,1.);
#127=VECTOR('',#1203,1.);
#128=VECTOR('',#1208,1.);
#129=VECTOR('',#1209,1.);
#130=VECTOR('',#1210,1.);
#131=VECTOR('',#1215,1.);
#132=VECTOR('',#1218,1.);
#133=VECTOR('',#1221,1.);
#134=VECTOR('',#1222,1.);
#135=VECTOR('',#1223,1.);
#136=VECTOR('',#1228,1.);
#137=VECTOR('',#1233,1.);
#138=VECTOR('',#1234,1.);
#139=VECTOR('',#1235,1.);
#140=VECTOR('',#1236,1.);
#141=VECTOR('',#1239,1.);
#142=VECTOR('',#1240,1.);
#143=VECTOR('',#1241,1.);
#144=VECTOR('',#1244,1.);
#145=VECTOR('',#1245,1.);
#146=VECTOR('',#1246,1.);
#147=VECTOR('',#1251,1.);
#148=VECTOR('',#1254,1.);
#149=VECTOR('',#1257,1.);
#150=VECTOR('',#1258,1.);
#151=VECTOR('',#1259,1.);
#152=VECTOR('',#1264,1.);
#153=VECTOR('',#1269,1.);
#154=VECTOR('',#1270,1.);
#155=VECTOR('',#1271,1.);
#156=VECTOR('',#1272,1.);
#157=VECTOR('',#1275,1.);
#158=VECTOR('',#1276,1.);
#159=VECTOR('',#1277,1.);
#160=VECTOR('',#1280,1.);
#161=VECTOR('',#1281,1.);
#162=VECTOR('',#1282,1.);
#163=VECTOR('',#1287,1.);
#164=VECTOR('',#1290,1.);
#165=VECTOR('',#1293,1.);
#166=VECTOR('',#1294,1.);
#167=VECTOR('',#1295,1.);
#168=VECTOR('',#1300,1.);
#169=VECTOR('',#1307,1.);
#170=VECTOR('',#1310,1.);
#171=VECTOR('',#1313,1.);
#172=VECTOR('',#1314,1.);
#173=VECTOR('',#1315,1.);
#174=VECTOR('',#1320,1.);
#175=VECTOR('',#1373,1.);
#176=VECTOR('',#1374,1.);
#177=VECTOR('',#1383,1.);
#178=VECTOR('',#1384,1.);
#179=VECTOR('',#1387,1.);
#180=VECTOR('',#1388,1.);
#181=VECTOR('',#1391,1.);
#182=VECTOR('',#1392,1.);
#183=VECTOR('',#1395,1.);
#184=VECTOR('',#1396,1.);
#185=VECTOR('',#1405,1.);
#186=VECTOR('',#1406,1.);
#187=VECTOR('',#1407,1.);
#188=VECTOR('',#1408,1.);
#189=VECTOR('',#1411,1.);
#190=VECTOR('',#1412,1.);
#191=ORIENTED_EDGE('',*,*,#455,.F.);
#192=ORIENTED_EDGE('',*,*,#456,.F.);
#193=ORIENTED_EDGE('',*,*,#457,.T.);
#194=ORIENTED_EDGE('',*,*,#458,.T.);
#195=ORIENTED_EDGE('',*,*,#459,.T.);
#196=ORIENTED_EDGE('',*,*,#460,.F.);
#197=ORIENTED_EDGE('',*,*,#461,.F.);
#198=ORIENTED_EDGE('',*,*,#456,.T.);
#199=ORIENTED_EDGE('',*,*,#462,.T.);
#200=ORIENTED_EDGE('',*,*,#463,.F.);
#201=ORIENTED_EDGE('',*,*,#464,.F.);
#202=ORIENTED_EDGE('',*,*,#460,.T.);
#203=ORIENTED_EDGE('',*,*,#465,.T.);
#204=ORIENTED_EDGE('',*,*,#466,.F.);
#205=ORIENTED_EDGE('',*,*,#467,.F.);
#206=ORIENTED_EDGE('',*,*,#468,.T.);
#207=ORIENTED_EDGE('',*,*,#469,.T.);
#208=ORIENTED_EDGE('',*,*,#470,.F.);
#209=ORIENTED_EDGE('',*,*,#471,.F.);
#210=ORIENTED_EDGE('',*,*,#466,.T.);
#211=ORIENTED_EDGE('',*,*,#472,.F.);
#212=ORIENTED_EDGE('',*,*,#473,.F.);
#213=ORIENTED_EDGE('',*,*,#474,.T.);
#214=ORIENTED_EDGE('',*,*,#470,.T.);
#215=ORIENTED_EDGE('',*,*,#475,.F.);
#216=ORIENTED_EDGE('',*,*,#476,.F.);
#217=ORIENTED_EDGE('',*,*,#477,.T.);
#218=ORIENTED_EDGE('',*,*,#478,.T.);
#219=ORIENTED_EDGE('',*,*,#479,.T.);
#220=ORIENTED_EDGE('',*,*,#480,.F.);
#221=ORIENTED_EDGE('',*,*,#481,.F.);
#222=ORIENTED_EDGE('',*,*,#476,.T.);
#223=ORIENTED_EDGE('',*,*,#482,.T.);
#224=ORIENTED_EDGE('',*,*,#483,.F.);
#225=ORIENTED_EDGE('',*,*,#484,.F.);
#226=ORIENTED_EDGE('',*,*,#480,.T.);
#227=ORIENTED_EDGE('',*,*,#485,.F.);
#228=ORIENTED_EDGE('',*,*,#486,.F.);
#229=ORIENTED_EDGE('',*,*,#487,.T.);
#230=ORIENTED_EDGE('',*,*,#488,.T.);
#231=ORIENTED_EDGE('',*,*,#489,.F.);
#232=ORIENTED_EDGE('',*,*,#490,.F.);
#233=ORIENTED_EDGE('',*,*,#491,.T.);
#234=ORIENTED_EDGE('',*,*,#486,.T.);
#235=ORIENTED_EDGE('',*,*,#492,.T.);
#236=ORIENTED_EDGE('',*,*,#493,.F.);
#237=ORIENTED_EDGE('',*,*,#494,.F.);
#238=ORIENTED_EDGE('',*,*,#490,.T.);
#239=ORIENTED_EDGE('',*,*,#495,.F.);
#240=ORIENTED_EDGE('',*,*,#496,.F.);
#241=ORIENTED_EDGE('',*,*,#497,.T.);
#242=ORIENTED_EDGE('',*,*,#498,.T.);
#243=ORIENTED_EDGE('',*,*,#499,.T.);
#244=ORIENTED_EDGE('',*,*,#500,.F.);
#245=ORIENTED_EDGE('',*,*,#501,.F.);
#246=ORIENTED_EDGE('',*,*,#496,.T.);
#247=ORIENTED_EDGE('',*,*,#502,.T.);
#248=ORIENTED_EDGE('',*,*,#503,.F.);
#249=ORIENTED_EDGE('',*,*,#504,.F.);
#250=ORIENTED_EDGE('',*,*,#500,.T.);
#251=ORIENTED_EDGE('',*,*,#505,.F.);
#252=ORIENTED_EDGE('',*,*,#506,.F.);
#253=ORIENTED_EDGE('',*,*,#507,.T.);
#254=ORIENTED_EDGE('',*,*,#508,.T.);
#255=ORIENTED_EDGE('',*,*,#509,.F.);
#256=ORIENTED_EDGE('',*,*,#510,.F.);
#257=ORIENTED_EDGE('',*,*,#511,.T.);
#258=ORIENTED_EDGE('',*,*,#506,.T.);
#259=ORIENTED_EDGE('',*,*,#512,.T.);
#260=ORIENTED_EDGE('',*,*,#513,.F.);
#261=ORIENTED_EDGE('',*,*,#514,.F.);
#262=ORIENTED_EDGE('',*,*,#510,.T.);
#263=ORIENTED_EDGE('',*,*,#515,.F.);
#264=ORIENTED_EDGE('',*,*,#516,.T.);
#265=ORIENTED_EDGE('',*,*,#517,.T.);
#266=ORIENTED_EDGE('',*,*,#518,.F.);
#267=ORIENTED_EDGE('',*,*,#519,.F.);
#268=ORIENTED_EDGE('',*,*,#520,.F.);
#269=ORIENTED_EDGE('',*,*,#521,.T.);
#270=ORIENTED_EDGE('',*,*,#518,.T.);
#271=ORIENTED_EDGE('',*,*,#522,.T.);
#272=ORIENTED_EDGE('',*,*,#523,.T.);
#273=ORIENTED_EDGE('',*,*,#524,.F.);
#274=ORIENTED_EDGE('',*,*,#520,.T.);
#275=ORIENTED_EDGE('',*,*,#525,.F.);
#276=ORIENTED_EDGE('',*,*,#526,.F.);
#277=ORIENTED_EDGE('',*,*,#527,.T.);
#278=ORIENTED_EDGE('',*,*,#528,.T.);
#279=ORIENTED_EDGE('',*,*,#529,.F.);
#280=ORIENTED_EDGE('',*,*,#530,.F.);
#281=ORIENTED_EDGE('',*,*,#531,.T.);
#282=ORIENTED_EDGE('',*,*,#526,.T.);
#283=ORIENTED_EDGE('',*,*,#532,.F.);
#284=ORIENTED_EDGE('',*,*,#533,.F.);
#285=ORIENTED_EDGE('',*,*,#534,.T.);
#286=ORIENTED_EDGE('',*,*,#530,.T.);
#287=ORIENTED_EDGE('',*,*,#535,.T.);
#288=ORIENTED_EDGE('',*,*,#536,.F.);
#289=ORIENTED_EDGE('',*,*,#537,.T.);
#290=ORIENTED_EDGE('',*,*,#538,.F.);
#291=ORIENTED_EDGE('',*,*,#539,.T.);
#292=ORIENTED_EDGE('',*,*,#540,.F.);
#293=ORIENTED_EDGE('',*,*,#541,.T.);
#294=ORIENTED_EDGE('',*,*,#542,.F.);
#295=ORIENTED_EDGE('',*,*,#543,.T.);
#296=ORIENTED_EDGE('',*,*,#544,.F.);
#297=ORIENTED_EDGE('',*,*,#545,.T.);
#298=ORIENTED_EDGE('',*,*,#546,.F.);
#299=ORIENTED_EDGE('',*,*,#547,.T.);
#300=ORIENTED_EDGE('',*,*,#548,.F.);
#301=ORIENTED_EDGE('',*,*,#549,.T.);
#302=ORIENTED_EDGE('',*,*,#550,.F.);
#303=ORIENTED_EDGE('',*,*,#551,.F.);
#304=ORIENTED_EDGE('',*,*,#458,.F.);
#305=ORIENTED_EDGE('',*,*,#552,.T.);
#306=ORIENTED_EDGE('',*,*,#463,.T.);
#307=ORIENTED_EDGE('',*,*,#553,.F.);
#308=ORIENTED_EDGE('',*,*,#468,.F.);
#309=ORIENTED_EDGE('',*,*,#554,.T.);
#310=ORIENTED_EDGE('',*,*,#473,.T.);
#311=ORIENTED_EDGE('',*,*,#555,.F.);
#312=ORIENTED_EDGE('',*,*,#478,.F.);
#313=ORIENTED_EDGE('',*,*,#556,.T.);
#314=ORIENTED_EDGE('',*,*,#483,.T.);
#315=ORIENTED_EDGE('',*,*,#557,.T.);
#316=ORIENTED_EDGE('',*,*,#488,.F.);
#317=ORIENTED_EDGE('',*,*,#558,.F.);
#318=ORIENTED_EDGE('',*,*,#493,.T.);
#319=ORIENTED_EDGE('',*,*,#559,.F.);
#320=ORIENTED_EDGE('',*,*,#498,.F.);
#321=ORIENTED_EDGE('',*,*,#560,.T.);
#322=ORIENTED_EDGE('',*,*,#503,.T.);
#323=ORIENTED_EDGE('',*,*,#561,.T.);
#324=ORIENTED_EDGE('',*,*,#508,.F.);
#325=ORIENTED_EDGE('',*,*,#562,.F.);
#326=ORIENTED_EDGE('',*,*,#513,.T.);
#327=ORIENTED_EDGE('',*,*,#563,.T.);
#328=ORIENTED_EDGE('',*,*,#564,.F.);
#329=ORIENTED_EDGE('',*,*,#565,.T.);
#330=ORIENTED_EDGE('',*,*,#566,.T.);
#331=ORIENTED_EDGE('',*,*,#567,.F.);
#332=ORIENTED_EDGE('',*,*,#568,.T.);
#333=ORIENTED_EDGE('',*,*,#569,.T.);
#334=ORIENTED_EDGE('',*,*,#528,.F.);
#335=ORIENTED_EDGE('',*,*,#570,.F.);
#336=ORIENTED_EDGE('',*,*,#533,.T.);
#337=ORIENTED_EDGE('',*,*,#571,.T.);
#338=ORIENTED_EDGE('',*,*,#572,.F.);
#339=ORIENTED_EDGE('',*,*,#573,.F.);
#340=ORIENTED_EDGE('',*,*,#574,.F.);
#341=ORIENTED_EDGE('',*,*,#575,.F.);
#342=ORIENTED_EDGE('',*,*,#567,.T.);
#343=ORIENTED_EDGE('',*,*,#576,.T.);
#344=ORIENTED_EDGE('',*,*,#515,.T.);
#345=ORIENTED_EDGE('',*,*,#521,.F.);
#346=ORIENTED_EDGE('',*,*,#524,.T.);
#347=ORIENTED_EDGE('',*,*,#577,.T.);
#348=ORIENTED_EDGE('',*,*,#563,.F.);
#349=ORIENTED_EDGE('',*,*,#507,.F.);
#350=ORIENTED_EDGE('',*,*,#511,.F.);
#351=ORIENTED_EDGE('',*,*,#514,.T.);
#352=ORIENTED_EDGE('',*,*,#562,.T.);
#353=ORIENTED_EDGE('',*,*,#497,.F.);
#354=ORIENTED_EDGE('',*,*,#501,.T.);
#355=ORIENTED_EDGE('',*,*,#504,.T.);
#356=ORIENTED_EDGE('',*,*,#560,.F.);
#357=ORIENTED_EDGE('',*,*,#487,.F.);
#358=ORIENTED_EDGE('',*,*,#491,.F.);
#359=ORIENTED_EDGE('',*,*,#494,.T.);
#360=ORIENTED_EDGE('',*,*,#558,.T.);
#361=ORIENTED_EDGE('',*,*,#477,.F.);
#362=ORIENTED_EDGE('',*,*,#481,.T.);
#363=ORIENTED_EDGE('',*,*,#484,.T.);
#364=ORIENTED_EDGE('',*,*,#556,.F.);
#365=ORIENTED_EDGE('',*,*,#467,.T.);
#366=ORIENTED_EDGE('',*,*,#471,.T.);
#367=ORIENTED_EDGE('',*,*,#474,.F.);
#368=ORIENTED_EDGE('',*,*,#554,.F.);
#369=ORIENTED_EDGE('',*,*,#457,.F.);
#370=ORIENTED_EDGE('',*,*,#461,.T.);
#371=ORIENTED_EDGE('',*,*,#464,.T.);
#372=ORIENTED_EDGE('',*,*,#552,.F.);
#373=ORIENTED_EDGE('',*,*,#549,.F.);
#374=ORIENTED_EDGE('',*,*,#547,.F.);
#375=ORIENTED_EDGE('',*,*,#545,.F.);
#376=ORIENTED_EDGE('',*,*,#543,.F.);
#377=ORIENTED_EDGE('',*,*,#541,.F.);
#378=ORIENTED_EDGE('',*,*,#539,.F.);
#379=ORIENTED_EDGE('',*,*,#537,.F.);
#380=ORIENTED_EDGE('',*,*,#535,.F.);
#381=ORIENTED_EDGE('',*,*,#571,.F.);
#382=ORIENTED_EDGE('',*,*,#578,.F.);
#383=ORIENTED_EDGE('',*,*,#579,.F.);
#384=ORIENTED_EDGE('',*,*,#525,.T.);
#385=ORIENTED_EDGE('',*,*,#569,.F.);
#386=ORIENTED_EDGE('',*,*,#532,.T.);
#387=ORIENTED_EDGE('',*,*,#529,.T.);
#388=ORIENTED_EDGE('',*,*,#517,.F.);
#389=ORIENTED_EDGE('',*,*,#580,.T.);
#390=ORIENTED_EDGE('',*,*,#565,.F.);
#391=ORIENTED_EDGE('',*,*,#581,.T.);
#392=ORIENTED_EDGE('',*,*,#522,.F.);
#393=ORIENTED_EDGE('',*,*,#519,.T.);
#394=ORIENTED_EDGE('',*,*,#564,.T.);
#395=ORIENTED_EDGE('',*,*,#505,.T.);
#396=ORIENTED_EDGE('',*,*,#561,.F.);
#397=ORIENTED_EDGE('',*,*,#512,.F.);
#398=ORIENTED_EDGE('',*,*,#509,.T.);
#399=ORIENTED_EDGE('',*,*,#495,.T.);
#400=ORIENTED_EDGE('',*,*,#559,.T.);
#401=ORIENTED_EDGE('',*,*,#502,.F.);
#402=ORIENTED_EDGE('',*,*,#499,.F.);
#403=ORIENTED_EDGE('',*,*,#485,.T.);
#404=ORIENTED_EDGE('',*,*,#557,.F.);
#405=ORIENTED_EDGE('',*,*,#492,.F.);
#406=ORIENTED_EDGE('',*,*,#489,.T.);
#407=ORIENTED_EDGE('',*,*,#475,.T.);
#408=ORIENTED_EDGE('',*,*,#555,.T.);
#409=ORIENTED_EDGE('',*,*,#482,.F.);
#410=ORIENTED_EDGE('',*,*,#479,.F.);
#411=ORIENTED_EDGE('',*,*,#465,.F.);
#412=ORIENTED_EDGE('',*,*,#553,.T.);
#413=ORIENTED_EDGE('',*,*,#472,.T.);
#414=ORIENTED_EDGE('',*,*,#469,.F.);
#415=ORIENTED_EDGE('',*,*,#455,.T.);
#416=ORIENTED_EDGE('',*,*,#551,.T.);
#417=ORIENTED_EDGE('',*,*,#462,.F.);
#418=ORIENTED_EDGE('',*,*,#459,.F.);
#419=ORIENTED_EDGE('',*,*,#550,.T.);
#420=ORIENTED_EDGE('',*,*,#548,.T.);
#421=ORIENTED_EDGE('',*,*,#546,.T.);
#422=ORIENTED_EDGE('',*,*,#544,.T.);
#423=ORIENTED_EDGE('',*,*,#542,.T.);
#424=ORIENTED_EDGE('',*,*,#540,.T.);
#425=ORIENTED_EDGE('',*,*,#538,.T.);
#426=ORIENTED_EDGE('',*,*,#536,.T.);
#427=ORIENTED_EDGE('',*,*,#572,.T.);
#428=ORIENTED_EDGE('',*,*,#582,.F.);
#429=ORIENTED_EDGE('',*,*,#575,.T.);
#430=ORIENTED_EDGE('',*,*,#534,.F.);
#431=ORIENTED_EDGE('',*,*,#570,.T.);
#432=ORIENTED_EDGE('',*,*,#527,.F.);
#433=ORIENTED_EDGE('',*,*,#531,.F.);
#434=ORIENTED_EDGE('',*,*,#582,.T.);
#435=ORIENTED_EDGE('',*,*,#583,.F.);
#436=ORIENTED_EDGE('',*,*,#574,.T.);
#437=ORIENTED_EDGE('',*,*,#583,.T.);
#438=ORIENTED_EDGE('',*,*,#584,.F.);
#439=ORIENTED_EDGE('',*,*,#573,.T.);
#440=ORIENTED_EDGE('',*,*,#584,.T.);
#441=ORIENTED_EDGE('',*,*,#585,.F.);
#442=ORIENTED_EDGE('',*,*,#579,.T.);
#443=ORIENTED_EDGE('',*,*,#585,.T.);
#444=ORIENTED_EDGE('',*,*,#586,.F.);
#445=ORIENTED_EDGE('',*,*,#578,.T.);
#446=ORIENTED_EDGE('',*,*,#586,.T.);
#447=ORIENTED_EDGE('',*,*,#576,.F.);
#448=ORIENTED_EDGE('',*,*,#566,.F.);
#449=ORIENTED_EDGE('',*,*,#580,.F.);
#450=ORIENTED_EDGE('',*,*,#516,.F.);
#451=ORIENTED_EDGE('',*,*,#577,.F.);
#452=ORIENTED_EDGE('',*,*,#523,.F.);
#453=ORIENTED_EDGE('',*,*,#581,.F.);
#454=ORIENTED_EDGE('',*,*,#568,.F.);
#455=EDGE_CURVE('',#587,#588,#685,.T.);
#456=EDGE_CURVE('',#589,#587,#43,.T.);
#457=EDGE_CURVE('',#589,#590,#686,.T.);
#458=EDGE_CURVE('',#590,#588,#44,.T.);
#459=EDGE_CURVE('',#587,#591,#45,.T.);
#460=EDGE_CURVE('',#592,#591,#46,.T.);
#461=EDGE_CURVE('',#589,#592,#47,.T.);
#462=EDGE_CURVE('',#591,#593,#687,.T.);
#463=EDGE_CURVE('',#594,#593,#48,.T.);
#464=EDGE_CURVE('',#592,#594,#688,.T.);
#465=EDGE_CURVE('',#595,#596,#49,.T.);
#466=EDGE_CURVE('',#597,#596,#50,.T.);
#467=EDGE_CURVE('',#598,#597,#51,.T.);
#468=EDGE_CURVE('',#598,#595,#52,.T.);
#469=EDGE_CURVE('',#596,#599,#689,.T.);
#470=EDGE_CURVE('',#600,#599,#53,.T.);
#471=EDGE_CURVE('',#597,#600,#690,.T.);
#472=EDGE_CURVE('',#601,#599,#54,.T.);
#473=EDGE_CURVE('',#602,#601,#55,.T.);
#474=EDGE_CURVE('',#602,#600,#56,.T.);
#475=EDGE_CURVE('',#603,#604,#691,.T.);
#476=EDGE_CURVE('',#605,#603,#57,.T.);
#477=EDGE_CURVE('',#605,#606,#692,.T.);
#478=EDGE_CURVE('',#606,#604,#58,.T.);
#479=EDGE_CURVE('',#603,#607,#59,.T.);
#480=EDGE_CURVE('',#608,#607,#60,.T.);
#481=EDGE_CURVE('',#605,#608,#61,.T.);
#482=EDGE_CURVE('',#607,#609,#693,.T.);
#483=EDGE_CURVE('',#610,#609,#62,.T.);
#484=EDGE_CURVE('',#608,#610,#694,.T.);
#485=EDGE_CURVE('',#611,#612,#63,.T.);
#486=EDGE_CURVE('',#613,#611,#64,.T.);
#487=EDGE_CURVE('',#613,#614,#65,.T.);
#488=EDGE_CURVE('',#614,#612,#66,.T.);
#489=EDGE_CURVE('',#615,#611,#67,.T.);
#490=EDGE_CURVE('',#616,#615,#68,.T.);
#491=EDGE_CURVE('',#616,#613,#69,.T.);
#492=EDGE_CURVE('',#615,#617,#70,.T.);
#493=EDGE_CURVE('',#618,#617,#71,.T.);
#494=EDGE_CURVE('',#616,#618,#72,.T.);
#495=EDGE_CURVE('',#619,#620,#695,.T.);
#496=EDGE_CURVE('',#621,#619,#73,.T.);
#497=EDGE_CURVE('',#621,#622,#696,.T.);
#498=EDGE_CURVE('',#622,#620,#74,.T.);
#499=EDGE_CURVE('',#619,#623,#75,.T.);
#500=EDGE_CURVE('',#624,#623,#76,.T.);
#501=EDGE_CURVE('',#621,#624,#77,.T.);
#502=EDGE_CURVE('',#623,#625,#697,.T.);
#503=EDGE_CURVE('',#626,#625,#78,.T.);
#504=EDGE_CURVE('',#624,#626,#698,.T.);
#505=EDGE_CURVE('',#627,#628,#79,.T.);
#506=EDGE_CURVE('',#629,#627,#80,.T.);
#507=EDGE_CURVE('',#629,#630,#81,.T.);
#508=EDGE_CURVE('',#630,#628,#82,.T.);
#509=EDGE_CURVE('',#631,#627,#83,.T.);
#510=EDGE_CURVE('',#632,#631,#84,.T.);
#511=EDGE_CURVE('',#632,#629,#85,.T.);
#512=EDGE_CURVE('',#631,#633,#86,.T.);
#513=EDGE_CURVE('',#634,#633,#87,.T.);
#514=EDGE_CURVE('',#632,#634,#88,.T.);
#515=EDGE_CURVE('',#635,#636,#699,.T.);
#516=EDGE_CURVE('',#635,#637,#89,.T.);
#517=EDGE_CURVE('',#637,#638,#700,.T.);
#518=EDGE_CURVE('',#636,#638,#90,.T.);
#519=EDGE_CURVE('',#639,#638,#91,.T.);
#520=EDGE_CURVE('',#640,#639,#92,.T.);
#521=EDGE_CURVE('',#640,#636,#93,.T.);
#522=EDGE_CURVE('',#639,#641,#701,.T.);
#523=EDGE_CURVE('',#641,#642,#94,.F.);
#524=EDGE_CURVE('',#640,#642,#702,.T.);
#525=EDGE_CURVE('',#643,#644,#703,.T.);
#526=EDGE_CURVE('',#645,#643,#95,.T.);
#527=EDGE_CURVE('',#645,#646,#704,.T.);
#528=EDGE_CURVE('',#646,#644,#96,.T.);
#529=EDGE_CURVE('',#647,#643,#97,.T.);
#530=EDGE_CURVE('',#648,#647,#98,.T.);
#531=EDGE_CURVE('',#648,#645,#99,.T.);
#532=EDGE_CURVE('',#649,#647,#705,.T.);
#533=EDGE_CURVE('',#650,#649,#100,.T.);
#534=EDGE_CURVE('',#650,#648,#706,.T.);
#535=EDGE_CURVE('',#651,#651,#707,.T.);
#536=EDGE_CURVE('',#652,#652,#708,.T.);
#537=EDGE_CURVE('',#653,#653,#709,.T.);
#538=EDGE_CURVE('',#654,#654,#710,.T.);
#539=EDGE_CURVE('',#655,#655,#711,.T.);
#540=EDGE_CURVE('',#656,#656,#712,.T.);
#541=EDGE_CURVE('',#657,#657,#713,.T.);
#542=EDGE_CURVE('',#658,#658,#714,.T.);
#543=EDGE_CURVE('',#659,#659,#715,.T.);
#544=EDGE_CURVE('',#660,#660,#716,.T.);
#545=EDGE_CURVE('',#661,#661,#717,.T.);
#546=EDGE_CURVE('',#662,#662,#718,.T.);
#547=EDGE_CURVE('',#663,#663,#719,.T.);
#548=EDGE_CURVE('',#664,#664,#720,.T.);
#549=EDGE_CURVE('',#665,#665,#721,.T.);
#550=EDGE_CURVE('',#666,#666,#722,.T.);
#551=EDGE_CURVE('',#588,#593,#101,.T.);
#552=EDGE_CURVE('',#590,#594,#102,.T.);
#553=EDGE_CURVE('',#595,#601,#723,.T.);
#554=EDGE_CURVE('',#598,#602,#724,.T.);
#555=EDGE_CURVE('',#604,#609,#103,.T.);
#556=EDGE_CURVE('',#606,#610,#104,.T.);
#557=EDGE_CURVE('',#617,#612,#105,.T.);
#558=EDGE_CURVE('',#618,#614,#106,.T.);
#559=EDGE_CURVE('',#620,#625,#107,.T.);
#560=EDGE_CURVE('',#622,#626,#108,.T.);
#561=EDGE_CURVE('',#633,#628,#109,.T.);
#562=EDGE_CURVE('',#634,#630,#110,.T.);
#563=EDGE_CURVE('',#667,#667,#725,.T.);
#564=EDGE_CURVE('',#668,#668,#726,.T.);
#565=EDGE_CURVE('',#669,#670,#111,.T.);
#566=EDGE_CURVE('',#670,#671,#112,.T.);
#567=EDGE_CURVE('',#672,#671,#113,.T.);
#568=EDGE_CURVE('',#672,#669,#114,.F.);
#569=EDGE_CURVE('',#649,#644,#115,.T.);
#570=EDGE_CURVE('',#650,#646,#116,.T.);
#571=EDGE_CURVE('',#673,#673,#727,.T.);
#572=EDGE_CURVE('',#674,#674,#728,.T.);
#573=EDGE_CURVE('',#675,#675,#729,.T.);
#574=EDGE_CURVE('',#676,#676,#730,.T.);
#575=EDGE_CURVE('',#677,#677,#731,.T.);
#576=EDGE_CURVE('',#671,#635,#732,.F.);
#577=EDGE_CURVE('',#642,#672,#733,.F.);
#578=EDGE_CURVE('',#678,#678,#734,.T.);
#579=EDGE_CURVE('',#679,#679,#735,.T.);
#580=EDGE_CURVE('',#637,#670,#736,.T.);
#581=EDGE_CURVE('',#669,#641,#737,.T.);
#582=EDGE_CURVE('',#680,#680,#738,.T.);
#583=EDGE_CURVE('',#681,#681,#739,.T.);
#584=EDGE_CURVE('',#682,#682,#740,.T.);
#585=EDGE_CURVE('',#683,#683,#741,.T.);
#586=EDGE_CURVE('',#684,#684,#742,.T.);
#587=VERTEX_POINT('',#1478);
#588=VERTEX_POINT('',#1479);
#589=VERTEX_POINT('',#1481);
#590=VERTEX_POINT('',#1483);
#591=VERTEX_POINT('',#1487);
#592=VERTEX_POINT('',#1489);
#593=VERTEX_POINT('',#1493);
#594=VERTEX_POINT('',#1495);
#595=VERTEX_POINT('',#1499);
#596=VERTEX_POINT('',#1500);
#597=VERTEX_POINT('',#1502);
#598=VERTEX_POINT('',#1504);
#599=VERTEX_POINT('',#1508);
#600=VERTEX_POINT('',#1510);
#601=VERTEX_POINT('',#1514);
#602=VERTEX_POINT('',#1516);
#603=VERTEX_POINT('',#1520);
#604=VERTEX_POINT('',#1521);
#605=VERTEX_POINT('',#1523);
#606=VERTEX_POINT('',#1525);
#607=VERTEX_POINT('',#1529);
#608=VERTEX_POINT('',#1531);
#609=VERTEX_POINT('',#1535);
#610=VERTEX_POINT('',#1537);
#611=VERTEX_POINT('',#1541);
#612=VERTEX_POINT('',#1542);
#613=VERTEX_POINT('',#1544);
#614=VERTEX_POINT('',#1546);
#615=VERTEX_POINT('',#1550);
#616=VERTEX_POINT('',#1552);
#617=VERTEX_POINT('',#1556);
#618=VERTEX_POINT('',#1558);
#619=VERTEX_POINT('',#1562);
#620=VERTEX_POINT('',#1563);
#621=VERTEX_POINT('',#1565);
#622=VERTEX_POINT('',#1567);
#623=VERTEX_POINT('',#1571);
#624=VERTEX_POINT('',#1573);
#625=VERTEX_POINT('',#1577);
#626=VERTEX_POINT('',#1579);
#627=VERTEX_POINT('',#1583);
#628=VERTEX_POINT('',#1584);
#629=VERTEX_POINT('',#1586);
#630=VERTEX_POINT('',#1588);
#631=VERTEX_POINT('',#1592);
#632=VERTEX_POINT('',#1594);
#633=VERTEX_POINT('',#1598);
#634=VERTEX_POINT('',#1600);
#635=VERTEX_POINT('',#1604);
#636=VERTEX_POINT('',#1605);
#637=VERTEX_POINT('',#1607);
#638=VERTEX_POINT('',#1609);
#639=VERTEX_POINT('',#1613);
#640=VERTEX_POINT('',#1615);
#641=VERTEX_POINT('',#1619);
#642=VERTEX_POINT('',#1621);
#643=VERTEX_POINT('',#1625);
#644=VERTEX_POINT('',#1626);
#645=VERTEX_POINT('',#1628);
#646=VERTEX_POINT('',#1630);
#647=VERTEX_POINT('',#1634);
#648=VERTEX_POINT('',#1636);
#649=VERTEX_POINT('',#1640);
#650=VERTEX_POINT('',#1642);
#651=VERTEX_POINT('',#1646);
#652=VERTEX_POINT('',#1648);
#653=VERTEX_POINT('',#1651);
#654=VERTEX_POINT('',#1653);
#655=VERTEX_POINT('',#1656);
#656=VERTEX_POINT('',#1658);
#657=VERTEX_POINT('',#1661);
#658=VERTEX_POINT('',#1663);
#659=VERTEX_POINT('',#1666);
#660=VERTEX_POINT('',#1668);
#661=VERTEX_POINT('',#1671);
#662=VERTEX_POINT('',#1673);
#663=VERTEX_POINT('',#1676);
#664=VERTEX_POINT('',#1678);
#665=VERTEX_POINT('',#1681);
#666=VERTEX_POINT('',#1683);
#667=VERTEX_POINT('',#1704);
#668=VERTEX_POINT('',#1706);
#669=VERTEX_POINT('',#1709);
#670=VERTEX_POINT('',#1710);
#671=VERTEX_POINT('',#1712);
#672=VERTEX_POINT('',#1714);
#673=VERTEX_POINT('',#1721);
#674=VERTEX_POINT('',#1723);
#675=VERTEX_POINT('',#1726);
#676=VERTEX_POINT('',#1728);
#677=VERTEX_POINT('',#1730);
#678=VERTEX_POINT('',#1735);
#679=VERTEX_POINT('',#1737);
#680=VERTEX_POINT('',#1742);
#681=VERTEX_POINT('',#1746);
#682=VERTEX_POINT('',#1750);
#683=VERTEX_POINT('',#1754);
#684=VERTEX_POINT('',#1758);
#685=CIRCLE('',#1058,0.00600000000000035);
#686=CIRCLE('',#1059,0.00600000000000035);
#687=CIRCLE('',#1062,0.004);
#688=CIRCLE('',#1063,0.004);
#689=CIRCLE('',#1066,0.00400000000000012);
#690=CIRCLE('',#1067,0.00400000000000012);
#691=CIRCLE('',#1070,0.00600000000000013);
#692=CIRCLE('',#1071,0.00600000000000013);
#693=CIRCLE('',#1074,0.00400000000000056);
#694=CIRCLE('',#1075,0.00400000000000056);
#695=CIRCLE('',#1080,0.0060000000000012);
#696=CIRCLE('',#1081,0.0060000000000012);
#697=CIRCLE('',#1084,0.00399999999999994);
#698=CIRCLE('',#1085,0.00399999999999994);
#699=CIRCLE('',#1090,0.02);
#700=CIRCLE('',#1091,0.02);
#701=CIRCLE('',#1094,0.02);
#702=CIRCLE('',#1095,0.02);
#703=CIRCLE('',#1097,0.00415);
#704=CIRCLE('',#1098,0.00415);
#705=CIRCLE('',#1101,0.00415);
#706=CIRCLE('',#1102,0.00415);
#707=CIRCLE('',#1104,0.001425);
#708=CIRCLE('',#1105,0.001425);
#709=CIRCLE('',#1107,0.0075);
#710=CIRCLE('',#1108,0.0075);
#711=CIRCLE('',#1110,0.001425);
#712=CIRCLE('',#1111,0.001425);
#713=CIRCLE('',#1113,0.0015);
#714=CIRCLE('',#1114,0.0015);
#715=CIRCLE('',#1116,0.0015);
#716=CIRCLE('',#1117,0.0015);
#717=CIRCLE('',#1119,0.0015);
#718=CIRCLE('',#1120,0.0015);
#719=CIRCLE('',#1122,0.0015);
#720=CIRCLE('',#1123,0.0015);
#721=CIRCLE('',#1125,0.001425);
#722=CIRCLE('',#1126,0.001425);
#723=CIRCLE('',#1129,0.00599999999999988);
#724=CIRCLE('',#1130,0.00599999999999988);
#725=CIRCLE('',#1136,0.001425);
#726=CIRCLE('',#1137,0.001425);
#727=CIRCLE('',#1141,0.001425);
#728=CIRCLE('',#1142,0.001425);
#729=CIRCLE('',#1144,0.0015);
#730=CIRCLE('',#1145,0.0015);
#731=CIRCLE('',#1146,0.005);
#732=CIRCLE('',#1147,0.001);
#733=CIRCLE('',#1148,0.001);
#734=CIRCLE('',#1150,0.00165);
#735=CIRCLE('',#1151,0.00165);
#736=CIRCLE('',#1152,0.001);
#737=CIRCLE('',#1153,0.001);
#738=CIRCLE('',#1155,0.005);
#739=CIRCLE('',#1158,0.0008);
#740=CIRCLE('',#1161,0.0008);
#741=CIRCLE('',#1164,0.000649999999999985);
#742=CIRCLE('',#1167,0.000649999999999985);
#743=EDGE_LOOP('',(#191,#192,#193,#194));
#744=EDGE_LOOP('',(#195,#196,#197,#198));
#745=EDGE_LOOP('',(#199,#200,#201,#202));
#746=EDGE_LOOP('',(#203,#204,#205,#206));
#747=EDGE_LOOP('',(#207,#208,#209,#210));
#748=EDGE_LOOP('',(#211,#212,#213,#214));
#749=EDGE_LOOP('',(#215,#216,#217,#218));
#750=EDGE_LOOP('',(#219,#220,#221,#222));
#751=EDGE_LOOP('',(#223,#224,#225,#226));
#752=EDGE_LOOP('',(#227,#228,#229,#230));
#753=EDGE_LOOP('',(#231,#232,#233,#234));
#754=EDGE_LOOP('',(#235,#236,#237,#238));
#755=EDGE_LOOP('',(#239,#240,#241,#242));
#756=EDGE_LOOP('',(#243,#244,#245,#246));
#757=EDGE_LOOP('',(#247,#248,#249,#250));
#758=EDGE_LOOP('',(#251,#252,#253,#254));
#759=EDGE_LOOP('',(#255,#256,#257,#258));
#760=EDGE_LOOP('',(#259,#260,#261,#262));
#761=EDGE_LOOP('',(#263,#264,#265,#266));
#762=EDGE_LOOP('',(#267,#268,#269,#270));
#763=EDGE_LOOP('',(#271,#272,#273,#274));
#764=EDGE_LOOP('',(#275,#276,#277,#278));
#765=EDGE_LOOP('',(#279,#280,#281,#282));
#766=EDGE_LOOP('',(#283,#284,#285,#286));
#767=EDGE_LOOP('',(#287));
#768=EDGE_LOOP('',(#288));
#769=EDGE_LOOP('',(#289));
#770=EDGE_LOOP('',(#290));
#771=EDGE_LOOP('',(#291));
#772=EDGE_LOOP('',(#292));
#773=EDGE_LOOP('',(#293));
#774=EDGE_LOOP('',(#294));
#775=EDGE_LOOP('',(#295));
#776=EDGE_LOOP('',(#296));
#777=EDGE_LOOP('',(#297));
#778=EDGE_LOOP('',(#298));
#779=EDGE_LOOP('',(#299));
#780=EDGE_LOOP('',(#300));
#781=EDGE_LOOP('',(#301));
#782=EDGE_LOOP('',(#302));
#783=EDGE_LOOP('',(#303,#304,#305,#306));
#784=EDGE_LOOP('',(#307,#308,#309,#310));
#785=EDGE_LOOP('',(#311,#312,#313,#314));
#786=EDGE_LOOP('',(#315,#316,#317,#318));
#787=EDGE_LOOP('',(#319,#320,#321,#322));
#788=EDGE_LOOP('',(#323,#324,#325,#326));
#789=EDGE_LOOP('',(#327));
#790=EDGE_LOOP('',(#328));
#791=EDGE_LOOP('',(#329,#330,#331,#332));
#792=EDGE_LOOP('',(#333,#334,#335,#336));
#793=EDGE_LOOP('',(#337));
#794=EDGE_LOOP('',(#338));
#795=EDGE_LOOP('',(#339));
#796=EDGE_LOOP('',(#340));
#797=EDGE_LOOP('',(#341));
#798=EDGE_LOOP('',(#342,#343,#344,#345,#346,#347));
#799=EDGE_LOOP('',(#348));
#800=EDGE_LOOP('',(#349,#350,#351,#352));
#801=EDGE_LOOP('',(#353,#354,#355,#356));
#802=EDGE_LOOP('',(#357,#358,#359,#360));
#803=EDGE_LOOP('',(#361,#362,#363,#364));
#804=EDGE_LOOP('',(#365,#366,#367,#368));
#805=EDGE_LOOP('',(#369,#370,#371,#372));
#806=EDGE_LOOP('',(#373));
#807=EDGE_LOOP('',(#374));
#808=EDGE_LOOP('',(#375));
#809=EDGE_LOOP('',(#376));
#810=EDGE_LOOP('',(#377));
#811=EDGE_LOOP('',(#378));
#812=EDGE_LOOP('',(#379));
#813=EDGE_LOOP('',(#380));
#814=EDGE_LOOP('',(#381));
#815=EDGE_LOOP('',(#382));
#816=EDGE_LOOP('',(#383));
#817=EDGE_LOOP('',(#384,#385,#386,#387));
#818=EDGE_LOOP('',(#388,#389,#390,#391,#392,#393));
#819=EDGE_LOOP('',(#394));
#820=EDGE_LOOP('',(#395,#396,#397,#398));
#821=EDGE_LOOP('',(#399,#400,#401,#402));
#822=EDGE_LOOP('',(#403,#404,#405,#406));
#823=EDGE_LOOP('',(#407,#408,#409,#410));
#824=EDGE_LOOP('',(#411,#412,#413,#414));
#825=EDGE_LOOP('',(#415,#416,#417,#418));
#826=EDGE_LOOP('',(#419));
#827=EDGE_LOOP('',(#420));
#828=EDGE_LOOP('',(#421));
#829=EDGE_LOOP('',(#422));
#830=EDGE_LOOP('',(#423));
#831=EDGE_LOOP('',(#424));
#832=EDGE_LOOP('',(#425));
#833=EDGE_LOOP('',(#426));
#834=EDGE_LOOP('',(#427));
#835=EDGE_LOOP('',(#428));
#836=EDGE_LOOP('',(#429));
#837=EDGE_LOOP('',(#430,#431,#432,#433));
#838=EDGE_LOOP('',(#434));
#839=EDGE_LOOP('',(#435));
#840=EDGE_LOOP('',(#436));
#841=EDGE_LOOP('',(#437));
#842=EDGE_LOOP('',(#438));
#843=EDGE_LOOP('',(#439));
#844=EDGE_LOOP('',(#440));
#845=EDGE_LOOP('',(#441));
#846=EDGE_LOOP('',(#442));
#847=EDGE_LOOP('',(#443));
#848=EDGE_LOOP('',(#444));
#849=EDGE_LOOP('',(#445));
#850=EDGE_LOOP('',(#446));
#851=EDGE_LOOP('',(#447,#448,#449,#450));
#852=EDGE_LOOP('',(#451,#452,#453,#454));
#853=FACE_BOUND('',#743,.T.);
#854=FACE_BOUND('',#744,.T.);
#855=FACE_BOUND('',#745,.T.);
#856=FACE_BOUND('',#746,.T.);
#857=FACE_BOUND('',#747,.T.);
#858=FACE_BOUND('',#748,.T.);
#859=FACE_BOUND('',#749,.T.);
#860=FACE_BOUND('',#750,.T.);
#861=FACE_BOUND('',#751,.T.);
#862=FACE_BOUND('',#752,.T.);
#863=FACE_BOUND('',#753,.T.);
#864=FACE_BOUND('',#754,.T.);
#865=FACE_BOUND('',#755,.T.);
#866=FACE_BOUND('',#756,.T.);
#867=FACE_BOUND('',#757,.T.);
#868=FACE_BOUND('',#758,.T.);
#869=FACE_BOUND('',#759,.T.);
#870=FACE_BOUND('',#760,.T.);
#871=FACE_BOUND('',#761,.T.);
#872=FACE_BOUND('',#762,.T.);
#873=FACE_BOUND('',#763,.T.);
#874=FACE_BOUND('',#764,.T.);
#875=FACE_BOUND('',#765,.T.);
#876=FACE_BOUND('',#766,.T.);
#877=FACE_BOUND('',#767,.T.);
#878=FACE_BOUND('',#768,.T.);
#879=FACE_BOUND('',#769,.T.);
#880=FACE_BOUND('',#770,.T.);
#881=FACE_BOUND('',#771,.T.);
#882=FACE_BOUND('',#772,.T.);
#883=FACE_BOUND('',#773,.T.);
#884=FACE_BOUND('',#774,.T.);
#885=FACE_BOUND('',#775,.T.);
#886=FACE_BOUND('',#776,.T.);
#887=FACE_BOUND('',#777,.T.);
#888=FACE_BOUND('',#778,.T.);
#889=FACE_BOUND('',#779,.T.);
#890=FACE_BOUND('',#780,.T.);
#891=FACE_BOUND('',#781,.T.);
#892=FACE_BOUND('',#782,.T.);
#893=FACE_BOUND('',#783,.T.);
#894=FACE_BOUND('',#784,.T.);
#895=FACE_BOUND('',#785,.T.);
#896=FACE_BOUND('',#786,.T.);
#897=FACE_BOUND('',#787,.T.);
#898=FACE_BOUND('',#788,.T.);
#899=FACE_BOUND('',#789,.T.);
#900=FACE_BOUND('',#790,.T.);
#901=FACE_BOUND('',#791,.T.);
#902=FACE_BOUND('',#792,.T.);
#903=FACE_BOUND('',#793,.T.);
#904=FACE_BOUND('',#794,.T.);
#905=FACE_BOUND('',#795,.T.);
#906=FACE_BOUND('',#796,.T.);
#907=FACE_BOUND('',#797,.T.);
#908=FACE_BOUND('',#798,.T.);
#909=FACE_BOUND('',#799,.T.);
#910=FACE_BOUND('',#800,.T.);
#911=FACE_BOUND('',#801,.T.);
#912=FACE_BOUND('',#802,.T.);
#913=FACE_BOUND('',#803,.T.);
#914=FACE_BOUND('',#804,.T.);
#915=FACE_BOUND('',#805,.T.);
#916=FACE_BOUND('',#806,.T.);
#917=FACE_BOUND('',#807,.T.);
#918=FACE_BOUND('',#808,.T.);
#919=FACE_BOUND('',#809,.T.);
#920=FACE_BOUND('',#810,.T.);
#921=FACE_BOUND('',#811,.T.);
#922=FACE_BOUND('',#812,.T.);
#923=FACE_BOUND('',#813,.T.);
#924=FACE_BOUND('',#814,.T.);
#925=FACE_BOUND('',#815,.T.);
#926=FACE_BOUND('',#816,.T.);
#927=FACE_BOUND('',#817,.T.);
#928=FACE_BOUND('',#818,.T.);
#929=FACE_BOUND('',#819,.T.);
#930=FACE_BOUND('',#820,.T.);
#931=FACE_BOUND('',#821,.T.);
#932=FACE_BOUND('',#822,.T.);
#933=FACE_BOUND('',#823,.T.);
#934=FACE_BOUND('',#824,.T.);
#935=FACE_BOUND('',#825,.T.);
#936=FACE_BOUND('',#826,.T.);
#937=FACE_BOUND('',#827,.T.);
#938=FACE_BOUND('',#828,.T.);
#939=FACE_BOUND('',#829,.T.);
#940=FACE_BOUND('',#830,.T.);
#941=FACE_BOUND('',#831,.T.);
#942=FACE_BOUND('',#832,.T.);
#943=FACE_BOUND('',#833,.T.);
#944=FACE_BOUND('',#834,.T.);
#945=FACE_BOUND('',#835,.T.);
#946=FACE_BOUND('',#836,.T.);
#947=FACE_BOUND('',#837,.T.);
#948=FACE_BOUND('',#838,.T.);
#949=FACE_BOUND('',#839,.T.);
#950=FACE_BOUND('',#840,.T.);
#951=FACE_BOUND('',#841,.T.);
#952=FACE_BOUND('',#842,.T.);
#953=FACE_BOUND('',#843,.T.);
#954=FACE_BOUND('',#844,.T.);
#955=FACE_BOUND('',#845,.T.);
#956=FACE_BOUND('',#846,.T.);
#957=FACE_BOUND('',#847,.T.);
#958=FACE_BOUND('',#848,.T.);
#959=FACE_BOUND('',#849,.T.);
#960=FACE_BOUND('',#850,.T.);
#961=FACE_BOUND('',#851,.T.);
#962=FACE_BOUND('',#852,.T.);
#963=CYLINDRICAL_SURFACE('',#1057,0.00600000000000035);
#964=CYLINDRICAL_SURFACE('',#1061,0.004);
#965=CYLINDRICAL_SURFACE('',#1065,0.00400000000000012);
#966=CYLINDRICAL_SURFACE('',#1069,0.00600000000000013);
#967=CYLINDRICAL_SURFACE('',#1073,0.00400000000000056);
#968=CYLINDRICAL_SURFACE('',#1079,0.0060000000000012);
#969=CYLINDRICAL_SURFACE('',#1083,0.00399999999999994);
#970=CYLINDRICAL_SURFACE('',#1089,0.02);
#971=CYLINDRICAL_SURFACE('',#1093,0.02);
#972=CYLINDRICAL_SURFACE('',#1096,0.00415);
#973=CYLINDRICAL_SURFACE('',#1100,0.00415);
#974=CYLINDRICAL_SURFACE('',#1103,0.001425);
#975=CYLINDRICAL_SURFACE('',#1106,0.0075);
#976=CYLINDRICAL_SURFACE('',#1109,0.001425);
#977=CYLINDRICAL_SURFACE('',#1112,0.0015);
#978=CYLINDRICAL_SURFACE('',#1115,0.0015);
#979=CYLINDRICAL_SURFACE('',#1118,0.0015);
#980=CYLINDRICAL_SURFACE('',#1121,0.0015);
#981=CYLINDRICAL_SURFACE('',#1124,0.001425);
#982=CYLINDRICAL_SURFACE('',#1128,0.00599999999999988);
#983=CYLINDRICAL_SURFACE('',#1135,0.001425);
#984=CYLINDRICAL_SURFACE('',#1140,0.001425);
#985=CYLINDRICAL_SURFACE('',#1154,0.005);
#986=CYLINDRICAL_SURFACE('',#1169,0.001);
#987=CYLINDRICAL_SURFACE('',#1170,0.001);
#988=ADVANCED_FACE('',(#853),#963,.F.);
#989=ADVANCED_FACE('',(#854),#16,.F.);
#990=ADVANCED_FACE('',(#855),#964,.T.);
#991=ADVANCED_FACE('',(#856),#17,.F.);
#992=ADVANCED_FACE('',(#857),#965,.T.);
#993=ADVANCED_FACE('',(#858),#18,.T.);
#994=ADVANCED_FACE('',(#859),#966,.F.);
#995=ADVANCED_FACE('',(#860),#19,.F.);
#996=ADVANCED_FACE('',(#861),#967,.T.);
#997=ADVANCED_FACE('',(#862),#20,.T.);
#998=ADVANCED_FACE('',(#863),#21,.T.);
#999=ADVANCED_FACE('',(#864),#22,.F.);
#1000=ADVANCED_FACE('',(#865),#968,.F.);
#1001=ADVANCED_FACE('',(#866),#23,.F.);
#1002=ADVANCED_FACE('',(#867),#969,.T.);
#1003=ADVANCED_FACE('',(#868),#24,.T.);
#1004=ADVANCED_FACE('',(#869),#25,.T.);
#1005=ADVANCED_FACE('',(#870),#26,.F.);
#1006=ADVANCED_FACE('',(#871),#970,.T.);
#1007=ADVANCED_FACE('',(#872),#27,.T.);
#1008=ADVANCED_FACE('',(#873),#971,.T.);
#1009=ADVANCED_FACE('',(#874),#972,.F.);
#1010=ADVANCED_FACE('',(#875),#28,.T.);
#1011=ADVANCED_FACE('',(#876),#973,.F.);
#1012=ADVANCED_FACE('',(#877,#878),#974,.F.);
#1013=ADVANCED_FACE('',(#879,#880),#975,.F.);
#1014=ADVANCED_FACE('',(#881,#882),#976,.F.);
#1015=ADVANCED_FACE('',(#883,#884),#977,.F.);
#1016=ADVANCED_FACE('',(#885,#886),#978,.F.);
#1017=ADVANCED_FACE('',(#887,#888),#979,.F.);
#1018=ADVANCED_FACE('',(#889,#890),#980,.F.);
#1019=ADVANCED_FACE('',(#891,#892),#981,.F.);
#1020=ADVANCED_FACE('',(#893),#29,.T.);
#1021=ADVANCED_FACE('',(#894),#982,.F.);
#1022=ADVANCED_FACE('',(#895),#30,.T.);
#1023=ADVANCED_FACE('',(#896),#31,.F.);
#1024=ADVANCED_FACE('',(#897),#32,.T.);
#1025=ADVANCED_FACE('',(#898),#33,.F.);
#1026=ADVANCED_FACE('',(#899,#900),#983,.F.);
#1027=ADVANCED_FACE('',(#901),#34,.F.);
#1028=ADVANCED_FACE('',(#902),#35,.F.);
#1029=ADVANCED_FACE('',(#903,#904),#984,.F.);
#1030=ADVANCED_FACE('',(#905,#906,#907,#908,#909,#910,#911,#912,#913,#914,
#915,#916,#917,#918,#919,#920,#921,#922,#923,#924),#36,.T.);
#1031=ADVANCED_FACE('',(#925,#926,#927,#928,#929,#930,#931,#932,#933,#934,
#935,#936,#937,#938,#939,#940,#941,#942,#943,#944),#37,.F.);
#1032=ADVANCED_FACE('',(#945,#946),#985,.T.);
#1033=ADVANCED_FACE('',(#947,#948),#38,.T.);
#1034=ADVANCED_FACE('',(#949,#950),#12,.T.);
#1035=ADVANCED_FACE('',(#951),#39,.T.);
#1036=ADVANCED_FACE('',(#952,#953),#13,.T.);
#1037=ADVANCED_FACE('',(#954),#40,.T.);
#1038=ADVANCED_FACE('',(#955,#956),#14,.F.);
#1039=ADVANCED_FACE('',(#957),#41,.T.);
#1040=ADVANCED_FACE('',(#958,#959),#15,.F.);
#1041=ADVANCED_FACE('',(#960),#42,.T.);
#1042=ADVANCED_FACE('',(#961),#986,.F.);
#1043=ADVANCED_FACE('',(#962),#987,.F.);
#1044=CLOSED_SHELL('',(#988,#989,#990,#991,#992,#993,#994,#995,#996,#997,
#998,#999,#1000,#1001,#1002,#1003,#1004,#1005,#1006,#1007,#1008,#1009,#1010,
#1011,#1012,#1013,#1014,#1015,#1016,#1017,#1018,#1019,#1020,#1021,#1022,
#1023,#1024,#1025,#1026,#1027,#1028,#1029,#1030,#1031,#1032,#1033,#1034,
#1035,#1036,#1037,#1038,#1039,#1040,#1041,#1042,#1043));
#1045=STYLED_ITEM('',(#1046),#1053);
#1046=PRESENTATION_STYLE_ASSIGNMENT((#1047));
#1047=SURFACE_STYLE_USAGE(.BOTH.,#1048);
#1048=SURFACE_SIDE_STYLE('',(#1049));
#1049=SURFACE_STYLE_FILL_AREA(#1050);
#1050=FILL_AREA_STYLE('',(#1051));
#1051=FILL_AREA_STYLE_COLOUR('',#1052);
#1052=COLOUR_RGB('',0.647058823529412,0.647058823529412,0.647058823529412);
#1053=MANIFOLD_SOLID_BREP('elbow-to-shoulder-link',#1044);
#1054=SHAPE_DEFINITION_REPRESENTATION(#1768,#1055);
#1055=SHAPE_REPRESENTATION('elbow-to-shoulder-link',(#1056),#1763);
#1056=AXIS2_PLACEMENT_3D('',#1475,#1171,#1172);
#1057=AXIS2_PLACEMENT_3D('',#1476,#1173,#1174);
#1058=AXIS2_PLACEMENT_3D('',#1477,#1175,#1176);
#1059=AXIS2_PLACEMENT_3D('',#1482,#1178,#1179);
#1060=AXIS2_PLACEMENT_3D('',#1485,#1181,#1182);
#1061=AXIS2_PLACEMENT_3D('',#1491,#1186,#1187);
#1062=AXIS2_PLACEMENT_3D('',#1492,#1188,#1189);
#1063=AXIS2_PLACEMENT_3D('',#1496,#1191,#1192);
#1064=AXIS2_PLACEMENT_3D('',#1497,#1193,#1194);
#1065=AXIS2_PLACEMENT_3D('',#1506,#1199,#1200);
#1066=AXIS2_PLACEMENT_3D('',#1507,#1201,#1202);
#1067=AXIS2_PLACEMENT_3D('',#1511,#1204,#1205);
#1068=AXIS2_PLACEMENT_3D('',#1512,#1206,#1207);
#1069=AXIS2_PLACEMENT_3D('',#1518,#1211,#1212);
#1070=AXIS2_PLACEMENT_3D('',#1519,#1213,#1214);
#1071=AXIS2_PLACEMENT_3D('',#1524,#1216,#1217);
#1072=AXIS2_PLACEMENT_3D('',#1527,#1219,#1220);
#1073=AXIS2_PLACEMENT_3D('',#1533,#1224,#1225);
#1074=AXIS2_PLACEMENT_3D('',#1534,#1226,#1227);
#1075=AXIS2_PLACEMENT_3D('',#1538,#1229,#1230);
#1076=AXIS2_PLACEMENT_3D('',#1539,#1231,#1232);
#1077=AXIS2_PLACEMENT_3D('',#1548,#1237,#1238);
#1078=AXIS2_PLACEMENT_3D('',#1554,#1242,#1243);
#1079=AXIS2_PLACEMENT_3D('',#1560,#1247,#1248);
#1080=AXIS2_PLACEMENT_3D('',#1561,#1249,#1250);
#1081=AXIS2_PLACEMENT_3D('',#1566,#1252,#1253);
#1082=AXIS2_PLACEMENT_3D('',#1569,#1255,#1256);
#1083=AXIS2_PLACEMENT_3D('',#1575,#1260,#1261);
#1084=AXIS2_PLACEMENT_3D('',#1576,#1262,#1263);
#1085=AXIS2_PLACEMENT_3D('',#1580,#1265,#1266);
#1086=AXIS2_PLACEMENT_3D('',#1581,#1267,#1268);
#1087=AXIS2_PLACEMENT_3D('',#1590,#1273,#1274);
#1088=AXIS2_PLACEMENT_3D('',#1596,#1278,#1279);
#1089=AXIS2_PLACEMENT_3D('',#1602,#1283,#1284);
#1090=AXIS2_PLACEMENT_3D('',#1603,#1285,#1286);
#1091=AXIS2_PLACEMENT_3D('',#1608,#1288,#1289);
#1092=AXIS2_PLACEMENT_3D('',#1611,#1291,#1292);
#1093=AXIS2_PLACEMENT_3D('',#1617,#1296,#1297);
#1094=AXIS2_PLACEMENT_3D('',#1618,#1298,#1299);
#1095=AXIS2_PLACEMENT_3D('',#1622,#1301,#1302);
#1096=AXIS2_PLACEMENT_3D('',#1623,#1303,#1304);
#1097=AXIS2_PLACEMENT_3D('',#1624,#1305,#1306);
#1098=AXIS2_PLACEMENT_3D('',#1629,#1308,#1309);
#1099=AXIS2_PLACEMENT_3D('',#1632,#1311,#1312);
#1100=AXIS2_PLACEMENT_3D('',#1638,#1316,#1317);
#1101=AXIS2_PLACEMENT_3D('',#1639,#1318,#1319);
#1102=AXIS2_PLACEMENT_3D('',#1643,#1321,#1322);
#1103=AXIS2_PLACEMENT_3D('',#1644,#1323,#1324);
#1104=AXIS2_PLACEMENT_3D('',#1645,#1325,#1326);
#1105=AXIS2_PLACEMENT_3D('',#1647,#1327,#1328);
#1106=AXIS2_PLACEMENT_3D('',#1649,#1329,#1330);
#1107=AXIS2_PLACEMENT_3D('',#1650,#1331,#1332);
#1108=AXIS2_PLACEMENT_3D('',#1652,#1333,#1334);
#1109=AXIS2_PLACEMENT_3D('',#1654,#1335,#1336);
#1110=AXIS2_PLACEMENT_3D('',#1655,#1337,#1338);
#1111=AXIS2_PLACEMENT_3D('',#1657,#1339,#1340);
#1112=AXIS2_PLACEMENT_3D('',#1659,#1341,#1342);
#1113=AXIS2_PLACEMENT_3D('',#1660,#1343,#1344);
#1114=AXIS2_PLACEMENT_3D('',#1662,#1345,#1346);
#1115=AXIS2_PLACEMENT_3D('',#1664,#1347,#1348);
#1116=AXIS2_PLACEMENT_3D('',#1665,#1349,#1350);
#1117=AXIS2_PLACEMENT_3D('',#1667,#1351,#1352);
#1118=AXIS2_PLACEMENT_3D('',#1669,#1353,#1354);
#1119=AXIS2_PLACEMENT_3D('',#1670,#1355,#1356);
#1120=AXIS2_PLACEMENT_3D('',#1672,#1357,#1358);
#1121=AXIS2_PLACEMENT_3D('',#1674,#1359,#1360);
#1122=AXIS2_PLACEMENT_3D('',#1675,#1361,#1362);
#1123=AXIS2_PLACEMENT_3D('',#1677,#1363,#1364);
#1124=AXIS2_PLACEMENT_3D('',#1679,#1365,#1366);
#1125=AXIS2_PLACEMENT_3D('',#1680,#1367,#1368);
#1126=AXIS2_PLACEMENT_3D('',#1682,#1369,#1370);
#1127=AXIS2_PLACEMENT_3D('',#1684,#1371,#1372);
#1128=AXIS2_PLACEMENT_3D('',#1687,#1375,#1376);
#1129=AXIS2_PLACEMENT_3D('',#1688,#1377,#1378);
#1130=AXIS2_PLACEMENT_3D('',#1689,#1379,#1380);
#1131=AXIS2_PLACEMENT_3D('',#1690,#1381,#1382);
#1132=AXIS2_PLACEMENT_3D('',#1693,#1385,#1386);
#1133=AXIS2_PLACEMENT_3D('',#1696,#1389,#1390);
#1134=AXIS2_PLACEMENT_3D('',#1699,#1393,#1394);
#1135=AXIS2_PLACEMENT_3D('',#1702,#1397,#1398);
#1136=AXIS2_PLACEMENT_3D('',#1703,#1399,#1400);
#1137=AXIS2_PLACEMENT_3D('',#1705,#1401,#1402);
#1138=AXIS2_PLACEMENT_3D('',#1707,#1403,#1404);
#1139=AXIS2_PLACEMENT_3D('',#1716,#1409,#1410);
#1140=AXIS2_PLACEMENT_3D('',#1719,#1413,#1414);
#1141=AXIS2_PLACEMENT_3D('',#1720,#1415,#1416);
#1142=AXIS2_PLACEMENT_3D('',#1722,#1417,#1418);
#1143=AXIS2_PLACEMENT_3D('',#1724,#1419,#1420);
#1144=AXIS2_PLACEMENT_3D('',#1725,#1421,#1422);
#1145=AXIS2_PLACEMENT_3D('',#1727,#1423,#1424);
#1146=AXIS2_PLACEMENT_3D('',#1729,#1425,#1426);
#1147=AXIS2_PLACEMENT_3D('',#1731,#1427,#1428);
#1148=AXIS2_PLACEMENT_3D('',#1732,#1429,#1430);
#1149=AXIS2_PLACEMENT_3D('',#1733,#1431,#1432);
#1150=AXIS2_PLACEMENT_3D('',#1734,#1433,#1434);
#1151=AXIS2_PLACEMENT_3D('',#1736,#1435,#1436);
#1152=AXIS2_PLACEMENT_3D('',#1738,#1437,#1438);
#1153=AXIS2_PLACEMENT_3D('',#1739,#1439,#1440);
#1154=AXIS2_PLACEMENT_3D('',#1740,#1441,#1442);
#1155=AXIS2_PLACEMENT_3D('',#1741,#1443,#1444);
#1156=AXIS2_PLACEMENT_3D('',#1743,#1445,#1446);
#1157=AXIS2_PLACEMENT_3D('',#1744,#1447,#1448);
#1158=AXIS2_PLACEMENT_3D('',#1745,#1449,#1450);
#1159=AXIS2_PLACEMENT_3D('',#1747,#1451,#1452);
#1160=AXIS2_PLACEMENT_3D('',#1748,#1453,#1454);
#1161=AXIS2_PLACEMENT_3D('',#1749,#1455,#1456);
#1162=AXIS2_PLACEMENT_3D('',#1751,#1457,#1458);
#1163=AXIS2_PLACEMENT_3D('',#1752,#1459,#1460);
#1164=AXIS2_PLACEMENT_3D('',#1753,#1461,#1462);
#1165=AXIS2_PLACEMENT_3D('',#1755,#1463,#1464);
#1166=AXIS2_PLACEMENT_3D('',#1756,#1465,#1466);
#1167=AXIS2_PLACEMENT_3D('',#1757,#1467,#1468);
#1168=AXIS2_PLACEMENT_3D('',#1759,#1469,#1470);
#1169=AXIS2_PLACEMENT_3D('',#1760,#1471,#1472);
#1170=AXIS2_PLACEMENT_3D('',#1761,#1473,#1474);
#1171=DIRECTION('',(0.,0.,1.));
#1172=DIRECTION('',(1.,0.,0.));
#1173=DIRECTION('',(0.,0.,-1.));
#1174=DIRECTION('',(-1.,0.,0.));
#1175=DIRECTION('',(0.,0.,1.));
#1176=DIRECTION('',(1.,0.,0.));
#1177=DIRECTION('',(0.,0.,-1.));
#1178=DIRECTION('',(0.,0.,1.));
#1179=DIRECTION('',(1.,0.,0.));
#1180=DIRECTION('',(0.,0.,-1.));
#1181=DIRECTION('',(1.,-5.28331504260302E-14,0.));
#1182=DIRECTION('',(5.28331504260302E-14,1.,0.));
#1183=DIRECTION('',(-5.28331504260302E-14,-1.,0.));
#1184=DIRECTION('',(0.,0.,-1.));
#1185=DIRECTION('',(-5.28331504260302E-14,-1.,0.));
#1186=DIRECTION('',(0.,0.,-1.));
#1187=DIRECTION('',(-1.,0.,0.));
#1188=DIRECTION('',(0.,0.,1.));
#1189=DIRECTION('',(1.,0.,0.));
#1190=DIRECTION('',(0.,0.,-1.));
#1191=DIRECTION('',(0.,0.,1.));
#1192=DIRECTION('',(1.,0.,0.));
#1193=DIRECTION('',(-1.,5.28331504260316E-14,0.));
#1194=DIRECTION('',(-5.28331504260316E-14,-1.,0.));
#1195=DIRECTION('',(5.28331504260316E-14,1.,0.));
#1196=DIRECTION('',(0.,0.,-1.));
#1197=DIRECTION('',(5.28331504260316E-14,1.,0.));
#1198=DIRECTION('',(0.,0.,-1.));
#1199=DIRECTION('',(0.,0.,-1.));
#1200=DIRECTION('',(-1.,0.,0.));
#1201=DIRECTION('',(0.,0.,1.));
#1202=DIRECTION('',(1.,0.,0.));
#1203=DIRECTION('',(0.,0.,-1.));
#1204=DIRECTION('',(0.,0.,1.));
#1205=DIRECTION('',(1.,0.,0.));
#1206=DIRECTION('',(-1.,0.,0.));
#1207=DIRECTION('',(0.,0.,1.));
#1208=DIRECTION('',(0.,1.,0.));
#1209=DIRECTION('',(0.,0.,-1.));
#1210=DIRECTION('',(0.,1.,0.));
#1211=DIRECTION('',(0.,0.,-1.));
#1212=DIRECTION('',(-1.,0.,0.));
#1213=DIRECTION('',(0.,0.,1.));
#1214=DIRECTION('',(1.,0.,0.));
#1215=DIRECTION('',(0.,0.,-1.));
#1216=DIRECTION('',(0.,0.,1.));
#1217=DIRECTION('',(1.,0.,0.));
#1218=DIRECTION('',(0.,0.,-1.));
#1219=DIRECTION('',(-7.26455818357916E-14,-1.,0.));
#1220=DIRECTION('',(1.,-7.26455818357916E-14,0.));
#1221=DIRECTION('',(-1.,7.26455818357916E-14,0.));
#1222=DIRECTION('',(0.,0.,-1.));
#1223=DIRECTION('',(-1.,7.26455818357916E-14,0.));
#1224=DIRECTION('',(0.,0.,-1.));
#1225=DIRECTION('',(-1.,0.,0.));
#1226=DIRECTION('',(0.,0.,1.));
#1227=DIRECTION('',(1.,0.,0.));
#1228=DIRECTION('',(0.,0.,-1.));
#1229=DIRECTION('',(0.,0.,1.));
#1230=DIRECTION('',(1.,0.,0.));
#1231=DIRECTION('',(8.67361737988403E-17,-1.,0.));
#1232=DIRECTION('',(1.,8.67361737988403E-17,0.));
#1233=DIRECTION('',(-1.,-8.67361737988403E-17,0.));
#1234=DIRECTION('',(0.,0.,-1.));
#1235=DIRECTION('',(-1.,-8.67361737988403E-17,0.));
#1236=DIRECTION('',(0.,0.,-1.));
#1237=DIRECTION('',(-1.,0.,0.));
#1238=DIRECTION('',(0.,0.,1.));
#1239=DIRECTION('',(0.,1.,0.));
#1240=DIRECTION('',(0.,0.,-1.));
#1241=DIRECTION('',(0.,1.,0.));
#1242=DIRECTION('',(1.7347234759768E-16,-1.,0.));
#1243=DIRECTION('',(1.,1.7347234759768E-16,0.));
#1244=DIRECTION('',(-1.,-1.7347234759768E-16,0.));
#1245=DIRECTION('',(0.,0.,-1.));
#1246=DIRECTION('',(-1.,-1.7347234759768E-16,0.));
#1247=DIRECTION('',(0.,0.,-1.));
#1248=DIRECTION('',(-1.,0.,0.));
#1249=DIRECTION('',(0.,0.,1.));
#1250=DIRECTION('',(1.,0.,0.));
#1251=DIRECTION('',(0.,0.,-1.));
#1252=DIRECTION('',(0.,0.,1.));
#1253=DIRECTION('',(1.,0.,0.));
#1254=DIRECTION('',(0.,0.,-1.));
#1255=DIRECTION('',(7.26455818357916E-14,1.,0.));
#1256=DIRECTION('',(-1.,7.26455818357916E-14,0.));
#1257=DIRECTION('',(1.,-7.26455818357916E-14,0.));
#1258=DIRECTION('',(0.,0.,-1.));
#1259=DIRECTION('',(1.,-7.26455818357916E-14,0.));
#1260=DIRECTION('',(0.,0.,-1.));
#1261=DIRECTION('',(-1.,0.,0.));
#1262=DIRECTION('',(0.,0.,1.));
#1263=DIRECTION('',(1.,0.,0.));
#1264=DIRECTION('',(0.,0.,-1.));
#1265=DIRECTION('',(0.,0.,1.));
#1266=DIRECTION('',(1.,0.,0.));
#1267=DIRECTION('',(0.,-1.,0.));
#1268=DIRECTION('',(0.,0.,-1.));
#1269=DIRECTION('',(-1.,0.,0.));
#1270=DIRECTION('',(0.,0.,-1.));
#1271=DIRECTION('',(-1.,0.,0.));
#1272=DIRECTION('',(0.,0.,-1.));
#1273=DIRECTION('',(-1.,0.,0.));
#1274=DIRECTION('',(0.,0.,1.));
#1275=DIRECTION('',(0.,1.,0.));
#1276=DIRECTION('',(0.,0.,-1.));
#1277=DIRECTION('',(0.,1.,0.));
#1278=DIRECTION('',(0.,-1.,0.));
#1279=DIRECTION('',(0.,0.,-1.));
#1280=DIRECTION('',(-1.,0.,0.));
#1281=DIRECTION('',(0.,0.,-1.));
#1282=DIRECTION('',(-1.,0.,0.));
#1283=DIRECTION('',(0.,0.,-1.));
#1284=DIRECTION('',(-1.,0.,0.));
#1285=DIRECTION('',(0.,0.,1.));
#1286=DIRECTION('',(1.,0.,0.));
#1287=DIRECTION('',(0.,0.,-1.));
#1288=DIRECTION('',(0.,0.,1.));
#1289=DIRECTION('',(1.,0.,0.));
#1290=DIRECTION('',(0.,0.,-1.));
#1291=DIRECTION('',(1.,0.,0.));
#1292=DIRECTION('',(0.,0.,-1.));
#1293=DIRECTION('',(0.,-1.,0.));
#1294=DIRECTION('',(0.,0.,-1.));
#1295=DIRECTION('',(0.,-1.,0.));
#1296=DIRECTION('',(0.,0.,-1.));
#1297=DIRECTION('',(-1.,0.,0.));
#1298=DIRECTION('',(0.,0.,1.));
#1299=DIRECTION('',(1.,0.,0.));
#1300=DIRECTION('',(0.,0.,-1.));
#1301=DIRECTION('',(0.,0.,1.));
#1302=DIRECTION('',(1.,0.,0.));
#1303=DIRECTION('',(0.,0.,-1.));
#1304=DIRECTION('',(-1.,0.,0.));
#1305=DIRECTION('',(0.,0.,1.));
#1306=DIRECTION('',(1.,0.,0.));
#1307=DIRECTION('',(0.,0.,-1.));
#1308=DIRECTION('',(0.,0.,1.));
#1309=DIRECTION('',(1.,0.,0.));
#1310=DIRECTION('',(0.,0.,-1.));
#1311=DIRECTION('',(-1.,0.,0.));
#1312=DIRECTION('',(0.,0.,1.));
#1313=DIRECTION('',(0.,1.,0.));
#1314=DIRECTION('',(0.,0.,-1.));
#1315=DIRECTION('',(0.,1.,0.));
#1316=DIRECTION('',(0.,0.,-1.));
#1317=DIRECTION('',(-1.,0.,0.));
#1318=DIRECTION('',(0.,0.,1.));
#1319=DIRECTION('',(1.,0.,0.));
#1320=DIRECTION('',(0.,0.,-1.));
#1321=DIRECTION('',(0.,0.,1.));
#1322=DIRECTION('',(1.,0.,0.));
#1323=DIRECTION('',(0.,0.,-1.));
#1324=DIRECTION('',(-1.,0.,0.));
#1325=DIRECTION('',(0.,0.,1.));
#1326=DIRECTION('',(1.,0.,0.));
#1327=DIRECTION('',(0.,0.,1.));
#1328=DIRECTION('',(1.,0.,0.));
#1329=DIRECTION('',(0.,0.,-1.));
#1330=DIRECTION('',(-1.,0.,0.));
#1331=DIRECTION('',(0.,0.,1.));
#1332=DIRECTION('',(1.,0.,0.));
#1333=DIRECTION('',(0.,0.,1.));
#1334=DIRECTION('',(1.,0.,0.));
#1335=DIRECTION('',(0.,0.,-1.));
#1336=DIRECTION('',(-1.,0.,0.));
#1337=DIRECTION('',(0.,0.,1.));
#1338=DIRECTION('',(1.,0.,0.));
#1339=DIRECTION('',(0.,0.,1.));
#1340=DIRECTION('',(1.,0.,0.));
#1341=DIRECTION('',(0.,0.,-1.));
#1342=DIRECTION('',(-1.,0.,0.));
#1343=DIRECTION('',(0.,0.,1.));
#1344=DIRECTION('',(1.,0.,0.));
#1345=DIRECTION('',(0.,0.,1.));
#1346=DIRECTION('',(1.,0.,0.));
#1347=DIRECTION('',(0.,0.,-1.));
#1348=DIRECTION('',(-1.,0.,0.));
#1349=DIRECTION('',(0.,0.,1.));
#1350=DIRECTION('',(1.,0.,0.));
#1351=DIRECTION('',(0.,0.,1.));
#1352=DIRECTION('',(1.,0.,0.));
#1353=DIRECTION('',(0.,0.,-1.));
#1354=DIRECTION('',(-1.,0.,0.));
#1355=DIRECTION('',(0.,0.,1.));
#1356=DIRECTION('',(1.,0.,0.));
#1357=DIRECTION('',(0.,0.,1.));
#1358=DIRECTION('',(1.,0.,0.));
#1359=DIRECTION('',(0.,0.,-1.));
#1360=DIRECTION('',(-1.,0.,0.));
#1361=DIRECTION('',(0.,0.,1.));
#1362=DIRECTION('',(1.,0.,0.));
#1363=DIRECTION('',(0.,0.,1.));
#1364=DIRECTION('',(1.,0.,0.));
#1365=DIRECTION('',(0.,0.,-1.));
#1366=DIRECTION('',(-1.,0.,0.));
#1367=DIRECTION('',(0.,0.,1.));
#1368=DIRECTION('',(1.,0.,0.));
#1369=DIRECTION('',(0.,0.,1.));
#1370=DIRECTION('',(1.,0.,0.));
#1371=DIRECTION('',(1.,0.,0.));
#1372=DIRECTION('',(0.,0.,-1.));
#1373=DIRECTION('',(0.,-1.,0.));
#1374=DIRECTION('',(0.,-1.,0.));
#1375=DIRECTION('',(0.,0.,-1.));
#1376=DIRECTION('',(-1.,0.,0.));
#1377=DIRECTION('',(0.,0.,1.));
#1378=DIRECTION('',(1.,0.,0.));
#1379=DIRECTION('',(0.,0.,1.));
#1380=DIRECTION('',(1.,0.,0.));
#1381=DIRECTION('',(0.,-1.,0.));
#1382=DIRECTION('',(0.,0.,-1.));
#1383=DIRECTION('',(-1.,0.,0.));
#1384=DIRECTION('',(-1.,0.,0.));
#1385=DIRECTION('',(-1.,0.,0.));
#1386=DIRECTION('',(0.,0.,1.));
#1387=DIRECTION('',(0.,1.,0.));
#1388=DIRECTION('',(0.,1.,0.));
#1389=DIRECTION('',(0.,1.,0.));
#1390=DIRECTION('',(0.,0.,1.));
#1391=DIRECTION('',(1.,0.,0.));
#1392=DIRECTION('',(1.,0.,0.));
#1393=DIRECTION('',(-1.,0.,0.));
#1394=DIRECTION('',(0.,0.,1.));
#1395=DIRECTION('',(0.,1.,0.));
#1396=DIRECTION('',(0.,1.,0.));
#1397=DIRECTION('',(0.,0.,-1.));
#1398=DIRECTION('',(-1.,0.,0.));
#1399=DIRECTION('',(0.,0.,1.));
#1400=DIRECTION('',(1.,0.,0.));
#1401=DIRECTION('',(0.,0.,1.));
#1402=DIRECTION('',(1.,0.,0.));
#1403=DIRECTION('',(1.,0.,0.));
#1404=DIRECTION('',(0.,0.,-1.));
#1405=DIRECTION('',(0.,-1.,0.));
#1406=DIRECTION('',(0.,0.,1.));
#1407=DIRECTION('',(0.,-1.,0.));
#1408=DIRECTION('',(0.,0.,1.));
#1409=DIRECTION('',(-1.,0.,0.));
#1410=DIRECTION('',(0.,0.,1.));
#1411=DIRECTION('',(0.,1.,0.));
#1412=DIRECTION('',(0.,1.,0.));
#1413=DIRECTION('',(0.,0.,-1.));
#1414=DIRECTION('',(-1.,0.,0.));
#1415=DIRECTION('',(0.,0.,1.));
#1416=DIRECTION('',(1.,0.,0.));
#1417=DIRECTION('',(0.,0.,1.));
#1418=DIRECTION('',(1.,0.,0.));
#1419=DIRECTION('',(0.,0.,1.));
#1420=DIRECTION('',(1.,0.,0.));
#1421=DIRECTION('',(0.,0.,1.));
#1422=DIRECTION('',(1.,0.,0.));
#1423=DIRECTION('',(0.,0.,1.));
#1424=DIRECTION('',(1.,0.,0.));
#1425=DIRECTION('',(0.,0.,1.));
#1426=DIRECTION('',(1.,0.,0.));
#1427=DIRECTION('',(0.,0.,1.));
#1428=DIRECTION('',(1.,0.,0.));
#1429=DIRECTION('',(0.,0.,1.));
#1430=DIRECTION('',(1.,0.,0.));
#1431=DIRECTION('',(0.,0.,1.));
#1432=DIRECTION('',(1.,0.,0.));
#1433=DIRECTION('',(0.,0.,-1.));
#1434=DIRECTION('',(-1.,0.,0.));
#1435=DIRECTION('',(0.,0.,-1.));
#1436=DIRECTION('',(-1.,0.,0.));
#1437=DIRECTION('',(0.,0.,1.));
#1438=DIRECTION('',(1.,0.,0.));
#1439=DIRECTION('',(0.,0.,1.));
#1440=DIRECTION('',(1.,0.,0.));
#1441=DIRECTION('',(0.,0.,-1.));
#1442=DIRECTION('',(-1.,0.,0.));
#1443=DIRECTION('',(0.,0.,1.));
#1444=DIRECTION('',(1.,0.,0.));
#1445=DIRECTION('',(0.,0.,1.));
#1446=DIRECTION('',(1.,0.,0.));
#1447=DIRECTION('',(0.,0.,-1.));
#1448=DIRECTION('',(1.,0.,0.));
#1449=DIRECTION('',(0.,0.,1.));
#1450=DIRECTION('',(1.,0.,0.));
#1451=DIRECTION('',(0.,0.,1.));
#1452=DIRECTION('',(1.,0.,0.));
#1453=DIRECTION('',(0.,0.,-1.));
#1454=DIRECTION('',(1.,0.,0.));
#1455=DIRECTION('',(0.,0.,1.));
#1456=DIRECTION('',(1.,0.,0.));
#1457=DIRECTION('',(0.,0.,1.));
#1458=DIRECTION('',(1.,0.,0.));
#1459=DIRECTION('',(0.,0.,-1.));
#1460=DIRECTION('',(1.,0.,0.));
#1461=DIRECTION('',(0.,0.,-1.));
#1462=DIRECTION('',(-1.,0.,0.));
#1463=DIRECTION('',(0.,0.,-1.));
#1464=DIRECTION('',(1.,0.,0.));
#1465=DIRECTION('',(0.,0.,-1.));
#1466=DIRECTION('',(1.,0.,0.));
#1467=DIRECTION('',(0.,0.,-1.));
#1468=DIRECTION('',(-1.,0.,0.));
#1469=DIRECTION('',(0.,0.,-1.));
#1470=DIRECTION('',(1.,0.,0.));
#1471=DIRECTION('',(0.,0.,-1.));
#1472=DIRECTION('',(-1.,0.,0.));
#1473=DIRECTION('',(0.,0.,-1.));
#1474=DIRECTION('',(-1.,0.,0.));
#1475=CARTESIAN_POINT('',(0.,0.,0.));
#1476=CARTESIAN_POINT('',(0.210008008566147,-0.0928524586643111,0.005));
#1477=CARTESIAN_POINT('',(0.210008008566147,-0.0928524586643111,0.));
#1478=CARTESIAN_POINT('',(0.211508008566147,-0.0870429836449997,0.));
#1479=CARTESIAN_POINT('',(0.208508008566147,-0.0870429836449997,0.));
#1480=CARTESIAN_POINT('',(0.211508008566147,-0.0870429836449997,0.005));
#1481=CARTESIAN_POINT('',(0.211508008566147,-0.0870429836449997,0.005));
#1482=CARTESIAN_POINT('',(0.210008008566147,-0.0928524586643111,0.005));
#1483=CARTESIAN_POINT('',(0.208508008566147,-0.0870429836449997,0.005));
#1484=CARTESIAN_POINT('',(0.208508008566147,-0.0870429836449997,0.005));
#1485=CARTESIAN_POINT('',(0.211508008566147,-0.0880936715328813,0.005));
#1486=CARTESIAN_POINT('',(0.211508008566147,-0.0880936715328813,0.));
#1487=CARTESIAN_POINT('',(0.211508008566147,-0.0891443594207629,0.));
#1488=CARTESIAN_POINT('',(0.211508008566147,-0.0891443594207629,0.005));
#1489=CARTESIAN_POINT('',(0.211508008566147,-0.0891443594207629,0.005));
#1490=CARTESIAN_POINT('',(0.211508008566147,-0.0880936715328813,0.005));
#1491=CARTESIAN_POINT('',(0.210008008566147,-0.0928524586643107,0.005));
#1492=CARTESIAN_POINT('',(0.210008008566147,-0.0928524586643107,0.));
#1493=CARTESIAN_POINT('',(0.208508008566147,-0.0891443594207629,0.));
#1494=CARTESIAN_POINT('',(0.208508008566147,-0.0891443594207629,0.005));
#1495=CARTESIAN_POINT('',(0.208508008566147,-0.0891443594207629,0.005));
#1496=CARTESIAN_POINT('',(0.210008008566147,-0.0928524586643107,0.005));
#1497=CARTESIAN_POINT('',(0.208508008566147,-0.0976112457957402,0.005));
#1498=CARTESIAN_POINT('',(0.208508008566147,-0.0976112457957402,0.));
#1499=CARTESIAN_POINT('',(0.208508008566147,-0.0986619336836219,0.));
#1500=CARTESIAN_POINT('',(0.208508008566147,-0.0965605579078586,0.));
#1501=CARTESIAN_POINT('',(0.208508008566147,-0.0965605579078586,0.005));
#1502=CARTESIAN_POINT('',(0.208508008566147,-0.0965605579078586,0.005));
#1503=CARTESIAN_POINT('',(0.208508008566147,-0.0976112457957402,0.005));
#1504=CARTESIAN_POINT('',(0.208508008566147,-0.0986619336836219,0.005));
#1505=CARTESIAN_POINT('',(0.208508008566147,-0.0986619336836219,0.005));
#1506=CARTESIAN_POINT('',(0.210008008566147,-0.0928524586643107,0.005));
#1507=CARTESIAN_POINT('',(0.210008008566147,-0.0928524586643107,0.));
#1508=CARTESIAN_POINT('',(0.211508008566147,-0.0965605579078586,0.));
#1509=CARTESIAN_POINT('',(0.211508008566147,-0.0965605579078586,0.005));
#1510=CARTESIAN_POINT('',(0.211508008566147,-0.0965605579078586,0.005));
#1511=CARTESIAN_POINT('',(0.210008008566147,-0.0928524586643107,0.005));
#1512=CARTESIAN_POINT('',(0.211508008566147,-0.0976112457957402,0.005));
#1513=CARTESIAN_POINT('',(0.211508008566147,-0.0976112457957402,0.));
#1514=CARTESIAN_POINT('',(0.211508008566147,-0.0986619336836219,0.));
#1515=CARTESIAN_POINT('',(0.211508008566147,-0.0986619336836219,0.005));
#1516=CARTESIAN_POINT('',(0.211508008566147,-0.0986619336836219,0.005));
#1517=CARTESIAN_POINT('',(0.211508008566147,-0.0976112457957402,0.005));
#1518=CARTESIAN_POINT('',(0.210008008566147,-0.0928524586643108,0.005));
#1519=CARTESIAN_POINT('',(0.210008008566147,-0.0928524586643108,0.));
#1520=CARTESIAN_POINT('',(0.215817483585458,-0.0943524586643109,0.));
#1521=CARTESIAN_POINT('',(0.215817483585458,-0.0913524586643107,0.));
#1522=CARTESIAN_POINT('',(0.215817483585458,-0.0943524586643109,0.005));
#1523=CARTESIAN_POINT('',(0.215817483585458,-0.0943524586643109,0.005));
#1524=CARTESIAN_POINT('',(0.210008008566147,-0.0928524586643108,0.005));
#1525=CARTESIAN_POINT('',(0.215817483585458,-0.0913524586643107,0.005));
#1526=CARTESIAN_POINT('',(0.215817483585458,-0.0913524586643107,0.005));
#1527=CARTESIAN_POINT('',(0.214766795697576,-0.0943524586643108,0.005));
#1528=CARTESIAN_POINT('',(0.214766795697576,-0.0943524586643108,0.));
#1529=CARTESIAN_POINT('',(0.213716107809694,-0.0943524586643108,0.));
#1530=CARTESIAN_POINT('',(0.213716107809694,-0.0943524586643108,0.005));
#1531=CARTESIAN_POINT('',(0.213716107809694,-0.0943524586643108,0.005));
#1532=CARTESIAN_POINT('',(0.214766795697576,-0.0943524586643108,0.005));
#1533=CARTESIAN_POINT('',(0.210008008566147,-0.0928524586643107,0.005));
#1534=CARTESIAN_POINT('',(0.210008008566147,-0.0928524586643107,0.));
#1535=CARTESIAN_POINT('',(0.213716107809694,-0.0913524586643107,0.));
#1536=CARTESIAN_POINT('',(0.213716107809694,-0.0913524586643107,0.005));
#1537=CARTESIAN_POINT('',(0.213716107809694,-0.0913524586643107,0.005));
#1538=CARTESIAN_POINT('',(0.210008008566147,-0.0928524586643107,0.005));
#1539=CARTESIAN_POINT('',(0.208758008566147,-0.0343524586643108,0.005));
#1540=CARTESIAN_POINT('',(0.208758008566147,-0.0343524586643108,0.));
#1541=CARTESIAN_POINT('',(0.212508008566147,-0.0343524586643108,0.));
#1542=CARTESIAN_POINT('',(0.207508008566147,-0.0343524586643108,0.));
#1543=CARTESIAN_POINT('',(0.212508008566147,-0.0343524586643108,0.005));
#1544=CARTESIAN_POINT('',(0.212508008566147,-0.0343524586643108,0.005));
#1545=CARTESIAN_POINT('',(0.208758008566147,-0.0343524586643108,0.005));
#1546=CARTESIAN_POINT('',(0.207508008566147,-0.0343524586643108,0.005));
#1547=CARTESIAN_POINT('',(0.207508008566147,-0.0343524586643108,0.005));
#1548=CARTESIAN_POINT('',(0.212508008566147,-0.0368524586643107,0.005));
#1549=CARTESIAN_POINT('',(0.212508008566147,-0.0368524586643107,0.));
#1550=CARTESIAN_POINT('',(0.212508008566147,-0.0393524586643108,0.));
#1551=CARTESIAN_POINT('',(0.212508008566147,-0.0393524586643108,0.005));
#1552=CARTESIAN_POINT('',(0.212508008566147,-0.0393524586643108,0.005));
#1553=CARTESIAN_POINT('',(0.212508008566147,-0.0368524586643107,0.005));
#1554=CARTESIAN_POINT('',(0.208758008566147,-0.0393524586643108,0.005));
#1555=CARTESIAN_POINT('',(0.208758008566147,-0.0393524586643108,0.));
#1556=CARTESIAN_POINT('',(0.207508008566147,-0.0393524586643108,0.));
#1557=CARTESIAN_POINT('',(0.207508008566147,-0.0393524586643108,0.005));
#1558=CARTESIAN_POINT('',(0.207508008566147,-0.0393524586643108,0.005));
#1559=CARTESIAN_POINT('',(0.208758008566147,-0.0393524586643108,0.005));
#1560=CARTESIAN_POINT('',(0.210008008566148,-0.0928524586643107,0.005));
#1561=CARTESIAN_POINT('',(0.210008008566148,-0.0928524586643107,0.));
#1562=CARTESIAN_POINT('',(0.204198533546836,-0.0913524586643106,0.));
#1563=CARTESIAN_POINT('',(0.204198533546836,-0.0943524586643108,0.));
#1564=CARTESIAN_POINT('',(0.204198533546836,-0.0913524586643106,0.005));
#1565=CARTESIAN_POINT('',(0.204198533546836,-0.0913524586643106,0.005));
#1566=CARTESIAN_POINT('',(0.210008008566148,-0.0928524586643107,0.005));
#1567=CARTESIAN_POINT('',(0.204198533546836,-0.0943524586643108,0.005));
#1568=CARTESIAN_POINT('',(0.204198533546836,-0.0943524586643108,0.005));
#1569=CARTESIAN_POINT('',(0.205249221434717,-0.0913524586643107,0.005));
#1570=CARTESIAN_POINT('',(0.205249221434717,-0.0913524586643107,0.));
#1571=CARTESIAN_POINT('',(0.206299909322599,-0.0913524586643108,0.));
#1572=CARTESIAN_POINT('',(0.206299909322599,-0.0913524586643108,0.005));
#1573=CARTESIAN_POINT('',(0.206299909322599,-0.0913524586643108,0.005));
#1574=CARTESIAN_POINT('',(0.205249221434717,-0.0913524586643107,0.005));
#1575=CARTESIAN_POINT('',(0.210008008566147,-0.0928524586643108,0.005));
#1576=CARTESIAN_POINT('',(0.210008008566147,-0.0928524586643108,0.));
#1577=CARTESIAN_POINT('',(0.206299909322599,-0.0943524586643108,0.));
#1578=CARTESIAN_POINT('',(0.206299909322599,-0.0943524586643108,0.005));
#1579=CARTESIAN_POINT('',(0.206299909322599,-0.0943524586643108,0.005));
#1580=CARTESIAN_POINT('',(0.210008008566147,-0.0928524586643108,0.005));
#1581=CARTESIAN_POINT('',(0.208758008566147,-0.0643524586643108,0.005));
#1582=CARTESIAN_POINT('',(0.208758008566147,-0.0643524586643108,0.));
#1583=CARTESIAN_POINT('',(0.212508008566147,-0.0643524586643108,0.));
#1584=CARTESIAN_POINT('',(0.207508008566147,-0.0643524586643108,0.));
#1585=CARTESIAN_POINT('',(0.212508008566147,-0.0643524586643108,0.005));
#1586=CARTESIAN_POINT('',(0.212508008566147,-0.0643524586643108,0.005));
#1587=CARTESIAN_POINT('',(0.208758008566147,-0.0643524586643108,0.005));
#1588=CARTESIAN_POINT('',(0.207508008566147,-0.0643524586643108,0.005));
#1589=CARTESIAN_POINT('',(0.207508008566147,-0.0643524586643108,0.005));
#1590=CARTESIAN_POINT('',(0.212508008566147,-0.0668524586643108,0.005));
#1591=CARTESIAN_POINT('',(0.212508008566147,-0.0668524586643108,0.));
#1592=CARTESIAN_POINT('',(0.212508008566147,-0.0693524586643108,0.));
#1593=CARTESIAN_POINT('',(0.212508008566147,-0.0693524586643108,0.005));
#1594=CARTESIAN_POINT('',(0.212508008566147,-0.0693524586643108,0.005));
#1595=CARTESIAN_POINT('',(0.212508008566147,-0.0668524586643108,0.005));
#1596=CARTESIAN_POINT('',(0.208758008566147,-0.0693524586643108,0.005));
#1597=CARTESIAN_POINT('',(0.208758008566147,-0.0693524586643108,0.));
#1598=CARTESIAN_POINT('',(0.207508008566147,-0.0693524586643108,0.));
#1599=CARTESIAN_POINT('',(0.207508008566147,-0.0693524586643108,0.005));
#1600=CARTESIAN_POINT('',(0.207508008566147,-0.0693524586643108,0.005));
#1601=CARTESIAN_POINT('',(0.208758008566147,-0.0693524586643108,0.005));
#1602=CARTESIAN_POINT('',(0.210008008566147,-0.119352458664311,0.005));
#1603=CARTESIAN_POINT('',(0.210008008566147,-0.119352458664311,0.005));
#1604=CARTESIAN_POINT('',(0.197150865709004,-0.104032736814648,0.005));
#1605=CARTESIAN_POINT('',(0.222508008566147,-0.103739963668315,0.005));
#1606=CARTESIAN_POINT('',(0.197150865709004,-0.104032736814648,0.005));
#1607=CARTESIAN_POINT('',(0.197150865709004,-0.104032736814648,0.));
#1608=CARTESIAN_POINT('',(0.210008008566147,-0.119352458664311,0.));
#1609=CARTESIAN_POINT('',(0.222508008566147,-0.103739963668315,0.));
#1610=CARTESIAN_POINT('',(0.222508008566147,-0.103739963668315,0.005));
#1611=CARTESIAN_POINT('',(0.222508008566147,-0.0259087061623087,0.005));
#1612=CARTESIAN_POINT('',(0.222508008566147,-0.0259087061623087,0.));
#1613=CARTESIAN_POINT('',(0.222508008566147,3.50463396932982E-5,0.));
#1614=CARTESIAN_POINT('',(0.222508008566147,3.50463396932982E-5,0.005));
#1615=CARTESIAN_POINT('',(0.222508008566147,3.50463396932982E-5,0.005));
#1616=CARTESIAN_POINT('',(0.222508008566147,-0.0259087061623087,0.005));
#1617=CARTESIAN_POINT('',(0.210008008566147,0.0156475413356893,0.005));
#1618=CARTESIAN_POINT('',(0.210008008566147,0.0156475413356893,0.));
#1619=CARTESIAN_POINT('',(0.197150865709004,0.000327819486027001,0.));
#1620=CARTESIAN_POINT('',(0.197150865709004,0.000327819486027,0.005));
#1621=CARTESIAN_POINT('',(0.197150865709004,0.000327819486027001,0.005));
#1622=CARTESIAN_POINT('',(0.210008008566147,0.0156475413356893,0.005));
#1623=CARTESIAN_POINT('',(0.210008008566147,-0.119352458664311,0.005));
#1624=CARTESIAN_POINT('',(0.210008008566147,-0.119352458664311,0.));
#1625=CARTESIAN_POINT('',(0.213158008566147,-0.116650607447089,0.));
#1626=CARTESIAN_POINT('',(0.206858008566147,-0.11665060744709,0.));
#1627=CARTESIAN_POINT('',(0.213158008566147,-0.116650607447089,0.005));
#1628=CARTESIAN_POINT('',(0.213158008566147,-0.116650607447089,0.008));
#1629=CARTESIAN_POINT('',(0.210008008566147,-0.119352458664311,0.008));
#1630=CARTESIAN_POINT('',(0.206858008566147,-0.11665060744709,0.008));
#1631=CARTESIAN_POINT('',(0.206858008566147,-0.11665060744709,0.005));
#1632=CARTESIAN_POINT('',(0.213158008566147,-0.119352458664311,0.005));
#1633=CARTESIAN_POINT('',(0.213158008566147,-0.119352458664311,0.));
#1634=CARTESIAN_POINT('',(0.213158008566147,-0.122054309881532,0.));
#1635=CARTESIAN_POINT('',(0.213158008566147,-0.122054309881532,0.005));
#1636=CARTESIAN_POINT('',(0.213158008566147,-0.122054309881532,0.008));
#1637=CARTESIAN_POINT('',(0.213158008566147,-0.119352458664311,0.008));
#1638=CARTESIAN_POINT('',(0.210008008566147,-0.119352458664311,0.005));
#1639=CARTESIAN_POINT('',(0.210008008566147,-0.119352458664311,0.));
#1640=CARTESIAN_POINT('',(0.206858008566147,-0.122054309881532,0.));
#1641=CARTESIAN_POINT('',(0.206858008566147,-0.122054309881532,0.005));
#1642=CARTESIAN_POINT('',(0.206858008566147,-0.122054309881532,0.008));
#1643=CARTESIAN_POINT('',(0.210008008566147,-0.119352458664311,0.008));
#1644=CARTESIAN_POINT('',(0.194483008566147,0.0156475413356893,0.005));
#1645=CARTESIAN_POINT('',(0.194483008566147,0.0156475413356893,0.005));
#1646=CARTESIAN_POINT('',(0.195908008566147,0.0156475413356893,0.005));
#1647=CARTESIAN_POINT('',(0.194483008566147,0.0156475413356893,0.));
#1648=CARTESIAN_POINT('',(0.195908008566147,0.0156475413356893,0.));
#1649=CARTESIAN_POINT('',(0.210008008566147,0.0156475413356893,0.005));
#1650=CARTESIAN_POINT('',(0.210008008566147,0.0156475413356893,0.005));
#1651=CARTESIAN_POINT('',(0.217508008566147,0.0156475413356893,0.005));
#1652=CARTESIAN_POINT('',(0.210008008566147,0.0156475413356893,0.));
#1653=CARTESIAN_POINT('',(0.217508008566147,0.0156475413356893,0.));
#1654=CARTESIAN_POINT('',(0.225533008566147,0.0156475413356893,0.005));
#1655=CARTESIAN_POINT('',(0.225533008566147,0.0156475413356893,0.005));
#1656=CARTESIAN_POINT('',(0.226958008566147,0.0156475413356893,0.005));
#1657=CARTESIAN_POINT('',(0.225533008566147,0.0156475413356893,0.));
#1658=CARTESIAN_POINT('',(0.226958008566147,0.0156475413356893,0.));
#1659=CARTESIAN_POINT('',(0.202017701938739,0.00765723470828127,0.005));
#1660=CARTESIAN_POINT('',(0.202017701938739,0.00765723470828127,0.005));
#1661=CARTESIAN_POINT('',(0.203517701938739,0.00765723470828127,0.005));
#1662=CARTESIAN_POINT('',(0.202017701938739,0.00765723470828127,0.));
#1663=CARTESIAN_POINT('',(0.203517701938739,0.00765723470828127,0.));
#1664=CARTESIAN_POINT('',(0.202017701938739,0.0236378479630973,0.005));
#1665=CARTESIAN_POINT('',(0.202017701938739,0.0236378479630973,0.005));
#1666=CARTESIAN_POINT('',(0.203517701938739,0.0236378479630973,0.005));
#1667=CARTESIAN_POINT('',(0.202017701938739,0.0236378479630973,0.));
#1668=CARTESIAN_POINT('',(0.203517701938739,0.0236378479630973,0.));
#1669=CARTESIAN_POINT('',(0.217998315193555,0.0236378479630973,0.005));
#1670=CARTESIAN_POINT('',(0.217998315193555,0.0236378479630973,0.005));
#1671=CARTESIAN_POINT('',(0.219498315193555,0.0236378479630973,0.005));
#1672=CARTESIAN_POINT('',(0.217998315193555,0.0236378479630973,0.));
#1673=CARTESIAN_POINT('',(0.219498315193555,0.0236378479630973,0.));
#1674=CARTESIAN_POINT('',(0.217998315193555,0.00765723470828131,0.005));
#1675=CARTESIAN_POINT('',(0.217998315193555,0.00765723470828131,0.005));
#1676=CARTESIAN_POINT('',(0.219498315193555,0.00765723470828131,0.005));
#1677=CARTESIAN_POINT('',(0.217998315193555,0.00765723470828131,0.));
#1678=CARTESIAN_POINT('',(0.219498315193555,0.00765723470828131,0.));
#1679=CARTESIAN_POINT('',(0.210008008566147,0.000122541335689272,0.005));
#1680=CARTESIAN_POINT('',(0.210008008566147,0.000122541335689272,0.005));
#1681=CARTESIAN_POINT('',(0.211433008566147,0.000122541335689272,0.005));
#1682=CARTESIAN_POINT('',(0.210008008566147,0.000122541335689272,0.));
#1683=CARTESIAN_POINT('',(0.211433008566147,0.000122541335689272,0.));
#1684=CARTESIAN_POINT('',(0.208508008566147,-0.0880936715328813,0.005));
#1685=CARTESIAN_POINT('',(0.208508008566147,-0.0880936715328813,0.));
#1686=CARTESIAN_POINT('',(0.208508008566147,-0.0880936715328813,0.005));
#1687=CARTESIAN_POINT('',(0.210008008566147,-0.0928524586643109,0.005));
#1688=CARTESIAN_POINT('',(0.210008008566147,-0.0928524586643109,0.));
#1689=CARTESIAN_POINT('',(0.210008008566147,-0.0928524586643109,0.005));
#1690=CARTESIAN_POINT('',(0.214766795697577,-0.0913524586643107,0.005));
#1691=CARTESIAN_POINT('',(0.214766795697577,-0.0913524586643107,0.));
#1692=CARTESIAN_POINT('',(0.214766795697577,-0.0913524586643107,0.005));
#1693=CARTESIAN_POINT('',(0.207508008566147,-0.0368524586643107,0.005));
#1694=CARTESIAN_POINT('',(0.207508008566147,-0.0368524586643107,0.));
#1695=CARTESIAN_POINT('',(0.207508008566147,-0.0368524586643107,0.005));
#1696=CARTESIAN_POINT('',(0.205249221434717,-0.0943524586643108,0.005));
#1697=CARTESIAN_POINT('',(0.205249221434717,-0.0943524586643108,0.));
#1698=CARTESIAN_POINT('',(0.205249221434717,-0.0943524586643108,0.005));
#1699=CARTESIAN_POINT('',(0.207508008566147,-0.0668524586643108,0.005));
#1700=CARTESIAN_POINT('',(0.207508008566147,-0.0668524586643108,0.));
#1701=CARTESIAN_POINT('',(0.207508008566147,-0.0668524586643108,0.005));
#1702=CARTESIAN_POINT('',(0.210008008566147,-0.0928524586643107,0.005));
#1703=CARTESIAN_POINT('',(0.210008008566147,-0.0928524586643107,0.005));
#1704=CARTESIAN_POINT('',(0.211433008566147,-0.0928524586643107,0.005));
#1705=CARTESIAN_POINT('',(0.210008008566147,-0.0928524586643107,0.));
#1706=CARTESIAN_POINT('',(0.211433008566147,-0.0928524586643107,0.));
#1707=CARTESIAN_POINT('',(0.197508008566147,-0.0777962111663127,0.005));
#1708=CARTESIAN_POINT('',(0.197508008566147,-0.0777962111663127,0.));
#1709=CARTESIAN_POINT('',(0.197508008566147,-0.000438166606456125,0.));
#1710=CARTESIAN_POINT('',(0.197508008566147,-0.103266750722165,0.));
#1711=CARTESIAN_POINT('',(0.197508008566147,-0.103266750722165,0.005));
#1712=CARTESIAN_POINT('',(0.197508008566147,-0.103266750722165,0.005));
#1713=CARTESIAN_POINT('',(0.197508008566147,-0.0777962111663127,0.005));
#1714=CARTESIAN_POINT('',(0.197508008566147,-0.000438166606456125,0.005));
#1715=CARTESIAN_POINT('',(0.197508008566147,-0.000438166606456118,0.));
#1716=CARTESIAN_POINT('',(0.206858008566147,-0.119352458664311,0.005));
#1717=CARTESIAN_POINT('',(0.206858008566147,-0.119352458664311,0.));
#1718=CARTESIAN_POINT('',(0.206858008566147,-0.119352458664311,0.008));
#1719=CARTESIAN_POINT('',(0.210008008566147,0.0311725413356893,0.005));
#1720=CARTESIAN_POINT('',(0.210008008566147,0.0311725413356893,0.005));
#1721=CARTESIAN_POINT('',(0.211433008566147,0.0311725413356893,0.005));
#1722=CARTESIAN_POINT('',(0.210008008566147,0.0311725413356893,0.));
#1723=CARTESIAN_POINT('',(0.211433008566147,0.0311725413356893,0.));
#1724=CARTESIAN_POINT('',(0.210008008566147,-0.0518524586643107,0.005));
#1725=CARTESIAN_POINT('',(0.195419280628445,0.0209574040608203,0.005));
#1726=CARTESIAN_POINT('',(0.196919280628445,0.0209574040608203,0.005));
#1727=CARTESIAN_POINT('',(0.224596736503848,0.0103376786105583,0.005));
#1728=CARTESIAN_POINT('',(0.226096736503848,0.0103376786105583,0.005));
#1729=CARTESIAN_POINT('',(0.210008008566147,-0.119352458664311,0.005));
#1730=CARTESIAN_POINT('',(0.215008008566147,-0.119352458664311,0.005));
#1731=CARTESIAN_POINT('',(0.196508008566147,-0.103266750722165,0.005));
#1732=CARTESIAN_POINT('',(0.196508008566147,-0.000438166606456118,0.005));
#1733=CARTESIAN_POINT('',(0.210008008566147,-0.0518524586643107,0.));
#1734=CARTESIAN_POINT('',(0.224596736503848,0.0103376786105583,0.));
#1735=CARTESIAN_POINT('',(0.222946736503848,0.0103376786105583,0.));
#1736=CARTESIAN_POINT('',(0.195419280628445,0.0209574040608203,0.));
#1737=CARTESIAN_POINT('',(0.193769280628445,0.0209574040608203,0.));
#1738=CARTESIAN_POINT('',(0.196508008566147,-0.103266750722165,0.));
#1739=CARTESIAN_POINT('',(0.196508008566147,-0.000438166606456118,0.));
#1740=CARTESIAN_POINT('',(0.210008008566147,-0.119352458664311,0.008));
#1741=CARTESIAN_POINT('',(0.210008008566147,-0.119352458664311,0.008));
#1742=CARTESIAN_POINT('',(0.215008008566147,-0.119352458664311,0.008));
#1743=CARTESIAN_POINT('',(0.210008008566147,-0.0518524586643107,0.008));
#1744=CARTESIAN_POINT('',(0.224596736503848,0.0103376786105583,0.005));
#1745=CARTESIAN_POINT('',(0.224596736503848,0.0103376786105583,0.0057));
#1746=CARTESIAN_POINT('',(0.225396736503848,0.0103376786105583,0.0057));
#1747=CARTESIAN_POINT('',(0.210008008566147,-0.0518524586643107,0.0057));
#1748=CARTESIAN_POINT('',(0.195419280628445,0.0209574040608203,0.005));
#1749=CARTESIAN_POINT('',(0.195419280628445,0.0209574040608203,0.0057));
#1750=CARTESIAN_POINT('',(0.196219280628445,0.0209574040608203,0.0057));
#1751=CARTESIAN_POINT('',(0.210008008566147,-0.0518524586643107,0.0057));
#1752=CARTESIAN_POINT('',(0.195419280628445,0.0209574040608203,0.));
#1753=CARTESIAN_POINT('',(0.195419280628445,0.0209574040608203,0.001));
#1754=CARTESIAN_POINT('',(0.194769280628446,0.0209574040608203,0.001));
#1755=CARTESIAN_POINT('',(0.210008008566147,-0.0518524586643107,0.001));
#1756=CARTESIAN_POINT('',(0.224596736503848,0.0103376786105583,0.));
#1757=CARTESIAN_POINT('',(0.224596736503848,0.0103376786105583,0.001));
#1758=CARTESIAN_POINT('',(0.223946736503848,0.0103376786105583,0.001));
#1759=CARTESIAN_POINT('',(0.210008008566147,-0.0518524586643107,0.001));
#1760=CARTESIAN_POINT('',(0.196508008566147,-0.103266750722165,0.005));
#1761=CARTESIAN_POINT('',(0.196508008566147,-0.000438166606456118,0.005));
#1762=MECHANICAL_DESIGN_GEOMETRIC_PRESENTATION_REPRESENTATION('',(#1045),
#1763);
#1763=(
GEOMETRIC_REPRESENTATION_CONTEXT(3)
GLOBAL_UNCERTAINTY_ASSIGNED_CONTEXT((#1764))
GLOBAL_UNIT_ASSIGNED_CONTEXT((#1767,#1766,#1765))
REPRESENTATION_CONTEXT('elbow-to-shoulder-link',
'TOP_LEVEL_ASSEMBLY_PART')
);
#1764=UNCERTAINTY_MEASURE_WITH_UNIT(LENGTH_MEASURE(1.E-8),#1767,
'DISTANCE_ACCURACY_VALUE','Maximum Tolerance applied to model');
#1765=(
NAMED_UNIT(*)
SI_UNIT($,.STERADIAN.)
SOLID_ANGLE_UNIT()
);
#1766=(
NAMED_UNIT(*)
PLANE_ANGLE_UNIT()
SI_UNIT($,.RADIAN.)
);
#1767=(
LENGTH_UNIT()
NAMED_UNIT(*)
SI_UNIT($,.METRE.)
);
#1768=PRODUCT_DEFINITION_SHAPE('','',#1769);
#1769=PRODUCT_DEFINITION('','',#1771,#1770);
#1770=PRODUCT_DEFINITION_CONTEXT('',#1777,'design');
#1771=PRODUCT_DEFINITION_FORMATION_WITH_SPECIFIED_SOURCE('','',#1773,
 .NOT_KNOWN.);
#1772=PRODUCT_RELATED_PRODUCT_CATEGORY('','',(#1773));
#1773=PRODUCT('elbow-to-shoulder-link','elbow-to-shoulder-link',
'elbow-to-shoulder-link',(#1775));
#1774=PRODUCT_CATEGORY('','');
#1775=PRODUCT_CONTEXT('',#1777,'mechanical');
#1776=APPLICATION_PROTOCOL_DEFINITION('international standard',
'ap242_managed_model_based_3d_engineering',2020,#1777);
#1777=APPLICATION_CONTEXT('managed model based 3d engineering');
ENDSEC;
END-ISO-10303-21;
