ISO-10303-21;
HEADER;
/* Generated by software containing ST-Developer
 * from STEP Tools, Inc. (www.steptools.com) 
 */
/* OPTION: using custom renumber hook */

FILE_DESCRIPTION(
/* description */ ('STEP AP242 Edition 2',
'CAx-IF Rec.Pracs.---Representation and Presentation of Product Manufa
cturing Information (PMI)---4.0---2014-10-13',
'CAx-IF Rec.Pracs.---3D Tessellated Geometry---0.4---2014-09-14','2;1',
'CAx-IF Rec.Pracs.---User Defined Attributes---1.5---2016-08-15'),
/* implementation_level */ '2;1');

FILE_NAME(
/* name */ 'Part Studio 1 - link_tooltip',
/* time_stamp */ '2026-08-24T08:34:48Z',
/* author */ (''),
/* organization */ (''),
/* preprocessor_version */ 'ST-DEVELOPER v20',
/* originating_system */ 'ONSHAPE BY PTC INC, 1.219',
/* authorisation */ '  ');

FILE_SCHEMA (('AP242_MANAGED_MODEL_BASED_3D_ENGINEERING_MIM_LF { 1 0 10303 442 3 1 4 }'));
ENDSEC;

DATA;
#10=SHAPE_REPRESENTATION_RELATIONSHIP('','',#317,#11);
#11=ADVANCED_BREP_SHAPE_REPRESENTATION('',(#315),#531);
#12=PLANE('',#322);
#13=PLANE('',#323);
#14=PLANE('',#327);
#15=PLANE('',#331);
#16=PLANE('',#335);
#17=PLANE('',#336);
#18=PLANE('',#340);
#19=PLANE('',#343);
#20=PLANE('',#349);
#21=LINE('',#449,#45);
#22=LINE('',#453,#46);
#23=LINE('',#455,#47);
#24=LINE('',#457,#48);
#25=LINE('',#459,#49);
#26=LINE('',#461,#50);
#27=LINE('',#464,#51);
#28=LINE('',#466,#52);
#29=LINE('',#468,#53);
#30=LINE('',#472,#54);
#31=LINE('',#476,#55);
#32=LINE('',#478,#56);
#33=LINE('',#480,#57);
#34=LINE('',#482,#58);
#35=LINE('',#487,#59);
#36=LINE('',#491,#60);
#37=LINE('',#493,#61);
#38=LINE('',#495,#62);
#39=LINE('',#499,#63);
#40=LINE('',#503,#64);
#41=LINE('',#505,#65);
#42=LINE('',#507,#66);
#43=LINE('',#509,#67);
#44=LINE('',#510,#68);
#45=VECTOR('',#358,1.);
#46=VECTOR('',#361,1.);
#47=VECTOR('',#364,1.);
#48=VECTOR('',#365,1.);
#49=VECTOR('',#366,1.);
#50=VECTOR('',#369,1.);
#51=VECTOR('',#370,1.);
#52=VECTOR('',#371,1.);
#53=VECTOR('',#372,1.);
#54=VECTOR('',#377,1.);
#55=VECTOR('',#382,1.);
#56=VECTOR('',#383,1.);
#57=VECTOR('',#384,1.);
#58=VECTOR('',#387,1.);
#59=VECTOR('',#390,1.);
#60=VECTOR('',#395,1.);
#61=VECTOR('',#396,1.);
#62=VECTOR('',#397,1.);
#63=VECTOR('',#402,1.);
#64=VECTOR('',#407,1.);
#65=VECTOR('',#408,1.);
#66=VECTOR('',#409,1.);
#67=VECTOR('',#412,1.);
#68=VECTOR('',#413,1.);
#69=ORIENTED_EDGE('',*,*,#149,.T.);
#70=ORIENTED_EDGE('',*,*,#150,.F.);
#71=ORIENTED_EDGE('',*,*,#151,.F.);
#72=ORIENTED_EDGE('',*,*,#152,.T.);
#73=ORIENTED_EDGE('',*,*,#153,.F.);
#74=ORIENTED_EDGE('',*,*,#154,.T.);
#75=ORIENTED_EDGE('',*,*,#155,.T.);
#76=ORIENTED_EDGE('',*,*,#150,.T.);
#77=ORIENTED_EDGE('',*,*,#156,.T.);
#78=ORIENTED_EDGE('',*,*,#157,.T.);
#79=ORIENTED_EDGE('',*,*,#158,.F.);
#80=ORIENTED_EDGE('',*,*,#159,.F.);
#81=ORIENTED_EDGE('',*,*,#160,.T.);
#82=ORIENTED_EDGE('',*,*,#161,.F.);
#83=ORIENTED_EDGE('',*,*,#162,.F.);
#84=ORIENTED_EDGE('',*,*,#159,.T.);
#85=ORIENTED_EDGE('',*,*,#163,.F.);
#86=ORIENTED_EDGE('',*,*,#164,.T.);
#87=ORIENTED_EDGE('',*,*,#165,.T.);
#88=ORIENTED_EDGE('',*,*,#161,.T.);
#89=ORIENTED_EDGE('',*,*,#166,.T.);
#90=ORIENTED_EDGE('',*,*,#167,.F.);
#91=ORIENTED_EDGE('',*,*,#168,.F.);
#92=ORIENTED_EDGE('',*,*,#169,.T.);
#93=ORIENTED_EDGE('',*,*,#168,.T.);
#94=ORIENTED_EDGE('',*,*,#170,.F.);
#95=ORIENTED_EDGE('',*,*,#171,.F.);
#96=ORIENTED_EDGE('',*,*,#172,.T.);
#97=ORIENTED_EDGE('',*,*,#171,.T.);
#98=ORIENTED_EDGE('',*,*,#173,.F.);
#99=ORIENTED_EDGE('',*,*,#174,.F.);
#100=ORIENTED_EDGE('',*,*,#175,.T.);
#101=ORIENTED_EDGE('',*,*,#176,.T.);
#102=ORIENTED_EDGE('',*,*,#177,.T.);
#103=ORIENTED_EDGE('',*,*,#178,.F.);
#104=ORIENTED_EDGE('',*,*,#152,.F.);
#105=ORIENTED_EDGE('',*,*,#174,.T.);
#106=ORIENTED_EDGE('',*,*,#179,.T.);
#107=ORIENTED_EDGE('',*,*,#166,.F.);
#108=ORIENTED_EDGE('',*,*,#180,.F.);
#109=ORIENTED_EDGE('',*,*,#181,.T.);
#110=ORIENTED_EDGE('',*,*,#182,.F.);
#111=ORIENTED_EDGE('',*,*,#155,.F.);
#112=ORIENTED_EDGE('',*,*,#183,.T.);
#113=ORIENTED_EDGE('',*,*,#156,.F.);
#114=ORIENTED_EDGE('',*,*,#162,.T.);
#115=ORIENTED_EDGE('',*,*,#165,.F.);
#116=ORIENTED_EDGE('',*,*,#184,.T.);
#117=ORIENTED_EDGE('',*,*,#176,.F.);
#118=ORIENTED_EDGE('',*,*,#151,.T.);
#119=ORIENTED_EDGE('',*,*,#181,.F.);
#120=ORIENTED_EDGE('',*,*,#169,.F.);
#121=ORIENTED_EDGE('',*,*,#172,.F.);
#122=ORIENTED_EDGE('',*,*,#175,.F.);
#123=ORIENTED_EDGE('',*,*,#180,.T.);
#124=ORIENTED_EDGE('',*,*,#185,.T.);
#125=ORIENTED_EDGE('',*,*,#158,.T.);
#126=ORIENTED_EDGE('',*,*,#186,.T.);
#127=ORIENTED_EDGE('',*,*,#153,.T.);
#128=ORIENTED_EDGE('',*,*,#149,.F.);
#129=ORIENTED_EDGE('',*,*,#178,.T.);
#130=ORIENTED_EDGE('',*,*,#187,.T.);
#131=ORIENTED_EDGE('',*,*,#163,.T.);
#132=ORIENTED_EDGE('',*,*,#160,.F.);
#133=ORIENTED_EDGE('',*,*,#182,.T.);
#134=ORIENTED_EDGE('',*,*,#188,.T.);
#135=ORIENTED_EDGE('',*,*,#185,.F.);
#136=ORIENTED_EDGE('',*,*,#167,.T.);
#137=ORIENTED_EDGE('',*,*,#179,.F.);
#138=ORIENTED_EDGE('',*,*,#173,.T.);
#139=ORIENTED_EDGE('',*,*,#170,.T.);
#140=ORIENTED_EDGE('',*,*,#188,.F.);
#141=ORIENTED_EDGE('',*,*,#184,.F.);
#142=ORIENTED_EDGE('',*,*,#164,.F.);
#143=ORIENTED_EDGE('',*,*,#187,.F.);
#144=ORIENTED_EDGE('',*,*,#177,.F.);
#145=ORIENTED_EDGE('',*,*,#183,.F.);
#146=ORIENTED_EDGE('',*,*,#154,.F.);
#147=ORIENTED_EDGE('',*,*,#186,.F.);
#148=ORIENTED_EDGE('',*,*,#157,.F.);
#149=EDGE_CURVE('',#189,#190,#217,.T.);
#150=EDGE_CURVE('',#191,#190,#21,.T.);
#151=EDGE_CURVE('',#192,#191,#218,.T.);
#152=EDGE_CURVE('',#192,#189,#22,.T.);
#153=EDGE_CURVE('',#193,#190,#23,.T.);
#154=EDGE_CURVE('',#193,#194,#24,.F.);
#155=EDGE_CURVE('',#194,#191,#25,.T.);
#156=EDGE_CURVE('',#195,#196,#26,.T.);
#157=EDGE_CURVE('',#196,#197,#27,.T.);
#158=EDGE_CURVE('',#198,#197,#28,.T.);
#159=EDGE_CURVE('',#195,#198,#29,.T.);
#160=EDGE_CURVE('',#198,#199,#219,.T.);
#161=EDGE_CURVE('',#200,#199,#30,.T.);
#162=EDGE_CURVE('',#195,#200,#220,.T.);
#163=EDGE_CURVE('',#201,#199,#31,.T.);
#164=EDGE_CURVE('',#201,#202,#32,.F.);
#165=EDGE_CURVE('',#202,#200,#33,.T.);
#166=EDGE_CURVE('',#203,#204,#34,.T.);
#167=EDGE_CURVE('',#205,#204,#221,.T.);
#168=EDGE_CURVE('',#206,#205,#35,.T.);
#169=EDGE_CURVE('',#206,#203,#222,.T.);
#170=EDGE_CURVE('',#207,#205,#36,.T.);
#171=EDGE_CURVE('',#208,#207,#37,.T.);
#172=EDGE_CURVE('',#208,#206,#38,.T.);
#173=EDGE_CURVE('',#209,#207,#223,.T.);
#174=EDGE_CURVE('',#210,#209,#39,.T.);
#175=EDGE_CURVE('',#210,#208,#224,.T.);
#176=EDGE_CURVE('',#192,#211,#40,.T.);
#177=EDGE_CURVE('',#211,#212,#41,.T.);
#178=EDGE_CURVE('',#189,#212,#42,.T.);
#179=EDGE_CURVE('',#209,#204,#43,.T.);
#180=EDGE_CURVE('',#210,#203,#44,.T.);
#181=EDGE_CURVE('',#213,#213,#225,.T.);
#182=EDGE_CURVE('',#214,#214,#226,.T.);
#183=EDGE_CURVE('',#194,#196,#227,.T.);
#184=EDGE_CURVE('',#202,#211,#228,.F.);
#185=EDGE_CURVE('',#215,#215,#229,.T.);
#186=EDGE_CURVE('',#197,#193,#230,.F.);
#187=EDGE_CURVE('',#212,#201,#231,.T.);
#188=EDGE_CURVE('',#216,#216,#232,.T.);
#189=VERTEX_POINT('',#447);
#190=VERTEX_POINT('',#448);
#191=VERTEX_POINT('',#450);
#192=VERTEX_POINT('',#452);
#193=VERTEX_POINT('',#456);
#194=VERTEX_POINT('',#458);
#195=VERTEX_POINT('',#462);
#196=VERTEX_POINT('',#463);
#197=VERTEX_POINT('',#465);
#198=VERTEX_POINT('',#467);
#199=VERTEX_POINT('',#471);
#200=VERTEX_POINT('',#473);
#201=VERTEX_POINT('',#477);
#202=VERTEX_POINT('',#479);
#203=VERTEX_POINT('',#483);
#204=VERTEX_POINT('',#484);
#205=VERTEX_POINT('',#486);
#206=VERTEX_POINT('',#488);
#207=VERTEX_POINT('',#492);
#208=VERTEX_POINT('',#494);
#209=VERTEX_POINT('',#498);
#210=VERTEX_POINT('',#500);
#211=VERTEX_POINT('',#504);
#212=VERTEX_POINT('',#506);
#213=VERTEX_POINT('',#513);
#214=VERTEX_POINT('',#515);
#215=VERTEX_POINT('',#521);
#216=VERTEX_POINT('',#526);
#217=CIRCLE('',#320,0.02);
#218=CIRCLE('',#321,0.02);
#219=CIRCLE('',#325,0.015);
#220=CIRCLE('',#326,0.015);
#221=CIRCLE('',#329,0.00415);
#222=CIRCLE('',#330,0.00415);
#223=CIRCLE('',#333,0.00415);
#224=CIRCLE('',#334,0.00415);
#225=CIRCLE('',#338,0.01);
#226=CIRCLE('',#339,0.01);
#227=CIRCLE('',#341,0.005);
#228=CIRCLE('',#342,0.005);
#229=CIRCLE('',#344,0.005);
#230=CIRCLE('',#345,0.005);
#231=CIRCLE('',#346,0.005);
#232=CIRCLE('',#348,0.005);
#233=EDGE_LOOP('',(#69,#70,#71,#72));
#234=EDGE_LOOP('',(#73,#74,#75,#76));
#235=EDGE_LOOP('',(#77,#78,#79,#80));
#236=EDGE_LOOP('',(#81,#82,#83,#84));
#237=EDGE_LOOP('',(#85,#86,#87,#88));
#238=EDGE_LOOP('',(#89,#90,#91,#92));
#239=EDGE_LOOP('',(#93,#94,#95,#96));
#240=EDGE_LOOP('',(#97,#98,#99,#100));
#241=EDGE_LOOP('',(#101,#102,#103,#104));
#242=EDGE_LOOP('',(#105,#106,#107,#108));
#243=EDGE_LOOP('',(#109));
#244=EDGE_LOOP('',(#110));
#245=EDGE_LOOP('',(#111,#112,#113,#114,#115,#116,#117,#118));
#246=EDGE_LOOP('',(#119));
#247=EDGE_LOOP('',(#120,#121,#122,#123));
#248=EDGE_LOOP('',(#124));
#249=EDGE_LOOP('',(#125,#126,#127,#128,#129,#130,#131,#132));
#250=EDGE_LOOP('',(#133));
#251=EDGE_LOOP('',(#134));
#252=EDGE_LOOP('',(#135));
#253=EDGE_LOOP('',(#136,#137,#138,#139));
#254=EDGE_LOOP('',(#140));
#255=EDGE_LOOP('',(#141,#142,#143,#144));
#256=EDGE_LOOP('',(#145,#146,#147,#148));
#257=FACE_BOUND('',#233,.T.);
#258=FACE_BOUND('',#234,.T.);
#259=FACE_BOUND('',#235,.T.);
#260=FACE_BOUND('',#236,.T.);
#261=FACE_BOUND('',#237,.T.);
#262=FACE_BOUND('',#238,.T.);
#263=FACE_BOUND('',#239,.T.);
#264=FACE_BOUND('',#240,.T.);
#265=FACE_BOUND('',#241,.T.);
#266=FACE_BOUND('',#242,.T.);
#267=FACE_BOUND('',#243,.T.);
#268=FACE_BOUND('',#244,.T.);
#269=FACE_BOUND('',#245,.T.);
#270=FACE_BOUND('',#246,.T.);
#271=FACE_BOUND('',#247,.T.);
#272=FACE_BOUND('',#248,.T.);
#273=FACE_BOUND('',#249,.T.);
#274=FACE_BOUND('',#250,.T.);
#275=FACE_BOUND('',#251,.T.);
#276=FACE_BOUND('',#252,.T.);
#277=FACE_BOUND('',#253,.T.);
#278=FACE_BOUND('',#254,.T.);
#279=FACE_BOUND('',#255,.T.);
#280=FACE_BOUND('',#256,.T.);
#281=CYLINDRICAL_SURFACE('',#319,0.02);
#282=CYLINDRICAL_SURFACE('',#324,0.015);
#283=CYLINDRICAL_SURFACE('',#328,0.00415);
#284=CYLINDRICAL_SURFACE('',#332,0.00415);
#285=CYLINDRICAL_SURFACE('',#337,0.01);
#286=CYLINDRICAL_SURFACE('',#347,0.005);
#287=CYLINDRICAL_SURFACE('',#350,0.005);
#288=CYLINDRICAL_SURFACE('',#351,0.005);
#289=ADVANCED_FACE('',(#257),#281,.T.);
#290=ADVANCED_FACE('',(#258),#12,.T.);
#291=ADVANCED_FACE('',(#259),#13,.T.);
#292=ADVANCED_FACE('',(#260),#282,.T.);
#293=ADVANCED_FACE('',(#261),#14,.T.);
#294=ADVANCED_FACE('',(#262),#283,.F.);
#295=ADVANCED_FACE('',(#263),#15,.T.);
#296=ADVANCED_FACE('',(#264),#284,.F.);
#297=ADVANCED_FACE('',(#265),#16,.T.);
#298=ADVANCED_FACE('',(#266),#17,.F.);
#299=ADVANCED_FACE('',(#267,#268),#285,.F.);
#300=ADVANCED_FACE('',(#269,#270,#271),#18,.T.);
#301=ADVANCED_FACE('',(#272,#273,#274),#19,.F.);
#302=ADVANCED_FACE('',(#275,#276),#286,.T.);
#303=ADVANCED_FACE('',(#277,#278),#20,.F.);
#304=ADVANCED_FACE('',(#279),#287,.F.);
#305=ADVANCED_FACE('',(#280),#288,.T.);
#306=CLOSED_SHELL('',(#289,#290,#291,#292,#293,#294,#295,#296,#297,#298,
#299,#300,#301,#302,#303,#304,#305));
#307=STYLED_ITEM('',(#308),#315);
#308=PRESENTATION_STYLE_ASSIGNMENT((#309));
#309=SURFACE_STYLE_USAGE(.BOTH.,#310);
#310=SURFACE_SIDE_STYLE('',(#311));
#311=SURFACE_STYLE_FILL_AREA(#312);
#312=FILL_AREA_STYLE('',(#313));
#313=FILL_AREA_STYLE_COLOUR('',#314);
#314=COLOUR_RGB('',0.917647058823529,0.917647058823529,0.917647058823529);
#315=MANIFOLD_SOLID_BREP('link_tooltip',#306);
#316=SHAPE_DEFINITION_REPRESENTATION(#536,#317);
#317=SHAPE_REPRESENTATION('link_tooltip',(#318),#531);
#318=AXIS2_PLACEMENT_3D('',#444,#352,#353);
#319=AXIS2_PLACEMENT_3D('',#445,#354,#355);
#320=AXIS2_PLACEMENT_3D('',#446,#356,#357);
#321=AXIS2_PLACEMENT_3D('',#451,#359,#360);
#322=AXIS2_PLACEMENT_3D('',#454,#362,#363);
#323=AXIS2_PLACEMENT_3D('',#460,#367,#368);
#324=AXIS2_PLACEMENT_3D('',#469,#373,#374);
#325=AXIS2_PLACEMENT_3D('',#470,#375,#376);
#326=AXIS2_PLACEMENT_3D('',#474,#378,#379);
#327=AXIS2_PLACEMENT_3D('',#475,#380,#381);
#328=AXIS2_PLACEMENT_3D('',#481,#385,#386);
#329=AXIS2_PLACEMENT_3D('',#485,#388,#389);
#330=AXIS2_PLACEMENT_3D('',#489,#391,#392);
#331=AXIS2_PLACEMENT_3D('',#490,#393,#394);
#332=AXIS2_PLACEMENT_3D('',#496,#398,#399);
#333=AXIS2_PLACEMENT_3D('',#497,#400,#401);
#334=AXIS2_PLACEMENT_3D('',#501,#403,#404);
#335=AXIS2_PLACEMENT_3D('',#502,#405,#406);
#336=AXIS2_PLACEMENT_3D('',#508,#410,#411);
#337=AXIS2_PLACEMENT_3D('',#511,#414,#415);
#338=AXIS2_PLACEMENT_3D('',#512,#416,#417);
#339=AXIS2_PLACEMENT_3D('',#514,#418,#419);
#340=AXIS2_PLACEMENT_3D('',#516,#420,#421);
#341=AXIS2_PLACEMENT_3D('',#517,#422,#423);
#342=AXIS2_PLACEMENT_3D('',#518,#424,#425);
#343=AXIS2_PLACEMENT_3D('',#519,#426,#427);
#344=AXIS2_PLACEMENT_3D('',#520,#428,#429);
#345=AXIS2_PLACEMENT_3D('',#522,#430,#431);
#346=AXIS2_PLACEMENT_3D('',#523,#432,#433);
#347=AXIS2_PLACEMENT_3D('',#524,#434,#435);
#348=AXIS2_PLACEMENT_3D('',#525,#436,#437);
#349=AXIS2_PLACEMENT_3D('',#527,#438,#439);
#350=AXIS2_PLACEMENT_3D('',#528,#440,#441);
#351=AXIS2_PLACEMENT_3D('',#529,#442,#443);
#352=DIRECTION('',(0.,0.,1.));
#353=DIRECTION('',(1.,0.,0.));
#354=DIRECTION('',(-1.22464679914735E-16,0.,1.));
#355=DIRECTION('',(1.,0.,1.22464679914735E-16));
#356=DIRECTION('',(1.22464679914735E-16,0.,-1.));
#357=DIRECTION('',(-1.,0.,-1.22464679914735E-16));
#358=DIRECTION('',(-1.22464679914735E-16,0.,1.));
#359=DIRECTION('',(1.22464679914735E-16,0.,-1.));
#360=DIRECTION('',(-1.,0.,-1.22464679914735E-16));
#361=DIRECTION('',(-1.22464679914735E-16,0.,1.));
#362=DIRECTION('',(1.,0.,1.22464679914735E-16));
#363=DIRECTION('',(1.22464679914735E-16,0.,-1.));
#364=DIRECTION('',(0.,1.,0.));
#365=DIRECTION('',(-1.22464679914735E-16,0.,1.));
#366=DIRECTION('',(0.,1.,0.));
#367=DIRECTION('',(0.,-1.,0.));
#368=DIRECTION('',(-1.22464679914735E-16,0.,1.));
#369=DIRECTION('',(1.,0.,1.22464679914735E-16));
#370=DIRECTION('',(-1.22464679914735E-16,0.,1.));
#371=DIRECTION('',(1.,0.,1.22464679914735E-16));
#372=DIRECTION('',(-1.22464679914735E-16,0.,1.));
#373=DIRECTION('',(-1.22464679914735E-16,0.,1.));
#374=DIRECTION('',(1.,0.,1.22464679914735E-16));
#375=DIRECTION('',(1.22464679914735E-16,0.,-1.));
#376=DIRECTION('',(-1.,0.,-1.22464679914735E-16));
#377=DIRECTION('',(-1.22464679914735E-16,0.,1.));
#378=DIRECTION('',(1.22464679914735E-16,0.,-1.));
#379=DIRECTION('',(-1.,0.,-1.22464679914735E-16));
#380=DIRECTION('',(0.,1.,0.));
#381=DIRECTION('',(1.22464679914735E-16,0.,-1.));
#382=DIRECTION('',(-1.,0.,-1.22464679914735E-16));
#383=DIRECTION('',(-1.22464679914735E-16,0.,1.));
#384=DIRECTION('',(-1.,0.,-1.22464679914735E-16));
#385=DIRECTION('',(-1.22464679914735E-16,0.,1.));
#386=DIRECTION('',(1.,0.,1.22464679914735E-16));
#387=DIRECTION('',(-1.22464679914735E-16,0.,1.));
#388=DIRECTION('',(1.22464679914735E-16,0.,-1.));
#389=DIRECTION('',(-1.,0.,-1.22464679914735E-16));
#390=DIRECTION('',(-1.22464679914735E-16,0.,1.));
#391=DIRECTION('',(1.22464679914735E-16,0.,-1.));
#392=DIRECTION('',(-1.,0.,-1.22464679914735E-16));
#393=DIRECTION('',(1.,-6.42049963713728E-16,1.22464679914735E-16));
#394=DIRECTION('',(-6.42049963713728E-16,-1.,-7.86284432954692E-32));
#395=DIRECTION('',(6.42049963713728E-16,1.,7.86284432954692E-32));
#396=DIRECTION('',(-1.22464679914735E-16,0.,1.));
#397=DIRECTION('',(6.42049963713728E-16,1.,7.86284432954692E-32));
#398=DIRECTION('',(-1.22464679914735E-16,0.,1.));
#399=DIRECTION('',(1.,0.,1.22464679914735E-16));
#400=DIRECTION('',(1.22464679914735E-16,0.,-1.));
#401=DIRECTION('',(-1.,0.,-1.22464679914735E-16));
#402=DIRECTION('',(-1.22464679914735E-16,0.,1.));
#403=DIRECTION('',(1.22464679914735E-16,0.,-1.));
#404=DIRECTION('',(-1.,0.,-1.22464679914735E-16));
#405=DIRECTION('',(-1.,-5.55242244373351E-17,-1.22464679914735E-16));
#406=DIRECTION('',(-5.55242244373351E-17,1.,-6.79975637323217E-33));
#407=DIRECTION('',(5.55242244373351E-17,-1.,6.79975637323217E-33));
#408=DIRECTION('',(-1.22464679914735E-16,0.,1.));
#409=DIRECTION('',(5.55242244373351E-17,-1.,6.79975637323217E-33));
#410=DIRECTION('',(1.,2.72871234578338E-15,1.22464679914735E-16));
#411=DIRECTION('',(2.72871234578338E-15,-1.,3.34170884005748E-31));
#412=DIRECTION('',(-2.72871234578338E-15,1.,-3.34170884005748E-31));
#413=DIRECTION('',(-2.72871234578338E-15,1.,-3.34170884005748E-31));
#414=DIRECTION('',(-1.22464679914735E-16,0.,1.));
#415=DIRECTION('',(1.,0.,1.22464679914735E-16));
#416=DIRECTION('',(1.22464679914735E-16,0.,-1.));
#417=DIRECTION('',(-1.,0.,-1.22464679914735E-16));
#418=DIRECTION('',(1.22464679914735E-16,0.,-1.));
#419=DIRECTION('',(-1.,0.,-1.22464679914735E-16));
#420=DIRECTION('',(1.22464679914735E-16,0.,-1.));
#421=DIRECTION('',(-1.,0.,-1.22464679914735E-16));
#422=DIRECTION('',(1.22464679914735E-16,0.,-1.));
#423=DIRECTION('',(-1.,0.,-1.22464679914735E-16));
#424=DIRECTION('',(1.22464679914735E-16,0.,-1.));
#425=DIRECTION('',(-1.,0.,-1.22464679914735E-16));
#426=DIRECTION('',(1.22464679914735E-16,0.,-1.));
#427=DIRECTION('',(-1.,0.,-1.22464679914735E-16));
#428=DIRECTION('',(1.22464679914735E-16,0.,-1.));
#429=DIRECTION('',(-1.,0.,-1.22464679914735E-16));
#430=DIRECTION('',(1.22464679914735E-16,0.,-1.));
#431=DIRECTION('',(-1.,0.,-1.22464679914735E-16));
#432=DIRECTION('',(1.22464679914735E-16,0.,-1.));
#433=DIRECTION('',(-1.,0.,-1.22464679914735E-16));
#434=DIRECTION('',(1.22464679914735E-16,0.,-1.));
#435=DIRECTION('',(-1.,0.,-1.22464679914735E-16));
#436=DIRECTION('',(1.22464679914735E-16,0.,-1.));
#437=DIRECTION('',(-1.,0.,-1.22464679914735E-16));
#438=DIRECTION('',(1.22464679914735E-16,0.,-1.));
#439=DIRECTION('',(-1.,0.,-1.22464679914735E-16));
#440=DIRECTION('',(1.22464679914735E-16,0.,-1.));
#441=DIRECTION('',(-1.,0.,-1.22464679914735E-16));
#442=DIRECTION('',(-1.22464679914735E-16,0.,1.));
#443=DIRECTION('',(1.,0.,1.22464679914735E-16));
#444=CARTESIAN_POINT('',(0.,0.,0.));
#445=CARTESIAN_POINT('',(-0.0281506508588791,0.,0.005));
#446=CARTESIAN_POINT('',(-0.0281506508588791,0.,0.01));
#447=CARTESIAN_POINT('',(-0.0330970438425848,-0.01937867891397,0.01));
#448=CARTESIAN_POINT('',(-0.0230970797400012,-0.0193510056313992,0.01));
#449=CARTESIAN_POINT('',(-0.0230970797400012,-0.0193510056313992,0.005));
#450=CARTESIAN_POINT('',(-0.0230970797400012,-0.0193510056313992,0.005));
#451=CARTESIAN_POINT('',(-0.0281506508588791,0.,0.005));
#452=CARTESIAN_POINT('',(-0.0330970438425848,-0.01937867891397,0.005));
#453=CARTESIAN_POINT('',(-0.0330970438425848,-0.01937867891397,0.005));
#454=CARTESIAN_POINT('',(-0.0230970797400012,-0.0321755028156996,0.005));
#455=CARTESIAN_POINT('',(-0.0230970797400012,-0.0321755028156996,0.01));
#456=CARTESIAN_POINT('',(-0.0230970797400012,-0.04,0.01));
#457=CARTESIAN_POINT('',(-0.0230970797400012,-0.04,0.005));
#458=CARTESIAN_POINT('',(-0.0230970797400012,-0.04,0.005));
#459=CARTESIAN_POINT('',(-0.0230970797400012,-0.0321755028156996,0.005));
#460=CARTESIAN_POINT('',(-0.0335527974875747,-0.045,0.005));
#461=CARTESIAN_POINT('',(-0.0335527974875747,-0.045,0.005));
#462=CARTESIAN_POINT('',(-0.0440085152351481,-0.045,0.005));
#463=CARTESIAN_POINT('',(-0.0280970797400012,-0.045,0.005));
#464=CARTESIAN_POINT('',(-0.0280970797400012,-0.045,0.005));
#465=CARTESIAN_POINT('',(-0.0280970797400012,-0.045,0.01));
#466=CARTESIAN_POINT('',(-0.0335527974875747,-0.045,0.01));
#467=CARTESIAN_POINT('',(-0.0440085152351481,-0.045,0.01));
#468=CARTESIAN_POINT('',(-0.0440085152351481,-0.045,0.005));
#469=CARTESIAN_POINT('',(-0.0581506508588791,-0.04,0.005));
#470=CARTESIAN_POINT('',(-0.0581506508588791,-0.04,0.01));
#471=CARTESIAN_POINT('',(-0.0440085152351481,-0.035,0.01));
#472=CARTESIAN_POINT('',(-0.0440085152351481,-0.035,0.005));
#473=CARTESIAN_POINT('',(-0.0440085152351481,-0.035,0.005));
#474=CARTESIAN_POINT('',(-0.0581506508588791,-0.04,0.005));
#475=CARTESIAN_POINT('',(-0.0385527795388665,-0.035,0.005));
#476=CARTESIAN_POINT('',(-0.0385527795388665,-0.035,0.01));
#477=CARTESIAN_POINT('',(-0.0380970438425847,-0.035,0.01));
#478=CARTESIAN_POINT('',(-0.0380970438425847,-0.035,0.005));
#479=CARTESIAN_POINT('',(-0.0380970438425847,-0.035,0.005));
#480=CARTESIAN_POINT('',(-0.0385527795388665,-0.035,0.005));
#481=CARTESIAN_POINT('',(-0.0281506508588791,4.16333634234433E-17,0.005));
#482=CARTESIAN_POINT('',(-0.0250006508588791,0.00270185121722124,0.005));
#483=CARTESIAN_POINT('',(-0.0250006508588791,0.00270185121722124,0.005));
#484=CARTESIAN_POINT('',(-0.0250006508588791,0.00270185121722124,0.013));
#485=CARTESIAN_POINT('',(-0.0281506508588791,4.16333634234433E-17,0.013));
#486=CARTESIAN_POINT('',(-0.0313006508588791,0.00270185121722127,0.013));
#487=CARTESIAN_POINT('',(-0.0313006508588791,0.00270185121722127,0.005));
#488=CARTESIAN_POINT('',(-0.0313006508588791,0.00270185121722127,0.005));
#489=CARTESIAN_POINT('',(-0.0281506508588791,4.16333634234433E-17,0.005));
#490=CARTESIAN_POINT('',(-0.0313006508588791,6.93889390390723E-18,0.005));
#491=CARTESIAN_POINT('',(-0.0313006508588791,6.93889390390723E-18,0.013));
#492=CARTESIAN_POINT('',(-0.0313006508588791,-0.00270185121722126,0.013));
#493=CARTESIAN_POINT('',(-0.0313006508588791,-0.00270185121722126,0.005));
#494=CARTESIAN_POINT('',(-0.0313006508588791,-0.00270185121722126,0.005));
#495=CARTESIAN_POINT('',(-0.0313006508588791,6.93889390390723E-18,0.005));
#496=CARTESIAN_POINT('',(-0.0281506508588791,1.34441069388203E-17,0.005));
#497=CARTESIAN_POINT('',(-0.0281506508588791,1.34441069388203E-17,0.013));
#498=CARTESIAN_POINT('',(-0.0250006508588791,-0.00270185121722123,0.013));
#499=CARTESIAN_POINT('',(-0.0250006508588791,-0.00270185121722123,0.005));
#500=CARTESIAN_POINT('',(-0.0250006508588791,-0.00270185121722123,0.005));
#501=CARTESIAN_POINT('',(-0.0281506508588791,1.34441069388203E-17,0.005));
#502=CARTESIAN_POINT('',(-0.0330970438425848,-0.027189339456985,0.005));
#503=CARTESIAN_POINT('',(-0.0330970438425848,-0.027189339456985,0.005));
#504=CARTESIAN_POINT('',(-0.0330970438425848,-0.03,0.005));
#505=CARTESIAN_POINT('',(-0.0330970438425848,-0.03,0.01));
#506=CARTESIAN_POINT('',(-0.0330970438425848,-0.03,0.01));
#507=CARTESIAN_POINT('',(-0.0330970438425848,-0.027189339456985,0.01));
#508=CARTESIAN_POINT('',(-0.0250006508588791,6.93889390390723E-18,0.005));
#509=CARTESIAN_POINT('',(-0.0250006508588791,6.93889390390723E-18,0.013));
#510=CARTESIAN_POINT('',(-0.0250006508588791,6.93889390390723E-18,0.005));
#511=CARTESIAN_POINT('',(-0.0581506508588791,-0.04,0.005));
#512=CARTESIAN_POINT('',(-0.0581506508588791,-0.04,0.005));
#513=CARTESIAN_POINT('',(-0.0681506508588791,-0.04,0.005));
#514=CARTESIAN_POINT('',(-0.0581506508588791,-0.04,0.01));
#515=CARTESIAN_POINT('',(-0.0681506508588791,-0.04,0.01));
#516=CARTESIAN_POINT('',(-0.040650650858879,-0.0175,0.005));
#517=CARTESIAN_POINT('',(-0.0280970797400012,-0.04,0.005));
#518=CARTESIAN_POINT('',(-0.0380970438425847,-0.03,0.005));
#519=CARTESIAN_POINT('',(-0.040650650858879,-0.0175,0.01));
#520=CARTESIAN_POINT('',(-0.0281506508588791,3.06161699786838E-19,0.01));
#521=CARTESIAN_POINT('',(-0.033150650858879,3.06161699786838E-19,0.01));
#522=CARTESIAN_POINT('',(-0.0280970797400012,-0.04,0.01));
#523=CARTESIAN_POINT('',(-0.0380970438425847,-0.03,0.01));
#524=CARTESIAN_POINT('',(-0.0281506508588791,3.06161699786838E-19,0.013));
#525=CARTESIAN_POINT('',(-0.0281506508588791,3.06161699786838E-19,0.013));
#526=CARTESIAN_POINT('',(-0.033150650858879,3.06161699786838E-19,0.013));
#527=CARTESIAN_POINT('',(-0.0406506508588791,-0.0175,0.013));
#528=CARTESIAN_POINT('',(-0.0380970438425847,-0.03,0.005));
#529=CARTESIAN_POINT('',(-0.0280970797400012,-0.04,0.005));
#530=MECHANICAL_DESIGN_GEOMETRIC_PRESENTATION_REPRESENTATION('',(#307),
#531);
#531=(
GEOMETRIC_REPRESENTATION_CONTEXT(3)
GLOBAL_UNCERTAINTY_ASSIGNED_CONTEXT((#532))
GLOBAL_UNIT_ASSIGNED_CONTEXT((#535,#534,#533))
REPRESENTATION_CONTEXT('link_tooltip','TOP_LEVEL_ASSEMBLY_PART')
);
#532=UNCERTAINTY_MEASURE_WITH_UNIT(LENGTH_MEASURE(1.E-8),#535,
'DISTANCE_ACCURACY_VALUE','Maximum Tolerance applied to model');
#533=(
NAMED_UNIT(*)
SI_UNIT($,.STERADIAN.)
SOLID_ANGLE_UNIT()
);
#534=(
NAMED_UNIT(*)
PLANE_ANGLE_UNIT()
SI_UNIT($,.RADIAN.)
);
#535=(
LENGTH_UNIT()
NAMED_UNIT(*)
SI_UNIT($,.METRE.)
);
#536=PRODUCT_DEFINITION_SHAPE('','',#537);
#537=PRODUCT_DEFINITION('','',#539,#538);
#538=PRODUCT_DEFINITION_CONTEXT('',#545,'design');
#539=PRODUCT_DEFINITION_FORMATION_WITH_SPECIFIED_SOURCE('','',#541,
 .NOT_KNOWN.);
#540=PRODUCT_RELATED_PRODUCT_CATEGORY('','',(#541));
#541=PRODUCT('link_tooltip','link_tooltip','link_tooltip',(#543));
#542=PRODUCT_CATEGORY('','');
#543=PRODUCT_CONTEXT('',#545,'mechanical');
#544=APPLICATION_PROTOCOL_DEFINITION('international standard',
'ap242_managed_model_based_3d_engineering',2020,#545);
#545=APPLICATION_CONTEXT('managed model based 3d engineering');
ENDSEC;
END-ISO-10303-21;
