ISO-10303-21;
HEADER;
/* Generated by software containing ST-Developer
 * from STEP Tools, Inc. (www.steptools.com) 
 */
/* OPTION: using custom renumber hook */

FILE_DESCRIPTION(
/* description */ ('STEP AP242 Edition 2',
'CAx-IF Rec.Pracs.---Representation and Presentation of Product Manufa
cturing Information (PMI)---4.0---2014-10-13',
'CAx-IF Rec.Pracs.---3D Tessellated Geometry---0.4---2014-09-14','2;1',
'CAx-IF Rec.Pracs.---User Defined Attributes---1.5---2016-08-15'),
/* implementation_level */ '2;1');

FILE_NAME(
/* name */ 'Part Studio 1 - shoulder-to-elbow-link',
/* time_stamp */ '2026-08-24T08:36:29Z',
/* author */ (''),
/* organization */ (''),
/* preprocessor_version */ 'ST-DEVELOPER v20',
/* originating_system */ 'ONSHAPE BY PTC INC, 1.219',
/* authorisation */ '  ');

FILE_SCHEMA (('AP242_MANAGED_MODEL_BASED_3D_ENGINEERING_MIM_LF { 1 0 10303 442 3 1 4 }'));
ENDSEC;

DATA;
#10=SHAPE_REPRESENTATION_RELATIONSHIP('','',#1285,#11);
#11=ADVANCED_BREP_SHAPE_REPRESENTATION('',(#1283),#2151);
#12=CONICAL_SURFACE('',#1414,0.0015,0.785398163397448);
#13=CONICAL_SURFACE('',#1417,0.0015,0.785398163397448);
#14=CONICAL_SURFACE('',#1420,0.00165,0.785398163397448);
#15=CONICAL_SURFACE('',#1423,0.00165,0.785398163397448);
#16=PLANE('',#1290);
#17=PLANE('',#1297);
#18=PLANE('',#1304);
#19=PLANE('',#1311);
#20=PLANE('',#1318);
#21=PLANE('',#1325);
#22=PLANE('',#1332);
#23=PLANE('',#1339);
#24=PLANE('',#1343);
#25=PLANE('',#1344);
#26=PLANE('',#1345);
#27=PLANE('',#1349);
#28=PLANE('',#1356);
#29=PLANE('',#1384);
#30=PLANE('',#1385);
#31=PLANE('',#1386);
#32=PLANE('',#1387);
#33=PLANE('',#1388);
#34=PLANE('',#1389);
#35=PLANE('',#1393);
#36=PLANE('',#1394);
#37=PLANE('',#1398);
#38=PLANE('',#1399);
#39=PLANE('',#1400);
#40=PLANE('',#1404);
#41=PLANE('',#1408);
#42=PLANE('',#1413);
#43=PLANE('',#1416);
#44=PLANE('',#1419);
#45=PLANE('',#1422);
#46=PLANE('',#1425);
#47=LINE('',#1803,#139);
#48=LINE('',#1807,#140);
#49=LINE('',#1809,#141);
#50=LINE('',#1811,#142);
#51=LINE('',#1813,#143);
#52=LINE('',#1817,#144);
#53=LINE('',#1824,#145);
#54=LINE('',#1828,#146);
#55=LINE('',#1830,#147);
#56=LINE('',#1832,#148);
#57=LINE('',#1834,#149);
#58=LINE('',#1838,#150);
#59=LINE('',#1845,#151);
#60=LINE('',#1849,#152);
#61=LINE('',#1851,#153);
#62=LINE('',#1853,#154);
#63=LINE('',#1855,#155);
#64=LINE('',#1859,#156);
#65=LINE('',#1866,#157);
#66=LINE('',#1870,#158);
#67=LINE('',#1872,#159);
#68=LINE('',#1874,#160);
#69=LINE('',#1876,#161);
#70=LINE('',#1880,#162);
#71=LINE('',#1887,#163);
#72=LINE('',#1891,#164);
#73=LINE('',#1893,#165);
#74=LINE('',#1895,#166);
#75=LINE('',#1897,#167);
#76=LINE('',#1901,#168);
#77=LINE('',#1908,#169);
#78=LINE('',#1912,#170);
#79=LINE('',#1914,#171);
#80=LINE('',#1916,#172);
#81=LINE('',#1918,#173);
#82=LINE('',#1922,#174);
#83=LINE('',#1929,#175);
#84=LINE('',#1933,#176);
#85=LINE('',#1935,#177);
#86=LINE('',#1937,#178);
#87=LINE('',#1939,#179);
#88=LINE('',#1943,#180);
#89=LINE('',#1950,#181);
#90=LINE('',#1954,#182);
#91=LINE('',#1956,#183);
#92=LINE('',#1958,#184);
#93=LINE('',#1960,#185);
#94=LINE('',#1964,#186);
#95=LINE('',#1968,#187);
#96=LINE('',#1971,#188);
#97=LINE('',#1973,#189);
#98=LINE('',#1975,#190);
#99=LINE('',#1977,#191);
#100=LINE('',#1979,#192);
#101=LINE('',#1981,#193);
#102=LINE('',#1983,#194);
#103=LINE('',#1985,#195);
#104=LINE('',#1987,#196);
#105=LINE('',#1992,#197);
#106=LINE('',#1996,#198);
#107=LINE('',#1998,#199);
#108=LINE('',#2000,#200);
#109=LINE('',#2002,#201);
#110=LINE('',#2006,#202);
#111=LINE('',#2013,#203);
#112=LINE('',#2017,#204);
#113=LINE('',#2019,#205);
#114=LINE('',#2021,#206);
#115=LINE('',#2023,#207);
#116=LINE('',#2027,#208);
#117=LINE('',#2071,#209);
#118=LINE('',#2072,#210);
#119=LINE('',#2074,#211);
#120=LINE('',#2075,#212);
#121=LINE('',#2077,#213);
#122=LINE('',#2078,#214);
#123=LINE('',#2080,#215);
#124=LINE('',#2081,#216);
#125=LINE('',#2083,#217);
#126=LINE('',#2084,#218);
#127=LINE('',#2086,#219);
#128=LINE('',#2087,#220);
#129=LINE('',#2094,#221);
#130=LINE('',#2095,#222);
#131=LINE('',#2097,#223);
#132=LINE('',#2098,#224);
#133=LINE('',#2105,#225);
#134=LINE('',#2106,#226);
#135=LINE('',#2108,#227);
#136=LINE('',#2109,#228);
#137=LINE('',#2111,#229);
#138=LINE('',#2112,#230);
#139=VECTOR('',#1432,1.);
#140=VECTOR('',#1435,1.);
#141=VECTOR('',#1438,1.);
#142=VECTOR('',#1439,1.);
#143=VECTOR('',#1440,1.);
#144=VECTOR('',#1445,1.);
#145=VECTOR('',#1452,1.);
#146=VECTOR('',#1455,1.);
#147=VECTOR('',#1458,1.);
#148=VECTOR('',#1459,1.);
#149=VECTOR('',#1460,1.);
#150=VECTOR('',#1465,1.);
#151=VECTOR('',#1472,1.);
#152=VECTOR('',#1475,1.);
#153=VECTOR('',#1478,1.);
#154=VECTOR('',#1479,1.);
#155=VECTOR('',#1480,1.);
#156=VECTOR('',#1485,1.);
#157=VECTOR('',#1492,1.);
#158=VECTOR('',#1495,1.);
#159=VECTOR('',#1498,1.);
#160=VECTOR('',#1499,1.);
#161=VECTOR('',#1500,1.);
#162=VECTOR('',#1505,1.);
#163=VECTOR('',#1512,1.);
#164=VECTOR('',#1515,1.);
#165=VECTOR('',#1518,1.);
#166=VECTOR('',#1519,1.);
#167=VECTOR('',#1520,1.);
#168=VECTOR('',#1525,1.);
#169=VECTOR('',#1532,1.);
#170=VECTOR('',#1535,1.);
#171=VECTOR('',#1538,1.);
#172=VECTOR('',#1539,1.);
#173=VECTOR('',#1540,1.);
#174=VECTOR('',#1545,1.);
#175=VECTOR('',#1552,1.);
#176=VECTOR('',#1555,1.);
#177=VECTOR('',#1558,1.);
#178=VECTOR('',#1559,1.);
#179=VECTOR('',#1560,1.);
#180=VECTOR('',#1565,1.);
#181=VECTOR('',#1572,1.);
#182=VECTOR('',#1575,1.);
#183=VECTOR('',#1578,1.);
#184=VECTOR('',#1579,1.);
#185=VECTOR('',#1580,1.);
#186=VECTOR('',#1585,1.);
#187=VECTOR('',#1590,1.);
#188=VECTOR('',#1591,1.);
#189=VECTOR('',#1592,1.);
#190=VECTOR('',#1593,1.);
#191=VECTOR('',#1596,1.);
#192=VECTOR('',#1597,1.);
#193=VECTOR('',#1598,1.);
#194=VECTOR('',#1601,1.);
#195=VECTOR('',#1602,1.);
#196=VECTOR('',#1603,1.);
#197=VECTOR('',#1608,1.);
#198=VECTOR('',#1611,1.);
#199=VECTOR('',#1614,1.);
#200=VECTOR('',#1615,1.);
#201=VECTOR('',#1616,1.);
#202=VECTOR('',#1621,1.);
#203=VECTOR('',#1628,1.);
#204=VECTOR('',#1631,1.);
#205=VECTOR('',#1634,1.);
#206=VECTOR('',#1635,1.);
#207=VECTOR('',#1636,1.);
#208=VECTOR('',#1641,1.);
#209=VECTOR('',#1694,1.);
#210=VECTOR('',#1695,1.);
#211=VECTOR('',#1698,1.);
#212=VECTOR('',#1699,1.);
#213=VECTOR('',#1702,1.);
#214=VECTOR('',#1703,1.);
#215=VECTOR('',#1706,1.);
#216=VECTOR('',#1707,1.);
#217=VECTOR('',#1710,1.);
#218=VECTOR('',#1711,1.);
#219=VECTOR('',#1714,1.);
#220=VECTOR('',#1715,1.);
#221=VECTOR('',#1724,1.);
#222=VECTOR('',#1725,1.);
#223=VECTOR('',#1728,1.);
#224=VECTOR('',#1729,1.);
#225=VECTOR('',#1738,1.);
#226=VECTOR('',#1739,1.);
#227=VECTOR('',#1742,1.);
#228=VECTOR('',#1743,1.);
#229=VECTOR('',#1746,1.);
#230=VECTOR('',#1747,1.);
#231=ORIENTED_EDGE('',*,*,#559,.F.);
#232=ORIENTED_EDGE('',*,*,#560,.F.);
#233=ORIENTED_EDGE('',*,*,#561,.T.);
#234=ORIENTED_EDGE('',*,*,#562,.T.);
#235=ORIENTED_EDGE('',*,*,#563,.T.);
#236=ORIENTED_EDGE('',*,*,#564,.F.);
#237=ORIENTED_EDGE('',*,*,#565,.F.);
#238=ORIENTED_EDGE('',*,*,#560,.T.);
#239=ORIENTED_EDGE('',*,*,#566,.T.);
#240=ORIENTED_EDGE('',*,*,#567,.F.);
#241=ORIENTED_EDGE('',*,*,#568,.F.);
#242=ORIENTED_EDGE('',*,*,#564,.T.);
#243=ORIENTED_EDGE('',*,*,#569,.T.);
#244=ORIENTED_EDGE('',*,*,#570,.F.);
#245=ORIENTED_EDGE('',*,*,#571,.F.);
#246=ORIENTED_EDGE('',*,*,#572,.T.);
#247=ORIENTED_EDGE('',*,*,#573,.F.);
#248=ORIENTED_EDGE('',*,*,#574,.F.);
#249=ORIENTED_EDGE('',*,*,#575,.T.);
#250=ORIENTED_EDGE('',*,*,#570,.T.);
#251=ORIENTED_EDGE('',*,*,#576,.F.);
#252=ORIENTED_EDGE('',*,*,#577,.F.);
#253=ORIENTED_EDGE('',*,*,#578,.T.);
#254=ORIENTED_EDGE('',*,*,#574,.T.);
#255=ORIENTED_EDGE('',*,*,#579,.F.);
#256=ORIENTED_EDGE('',*,*,#580,.F.);
#257=ORIENTED_EDGE('',*,*,#581,.T.);
#258=ORIENTED_EDGE('',*,*,#582,.T.);
#259=ORIENTED_EDGE('',*,*,#583,.T.);
#260=ORIENTED_EDGE('',*,*,#584,.F.);
#261=ORIENTED_EDGE('',*,*,#585,.F.);
#262=ORIENTED_EDGE('',*,*,#580,.T.);
#263=ORIENTED_EDGE('',*,*,#586,.T.);
#264=ORIENTED_EDGE('',*,*,#587,.F.);
#265=ORIENTED_EDGE('',*,*,#588,.F.);
#266=ORIENTED_EDGE('',*,*,#584,.T.);
#267=ORIENTED_EDGE('',*,*,#589,.F.);
#268=ORIENTED_EDGE('',*,*,#590,.F.);
#269=ORIENTED_EDGE('',*,*,#591,.T.);
#270=ORIENTED_EDGE('',*,*,#592,.T.);
#271=ORIENTED_EDGE('',*,*,#593,.T.);
#272=ORIENTED_EDGE('',*,*,#594,.F.);
#273=ORIENTED_EDGE('',*,*,#595,.F.);
#274=ORIENTED_EDGE('',*,*,#590,.T.);
#275=ORIENTED_EDGE('',*,*,#596,.T.);
#276=ORIENTED_EDGE('',*,*,#597,.F.);
#277=ORIENTED_EDGE('',*,*,#598,.F.);
#278=ORIENTED_EDGE('',*,*,#594,.T.);
#279=ORIENTED_EDGE('',*,*,#599,.F.);
#280=ORIENTED_EDGE('',*,*,#600,.F.);
#281=ORIENTED_EDGE('',*,*,#601,.T.);
#282=ORIENTED_EDGE('',*,*,#602,.T.);
#283=ORIENTED_EDGE('',*,*,#603,.T.);
#284=ORIENTED_EDGE('',*,*,#604,.F.);
#285=ORIENTED_EDGE('',*,*,#605,.F.);
#286=ORIENTED_EDGE('',*,*,#600,.T.);
#287=ORIENTED_EDGE('',*,*,#606,.T.);
#288=ORIENTED_EDGE('',*,*,#607,.F.);
#289=ORIENTED_EDGE('',*,*,#608,.F.);
#290=ORIENTED_EDGE('',*,*,#604,.T.);
#291=ORIENTED_EDGE('',*,*,#609,.F.);
#292=ORIENTED_EDGE('',*,*,#610,.F.);
#293=ORIENTED_EDGE('',*,*,#611,.T.);
#294=ORIENTED_EDGE('',*,*,#612,.T.);
#295=ORIENTED_EDGE('',*,*,#613,.T.);
#296=ORIENTED_EDGE('',*,*,#614,.F.);
#297=ORIENTED_EDGE('',*,*,#615,.F.);
#298=ORIENTED_EDGE('',*,*,#610,.T.);
#299=ORIENTED_EDGE('',*,*,#616,.T.);
#300=ORIENTED_EDGE('',*,*,#617,.F.);
#301=ORIENTED_EDGE('',*,*,#618,.F.);
#302=ORIENTED_EDGE('',*,*,#614,.T.);
#303=ORIENTED_EDGE('',*,*,#619,.F.);
#304=ORIENTED_EDGE('',*,*,#620,.F.);
#305=ORIENTED_EDGE('',*,*,#621,.T.);
#306=ORIENTED_EDGE('',*,*,#622,.T.);
#307=ORIENTED_EDGE('',*,*,#623,.T.);
#308=ORIENTED_EDGE('',*,*,#624,.F.);
#309=ORIENTED_EDGE('',*,*,#625,.F.);
#310=ORIENTED_EDGE('',*,*,#620,.T.);
#311=ORIENTED_EDGE('',*,*,#626,.T.);
#312=ORIENTED_EDGE('',*,*,#627,.F.);
#313=ORIENTED_EDGE('',*,*,#628,.F.);
#314=ORIENTED_EDGE('',*,*,#624,.T.);
#315=ORIENTED_EDGE('',*,*,#629,.F.);
#316=ORIENTED_EDGE('',*,*,#630,.F.);
#317=ORIENTED_EDGE('',*,*,#631,.T.);
#318=ORIENTED_EDGE('',*,*,#632,.T.);
#319=ORIENTED_EDGE('',*,*,#633,.T.);
#320=ORIENTED_EDGE('',*,*,#634,.F.);
#321=ORIENTED_EDGE('',*,*,#635,.F.);
#322=ORIENTED_EDGE('',*,*,#630,.T.);
#323=ORIENTED_EDGE('',*,*,#636,.T.);
#324=ORIENTED_EDGE('',*,*,#637,.F.);
#325=ORIENTED_EDGE('',*,*,#638,.F.);
#326=ORIENTED_EDGE('',*,*,#634,.T.);
#327=ORIENTED_EDGE('',*,*,#639,.F.);
#328=ORIENTED_EDGE('',*,*,#640,.F.);
#329=ORIENTED_EDGE('',*,*,#641,.T.);
#330=ORIENTED_EDGE('',*,*,#642,.T.);
#331=ORIENTED_EDGE('',*,*,#643,.F.);
#332=ORIENTED_EDGE('',*,*,#644,.F.);
#333=ORIENTED_EDGE('',*,*,#645,.T.);
#334=ORIENTED_EDGE('',*,*,#640,.T.);
#335=ORIENTED_EDGE('',*,*,#646,.T.);
#336=ORIENTED_EDGE('',*,*,#647,.F.);
#337=ORIENTED_EDGE('',*,*,#648,.F.);
#338=ORIENTED_EDGE('',*,*,#644,.T.);
#339=ORIENTED_EDGE('',*,*,#649,.T.);
#340=ORIENTED_EDGE('',*,*,#650,.F.);
#341=ORIENTED_EDGE('',*,*,#651,.F.);
#342=ORIENTED_EDGE('',*,*,#652,.T.);
#343=ORIENTED_EDGE('',*,*,#653,.F.);
#344=ORIENTED_EDGE('',*,*,#654,.F.);
#345=ORIENTED_EDGE('',*,*,#655,.T.);
#346=ORIENTED_EDGE('',*,*,#650,.T.);
#347=ORIENTED_EDGE('',*,*,#656,.T.);
#348=ORIENTED_EDGE('',*,*,#657,.F.);
#349=ORIENTED_EDGE('',*,*,#658,.F.);
#350=ORIENTED_EDGE('',*,*,#654,.T.);
#351=ORIENTED_EDGE('',*,*,#659,.F.);
#352=ORIENTED_EDGE('',*,*,#660,.F.);
#353=ORIENTED_EDGE('',*,*,#661,.T.);
#354=ORIENTED_EDGE('',*,*,#662,.T.);
#355=ORIENTED_EDGE('',*,*,#663,.F.);
#356=ORIENTED_EDGE('',*,*,#664,.F.);
#357=ORIENTED_EDGE('',*,*,#665,.T.);
#358=ORIENTED_EDGE('',*,*,#660,.T.);
#359=ORIENTED_EDGE('',*,*,#666,.F.);
#360=ORIENTED_EDGE('',*,*,#667,.F.);
#361=ORIENTED_EDGE('',*,*,#668,.T.);
#362=ORIENTED_EDGE('',*,*,#664,.T.);
#363=ORIENTED_EDGE('',*,*,#669,.T.);
#364=ORIENTED_EDGE('',*,*,#670,.F.);
#365=ORIENTED_EDGE('',*,*,#671,.T.);
#366=ORIENTED_EDGE('',*,*,#672,.F.);
#367=ORIENTED_EDGE('',*,*,#673,.T.);
#368=ORIENTED_EDGE('',*,*,#674,.F.);
#369=ORIENTED_EDGE('',*,*,#675,.T.);
#370=ORIENTED_EDGE('',*,*,#676,.F.);
#371=ORIENTED_EDGE('',*,*,#677,.T.);
#372=ORIENTED_EDGE('',*,*,#678,.F.);
#373=ORIENTED_EDGE('',*,*,#679,.T.);
#374=ORIENTED_EDGE('',*,*,#680,.F.);
#375=ORIENTED_EDGE('',*,*,#681,.T.);
#376=ORIENTED_EDGE('',*,*,#682,.F.);
#377=ORIENTED_EDGE('',*,*,#683,.T.);
#378=ORIENTED_EDGE('',*,*,#684,.F.);
#379=ORIENTED_EDGE('',*,*,#685,.F.);
#380=ORIENTED_EDGE('',*,*,#562,.F.);
#381=ORIENTED_EDGE('',*,*,#686,.T.);
#382=ORIENTED_EDGE('',*,*,#567,.T.);
#383=ORIENTED_EDGE('',*,*,#687,.T.);
#384=ORIENTED_EDGE('',*,*,#572,.F.);
#385=ORIENTED_EDGE('',*,*,#688,.F.);
#386=ORIENTED_EDGE('',*,*,#577,.T.);
#387=ORIENTED_EDGE('',*,*,#689,.F.);
#388=ORIENTED_EDGE('',*,*,#582,.F.);
#389=ORIENTED_EDGE('',*,*,#690,.T.);
#390=ORIENTED_EDGE('',*,*,#587,.T.);
#391=ORIENTED_EDGE('',*,*,#691,.F.);
#392=ORIENTED_EDGE('',*,*,#592,.F.);
#393=ORIENTED_EDGE('',*,*,#692,.T.);
#394=ORIENTED_EDGE('',*,*,#597,.T.);
#395=ORIENTED_EDGE('',*,*,#693,.F.);
#396=ORIENTED_EDGE('',*,*,#602,.F.);
#397=ORIENTED_EDGE('',*,*,#694,.T.);
#398=ORIENTED_EDGE('',*,*,#607,.T.);
#399=ORIENTED_EDGE('',*,*,#695,.F.);
#400=ORIENTED_EDGE('',*,*,#612,.F.);
#401=ORIENTED_EDGE('',*,*,#696,.T.);
#402=ORIENTED_EDGE('',*,*,#617,.T.);
#403=ORIENTED_EDGE('',*,*,#697,.T.);
#404=ORIENTED_EDGE('',*,*,#698,.F.);
#405=ORIENTED_EDGE('',*,*,#699,.F.);
#406=ORIENTED_EDGE('',*,*,#622,.F.);
#407=ORIENTED_EDGE('',*,*,#700,.T.);
#408=ORIENTED_EDGE('',*,*,#627,.T.);
#409=ORIENTED_EDGE('',*,*,#701,.F.);
#410=ORIENTED_EDGE('',*,*,#632,.F.);
#411=ORIENTED_EDGE('',*,*,#702,.T.);
#412=ORIENTED_EDGE('',*,*,#637,.T.);
#413=ORIENTED_EDGE('',*,*,#703,.T.);
#414=ORIENTED_EDGE('',*,*,#704,.F.);
#415=ORIENTED_EDGE('',*,*,#705,.T.);
#416=ORIENTED_EDGE('',*,*,#642,.F.);
#417=ORIENTED_EDGE('',*,*,#706,.F.);
#418=ORIENTED_EDGE('',*,*,#647,.T.);
#419=ORIENTED_EDGE('',*,*,#707,.T.);
#420=ORIENTED_EDGE('',*,*,#652,.F.);
#421=ORIENTED_EDGE('',*,*,#708,.F.);
#422=ORIENTED_EDGE('',*,*,#657,.T.);
#423=ORIENTED_EDGE('',*,*,#709,.T.);
#424=ORIENTED_EDGE('',*,*,#662,.F.);
#425=ORIENTED_EDGE('',*,*,#710,.F.);
#426=ORIENTED_EDGE('',*,*,#667,.T.);
#427=ORIENTED_EDGE('',*,*,#711,.T.);
#428=ORIENTED_EDGE('',*,*,#712,.F.);
#429=ORIENTED_EDGE('',*,*,#713,.F.);
#430=ORIENTED_EDGE('',*,*,#714,.F.);
#431=ORIENTED_EDGE('',*,*,#715,.F.);
#432=ORIENTED_EDGE('',*,*,#651,.T.);
#433=ORIENTED_EDGE('',*,*,#655,.F.);
#434=ORIENTED_EDGE('',*,*,#658,.T.);
#435=ORIENTED_EDGE('',*,*,#708,.T.);
#436=ORIENTED_EDGE('',*,*,#641,.F.);
#437=ORIENTED_EDGE('',*,*,#645,.F.);
#438=ORIENTED_EDGE('',*,*,#648,.T.);
#439=ORIENTED_EDGE('',*,*,#706,.T.);
#440=ORIENTED_EDGE('',*,*,#703,.F.);
#441=ORIENTED_EDGE('',*,*,#631,.F.);
#442=ORIENTED_EDGE('',*,*,#635,.T.);
#443=ORIENTED_EDGE('',*,*,#638,.T.);
#444=ORIENTED_EDGE('',*,*,#702,.F.);
#445=ORIENTED_EDGE('',*,*,#621,.F.);
#446=ORIENTED_EDGE('',*,*,#625,.T.);
#447=ORIENTED_EDGE('',*,*,#628,.T.);
#448=ORIENTED_EDGE('',*,*,#700,.F.);
#449=ORIENTED_EDGE('',*,*,#697,.F.);
#450=ORIENTED_EDGE('',*,*,#611,.F.);
#451=ORIENTED_EDGE('',*,*,#615,.T.);
#452=ORIENTED_EDGE('',*,*,#618,.T.);
#453=ORIENTED_EDGE('',*,*,#696,.F.);
#454=ORIENTED_EDGE('',*,*,#601,.F.);
#455=ORIENTED_EDGE('',*,*,#605,.T.);
#456=ORIENTED_EDGE('',*,*,#608,.T.);
#457=ORIENTED_EDGE('',*,*,#694,.F.);
#458=ORIENTED_EDGE('',*,*,#591,.F.);
#459=ORIENTED_EDGE('',*,*,#595,.T.);
#460=ORIENTED_EDGE('',*,*,#598,.T.);
#461=ORIENTED_EDGE('',*,*,#692,.F.);
#462=ORIENTED_EDGE('',*,*,#581,.F.);
#463=ORIENTED_EDGE('',*,*,#585,.T.);
#464=ORIENTED_EDGE('',*,*,#588,.T.);
#465=ORIENTED_EDGE('',*,*,#690,.F.);
#466=ORIENTED_EDGE('',*,*,#571,.T.);
#467=ORIENTED_EDGE('',*,*,#575,.F.);
#468=ORIENTED_EDGE('',*,*,#578,.F.);
#469=ORIENTED_EDGE('',*,*,#688,.T.);
#470=ORIENTED_EDGE('',*,*,#561,.F.);
#471=ORIENTED_EDGE('',*,*,#565,.T.);
#472=ORIENTED_EDGE('',*,*,#568,.T.);
#473=ORIENTED_EDGE('',*,*,#686,.F.);
#474=ORIENTED_EDGE('',*,*,#683,.F.);
#475=ORIENTED_EDGE('',*,*,#681,.F.);
#476=ORIENTED_EDGE('',*,*,#679,.F.);
#477=ORIENTED_EDGE('',*,*,#677,.F.);
#478=ORIENTED_EDGE('',*,*,#675,.F.);
#479=ORIENTED_EDGE('',*,*,#673,.F.);
#480=ORIENTED_EDGE('',*,*,#671,.F.);
#481=ORIENTED_EDGE('',*,*,#669,.F.);
#482=ORIENTED_EDGE('',*,*,#711,.F.);
#483=ORIENTED_EDGE('',*,*,#716,.F.);
#484=ORIENTED_EDGE('',*,*,#717,.F.);
#485=ORIENTED_EDGE('',*,*,#659,.T.);
#486=ORIENTED_EDGE('',*,*,#709,.F.);
#487=ORIENTED_EDGE('',*,*,#666,.T.);
#488=ORIENTED_EDGE('',*,*,#663,.T.);
#489=ORIENTED_EDGE('',*,*,#649,.F.);
#490=ORIENTED_EDGE('',*,*,#707,.F.);
#491=ORIENTED_EDGE('',*,*,#656,.F.);
#492=ORIENTED_EDGE('',*,*,#653,.T.);
#493=ORIENTED_EDGE('',*,*,#639,.T.);
#494=ORIENTED_EDGE('',*,*,#705,.F.);
#495=ORIENTED_EDGE('',*,*,#646,.F.);
#496=ORIENTED_EDGE('',*,*,#643,.T.);
#497=ORIENTED_EDGE('',*,*,#704,.T.);
#498=ORIENTED_EDGE('',*,*,#629,.T.);
#499=ORIENTED_EDGE('',*,*,#701,.T.);
#500=ORIENTED_EDGE('',*,*,#636,.F.);
#501=ORIENTED_EDGE('',*,*,#633,.F.);
#502=ORIENTED_EDGE('',*,*,#619,.T.);
#503=ORIENTED_EDGE('',*,*,#699,.T.);
#504=ORIENTED_EDGE('',*,*,#626,.F.);
#505=ORIENTED_EDGE('',*,*,#623,.F.);
#506=ORIENTED_EDGE('',*,*,#698,.T.);
#507=ORIENTED_EDGE('',*,*,#609,.T.);
#508=ORIENTED_EDGE('',*,*,#695,.T.);
#509=ORIENTED_EDGE('',*,*,#616,.F.);
#510=ORIENTED_EDGE('',*,*,#613,.F.);
#511=ORIENTED_EDGE('',*,*,#599,.T.);
#512=ORIENTED_EDGE('',*,*,#693,.T.);
#513=ORIENTED_EDGE('',*,*,#606,.F.);
#514=ORIENTED_EDGE('',*,*,#603,.F.);
#515=ORIENTED_EDGE('',*,*,#589,.T.);
#516=ORIENTED_EDGE('',*,*,#691,.T.);
#517=ORIENTED_EDGE('',*,*,#596,.F.);
#518=ORIENTED_EDGE('',*,*,#593,.F.);
#519=ORIENTED_EDGE('',*,*,#579,.T.);
#520=ORIENTED_EDGE('',*,*,#689,.T.);
#521=ORIENTED_EDGE('',*,*,#586,.F.);
#522=ORIENTED_EDGE('',*,*,#583,.F.);
#523=ORIENTED_EDGE('',*,*,#569,.F.);
#524=ORIENTED_EDGE('',*,*,#687,.F.);
#525=ORIENTED_EDGE('',*,*,#576,.T.);
#526=ORIENTED_EDGE('',*,*,#573,.T.);
#527=ORIENTED_EDGE('',*,*,#559,.T.);
#528=ORIENTED_EDGE('',*,*,#685,.T.);
#529=ORIENTED_EDGE('',*,*,#566,.F.);
#530=ORIENTED_EDGE('',*,*,#563,.F.);
#531=ORIENTED_EDGE('',*,*,#684,.T.);
#532=ORIENTED_EDGE('',*,*,#682,.T.);
#533=ORIENTED_EDGE('',*,*,#680,.T.);
#534=ORIENTED_EDGE('',*,*,#678,.T.);
#535=ORIENTED_EDGE('',*,*,#676,.T.);
#536=ORIENTED_EDGE('',*,*,#674,.T.);
#537=ORIENTED_EDGE('',*,*,#672,.T.);
#538=ORIENTED_EDGE('',*,*,#670,.T.);
#539=ORIENTED_EDGE('',*,*,#712,.T.);
#540=ORIENTED_EDGE('',*,*,#718,.F.);
#541=ORIENTED_EDGE('',*,*,#715,.T.);
#542=ORIENTED_EDGE('',*,*,#661,.F.);
#543=ORIENTED_EDGE('',*,*,#665,.F.);
#544=ORIENTED_EDGE('',*,*,#668,.F.);
#545=ORIENTED_EDGE('',*,*,#710,.T.);
#546=ORIENTED_EDGE('',*,*,#718,.T.);
#547=ORIENTED_EDGE('',*,*,#719,.F.);
#548=ORIENTED_EDGE('',*,*,#714,.T.);
#549=ORIENTED_EDGE('',*,*,#719,.T.);
#550=ORIENTED_EDGE('',*,*,#720,.F.);
#551=ORIENTED_EDGE('',*,*,#713,.T.);
#552=ORIENTED_EDGE('',*,*,#720,.T.);
#553=ORIENTED_EDGE('',*,*,#721,.F.);
#554=ORIENTED_EDGE('',*,*,#717,.T.);
#555=ORIENTED_EDGE('',*,*,#721,.T.);
#556=ORIENTED_EDGE('',*,*,#722,.F.);
#557=ORIENTED_EDGE('',*,*,#716,.T.);
#558=ORIENTED_EDGE('',*,*,#722,.T.);
#559=EDGE_CURVE('',#723,#724,#843,.T.);
#560=EDGE_CURVE('',#725,#723,#47,.T.);
#561=EDGE_CURVE('',#725,#726,#844,.T.);
#562=EDGE_CURVE('',#726,#724,#48,.T.);
#563=EDGE_CURVE('',#723,#727,#49,.T.);
#564=EDGE_CURVE('',#728,#727,#50,.T.);
#565=EDGE_CURVE('',#725,#728,#51,.T.);
#566=EDGE_CURVE('',#727,#729,#845,.T.);
#567=EDGE_CURVE('',#730,#729,#52,.T.);
#568=EDGE_CURVE('',#728,#730,#846,.T.);
#569=EDGE_CURVE('',#731,#732,#847,.T.);
#570=EDGE_CURVE('',#733,#732,#53,.T.);
#571=EDGE_CURVE('',#734,#733,#848,.T.);
#572=EDGE_CURVE('',#734,#731,#54,.T.);
#573=EDGE_CURVE('',#735,#732,#55,.T.);
#574=EDGE_CURVE('',#736,#735,#56,.T.);
#575=EDGE_CURVE('',#736,#733,#57,.T.);
#576=EDGE_CURVE('',#737,#735,#849,.T.);
#577=EDGE_CURVE('',#738,#737,#58,.T.);
#578=EDGE_CURVE('',#738,#736,#850,.T.);
#579=EDGE_CURVE('',#739,#740,#851,.T.);
#580=EDGE_CURVE('',#741,#739,#59,.T.);
#581=EDGE_CURVE('',#741,#742,#852,.T.);
#582=EDGE_CURVE('',#742,#740,#60,.T.);
#583=EDGE_CURVE('',#739,#743,#61,.T.);
#584=EDGE_CURVE('',#744,#743,#62,.T.);
#585=EDGE_CURVE('',#741,#744,#63,.T.);
#586=EDGE_CURVE('',#743,#745,#853,.T.);
#587=EDGE_CURVE('',#746,#745,#64,.T.);
#588=EDGE_CURVE('',#744,#746,#854,.T.);
#589=EDGE_CURVE('',#747,#748,#855,.T.);
#590=EDGE_CURVE('',#749,#747,#65,.T.);
#591=EDGE_CURVE('',#749,#750,#856,.T.);
#592=EDGE_CURVE('',#750,#748,#66,.T.);
#593=EDGE_CURVE('',#747,#751,#67,.T.);
#594=EDGE_CURVE('',#752,#751,#68,.T.);
#595=EDGE_CURVE('',#749,#752,#69,.T.);
#596=EDGE_CURVE('',#751,#753,#857,.T.);
#597=EDGE_CURVE('',#754,#753,#70,.T.);
#598=EDGE_CURVE('',#752,#754,#858,.T.);
#599=EDGE_CURVE('',#755,#756,#859,.T.);
#600=EDGE_CURVE('',#757,#755,#71,.T.);
#601=EDGE_CURVE('',#757,#758,#860,.T.);
#602=EDGE_CURVE('',#758,#756,#72,.T.);
#603=EDGE_CURVE('',#755,#759,#73,.T.);
#604=EDGE_CURVE('',#760,#759,#74,.T.);
#605=EDGE_CURVE('',#757,#760,#75,.T.);
#606=EDGE_CURVE('',#759,#761,#861,.T.);
#607=EDGE_CURVE('',#762,#761,#76,.T.);
#608=EDGE_CURVE('',#760,#762,#862,.T.);
#609=EDGE_CURVE('',#763,#764,#863,.T.);
#610=EDGE_CURVE('',#765,#763,#77,.T.);
#611=EDGE_CURVE('',#765,#766,#864,.T.);
#612=EDGE_CURVE('',#766,#764,#78,.T.);
#613=EDGE_CURVE('',#763,#767,#79,.T.);
#614=EDGE_CURVE('',#768,#767,#80,.T.);
#615=EDGE_CURVE('',#765,#768,#81,.T.);
#616=EDGE_CURVE('',#767,#769,#865,.T.);
#617=EDGE_CURVE('',#770,#769,#82,.T.);
#618=EDGE_CURVE('',#768,#770,#866,.T.);
#619=EDGE_CURVE('',#771,#772,#867,.T.);
#620=EDGE_CURVE('',#773,#771,#83,.T.);
#621=EDGE_CURVE('',#773,#774,#868,.T.);
#622=EDGE_CURVE('',#774,#772,#84,.T.);
#623=EDGE_CURVE('',#771,#775,#85,.T.);
#624=EDGE_CURVE('',#776,#775,#86,.T.);
#625=EDGE_CURVE('',#773,#776,#87,.T.);
#626=EDGE_CURVE('',#775,#777,#869,.T.);
#627=EDGE_CURVE('',#778,#777,#88,.T.);
#628=EDGE_CURVE('',#776,#778,#870,.T.);
#629=EDGE_CURVE('',#779,#780,#871,.T.);
#630=EDGE_CURVE('',#781,#779,#89,.T.);
#631=EDGE_CURVE('',#781,#782,#872,.T.);
#632=EDGE_CURVE('',#782,#780,#90,.T.);
#633=EDGE_CURVE('',#779,#783,#91,.T.);
#634=EDGE_CURVE('',#784,#783,#92,.T.);
#635=EDGE_CURVE('',#781,#784,#93,.T.);
#636=EDGE_CURVE('',#783,#785,#873,.T.);
#637=EDGE_CURVE('',#786,#785,#94,.T.);
#638=EDGE_CURVE('',#784,#786,#874,.T.);
#639=EDGE_CURVE('',#787,#788,#95,.T.);
#640=EDGE_CURVE('',#789,#787,#96,.T.);
#641=EDGE_CURVE('',#789,#790,#97,.T.);
#642=EDGE_CURVE('',#790,#788,#98,.T.);
#643=EDGE_CURVE('',#791,#787,#99,.T.);
#644=EDGE_CURVE('',#792,#791,#100,.T.);
#645=EDGE_CURVE('',#792,#789,#101,.T.);
#646=EDGE_CURVE('',#791,#793,#102,.T.);
#647=EDGE_CURVE('',#794,#793,#103,.T.);
#648=EDGE_CURVE('',#792,#794,#104,.T.);
#649=EDGE_CURVE('',#795,#796,#875,.T.);
#650=EDGE_CURVE('',#797,#796,#105,.T.);
#651=EDGE_CURVE('',#798,#797,#876,.T.);
#652=EDGE_CURVE('',#798,#795,#106,.T.);
#653=EDGE_CURVE('',#799,#796,#107,.T.);
#654=EDGE_CURVE('',#800,#799,#108,.T.);
#655=EDGE_CURVE('',#800,#797,#109,.T.);
#656=EDGE_CURVE('',#799,#801,#877,.T.);
#657=EDGE_CURVE('',#802,#801,#110,.T.);
#658=EDGE_CURVE('',#800,#802,#878,.T.);
#659=EDGE_CURVE('',#803,#804,#879,.T.);
#660=EDGE_CURVE('',#805,#803,#111,.T.);
#661=EDGE_CURVE('',#805,#806,#880,.T.);
#662=EDGE_CURVE('',#806,#804,#112,.T.);
#663=EDGE_CURVE('',#807,#803,#113,.T.);
#664=EDGE_CURVE('',#808,#807,#114,.T.);
#665=EDGE_CURVE('',#808,#805,#115,.T.);
#666=EDGE_CURVE('',#809,#807,#881,.T.);
#667=EDGE_CURVE('',#810,#809,#116,.T.);
#668=EDGE_CURVE('',#810,#808,#882,.T.);
#669=EDGE_CURVE('',#811,#811,#883,.T.);
#670=EDGE_CURVE('',#812,#812,#884,.T.);
#671=EDGE_CURVE('',#813,#813,#885,.T.);
#672=EDGE_CURVE('',#814,#814,#886,.T.);
#673=EDGE_CURVE('',#815,#815,#887,.T.);
#674=EDGE_CURVE('',#816,#816,#888,.T.);
#675=EDGE_CURVE('',#817,#817,#889,.T.);
#676=EDGE_CURVE('',#818,#818,#890,.T.);
#677=EDGE_CURVE('',#819,#819,#891,.T.);
#678=EDGE_CURVE('',#820,#820,#892,.T.);
#679=EDGE_CURVE('',#821,#821,#893,.T.);
#680=EDGE_CURVE('',#822,#822,#894,.T.);
#681=EDGE_CURVE('',#823,#823,#895,.T.);
#682=EDGE_CURVE('',#824,#824,#896,.T.);
#683=EDGE_CURVE('',#825,#825,#897,.T.);
#684=EDGE_CURVE('',#826,#826,#898,.T.);
#685=EDGE_CURVE('',#724,#729,#117,.T.);
#686=EDGE_CURVE('',#726,#730,#118,.T.);
#687=EDGE_CURVE('',#737,#731,#119,.T.);
#688=EDGE_CURVE('',#738,#734,#120,.T.);
#689=EDGE_CURVE('',#740,#745,#121,.T.);
#690=EDGE_CURVE('',#742,#746,#122,.T.);
#691=EDGE_CURVE('',#748,#753,#123,.T.);
#692=EDGE_CURVE('',#750,#754,#124,.T.);
#693=EDGE_CURVE('',#756,#761,#125,.T.);
#694=EDGE_CURVE('',#758,#762,#126,.T.);
#695=EDGE_CURVE('',#764,#769,#127,.T.);
#696=EDGE_CURVE('',#766,#770,#128,.T.);
#697=EDGE_CURVE('',#827,#827,#899,.T.);
#698=EDGE_CURVE('',#828,#828,#900,.T.);
#699=EDGE_CURVE('',#772,#777,#129,.T.);
#700=EDGE_CURVE('',#774,#778,#130,.T.);
#701=EDGE_CURVE('',#780,#785,#131,.T.);
#702=EDGE_CURVE('',#782,#786,#132,.T.);
#703=EDGE_CURVE('',#829,#829,#901,.T.);
#704=EDGE_CURVE('',#830,#830,#902,.T.);
#705=EDGE_CURVE('',#793,#788,#133,.T.);
#706=EDGE_CURVE('',#794,#790,#134,.T.);
#707=EDGE_CURVE('',#801,#795,#135,.T.);
#708=EDGE_CURVE('',#802,#798,#136,.T.);
#709=EDGE_CURVE('',#809,#804,#137,.T.);
#710=EDGE_CURVE('',#810,#806,#138,.T.);
#711=EDGE_CURVE('',#831,#831,#903,.T.);
#712=EDGE_CURVE('',#832,#832,#904,.T.);
#713=EDGE_CURVE('',#833,#833,#905,.T.);
#714=EDGE_CURVE('',#834,#834,#906,.T.);
#715=EDGE_CURVE('',#835,#835,#907,.T.);
#716=EDGE_CURVE('',#836,#836,#908,.T.);
#717=EDGE_CURVE('',#837,#837,#909,.T.);
#718=EDGE_CURVE('',#838,#838,#910,.T.);
#719=EDGE_CURVE('',#839,#839,#911,.T.);
#720=EDGE_CURVE('',#840,#840,#912,.T.);
#721=EDGE_CURVE('',#841,#841,#913,.T.);
#722=EDGE_CURVE('',#842,#842,#914,.T.);
#723=VERTEX_POINT('',#1801);
#724=VERTEX_POINT('',#1802);
#725=VERTEX_POINT('',#1804);
#726=VERTEX_POINT('',#1806);
#727=VERTEX_POINT('',#1810);
#728=VERTEX_POINT('',#1812);
#729=VERTEX_POINT('',#1816);
#730=VERTEX_POINT('',#1818);
#731=VERTEX_POINT('',#1822);
#732=VERTEX_POINT('',#1823);
#733=VERTEX_POINT('',#1825);
#734=VERTEX_POINT('',#1827);
#735=VERTEX_POINT('',#1831);
#736=VERTEX_POINT('',#1833);
#737=VERTEX_POINT('',#1837);
#738=VERTEX_POINT('',#1839);
#739=VERTEX_POINT('',#1843);
#740=VERTEX_POINT('',#1844);
#741=VERTEX_POINT('',#1846);
#742=VERTEX_POINT('',#1848);
#743=VERTEX_POINT('',#1852);
#744=VERTEX_POINT('',#1854);
#745=VERTEX_POINT('',#1858);
#746=VERTEX_POINT('',#1860);
#747=VERTEX_POINT('',#1864);
#748=VERTEX_POINT('',#1865);
#749=VERTEX_POINT('',#1867);
#750=VERTEX_POINT('',#1869);
#751=VERTEX_POINT('',#1873);
#752=VERTEX_POINT('',#1875);
#753=VERTEX_POINT('',#1879);
#754=VERTEX_POINT('',#1881);
#755=VERTEX_POINT('',#1885);
#756=VERTEX_POINT('',#1886);
#757=VERTEX_POINT('',#1888);
#758=VERTEX_POINT('',#1890);
#759=VERTEX_POINT('',#1894);
#760=VERTEX_POINT('',#1896);
#761=VERTEX_POINT('',#1900);
#762=VERTEX_POINT('',#1902);
#763=VERTEX_POINT('',#1906);
#764=VERTEX_POINT('',#1907);
#765=VERTEX_POINT('',#1909);
#766=VERTEX_POINT('',#1911);
#767=VERTEX_POINT('',#1915);
#768=VERTEX_POINT('',#1917);
#769=VERTEX_POINT('',#1921);
#770=VERTEX_POINT('',#1923);
#771=VERTEX_POINT('',#1927);
#772=VERTEX_POINT('',#1928);
#773=VERTEX_POINT('',#1930);
#774=VERTEX_POINT('',#1932);
#775=VERTEX_POINT('',#1936);
#776=VERTEX_POINT('',#1938);
#777=VERTEX_POINT('',#1942);
#778=VERTEX_POINT('',#1944);
#779=VERTEX_POINT('',#1948);
#780=VERTEX_POINT('',#1949);
#781=VERTEX_POINT('',#1951);
#782=VERTEX_POINT('',#1953);
#783=VERTEX_POINT('',#1957);
#784=VERTEX_POINT('',#1959);
#785=VERTEX_POINT('',#1963);
#786=VERTEX_POINT('',#1965);
#787=VERTEX_POINT('',#1969);
#788=VERTEX_POINT('',#1970);
#789=VERTEX_POINT('',#1972);
#790=VERTEX_POINT('',#1974);
#791=VERTEX_POINT('',#1978);
#792=VERTEX_POINT('',#1980);
#793=VERTEX_POINT('',#1984);
#794=VERTEX_POINT('',#1986);
#795=VERTEX_POINT('',#1990);
#796=VERTEX_POINT('',#1991);
#797=VERTEX_POINT('',#1993);
#798=VERTEX_POINT('',#1995);
#799=VERTEX_POINT('',#1999);
#800=VERTEX_POINT('',#2001);
#801=VERTEX_POINT('',#2005);
#802=VERTEX_POINT('',#2007);
#803=VERTEX_POINT('',#2011);
#804=VERTEX_POINT('',#2012);
#805=VERTEX_POINT('',#2014);
#806=VERTEX_POINT('',#2016);
#807=VERTEX_POINT('',#2020);
#808=VERTEX_POINT('',#2022);
#809=VERTEX_POINT('',#2026);
#810=VERTEX_POINT('',#2028);
#811=VERTEX_POINT('',#2032);
#812=VERTEX_POINT('',#2034);
#813=VERTEX_POINT('',#2037);
#814=VERTEX_POINT('',#2039);
#815=VERTEX_POINT('',#2042);
#816=VERTEX_POINT('',#2044);
#817=VERTEX_POINT('',#2047);
#818=VERTEX_POINT('',#2049);
#819=VERTEX_POINT('',#2052);
#820=VERTEX_POINT('',#2054);
#821=VERTEX_POINT('',#2057);
#822=VERTEX_POINT('',#2059);
#823=VERTEX_POINT('',#2062);
#824=VERTEX_POINT('',#2064);
#825=VERTEX_POINT('',#2067);
#826=VERTEX_POINT('',#2069);
#827=VERTEX_POINT('',#2090);
#828=VERTEX_POINT('',#2092);
#829=VERTEX_POINT('',#2101);
#830=VERTEX_POINT('',#2103);
#831=VERTEX_POINT('',#2115);
#832=VERTEX_POINT('',#2117);
#833=VERTEX_POINT('',#2120);
#834=VERTEX_POINT('',#2122);
#835=VERTEX_POINT('',#2124);
#836=VERTEX_POINT('',#2127);
#837=VERTEX_POINT('',#2129);
#838=VERTEX_POINT('',#2132);
#839=VERTEX_POINT('',#2136);
#840=VERTEX_POINT('',#2140);
#841=VERTEX_POINT('',#2144);
#842=VERTEX_POINT('',#2148);
#843=CIRCLE('',#1288,0.00599999999999988);
#844=CIRCLE('',#1289,0.00599999999999988);
#845=CIRCLE('',#1292,0.004);
#846=CIRCLE('',#1293,0.004);
#847=CIRCLE('',#1295,0.004);
#848=CIRCLE('',#1296,0.004);
#849=CIRCLE('',#1299,0.00600000000000019);
#850=CIRCLE('',#1300,0.00600000000000019);
#851=CIRCLE('',#1302,0.0060000000000004);
#852=CIRCLE('',#1303,0.0060000000000004);
#853=CIRCLE('',#1306,0.004);
#854=CIRCLE('',#1307,0.004);
#855=CIRCLE('',#1309,0.00599999999999987);
#856=CIRCLE('',#1310,0.00599999999999987);
#857=CIRCLE('',#1313,0.00399999999999984);
#858=CIRCLE('',#1314,0.00399999999999984);
#859=CIRCLE('',#1316,0.00599999999999987);
#860=CIRCLE('',#1317,0.00599999999999987);
#861=CIRCLE('',#1320,0.00399999999999986);
#862=CIRCLE('',#1321,0.00399999999999986);
#863=CIRCLE('',#1323,0.00599999999999924);
#864=CIRCLE('',#1324,0.00599999999999924);
#865=CIRCLE('',#1327,0.004);
#866=CIRCLE('',#1328,0.004);
#867=CIRCLE('',#1330,0.006);
#868=CIRCLE('',#1331,0.006);
#869=CIRCLE('',#1334,0.004);
#870=CIRCLE('',#1335,0.004);
#871=CIRCLE('',#1337,0.00599999999999948);
#872=CIRCLE('',#1338,0.00599999999999948);
#873=CIRCLE('',#1341,0.00399999999999992);
#874=CIRCLE('',#1342,0.00399999999999992);
#875=CIRCLE('',#1347,0.02);
#876=CIRCLE('',#1348,0.02);
#877=CIRCLE('',#1351,0.02);
#878=CIRCLE('',#1352,0.02);
#879=CIRCLE('',#1354,0.0041500000000001);
#880=CIRCLE('',#1355,0.0041500000000001);
#881=CIRCLE('',#1358,0.00415);
#882=CIRCLE('',#1359,0.00415);
#883=CIRCLE('',#1361,0.001425);
#884=CIRCLE('',#1362,0.001425);
#885=CIRCLE('',#1364,0.001425);
#886=CIRCLE('',#1365,0.001425);
#887=CIRCLE('',#1367,0.001425);
#888=CIRCLE('',#1368,0.001425);
#889=CIRCLE('',#1370,0.001425);
#890=CIRCLE('',#1371,0.001425);
#891=CIRCLE('',#1373,0.001425);
#892=CIRCLE('',#1374,0.001425);
#893=CIRCLE('',#1376,0.0075);
#894=CIRCLE('',#1377,0.0075);
#895=CIRCLE('',#1379,0.001425);
#896=CIRCLE('',#1380,0.001425);
#897=CIRCLE('',#1382,0.001425);
#898=CIRCLE('',#1383,0.001425);
#899=CIRCLE('',#1391,0.001425);
#900=CIRCLE('',#1392,0.001425);
#901=CIRCLE('',#1396,0.001425);
#902=CIRCLE('',#1397,0.001425);
#903=CIRCLE('',#1402,0.001425);
#904=CIRCLE('',#1403,0.001425);
#905=CIRCLE('',#1405,0.0015);
#906=CIRCLE('',#1406,0.0015);
#907=CIRCLE('',#1407,0.005);
#908=CIRCLE('',#1409,0.00165);
#909=CIRCLE('',#1410,0.00165);
#910=CIRCLE('',#1412,0.005);
#911=CIRCLE('',#1415,0.0008);
#912=CIRCLE('',#1418,0.0008);
#913=CIRCLE('',#1421,0.000650000000000013);
#914=CIRCLE('',#1424,0.000650000000000013);
#915=EDGE_LOOP('',(#231,#232,#233,#234));
#916=EDGE_LOOP('',(#235,#236,#237,#238));
#917=EDGE_LOOP('',(#239,#240,#241,#242));
#918=EDGE_LOOP('',(#243,#244,#245,#246));
#919=EDGE_LOOP('',(#247,#248,#249,#250));
#920=EDGE_LOOP('',(#251,#252,#253,#254));
#921=EDGE_LOOP('',(#255,#256,#257,#258));
#922=EDGE_LOOP('',(#259,#260,#261,#262));
#923=EDGE_LOOP('',(#263,#264,#265,#266));
#924=EDGE_LOOP('',(#267,#268,#269,#270));
#925=EDGE_LOOP('',(#271,#272,#273,#274));
#926=EDGE_LOOP('',(#275,#276,#277,#278));
#927=EDGE_LOOP('',(#279,#280,#281,#282));
#928=EDGE_LOOP('',(#283,#284,#285,#286));
#929=EDGE_LOOP('',(#287,#288,#289,#290));
#930=EDGE_LOOP('',(#291,#292,#293,#294));
#931=EDGE_LOOP('',(#295,#296,#297,#298));
#932=EDGE_LOOP('',(#299,#300,#301,#302));
#933=EDGE_LOOP('',(#303,#304,#305,#306));
#934=EDGE_LOOP('',(#307,#308,#309,#310));
#935=EDGE_LOOP('',(#311,#312,#313,#314));
#936=EDGE_LOOP('',(#315,#316,#317,#318));
#937=EDGE_LOOP('',(#319,#320,#321,#322));
#938=EDGE_LOOP('',(#323,#324,#325,#326));
#939=EDGE_LOOP('',(#327,#328,#329,#330));
#940=EDGE_LOOP('',(#331,#332,#333,#334));
#941=EDGE_LOOP('',(#335,#336,#337,#338));
#942=EDGE_LOOP('',(#339,#340,#341,#342));
#943=EDGE_LOOP('',(#343,#344,#345,#346));
#944=EDGE_LOOP('',(#347,#348,#349,#350));
#945=EDGE_LOOP('',(#351,#352,#353,#354));
#946=EDGE_LOOP('',(#355,#356,#357,#358));
#947=EDGE_LOOP('',(#359,#360,#361,#362));
#948=EDGE_LOOP('',(#363));
#949=EDGE_LOOP('',(#364));
#950=EDGE_LOOP('',(#365));
#951=EDGE_LOOP('',(#366));
#952=EDGE_LOOP('',(#367));
#953=EDGE_LOOP('',(#368));
#954=EDGE_LOOP('',(#369));
#955=EDGE_LOOP('',(#370));
#956=EDGE_LOOP('',(#371));
#957=EDGE_LOOP('',(#372));
#958=EDGE_LOOP('',(#373));
#959=EDGE_LOOP('',(#374));
#960=EDGE_LOOP('',(#375));
#961=EDGE_LOOP('',(#376));
#962=EDGE_LOOP('',(#377));
#963=EDGE_LOOP('',(#378));
#964=EDGE_LOOP('',(#379,#380,#381,#382));
#965=EDGE_LOOP('',(#383,#384,#385,#386));
#966=EDGE_LOOP('',(#387,#388,#389,#390));
#967=EDGE_LOOP('',(#391,#392,#393,#394));
#968=EDGE_LOOP('',(#395,#396,#397,#398));
#969=EDGE_LOOP('',(#399,#400,#401,#402));
#970=EDGE_LOOP('',(#403));
#971=EDGE_LOOP('',(#404));
#972=EDGE_LOOP('',(#405,#406,#407,#408));
#973=EDGE_LOOP('',(#409,#410,#411,#412));
#974=EDGE_LOOP('',(#413));
#975=EDGE_LOOP('',(#414));
#976=EDGE_LOOP('',(#415,#416,#417,#418));
#977=EDGE_LOOP('',(#419,#420,#421,#422));
#978=EDGE_LOOP('',(#423,#424,#425,#426));
#979=EDGE_LOOP('',(#427));
#980=EDGE_LOOP('',(#428));
#981=EDGE_LOOP('',(#429));
#982=EDGE_LOOP('',(#430));
#983=EDGE_LOOP('',(#431));
#984=EDGE_LOOP('',(#432,#433,#434,#435));
#985=EDGE_LOOP('',(#436,#437,#438,#439));
#986=EDGE_LOOP('',(#440));
#987=EDGE_LOOP('',(#441,#442,#443,#444));
#988=EDGE_LOOP('',(#445,#446,#447,#448));
#989=EDGE_LOOP('',(#449));
#990=EDGE_LOOP('',(#450,#451,#452,#453));
#991=EDGE_LOOP('',(#454,#455,#456,#457));
#992=EDGE_LOOP('',(#458,#459,#460,#461));
#993=EDGE_LOOP('',(#462,#463,#464,#465));
#994=EDGE_LOOP('',(#466,#467,#468,#469));
#995=EDGE_LOOP('',(#470,#471,#472,#473));
#996=EDGE_LOOP('',(#474));
#997=EDGE_LOOP('',(#475));
#998=EDGE_LOOP('',(#476));
#999=EDGE_LOOP('',(#477));
#1000=EDGE_LOOP('',(#478));
#1001=EDGE_LOOP('',(#479));
#1002=EDGE_LOOP('',(#480));
#1003=EDGE_LOOP('',(#481));
#1004=EDGE_LOOP('',(#482));
#1005=EDGE_LOOP('',(#483));
#1006=EDGE_LOOP('',(#484));
#1007=EDGE_LOOP('',(#485,#486,#487,#488));
#1008=EDGE_LOOP('',(#489,#490,#491,#492));
#1009=EDGE_LOOP('',(#493,#494,#495,#496));
#1010=EDGE_LOOP('',(#497));
#1011=EDGE_LOOP('',(#498,#499,#500,#501));
#1012=EDGE_LOOP('',(#502,#503,#504,#505));
#1013=EDGE_LOOP('',(#506));
#1014=EDGE_LOOP('',(#507,#508,#509,#510));
#1015=EDGE_LOOP('',(#511,#512,#513,#514));
#1016=EDGE_LOOP('',(#515,#516,#517,#518));
#1017=EDGE_LOOP('',(#519,#520,#521,#522));
#1018=EDGE_LOOP('',(#523,#524,#525,#526));
#1019=EDGE_LOOP('',(#527,#528,#529,#530));
#1020=EDGE_LOOP('',(#531));
#1021=EDGE_LOOP('',(#532));
#1022=EDGE_LOOP('',(#533));
#1023=EDGE_LOOP('',(#534));
#1024=EDGE_LOOP('',(#535));
#1025=EDGE_LOOP('',(#536));
#1026=EDGE_LOOP('',(#537));
#1027=EDGE_LOOP('',(#538));
#1028=EDGE_LOOP('',(#539));
#1029=EDGE_LOOP('',(#540));
#1030=EDGE_LOOP('',(#541));
#1031=EDGE_LOOP('',(#542,#543,#544,#545));
#1032=EDGE_LOOP('',(#546));
#1033=EDGE_LOOP('',(#547));
#1034=EDGE_LOOP('',(#548));
#1035=EDGE_LOOP('',(#549));
#1036=EDGE_LOOP('',(#550));
#1037=EDGE_LOOP('',(#551));
#1038=EDGE_LOOP('',(#552));
#1039=EDGE_LOOP('',(#553));
#1040=EDGE_LOOP('',(#554));
#1041=EDGE_LOOP('',(#555));
#1042=EDGE_LOOP('',(#556));
#1043=EDGE_LOOP('',(#557));
#1044=EDGE_LOOP('',(#558));
#1045=FACE_BOUND('',#915,.T.);
#1046=FACE_BOUND('',#916,.T.);
#1047=FACE_BOUND('',#917,.T.);
#1048=FACE_BOUND('',#918,.T.);
#1049=FACE_BOUND('',#919,.T.);
#1050=FACE_BOUND('',#920,.T.);
#1051=FACE_BOUND('',#921,.T.);
#1052=FACE_BOUND('',#922,.T.);
#1053=FACE_BOUND('',#923,.T.);
#1054=FACE_BOUND('',#924,.T.);
#1055=FACE_BOUND('',#925,.T.);
#1056=FACE_BOUND('',#926,.T.);
#1057=FACE_BOUND('',#927,.T.);
#1058=FACE_BOUND('',#928,.T.);
#1059=FACE_BOUND('',#929,.T.);
#1060=FACE_BOUND('',#930,.T.);
#1061=FACE_BOUND('',#931,.T.);
#1062=FACE_BOUND('',#932,.T.);
#1063=FACE_BOUND('',#933,.T.);
#1064=FACE_BOUND('',#934,.T.);
#1065=FACE_BOUND('',#935,.T.);
#1066=FACE_BOUND('',#936,.T.);
#1067=FACE_BOUND('',#937,.T.);
#1068=FACE_BOUND('',#938,.T.);
#1069=FACE_BOUND('',#939,.T.);
#1070=FACE_BOUND('',#940,.T.);
#1071=FACE_BOUND('',#941,.T.);
#1072=FACE_BOUND('',#942,.T.);
#1073=FACE_BOUND('',#943,.T.);
#1074=FACE_BOUND('',#944,.T.);
#1075=FACE_BOUND('',#945,.T.);
#1076=FACE_BOUND('',#946,.T.);
#1077=FACE_BOUND('',#947,.T.);
#1078=FACE_BOUND('',#948,.T.);
#1079=FACE_BOUND('',#949,.T.);
#1080=FACE_BOUND('',#950,.T.);
#1081=FACE_BOUND('',#951,.T.);
#1082=FACE_BOUND('',#952,.T.);
#1083=FACE_BOUND('',#953,.T.);
#1084=FACE_BOUND('',#954,.T.);
#1085=FACE_BOUND('',#955,.T.);
#1086=FACE_BOUND('',#956,.T.);
#1087=FACE_BOUND('',#957,.T.);
#1088=FACE_BOUND('',#958,.T.);
#1089=FACE_BOUND('',#959,.T.);
#1090=FACE_BOUND('',#960,.T.);
#1091=FACE_BOUND('',#961,.T.);
#1092=FACE_BOUND('',#962,.T.);
#1093=FACE_BOUND('',#963,.T.);
#1094=FACE_BOUND('',#964,.T.);
#1095=FACE_BOUND('',#965,.T.);
#1096=FACE_BOUND('',#966,.T.);
#1097=FACE_BOUND('',#967,.T.);
#1098=FACE_BOUND('',#968,.T.);
#1099=FACE_BOUND('',#969,.T.);
#1100=FACE_BOUND('',#970,.T.);
#1101=FACE_BOUND('',#971,.T.);
#1102=FACE_BOUND('',#972,.T.);
#1103=FACE_BOUND('',#973,.T.);
#1104=FACE_BOUND('',#974,.T.);
#1105=FACE_BOUND('',#975,.T.);
#1106=FACE_BOUND('',#976,.T.);
#1107=FACE_BOUND('',#977,.T.);
#1108=FACE_BOUND('',#978,.T.);
#1109=FACE_BOUND('',#979,.T.);
#1110=FACE_BOUND('',#980,.T.);
#1111=FACE_BOUND('',#981,.T.);
#1112=FACE_BOUND('',#982,.T.);
#1113=FACE_BOUND('',#983,.T.);
#1114=FACE_BOUND('',#984,.T.);
#1115=FACE_BOUND('',#985,.T.);
#1116=FACE_BOUND('',#986,.T.);
#1117=FACE_BOUND('',#987,.T.);
#1118=FACE_BOUND('',#988,.T.);
#1119=FACE_BOUND('',#989,.T.);
#1120=FACE_BOUND('',#990,.T.);
#1121=FACE_BOUND('',#991,.T.);
#1122=FACE_BOUND('',#992,.T.);
#1123=FACE_BOUND('',#993,.T.);
#1124=FACE_BOUND('',#994,.T.);
#1125=FACE_BOUND('',#995,.T.);
#1126=FACE_BOUND('',#996,.T.);
#1127=FACE_BOUND('',#997,.T.);
#1128=FACE_BOUND('',#998,.T.);
#1129=FACE_BOUND('',#999,.T.);
#1130=FACE_BOUND('',#1000,.T.);
#1131=FACE_BOUND('',#1001,.T.);
#1132=FACE_BOUND('',#1002,.T.);
#1133=FACE_BOUND('',#1003,.T.);
#1134=FACE_BOUND('',#1004,.T.);
#1135=FACE_BOUND('',#1005,.T.);
#1136=FACE_BOUND('',#1006,.T.);
#1137=FACE_BOUND('',#1007,.T.);
#1138=FACE_BOUND('',#1008,.T.);
#1139=FACE_BOUND('',#1009,.T.);
#1140=FACE_BOUND('',#1010,.T.);
#1141=FACE_BOUND('',#1011,.T.);
#1142=FACE_BOUND('',#1012,.T.);
#1143=FACE_BOUND('',#1013,.T.);
#1144=FACE_BOUND('',#1014,.T.);
#1145=FACE_BOUND('',#1015,.T.);
#1146=FACE_BOUND('',#1016,.T.);
#1147=FACE_BOUND('',#1017,.T.);
#1148=FACE_BOUND('',#1018,.T.);
#1149=FACE_BOUND('',#1019,.T.);
#1150=FACE_BOUND('',#1020,.T.);
#1151=FACE_BOUND('',#1021,.T.);
#1152=FACE_BOUND('',#1022,.T.);
#1153=FACE_BOUND('',#1023,.T.);
#1154=FACE_BOUND('',#1024,.T.);
#1155=FACE_BOUND('',#1025,.T.);
#1156=FACE_BOUND('',#1026,.T.);
#1157=FACE_BOUND('',#1027,.T.);
#1158=FACE_BOUND('',#1028,.T.);
#1159=FACE_BOUND('',#1029,.T.);
#1160=FACE_BOUND('',#1030,.T.);
#1161=FACE_BOUND('',#1031,.T.);
#1162=FACE_BOUND('',#1032,.T.);
#1163=FACE_BOUND('',#1033,.T.);
#1164=FACE_BOUND('',#1034,.T.);
#1165=FACE_BOUND('',#1035,.T.);
#1166=FACE_BOUND('',#1036,.T.);
#1167=FACE_BOUND('',#1037,.T.);
#1168=FACE_BOUND('',#1038,.T.);
#1169=FACE_BOUND('',#1039,.T.);
#1170=FACE_BOUND('',#1040,.T.);
#1171=FACE_BOUND('',#1041,.T.);
#1172=FACE_BOUND('',#1042,.T.);
#1173=FACE_BOUND('',#1043,.T.);
#1174=FACE_BOUND('',#1044,.T.);
#1175=CYLINDRICAL_SURFACE('',#1287,0.00599999999999988);
#1176=CYLINDRICAL_SURFACE('',#1291,0.004);
#1177=CYLINDRICAL_SURFACE('',#1294,0.004);
#1178=CYLINDRICAL_SURFACE('',#1298,0.00600000000000019);
#1179=CYLINDRICAL_SURFACE('',#1301,0.0060000000000004);
#1180=CYLINDRICAL_SURFACE('',#1305,0.004);
#1181=CYLINDRICAL_SURFACE('',#1308,0.00599999999999987);
#1182=CYLINDRICAL_SURFACE('',#1312,0.00399999999999984);
#1183=CYLINDRICAL_SURFACE('',#1315,0.00599999999999987);
#1184=CYLINDRICAL_SURFACE('',#1319,0.00399999999999986);
#1185=CYLINDRICAL_SURFACE('',#1322,0.00599999999999924);
#1186=CYLINDRICAL_SURFACE('',#1326,0.004);
#1187=CYLINDRICAL_SURFACE('',#1329,0.006);
#1188=CYLINDRICAL_SURFACE('',#1333,0.004);
#1189=CYLINDRICAL_SURFACE('',#1336,0.00599999999999948);
#1190=CYLINDRICAL_SURFACE('',#1340,0.00399999999999992);
#1191=CYLINDRICAL_SURFACE('',#1346,0.02);
#1192=CYLINDRICAL_SURFACE('',#1350,0.02);
#1193=CYLINDRICAL_SURFACE('',#1353,0.0041500000000001);
#1194=CYLINDRICAL_SURFACE('',#1357,0.00415);
#1195=CYLINDRICAL_SURFACE('',#1360,0.001425);
#1196=CYLINDRICAL_SURFACE('',#1363,0.001425);
#1197=CYLINDRICAL_SURFACE('',#1366,0.001425);
#1198=CYLINDRICAL_SURFACE('',#1369,0.001425);
#1199=CYLINDRICAL_SURFACE('',#1372,0.001425);
#1200=CYLINDRICAL_SURFACE('',#1375,0.0075);
#1201=CYLINDRICAL_SURFACE('',#1378,0.001425);
#1202=CYLINDRICAL_SURFACE('',#1381,0.001425);
#1203=CYLINDRICAL_SURFACE('',#1390,0.001425);
#1204=CYLINDRICAL_SURFACE('',#1395,0.001425);
#1205=CYLINDRICAL_SURFACE('',#1401,0.001425);
#1206=CYLINDRICAL_SURFACE('',#1411,0.005);
#1207=ADVANCED_FACE('',(#1045),#1175,.F.);
#1208=ADVANCED_FACE('',(#1046),#16,.F.);
#1209=ADVANCED_FACE('',(#1047),#1176,.T.);
#1210=ADVANCED_FACE('',(#1048),#1177,.T.);
#1211=ADVANCED_FACE('',(#1049),#17,.T.);
#1212=ADVANCED_FACE('',(#1050),#1178,.F.);
#1213=ADVANCED_FACE('',(#1051),#1179,.F.);
#1214=ADVANCED_FACE('',(#1052),#18,.F.);
#1215=ADVANCED_FACE('',(#1053),#1180,.T.);
#1216=ADVANCED_FACE('',(#1054),#1181,.F.);
#1217=ADVANCED_FACE('',(#1055),#19,.F.);
#1218=ADVANCED_FACE('',(#1056),#1182,.T.);
#1219=ADVANCED_FACE('',(#1057),#1183,.F.);
#1220=ADVANCED_FACE('',(#1058),#20,.F.);
#1221=ADVANCED_FACE('',(#1059),#1184,.T.);
#1222=ADVANCED_FACE('',(#1060),#1185,.F.);
#1223=ADVANCED_FACE('',(#1061),#21,.F.);
#1224=ADVANCED_FACE('',(#1062),#1186,.T.);
#1225=ADVANCED_FACE('',(#1063),#1187,.F.);
#1226=ADVANCED_FACE('',(#1064),#22,.F.);
#1227=ADVANCED_FACE('',(#1065),#1188,.T.);
#1228=ADVANCED_FACE('',(#1066),#1189,.F.);
#1229=ADVANCED_FACE('',(#1067),#23,.F.);
#1230=ADVANCED_FACE('',(#1068),#1190,.T.);
#1231=ADVANCED_FACE('',(#1069),#24,.T.);
#1232=ADVANCED_FACE('',(#1070),#25,.T.);
#1233=ADVANCED_FACE('',(#1071),#26,.F.);
#1234=ADVANCED_FACE('',(#1072),#1191,.T.);
#1235=ADVANCED_FACE('',(#1073),#27,.T.);
#1236=ADVANCED_FACE('',(#1074),#1192,.T.);
#1237=ADVANCED_FACE('',(#1075),#1193,.F.);
#1238=ADVANCED_FACE('',(#1076),#28,.T.);
#1239=ADVANCED_FACE('',(#1077),#1194,.F.);
#1240=ADVANCED_FACE('',(#1078,#1079),#1195,.F.);
#1241=ADVANCED_FACE('',(#1080,#1081),#1196,.F.);
#1242=ADVANCED_FACE('',(#1082,#1083),#1197,.F.);
#1243=ADVANCED_FACE('',(#1084,#1085),#1198,.F.);
#1244=ADVANCED_FACE('',(#1086,#1087),#1199,.F.);
#1245=ADVANCED_FACE('',(#1088,#1089),#1200,.F.);
#1246=ADVANCED_FACE('',(#1090,#1091),#1201,.F.);
#1247=ADVANCED_FACE('',(#1092,#1093),#1202,.F.);
#1248=ADVANCED_FACE('',(#1094),#29,.T.);
#1249=ADVANCED_FACE('',(#1095),#30,.F.);
#1250=ADVANCED_FACE('',(#1096),#31,.T.);
#1251=ADVANCED_FACE('',(#1097),#32,.T.);
#1252=ADVANCED_FACE('',(#1098),#33,.T.);
#1253=ADVANCED_FACE('',(#1099),#34,.T.);
#1254=ADVANCED_FACE('',(#1100,#1101),#1203,.F.);
#1255=ADVANCED_FACE('',(#1102),#35,.T.);
#1256=ADVANCED_FACE('',(#1103),#36,.T.);
#1257=ADVANCED_FACE('',(#1104,#1105),#1204,.F.);
#1258=ADVANCED_FACE('',(#1106),#37,.F.);
#1259=ADVANCED_FACE('',(#1107),#38,.F.);
#1260=ADVANCED_FACE('',(#1108),#39,.F.);
#1261=ADVANCED_FACE('',(#1109,#1110),#1205,.F.);
#1262=ADVANCED_FACE('',(#1111,#1112,#1113,#1114,#1115,#1116,#1117,#1118,
#1119,#1120,#1121,#1122,#1123,#1124,#1125,#1126,#1127,#1128,#1129,#1130,
#1131,#1132,#1133,#1134),#40,.T.);
#1263=ADVANCED_FACE('',(#1135,#1136,#1137,#1138,#1139,#1140,#1141,#1142,
#1143,#1144,#1145,#1146,#1147,#1148,#1149,#1150,#1151,#1152,#1153,#1154,
#1155,#1156,#1157,#1158),#41,.F.);
#1264=ADVANCED_FACE('',(#1159,#1160),#1206,.T.);
#1265=ADVANCED_FACE('',(#1161,#1162),#42,.T.);
#1266=ADVANCED_FACE('',(#1163,#1164),#12,.T.);
#1267=ADVANCED_FACE('',(#1165),#43,.T.);
#1268=ADVANCED_FACE('',(#1166,#1167),#13,.T.);
#1269=ADVANCED_FACE('',(#1168),#44,.T.);
#1270=ADVANCED_FACE('',(#1169,#1170),#14,.F.);
#1271=ADVANCED_FACE('',(#1171),#45,.T.);
#1272=ADVANCED_FACE('',(#1172,#1173),#15,.F.);
#1273=ADVANCED_FACE('',(#1174),#46,.T.);
#1274=CLOSED_SHELL('',(#1207,#1208,#1209,#1210,#1211,#1212,#1213,#1214,
#1215,#1216,#1217,#1218,#1219,#1220,#1221,#1222,#1223,#1224,#1225,#1226,
#1227,#1228,#1229,#1230,#1231,#1232,#1233,#1234,#1235,#1236,#1237,#1238,
#1239,#1240,#1241,#1242,#1243,#1244,#1245,#1246,#1247,#1248,#1249,#1250,
#1251,#1252,#1253,#1254,#1255,#1256,#1257,#1258,#1259,#1260,#1261,#1262,
#1263,#1264,#1265,#1266,#1267,#1268,#1269,#1270,#1271,#1272,#1273));
#1275=STYLED_ITEM('',(#1276),#1283);
#1276=PRESENTATION_STYLE_ASSIGNMENT((#1277));
#1277=SURFACE_STYLE_USAGE(.BOTH.,#1278);
#1278=SURFACE_SIDE_STYLE('',(#1279));
#1279=SURFACE_STYLE_FILL_AREA(#1280);
#1280=FILL_AREA_STYLE('',(#1281));
#1281=FILL_AREA_STYLE_COLOUR('',#1282);
#1282=COLOUR_RGB('',0.615686274509804,0.811764705882353,0.929411764705882);
#1283=MANIFOLD_SOLID_BREP('shoulder-to-elbow-link',#1274);
#1284=SHAPE_DEFINITION_REPRESENTATION(#2156,#1285);
#1285=SHAPE_REPRESENTATION('shoulder-to-elbow-link',(#1286),#2151);
#1286=AXIS2_PLACEMENT_3D('',#1798,#1426,#1427);
#1287=AXIS2_PLACEMENT_3D('',#1799,#1428,#1429);
#1288=AXIS2_PLACEMENT_3D('',#1800,#1430,#1431);
#1289=AXIS2_PLACEMENT_3D('',#1805,#1433,#1434);
#1290=AXIS2_PLACEMENT_3D('',#1808,#1436,#1437);
#1291=AXIS2_PLACEMENT_3D('',#1814,#1441,#1442);
#1292=AXIS2_PLACEMENT_3D('',#1815,#1443,#1444);
#1293=AXIS2_PLACEMENT_3D('',#1819,#1446,#1447);
#1294=AXIS2_PLACEMENT_3D('',#1820,#1448,#1449);
#1295=AXIS2_PLACEMENT_3D('',#1821,#1450,#1451);
#1296=AXIS2_PLACEMENT_3D('',#1826,#1453,#1454);
#1297=AXIS2_PLACEMENT_3D('',#1829,#1456,#1457);
#1298=AXIS2_PLACEMENT_3D('',#1835,#1461,#1462);
#1299=AXIS2_PLACEMENT_3D('',#1836,#1463,#1464);
#1300=AXIS2_PLACEMENT_3D('',#1840,#1466,#1467);
#1301=AXIS2_PLACEMENT_3D('',#1841,#1468,#1469);
#1302=AXIS2_PLACEMENT_3D('',#1842,#1470,#1471);
#1303=AXIS2_PLACEMENT_3D('',#1847,#1473,#1474);
#1304=AXIS2_PLACEMENT_3D('',#1850,#1476,#1477);
#1305=AXIS2_PLACEMENT_3D('',#1856,#1481,#1482);
#1306=AXIS2_PLACEMENT_3D('',#1857,#1483,#1484);
#1307=AXIS2_PLACEMENT_3D('',#1861,#1486,#1487);
#1308=AXIS2_PLACEMENT_3D('',#1862,#1488,#1489);
#1309=AXIS2_PLACEMENT_3D('',#1863,#1490,#1491);
#1310=AXIS2_PLACEMENT_3D('',#1868,#1493,#1494);
#1311=AXIS2_PLACEMENT_3D('',#1871,#1496,#1497);
#1312=AXIS2_PLACEMENT_3D('',#1877,#1501,#1502);
#1313=AXIS2_PLACEMENT_3D('',#1878,#1503,#1504);
#1314=AXIS2_PLACEMENT_3D('',#1882,#1506,#1507);
#1315=AXIS2_PLACEMENT_3D('',#1883,#1508,#1509);
#1316=AXIS2_PLACEMENT_3D('',#1884,#1510,#1511);
#1317=AXIS2_PLACEMENT_3D('',#1889,#1513,#1514);
#1318=AXIS2_PLACEMENT_3D('',#1892,#1516,#1517);
#1319=AXIS2_PLACEMENT_3D('',#1898,#1521,#1522);
#1320=AXIS2_PLACEMENT_3D('',#1899,#1523,#1524);
#1321=AXIS2_PLACEMENT_3D('',#1903,#1526,#1527);
#1322=AXIS2_PLACEMENT_3D('',#1904,#1528,#1529);
#1323=AXIS2_PLACEMENT_3D('',#1905,#1530,#1531);
#1324=AXIS2_PLACEMENT_3D('',#1910,#1533,#1534);
#1325=AXIS2_PLACEMENT_3D('',#1913,#1536,#1537);
#1326=AXIS2_PLACEMENT_3D('',#1919,#1541,#1542);
#1327=AXIS2_PLACEMENT_3D('',#1920,#1543,#1544);
#1328=AXIS2_PLACEMENT_3D('',#1924,#1546,#1547);
#1329=AXIS2_PLACEMENT_3D('',#1925,#1548,#1549);
#1330=AXIS2_PLACEMENT_3D('',#1926,#1550,#1551);
#1331=AXIS2_PLACEMENT_3D('',#1931,#1553,#1554);
#1332=AXIS2_PLACEMENT_3D('',#1934,#1556,#1557);
#1333=AXIS2_PLACEMENT_3D('',#1940,#1561,#1562);
#1334=AXIS2_PLACEMENT_3D('',#1941,#1563,#1564);
#1335=AXIS2_PLACEMENT_3D('',#1945,#1566,#1567);
#1336=AXIS2_PLACEMENT_3D('',#1946,#1568,#1569);
#1337=AXIS2_PLACEMENT_3D('',#1947,#1570,#1571);
#1338=AXIS2_PLACEMENT_3D('',#1952,#1573,#1574);
#1339=AXIS2_PLACEMENT_3D('',#1955,#1576,#1577);
#1340=AXIS2_PLACEMENT_3D('',#1961,#1581,#1582);
#1341=AXIS2_PLACEMENT_3D('',#1962,#1583,#1584);
#1342=AXIS2_PLACEMENT_3D('',#1966,#1586,#1587);
#1343=AXIS2_PLACEMENT_3D('',#1967,#1588,#1589);
#1344=AXIS2_PLACEMENT_3D('',#1976,#1594,#1595);
#1345=AXIS2_PLACEMENT_3D('',#1982,#1599,#1600);
#1346=AXIS2_PLACEMENT_3D('',#1988,#1604,#1605);
#1347=AXIS2_PLACEMENT_3D('',#1989,#1606,#1607);
#1348=AXIS2_PLACEMENT_3D('',#1994,#1609,#1610);
#1349=AXIS2_PLACEMENT_3D('',#1997,#1612,#1613);
#1350=AXIS2_PLACEMENT_3D('',#2003,#1617,#1618);
#1351=AXIS2_PLACEMENT_3D('',#2004,#1619,#1620);
#1352=AXIS2_PLACEMENT_3D('',#2008,#1622,#1623);
#1353=AXIS2_PLACEMENT_3D('',#2009,#1624,#1625);
#1354=AXIS2_PLACEMENT_3D('',#2010,#1626,#1627);
#1355=AXIS2_PLACEMENT_3D('',#2015,#1629,#1630);
#1356=AXIS2_PLACEMENT_3D('',#2018,#1632,#1633);
#1357=AXIS2_PLACEMENT_3D('',#2024,#1637,#1638);
#1358=AXIS2_PLACEMENT_3D('',#2025,#1639,#1640);
#1359=AXIS2_PLACEMENT_3D('',#2029,#1642,#1643);
#1360=AXIS2_PLACEMENT_3D('',#2030,#1644,#1645);
#1361=AXIS2_PLACEMENT_3D('',#2031,#1646,#1647);
#1362=AXIS2_PLACEMENT_3D('',#2033,#1648,#1649);
#1363=AXIS2_PLACEMENT_3D('',#2035,#1650,#1651);
#1364=AXIS2_PLACEMENT_3D('',#2036,#1652,#1653);
#1365=AXIS2_PLACEMENT_3D('',#2038,#1654,#1655);
#1366=AXIS2_PLACEMENT_3D('',#2040,#1656,#1657);
#1367=AXIS2_PLACEMENT_3D('',#2041,#1658,#1659);
#1368=AXIS2_PLACEMENT_3D('',#2043,#1660,#1661);
#1369=AXIS2_PLACEMENT_3D('',#2045,#1662,#1663);
#1370=AXIS2_PLACEMENT_3D('',#2046,#1664,#1665);
#1371=AXIS2_PLACEMENT_3D('',#2048,#1666,#1667);
#1372=AXIS2_PLACEMENT_3D('',#2050,#1668,#1669);
#1373=AXIS2_PLACEMENT_3D('',#2051,#1670,#1671);
#1374=AXIS2_PLACEMENT_3D('',#2053,#1672,#1673);
#1375=AXIS2_PLACEMENT_3D('',#2055,#1674,#1675);
#1376=AXIS2_PLACEMENT_3D('',#2056,#1676,#1677);
#1377=AXIS2_PLACEMENT_3D('',#2058,#1678,#1679);
#1378=AXIS2_PLACEMENT_3D('',#2060,#1680,#1681);
#1379=AXIS2_PLACEMENT_3D('',#2061,#1682,#1683);
#1380=AXIS2_PLACEMENT_3D('',#2063,#1684,#1685);
#1381=AXIS2_PLACEMENT_3D('',#2065,#1686,#1687);
#1382=AXIS2_PLACEMENT_3D('',#2066,#1688,#1689);
#1383=AXIS2_PLACEMENT_3D('',#2068,#1690,#1691);
#1384=AXIS2_PLACEMENT_3D('',#2070,#1692,#1693);
#1385=AXIS2_PLACEMENT_3D('',#2073,#1696,#1697);
#1386=AXIS2_PLACEMENT_3D('',#2076,#1700,#1701);
#1387=AXIS2_PLACEMENT_3D('',#2079,#1704,#1705);
#1388=AXIS2_PLACEMENT_3D('',#2082,#1708,#1709);
#1389=AXIS2_PLACEMENT_3D('',#2085,#1712,#1713);
#1390=AXIS2_PLACEMENT_3D('',#2088,#1716,#1717);
#1391=AXIS2_PLACEMENT_3D('',#2089,#1718,#1719);
#1392=AXIS2_PLACEMENT_3D('',#2091,#1720,#1721);
#1393=AXIS2_PLACEMENT_3D('',#2093,#1722,#1723);
#1394=AXIS2_PLACEMENT_3D('',#2096,#1726,#1727);
#1395=AXIS2_PLACEMENT_3D('',#2099,#1730,#1731);
#1396=AXIS2_PLACEMENT_3D('',#2100,#1732,#1733);
#1397=AXIS2_PLACEMENT_3D('',#2102,#1734,#1735);
#1398=AXIS2_PLACEMENT_3D('',#2104,#1736,#1737);
#1399=AXIS2_PLACEMENT_3D('',#2107,#1740,#1741);
#1400=AXIS2_PLACEMENT_3D('',#2110,#1744,#1745);
#1401=AXIS2_PLACEMENT_3D('',#2113,#1748,#1749);
#1402=AXIS2_PLACEMENT_3D('',#2114,#1750,#1751);
#1403=AXIS2_PLACEMENT_3D('',#2116,#1752,#1753);
#1404=AXIS2_PLACEMENT_3D('',#2118,#1754,#1755);
#1405=AXIS2_PLACEMENT_3D('',#2119,#1756,#1757);
#1406=AXIS2_PLACEMENT_3D('',#2121,#1758,#1759);
#1407=AXIS2_PLACEMENT_3D('',#2123,#1760,#1761);
#1408=AXIS2_PLACEMENT_3D('',#2125,#1762,#1763);
#1409=AXIS2_PLACEMENT_3D('',#2126,#1764,#1765);
#1410=AXIS2_PLACEMENT_3D('',#2128,#1766,#1767);
#1411=AXIS2_PLACEMENT_3D('',#2130,#1768,#1769);
#1412=AXIS2_PLACEMENT_3D('',#2131,#1770,#1771);
#1413=AXIS2_PLACEMENT_3D('',#2133,#1772,#1773);
#1414=AXIS2_PLACEMENT_3D('',#2134,#1774,#1775);
#1415=AXIS2_PLACEMENT_3D('',#2135,#1776,#1777);
#1416=AXIS2_PLACEMENT_3D('',#2137,#1778,#1779);
#1417=AXIS2_PLACEMENT_3D('',#2138,#1780,#1781);
#1418=AXIS2_PLACEMENT_3D('',#2139,#1782,#1783);
#1419=AXIS2_PLACEMENT_3D('',#2141,#1784,#1785);
#1420=AXIS2_PLACEMENT_3D('',#2142,#1786,#1787);
#1421=AXIS2_PLACEMENT_3D('',#2143,#1788,#1789);
#1422=AXIS2_PLACEMENT_3D('',#2145,#1790,#1791);
#1423=AXIS2_PLACEMENT_3D('',#2146,#1792,#1793);
#1424=AXIS2_PLACEMENT_3D('',#2147,#1794,#1795);
#1425=AXIS2_PLACEMENT_3D('',#2149,#1796,#1797);
#1426=DIRECTION('',(0.,0.,1.));
#1427=DIRECTION('',(1.,0.,0.));
#1428=DIRECTION('',(0.,0.,-1.));
#1429=DIRECTION('',(-1.,0.,0.));
#1430=DIRECTION('',(0.,0.,1.));
#1431=DIRECTION('',(1.,0.,0.));
#1432=DIRECTION('',(0.,0.,-1.));
#1433=DIRECTION('',(0.,0.,1.));
#1434=DIRECTION('',(1.,0.,0.));
#1435=DIRECTION('',(0.,0.,-1.));
#1436=DIRECTION('',(1.,2.90582327343159E-13,0.));
#1437=DIRECTION('',(-2.90582327343159E-13,1.,0.));
#1438=DIRECTION('',(2.90582327343159E-13,-1.,0.));
#1439=DIRECTION('',(0.,0.,-1.));
#1440=DIRECTION('',(2.90582327343159E-13,-1.,0.));
#1441=DIRECTION('',(0.,0.,-1.));
#1442=DIRECTION('',(-1.,0.,0.));
#1443=DIRECTION('',(0.,0.,1.));
#1444=DIRECTION('',(1.,0.,0.));
#1445=DIRECTION('',(0.,0.,-1.));
#1446=DIRECTION('',(0.,0.,1.));
#1447=DIRECTION('',(1.,0.,0.));
#1448=DIRECTION('',(0.,0.,-1.));
#1449=DIRECTION('',(-1.,0.,0.));
#1450=DIRECTION('',(0.,0.,1.));
#1451=DIRECTION('',(1.,0.,0.));
#1452=DIRECTION('',(0.,0.,-1.));
#1453=DIRECTION('',(0.,0.,1.));
#1454=DIRECTION('',(1.,0.,0.));
#1455=DIRECTION('',(0.,0.,-1.));
#1456=DIRECTION('',(-1.,0.,0.));
#1457=DIRECTION('',(0.,0.,1.));
#1458=DIRECTION('',(0.,1.,0.));
#1459=DIRECTION('',(0.,0.,-1.));
#1460=DIRECTION('',(0.,1.,0.));
#1461=DIRECTION('',(0.,0.,-1.));
#1462=DIRECTION('',(-1.,0.,0.));
#1463=DIRECTION('',(0.,0.,1.));
#1464=DIRECTION('',(1.,0.,0.));
#1465=DIRECTION('',(0.,0.,-1.));
#1466=DIRECTION('',(0.,0.,1.));
#1467=DIRECTION('',(1.,0.,0.));
#1468=DIRECTION('',(0.,0.,-1.));
#1469=DIRECTION('',(-1.,0.,0.));
#1470=DIRECTION('',(0.,0.,1.));
#1471=DIRECTION('',(1.,0.,0.));
#1472=DIRECTION('',(0.,0.,-1.));
#1473=DIRECTION('',(0.,0.,1.));
#1474=DIRECTION('',(1.,0.,0.));
#1475=DIRECTION('',(0.,0.,-1.));
#1476=DIRECTION('',(-1.98124314097601E-13,1.,0.));
#1477=DIRECTION('',(-1.,-1.98124314097601E-13,0.));
#1478=DIRECTION('',(1.,1.98124314097601E-13,0.));
#1479=DIRECTION('',(0.,0.,-1.));
#1480=DIRECTION('',(1.,1.98124314097601E-13,0.));
#1481=DIRECTION('',(0.,0.,-1.));
#1482=DIRECTION('',(-1.,0.,0.));
#1483=DIRECTION('',(0.,0.,1.));
#1484=DIRECTION('',(1.,0.,0.));
#1485=DIRECTION('',(0.,0.,-1.));
#1486=DIRECTION('',(0.,0.,1.));
#1487=DIRECTION('',(1.,0.,0.));
#1488=DIRECTION('',(0.,0.,-1.));
#1489=DIRECTION('',(-1.,0.,0.));
#1490=DIRECTION('',(0.,0.,1.));
#1491=DIRECTION('',(1.,0.,0.));
#1492=DIRECTION('',(0.,0.,-1.));
#1493=DIRECTION('',(0.,0.,1.));
#1494=DIRECTION('',(1.,0.,0.));
#1495=DIRECTION('',(0.,0.,-1.));
#1496=DIRECTION('',(-1.,-2.11332601704117E-13,0.));
#1497=DIRECTION('',(2.11332601704117E-13,-1.,0.));
#1498=DIRECTION('',(-2.11332601704116E-13,1.,0.));
#1499=DIRECTION('',(0.,0.,-1.));
#1500=DIRECTION('',(-2.11332601704116E-13,1.,0.));
#1501=DIRECTION('',(0.,0.,-1.));
#1502=DIRECTION('',(-1.,0.,0.));
#1503=DIRECTION('',(0.,0.,1.));
#1504=DIRECTION('',(1.,0.,0.));
#1505=DIRECTION('',(0.,0.,-1.));
#1506=DIRECTION('',(0.,0.,1.));
#1507=DIRECTION('',(1.,0.,0.));
#1508=DIRECTION('',(0.,0.,-1.));
#1509=DIRECTION('',(-1.,0.,0.));
#1510=DIRECTION('',(0.,0.,1.));
#1511=DIRECTION('',(1.,0.,0.));
#1512=DIRECTION('',(0.,0.,-1.));
#1513=DIRECTION('',(0.,0.,1.));
#1514=DIRECTION('',(1.,0.,0.));
#1515=DIRECTION('',(0.,0.,-1.));
#1516=DIRECTION('',(1.,2.11332601704117E-13,0.));
#1517=DIRECTION('',(-2.11332601704117E-13,1.,0.));
#1518=DIRECTION('',(2.11332601704116E-13,-1.,0.));
#1519=DIRECTION('',(0.,0.,-1.));
#1520=DIRECTION('',(2.11332601704116E-13,-1.,0.));
#1521=DIRECTION('',(0.,0.,-1.));
#1522=DIRECTION('',(-1.,0.,0.));
#1523=DIRECTION('',(0.,0.,1.));
#1524=DIRECTION('',(1.,0.,0.));
#1525=DIRECTION('',(0.,0.,-1.));
#1526=DIRECTION('',(0.,0.,1.));
#1527=DIRECTION('',(1.,0.,0.));
#1528=DIRECTION('',(0.,0.,-1.));
#1529=DIRECTION('',(-1.,0.,0.));
#1530=DIRECTION('',(0.,0.,1.));
#1531=DIRECTION('',(1.,0.,0.));
#1532=DIRECTION('',(0.,0.,-1.));
#1533=DIRECTION('',(0.,0.,1.));
#1534=DIRECTION('',(1.,0.,0.));
#1535=DIRECTION('',(0.,0.,-1.));
#1536=DIRECTION('',(1.98124314097608E-13,-1.,0.));
#1537=DIRECTION('',(1.,1.98124314097608E-13,0.));
#1538=DIRECTION('',(-1.,-1.98124314097608E-13,0.));
#1539=DIRECTION('',(0.,0.,-1.));
#1540=DIRECTION('',(-1.,-1.98124314097608E-13,0.));
#1541=DIRECTION('',(0.,0.,-1.));
#1542=DIRECTION('',(-1.,0.,0.));
#1543=DIRECTION('',(0.,0.,1.));
#1544=DIRECTION('',(1.,0.,0.));
#1545=DIRECTION('',(0.,0.,-1.));
#1546=DIRECTION('',(0.,0.,1.));
#1547=DIRECTION('',(1.,0.,0.));
#1548=DIRECTION('',(0.,0.,-1.));
#1549=DIRECTION('',(-1.,0.,0.));
#1550=DIRECTION('',(0.,0.,1.));
#1551=DIRECTION('',(1.,0.,0.));
#1552=DIRECTION('',(0.,0.,-1.));
#1553=DIRECTION('',(0.,0.,1.));
#1554=DIRECTION('',(1.,0.,0.));
#1555=DIRECTION('',(0.,0.,-1.));
#1556=DIRECTION('',(2.97186471146412E-13,-1.,0.));
#1557=DIRECTION('',(1.,2.97186471146412E-13,0.));
#1558=DIRECTION('',(-1.,-2.97186471146412E-13,0.));
#1559=DIRECTION('',(0.,0.,-1.));
#1560=DIRECTION('',(-1.,-2.97186471146412E-13,0.));
#1561=DIRECTION('',(0.,0.,-1.));
#1562=DIRECTION('',(-1.,0.,0.));
#1563=DIRECTION('',(0.,0.,1.));
#1564=DIRECTION('',(1.,0.,0.));
#1565=DIRECTION('',(0.,0.,-1.));
#1566=DIRECTION('',(0.,0.,1.));
#1567=DIRECTION('',(1.,0.,0.));
#1568=DIRECTION('',(0.,0.,-1.));
#1569=DIRECTION('',(-1.,0.,0.));
#1570=DIRECTION('',(0.,0.,1.));
#1571=DIRECTION('',(1.,0.,0.));
#1572=DIRECTION('',(0.,0.,-1.));
#1573=DIRECTION('',(0.,0.,1.));
#1574=DIRECTION('',(1.,0.,0.));
#1575=DIRECTION('',(0.,0.,-1.));
#1576=DIRECTION('',(-2.97186471146392E-13,1.,0.));
#1577=DIRECTION('',(-1.,-2.97186471146392E-13,0.));
#1578=DIRECTION('',(1.,2.97186471146392E-13,0.));
#1579=DIRECTION('',(0.,0.,-1.));
#1580=DIRECTION('',(1.,2.97186471146392E-13,0.));
#1581=DIRECTION('',(0.,0.,-1.));
#1582=DIRECTION('',(-1.,0.,0.));
#1583=DIRECTION('',(0.,0.,1.));
#1584=DIRECTION('',(1.,0.,0.));
#1585=DIRECTION('',(0.,0.,-1.));
#1586=DIRECTION('',(0.,0.,1.));
#1587=DIRECTION('',(1.,0.,0.));
#1588=DIRECTION('',(0.,-1.,0.));
#1589=DIRECTION('',(0.,0.,-1.));
#1590=DIRECTION('',(-1.,0.,0.));
#1591=DIRECTION('',(0.,0.,-1.));
#1592=DIRECTION('',(-1.,0.,0.));
#1593=DIRECTION('',(0.,0.,-1.));
#1594=DIRECTION('',(-1.,0.,0.));
#1595=DIRECTION('',(0.,0.,1.));
#1596=DIRECTION('',(0.,1.,0.));
#1597=DIRECTION('',(0.,0.,-1.));
#1598=DIRECTION('',(0.,1.,0.));
#1599=DIRECTION('',(0.,-1.,0.));
#1600=DIRECTION('',(0.,0.,-1.));
#1601=DIRECTION('',(-1.,0.,0.));
#1602=DIRECTION('',(0.,0.,-1.));
#1603=DIRECTION('',(-1.,0.,0.));
#1604=DIRECTION('',(0.,0.,-1.));
#1605=DIRECTION('',(-1.,0.,0.));
#1606=DIRECTION('',(0.,0.,1.));
#1607=DIRECTION('',(1.,0.,0.));
#1608=DIRECTION('',(0.,0.,-1.));
#1609=DIRECTION('',(0.,0.,1.));
#1610=DIRECTION('',(1.,0.,0.));
#1611=DIRECTION('',(0.,0.,-1.));
#1612=DIRECTION('',(1.,0.,0.));
#1613=DIRECTION('',(0.,0.,-1.));
#1614=DIRECTION('',(0.,-1.,0.));
#1615=DIRECTION('',(0.,0.,-1.));
#1616=DIRECTION('',(0.,-1.,0.));
#1617=DIRECTION('',(0.,0.,-1.));
#1618=DIRECTION('',(-1.,0.,0.));
#1619=DIRECTION('',(0.,0.,1.));
#1620=DIRECTION('',(1.,0.,0.));
#1621=DIRECTION('',(0.,0.,-1.));
#1622=DIRECTION('',(0.,0.,1.));
#1623=DIRECTION('',(1.,0.,0.));
#1624=DIRECTION('',(0.,0.,-1.));
#1625=DIRECTION('',(-1.,0.,0.));
#1626=DIRECTION('',(0.,0.,1.));
#1627=DIRECTION('',(1.,0.,0.));
#1628=DIRECTION('',(0.,0.,-1.));
#1629=DIRECTION('',(0.,0.,1.));
#1630=DIRECTION('',(1.,0.,0.));
#1631=DIRECTION('',(0.,0.,-1.));
#1632=DIRECTION('',(-1.,0.,0.));
#1633=DIRECTION('',(0.,0.,1.));
#1634=DIRECTION('',(0.,1.,0.));
#1635=DIRECTION('',(0.,0.,-1.));
#1636=DIRECTION('',(0.,1.,0.));
#1637=DIRECTION('',(0.,0.,-1.));
#1638=DIRECTION('',(-1.,0.,0.));
#1639=DIRECTION('',(0.,0.,1.));
#1640=DIRECTION('',(1.,0.,0.));
#1641=DIRECTION('',(0.,0.,-1.));
#1642=DIRECTION('',(0.,0.,1.));
#1643=DIRECTION('',(1.,0.,0.));
#1644=DIRECTION('',(0.,0.,-1.));
#1645=DIRECTION('',(-1.,0.,0.));
#1646=DIRECTION('',(0.,0.,1.));
#1647=DIRECTION('',(1.,0.,0.));
#1648=DIRECTION('',(0.,0.,1.));
#1649=DIRECTION('',(1.,0.,0.));
#1650=DIRECTION('',(0.,0.,-1.));
#1651=DIRECTION('',(-1.,0.,0.));
#1652=DIRECTION('',(0.,0.,1.));
#1653=DIRECTION('',(1.,0.,0.));
#1654=DIRECTION('',(0.,0.,1.));
#1655=DIRECTION('',(1.,0.,0.));
#1656=DIRECTION('',(0.,0.,-1.));
#1657=DIRECTION('',(-1.,0.,0.));
#1658=DIRECTION('',(0.,0.,1.));
#1659=DIRECTION('',(1.,0.,0.));
#1660=DIRECTION('',(0.,0.,1.));
#1661=DIRECTION('',(1.,0.,0.));
#1662=DIRECTION('',(0.,0.,-1.));
#1663=DIRECTION('',(-1.,0.,0.));
#1664=DIRECTION('',(0.,0.,1.));
#1665=DIRECTION('',(1.,0.,0.));
#1666=DIRECTION('',(0.,0.,1.));
#1667=DIRECTION('',(1.,0.,0.));
#1668=DIRECTION('',(0.,0.,-1.));
#1669=DIRECTION('',(-1.,0.,0.));
#1670=DIRECTION('',(0.,0.,1.));
#1671=DIRECTION('',(1.,0.,0.));
#1672=DIRECTION('',(0.,0.,1.));
#1673=DIRECTION('',(1.,0.,0.));
#1674=DIRECTION('',(0.,0.,-1.));
#1675=DIRECTION('',(-1.,0.,0.));
#1676=DIRECTION('',(0.,0.,1.));
#1677=DIRECTION('',(1.,0.,0.));
#1678=DIRECTION('',(0.,0.,1.));
#1679=DIRECTION('',(1.,0.,0.));
#1680=DIRECTION('',(0.,0.,-1.));
#1681=DIRECTION('',(-1.,0.,0.));
#1682=DIRECTION('',(0.,0.,1.));
#1683=DIRECTION('',(1.,0.,0.));
#1684=DIRECTION('',(0.,0.,1.));
#1685=DIRECTION('',(1.,0.,0.));
#1686=DIRECTION('',(0.,0.,-1.));
#1687=DIRECTION('',(-1.,0.,0.));
#1688=DIRECTION('',(0.,0.,1.));
#1689=DIRECTION('',(1.,0.,0.));
#1690=DIRECTION('',(0.,0.,1.));
#1691=DIRECTION('',(1.,0.,0.));
#1692=DIRECTION('',(1.,0.,0.));
#1693=DIRECTION('',(0.,0.,-1.));
#1694=DIRECTION('',(0.,-1.,0.));
#1695=DIRECTION('',(0.,-1.,0.));
#1696=DIRECTION('',(-1.,-2.9058232734316E-13,0.));
#1697=DIRECTION('',(2.9058232734316E-13,-1.,0.));
#1698=DIRECTION('',(-2.9058232734316E-13,1.,0.));
#1699=DIRECTION('',(-2.9058232734316E-13,1.,0.));
#1700=DIRECTION('',(0.,1.,0.));
#1701=DIRECTION('',(0.,0.,1.));
#1702=DIRECTION('',(1.,0.,0.));
#1703=DIRECTION('',(1.,0.,0.));
#1704=DIRECTION('',(-1.,0.,0.));
#1705=DIRECTION('',(0.,0.,1.));
#1706=DIRECTION('',(0.,1.,0.));
#1707=DIRECTION('',(0.,1.,0.));
#1708=DIRECTION('',(1.,0.,0.));
#1709=DIRECTION('',(0.,0.,-1.));
#1710=DIRECTION('',(0.,-1.,0.));
#1711=DIRECTION('',(0.,-1.,0.));
#1712=DIRECTION('',(0.,-1.,0.));
#1713=DIRECTION('',(0.,0.,-1.));
#1714=DIRECTION('',(-1.,0.,0.));
#1715=DIRECTION('',(-1.,0.,0.));
#1716=DIRECTION('',(0.,0.,-1.));
#1717=DIRECTION('',(-1.,0.,0.));
#1718=DIRECTION('',(0.,0.,1.));
#1719=DIRECTION('',(1.,0.,0.));
#1720=DIRECTION('',(0.,0.,1.));
#1721=DIRECTION('',(1.,0.,0.));
#1722=DIRECTION('',(0.,-1.,0.));
#1723=DIRECTION('',(0.,0.,-1.));
#1724=DIRECTION('',(-1.,0.,0.));
#1725=DIRECTION('',(-1.,0.,0.));
#1726=DIRECTION('',(0.,1.,0.));
#1727=DIRECTION('',(0.,0.,1.));
#1728=DIRECTION('',(1.,0.,0.));
#1729=DIRECTION('',(1.,0.,0.));
#1730=DIRECTION('',(0.,0.,-1.));
#1731=DIRECTION('',(-1.,0.,0.));
#1732=DIRECTION('',(0.,0.,1.));
#1733=DIRECTION('',(1.,0.,0.));
#1734=DIRECTION('',(0.,0.,1.));
#1735=DIRECTION('',(1.,0.,0.));
#1736=DIRECTION('',(-1.,0.,0.));
#1737=DIRECTION('',(0.,0.,1.));
#1738=DIRECTION('',(0.,1.,0.));
#1739=DIRECTION('',(0.,1.,0.));
#1740=DIRECTION('',(1.,0.,0.));
#1741=DIRECTION('',(0.,0.,-1.));
#1742=DIRECTION('',(0.,-1.,0.));
#1743=DIRECTION('',(0.,-1.,0.));
#1744=DIRECTION('',(-1.,0.,0.));
#1745=DIRECTION('',(0.,0.,1.));
#1746=DIRECTION('',(0.,1.,0.));
#1747=DIRECTION('',(0.,1.,0.));
#1748=DIRECTION('',(0.,0.,-1.));
#1749=DIRECTION('',(-1.,0.,0.));
#1750=DIRECTION('',(0.,0.,1.));
#1751=DIRECTION('',(1.,0.,0.));
#1752=DIRECTION('',(0.,0.,1.));
#1753=DIRECTION('',(1.,0.,0.));
#1754=DIRECTION('',(0.,0.,1.));
#1755=DIRECTION('',(1.,0.,0.));
#1756=DIRECTION('',(0.,0.,1.));
#1757=DIRECTION('',(1.,0.,0.));
#1758=DIRECTION('',(0.,0.,1.));
#1759=DIRECTION('',(1.,0.,0.));
#1760=DIRECTION('',(0.,0.,1.));
#1761=DIRECTION('',(1.,0.,0.));
#1762=DIRECTION('',(0.,0.,1.));
#1763=DIRECTION('',(1.,0.,0.));
#1764=DIRECTION('',(0.,0.,-1.));
#1765=DIRECTION('',(-1.,0.,0.));
#1766=DIRECTION('',(0.,0.,-1.));
#1767=DIRECTION('',(-1.,0.,0.));
#1768=DIRECTION('',(0.,0.,-1.));
#1769=DIRECTION('',(-1.,0.,0.));
#1770=DIRECTION('',(0.,0.,1.));
#1771=DIRECTION('',(1.,0.,0.));
#1772=DIRECTION('',(0.,0.,1.));
#1773=DIRECTION('',(1.,0.,0.));
#1774=DIRECTION('',(0.,0.,-1.));
#1775=DIRECTION('',(1.,0.,0.));
#1776=DIRECTION('',(0.,0.,1.));
#1777=DIRECTION('',(1.,0.,0.));
#1778=DIRECTION('',(0.,0.,1.));
#1779=DIRECTION('',(1.,0.,0.));
#1780=DIRECTION('',(0.,0.,-1.));
#1781=DIRECTION('',(1.,0.,0.));
#1782=DIRECTION('',(0.,0.,1.));
#1783=DIRECTION('',(1.,0.,0.));
#1784=DIRECTION('',(0.,0.,1.));
#1785=DIRECTION('',(1.,0.,0.));
#1786=DIRECTION('',(0.,0.,-1.));
#1787=DIRECTION('',(1.,0.,0.));
#1788=DIRECTION('',(0.,0.,-1.));
#1789=DIRECTION('',(-1.,0.,0.));
#1790=DIRECTION('',(0.,0.,-1.));
#1791=DIRECTION('',(1.,0.,0.));
#1792=DIRECTION('',(0.,0.,-1.));
#1793=DIRECTION('',(1.,0.,0.));
#1794=DIRECTION('',(0.,0.,-1.));
#1795=DIRECTION('',(-1.,0.,0.));
#1796=DIRECTION('',(0.,0.,-1.));
#1797=DIRECTION('',(1.,0.,0.));
#1798=CARTESIAN_POINT('',(0.,0.,0.));
#1799=CARTESIAN_POINT('',(0.144722008299828,-0.0551440911889075,0.005));
#1800=CARTESIAN_POINT('',(0.144722008299828,-0.0551440911889075,0.));
#1801=CARTESIAN_POINT('',(0.146222008299827,-0.0493346161695965,0.));
#1802=CARTESIAN_POINT('',(0.143222008299828,-0.0493346161695965,0.));
#1803=CARTESIAN_POINT('',(0.146222008299827,-0.0493346161695965,0.005));
#1804=CARTESIAN_POINT('',(0.146222008299827,-0.0493346161695965,0.005));
#1805=CARTESIAN_POINT('',(0.144722008299828,-0.0551440911889075,0.005));
#1806=CARTESIAN_POINT('',(0.143222008299828,-0.0493346161695965,0.005));
#1807=CARTESIAN_POINT('',(0.143222008299828,-0.0493346161695965,0.005));
#1808=CARTESIAN_POINT('',(0.146222008299827,-0.0503853040574781,0.005));
#1809=CARTESIAN_POINT('',(0.146222008299827,-0.0503853040574781,0.));
#1810=CARTESIAN_POINT('',(0.146222008299828,-0.0514359919453598,0.));
#1811=CARTESIAN_POINT('',(0.146222008299828,-0.0514359919453598,0.005));
#1812=CARTESIAN_POINT('',(0.146222008299828,-0.0514359919453598,0.005));
#1813=CARTESIAN_POINT('',(0.146222008299827,-0.0503853040574781,0.005));
#1814=CARTESIAN_POINT('',(0.144722008299828,-0.0551440911889076,0.005));
#1815=CARTESIAN_POINT('',(0.144722008299828,-0.0551440911889076,0.));
#1816=CARTESIAN_POINT('',(0.143222008299828,-0.0514359919453598,0.));
#1817=CARTESIAN_POINT('',(0.143222008299828,-0.0514359919453598,0.005));
#1818=CARTESIAN_POINT('',(0.143222008299828,-0.0514359919453598,0.005));
#1819=CARTESIAN_POINT('',(0.144722008299828,-0.0551440911889076,0.005));
#1820=CARTESIAN_POINT('',(0.144722008299828,-0.0551440911889077,0.005));
#1821=CARTESIAN_POINT('',(0.144722008299828,-0.0551440911889077,0.));
#1822=CARTESIAN_POINT('',(0.143222008299828,-0.0588521904324555,0.));
#1823=CARTESIAN_POINT('',(0.146222008299828,-0.0588521904324555,0.));
#1824=CARTESIAN_POINT('',(0.146222008299828,-0.0588521904324555,0.005));
#1825=CARTESIAN_POINT('',(0.146222008299828,-0.0588521904324555,0.005));
#1826=CARTESIAN_POINT('',(0.144722008299828,-0.0551440911889077,0.005));
#1827=CARTESIAN_POINT('',(0.143222008299828,-0.0588521904324555,0.005));
#1828=CARTESIAN_POINT('',(0.143222008299828,-0.0588521904324555,0.005));
#1829=CARTESIAN_POINT('',(0.146222008299828,-0.0599028783203371,0.005));
#1830=CARTESIAN_POINT('',(0.146222008299828,-0.0599028783203371,0.));
#1831=CARTESIAN_POINT('',(0.146222008299828,-0.0609535662082188,0.));
#1832=CARTESIAN_POINT('',(0.146222008299828,-0.0609535662082188,0.005));
#1833=CARTESIAN_POINT('',(0.146222008299828,-0.0609535662082188,0.005));
#1834=CARTESIAN_POINT('',(0.146222008299828,-0.0599028783203371,0.005));
#1835=CARTESIAN_POINT('',(0.144722008299828,-0.0551440911889075,0.005));
#1836=CARTESIAN_POINT('',(0.144722008299828,-0.0551440911889075,0.));
#1837=CARTESIAN_POINT('',(0.143222008299828,-0.0609535662082188,0.));
#1838=CARTESIAN_POINT('',(0.143222008299828,-0.0609535662082188,0.005));
#1839=CARTESIAN_POINT('',(0.143222008299828,-0.0609535662082188,0.005));
#1840=CARTESIAN_POINT('',(0.144722008299828,-0.0551440911889075,0.005));
#1841=CARTESIAN_POINT('',(0.144722008299828,-0.0921440911889077,0.005));
#1842=CARTESIAN_POINT('',(0.144722008299828,-0.0921440911889077,0.));
#1843=CARTESIAN_POINT('',(0.138912533280516,-0.090644091188908,0.));
#1844=CARTESIAN_POINT('',(0.138912533280516,-0.0936440911889076,0.));
#1845=CARTESIAN_POINT('',(0.138912533280516,-0.090644091188908,0.005));
#1846=CARTESIAN_POINT('',(0.138912533280516,-0.090644091188908,0.005));
#1847=CARTESIAN_POINT('',(0.144722008299828,-0.0921440911889077,0.005));
#1848=CARTESIAN_POINT('',(0.138912533280516,-0.0936440911889076,0.005));
#1849=CARTESIAN_POINT('',(0.138912533280516,-0.0936440911889076,0.005));
#1850=CARTESIAN_POINT('',(0.139963221168398,-0.0906440911889078,0.005));
#1851=CARTESIAN_POINT('',(0.139963221168398,-0.0906440911889078,0.));
#1852=CARTESIAN_POINT('',(0.14101390905628,-0.0906440911889076,0.));
#1853=CARTESIAN_POINT('',(0.14101390905628,-0.0906440911889076,0.005));
#1854=CARTESIAN_POINT('',(0.14101390905628,-0.0906440911889076,0.005));
#1855=CARTESIAN_POINT('',(0.139963221168398,-0.0906440911889078,0.005));
#1856=CARTESIAN_POINT('',(0.144722008299828,-0.0921440911889076,0.005));
#1857=CARTESIAN_POINT('',(0.144722008299828,-0.0921440911889076,0.));
#1858=CARTESIAN_POINT('',(0.14101390905628,-0.0936440911889076,0.));
#1859=CARTESIAN_POINT('',(0.14101390905628,-0.0936440911889076,0.005));
#1860=CARTESIAN_POINT('',(0.14101390905628,-0.0936440911889076,0.005));
#1861=CARTESIAN_POINT('',(0.144722008299828,-0.0921440911889076,0.005));
#1862=CARTESIAN_POINT('',(0.144722008299828,-0.0921440911889078,0.005));
#1863=CARTESIAN_POINT('',(0.144722008299828,-0.0921440911889078,0.));
#1864=CARTESIAN_POINT('',(0.143222008299828,-0.0979535662082188,0.));
#1865=CARTESIAN_POINT('',(0.146222008299828,-0.0979535662082188,0.));
#1866=CARTESIAN_POINT('',(0.143222008299828,-0.0979535662082188,0.005));
#1867=CARTESIAN_POINT('',(0.143222008299828,-0.0979535662082188,0.005));
#1868=CARTESIAN_POINT('',(0.144722008299828,-0.0921440911889078,0.005));
#1869=CARTESIAN_POINT('',(0.146222008299828,-0.0979535662082188,0.005));
#1870=CARTESIAN_POINT('',(0.146222008299828,-0.0979535662082188,0.005));
#1871=CARTESIAN_POINT('',(0.143222008299828,-0.0969028783203371,0.005));
#1872=CARTESIAN_POINT('',(0.143222008299828,-0.0969028783203371,0.));
#1873=CARTESIAN_POINT('',(0.143222008299828,-0.0958521904324555,0.));
#1874=CARTESIAN_POINT('',(0.143222008299828,-0.0958521904324555,0.005));
#1875=CARTESIAN_POINT('',(0.143222008299828,-0.0958521904324555,0.005));
#1876=CARTESIAN_POINT('',(0.143222008299828,-0.0969028783203371,0.005));
#1877=CARTESIAN_POINT('',(0.144722008299828,-0.0921440911889078,0.005));
#1878=CARTESIAN_POINT('',(0.144722008299828,-0.0921440911889078,0.));
#1879=CARTESIAN_POINT('',(0.146222008299828,-0.0958521904324555,0.));
#1880=CARTESIAN_POINT('',(0.146222008299828,-0.0958521904324555,0.005));
#1881=CARTESIAN_POINT('',(0.146222008299828,-0.0958521904324555,0.005));
#1882=CARTESIAN_POINT('',(0.144722008299828,-0.0921440911889078,0.005));
#1883=CARTESIAN_POINT('',(0.144722008299828,-0.0921440911889074,0.005));
#1884=CARTESIAN_POINT('',(0.144722008299828,-0.0921440911889074,0.));
#1885=CARTESIAN_POINT('',(0.146222008299827,-0.0863346161695965,0.));
#1886=CARTESIAN_POINT('',(0.143222008299828,-0.0863346161695964,0.));
#1887=CARTESIAN_POINT('',(0.146222008299827,-0.0863346161695965,0.005));
#1888=CARTESIAN_POINT('',(0.146222008299827,-0.0863346161695965,0.005));
#1889=CARTESIAN_POINT('',(0.144722008299828,-0.0921440911889074,0.005));
#1890=CARTESIAN_POINT('',(0.143222008299828,-0.0863346161695964,0.005));
#1891=CARTESIAN_POINT('',(0.143222008299828,-0.0863346161695964,0.005));
#1892=CARTESIAN_POINT('',(0.146222008299827,-0.0873853040574781,0.005));
#1893=CARTESIAN_POINT('',(0.146222008299827,-0.0873853040574781,0.));
#1894=CARTESIAN_POINT('',(0.146222008299828,-0.0884359919453598,0.));
#1895=CARTESIAN_POINT('',(0.146222008299828,-0.0884359919453598,0.005));
#1896=CARTESIAN_POINT('',(0.146222008299828,-0.0884359919453598,0.005));
#1897=CARTESIAN_POINT('',(0.146222008299827,-0.0873853040574781,0.005));
#1898=CARTESIAN_POINT('',(0.144722008299828,-0.0921440911889074,0.005));
#1899=CARTESIAN_POINT('',(0.144722008299828,-0.0921440911889074,0.));
#1900=CARTESIAN_POINT('',(0.143222008299828,-0.0884359919453598,0.));
#1901=CARTESIAN_POINT('',(0.143222008299828,-0.0884359919453598,0.005));
#1902=CARTESIAN_POINT('',(0.143222008299828,-0.0884359919453598,0.005));
#1903=CARTESIAN_POINT('',(0.144722008299828,-0.0921440911889074,0.005));
#1904=CARTESIAN_POINT('',(0.144722008299828,-0.0921440911889076,0.005));
#1905=CARTESIAN_POINT('',(0.144722008299828,-0.0921440911889076,0.));
#1906=CARTESIAN_POINT('',(0.150531483319138,-0.0936440911889072,0.));
#1907=CARTESIAN_POINT('',(0.150531483319138,-0.0906440911889076,0.));
#1908=CARTESIAN_POINT('',(0.150531483319138,-0.0936440911889072,0.005));
#1909=CARTESIAN_POINT('',(0.150531483319138,-0.0936440911889072,0.005));
#1910=CARTESIAN_POINT('',(0.144722008299828,-0.0921440911889076,0.005));
#1911=CARTESIAN_POINT('',(0.150531483319138,-0.0906440911889076,0.005));
#1912=CARTESIAN_POINT('',(0.150531483319138,-0.0906440911889076,0.005));
#1913=CARTESIAN_POINT('',(0.149480795431257,-0.0936440911889074,0.005));
#1914=CARTESIAN_POINT('',(0.149480795431257,-0.0936440911889074,0.));
#1915=CARTESIAN_POINT('',(0.148430107543375,-0.0936440911889076,0.));
#1916=CARTESIAN_POINT('',(0.148430107543375,-0.0936440911889076,0.005));
#1917=CARTESIAN_POINT('',(0.148430107543375,-0.0936440911889076,0.005));
#1918=CARTESIAN_POINT('',(0.149480795431257,-0.0936440911889074,0.005));
#1919=CARTESIAN_POINT('',(0.144722008299828,-0.0921440911889076,0.005));
#1920=CARTESIAN_POINT('',(0.144722008299828,-0.0921440911889076,0.));
#1921=CARTESIAN_POINT('',(0.148430107543375,-0.0906440911889076,0.));
#1922=CARTESIAN_POINT('',(0.148430107543375,-0.0906440911889076,0.005));
#1923=CARTESIAN_POINT('',(0.148430107543375,-0.0906440911889076,0.005));
#1924=CARTESIAN_POINT('',(0.144722008299828,-0.0921440911889076,0.005));
#1925=CARTESIAN_POINT('',(0.144722008299828,-0.0551440911889076,0.005));
#1926=CARTESIAN_POINT('',(0.144722008299828,-0.0551440911889076,0.));
#1927=CARTESIAN_POINT('',(0.150531483319138,-0.056644091188907,0.));
#1928=CARTESIAN_POINT('',(0.150531483319138,-0.0536440911889076,0.));
#1929=CARTESIAN_POINT('',(0.150531483319138,-0.056644091188907,0.005));
#1930=CARTESIAN_POINT('',(0.150531483319138,-0.056644091188907,0.005));
#1931=CARTESIAN_POINT('',(0.144722008299828,-0.0551440911889076,0.005));
#1932=CARTESIAN_POINT('',(0.150531483319138,-0.0536440911889076,0.005));
#1933=CARTESIAN_POINT('',(0.150531483319138,-0.0536440911889076,0.005));
#1934=CARTESIAN_POINT('',(0.149480795431257,-0.0566440911889073,0.005));
#1935=CARTESIAN_POINT('',(0.149480795431257,-0.0566440911889073,0.));
#1936=CARTESIAN_POINT('',(0.148430107543375,-0.0566440911889076,0.));
#1937=CARTESIAN_POINT('',(0.148430107543375,-0.0566440911889076,0.005));
#1938=CARTESIAN_POINT('',(0.148430107543375,-0.0566440911889076,0.005));
#1939=CARTESIAN_POINT('',(0.149480795431257,-0.0566440911889073,0.005));
#1940=CARTESIAN_POINT('',(0.144722008299828,-0.0551440911889076,0.005));
#1941=CARTESIAN_POINT('',(0.144722008299828,-0.0551440911889076,0.));
#1942=CARTESIAN_POINT('',(0.148430107543375,-0.0536440911889076,0.));
#1943=CARTESIAN_POINT('',(0.148430107543375,-0.0536440911889076,0.005));
#1944=CARTESIAN_POINT('',(0.148430107543375,-0.0536440911889076,0.005));
#1945=CARTESIAN_POINT('',(0.144722008299828,-0.0551440911889076,0.005));
#1946=CARTESIAN_POINT('',(0.144722008299827,-0.0551440911889076,0.005));
#1947=CARTESIAN_POINT('',(0.144722008299827,-0.0551440911889076,0.));
#1948=CARTESIAN_POINT('',(0.138912533280516,-0.0536440911889083,0.));
#1949=CARTESIAN_POINT('',(0.138912533280516,-0.0566440911889076,0.));
#1950=CARTESIAN_POINT('',(0.138912533280516,-0.0536440911889083,0.005));
#1951=CARTESIAN_POINT('',(0.138912533280516,-0.0536440911889083,0.005));
#1952=CARTESIAN_POINT('',(0.144722008299827,-0.0551440911889076,0.005));
#1953=CARTESIAN_POINT('',(0.138912533280516,-0.0566440911889076,0.005));
#1954=CARTESIAN_POINT('',(0.138912533280516,-0.0566440911889076,0.005));
#1955=CARTESIAN_POINT('',(0.139963221168398,-0.053644091188908,0.005));
#1956=CARTESIAN_POINT('',(0.139963221168398,-0.053644091188908,0.));
#1957=CARTESIAN_POINT('',(0.14101390905628,-0.0536440911889077,0.));
#1958=CARTESIAN_POINT('',(0.14101390905628,-0.0536440911889077,0.005));
#1959=CARTESIAN_POINT('',(0.14101390905628,-0.0536440911889077,0.005));
#1960=CARTESIAN_POINT('',(0.139963221168398,-0.053644091188908,0.005));
#1961=CARTESIAN_POINT('',(0.144722008299827,-0.0551440911889077,0.005));
#1962=CARTESIAN_POINT('',(0.144722008299827,-0.0551440911889077,0.));
#1963=CARTESIAN_POINT('',(0.14101390905628,-0.0566440911889076,0.));
#1964=CARTESIAN_POINT('',(0.14101390905628,-0.0566440911889076,0.005));
#1965=CARTESIAN_POINT('',(0.14101390905628,-0.0566440911889076,0.005));
#1966=CARTESIAN_POINT('',(0.144722008299827,-0.0551440911889077,0.005));
#1967=CARTESIAN_POINT('',(0.143472008299828,-0.0711440911889076,0.005));
#1968=CARTESIAN_POINT('',(0.143472008299828,-0.0711440911889076,0.));
#1969=CARTESIAN_POINT('',(0.147222008299828,-0.0711440911889076,0.));
#1970=CARTESIAN_POINT('',(0.142222008299828,-0.0711440911889076,0.));
#1971=CARTESIAN_POINT('',(0.147222008299828,-0.0711440911889076,0.005));
#1972=CARTESIAN_POINT('',(0.147222008299828,-0.0711440911889076,0.005));
#1973=CARTESIAN_POINT('',(0.143472008299828,-0.0711440911889076,0.005));
#1974=CARTESIAN_POINT('',(0.142222008299828,-0.0711440911889076,0.005));
#1975=CARTESIAN_POINT('',(0.142222008299828,-0.0711440911889076,0.005));
#1976=CARTESIAN_POINT('',(0.147222008299828,-0.0723940911889076,0.005));
#1977=CARTESIAN_POINT('',(0.147222008299828,-0.0723940911889076,0.));
#1978=CARTESIAN_POINT('',(0.147222008299828,-0.0761440911889076,0.));
#1979=CARTESIAN_POINT('',(0.147222008299828,-0.0761440911889076,0.005));
#1980=CARTESIAN_POINT('',(0.147222008299828,-0.0761440911889076,0.005));
#1981=CARTESIAN_POINT('',(0.147222008299828,-0.0723940911889076,0.005));
#1982=CARTESIAN_POINT('',(0.145972008299828,-0.0761440911889076,0.005));
#1983=CARTESIAN_POINT('',(0.145972008299828,-0.0761440911889076,0.));
#1984=CARTESIAN_POINT('',(0.142222008299828,-0.0761440911889076,0.));
#1985=CARTESIAN_POINT('',(0.142222008299828,-0.0761440911889076,0.005));
#1986=CARTESIAN_POINT('',(0.142222008299828,-0.0761440911889076,0.005));
#1987=CARTESIAN_POINT('',(0.145972008299828,-0.0761440911889076,0.005));
#1988=CARTESIAN_POINT('',(0.144722008299828,-0.118644091188908,0.005));
#1989=CARTESIAN_POINT('',(0.144722008299828,-0.118644091188908,0.));
#1990=CARTESIAN_POINT('',(0.132222008299828,-0.103031596192912,0.));
#1991=CARTESIAN_POINT('',(0.157222008299828,-0.103031596192912,0.));
#1992=CARTESIAN_POINT('',(0.157222008299828,-0.103031596192912,0.005));
#1993=CARTESIAN_POINT('',(0.157222008299828,-0.103031596192912,0.005));
#1994=CARTESIAN_POINT('',(0.144722008299828,-0.118644091188908,0.005));
#1995=CARTESIAN_POINT('',(0.132222008299828,-0.103031596192912,0.005));
#1996=CARTESIAN_POINT('',(0.132222008299828,-0.103031596192912,0.005));
#1997=CARTESIAN_POINT('',(0.157222008299828,-0.0589503386869056,0.005));
#1998=CARTESIAN_POINT('',(0.157222008299828,-0.0589503386869056,0.));
#1999=CARTESIAN_POINT('',(0.157222008299828,-0.0442565861849036,0.));
#2000=CARTESIAN_POINT('',(0.157222008299828,-0.0442565861849036,0.005));
#2001=CARTESIAN_POINT('',(0.157222008299828,-0.0442565861849036,0.005));
#2002=CARTESIAN_POINT('',(0.157222008299828,-0.0589503386869056,0.005));
#2003=CARTESIAN_POINT('',(0.144722008299828,-0.0286440911889076,0.005));
#2004=CARTESIAN_POINT('',(0.144722008299828,-0.0286440911889076,0.));
#2005=CARTESIAN_POINT('',(0.132222008299828,-0.0442565861849036,0.));
#2006=CARTESIAN_POINT('',(0.132222008299828,-0.0442565861849036,0.005));
#2007=CARTESIAN_POINT('',(0.132222008299828,-0.0442565861849036,0.005));
#2008=CARTESIAN_POINT('',(0.144722008299828,-0.0286440911889076,0.005));
#2009=CARTESIAN_POINT('',(0.144722008299828,-0.118644091188908,0.005));
#2010=CARTESIAN_POINT('',(0.144722008299828,-0.118644091188908,0.));
#2011=CARTESIAN_POINT('',(0.147872008299828,-0.115942239971686,0.));
#2012=CARTESIAN_POINT('',(0.141572008299828,-0.115942239971686,0.));
#2013=CARTESIAN_POINT('',(0.147872008299828,-0.115942239971686,0.005));
#2014=CARTESIAN_POINT('',(0.147872008299828,-0.115942239971686,0.008));
#2015=CARTESIAN_POINT('',(0.144722008299828,-0.118644091188908,0.008));
#2016=CARTESIAN_POINT('',(0.141572008299828,-0.115942239971686,0.008));
#2017=CARTESIAN_POINT('',(0.141572008299828,-0.115942239971686,0.005));
#2018=CARTESIAN_POINT('',(0.147872008299828,-0.118644091188908,0.005));
#2019=CARTESIAN_POINT('',(0.147872008299828,-0.118644091188908,0.));
#2020=CARTESIAN_POINT('',(0.147872008299828,-0.121345942406129,0.));
#2021=CARTESIAN_POINT('',(0.147872008299828,-0.121345942406129,0.005));
#2022=CARTESIAN_POINT('',(0.147872008299828,-0.121345942406129,0.008));
#2023=CARTESIAN_POINT('',(0.147872008299828,-0.118644091188908,0.008));
#2024=CARTESIAN_POINT('',(0.144722008299828,-0.118644091188908,0.005));
#2025=CARTESIAN_POINT('',(0.144722008299828,-0.118644091188908,0.));
#2026=CARTESIAN_POINT('',(0.141572008299828,-0.121345942406129,0.));
#2027=CARTESIAN_POINT('',(0.141572008299828,-0.121345942406129,0.005));
#2028=CARTESIAN_POINT('',(0.141572008299828,-0.121345942406129,0.008));
#2029=CARTESIAN_POINT('',(0.144722008299828,-0.118644091188908,0.008));
#2030=CARTESIAN_POINT('',(0.152712314927235,-0.0206537845614997,0.005));
#2031=CARTESIAN_POINT('',(0.152712314927235,-0.0206537845614997,0.005));
#2032=CARTESIAN_POINT('',(0.154137314927236,-0.0206537845614997,0.005));
#2033=CARTESIAN_POINT('',(0.152712314927235,-0.0206537845614997,0.));
#2034=CARTESIAN_POINT('',(0.154137314927236,-0.0206537845614997,0.));
#2035=CARTESIAN_POINT('',(0.13673170167242,-0.0206537845614997,0.005));
#2036=CARTESIAN_POINT('',(0.13673170167242,-0.0206537845614997,0.005));
#2037=CARTESIAN_POINT('',(0.13815670167242,-0.0206537845614997,0.005));
#2038=CARTESIAN_POINT('',(0.13673170167242,-0.0206537845614997,0.));
#2039=CARTESIAN_POINT('',(0.13815670167242,-0.0206537845614997,0.));
#2040=CARTESIAN_POINT('',(0.13673170167242,-0.0366343978163156,0.005));
#2041=CARTESIAN_POINT('',(0.13673170167242,-0.0366343978163156,0.005));
#2042=CARTESIAN_POINT('',(0.13815670167242,-0.0366343978163156,0.005));
#2043=CARTESIAN_POINT('',(0.13673170167242,-0.0366343978163156,0.));
#2044=CARTESIAN_POINT('',(0.13815670167242,-0.0366343978163156,0.));
#2045=CARTESIAN_POINT('',(0.144722008299828,-0.0131190911889076,0.005));
#2046=CARTESIAN_POINT('',(0.144722008299828,-0.0131190911889076,0.005));
#2047=CARTESIAN_POINT('',(0.146147008299828,-0.0131190911889076,0.005));
#2048=CARTESIAN_POINT('',(0.144722008299828,-0.0131190911889076,0.));
#2049=CARTESIAN_POINT('',(0.146147008299828,-0.0131190911889076,0.));
#2050=CARTESIAN_POINT('',(0.129197008299828,-0.0286440911889076,0.005));
#2051=CARTESIAN_POINT('',(0.129197008299828,-0.0286440911889076,0.005));
#2052=CARTESIAN_POINT('',(0.130622008299828,-0.0286440911889076,0.005));
#2053=CARTESIAN_POINT('',(0.129197008299828,-0.0286440911889076,0.));
#2054=CARTESIAN_POINT('',(0.130622008299828,-0.0286440911889076,0.));
#2055=CARTESIAN_POINT('',(0.144722008299828,-0.0286440911889076,0.005));
#2056=CARTESIAN_POINT('',(0.144722008299828,-0.0286440911889076,0.005));
#2057=CARTESIAN_POINT('',(0.152222008299828,-0.0286440911889076,0.005));
#2058=CARTESIAN_POINT('',(0.144722008299828,-0.0286440911889076,0.));
#2059=CARTESIAN_POINT('',(0.152222008299828,-0.0286440911889076,0.));
#2060=CARTESIAN_POINT('',(0.160247008299828,-0.0286440911889076,0.005));
#2061=CARTESIAN_POINT('',(0.160247008299828,-0.0286440911889076,0.005));
#2062=CARTESIAN_POINT('',(0.161672008299828,-0.0286440911889076,0.005));
#2063=CARTESIAN_POINT('',(0.160247008299828,-0.0286440911889076,0.));
#2064=CARTESIAN_POINT('',(0.161672008299828,-0.0286440911889076,0.));
#2065=CARTESIAN_POINT('',(0.144722008299828,-0.0441690911889076,0.005));
#2066=CARTESIAN_POINT('',(0.144722008299828,-0.0441690911889076,0.005));
#2067=CARTESIAN_POINT('',(0.146147008299828,-0.0441690911889076,0.005));
#2068=CARTESIAN_POINT('',(0.144722008299828,-0.0441690911889076,0.));
#2069=CARTESIAN_POINT('',(0.146147008299828,-0.0441690911889076,0.));
#2070=CARTESIAN_POINT('',(0.143222008299828,-0.0503853040574781,0.005));
#2071=CARTESIAN_POINT('',(0.143222008299828,-0.0503853040574781,0.));
#2072=CARTESIAN_POINT('',(0.143222008299828,-0.0503853040574781,0.005));
#2073=CARTESIAN_POINT('',(0.143222008299828,-0.0599028783203371,0.005));
#2074=CARTESIAN_POINT('',(0.143222008299828,-0.0599028783203371,0.));
#2075=CARTESIAN_POINT('',(0.143222008299828,-0.0599028783203371,0.005));
#2076=CARTESIAN_POINT('',(0.139963221168398,-0.0936440911889076,0.005));
#2077=CARTESIAN_POINT('',(0.139963221168398,-0.0936440911889076,0.));
#2078=CARTESIAN_POINT('',(0.139963221168398,-0.0936440911889076,0.005));
#2079=CARTESIAN_POINT('',(0.146222008299828,-0.0969028783203371,0.005));
#2080=CARTESIAN_POINT('',(0.146222008299828,-0.0969028783203371,0.));
#2081=CARTESIAN_POINT('',(0.146222008299828,-0.0969028783203371,0.005));
#2082=CARTESIAN_POINT('',(0.143222008299828,-0.0873853040574781,0.005));
#2083=CARTESIAN_POINT('',(0.143222008299828,-0.0873853040574781,0.));
#2084=CARTESIAN_POINT('',(0.143222008299828,-0.0873853040574781,0.005));
#2085=CARTESIAN_POINT('',(0.149480795431257,-0.0906440911889076,0.005));
#2086=CARTESIAN_POINT('',(0.149480795431257,-0.0906440911889076,0.));
#2087=CARTESIAN_POINT('',(0.149480795431257,-0.0906440911889076,0.005));
#2088=CARTESIAN_POINT('',(0.144722008299828,-0.0921440911889076,0.005));
#2089=CARTESIAN_POINT('',(0.144722008299828,-0.0921440911889076,0.005));
#2090=CARTESIAN_POINT('',(0.146147008299828,-0.0921440911889076,0.005));
#2091=CARTESIAN_POINT('',(0.144722008299828,-0.0921440911889076,0.));
#2092=CARTESIAN_POINT('',(0.146147008299828,-0.0921440911889076,0.));
#2093=CARTESIAN_POINT('',(0.149480795431257,-0.0536440911889076,0.005));
#2094=CARTESIAN_POINT('',(0.149480795431257,-0.0536440911889076,0.));
#2095=CARTESIAN_POINT('',(0.149480795431257,-0.0536440911889076,0.005));
#2096=CARTESIAN_POINT('',(0.139963221168398,-0.0566440911889076,0.005));
#2097=CARTESIAN_POINT('',(0.139963221168398,-0.0566440911889076,0.));
#2098=CARTESIAN_POINT('',(0.139963221168398,-0.0566440911889076,0.005));
#2099=CARTESIAN_POINT('',(0.144722008299828,-0.0551440911889076,0.005));
#2100=CARTESIAN_POINT('',(0.144722008299828,-0.0551440911889076,0.005));
#2101=CARTESIAN_POINT('',(0.146147008299828,-0.0551440911889076,0.005));
#2102=CARTESIAN_POINT('',(0.144722008299828,-0.0551440911889076,0.));
#2103=CARTESIAN_POINT('',(0.146147008299828,-0.0551440911889076,0.));
#2104=CARTESIAN_POINT('',(0.142222008299828,-0.0723940911889076,0.005));
#2105=CARTESIAN_POINT('',(0.142222008299828,-0.0723940911889076,0.));
#2106=CARTESIAN_POINT('',(0.142222008299828,-0.0723940911889076,0.005));
#2107=CARTESIAN_POINT('',(0.132222008299828,-0.0589503386869056,0.005));
#2108=CARTESIAN_POINT('',(0.132222008299828,-0.0589503386869056,0.));
#2109=CARTESIAN_POINT('',(0.132222008299828,-0.0589503386869056,0.005));
#2110=CARTESIAN_POINT('',(0.141572008299828,-0.118644091188908,0.005));
#2111=CARTESIAN_POINT('',(0.141572008299828,-0.118644091188908,0.));
#2112=CARTESIAN_POINT('',(0.141572008299828,-0.118644091188908,0.008));
#2113=CARTESIAN_POINT('',(0.152712314927235,-0.0366343978163156,0.005));
#2114=CARTESIAN_POINT('',(0.152712314927235,-0.0366343978163156,0.005));
#2115=CARTESIAN_POINT('',(0.154137314927236,-0.0366343978163156,0.005));
#2116=CARTESIAN_POINT('',(0.152712314927235,-0.0366343978163156,0.));
#2117=CARTESIAN_POINT('',(0.154137314927236,-0.0366343978163156,0.));
#2118=CARTESIAN_POINT('',(0.144722008299828,-0.0736440911889076,0.005));
#2119=CARTESIAN_POINT('',(0.130133280362126,-0.0233342284637766,0.005));
#2120=CARTESIAN_POINT('',(0.131633280362126,-0.0233342284637766,0.005));
#2121=CARTESIAN_POINT('',(0.159310736237529,-0.0339539539140387,0.005));
#2122=CARTESIAN_POINT('',(0.160810736237529,-0.0339539539140387,0.005));
#2123=CARTESIAN_POINT('',(0.144722008299828,-0.118644091188908,0.005));
#2124=CARTESIAN_POINT('',(0.149722008299828,-0.118644091188908,0.005));
#2125=CARTESIAN_POINT('',(0.144722008299828,-0.0736440911889076,0.));
#2126=CARTESIAN_POINT('',(0.159310736237529,-0.0339539539140387,0.));
#2127=CARTESIAN_POINT('',(0.157660736237529,-0.0339539539140387,0.));
#2128=CARTESIAN_POINT('',(0.130133280362126,-0.0233342284637766,0.));
#2129=CARTESIAN_POINT('',(0.128483280362126,-0.0233342284637766,0.));
#2130=CARTESIAN_POINT('',(0.144722008299828,-0.118644091188908,0.008));
#2131=CARTESIAN_POINT('',(0.144722008299828,-0.118644091188908,0.008));
#2132=CARTESIAN_POINT('',(0.149722008299828,-0.118644091188908,0.008));
#2133=CARTESIAN_POINT('',(0.144722008299828,-0.0736440911889077,0.008));
#2134=CARTESIAN_POINT('',(0.159310736237529,-0.0339539539140387,0.005));
#2135=CARTESIAN_POINT('',(0.159310736237529,-0.0339539539140387,0.0057));
#2136=CARTESIAN_POINT('',(0.160110736237529,-0.0339539539140387,0.0057));
#2137=CARTESIAN_POINT('',(0.144722008299828,-0.0736440911889077,0.0057));
#2138=CARTESIAN_POINT('',(0.130133280362126,-0.0233342284637766,0.005));
#2139=CARTESIAN_POINT('',(0.130133280362126,-0.0233342284637766,0.0057));
#2140=CARTESIAN_POINT('',(0.130933280362126,-0.0233342284637766,0.0057));
#2141=CARTESIAN_POINT('',(0.144722008299828,-0.0736440911889077,0.0057));
#2142=CARTESIAN_POINT('',(0.130133280362126,-0.0233342284637766,0.));
#2143=CARTESIAN_POINT('',(0.130133280362126,-0.0233342284637766,0.001));
#2144=CARTESIAN_POINT('',(0.129483280362126,-0.0233342284637766,0.001));
#2145=CARTESIAN_POINT('',(0.144722008299828,-0.0736440911889077,0.001));
#2146=CARTESIAN_POINT('',(0.159310736237529,-0.0339539539140387,0.));
#2147=CARTESIAN_POINT('',(0.159310736237529,-0.0339539539140387,0.001));
#2148=CARTESIAN_POINT('',(0.158660736237529,-0.0339539539140387,0.001));
#2149=CARTESIAN_POINT('',(0.144722008299828,-0.0736440911889077,0.001));
#2150=MECHANICAL_DESIGN_GEOMETRIC_PRESENTATION_REPRESENTATION('',(#1275),
#2151);
#2151=(
GEOMETRIC_REPRESENTATION_CONTEXT(3)
GLOBAL_UNCERTAINTY_ASSIGNED_CONTEXT((#2152))
GLOBAL_UNIT_ASSIGNED_CONTEXT((#2155,#2154,#2153))
REPRESENTATION_CONTEXT('shoulder-to-elbow-link',
'TOP_LEVEL_ASSEMBLY_PART')
);
#2152=UNCERTAINTY_MEASURE_WITH_UNIT(LENGTH_MEASURE(1.E-8),#2155,
'DISTANCE_ACCURACY_VALUE','Maximum Tolerance applied to model');
#2153=(
NAMED_UNIT(*)
SI_UNIT($,.STERADIAN.)
SOLID_ANGLE_UNIT()
);
#2154=(
NAMED_UNIT(*)
PLANE_ANGLE_UNIT()
SI_UNIT($,.RADIAN.)
);
#2155=(
LENGTH_UNIT()
NAMED_UNIT(*)
SI_UNIT($,.METRE.)
);
#2156=PRODUCT_DEFINITION_SHAPE('','',#2157);
#2157=PRODUCT_DEFINITION('','',#2159,#2158);
#2158=PRODUCT_DEFINITION_CONTEXT('',#2165,'design');
#2159=PRODUCT_DEFINITION_FORMATION_WITH_SPECIFIED_SOURCE('','',#2161,
 .NOT_KNOWN.);
#2160=PRODUCT_RELATED_PRODUCT_CATEGORY('','',(#2161));
#2161=PRODUCT('shoulder-to-elbow-link','shoulder-to-elbow-link',
'shoulder-to-elbow-link',(#2163));
#2162=PRODUCT_CATEGORY('','');
#2163=PRODUCT_CONTEXT('',#2165,'mechanical');
#2164=APPLICATION_PROTOCOL_DEFINITION('international standard',
'ap242_managed_model_based_3d_engineering',2020,#2165);
#2165=APPLICATION_CONTEXT('managed model based 3d engineering');
ENDSEC;
END-ISO-10303-21;
