ISO-10303-21;
HEADER;
/* Generated by software containing ST-Developer
 * from STEP Tools, Inc. (www.steptools.com) 
 */
/* OPTION: using custom renumber hook */

FILE_DESCRIPTION(
/* description */ ('STEP AP242 Edition 2',
'CAx-IF Rec.Pracs.---Representation and Presentation of Product Manufa
cturing Information (PMI)---4.0---2014-10-13',
'CAx-IF Rec.Pracs.---3D Tessellated Geometry---0.4---2014-09-14','2;1',
'CAx-IF Rec.Pracs.---User Defined Attributes---1.5---2016-08-15'),
/* implementation_level */ '2;1');

FILE_NAME(
/* name */ 'Part Studio 1 - rest_pose_holder_base',
/* time_stamp */ '2026-08-24T08:37:06Z',
/* author */ (''),
/* organization */ (''),
/* preprocessor_version */ 'ST-DEVELOPER v20',
/* originating_system */ 'ONSHAPE BY PTC INC, 1.219',
/* authorisation */ '  ');

FILE_SCHEMA (('AP242_MANAGED_MODEL_BASED_3D_ENGINEERING_MIM_LF { 1 0 10303 442 3 1 4 }'));
ENDSEC;

DATA;
#10=SHAPE_REPRESENTATION_RELATIONSHIP('','',#514,#11);
#11=ADVANCED_BREP_SHAPE_REPRESENTATION('',(#512),#859);
#12=ELLIPSE('',#562,0.00101543929409886,0.001);
#13=ELLIPSE('',#566,0.00141421356237309,0.001);
#14=PLANE('',#519);
#15=PLANE('',#523);
#16=PLANE('',#524);
#17=PLANE('',#525);
#18=PLANE('',#529);
#19=PLANE('',#533);
#20=PLANE('',#546);
#21=PLANE('',#550);
#22=PLANE('',#552);
#23=PLANE('',#553);
#24=PLANE('',#556);
#25=PLANE('',#558);
#26=PLANE('',#559);
#27=PLANE('',#561);
#28=LINE('',#721,#70);
#29=LINE('',#725,#71);
#30=LINE('',#727,#72);
#31=LINE('',#729,#73);
#32=LINE('',#731,#74);
#33=LINE('',#735,#75);
#34=LINE('',#739,#76);
#35=LINE('',#741,#77);
#36=LINE('',#743,#78);
#37=LINE('',#745,#79);
#38=LINE('',#747,#80);
#39=LINE('',#749,#81);
#40=LINE('',#751,#82);
#41=LINE('',#753,#83);
#42=LINE('',#755,#84);
#43=LINE('',#759,#85);
#44=LINE('',#763,#86);
#45=LINE('',#765,#87);
#46=LINE('',#767,#88);
#47=LINE('',#771,#89);
#48=LINE('',#775,#90);
#49=LINE('',#777,#91);
#50=LINE('',#779,#92);
#51=LINE('',#783,#93);
#52=LINE('',#802,#94);
#53=LINE('',#803,#95);
#54=LINE('',#813,#96);
#55=LINE('',#815,#97);
#56=LINE('',#817,#98);
#57=LINE('',#819,#99);
#58=LINE('',#822,#100);
#59=LINE('',#824,#101);
#60=LINE('',#828,#102);
#61=LINE('',#834,#103);
#62=LINE('',#836,#104);
#63=LINE('',#838,#105);
#64=LINE('',#840,#106);
#65=LINE('',#842,#107);
#66=LINE('',#844,#108);
#67=LINE('',#848,#109);
#68=LINE('',#849,#110);
#69=LINE('',#851,#111);
#70=VECTOR('',#574,1.);
#71=VECTOR('',#577,1.);
#72=VECTOR('',#580,1.);
#73=VECTOR('',#581,1.);
#74=VECTOR('',#582,1.);
#75=VECTOR('',#587,1.);
#76=VECTOR('',#592,1.);
#77=VECTOR('',#593,1.);
#78=VECTOR('',#594,1.);
#79=VECTOR('',#597,1.);
#80=VECTOR('',#598,1.);
#81=VECTOR('',#599,1.);
#82=VECTOR('',#602,1.);
#83=VECTOR('',#603,1.);
#84=VECTOR('',#604,1.);
#85=VECTOR('',#609,1.);
#86=VECTOR('',#614,1.);
#87=VECTOR('',#615,1.);
#88=VECTOR('',#616,1.);
#89=VECTOR('',#621,1.);
#90=VECTOR('',#626,1.);
#91=VECTOR('',#627,1.);
#92=VECTOR('',#628,1.);
#93=VECTOR('',#633,1.);
#94=VECTOR('',#656,1.);
#95=VECTOR('',#657,1.);
#96=VECTOR('',#668,1.);
#97=VECTOR('',#669,1.);
#98=VECTOR('',#670,1.);
#99=VECTOR('',#671,1.);
#100=VECTOR('',#676,1.);
#101=VECTOR('',#677,1.);
#102=VECTOR('',#680,1.);
#103=VECTOR('',#687,1.);
#104=VECTOR('',#688,1.);
#105=VECTOR('',#689,1.);
#106=VECTOR('',#692,1.);
#107=VECTOR('',#693,1.);
#108=VECTOR('',#694,1.);
#109=VECTOR('',#699,1.);
#110=VECTOR('',#700,1.);
#111=VECTOR('',#703,1.);
#112=ORIENTED_EDGE('',*,*,#246,.F.);
#113=ORIENTED_EDGE('',*,*,#247,.F.);
#114=ORIENTED_EDGE('',*,*,#248,.T.);
#115=ORIENTED_EDGE('',*,*,#249,.T.);
#116=ORIENTED_EDGE('',*,*,#250,.T.);
#117=ORIENTED_EDGE('',*,*,#251,.F.);
#118=ORIENTED_EDGE('',*,*,#252,.F.);
#119=ORIENTED_EDGE('',*,*,#247,.T.);
#120=ORIENTED_EDGE('',*,*,#253,.T.);
#121=ORIENTED_EDGE('',*,*,#254,.F.);
#122=ORIENTED_EDGE('',*,*,#255,.F.);
#123=ORIENTED_EDGE('',*,*,#251,.T.);
#124=ORIENTED_EDGE('',*,*,#256,.T.);
#125=ORIENTED_EDGE('',*,*,#257,.F.);
#126=ORIENTED_EDGE('',*,*,#258,.F.);
#127=ORIENTED_EDGE('',*,*,#254,.T.);
#128=ORIENTED_EDGE('',*,*,#259,.T.);
#129=ORIENTED_EDGE('',*,*,#260,.F.);
#130=ORIENTED_EDGE('',*,*,#261,.F.);
#131=ORIENTED_EDGE('',*,*,#257,.T.);
#132=ORIENTED_EDGE('',*,*,#262,.F.);
#133=ORIENTED_EDGE('',*,*,#263,.F.);
#134=ORIENTED_EDGE('',*,*,#264,.T.);
#135=ORIENTED_EDGE('',*,*,#260,.T.);
#136=ORIENTED_EDGE('',*,*,#265,.T.);
#137=ORIENTED_EDGE('',*,*,#266,.F.);
#138=ORIENTED_EDGE('',*,*,#267,.F.);
#139=ORIENTED_EDGE('',*,*,#263,.T.);
#140=ORIENTED_EDGE('',*,*,#268,.F.);
#141=ORIENTED_EDGE('',*,*,#269,.F.);
#142=ORIENTED_EDGE('',*,*,#270,.T.);
#143=ORIENTED_EDGE('',*,*,#266,.T.);
#144=ORIENTED_EDGE('',*,*,#271,.F.);
#145=ORIENTED_EDGE('',*,*,#272,.F.);
#146=ORIENTED_EDGE('',*,*,#273,.T.);
#147=ORIENTED_EDGE('',*,*,#269,.T.);
#148=ORIENTED_EDGE('',*,*,#274,.T.);
#149=ORIENTED_EDGE('',*,*,#275,.F.);
#150=ORIENTED_EDGE('',*,*,#276,.F.);
#151=ORIENTED_EDGE('',*,*,#272,.T.);
#152=ORIENTED_EDGE('',*,*,#277,.F.);
#153=ORIENTED_EDGE('',*,*,#278,.F.);
#154=ORIENTED_EDGE('',*,*,#279,.T.);
#155=ORIENTED_EDGE('',*,*,#275,.T.);
#156=ORIENTED_EDGE('',*,*,#280,.T.);
#157=ORIENTED_EDGE('',*,*,#281,.F.);
#158=ORIENTED_EDGE('',*,*,#282,.T.);
#159=ORIENTED_EDGE('',*,*,#283,.F.);
#160=ORIENTED_EDGE('',*,*,#284,.T.);
#161=ORIENTED_EDGE('',*,*,#285,.F.);
#162=ORIENTED_EDGE('',*,*,#286,.F.);
#163=ORIENTED_EDGE('',*,*,#249,.F.);
#164=ORIENTED_EDGE('',*,*,#287,.T.);
#165=ORIENTED_EDGE('',*,*,#278,.T.);
#166=ORIENTED_EDGE('',*,*,#288,.T.);
#167=ORIENTED_EDGE('',*,*,#289,.F.);
#168=ORIENTED_EDGE('',*,*,#290,.F.);
#169=ORIENTED_EDGE('',*,*,#291,.T.);
#170=ORIENTED_EDGE('',*,*,#292,.T.);
#171=ORIENTED_EDGE('',*,*,#293,.T.);
#172=ORIENTED_EDGE('',*,*,#294,.T.);
#173=ORIENTED_EDGE('',*,*,#248,.F.);
#174=ORIENTED_EDGE('',*,*,#252,.T.);
#175=ORIENTED_EDGE('',*,*,#255,.T.);
#176=ORIENTED_EDGE('',*,*,#258,.T.);
#177=ORIENTED_EDGE('',*,*,#261,.T.);
#178=ORIENTED_EDGE('',*,*,#264,.F.);
#179=ORIENTED_EDGE('',*,*,#267,.T.);
#180=ORIENTED_EDGE('',*,*,#270,.F.);
#181=ORIENTED_EDGE('',*,*,#273,.F.);
#182=ORIENTED_EDGE('',*,*,#276,.T.);
#183=ORIENTED_EDGE('',*,*,#279,.F.);
#184=ORIENTED_EDGE('',*,*,#287,.F.);
#185=ORIENTED_EDGE('',*,*,#284,.F.);
#186=ORIENTED_EDGE('',*,*,#282,.F.);
#187=ORIENTED_EDGE('',*,*,#280,.F.);
#188=ORIENTED_EDGE('',*,*,#288,.F.);
#189=ORIENTED_EDGE('',*,*,#289,.T.);
#190=ORIENTED_EDGE('',*,*,#281,.T.);
#191=ORIENTED_EDGE('',*,*,#283,.T.);
#192=ORIENTED_EDGE('',*,*,#285,.T.);
#193=ORIENTED_EDGE('',*,*,#246,.T.);
#194=ORIENTED_EDGE('',*,*,#286,.T.);
#195=ORIENTED_EDGE('',*,*,#277,.T.);
#196=ORIENTED_EDGE('',*,*,#274,.F.);
#197=ORIENTED_EDGE('',*,*,#271,.T.);
#198=ORIENTED_EDGE('',*,*,#268,.T.);
#199=ORIENTED_EDGE('',*,*,#265,.F.);
#200=ORIENTED_EDGE('',*,*,#262,.T.);
#201=ORIENTED_EDGE('',*,*,#259,.F.);
#202=ORIENTED_EDGE('',*,*,#256,.F.);
#203=ORIENTED_EDGE('',*,*,#253,.F.);
#204=ORIENTED_EDGE('',*,*,#250,.F.);
#205=ORIENTED_EDGE('',*,*,#291,.F.);
#206=ORIENTED_EDGE('',*,*,#295,.T.);
#207=ORIENTED_EDGE('',*,*,#296,.F.);
#208=ORIENTED_EDGE('',*,*,#297,.T.);
#209=ORIENTED_EDGE('',*,*,#298,.T.);
#210=ORIENTED_EDGE('',*,*,#299,.T.);
#211=ORIENTED_EDGE('',*,*,#294,.F.);
#212=ORIENTED_EDGE('',*,*,#300,.T.);
#213=ORIENTED_EDGE('',*,*,#301,.F.);
#214=ORIENTED_EDGE('',*,*,#302,.T.);
#215=ORIENTED_EDGE('',*,*,#303,.T.);
#216=ORIENTED_EDGE('',*,*,#298,.F.);
#217=ORIENTED_EDGE('',*,*,#304,.T.);
#218=ORIENTED_EDGE('',*,*,#305,.T.);
#219=ORIENTED_EDGE('',*,*,#306,.T.);
#220=ORIENTED_EDGE('',*,*,#305,.F.);
#221=ORIENTED_EDGE('',*,*,#307,.T.);
#222=ORIENTED_EDGE('',*,*,#308,.T.);
#223=ORIENTED_EDGE('',*,*,#301,.T.);
#224=ORIENTED_EDGE('',*,*,#309,.T.);
#225=ORIENTED_EDGE('',*,*,#308,.F.);
#226=ORIENTED_EDGE('',*,*,#310,.T.);
#227=ORIENTED_EDGE('',*,*,#296,.T.);
#228=ORIENTED_EDGE('',*,*,#311,.T.);
#229=ORIENTED_EDGE('',*,*,#302,.F.);
#230=ORIENTED_EDGE('',*,*,#307,.F.);
#231=ORIENTED_EDGE('',*,*,#304,.F.);
#232=ORIENTED_EDGE('',*,*,#297,.F.);
#233=ORIENTED_EDGE('',*,*,#310,.F.);
#234=ORIENTED_EDGE('',*,*,#295,.F.);
#235=ORIENTED_EDGE('',*,*,#290,.T.);
#236=ORIENTED_EDGE('',*,*,#303,.F.);
#237=ORIENTED_EDGE('',*,*,#311,.F.);
#238=ORIENTED_EDGE('',*,*,#292,.F.);
#239=ORIENTED_EDGE('',*,*,#299,.F.);
#240=ORIENTED_EDGE('',*,*,#306,.F.);
#241=ORIENTED_EDGE('',*,*,#312,.F.);
#242=ORIENTED_EDGE('',*,*,#293,.F.);
#243=ORIENTED_EDGE('',*,*,#312,.T.);
#244=ORIENTED_EDGE('',*,*,#309,.F.);
#245=ORIENTED_EDGE('',*,*,#300,.F.);
#246=EDGE_CURVE('',#313,#314,#360,.T.);
#247=EDGE_CURVE('',#315,#313,#28,.T.);
#248=EDGE_CURVE('',#315,#316,#361,.T.);
#249=EDGE_CURVE('',#316,#314,#29,.T.);
#250=EDGE_CURVE('',#313,#317,#30,.T.);
#251=EDGE_CURVE('',#318,#317,#31,.T.);
#252=EDGE_CURVE('',#315,#318,#32,.T.);
#253=EDGE_CURVE('',#317,#319,#362,.T.);
#254=EDGE_CURVE('',#320,#319,#33,.T.);
#255=EDGE_CURVE('',#318,#320,#363,.T.);
#256=EDGE_CURVE('',#319,#321,#34,.T.);
#257=EDGE_CURVE('',#322,#321,#35,.T.);
#258=EDGE_CURVE('',#320,#322,#36,.T.);
#259=EDGE_CURVE('',#321,#323,#37,.T.);
#260=EDGE_CURVE('',#324,#323,#38,.T.);
#261=EDGE_CURVE('',#322,#324,#39,.T.);
#262=EDGE_CURVE('',#325,#323,#40,.T.);
#263=EDGE_CURVE('',#326,#325,#41,.T.);
#264=EDGE_CURVE('',#326,#324,#42,.T.);
#265=EDGE_CURVE('',#325,#327,#364,.T.);
#266=EDGE_CURVE('',#328,#327,#43,.T.);
#267=EDGE_CURVE('',#326,#328,#365,.T.);
#268=EDGE_CURVE('',#329,#327,#44,.T.);
#269=EDGE_CURVE('',#330,#329,#45,.T.);
#270=EDGE_CURVE('',#330,#328,#46,.T.);
#271=EDGE_CURVE('',#331,#329,#366,.T.);
#272=EDGE_CURVE('',#332,#331,#47,.T.);
#273=EDGE_CURVE('',#332,#330,#367,.T.);
#274=EDGE_CURVE('',#331,#333,#48,.T.);
#275=EDGE_CURVE('',#334,#333,#49,.T.);
#276=EDGE_CURVE('',#332,#334,#50,.T.);
#277=EDGE_CURVE('',#335,#333,#368,.T.);
#278=EDGE_CURVE('',#336,#335,#51,.T.);
#279=EDGE_CURVE('',#336,#334,#369,.T.);
#280=EDGE_CURVE('',#337,#337,#370,.T.);
#281=EDGE_CURVE('',#338,#338,#371,.T.);
#282=EDGE_CURVE('',#339,#339,#372,.T.);
#283=EDGE_CURVE('',#340,#340,#373,.T.);
#284=EDGE_CURVE('',#341,#341,#374,.T.);
#285=EDGE_CURVE('',#342,#342,#375,.T.);
#286=EDGE_CURVE('',#314,#335,#52,.T.);
#287=EDGE_CURVE('',#316,#336,#53,.T.);
#288=EDGE_CURVE('',#343,#343,#376,.T.);
#289=EDGE_CURVE('',#344,#344,#377,.T.);
#290=EDGE_CURVE('',#345,#346,#378,.T.);
#291=EDGE_CURVE('',#345,#347,#54,.T.);
#292=EDGE_CURVE('',#347,#348,#55,.F.);
#293=EDGE_CURVE('',#348,#349,#56,.F.);
#294=EDGE_CURVE('',#349,#346,#57,.T.);
#295=EDGE_CURVE('',#345,#350,#58,.F.);
#296=EDGE_CURVE('',#351,#350,#59,.T.);
#297=EDGE_CURVE('',#351,#352,#379,.F.);
#298=EDGE_CURVE('',#352,#353,#60,.T.);
#299=EDGE_CURVE('',#353,#347,#380,.T.);
#300=EDGE_CURVE('',#349,#354,#381,.T.);
#301=EDGE_CURVE('',#355,#354,#61,.T.);
#302=EDGE_CURVE('',#355,#356,#62,.T.);
#303=EDGE_CURVE('',#356,#346,#63,.T.);
#304=EDGE_CURVE('',#352,#357,#64,.F.);
#305=EDGE_CURVE('',#357,#358,#65,.T.);
#306=EDGE_CURVE('',#358,#353,#66,.F.);
#307=EDGE_CURVE('',#357,#359,#382,.F.);
#308=EDGE_CURVE('',#359,#355,#67,.T.);
#309=EDGE_CURVE('',#354,#358,#68,.T.);
#310=EDGE_CURVE('',#359,#351,#69,.T.);
#311=EDGE_CURVE('',#350,#356,#12,.F.);
#312=EDGE_CURVE('',#348,#358,#13,.T.);
#313=VERTEX_POINT('',#719);
#314=VERTEX_POINT('',#720);
#315=VERTEX_POINT('',#722);
#316=VERTEX_POINT('',#724);
#317=VERTEX_POINT('',#728);
#318=VERTEX_POINT('',#730);
#319=VERTEX_POINT('',#734);
#320=VERTEX_POINT('',#736);
#321=VERTEX_POINT('',#740);
#322=VERTEX_POINT('',#742);
#323=VERTEX_POINT('',#746);
#324=VERTEX_POINT('',#748);
#325=VERTEX_POINT('',#752);
#326=VERTEX_POINT('',#754);
#327=VERTEX_POINT('',#758);
#328=VERTEX_POINT('',#760);
#329=VERTEX_POINT('',#764);
#330=VERTEX_POINT('',#766);
#331=VERTEX_POINT('',#770);
#332=VERTEX_POINT('',#772);
#333=VERTEX_POINT('',#776);
#334=VERTEX_POINT('',#778);
#335=VERTEX_POINT('',#782);
#336=VERTEX_POINT('',#784);
#337=VERTEX_POINT('',#788);
#338=VERTEX_POINT('',#790);
#339=VERTEX_POINT('',#793);
#340=VERTEX_POINT('',#795);
#341=VERTEX_POINT('',#798);
#342=VERTEX_POINT('',#800);
#343=VERTEX_POINT('',#806);
#344=VERTEX_POINT('',#808);
#345=VERTEX_POINT('',#811);
#346=VERTEX_POINT('',#812);
#347=VERTEX_POINT('',#814);
#348=VERTEX_POINT('',#816);
#349=VERTEX_POINT('',#818);
#350=VERTEX_POINT('',#823);
#351=VERTEX_POINT('',#825);
#352=VERTEX_POINT('',#827);
#353=VERTEX_POINT('',#829);
#354=VERTEX_POINT('',#833);
#355=VERTEX_POINT('',#835);
#356=VERTEX_POINT('',#837);
#357=VERTEX_POINT('',#841);
#358=VERTEX_POINT('',#843);
#359=VERTEX_POINT('',#847);
#360=CIRCLE('',#517,0.01);
#361=CIRCLE('',#518,0.01);
#362=CIRCLE('',#521,0.0230000000000006);
#363=CIRCLE('',#522,0.0230000000000006);
#364=CIRCLE('',#527,0.0289006920332368);
#365=CIRCLE('',#528,0.0289006920332368);
#366=CIRCLE('',#531,0.01);
#367=CIRCLE('',#532,0.01);
#368=CIRCLE('',#535,0.0118409090909091);
#369=CIRCLE('',#536,0.0118409090909091);
#370=CIRCLE('',#538,0.0015);
#371=CIRCLE('',#539,0.0015);
#372=CIRCLE('',#541,0.0015);
#373=CIRCLE('',#542,0.0015);
#374=CIRCLE('',#544,0.0015);
#375=CIRCLE('',#545,0.0015);
#376=CIRCLE('',#548,0.0015);
#377=CIRCLE('',#549,0.0015);
#378=CIRCLE('',#551,0.001);
#379=CIRCLE('',#554,0.001);
#380=CIRCLE('',#555,0.001);
#381=CIRCLE('',#557,0.001);
#382=CIRCLE('',#560,0.001);
#383=EDGE_LOOP('',(#112,#113,#114,#115));
#384=EDGE_LOOP('',(#116,#117,#118,#119));
#385=EDGE_LOOP('',(#120,#121,#122,#123));
#386=EDGE_LOOP('',(#124,#125,#126,#127));
#387=EDGE_LOOP('',(#128,#129,#130,#131));
#388=EDGE_LOOP('',(#132,#133,#134,#135));
#389=EDGE_LOOP('',(#136,#137,#138,#139));
#390=EDGE_LOOP('',(#140,#141,#142,#143));
#391=EDGE_LOOP('',(#144,#145,#146,#147));
#392=EDGE_LOOP('',(#148,#149,#150,#151));
#393=EDGE_LOOP('',(#152,#153,#154,#155));
#394=EDGE_LOOP('',(#156));
#395=EDGE_LOOP('',(#157));
#396=EDGE_LOOP('',(#158));
#397=EDGE_LOOP('',(#159));
#398=EDGE_LOOP('',(#160));
#399=EDGE_LOOP('',(#161));
#400=EDGE_LOOP('',(#162,#163,#164,#165));
#401=EDGE_LOOP('',(#166));
#402=EDGE_LOOP('',(#167));
#403=EDGE_LOOP('',(#168,#169,#170,#171,#172));
#404=EDGE_LOOP('',(#173,#174,#175,#176,#177,#178,#179,#180,#181,#182,#183,
#184));
#405=EDGE_LOOP('',(#185));
#406=EDGE_LOOP('',(#186));
#407=EDGE_LOOP('',(#187));
#408=EDGE_LOOP('',(#188));
#409=EDGE_LOOP('',(#189));
#410=EDGE_LOOP('',(#190));
#411=EDGE_LOOP('',(#191));
#412=EDGE_LOOP('',(#192));
#413=EDGE_LOOP('',(#193,#194,#195,#196,#197,#198,#199,#200,#201,#202,#203,
#204));
#414=EDGE_LOOP('',(#205,#206,#207,#208,#209,#210));
#415=EDGE_LOOP('',(#211,#212,#213,#214,#215));
#416=EDGE_LOOP('',(#216,#217,#218,#219));
#417=EDGE_LOOP('',(#220,#221,#222,#223,#224));
#418=EDGE_LOOP('',(#225,#226,#227,#228,#229));
#419=EDGE_LOOP('',(#230,#231,#232,#233));
#420=EDGE_LOOP('',(#234,#235,#236,#237));
#421=EDGE_LOOP('',(#238,#239,#240,#241));
#422=EDGE_LOOP('',(#242,#243,#244,#245));
#423=FACE_BOUND('',#383,.T.);
#424=FACE_BOUND('',#384,.T.);
#425=FACE_BOUND('',#385,.T.);
#426=FACE_BOUND('',#386,.T.);
#427=FACE_BOUND('',#387,.T.);
#428=FACE_BOUND('',#388,.T.);
#429=FACE_BOUND('',#389,.T.);
#430=FACE_BOUND('',#390,.T.);
#431=FACE_BOUND('',#391,.T.);
#432=FACE_BOUND('',#392,.T.);
#433=FACE_BOUND('',#393,.T.);
#434=FACE_BOUND('',#394,.T.);
#435=FACE_BOUND('',#395,.T.);
#436=FACE_BOUND('',#396,.T.);
#437=FACE_BOUND('',#397,.T.);
#438=FACE_BOUND('',#398,.T.);
#439=FACE_BOUND('',#399,.T.);
#440=FACE_BOUND('',#400,.T.);
#441=FACE_BOUND('',#401,.T.);
#442=FACE_BOUND('',#402,.T.);
#443=FACE_BOUND('',#403,.T.);
#444=FACE_BOUND('',#404,.T.);
#445=FACE_BOUND('',#405,.T.);
#446=FACE_BOUND('',#406,.T.);
#447=FACE_BOUND('',#407,.T.);
#448=FACE_BOUND('',#408,.T.);
#449=FACE_BOUND('',#409,.T.);
#450=FACE_BOUND('',#410,.T.);
#451=FACE_BOUND('',#411,.T.);
#452=FACE_BOUND('',#412,.T.);
#453=FACE_BOUND('',#413,.T.);
#454=FACE_BOUND('',#414,.T.);
#455=FACE_BOUND('',#415,.T.);
#456=FACE_BOUND('',#416,.T.);
#457=FACE_BOUND('',#417,.T.);
#458=FACE_BOUND('',#418,.T.);
#459=FACE_BOUND('',#419,.T.);
#460=FACE_BOUND('',#420,.T.);
#461=FACE_BOUND('',#421,.T.);
#462=FACE_BOUND('',#422,.T.);
#463=CYLINDRICAL_SURFACE('',#516,0.01);
#464=CYLINDRICAL_SURFACE('',#520,0.0230000000000006);
#465=CYLINDRICAL_SURFACE('',#526,0.0289006920332368);
#466=CYLINDRICAL_SURFACE('',#530,0.01);
#467=CYLINDRICAL_SURFACE('',#534,0.0118409090909091);
#468=CYLINDRICAL_SURFACE('',#537,0.0015);
#469=CYLINDRICAL_SURFACE('',#540,0.0015);
#470=CYLINDRICAL_SURFACE('',#543,0.0015);
#471=CYLINDRICAL_SURFACE('',#547,0.0015);
#472=CYLINDRICAL_SURFACE('',#563,0.001);
#473=CYLINDRICAL_SURFACE('',#564,0.001);
#474=CYLINDRICAL_SURFACE('',#565,0.001);
#475=CYLINDRICAL_SURFACE('',#567,0.001);
#476=ADVANCED_FACE('',(#423),#463,.F.);
#477=ADVANCED_FACE('',(#424),#14,.F.);
#478=ADVANCED_FACE('',(#425),#464,.T.);
#479=ADVANCED_FACE('',(#426),#15,.F.);
#480=ADVANCED_FACE('',(#427),#16,.F.);
#481=ADVANCED_FACE('',(#428),#17,.T.);
#482=ADVANCED_FACE('',(#429),#465,.T.);
#483=ADVANCED_FACE('',(#430),#18,.T.);
#484=ADVANCED_FACE('',(#431),#466,.F.);
#485=ADVANCED_FACE('',(#432),#19,.F.);
#486=ADVANCED_FACE('',(#433),#467,.F.);
#487=ADVANCED_FACE('',(#434,#435),#468,.F.);
#488=ADVANCED_FACE('',(#436,#437),#469,.F.);
#489=ADVANCED_FACE('',(#438,#439),#470,.F.);
#490=ADVANCED_FACE('',(#440),#20,.T.);
#491=ADVANCED_FACE('',(#441,#442),#471,.F.);
#492=ADVANCED_FACE('',(#443,#444,#445,#446,#447,#448),#21,.T.);
#493=ADVANCED_FACE('',(#449,#450,#451,#452,#453),#22,.F.);
#494=ADVANCED_FACE('',(#454),#23,.F.);
#495=ADVANCED_FACE('',(#455),#24,.F.);
#496=ADVANCED_FACE('',(#456),#25,.T.);
#497=ADVANCED_FACE('',(#457),#26,.F.);
#498=ADVANCED_FACE('',(#458),#27,.F.);
#499=ADVANCED_FACE('',(#459),#472,.T.);
#500=ADVANCED_FACE('',(#460),#473,.T.);
#501=ADVANCED_FACE('',(#461),#474,.F.);
#502=ADVANCED_FACE('',(#462),#475,.F.);
#503=CLOSED_SHELL('',(#476,#477,#478,#479,#480,#481,#482,#483,#484,#485,
#486,#487,#488,#489,#490,#491,#492,#493,#494,#495,#496,#497,#498,#499,#500,
#501,#502));
#504=STYLED_ITEM('',(#505),#512);
#505=PRESENTATION_STYLE_ASSIGNMENT((#506));
#506=SURFACE_STYLE_USAGE(.BOTH.,#507);
#507=SURFACE_SIDE_STYLE('',(#508));
#508=SURFACE_STYLE_FILL_AREA(#509);
#509=FILL_AREA_STYLE('',(#510));
#510=FILL_AREA_STYLE_COLOUR('',#511);
#511=COLOUR_RGB('',0.615686274509804,0.811764705882353,0.929411764705882);
#512=MANIFOLD_SOLID_BREP('rest_pose_holder_base',#503);
#513=SHAPE_DEFINITION_REPRESENTATION(#864,#514);
#514=SHAPE_REPRESENTATION('rest_pose_holder_base',(#515),#859);
#515=AXIS2_PLACEMENT_3D('',#716,#568,#569);
#516=AXIS2_PLACEMENT_3D('',#717,#570,#571);
#517=AXIS2_PLACEMENT_3D('',#718,#572,#573);
#518=AXIS2_PLACEMENT_3D('',#723,#575,#576);
#519=AXIS2_PLACEMENT_3D('',#726,#578,#579);
#520=AXIS2_PLACEMENT_3D('',#732,#583,#584);
#521=AXIS2_PLACEMENT_3D('',#733,#585,#586);
#522=AXIS2_PLACEMENT_3D('',#737,#588,#589);
#523=AXIS2_PLACEMENT_3D('',#738,#590,#591);
#524=AXIS2_PLACEMENT_3D('',#744,#595,#596);
#525=AXIS2_PLACEMENT_3D('',#750,#600,#601);
#526=AXIS2_PLACEMENT_3D('',#756,#605,#606);
#527=AXIS2_PLACEMENT_3D('',#757,#607,#608);
#528=AXIS2_PLACEMENT_3D('',#761,#610,#611);
#529=AXIS2_PLACEMENT_3D('',#762,#612,#613);
#530=AXIS2_PLACEMENT_3D('',#768,#617,#618);
#531=AXIS2_PLACEMENT_3D('',#769,#619,#620);
#532=AXIS2_PLACEMENT_3D('',#773,#622,#623);
#533=AXIS2_PLACEMENT_3D('',#774,#624,#625);
#534=AXIS2_PLACEMENT_3D('',#780,#629,#630);
#535=AXIS2_PLACEMENT_3D('',#781,#631,#632);
#536=AXIS2_PLACEMENT_3D('',#785,#634,#635);
#537=AXIS2_PLACEMENT_3D('',#786,#636,#637);
#538=AXIS2_PLACEMENT_3D('',#787,#638,#639);
#539=AXIS2_PLACEMENT_3D('',#789,#640,#641);
#540=AXIS2_PLACEMENT_3D('',#791,#642,#643);
#541=AXIS2_PLACEMENT_3D('',#792,#644,#645);
#542=AXIS2_PLACEMENT_3D('',#794,#646,#647);
#543=AXIS2_PLACEMENT_3D('',#796,#648,#649);
#544=AXIS2_PLACEMENT_3D('',#797,#650,#651);
#545=AXIS2_PLACEMENT_3D('',#799,#652,#653);
#546=AXIS2_PLACEMENT_3D('',#801,#654,#655);
#547=AXIS2_PLACEMENT_3D('',#804,#658,#659);
#548=AXIS2_PLACEMENT_3D('',#805,#660,#661);
#549=AXIS2_PLACEMENT_3D('',#807,#662,#663);
#550=AXIS2_PLACEMENT_3D('',#809,#664,#665);
#551=AXIS2_PLACEMENT_3D('',#810,#666,#667);
#552=AXIS2_PLACEMENT_3D('',#820,#672,#673);
#553=AXIS2_PLACEMENT_3D('',#821,#674,#675);
#554=AXIS2_PLACEMENT_3D('',#826,#678,#679);
#555=AXIS2_PLACEMENT_3D('',#830,#681,#682);
#556=AXIS2_PLACEMENT_3D('',#831,#683,#684);
#557=AXIS2_PLACEMENT_3D('',#832,#685,#686);
#558=AXIS2_PLACEMENT_3D('',#839,#690,#691);
#559=AXIS2_PLACEMENT_3D('',#845,#695,#696);
#560=AXIS2_PLACEMENT_3D('',#846,#697,#698);
#561=AXIS2_PLACEMENT_3D('',#850,#701,#702);
#562=AXIS2_PLACEMENT_3D('',#852,#704,#705);
#563=AXIS2_PLACEMENT_3D('',#853,#706,#707);
#564=AXIS2_PLACEMENT_3D('',#854,#708,#709);
#565=AXIS2_PLACEMENT_3D('',#855,#710,#711);
#566=AXIS2_PLACEMENT_3D('',#856,#712,#713);
#567=AXIS2_PLACEMENT_3D('',#857,#714,#715);
#568=DIRECTION('',(0.,0.,1.));
#569=DIRECTION('',(1.,0.,0.));
#570=DIRECTION('',(0.,0.,-1.));
#571=DIRECTION('',(-1.,0.,0.));
#572=DIRECTION('',(0.,0.,1.));
#573=DIRECTION('',(1.,0.,0.));
#574=DIRECTION('',(0.,0.,-1.));
#575=DIRECTION('',(0.,0.,1.));
#576=DIRECTION('',(1.,0.,0.));
#577=DIRECTION('',(0.,0.,-1.));
#578=DIRECTION('',(1.,0.,0.));
#579=DIRECTION('',(0.,0.,-1.));
#580=DIRECTION('',(0.,-1.,0.));
#581=DIRECTION('',(0.,0.,-1.));
#582=DIRECTION('',(0.,-1.,0.));
#583=DIRECTION('',(0.,0.,-1.));
#584=DIRECTION('',(-1.,0.,0.));
#585=DIRECTION('',(0.,0.,1.));
#586=DIRECTION('',(1.,0.,0.));
#587=DIRECTION('',(0.,0.,-1.));
#588=DIRECTION('',(0.,0.,1.));
#589=DIRECTION('',(1.,0.,0.));
#590=DIRECTION('',(0.,1.,0.));
#591=DIRECTION('',(0.,0.,1.));
#592=DIRECTION('',(1.,0.,0.));
#593=DIRECTION('',(0.,0.,-1.));
#594=DIRECTION('',(1.,0.,0.));
#595=DIRECTION('',(-1.,0.,0.));
#596=DIRECTION('',(0.,0.,1.));
#597=DIRECTION('',(0.,1.,0.));
#598=DIRECTION('',(0.,0.,-1.));
#599=DIRECTION('',(0.,1.,0.));
#600=DIRECTION('',(0.,1.,0.));
#601=DIRECTION('',(0.,0.,1.));
#602=DIRECTION('',(1.,0.,0.));
#603=DIRECTION('',(0.,0.,-1.));
#604=DIRECTION('',(1.,0.,0.));
#605=DIRECTION('',(0.,0.,-1.));
#606=DIRECTION('',(-1.,0.,0.));
#607=DIRECTION('',(0.,0.,1.));
#608=DIRECTION('',(1.,0.,0.));
#609=DIRECTION('',(0.,0.,-1.));
#610=DIRECTION('',(0.,0.,1.));
#611=DIRECTION('',(1.,0.,0.));
#612=DIRECTION('',(-1.,0.,0.));
#613=DIRECTION('',(0.,0.,1.));
#614=DIRECTION('',(0.,1.,0.));
#615=DIRECTION('',(0.,0.,-1.));
#616=DIRECTION('',(0.,1.,0.));
#617=DIRECTION('',(0.,0.,-1.));
#618=DIRECTION('',(-1.,0.,0.));
#619=DIRECTION('',(0.,0.,1.));
#620=DIRECTION('',(1.,0.,0.));
#621=DIRECTION('',(0.,0.,-1.));
#622=DIRECTION('',(0.,0.,1.));
#623=DIRECTION('',(1.,0.,0.));
#624=DIRECTION('',(0.,1.,0.));
#625=DIRECTION('',(0.,0.,1.));
#626=DIRECTION('',(1.,0.,0.));
#627=DIRECTION('',(0.,0.,-1.));
#628=DIRECTION('',(1.,0.,0.));
#629=DIRECTION('',(0.,0.,-1.));
#630=DIRECTION('',(-1.,0.,0.));
#631=DIRECTION('',(0.,0.,1.));
#632=DIRECTION('',(1.,0.,0.));
#633=DIRECTION('',(0.,0.,-1.));
#634=DIRECTION('',(0.,0.,1.));
#635=DIRECTION('',(1.,0.,0.));
#636=DIRECTION('',(0.,0.,-1.));
#637=DIRECTION('',(-1.,0.,0.));
#638=DIRECTION('',(0.,0.,1.));
#639=DIRECTION('',(1.,0.,0.));
#640=DIRECTION('',(0.,0.,1.));
#641=DIRECTION('',(1.,0.,0.));
#642=DIRECTION('',(0.,0.,-1.));
#643=DIRECTION('',(-1.,0.,0.));
#644=DIRECTION('',(0.,0.,1.));
#645=DIRECTION('',(1.,0.,0.));
#646=DIRECTION('',(0.,0.,1.));
#647=DIRECTION('',(1.,0.,0.));
#648=DIRECTION('',(0.,0.,-1.));
#649=DIRECTION('',(-1.,0.,0.));
#650=DIRECTION('',(0.,0.,1.));
#651=DIRECTION('',(1.,0.,0.));
#652=DIRECTION('',(0.,0.,1.));
#653=DIRECTION('',(1.,0.,0.));
#654=DIRECTION('',(3.46944695195362E-16,1.,0.));
#655=DIRECTION('',(-1.,3.46944695195362E-16,0.));
#656=DIRECTION('',(1.,-3.46944695195362E-16,0.));
#657=DIRECTION('',(1.,-3.46944695195362E-16,0.));
#658=DIRECTION('',(0.,0.,-1.));
#659=DIRECTION('',(-1.,0.,0.));
#660=DIRECTION('',(0.,0.,1.));
#661=DIRECTION('',(1.,0.,0.));
#662=DIRECTION('',(0.,0.,1.));
#663=DIRECTION('',(1.,0.,0.));
#664=DIRECTION('',(0.,0.,1.));
#665=DIRECTION('',(1.,0.,0.));
#666=DIRECTION('',(0.,0.,1.));
#667=DIRECTION('',(1.,0.,0.));
#668=DIRECTION('',(0.,-1.,0.));
#669=DIRECTION('',(1.,0.,0.));
#670=DIRECTION('',(0.,-1.,0.));
#671=DIRECTION('',(1.,0.,0.));
#672=DIRECTION('',(0.,0.,1.));
#673=DIRECTION('',(1.,0.,0.));
#674=DIRECTION('',(-1.,0.,0.));
#675=DIRECTION('',(0.,0.,1.));
#676=DIRECTION('',(0.,0.,-1.));
#677=DIRECTION('',(0.,0.984795453368224,-0.173717917974154));
#678=DIRECTION('',(-1.,0.,0.));
#679=DIRECTION('',(0.,0.,1.));
#680=DIRECTION('',(0.,0.,-1.));
#681=DIRECTION('',(-1.,0.,0.));
#682=DIRECTION('',(0.,0.,1.));
#683=DIRECTION('',(0.,-1.,0.));
#684=DIRECTION('',(0.,0.,-1.));
#685=DIRECTION('',(0.,-1.,0.));
#686=DIRECTION('',(0.,0.,-1.));
#687=DIRECTION('',(0.,0.,-1.));
#688=DIRECTION('',(1.,0.,0.));
#689=DIRECTION('',(0.,0.,-1.));
#690=DIRECTION('',(0.,-1.,0.));
#691=DIRECTION('',(0.,0.,-1.));
#692=DIRECTION('',(1.,0.,0.));
#693=DIRECTION('',(0.,0.,-1.));
#694=DIRECTION('',(-1.,0.,0.));
#695=DIRECTION('',(1.,0.,0.));
#696=DIRECTION('',(0.,0.,-1.));
#697=DIRECTION('',(1.,0.,0.));
#698=DIRECTION('',(0.,0.,-1.));
#699=DIRECTION('',(0.,0.984795453368224,-0.173717917974154));
#700=DIRECTION('',(0.,-1.,0.));
#701=DIRECTION('',(0.,-0.173717917974154,-0.984795453368224));
#702=DIRECTION('',(0.,0.984795453368224,-0.173717917974154));
#703=DIRECTION('',(1.,0.,0.));
#704=DIRECTION('',(0.,-0.173717917974154,-0.984795453368224));
#705=DIRECTION('',(0.,0.984795453368224,-0.173717917974154));
#706=DIRECTION('',(-1.,0.,0.));
#707=DIRECTION('',(0.,0.,1.));
#708=DIRECTION('',(0.,0.,-1.));
#709=DIRECTION('',(-1.,0.,0.));
#710=DIRECTION('',(1.,0.,0.));
#711=DIRECTION('',(0.,0.,-1.));
#712=DIRECTION('',(0.707106781186548,-0.707106781186548,0.));
#713=DIRECTION('',(0.707106781186548,0.707106781186548,0.));
#714=DIRECTION('',(0.,-1.,0.));
#715=DIRECTION('',(0.,0.,-1.));
#716=CARTESIAN_POINT('',(0.,0.,0.));
#717=CARTESIAN_POINT('',(2.16840434497101E-18,2.08166817117217E-17,0.0105));
#718=CARTESIAN_POINT('',(2.16840434497101E-18,2.08166817117217E-17,0.005));
#719=CARTESIAN_POINT('',(-0.0035,-0.0093674969975976,0.005));
#720=CARTESIAN_POINT('',(-8.67361737988404E-19,-0.01,0.005));
#721=CARTESIAN_POINT('',(-0.0035,-0.0093674969975976,0.0105));
#722=CARTESIAN_POINT('',(-0.0035,-0.0093674969975976,0.0105));
#723=CARTESIAN_POINT('',(2.16840434497101E-18,2.08166817117217E-17,0.0105));
#724=CARTESIAN_POINT('',(-8.67361737988404E-19,-0.01,0.0105));
#725=CARTESIAN_POINT('',(-8.67361737988404E-19,-0.01,0.0105));
#726=CARTESIAN_POINT('',(-0.0035,-0.0212117522554269,0.0105));
#727=CARTESIAN_POINT('',(-0.0035,-0.0212117522554269,0.005));
#728=CARTESIAN_POINT('',(-0.0035,-0.0227321358433386,0.005));
#729=CARTESIAN_POINT('',(-0.0035,-0.0227321358433386,0.0105));
#730=CARTESIAN_POINT('',(-0.0035,-0.0227321358433386,0.0105));
#731=CARTESIAN_POINT('',(-0.0035,-0.0212117522554269,0.0105));
#732=CARTESIAN_POINT('',(6.07153216591874E-18,6.07153216591883E-16,0.0105));
#733=CARTESIAN_POINT('',(6.07153216591874E-18,6.07153216591883E-16,0.005));
#734=CARTESIAN_POINT('',(6.07153216591882E-18,-0.023,0.005));
#735=CARTESIAN_POINT('',(6.07153216591882E-18,-0.023,0.0105));
#736=CARTESIAN_POINT('',(6.07153216591882E-18,-0.023,0.0105));
#737=CARTESIAN_POINT('',(6.07153216591874E-18,6.07153216591883E-16,0.0105));
#738=CARTESIAN_POINT('',(0.01325,-0.023,0.0105));
#739=CARTESIAN_POINT('',(0.01325,-0.023,0.005));
#740=CARTESIAN_POINT('',(0.0365,-0.023,0.005));
#741=CARTESIAN_POINT('',(0.0365,-0.023,0.0105));
#742=CARTESIAN_POINT('',(0.0365,-0.023,0.0105));
#743=CARTESIAN_POINT('',(0.01325,-0.023,0.0105));
#744=CARTESIAN_POINT('',(0.0365,-0.0215,0.0105));
#745=CARTESIAN_POINT('',(0.0365,-0.0215,0.005));
#746=CARTESIAN_POINT('',(0.0365,0.,0.005));
#747=CARTESIAN_POINT('',(0.0365,0.,0.0105));
#748=CARTESIAN_POINT('',(0.0365,0.,0.0105));
#749=CARTESIAN_POINT('',(0.0365,-0.0215,0.0105));
#750=CARTESIAN_POINT('',(0.0327003460166184,1.7347234759768E-18,0.0105));
#751=CARTESIAN_POINT('',(0.0327003460166184,1.7347234759768E-18,0.005));
#752=CARTESIAN_POINT('',(0.0289006920332368,1.7347234759768E-18,0.005));
#753=CARTESIAN_POINT('',(0.0289006920332368,1.7347234759768E-18,0.0105));
#754=CARTESIAN_POINT('',(0.0289006920332368,1.7347234759768E-18,0.0105));
#755=CARTESIAN_POINT('',(0.0327003460166184,1.7347234759768E-18,0.0105));
#756=CARTESIAN_POINT('',(2.81892564846231E-18,2.60208521396521E-18,0.0105));
#757=CARTESIAN_POINT('',(2.81892564846231E-18,2.60208521396521E-18,0.005));
#758=CARTESIAN_POINT('',(-0.0035,0.0286879765755621,0.005));
#759=CARTESIAN_POINT('',(-0.0035,0.0286879765755621,0.0105));
#760=CARTESIAN_POINT('',(-0.0035,0.0286879765755621,0.0105));
#761=CARTESIAN_POINT('',(2.81892564846231E-18,2.60208521396521E-18,0.0105));
#762=CARTESIAN_POINT('',(-0.0035,0.0212117522554269,0.0105));
#763=CARTESIAN_POINT('',(-0.0035,0.0212117522554269,0.005));
#764=CARTESIAN_POINT('',(-0.0035,0.0093674969975976,0.005));
#765=CARTESIAN_POINT('',(-0.0035,0.0093674969975976,0.0105));
#766=CARTESIAN_POINT('',(-0.0035,0.0093674969975976,0.0105));
#767=CARTESIAN_POINT('',(-0.0035,0.0212117522554269,0.0105));
#768=CARTESIAN_POINT('',(3.03576608295941E-18,-2.60208521396521E-17,0.0105));
#769=CARTESIAN_POINT('',(3.03576608295941E-18,-2.60208521396521E-17,0.005));
#770=CARTESIAN_POINT('',(8.67361737988404E-19,0.01,0.005));
#771=CARTESIAN_POINT('',(8.67361737988404E-19,0.01,0.0105));
#772=CARTESIAN_POINT('',(8.67361737988404E-19,0.01,0.0105));
#773=CARTESIAN_POINT('',(3.03576608295941E-18,-2.60208521396521E-17,0.0105));
#774=CARTESIAN_POINT('',(0.005,0.01,0.0105));
#775=CARTESIAN_POINT('',(0.005,0.01,0.005));
#776=CARTESIAN_POINT('',(0.01,0.01,0.005));
#777=CARTESIAN_POINT('',(0.01,0.01,0.0105));
#778=CARTESIAN_POINT('',(0.01,0.01,0.0105));
#779=CARTESIAN_POINT('',(0.005,0.01,0.0105));
#780=CARTESIAN_POINT('',(0.00365909090909091,-1.3010426069826E-18,0.0105));
#781=CARTESIAN_POINT('',(0.00365909090909091,-1.3010426069826E-18,0.005));
#782=CARTESIAN_POINT('',(0.01,-0.01,0.005));
#783=CARTESIAN_POINT('',(0.01,-0.01,0.0105));
#784=CARTESIAN_POINT('',(0.01,-0.01,0.0105));
#785=CARTESIAN_POINT('',(0.00365909090909091,-1.3010426069826E-18,0.0105));
#786=CARTESIAN_POINT('',(0.,-0.015,0.0105));
#787=CARTESIAN_POINT('',(0.,-0.015,0.0105));
#788=CARTESIAN_POINT('',(0.0015,-0.015,0.0105));
#789=CARTESIAN_POINT('',(0.,-0.015,0.005));
#790=CARTESIAN_POINT('',(0.0015,-0.015,0.005));
#791=CARTESIAN_POINT('',(0.0315,-0.005,0.0105));
#792=CARTESIAN_POINT('',(0.0315,-0.005,0.0105));
#793=CARTESIAN_POINT('',(0.033,-0.005,0.0105));
#794=CARTESIAN_POINT('',(0.0315,-0.005,0.005));
#795=CARTESIAN_POINT('',(0.033,-0.005,0.005));
#796=CARTESIAN_POINT('',(0.0315,-0.018,0.0105));
#797=CARTESIAN_POINT('',(0.0315,-0.018,0.0105));
#798=CARTESIAN_POINT('',(0.033,-0.018,0.0105));
#799=CARTESIAN_POINT('',(0.0315,-0.018,0.005));
#800=CARTESIAN_POINT('',(0.033,-0.018,0.005));
#801=CARTESIAN_POINT('',(0.005,-0.01,0.0105));
#802=CARTESIAN_POINT('',(0.005,-0.01,0.005));
#803=CARTESIAN_POINT('',(0.005,-0.01,0.0105));
#804=CARTESIAN_POINT('',(3.41832359058151E-19,0.015,0.0105));
#805=CARTESIAN_POINT('',(3.41832359058151E-19,0.015,0.0105));
#806=CARTESIAN_POINT('',(0.0015,0.015,0.0105));
#807=CARTESIAN_POINT('',(3.41832359058151E-19,0.015,0.005));
#808=CARTESIAN_POINT('',(0.0015,0.015,0.005));
#809=CARTESIAN_POINT('',(0.00825,0.00295034601661842,0.0105));
#810=CARTESIAN_POINT('',(0.0135,0.024,0.0105));
#811=CARTESIAN_POINT('',(0.0145,0.024,0.0105));
#812=CARTESIAN_POINT('',(0.0135,0.025,0.0105));
#813=CARTESIAN_POINT('',(0.0145,0.00295034601661842,0.0105));
#814=CARTESIAN_POINT('',(0.0145,0.0198660254037844,0.0105));
#815=CARTESIAN_POINT('',(0.,0.0198660254037844,0.0105));
#816=CARTESIAN_POINT('',(0.00936602540378444,0.0198660254037844,0.0105));
#817=CARTESIAN_POINT('',(0.00936602540378444,0.0225,0.0105));
#818=CARTESIAN_POINT('',(0.00936602540378444,0.025,0.0105));
#819=CARTESIAN_POINT('',(0.00825,0.025,0.0105));
#820=CARTESIAN_POINT('',(0.00825,0.00295034601661842,0.005));
#821=CARTESIAN_POINT('',(0.0145,0.01325,0.01));
#822=CARTESIAN_POINT('',(0.0145,0.024,0.01));
#823=CARTESIAN_POINT('',(0.0145,0.024,0.0138944));
#824=CARTESIAN_POINT('',(0.0145,0.0225,0.014159));
#825=CARTESIAN_POINT('',(0.0145,0.0211737179179741,0.0143929561592694));
#826=CARTESIAN_POINT('',(0.0145,0.021,0.0134081607059011));
#827=CARTESIAN_POINT('',(0.0145,0.02,0.0134081607059011));
#828=CARTESIAN_POINT('',(0.0145,0.02,0.0175));
#829=CARTESIAN_POINT('',(0.0145,0.02,0.011));
#830=CARTESIAN_POINT('',(0.0145,0.019,0.011));
#831=CARTESIAN_POINT('',(0.00965232894270486,0.025,0.01));
#832=CARTESIAN_POINT('',(0.0085,0.025,0.011));
#833=CARTESIAN_POINT('',(0.0095,0.025,0.011));
#834=CARTESIAN_POINT('',(0.0095,0.025,0.0175));
#835=CARTESIAN_POINT('',(0.0095,0.025,0.013718));
#836=CARTESIAN_POINT('',(0.0095,0.025,0.013718));
#837=CARTESIAN_POINT('',(0.0135,0.025,0.013718));
#838=CARTESIAN_POINT('',(0.0135,0.025,0.01));
#839=CARTESIAN_POINT('',(0.012,0.02,0.0175));
#840=CARTESIAN_POINT('',(0.0095,0.02,0.0134081607059011));
#841=CARTESIAN_POINT('',(0.0095,0.02,0.0134081607059011));
#842=CARTESIAN_POINT('',(0.0095,0.02,0.0175));
#843=CARTESIAN_POINT('',(0.0095,0.02,0.011));
#844=CARTESIAN_POINT('',(0.0145,0.02,0.011));
#845=CARTESIAN_POINT('',(0.0095,0.0225,0.0175));
#846=CARTESIAN_POINT('',(0.0095,0.021,0.0134081607059011));
#847=CARTESIAN_POINT('',(0.0095,0.0211737179179741,0.0143929561592694));
#848=CARTESIAN_POINT('',(0.0095,0.0225,0.014159));
#849=CARTESIAN_POINT('',(0.0095,0.0225,0.011));
#850=CARTESIAN_POINT('',(0.0095,0.0225,0.014159));
#851=CARTESIAN_POINT('',(0.0145,0.0211737179179741,0.0143929561592694));
#852=CARTESIAN_POINT('',(0.0135,0.024,0.0138944));
#853=CARTESIAN_POINT('',(0.0095,0.021,0.0134081607059011));
#854=CARTESIAN_POINT('',(0.0135,0.024,0.01));
#855=CARTESIAN_POINT('',(0.,0.019,0.011));
#856=CARTESIAN_POINT('',(0.0085,0.019,0.011));
#857=CARTESIAN_POINT('',(0.0085,0.0225,0.011));
#858=MECHANICAL_DESIGN_GEOMETRIC_PRESENTATION_REPRESENTATION('',(#504),
#859);
#859=(
GEOMETRIC_REPRESENTATION_CONTEXT(3)
GLOBAL_UNCERTAINTY_ASSIGNED_CONTEXT((#860))
GLOBAL_UNIT_ASSIGNED_CONTEXT((#863,#862,#861))
REPRESENTATION_CONTEXT('rest_pose_holder_base',
'TOP_LEVEL_ASSEMBLY_PART')
);
#860=UNCERTAINTY_MEASURE_WITH_UNIT(LENGTH_MEASURE(1.E-8),#863,
'DISTANCE_ACCURACY_VALUE','Maximum Tolerance applied to model');
#861=(
NAMED_UNIT(*)
SI_UNIT($,.STERADIAN.)
SOLID_ANGLE_UNIT()
);
#862=(
NAMED_UNIT(*)
PLANE_ANGLE_UNIT()
SI_UNIT($,.RADIAN.)
);
#863=(
LENGTH_UNIT()
NAMED_UNIT(*)
SI_UNIT($,.METRE.)
);
#864=PRODUCT_DEFINITION_SHAPE('','',#865);
#865=PRODUCT_DEFINITION('','',#867,#866);
#866=PRODUCT_DEFINITION_CONTEXT('',#873,'design');
#867=PRODUCT_DEFINITION_FORMATION_WITH_SPECIFIED_SOURCE('','',#869,
 .NOT_KNOWN.);
#868=PRODUCT_RELATED_PRODUCT_CATEGORY('','',(#869));
#869=PRODUCT('rest_pose_holder_base','rest_pose_holder_base',
'rest_pose_holder_base',(#871));
#870=PRODUCT_CATEGORY('','');
#871=PRODUCT_CONTEXT('',#873,'mechanical');
#872=APPLICATION_PROTOCOL_DEFINITION('international standard',
'ap242_managed_model_based_3d_engineering',2020,#873);
#873=APPLICATION_CONTEXT('managed model based 3d engineering');
ENDSEC;
END-ISO-10303-21;
