ISO-10303-21;
HEADER;
/* Generated by software containing ST-Developer
 * from STEP Tools, Inc. (www.steptools.com) 
 */
/* OPTION: using custom renumber hook */

FILE_DESCRIPTION(
/* description */ ('STEP AP242 Edition 2',
'CAx-IF Rec.Pracs.---Representation and Presentation of Product Manufa
cturing Information (PMI)---4.0---2014-10-13',
'CAx-IF Rec.Pracs.---3D Tessellated Geometry---0.4---2014-09-14','2;1',
'CAx-IF Rec.Pracs.---User Defined Attributes---1.5---2016-08-15'),
/* implementation_level */ '2;1');

FILE_NAME(
/* name */ 'Part Studio 1 - rest_pose_holder_body',
/* time_stamp */ '2026-08-24T08:37:18Z',
/* author */ (''),
/* organization */ (''),
/* preprocessor_version */ 'ST-DEVELOPER v20',
/* originating_system */ 'ONSHAPE BY PTC INC, 1.219',
/* authorisation */ '  ');

FILE_SCHEMA (('AP242_MANAGED_MODEL_BASED_3D_ENGINEERING_MIM_LF { 1 0 10303 442 3 1 4 }'));
ENDSEC;

DATA;
#10=SHAPE_REPRESENTATION_RELATIONSHIP('','',#258,#11);
#11=ADVANCED_BREP_SHAPE_REPRESENTATION('',(#256),#428);
#12=CYLINDRICAL_SURFACE('',#268,0.0203);
#13=CYLINDRICAL_SURFACE('',#272,0.0253);
#14=CYLINDRICAL_SURFACE('',#277,0.0015);
#15=CYLINDRICAL_SURFACE('',#279,0.0015);
#16=CYLINDRICAL_SURFACE('',#281,0.003);
#17=CYLINDRICAL_SURFACE('',#284,0.003);
#18=ELLIPSE('',#266,0.00304627983565724,0.003);
#19=ELLIPSE('',#267,0.00304627983565724,0.003);
#20=CIRCLE('',#262,0.0015);
#21=CIRCLE('',#263,0.0015);
#22=CIRCLE('',#269,0.0203);
#23=CIRCLE('',#270,0.0203);
#24=CIRCLE('',#273,0.0253);
#25=CIRCLE('',#274,0.0253);
#26=CIRCLE('',#278,0.0015);
#27=CIRCLE('',#280,0.0015);
#28=CIRCLE('',#282,0.003);
#29=CIRCLE('',#285,0.003);
#30=ORIENTED_EDGE('',*,*,#88,.F.);
#31=ORIENTED_EDGE('',*,*,#89,.F.);
#32=ORIENTED_EDGE('',*,*,#90,.T.);
#33=ORIENTED_EDGE('',*,*,#91,.T.);
#34=ORIENTED_EDGE('',*,*,#92,.F.);
#35=ORIENTED_EDGE('',*,*,#93,.F.);
#36=ORIENTED_EDGE('',*,*,#94,.F.);
#37=ORIENTED_EDGE('',*,*,#95,.F.);
#38=ORIENTED_EDGE('',*,*,#96,.T.);
#39=ORIENTED_EDGE('',*,*,#89,.T.);
#40=ORIENTED_EDGE('',*,*,#97,.F.);
#41=ORIENTED_EDGE('',*,*,#98,.F.);
#42=ORIENTED_EDGE('',*,*,#99,.T.);
#43=ORIENTED_EDGE('',*,*,#95,.T.);
#44=ORIENTED_EDGE('',*,*,#100,.F.);
#45=ORIENTED_EDGE('',*,*,#101,.F.);
#46=ORIENTED_EDGE('',*,*,#102,.F.);
#47=ORIENTED_EDGE('',*,*,#103,.F.);
#48=ORIENTED_EDGE('',*,*,#104,.T.);
#49=ORIENTED_EDGE('',*,*,#98,.T.);
#50=ORIENTED_EDGE('',*,*,#105,.F.);
#51=ORIENTED_EDGE('',*,*,#106,.F.);
#52=ORIENTED_EDGE('',*,*,#107,.T.);
#53=ORIENTED_EDGE('',*,*,#103,.T.);
#54=ORIENTED_EDGE('',*,*,#108,.T.);
#55=ORIENTED_EDGE('',*,*,#109,.F.);
#56=ORIENTED_EDGE('',*,*,#110,.F.);
#57=ORIENTED_EDGE('',*,*,#106,.T.);
#58=ORIENTED_EDGE('',*,*,#111,.T.);
#59=ORIENTED_EDGE('',*,*,#91,.F.);
#60=ORIENTED_EDGE('',*,*,#112,.F.);
#61=ORIENTED_EDGE('',*,*,#109,.T.);
#62=ORIENTED_EDGE('',*,*,#90,.F.);
#63=ORIENTED_EDGE('',*,*,#96,.F.);
#64=ORIENTED_EDGE('',*,*,#99,.F.);
#65=ORIENTED_EDGE('',*,*,#104,.F.);
#66=ORIENTED_EDGE('',*,*,#107,.F.);
#67=ORIENTED_EDGE('',*,*,#110,.T.);
#68=ORIENTED_EDGE('',*,*,#112,.T.);
#69=ORIENTED_EDGE('',*,*,#88,.T.);
#70=ORIENTED_EDGE('',*,*,#111,.F.);
#71=ORIENTED_EDGE('',*,*,#108,.F.);
#72=ORIENTED_EDGE('',*,*,#105,.T.);
#73=ORIENTED_EDGE('',*,*,#102,.T.);
#74=ORIENTED_EDGE('',*,*,#97,.T.);
#75=ORIENTED_EDGE('',*,*,#94,.T.);
#76=ORIENTED_EDGE('',*,*,#113,.F.);
#77=ORIENTED_EDGE('',*,*,#93,.T.);
#78=ORIENTED_EDGE('',*,*,#114,.F.);
#79=ORIENTED_EDGE('',*,*,#92,.T.);
#80=ORIENTED_EDGE('',*,*,#101,.T.);
#81=ORIENTED_EDGE('',*,*,#115,.T.);
#82=ORIENTED_EDGE('',*,*,#114,.T.);
#83=ORIENTED_EDGE('',*,*,#115,.F.);
#84=ORIENTED_EDGE('',*,*,#100,.T.);
#85=ORIENTED_EDGE('',*,*,#116,.T.);
#86=ORIENTED_EDGE('',*,*,#113,.T.);
#87=ORIENTED_EDGE('',*,*,#116,.F.);
#88=EDGE_CURVE('',#117,#118,#139,.T.);
#89=EDGE_CURVE('',#119,#117,#140,.T.);
#90=EDGE_CURVE('',#119,#120,#141,.T.);
#91=EDGE_CURVE('',#120,#118,#142,.T.);
#92=EDGE_CURVE('',#121,#121,#20,.T.);
#93=EDGE_CURVE('',#122,#122,#21,.T.);
#94=EDGE_CURVE('',#123,#117,#143,.T.);
#95=EDGE_CURVE('',#124,#123,#144,.T.);
#96=EDGE_CURVE('',#124,#119,#145,.T.);
#97=EDGE_CURVE('',#125,#123,#146,.T.);
#98=EDGE_CURVE('',#126,#125,#147,.T.);
#99=EDGE_CURVE('',#126,#124,#148,.T.);
#100=EDGE_CURVE('',#127,#127,#18,.T.);
#101=EDGE_CURVE('',#128,#128,#19,.T.);
#102=EDGE_CURVE('',#129,#125,#149,.T.);
#103=EDGE_CURVE('',#130,#129,#150,.T.);
#104=EDGE_CURVE('',#130,#126,#151,.T.);
#105=EDGE_CURVE('',#131,#129,#22,.T.);
#106=EDGE_CURVE('',#132,#131,#152,.T.);
#107=EDGE_CURVE('',#132,#130,#23,.T.);
#108=EDGE_CURVE('',#131,#133,#153,.T.);
#109=EDGE_CURVE('',#134,#133,#154,.T.);
#110=EDGE_CURVE('',#132,#134,#155,.T.);
#111=EDGE_CURVE('',#133,#118,#24,.T.);
#112=EDGE_CURVE('',#134,#120,#25,.T.);
#113=EDGE_CURVE('',#135,#135,#26,.T.);
#114=EDGE_CURVE('',#136,#136,#27,.T.);
#115=EDGE_CURVE('',#137,#137,#28,.T.);
#116=EDGE_CURVE('',#138,#138,#29,.T.);
#117=VERTEX_POINT('',#363);
#118=VERTEX_POINT('',#364);
#119=VERTEX_POINT('',#366);
#120=VERTEX_POINT('',#368);
#121=VERTEX_POINT('',#372);
#122=VERTEX_POINT('',#374);
#123=VERTEX_POINT('',#376);
#124=VERTEX_POINT('',#378);
#125=VERTEX_POINT('',#382);
#126=VERTEX_POINT('',#384);
#127=VERTEX_POINT('',#388);
#128=VERTEX_POINT('',#390);
#129=VERTEX_POINT('',#392);
#130=VERTEX_POINT('',#394);
#131=VERTEX_POINT('',#398);
#132=VERTEX_POINT('',#400);
#133=VERTEX_POINT('',#404);
#134=VERTEX_POINT('',#406);
#135=VERTEX_POINT('',#415);
#136=VERTEX_POINT('',#418);
#137=VERTEX_POINT('',#421);
#138=VERTEX_POINT('',#425);
#139=LINE('',#362,#156);
#140=LINE('',#365,#157);
#141=LINE('',#367,#158);
#142=LINE('',#369,#159);
#143=LINE('',#375,#160);
#144=LINE('',#377,#161);
#145=LINE('',#379,#162);
#146=LINE('',#381,#163);
#147=LINE('',#383,#164);
#148=LINE('',#385,#165);
#149=LINE('',#391,#166);
#150=LINE('',#393,#167);
#151=LINE('',#395,#168);
#152=LINE('',#399,#169);
#153=LINE('',#403,#170);
#154=LINE('',#405,#171);
#155=LINE('',#407,#172);
#156=VECTOR('',#291,1.);
#157=VECTOR('',#292,1.);
#158=VECTOR('',#293,1.);
#159=VECTOR('',#294,1.);
#160=VECTOR('',#301,1.);
#161=VECTOR('',#302,1.);
#162=VECTOR('',#303,1.);
#163=VECTOR('',#306,1.);
#164=VECTOR('',#307,1.);
#165=VECTOR('',#308,1.);
#166=VECTOR('',#315,1.);
#167=VECTOR('',#316,1.);
#168=VECTOR('',#317,1.);
#169=VECTOR('',#322,1.);
#170=VECTOR('',#327,1.);
#171=VECTOR('',#328,1.);
#172=VECTOR('',#329,1.);
#173=EDGE_LOOP('',(#30,#31,#32,#33));
#174=EDGE_LOOP('',(#34));
#175=EDGE_LOOP('',(#35));
#176=EDGE_LOOP('',(#36,#37,#38,#39));
#177=EDGE_LOOP('',(#40,#41,#42,#43));
#178=EDGE_LOOP('',(#44));
#179=EDGE_LOOP('',(#45));
#180=EDGE_LOOP('',(#46,#47,#48,#49));
#181=EDGE_LOOP('',(#50,#51,#52,#53));
#182=EDGE_LOOP('',(#54,#55,#56,#57));
#183=EDGE_LOOP('',(#58,#59,#60,#61));
#184=EDGE_LOOP('',(#62,#63,#64,#65,#66,#67,#68));
#185=EDGE_LOOP('',(#69,#70,#71,#72,#73,#74,#75));
#186=EDGE_LOOP('',(#76));
#187=EDGE_LOOP('',(#77));
#188=EDGE_LOOP('',(#78));
#189=EDGE_LOOP('',(#79));
#190=EDGE_LOOP('',(#80));
#191=EDGE_LOOP('',(#81));
#192=EDGE_LOOP('',(#82));
#193=EDGE_LOOP('',(#83));
#194=EDGE_LOOP('',(#84));
#195=EDGE_LOOP('',(#85));
#196=EDGE_LOOP('',(#86));
#197=EDGE_LOOP('',(#87));
#198=FACE_BOUND('',#173,.T.);
#199=FACE_BOUND('',#174,.T.);
#200=FACE_BOUND('',#175,.T.);
#201=FACE_BOUND('',#176,.T.);
#202=FACE_BOUND('',#177,.T.);
#203=FACE_BOUND('',#178,.T.);
#204=FACE_BOUND('',#179,.T.);
#205=FACE_BOUND('',#180,.T.);
#206=FACE_BOUND('',#181,.T.);
#207=FACE_BOUND('',#182,.T.);
#208=FACE_BOUND('',#183,.T.);
#209=FACE_BOUND('',#184,.T.);
#210=FACE_BOUND('',#185,.T.);
#211=FACE_BOUND('',#186,.T.);
#212=FACE_BOUND('',#187,.T.);
#213=FACE_BOUND('',#188,.T.);
#214=FACE_BOUND('',#189,.T.);
#215=FACE_BOUND('',#190,.T.);
#216=FACE_BOUND('',#191,.T.);
#217=FACE_BOUND('',#192,.T.);
#218=FACE_BOUND('',#193,.T.);
#219=FACE_BOUND('',#194,.T.);
#220=FACE_BOUND('',#195,.T.);
#221=FACE_BOUND('',#196,.T.);
#222=FACE_BOUND('',#197,.T.);
#223=PLANE('',#260);
#224=PLANE('',#261);
#225=PLANE('',#264);
#226=PLANE('',#265);
#227=PLANE('',#271);
#228=PLANE('',#275);
#229=PLANE('',#276);
#230=PLANE('',#283);
#231=PLANE('',#286);
#232=ADVANCED_FACE('',(#198),#223,.T.);
#233=ADVANCED_FACE('',(#199,#200,#201),#224,.T.);
#234=ADVANCED_FACE('',(#202),#225,.T.);
#235=ADVANCED_FACE('',(#203,#204,#205),#226,.T.);
#236=ADVANCED_FACE('',(#206),#12,.F.);
#237=ADVANCED_FACE('',(#207),#227,.F.);
#238=ADVANCED_FACE('',(#208),#13,.T.);
#239=ADVANCED_FACE('',(#209),#228,.T.);
#240=ADVANCED_FACE('',(#210),#229,.F.);
#241=ADVANCED_FACE('',(#211,#212),#14,.F.);
#242=ADVANCED_FACE('',(#213,#214),#15,.F.);
#243=ADVANCED_FACE('',(#215,#216),#16,.F.);
#244=ADVANCED_FACE('',(#217,#218),#230,.F.);
#245=ADVANCED_FACE('',(#219,#220),#17,.F.);
#246=ADVANCED_FACE('',(#221,#222),#231,.F.);
#247=CLOSED_SHELL('',(#232,#233,#234,#235,#236,#237,#238,#239,#240,#241,
#242,#243,#244,#245,#246));
#248=STYLED_ITEM('',(#249),#256);
#249=PRESENTATION_STYLE_ASSIGNMENT((#250));
#250=SURFACE_STYLE_USAGE(.BOTH.,#251);
#251=SURFACE_SIDE_STYLE('',(#252));
#252=SURFACE_STYLE_FILL_AREA(#253);
#253=FILL_AREA_STYLE('',(#254));
#254=FILL_AREA_STYLE_COLOUR('',#255);
#255=COLOUR_RGB('',0.980392156862745,0.713725490196078,0.00392156862745098);
#256=MANIFOLD_SOLID_BREP('rest_pose_holder_body',#247);
#257=SHAPE_DEFINITION_REPRESENTATION(#433,#258);
#258=SHAPE_REPRESENTATION('rest_pose_holder_body',(#259),#428);
#259=AXIS2_PLACEMENT_3D('',#360,#287,#288);
#260=AXIS2_PLACEMENT_3D('',#361,#289,#290);
#261=AXIS2_PLACEMENT_3D('',#370,#295,#296);
#262=AXIS2_PLACEMENT_3D('',#371,#297,#298);
#263=AXIS2_PLACEMENT_3D('',#373,#299,#300);
#264=AXIS2_PLACEMENT_3D('',#380,#304,#305);
#265=AXIS2_PLACEMENT_3D('',#386,#309,#310);
#266=AXIS2_PLACEMENT_3D('',#387,#311,#312);
#267=AXIS2_PLACEMENT_3D('',#389,#313,#314);
#268=AXIS2_PLACEMENT_3D('',#396,#318,#319);
#269=AXIS2_PLACEMENT_3D('',#397,#320,#321);
#270=AXIS2_PLACEMENT_3D('',#401,#323,#324);
#271=AXIS2_PLACEMENT_3D('',#402,#325,#326);
#272=AXIS2_PLACEMENT_3D('',#408,#330,#331);
#273=AXIS2_PLACEMENT_3D('',#409,#332,#333);
#274=AXIS2_PLACEMENT_3D('',#410,#334,#335);
#275=AXIS2_PLACEMENT_3D('',#411,#336,#337);
#276=AXIS2_PLACEMENT_3D('',#412,#338,#339);
#277=AXIS2_PLACEMENT_3D('',#413,#340,#341);
#278=AXIS2_PLACEMENT_3D('',#414,#342,#343);
#279=AXIS2_PLACEMENT_3D('',#416,#344,#345);
#280=AXIS2_PLACEMENT_3D('',#417,#346,#347);
#281=AXIS2_PLACEMENT_3D('',#419,#348,#349);
#282=AXIS2_PLACEMENT_3D('',#420,#350,#351);
#283=AXIS2_PLACEMENT_3D('',#422,#352,#353);
#284=AXIS2_PLACEMENT_3D('',#423,#354,#355);
#285=AXIS2_PLACEMENT_3D('',#424,#356,#357);
#286=AXIS2_PLACEMENT_3D('',#426,#358,#359);
#287=DIRECTION('',(0.,0.,1.));
#288=DIRECTION('',(1.,0.,0.));
#289=DIRECTION('',(-0.842513328221801,0.538675497650139,0.));
#290=DIRECTION('',(-0.538675497650139,-0.842513328221801,0.));
#291=DIRECTION('',(0.538675497650139,0.842513328221801,0.));
#292=DIRECTION('',(0.,0.,-1.));
#293=DIRECTION('',(0.538675497650139,0.842513328221801,0.));
#294=DIRECTION('',(0.,0.,-1.));
#295=DIRECTION('',(-0.984807753012208,-0.17364817766693,0.));
#296=DIRECTION('',(0.17364817766693,-0.984807753012208,0.));
#297=DIRECTION('',(-0.984807753012208,-0.17364817766693,0.));
#298=DIRECTION('',(0.17364817766693,-0.984807753012208,0.));
#299=DIRECTION('',(-0.984807753012208,-0.17364817766693,0.));
#300=DIRECTION('',(0.17364817766693,-0.984807753012208,0.));
#301=DIRECTION('',(-0.17364817766693,0.984807753012208,0.));
#302=DIRECTION('',(0.,0.,-1.));
#303=DIRECTION('',(-0.17364817766693,0.984807753012208,0.));
#304=DIRECTION('',(0.000906591032016631,-0.999999589046266,0.));
#305=DIRECTION('',(0.999999589046266,0.000906591032016631,0.));
#306=DIRECTION('',(-0.999999589046266,-0.000906591032016631,0.));
#307=DIRECTION('',(0.,0.,-1.));
#308=DIRECTION('',(-0.999999589046266,-0.000906591032016631,0.));
#309=DIRECTION('',(1.,0.,0.));
#310=DIRECTION('',(0.,0.,-1.));
#311=DIRECTION('',(1.,0.,0.));
#312=DIRECTION('',(0.,-1.,0.));
#313=DIRECTION('',(1.,0.,0.));
#314=DIRECTION('',(0.,-1.,0.));
#315=DIRECTION('',(0.,-1.,0.));
#316=DIRECTION('',(0.,0.,-1.));
#317=DIRECTION('',(0.,-1.,0.));
#318=DIRECTION('',(0.,0.,-1.));
#319=DIRECTION('',(-1.,0.,0.));
#320=DIRECTION('',(0.,0.,1.));
#321=DIRECTION('',(1.,0.,0.));
#322=DIRECTION('',(0.,0.,-1.));
#323=DIRECTION('',(0.,0.,1.));
#324=DIRECTION('',(1.,0.,0.));
#325=DIRECTION('',(-0.707106781186548,-0.707106781186548,0.));
#326=DIRECTION('',(0.707106781186548,-0.707106781186548,0.));
#327=DIRECTION('',(-0.707106781186548,0.707106781186548,0.));
#328=DIRECTION('',(0.,0.,-1.));
#329=DIRECTION('',(-0.707106781186548,0.707106781186548,0.));
#330=DIRECTION('',(0.,0.,-1.));
#331=DIRECTION('',(-1.,0.,0.));
#332=DIRECTION('',(0.,0.,1.));
#333=DIRECTION('',(1.,0.,0.));
#334=DIRECTION('',(0.,0.,1.));
#335=DIRECTION('',(1.,0.,0.));
#336=DIRECTION('',(0.,0.,1.));
#337=DIRECTION('',(1.,0.,0.));
#338=DIRECTION('',(0.,0.,1.));
#339=DIRECTION('',(1.,0.,0.));
#340=DIRECTION('',(-0.984807753012208,-0.17364817766693,0.));
#341=DIRECTION('',(0.17364817766693,-0.984807753012208,0.));
#342=DIRECTION('',(-0.984807753012208,-0.17364817766693,0.));
#343=DIRECTION('',(0.17364817766693,-0.984807753012208,0.));
#344=DIRECTION('',(-0.984807753012208,-0.17364817766693,0.));
#345=DIRECTION('',(0.17364817766693,-0.984807753012208,0.));
#346=DIRECTION('',(-0.984807753012208,-0.17364817766693,0.));
#347=DIRECTION('',(0.17364817766693,-0.984807753012208,0.));
#348=DIRECTION('',(-0.984807753012208,-0.17364817766693,0.));
#349=DIRECTION('',(0.17364817766693,-0.984807753012208,0.));
#350=DIRECTION('',(-0.984807753012208,-0.17364817766693,0.));
#351=DIRECTION('',(0.17364817766693,-0.984807753012208,0.));
#352=DIRECTION('',(-0.984807753012208,-0.17364817766693,0.));
#353=DIRECTION('',(0.17364817766693,-0.984807753012208,0.));
#354=DIRECTION('',(-0.984807753012208,-0.17364817766693,0.));
#355=DIRECTION('',(0.17364817766693,-0.984807753012208,0.));
#356=DIRECTION('',(-0.984807753012208,-0.17364817766693,0.));
#357=DIRECTION('',(0.17364817766693,-0.984807753012208,0.));
#358=DIRECTION('',(-0.984807753012208,-0.17364817766693,0.));
#359=DIRECTION('',(0.17364817766693,-0.984807753012208,0.));
#360=CARTESIAN_POINT('',(0.,0.,0.));
#361=CARTESIAN_POINT('',(0.121668551897493,-0.0442528755410493,0.015));
#362=CARTESIAN_POINT('',(0.121668551897493,-0.0442528755410493,0.005));
#363=CARTESIAN_POINT('',(0.120160574829542,-0.0466114212405357,0.005));
#364=CARTESIAN_POINT('',(0.123176528965444,-0.041894329841563,0.005));
#365=CARTESIAN_POINT('',(0.120160574829542,-0.0466114212405357,0.015));
#366=CARTESIAN_POINT('',(0.120160574829542,-0.0466114212405357,0.015));
#367=CARTESIAN_POINT('',(0.121668551897493,-0.0442528755410493,0.015));
#368=CARTESIAN_POINT('',(0.123176528965444,-0.041894329841563,0.015));
#369=CARTESIAN_POINT('',(0.123176528965444,-0.041894329841563,0.015));
#370=CARTESIAN_POINT('',(0.122484303223596,-0.0597899398354668,0.015));
#371=CARTESIAN_POINT('',(0.124588937401078,-0.0717259133831661,0.01));
#372=CARTESIAN_POINT('',(0.124849409667579,-0.0732031250126844,0.01));
#373=CARTESIAN_POINT('',(0.122331511091408,-0.0589234125940074,0.01));
#374=CARTESIAN_POINT('',(0.122591983357909,-0.0604006242235257,0.01));
#375=CARTESIAN_POINT('',(0.122484303223596,-0.0597899398354668,0.005));
#376=CARTESIAN_POINT('',(0.125457178289413,-0.0766499521482272,0.005));
#377=CARTESIAN_POINT('',(0.125457178289413,-0.0766499521482272,0.015));
#378=CARTESIAN_POINT('',(0.125457178289413,-0.0766499521482272,0.015));
#379=CARTESIAN_POINT('',(0.122484303223596,-0.0597899398354668,0.015));
#380=CARTESIAN_POINT('',(0.12868959329462,-0.0766470216685674,0.015));
#381=CARTESIAN_POINT('',(0.12868959329462,-0.0766470216685674,0.005));
#382=CARTESIAN_POINT('',(0.131922008299828,-0.0766440911889076,0.005));
#383=CARTESIAN_POINT('',(0.131922008299828,-0.0766440911889076,0.015));
#384=CARTESIAN_POINT('',(0.131922008299828,-0.0766440911889076,0.015));
#385=CARTESIAN_POINT('',(0.12868959329462,-0.0766470216685674,0.015));
#386=CARTESIAN_POINT('',(0.131922008299828,-0.0610189942738751,0.015));
#387=CARTESIAN_POINT('',(0.131922008299828,-0.0572323491777539,0.01));
#388=CARTESIAN_POINT('',(0.131922008299828,-0.0602786290134111,0.01));
#389=CARTESIAN_POINT('',(0.131922008299828,-0.0704328951322686,0.01));
#390=CARTESIAN_POINT('',(0.131922008299828,-0.0734791749679258,0.01));
#391=CARTESIAN_POINT('',(0.131922008299828,-0.0610189942738751,0.005));
#392=CARTESIAN_POINT('',(0.131922008299828,-0.0444000424454963,0.005));
#393=CARTESIAN_POINT('',(0.131922008299828,-0.0444000424454963,0.015));
#394=CARTESIAN_POINT('',(0.131922008299828,-0.0444000424454963,0.015));
#395=CARTESIAN_POINT('',(0.131922008299828,-0.0610189942738751,0.015));
#396=CARTESIAN_POINT('',(0.144722008299827,-0.0286440911889076,0.015));
#397=CARTESIAN_POINT('',(0.144722008299827,-0.0286440911889076,0.005));
#398=CARTESIAN_POINT('',(0.13037365413169,-0.0142839124760331,0.005));
#399=CARTESIAN_POINT('',(0.13037365413169,-0.0142839124760331,0.015));
#400=CARTESIAN_POINT('',(0.13037365413169,-0.0142839124760331,0.015));
#401=CARTESIAN_POINT('',(0.144722008299827,-0.0286440911889076,0.015));
#402=CARTESIAN_POINT('',(0.128602930433749,-0.012513188778092,0.015));
#403=CARTESIAN_POINT('',(0.128602930433749,-0.012513188778092,0.005));
#404=CARTESIAN_POINT('',(0.126832206735808,-0.0107424650801508,0.005));
#405=CARTESIAN_POINT('',(0.126832206735808,-0.0107424650801508,0.015));
#406=CARTESIAN_POINT('',(0.126832206735808,-0.0107424650801508,0.015));
#407=CARTESIAN_POINT('',(0.128602930433749,-0.012513188778092,0.015));
#408=CARTESIAN_POINT('',(0.144722008299827,-0.0286322666441705,0.015));
#409=CARTESIAN_POINT('',(0.144722008299827,-0.0286322666441705,0.005));
#410=CARTESIAN_POINT('',(0.144722008299827,-0.0286322666441705,0.015));
#411=CARTESIAN_POINT('',(0.141172008299828,-0.0709914653881344,0.015));
#412=CARTESIAN_POINT('',(0.141172008299828,-0.0709914653881344,0.005));
#413=CARTESIAN_POINT('',(0.146951704916713,-0.0545822081523342,0.01));
#414=CARTESIAN_POINT('',(0.127255549856469,-0.0580551717056728,0.01));
#415=CARTESIAN_POINT('',(0.12751602212297,-0.0595323833351911,0.01));
#416=CARTESIAN_POINT('',(0.149209131226384,-0.0673847089414928,0.01));
#417=CARTESIAN_POINT('',(0.129512976166139,-0.0708576724948315,0.01));
#418=CARTESIAN_POINT('',(0.12977344843264,-0.0723348841243498,0.01));
#419=CARTESIAN_POINT('',(0.154133169991444,-0.0665164680531582,0.01));
#420=CARTESIAN_POINT('',(0.129512976166139,-0.0708576724948315,0.01));
#421=CARTESIAN_POINT('',(0.13003392069914,-0.0738120957538681,0.01));
#422=CARTESIAN_POINT('',(0.127732915324538,-0.0607624458060468,0.01));
#423=CARTESIAN_POINT('',(0.151875743681775,-0.0537139672639995,0.01));
#424=CARTESIAN_POINT('',(0.127255549856469,-0.0580551717056728,0.01));
#425=CARTESIAN_POINT('',(0.12777649438947,-0.0610095949647094,0.01));
#426=CARTESIAN_POINT('',(0.127732915324538,-0.0607624458060468,0.01));
#427=MECHANICAL_DESIGN_GEOMETRIC_PRESENTATION_REPRESENTATION('',(#248),
#428);
#428=(
GEOMETRIC_REPRESENTATION_CONTEXT(3)
GLOBAL_UNCERTAINTY_ASSIGNED_CONTEXT((#429))
GLOBAL_UNIT_ASSIGNED_CONTEXT((#432,#431,#430))
REPRESENTATION_CONTEXT('rest_pose_holder_body',
'TOP_LEVEL_ASSEMBLY_PART')
);
#429=UNCERTAINTY_MEASURE_WITH_UNIT(LENGTH_MEASURE(1.E-8),#432,
'DISTANCE_ACCURACY_VALUE','Maximum Tolerance applied to model');
#430=(
NAMED_UNIT(*)
SI_UNIT($,.STERADIAN.)
SOLID_ANGLE_UNIT()
);
#431=(
NAMED_UNIT(*)
PLANE_ANGLE_UNIT()
SI_UNIT($,.RADIAN.)
);
#432=(
LENGTH_UNIT()
NAMED_UNIT(*)
SI_UNIT($,.METRE.)
);
#433=PRODUCT_DEFINITION_SHAPE('','',#434);
#434=PRODUCT_DEFINITION('','',#436,#435);
#435=PRODUCT_DEFINITION_CONTEXT('',#442,'design');
#436=PRODUCT_DEFINITION_FORMATION_WITH_SPECIFIED_SOURCE('','',#438,
 .NOT_KNOWN.);
#437=PRODUCT_RELATED_PRODUCT_CATEGORY('','',(#438));
#438=PRODUCT('rest_pose_holder_body','rest_pose_holder_body',
'rest_pose_holder_body',(#440));
#439=PRODUCT_CATEGORY('','');
#440=PRODUCT_CONTEXT('',#442,'mechanical');
#441=APPLICATION_PROTOCOL_DEFINITION('international standard',
'ap242_managed_model_based_3d_engineering',2020,#442);
#442=APPLICATION_CONTEXT('managed model based 3d engineering');
ENDSEC;
END-ISO-10303-21;
