ISO-10303-21;
HEADER;
/* Generated by software containing ST-Developer
 * from STEP Tools, Inc. (www.steptools.com) 
 */
/* OPTION: using custom renumber hook */

FILE_DESCRIPTION(
/* description */ ('STEP AP242 Edition 2',
'CAx-IF Rec.Pracs.---Representation and Presentation of Product Manufa
cturing Information (PMI)---4.0---2014-10-13',
'CAx-IF Rec.Pracs.---3D Tessellated Geometry---0.4---2014-09-14','2;1',
'CAx-IF Rec.Pracs.---User Defined Attributes---1.5---2016-08-15'),
/* implementation_level */ '2;1');

FILE_NAME(
/* name */ 'Part Studio 1 - Rotor',
/* time_stamp */ '2026-08-24T08:32:05Z',
/* author */ (''),
/* organization */ (''),
/* preprocessor_version */ 'ST-DEVELOPER v20',
/* originating_system */ 'ONSHAPE BY PTC INC, 1.219',
/* authorisation */ '  ');

FILE_SCHEMA (('AP242_MANAGED_MODEL_BASED_3D_ENGINEERING_MIM_LF { 1 0 10303 442 3 1 4 }'));
ENDSEC;

DATA;
#10=SHAPE_REPRESENTATION_RELATIONSHIP('','',#263,#11);
#11=ADVANCED_BREP_SHAPE_REPRESENTATION('',(#261),#447);
#12=CIRCLE('',#267,0.004);
#13=CIRCLE('',#268,0.004);
#14=CIRCLE('',#270,0.004);
#15=CIRCLE('',#271,0.004);
#16=CIRCLE('',#274,0.00135);
#17=CIRCLE('',#276,0.00135);
#18=CIRCLE('',#279,0.0058);
#19=CIRCLE('',#281,0.0058);
#20=CIRCLE('',#283,0.0026);
#21=CIRCLE('',#284,0.0026);
#22=CIRCLE('',#287,0.002575);
#23=CIRCLE('',#288,0.002575);
#24=CIRCLE('',#291,0.002575);
#25=CIRCLE('',#294,0.002575);
#26=CYLINDRICAL_SURFACE('',#266,0.004);
#27=CYLINDRICAL_SURFACE('',#269,0.004);
#28=CYLINDRICAL_SURFACE('',#275,0.00135);
#29=CYLINDRICAL_SURFACE('',#280,0.0058);
#30=CYLINDRICAL_SURFACE('',#282,0.0026);
#31=CYLINDRICAL_SURFACE('',#290,0.002575);
#32=CYLINDRICAL_SURFACE('',#293,0.002575);
#33=ORIENTED_EDGE('',*,*,#93,.F.);
#34=ORIENTED_EDGE('',*,*,#94,.F.);
#35=ORIENTED_EDGE('',*,*,#95,.F.);
#36=ORIENTED_EDGE('',*,*,#96,.T.);
#37=ORIENTED_EDGE('',*,*,#97,.F.);
#38=ORIENTED_EDGE('',*,*,#96,.F.);
#39=ORIENTED_EDGE('',*,*,#98,.F.);
#40=ORIENTED_EDGE('',*,*,#99,.T.);
#41=ORIENTED_EDGE('',*,*,#100,.F.);
#42=ORIENTED_EDGE('',*,*,#101,.F.);
#43=ORIENTED_EDGE('',*,*,#102,.F.);
#44=ORIENTED_EDGE('',*,*,#94,.T.);
#45=ORIENTED_EDGE('',*,*,#101,.T.);
#46=ORIENTED_EDGE('',*,*,#103,.T.);
#47=ORIENTED_EDGE('',*,*,#99,.F.);
#48=ORIENTED_EDGE('',*,*,#104,.T.);
#49=ORIENTED_EDGE('',*,*,#105,.T.);
#50=ORIENTED_EDGE('',*,*,#105,.F.);
#51=ORIENTED_EDGE('',*,*,#106,.T.);
#52=ORIENTED_EDGE('',*,*,#104,.F.);
#53=ORIENTED_EDGE('',*,*,#98,.T.);
#54=ORIENTED_EDGE('',*,*,#95,.T.);
#55=ORIENTED_EDGE('',*,*,#102,.T.);
#56=ORIENTED_EDGE('',*,*,#106,.F.);
#57=ORIENTED_EDGE('',*,*,#107,.F.);
#58=ORIENTED_EDGE('',*,*,#100,.T.);
#59=ORIENTED_EDGE('',*,*,#93,.T.);
#60=ORIENTED_EDGE('',*,*,#97,.T.);
#61=ORIENTED_EDGE('',*,*,#103,.F.);
#62=ORIENTED_EDGE('',*,*,#107,.T.);
#63=ORIENTED_EDGE('',*,*,#108,.F.);
#64=ORIENTED_EDGE('',*,*,#109,.T.);
#65=ORIENTED_EDGE('',*,*,#110,.F.);
#66=ORIENTED_EDGE('',*,*,#109,.F.);
#67=ORIENTED_EDGE('',*,*,#108,.T.);
#68=ORIENTED_EDGE('',*,*,#111,.T.);
#69=ORIENTED_EDGE('',*,*,#112,.T.);
#70=ORIENTED_EDGE('',*,*,#113,.F.);
#71=ORIENTED_EDGE('',*,*,#114,.T.);
#72=ORIENTED_EDGE('',*,*,#113,.T.);
#73=ORIENTED_EDGE('',*,*,#115,.F.);
#74=ORIENTED_EDGE('',*,*,#116,.F.);
#75=ORIENTED_EDGE('',*,*,#117,.T.);
#76=ORIENTED_EDGE('',*,*,#114,.F.);
#77=ORIENTED_EDGE('',*,*,#117,.F.);
#78=ORIENTED_EDGE('',*,*,#118,.T.);
#79=ORIENTED_EDGE('',*,*,#119,.T.);
#80=ORIENTED_EDGE('',*,*,#111,.F.);
#81=ORIENTED_EDGE('',*,*,#119,.F.);
#82=ORIENTED_EDGE('',*,*,#120,.T.);
#83=ORIENTED_EDGE('',*,*,#121,.T.);
#84=ORIENTED_EDGE('',*,*,#112,.F.);
#85=ORIENTED_EDGE('',*,*,#121,.F.);
#86=ORIENTED_EDGE('',*,*,#122,.T.);
#87=ORIENTED_EDGE('',*,*,#115,.T.);
#88=ORIENTED_EDGE('',*,*,#122,.F.);
#89=ORIENTED_EDGE('',*,*,#120,.F.);
#90=ORIENTED_EDGE('',*,*,#118,.F.);
#91=ORIENTED_EDGE('',*,*,#116,.T.);
#92=ORIENTED_EDGE('',*,*,#110,.T.);
#93=EDGE_CURVE('',#123,#124,#145,.T.);
#94=EDGE_CURVE('',#125,#123,#146,.T.);
#95=EDGE_CURVE('',#126,#125,#147,.T.);
#96=EDGE_CURVE('',#126,#124,#148,.T.);
#97=EDGE_CURVE('',#124,#127,#12,.T.);
#98=EDGE_CURVE('',#128,#126,#13,.T.);
#99=EDGE_CURVE('',#128,#127,#149,.T.);
#100=EDGE_CURVE('',#129,#123,#14,.T.);
#101=EDGE_CURVE('',#130,#129,#150,.T.);
#102=EDGE_CURVE('',#125,#130,#15,.T.);
#103=EDGE_CURVE('',#129,#127,#151,.T.);
#104=EDGE_CURVE('',#128,#130,#152,.T.);
#105=EDGE_CURVE('',#131,#131,#16,.T.);
#106=EDGE_CURVE('',#132,#132,#17,.T.);
#107=EDGE_CURVE('',#133,#133,#18,.T.);
#108=EDGE_CURVE('',#134,#134,#19,.T.);
#109=EDGE_CURVE('',#135,#135,#20,.T.);
#110=EDGE_CURVE('',#136,#136,#21,.T.);
#111=EDGE_CURVE('',#137,#138,#153,.T.);
#112=EDGE_CURVE('',#138,#139,#22,.T.);
#113=EDGE_CURVE('',#140,#139,#154,.T.);
#114=EDGE_CURVE('',#140,#137,#23,.T.);
#115=EDGE_CURVE('',#141,#139,#155,.T.);
#116=EDGE_CURVE('',#142,#141,#156,.T.);
#117=EDGE_CURVE('',#142,#140,#157,.T.);
#118=EDGE_CURVE('',#142,#143,#24,.T.);
#119=EDGE_CURVE('',#143,#137,#158,.T.);
#120=EDGE_CURVE('',#143,#144,#159,.T.);
#121=EDGE_CURVE('',#144,#138,#160,.T.);
#122=EDGE_CURVE('',#144,#141,#25,.T.);
#123=VERTEX_POINT('',#379);
#124=VERTEX_POINT('',#380);
#125=VERTEX_POINT('',#382);
#126=VERTEX_POINT('',#384);
#127=VERTEX_POINT('',#388);
#128=VERTEX_POINT('',#390);
#129=VERTEX_POINT('',#394);
#130=VERTEX_POINT('',#396);
#131=VERTEX_POINT('',#403);
#132=VERTEX_POINT('',#406);
#133=VERTEX_POINT('',#410);
#134=VERTEX_POINT('',#413);
#135=VERTEX_POINT('',#416);
#136=VERTEX_POINT('',#418);
#137=VERTEX_POINT('',#422);
#138=VERTEX_POINT('',#423);
#139=VERTEX_POINT('',#425);
#140=VERTEX_POINT('',#427);
#141=VERTEX_POINT('',#431);
#142=VERTEX_POINT('',#433);
#143=VERTEX_POINT('',#437);
#144=VERTEX_POINT('',#441);
#145=LINE('',#378,#161);
#146=LINE('',#381,#162);
#147=LINE('',#383,#163);
#148=LINE('',#385,#164);
#149=LINE('',#391,#165);
#150=LINE('',#395,#166);
#151=LINE('',#399,#167);
#152=LINE('',#400,#168);
#153=LINE('',#421,#169);
#154=LINE('',#426,#170);
#155=LINE('',#430,#171);
#156=LINE('',#432,#172);
#157=LINE('',#434,#173);
#158=LINE('',#438,#174);
#159=LINE('',#440,#175);
#160=LINE('',#442,#176);
#161=VECTOR('',#300,1.);
#162=VECTOR('',#301,1.);
#163=VECTOR('',#302,1.);
#164=VECTOR('',#303,1.);
#165=VECTOR('',#310,1.);
#166=VECTOR('',#315,1.);
#167=VECTOR('',#320,1.);
#168=VECTOR('',#321,1.);
#169=VECTOR('',#350,1.);
#170=VECTOR('',#353,1.);
#171=VECTOR('',#358,1.);
#172=VECTOR('',#359,1.);
#173=VECTOR('',#360,1.);
#174=VECTOR('',#365,1.);
#175=VECTOR('',#368,1.);
#176=VECTOR('',#369,1.);
#177=EDGE_LOOP('',(#33,#34,#35,#36));
#178=EDGE_LOOP('',(#37,#38,#39,#40));
#179=EDGE_LOOP('',(#41,#42,#43,#44));
#180=EDGE_LOOP('',(#45,#46,#47,#48));
#181=EDGE_LOOP('',(#49));
#182=EDGE_LOOP('',(#50));
#183=EDGE_LOOP('',(#51));
#184=EDGE_LOOP('',(#52,#53,#54,#55));
#185=EDGE_LOOP('',(#56));
#186=EDGE_LOOP('',(#57));
#187=EDGE_LOOP('',(#58,#59,#60,#61));
#188=EDGE_LOOP('',(#62));
#189=EDGE_LOOP('',(#63));
#190=EDGE_LOOP('',(#64));
#191=EDGE_LOOP('',(#65));
#192=EDGE_LOOP('',(#66));
#193=EDGE_LOOP('',(#67));
#194=EDGE_LOOP('',(#68,#69,#70,#71));
#195=EDGE_LOOP('',(#72,#73,#74,#75));
#196=EDGE_LOOP('',(#76,#77,#78,#79));
#197=EDGE_LOOP('',(#80,#81,#82,#83));
#198=EDGE_LOOP('',(#84,#85,#86,#87));
#199=EDGE_LOOP('',(#88,#89,#90,#91));
#200=EDGE_LOOP('',(#92));
#201=FACE_BOUND('',#177,.T.);
#202=FACE_BOUND('',#178,.T.);
#203=FACE_BOUND('',#179,.T.);
#204=FACE_BOUND('',#180,.T.);
#205=FACE_BOUND('',#181,.T.);
#206=FACE_BOUND('',#182,.T.);
#207=FACE_BOUND('',#183,.T.);
#208=FACE_BOUND('',#184,.T.);
#209=FACE_BOUND('',#185,.T.);
#210=FACE_BOUND('',#186,.T.);
#211=FACE_BOUND('',#187,.T.);
#212=FACE_BOUND('',#188,.T.);
#213=FACE_BOUND('',#189,.T.);
#214=FACE_BOUND('',#190,.T.);
#215=FACE_BOUND('',#191,.T.);
#216=FACE_BOUND('',#192,.T.);
#217=FACE_BOUND('',#193,.T.);
#218=FACE_BOUND('',#194,.T.);
#219=FACE_BOUND('',#195,.T.);
#220=FACE_BOUND('',#196,.T.);
#221=FACE_BOUND('',#197,.T.);
#222=FACE_BOUND('',#198,.T.);
#223=FACE_BOUND('',#199,.T.);
#224=FACE_BOUND('',#200,.T.);
#225=PLANE('',#265);
#226=PLANE('',#272);
#227=PLANE('',#273);
#228=PLANE('',#277);
#229=PLANE('',#278);
#230=PLANE('',#285);
#231=PLANE('',#286);
#232=PLANE('',#289);
#233=PLANE('',#292);
#234=PLANE('',#295);
#235=ADVANCED_FACE('',(#201),#225,.F.);
#236=ADVANCED_FACE('',(#202),#26,.T.);
#237=ADVANCED_FACE('',(#203),#27,.T.);
#238=ADVANCED_FACE('',(#204),#226,.T.);
#239=ADVANCED_FACE('',(#205),#227,.T.);
#240=ADVANCED_FACE('',(#206,#207),#28,.F.);
#241=ADVANCED_FACE('',(#208,#209),#228,.T.);
#242=ADVANCED_FACE('',(#210,#211),#229,.F.);
#243=ADVANCED_FACE('',(#212,#213),#29,.T.);
#244=ADVANCED_FACE('',(#214,#215),#30,.F.);
#245=ADVANCED_FACE('',(#216,#217),#230,.T.);
#246=ADVANCED_FACE('',(#218),#231,.F.);
#247=ADVANCED_FACE('',(#219),#232,.F.);
#248=ADVANCED_FACE('',(#220),#31,.F.);
#249=ADVANCED_FACE('',(#221),#233,.T.);
#250=ADVANCED_FACE('',(#222),#32,.F.);
#251=ADVANCED_FACE('',(#223,#224),#234,.T.);
#252=CLOSED_SHELL('',(#235,#236,#237,#238,#239,#240,#241,#242,#243,#244,
#245,#246,#247,#248,#249,#250,#251));
#253=STYLED_ITEM('',(#254),#261);
#254=PRESENTATION_STYLE_ASSIGNMENT((#255));
#255=SURFACE_STYLE_USAGE(.BOTH.,#256);
#256=SURFACE_SIDE_STYLE('',(#257));
#257=SURFACE_STYLE_FILL_AREA(#258);
#258=FILL_AREA_STYLE('',(#259));
#259=FILL_AREA_STYLE_COLOUR('',#260);
#260=COLOUR_RGB('',0.768627450980392,0.886274509803922,0.952941176470588);
#261=MANIFOLD_SOLID_BREP('Rotor',#252);
#262=SHAPE_DEFINITION_REPRESENTATION(#452,#263);
#263=SHAPE_REPRESENTATION('Rotor',(#264),#447);
#264=AXIS2_PLACEMENT_3D('',#376,#296,#297);
#265=AXIS2_PLACEMENT_3D('',#377,#298,#299);
#266=AXIS2_PLACEMENT_3D('',#386,#304,#305);
#267=AXIS2_PLACEMENT_3D('',#387,#306,#307);
#268=AXIS2_PLACEMENT_3D('',#389,#308,#309);
#269=AXIS2_PLACEMENT_3D('',#392,#311,#312);
#270=AXIS2_PLACEMENT_3D('',#393,#313,#314);
#271=AXIS2_PLACEMENT_3D('',#397,#316,#317);
#272=AXIS2_PLACEMENT_3D('',#398,#318,#319);
#273=AXIS2_PLACEMENT_3D('',#401,#322,#323);
#274=AXIS2_PLACEMENT_3D('',#402,#324,#325);
#275=AXIS2_PLACEMENT_3D('',#404,#326,#327);
#276=AXIS2_PLACEMENT_3D('',#405,#328,#329);
#277=AXIS2_PLACEMENT_3D('',#407,#330,#331);
#278=AXIS2_PLACEMENT_3D('',#408,#332,#333);
#279=AXIS2_PLACEMENT_3D('',#409,#334,#335);
#280=AXIS2_PLACEMENT_3D('',#411,#336,#337);
#281=AXIS2_PLACEMENT_3D('',#412,#338,#339);
#282=AXIS2_PLACEMENT_3D('',#414,#340,#341);
#283=AXIS2_PLACEMENT_3D('',#415,#342,#343);
#284=AXIS2_PLACEMENT_3D('',#417,#344,#345);
#285=AXIS2_PLACEMENT_3D('',#419,#346,#347);
#286=AXIS2_PLACEMENT_3D('',#420,#348,#349);
#287=AXIS2_PLACEMENT_3D('',#424,#351,#352);
#288=AXIS2_PLACEMENT_3D('',#428,#354,#355);
#289=AXIS2_PLACEMENT_3D('',#429,#356,#357);
#290=AXIS2_PLACEMENT_3D('',#435,#361,#362);
#291=AXIS2_PLACEMENT_3D('',#436,#363,#364);
#292=AXIS2_PLACEMENT_3D('',#439,#366,#367);
#293=AXIS2_PLACEMENT_3D('',#443,#370,#371);
#294=AXIS2_PLACEMENT_3D('',#444,#372,#373);
#295=AXIS2_PLACEMENT_3D('',#445,#374,#375);
#296=DIRECTION('',(0.,0.,1.));
#297=DIRECTION('',(1.,0.,0.));
#298=DIRECTION('',(-1.,0.,0.));
#299=DIRECTION('',(0.,0.,1.));
#300=DIRECTION('',(0.,-1.,0.));
#301=DIRECTION('',(0.,0.,-1.));
#302=DIRECTION('',(0.,1.,0.));
#303=DIRECTION('',(0.,0.,-1.));
#304=DIRECTION('',(0.,0.,-1.));
#305=DIRECTION('',(-1.,0.,0.));
#306=DIRECTION('',(0.,0.,-1.));
#307=DIRECTION('',(-1.,0.,0.));
#308=DIRECTION('',(0.,0.,1.));
#309=DIRECTION('',(1.,0.,0.));
#310=DIRECTION('',(0.,0.,-1.));
#311=DIRECTION('',(0.,0.,-1.));
#312=DIRECTION('',(-1.,0.,0.));
#313=DIRECTION('',(0.,0.,-1.));
#314=DIRECTION('',(-1.,0.,0.));
#315=DIRECTION('',(0.,0.,-1.));
#316=DIRECTION('',(0.,0.,1.));
#317=DIRECTION('',(1.,0.,0.));
#318=DIRECTION('',(-1.,0.,0.));
#319=DIRECTION('',(0.,0.,1.));
#320=DIRECTION('',(0.,-1.,0.));
#321=DIRECTION('',(0.,1.,0.));
#322=DIRECTION('',(0.,0.,1.));
#323=DIRECTION('',(1.,0.,0.));
#324=DIRECTION('',(0.,0.,1.));
#325=DIRECTION('',(1.,0.,0.));
#326=DIRECTION('',(0.,0.,1.));
#327=DIRECTION('',(1.,0.,0.));
#328=DIRECTION('',(0.,0.,1.));
#329=DIRECTION('',(1.,0.,0.));
#330=DIRECTION('',(0.,0.,1.));
#331=DIRECTION('',(1.,0.,0.));
#332=DIRECTION('',(0.,0.,-1.));
#333=DIRECTION('',(1.,0.,0.));
#334=DIRECTION('',(0.,0.,-1.));
#335=DIRECTION('',(-1.,0.,0.));
#336=DIRECTION('',(0.,0.,1.));
#337=DIRECTION('',(1.,0.,0.));
#338=DIRECTION('',(0.,0.,-1.));
#339=DIRECTION('',(-1.,0.,0.));
#340=DIRECTION('',(0.,0.,1.));
#341=DIRECTION('',(1.,0.,0.));
#342=DIRECTION('',(0.,0.,-1.));
#343=DIRECTION('',(-1.,0.,0.));
#344=DIRECTION('',(0.,0.,-1.));
#345=DIRECTION('',(-1.,0.,0.));
#346=DIRECTION('',(0.,0.,-1.));
#347=DIRECTION('',(1.,0.,0.));
#348=DIRECTION('',(0.,0.,1.));
#349=DIRECTION('',(1.,0.,0.));
#350=DIRECTION('',(0.,1.,0.));
#351=DIRECTION('',(0.,0.,-1.));
#352=DIRECTION('',(-1.,0.,0.));
#353=DIRECTION('',(0.,1.,0.));
#354=DIRECTION('',(0.,0.,-1.));
#355=DIRECTION('',(-1.,0.,0.));
#356=DIRECTION('',(1.,0.,0.));
#357=DIRECTION('',(0.,0.,-1.));
#358=DIRECTION('',(0.,0.,1.));
#359=DIRECTION('',(0.,1.,0.));
#360=DIRECTION('',(0.,0.,1.));
#361=DIRECTION('',(0.,0.,1.));
#362=DIRECTION('',(1.,0.,0.));
#363=DIRECTION('',(0.,0.,-1.));
#364=DIRECTION('',(-1.,0.,0.));
#365=DIRECTION('',(0.,0.,1.));
#366=DIRECTION('',(1.,0.,0.));
#367=DIRECTION('',(0.,0.,-1.));
#368=DIRECTION('',(0.,1.,0.));
#369=DIRECTION('',(0.,0.,1.));
#370=DIRECTION('',(0.,0.,1.));
#371=DIRECTION('',(1.,0.,0.));
#372=DIRECTION('',(0.,0.,-1.));
#373=DIRECTION('',(-1.,0.,0.));
#374=DIRECTION('',(0.,0.,-1.));
#375=DIRECTION('',(1.,0.,0.));
#376=CARTESIAN_POINT('',(0.,0.,0.));
#377=CARTESIAN_POINT('',(0.003,0.00314624868893541,0.0055));
#378=CARTESIAN_POINT('',(0.003,0.00314624868893541,0.0075));
#379=CARTESIAN_POINT('',(0.003,0.00264575131106459,0.0075));
#380=CARTESIAN_POINT('',(0.003,-0.00264575131106459,0.0075));
#381=CARTESIAN_POINT('',(0.003,0.00264575131106459,0.021));
#382=CARTESIAN_POINT('',(0.003,0.00264575131106459,0.021));
#383=CARTESIAN_POINT('',(0.003,0.00314624868893541,0.021));
#384=CARTESIAN_POINT('',(0.003,-0.00264575131106459,0.021));
#385=CARTESIAN_POINT('',(0.003,-0.00264575131106459,0.021));
#386=CARTESIAN_POINT('',(-1.7347234759768E-18,-8.67361737988404E-18,0.021));
#387=CARTESIAN_POINT('',(-1.7347234759768E-18,-8.67361737988404E-18,0.0075));
#388=CARTESIAN_POINT('',(-0.003,-0.00264575131106459,0.0075));
#389=CARTESIAN_POINT('',(-1.7347234759768E-18,-8.67361737988404E-18,0.021));
#390=CARTESIAN_POINT('',(-0.003,-0.00264575131106459,0.021));
#391=CARTESIAN_POINT('',(-0.003,-0.00264575131106459,0.021));
#392=CARTESIAN_POINT('',(8.67361737988404E-19,8.23993651088983E-18,0.021));
#393=CARTESIAN_POINT('',(8.67361737988404E-19,8.23993651088983E-18,0.0075));
#394=CARTESIAN_POINT('',(-0.003,0.00264575131106459,0.0075));
#395=CARTESIAN_POINT('',(-0.003,0.00264575131106459,0.021));
#396=CARTESIAN_POINT('',(-0.003,0.00264575131106459,0.021));
#397=CARTESIAN_POINT('',(8.67361737988404E-19,8.23993651088983E-18,0.021));
#398=CARTESIAN_POINT('',(-0.003,0.00364575131106459,0.0055));
#399=CARTESIAN_POINT('',(-0.003,0.00364575131106459,0.0075));
#400=CARTESIAN_POINT('',(-0.003,0.00364575131106459,0.021));
#401=CARTESIAN_POINT('',(-1.7347234759768E-18,1.7347234759768E-18,0.013));
#402=CARTESIAN_POINT('',(0.,8.26636589424463E-20,0.013));
#403=CARTESIAN_POINT('',(0.00135,8.26636589424463E-20,0.013));
#404=CARTESIAN_POINT('',(0.,8.26636589424463E-20,0.013));
#405=CARTESIAN_POINT('',(0.,8.26636589424463E-20,0.021));
#406=CARTESIAN_POINT('',(0.00135,8.26636589424463E-20,0.021));
#407=CARTESIAN_POINT('',(0.,0.,0.021));
#408=CARTESIAN_POINT('',(0.,0.,0.0075));
#409=CARTESIAN_POINT('',(0.,-3.55147571752733E-19,0.0075));
#410=CARTESIAN_POINT('',(-0.0058,-3.55147571752733E-19,0.0075));
#411=CARTESIAN_POINT('',(0.,-3.55147571752733E-19,-0.0005));
#412=CARTESIAN_POINT('',(0.,-3.55147571752733E-19,-0.0025));
#413=CARTESIAN_POINT('',(-0.0058,-3.55147571752733E-19,-0.0025));
#414=CARTESIAN_POINT('',(0.,1.35867895759055E-18,-0.0025));
#415=CARTESIAN_POINT('',(0.,1.35867895759055E-18,-0.0025));
#416=CARTESIAN_POINT('',(-0.0026,1.35867895759055E-18,-0.0025));
#417=CARTESIAN_POINT('',(0.,1.35867895759055E-18,-0.0005));
#418=CARTESIAN_POINT('',(-0.0026,1.35867895759055E-18,-0.0005));
#419=CARTESIAN_POINT('',(0.,0.,-0.0025));
#420=CARTESIAN_POINT('',(0.,0.,0.));
#421=CARTESIAN_POINT('',(-0.00154437615306201,0.,0.));
#422=CARTESIAN_POINT('',(-0.00154437615306201,-0.00206046773763953,0.));
#423=CARTESIAN_POINT('',(-0.00154437615306201,0.00206046773763953,0.));
#424=CARTESIAN_POINT('',(-2.16840434497101E-19,1.51788304147971E-18,0.));
#425=CARTESIAN_POINT('',(0.00154437615306201,0.00206046773763953,0.));
#426=CARTESIAN_POINT('',(0.00154437615306201,0.,0.));
#427=CARTESIAN_POINT('',(0.00154437615306201,-0.00206046773763953,0.));
#428=CARTESIAN_POINT('',(-3.25260651745652E-19,-1.7347234759768E-18,0.));
#429=CARTESIAN_POINT('',(0.00154437615306201,0.,-0.0005));
#430=CARTESIAN_POINT('',(0.00154437615306201,0.00206046773763953,-0.0005));
#431=CARTESIAN_POINT('',(0.00154437615306201,0.00206046773763953,-0.0005));
#432=CARTESIAN_POINT('',(0.00154437615306201,0.,-0.0005));
#433=CARTESIAN_POINT('',(0.00154437615306201,-0.00206046773763953,-0.0005));
#434=CARTESIAN_POINT('',(0.00154437615306201,-0.00206046773763953,-0.0005));
#435=CARTESIAN_POINT('',(-3.25260651745652E-19,-1.7347234759768E-18,-0.0005));
#436=CARTESIAN_POINT('',(-3.25260651745652E-19,-1.7347234759768E-18,-0.0005));
#437=CARTESIAN_POINT('',(-0.00154437615306201,-0.00206046773763953,-0.0005));
#438=CARTESIAN_POINT('',(-0.00154437615306201,-0.00206046773763953,-0.0005));
#439=CARTESIAN_POINT('',(-0.00154437615306201,0.,-0.0005));
#440=CARTESIAN_POINT('',(-0.00154437615306201,0.,-0.0005));
#441=CARTESIAN_POINT('',(-0.00154437615306201,0.00206046773763953,-0.0005));
#442=CARTESIAN_POINT('',(-0.00154437615306201,0.00206046773763953,-0.0005));
#443=CARTESIAN_POINT('',(-2.16840434497101E-19,1.51788304147971E-18,-0.0005));
#444=CARTESIAN_POINT('',(-2.16840434497101E-19,1.51788304147971E-18,-0.0005));
#445=CARTESIAN_POINT('',(0.,0.,-0.0005));
#446=MECHANICAL_DESIGN_GEOMETRIC_PRESENTATION_REPRESENTATION('',(#253),
#447);
#447=(
GEOMETRIC_REPRESENTATION_CONTEXT(3)
GLOBAL_UNCERTAINTY_ASSIGNED_CONTEXT((#448))
GLOBAL_UNIT_ASSIGNED_CONTEXT((#451,#450,#449))
REPRESENTATION_CONTEXT('Rotor','TOP_LEVEL_ASSEMBLY_PART')
);
#448=UNCERTAINTY_MEASURE_WITH_UNIT(LENGTH_MEASURE(1.E-8),#451,
'DISTANCE_ACCURACY_VALUE','Maximum Tolerance applied to model');
#449=(
NAMED_UNIT(*)
SI_UNIT($,.STERADIAN.)
SOLID_ANGLE_UNIT()
);
#450=(
NAMED_UNIT(*)
PLANE_ANGLE_UNIT()
SI_UNIT($,.RADIAN.)
);
#451=(
LENGTH_UNIT()
NAMED_UNIT(*)
SI_UNIT($,.METRE.)
);
#452=PRODUCT_DEFINITION_SHAPE('','',#453);
#453=PRODUCT_DEFINITION('','',#455,#454);
#454=PRODUCT_DEFINITION_CONTEXT('',#461,'design');
#455=PRODUCT_DEFINITION_FORMATION_WITH_SPECIFIED_SOURCE('','',#457,
 .NOT_KNOWN.);
#456=PRODUCT_RELATED_PRODUCT_CATEGORY('','',(#457));
#457=PRODUCT('Rotor','Rotor','Rotor',(#459));
#458=PRODUCT_CATEGORY('','');
#459=PRODUCT_CONTEXT('',#461,'mechanical');
#460=APPLICATION_PROTOCOL_DEFINITION('international standard',
'ap242_managed_model_based_3d_engineering',2020,#461);
#461=APPLICATION_CONTEXT('managed model based 3d engineering');
ENDSEC;
END-ISO-10303-21;
