ISO-10303-21;
HEADER;
/* Generated by software containing ST-Developer
 * from STEP Tools, Inc. (www.steptools.com) 
 */
/* OPTION: using custom renumber hook */

FILE_DESCRIPTION(
/* description */ ('STEP AP242 Edition 2',
'CAx-IF Rec.Pracs.---Representation and Presentation of Product Manufa
cturing Information (PMI)---4.0---2014-10-13',
'CAx-IF Rec.Pracs.---3D Tessellated Geometry---0.4---2014-09-14','2;1',
'CAx-IF Rec.Pracs.---User Defined Attributes---1.5---2016-08-15'),
/* implementation_level */ '2;1');

FILE_NAME(
/* name */ 'Part Studio 1 - rubberband_housing',
/* time_stamp */ '2026-09-02T21:33:16Z',
/* author */ (''),
/* organization */ (''),
/* preprocessor_version */ 'ST-DEVELOPER v20',
/* originating_system */ 'ONSHAPE BY PTC INC, 1.220',
/* authorisation */ '  ');

FILE_SCHEMA (('AP242_MANAGED_MODEL_BASED_3D_ENGINEERING_MIM_LF { 1 0 10303 442 3 1 4 }'));
ENDSEC;

DATA;
#10=SHAPE_REPRESENTATION_RELATIONSHIP('','',#453,#11);
#11=ADVANCED_BREP_SHAPE_REPRESENTATION('',(#451),#777);
#12=B_SPLINE_CURVE_WITH_KNOTS('',3,(#666,#667,#668,#669,#670),
 .UNSPECIFIED.,.F.,.F.,(4,1,4),(0.,0.000803718896170879,0.00160743779234176),
 .UNSPECIFIED.);
#13=B_SPLINE_CURVE_WITH_KNOTS('',3,(#674,#675,#676,#677,#678),
 .UNSPECIFIED.,.F.,.F.,(4,1,4),(0.,0.000803767238651994,0.00160753447730399),
 .UNSPECIFIED.);
#14=B_SPLINE_CURVE_WITH_KNOTS('',3,(#703,#704,#705,#706,#707),
 .UNSPECIFIED.,.F.,.F.,(4,1,4),(0.,0.000840401135051777,0.00168080227010355),
 .UNSPECIFIED.);
#15=B_SPLINE_CURVE_WITH_KNOTS('',3,(#711,#712,#713,#714,#715),
 .UNSPECIFIED.,.F.,.F.,(4,1,4),(0.,0.000839732967329079,0.00167946593465816),
 .UNSPECIFIED.);
#16=CYLINDRICAL_SURFACE('',#464,0.006);
#17=CYLINDRICAL_SURFACE('',#471,0.004);
#18=CYLINDRICAL_SURFACE('',#483,0.0015);
#19=CYLINDRICAL_SURFACE('',#485,0.0025);
#20=CYLINDRICAL_SURFACE('',#491,0.001);
#21=CYLINDRICAL_SURFACE('',#492,0.001);
#22=LINE('',#637,#56);
#23=LINE('',#641,#57);
#24=LINE('',#646,#58);
#25=LINE('',#650,#59);
#26=LINE('',#652,#60);
#27=LINE('',#657,#61);
#28=LINE('',#663,#62);
#29=LINE('',#680,#63);
#30=LINE('',#681,#64);
#31=LINE('',#685,#65);
#32=LINE('',#686,#66);
#33=LINE('',#690,#67);
#34=LINE('',#691,#68);
#35=LINE('',#695,#69);
#36=LINE('',#701,#70);
#37=LINE('',#717,#71);
#38=LINE('',#721,#72);
#39=LINE('',#725,#73);
#40=LINE('',#726,#74);
#41=LINE('',#730,#75);
#42=LINE('',#731,#76);
#43=LINE('',#735,#77);
#44=LINE('',#737,#78);
#45=LINE('',#738,#79);
#46=LINE('',#753,#80);
#47=LINE('',#754,#81);
#48=LINE('',#756,#82);
#49=LINE('',#758,#83);
#50=LINE('',#762,#84);
#51=LINE('',#764,#85);
#52=LINE('',#767,#86);
#53=LINE('',#769,#87);
#54=LINE('',#772,#88);
#55=LINE('',#774,#89);
#56=VECTOR('',#508,1.);
#57=VECTOR('',#511,1.);
#58=VECTOR('',#516,1.);
#59=VECTOR('',#519,1.);
#60=VECTOR('',#522,1.);
#61=VECTOR('',#525,1.);
#62=VECTOR('',#532,1.);
#63=VECTOR('',#535,1.);
#64=VECTOR('',#536,1.);
#65=VECTOR('',#539,1.);
#66=VECTOR('',#540,1.);
#67=VECTOR('',#543,1.);
#68=VECTOR('',#544,1.);
#69=VECTOR('',#547,1.);
#70=VECTOR('',#554,1.);
#71=VECTOR('',#557,1.);
#72=VECTOR('',#560,1.);
#73=VECTOR('',#563,1.);
#74=VECTOR('',#564,1.);
#75=VECTOR('',#567,1.);
#76=VECTOR('',#568,1.);
#77=VECTOR('',#571,1.);
#78=VECTOR('',#574,1.);
#79=VECTOR('',#575,1.);
#80=VECTOR('',#596,1.);
#81=VECTOR('',#597,1.);
#82=VECTOR('',#600,1.);
#83=VECTOR('',#603,1.);
#84=VECTOR('',#610,1.);
#85=VECTOR('',#613,1.);
#86=VECTOR('',#618,1.);
#87=VECTOR('',#621,1.);
#88=VECTOR('',#626,1.);
#89=VECTOR('',#629,1.);
#90=ORIENTED_EDGE('',*,*,#210,.F.);
#91=ORIENTED_EDGE('',*,*,#211,.T.);
#92=ORIENTED_EDGE('',*,*,#212,.T.);
#93=ORIENTED_EDGE('',*,*,#213,.F.);
#94=ORIENTED_EDGE('',*,*,#214,.F.);
#95=ORIENTED_EDGE('',*,*,#215,.T.);
#96=ORIENTED_EDGE('',*,*,#216,.T.);
#97=ORIENTED_EDGE('',*,*,#217,.F.);
#98=ORIENTED_EDGE('',*,*,#218,.F.);
#99=ORIENTED_EDGE('',*,*,#219,.F.);
#100=ORIENTED_EDGE('',*,*,#220,.T.);
#101=ORIENTED_EDGE('',*,*,#221,.T.);
#102=ORIENTED_EDGE('',*,*,#222,.T.);
#103=ORIENTED_EDGE('',*,*,#223,.F.);
#104=ORIENTED_EDGE('',*,*,#224,.T.);
#105=ORIENTED_EDGE('',*,*,#225,.F.);
#106=ORIENTED_EDGE('',*,*,#226,.T.);
#107=ORIENTED_EDGE('',*,*,#227,.T.);
#108=ORIENTED_EDGE('',*,*,#212,.F.);
#109=ORIENTED_EDGE('',*,*,#228,.F.);
#110=ORIENTED_EDGE('',*,*,#229,.F.);
#111=ORIENTED_EDGE('',*,*,#230,.T.);
#112=ORIENTED_EDGE('',*,*,#221,.F.);
#113=ORIENTED_EDGE('',*,*,#231,.F.);
#114=ORIENTED_EDGE('',*,*,#232,.F.);
#115=ORIENTED_EDGE('',*,*,#233,.T.);
#116=ORIENTED_EDGE('',*,*,#216,.F.);
#117=ORIENTED_EDGE('',*,*,#234,.F.);
#118=ORIENTED_EDGE('',*,*,#235,.F.);
#119=ORIENTED_EDGE('',*,*,#236,.T.);
#120=ORIENTED_EDGE('',*,*,#237,.F.);
#121=ORIENTED_EDGE('',*,*,#238,.F.);
#122=ORIENTED_EDGE('',*,*,#239,.F.);
#123=ORIENTED_EDGE('',*,*,#240,.T.);
#124=ORIENTED_EDGE('',*,*,#241,.T.);
#125=ORIENTED_EDGE('',*,*,#242,.T.);
#126=ORIENTED_EDGE('',*,*,#243,.T.);
#127=ORIENTED_EDGE('',*,*,#244,.T.);
#128=ORIENTED_EDGE('',*,*,#245,.F.);
#129=ORIENTED_EDGE('',*,*,#246,.T.);
#130=ORIENTED_EDGE('',*,*,#247,.T.);
#131=ORIENTED_EDGE('',*,*,#214,.T.);
#132=ORIENTED_EDGE('',*,*,#248,.F.);
#133=ORIENTED_EDGE('',*,*,#249,.T.);
#134=ORIENTED_EDGE('',*,*,#250,.T.);
#135=ORIENTED_EDGE('',*,*,#219,.T.);
#136=ORIENTED_EDGE('',*,*,#251,.F.);
#137=ORIENTED_EDGE('',*,*,#252,.T.);
#138=ORIENTED_EDGE('',*,*,#253,.T.);
#139=ORIENTED_EDGE('',*,*,#210,.T.);
#140=ORIENTED_EDGE('',*,*,#254,.F.);
#141=ORIENTED_EDGE('',*,*,#244,.F.);
#142=ORIENTED_EDGE('',*,*,#255,.T.);
#143=ORIENTED_EDGE('',*,*,#237,.T.);
#144=ORIENTED_EDGE('',*,*,#256,.T.);
#145=ORIENTED_EDGE('',*,*,#222,.F.);
#146=ORIENTED_EDGE('',*,*,#257,.F.);
#147=ORIENTED_EDGE('',*,*,#238,.T.);
#148=ORIENTED_EDGE('',*,*,#258,.T.);
#149=ORIENTED_EDGE('',*,*,#256,.F.);
#150=ORIENTED_EDGE('',*,*,#259,.F.);
#151=ORIENTED_EDGE('',*,*,#257,.T.);
#152=ORIENTED_EDGE('',*,*,#258,.F.);
#153=ORIENTED_EDGE('',*,*,#259,.T.);
#154=ORIENTED_EDGE('',*,*,#241,.F.);
#155=ORIENTED_EDGE('',*,*,#260,.T.);
#156=ORIENTED_EDGE('',*,*,#225,.T.);
#157=ORIENTED_EDGE('',*,*,#261,.T.);
#158=ORIENTED_EDGE('',*,*,#243,.F.);
#159=ORIENTED_EDGE('',*,*,#262,.T.);
#160=ORIENTED_EDGE('',*,*,#223,.T.);
#161=ORIENTED_EDGE('',*,*,#255,.F.);
#162=ORIENTED_EDGE('',*,*,#227,.F.);
#163=ORIENTED_EDGE('',*,*,#263,.T.);
#164=ORIENTED_EDGE('',*,*,#239,.T.);
#165=ORIENTED_EDGE('',*,*,#213,.T.);
#166=ORIENTED_EDGE('',*,*,#240,.F.);
#167=ORIENTED_EDGE('',*,*,#263,.F.);
#168=ORIENTED_EDGE('',*,*,#226,.F.);
#169=ORIENTED_EDGE('',*,*,#260,.F.);
#170=ORIENTED_EDGE('',*,*,#242,.F.);
#171=ORIENTED_EDGE('',*,*,#261,.F.);
#172=ORIENTED_EDGE('',*,*,#224,.F.);
#173=ORIENTED_EDGE('',*,*,#262,.F.);
#174=ORIENTED_EDGE('',*,*,#217,.T.);
#175=ORIENTED_EDGE('',*,*,#233,.F.);
#176=ORIENTED_EDGE('',*,*,#264,.F.);
#177=ORIENTED_EDGE('',*,*,#248,.T.);
#178=ORIENTED_EDGE('',*,*,#220,.F.);
#179=ORIENTED_EDGE('',*,*,#250,.F.);
#180=ORIENTED_EDGE('',*,*,#265,.T.);
#181=ORIENTED_EDGE('',*,*,#231,.T.);
#182=ORIENTED_EDGE('',*,*,#249,.F.);
#183=ORIENTED_EDGE('',*,*,#264,.T.);
#184=ORIENTED_EDGE('',*,*,#232,.T.);
#185=ORIENTED_EDGE('',*,*,#265,.F.);
#186=ORIENTED_EDGE('',*,*,#254,.T.);
#187=ORIENTED_EDGE('',*,*,#236,.F.);
#188=ORIENTED_EDGE('',*,*,#266,.F.);
#189=ORIENTED_EDGE('',*,*,#245,.T.);
#190=ORIENTED_EDGE('',*,*,#215,.F.);
#191=ORIENTED_EDGE('',*,*,#247,.F.);
#192=ORIENTED_EDGE('',*,*,#267,.T.);
#193=ORIENTED_EDGE('',*,*,#234,.T.);
#194=ORIENTED_EDGE('',*,*,#246,.F.);
#195=ORIENTED_EDGE('',*,*,#266,.T.);
#196=ORIENTED_EDGE('',*,*,#235,.T.);
#197=ORIENTED_EDGE('',*,*,#267,.F.);
#198=ORIENTED_EDGE('',*,*,#218,.T.);
#199=ORIENTED_EDGE('',*,*,#230,.F.);
#200=ORIENTED_EDGE('',*,*,#268,.F.);
#201=ORIENTED_EDGE('',*,*,#251,.T.);
#202=ORIENTED_EDGE('',*,*,#211,.F.);
#203=ORIENTED_EDGE('',*,*,#253,.F.);
#204=ORIENTED_EDGE('',*,*,#269,.T.);
#205=ORIENTED_EDGE('',*,*,#228,.T.);
#206=ORIENTED_EDGE('',*,*,#252,.F.);
#207=ORIENTED_EDGE('',*,*,#268,.T.);
#208=ORIENTED_EDGE('',*,*,#229,.T.);
#209=ORIENTED_EDGE('',*,*,#269,.F.);
#210=EDGE_CURVE('',#270,#271,#312,.T.);
#211=EDGE_CURVE('',#270,#272,#22,.T.);
#212=EDGE_CURVE('',#272,#273,#313,.T.);
#213=EDGE_CURVE('',#271,#273,#23,.T.);
#214=EDGE_CURVE('',#274,#275,#314,.T.);
#215=EDGE_CURVE('',#274,#276,#24,.T.);
#216=EDGE_CURVE('',#276,#277,#315,.T.);
#217=EDGE_CURVE('',#275,#277,#25,.T.);
#218=EDGE_CURVE('',#278,#279,#26,.T.);
#219=EDGE_CURVE('',#280,#278,#316,.T.);
#220=EDGE_CURVE('',#280,#281,#27,.T.);
#221=EDGE_CURVE('',#281,#279,#317,.T.);
#222=EDGE_CURVE('',#282,#282,#318,.T.);
#223=EDGE_CURVE('',#283,#284,#28,.F.);
#224=EDGE_CURVE('',#283,#285,#12,.T.);
#225=EDGE_CURVE('',#286,#285,#319,.T.);
#226=EDGE_CURVE('',#286,#287,#13,.T.);
#227=EDGE_CURVE('',#287,#273,#29,.F.);
#228=EDGE_CURVE('',#288,#272,#30,.T.);
#229=EDGE_CURVE('',#289,#288,#320,.T.);
#230=EDGE_CURVE('',#289,#279,#31,.T.);
#231=EDGE_CURVE('',#290,#281,#32,.T.);
#232=EDGE_CURVE('',#291,#290,#321,.T.);
#233=EDGE_CURVE('',#291,#277,#33,.T.);
#234=EDGE_CURVE('',#292,#276,#34,.T.);
#235=EDGE_CURVE('',#293,#292,#322,.T.);
#236=EDGE_CURVE('',#293,#294,#35,.T.);
#237=EDGE_CURVE('',#284,#294,#323,.T.);
#238=EDGE_CURVE('',#295,#295,#324,.T.);
#239=EDGE_CURVE('',#296,#271,#36,.F.);
#240=EDGE_CURVE('',#296,#297,#14,.T.);
#241=EDGE_CURVE('',#297,#298,#325,.T.);
#242=EDGE_CURVE('',#298,#299,#15,.T.);
#243=EDGE_CURVE('',#299,#300,#37,.F.);
#244=EDGE_CURVE('',#300,#301,#326,.T.);
#245=EDGE_CURVE('',#302,#301,#38,.T.);
#246=EDGE_CURVE('',#302,#303,#327,.T.);
#247=EDGE_CURVE('',#303,#274,#39,.T.);
#248=EDGE_CURVE('',#304,#275,#40,.T.);
#249=EDGE_CURVE('',#304,#305,#328,.T.);
#250=EDGE_CURVE('',#305,#280,#41,.T.);
#251=EDGE_CURVE('',#306,#278,#42,.T.);
#252=EDGE_CURVE('',#306,#307,#329,.T.);
#253=EDGE_CURVE('',#307,#270,#43,.T.);
#254=EDGE_CURVE('',#301,#294,#44,.T.);
#255=EDGE_CURVE('',#300,#284,#45,.T.);
#256=EDGE_CURVE('',#308,#308,#330,.T.);
#257=EDGE_CURVE('',#309,#309,#331,.T.);
#258=EDGE_CURVE('',#310,#310,#332,.T.);
#259=EDGE_CURVE('',#311,#311,#333,.T.);
#260=EDGE_CURVE('',#297,#286,#46,.T.);
#261=EDGE_CURVE('',#285,#298,#47,.F.);
#262=EDGE_CURVE('',#299,#283,#48,.T.);
#263=EDGE_CURVE('',#287,#296,#49,.F.);
#264=EDGE_CURVE('',#304,#291,#50,.T.);
#265=EDGE_CURVE('',#305,#290,#51,.T.);
#266=EDGE_CURVE('',#302,#293,#52,.T.);
#267=EDGE_CURVE('',#303,#292,#53,.T.);
#268=EDGE_CURVE('',#306,#289,#54,.T.);
#269=EDGE_CURVE('',#307,#288,#55,.T.);
#270=VERTEX_POINT('',#635);
#271=VERTEX_POINT('',#636);
#272=VERTEX_POINT('',#638);
#273=VERTEX_POINT('',#640);
#274=VERTEX_POINT('',#644);
#275=VERTEX_POINT('',#645);
#276=VERTEX_POINT('',#647);
#277=VERTEX_POINT('',#649);
#278=VERTEX_POINT('',#653);
#279=VERTEX_POINT('',#654);
#280=VERTEX_POINT('',#656);
#281=VERTEX_POINT('',#658);
#282=VERTEX_POINT('',#662);
#283=VERTEX_POINT('',#664);
#284=VERTEX_POINT('',#665);
#285=VERTEX_POINT('',#671);
#286=VERTEX_POINT('',#673);
#287=VERTEX_POINT('',#679);
#288=VERTEX_POINT('',#682);
#289=VERTEX_POINT('',#684);
#290=VERTEX_POINT('',#687);
#291=VERTEX_POINT('',#689);
#292=VERTEX_POINT('',#692);
#293=VERTEX_POINT('',#694);
#294=VERTEX_POINT('',#696);
#295=VERTEX_POINT('',#700);
#296=VERTEX_POINT('',#702);
#297=VERTEX_POINT('',#708);
#298=VERTEX_POINT('',#710);
#299=VERTEX_POINT('',#716);
#300=VERTEX_POINT('',#718);
#301=VERTEX_POINT('',#720);
#302=VERTEX_POINT('',#722);
#303=VERTEX_POINT('',#724);
#304=VERTEX_POINT('',#727);
#305=VERTEX_POINT('',#729);
#306=VERTEX_POINT('',#732);
#307=VERTEX_POINT('',#734);
#308=VERTEX_POINT('',#741);
#309=VERTEX_POINT('',#744);
#310=VERTEX_POINT('',#747);
#311=VERTEX_POINT('',#750);
#312=CIRCLE('',#456,0.004);
#313=CIRCLE('',#457,0.006);
#314=CIRCLE('',#459,0.004);
#315=CIRCLE('',#460,0.006);
#316=CIRCLE('',#462,0.004);
#317=CIRCLE('',#463,0.006);
#318=CIRCLE('',#465,0.006);
#319=CIRCLE('',#466,0.006);
#320=CIRCLE('',#467,0.006);
#321=CIRCLE('',#468,0.006);
#322=CIRCLE('',#469,0.006);
#323=CIRCLE('',#470,0.006);
#324=CIRCLE('',#472,0.004);
#325=CIRCLE('',#473,0.004);
#326=CIRCLE('',#474,0.004);
#327=CIRCLE('',#475,0.004);
#328=CIRCLE('',#476,0.004);
#329=CIRCLE('',#477,0.004);
#330=CIRCLE('',#480,0.0015);
#331=CIRCLE('',#482,0.0025);
#332=CIRCLE('',#484,0.0015);
#333=CIRCLE('',#486,0.0025);
#334=EDGE_LOOP('',(#90,#91,#92,#93));
#335=EDGE_LOOP('',(#94,#95,#96,#97));
#336=EDGE_LOOP('',(#98,#99,#100,#101));
#337=EDGE_LOOP('',(#102));
#338=EDGE_LOOP('',(#103,#104,#105,#106,#107,#108,#109,#110,#111,#112,#113,
#114,#115,#116,#117,#118,#119,#120));
#339=EDGE_LOOP('',(#121));
#340=EDGE_LOOP('',(#122,#123,#124,#125,#126,#127,#128,#129,#130,#131,#132,
#133,#134,#135,#136,#137,#138,#139));
#341=EDGE_LOOP('',(#140,#141,#142,#143));
#342=EDGE_LOOP('',(#144));
#343=EDGE_LOOP('',(#145));
#344=EDGE_LOOP('',(#146));
#345=EDGE_LOOP('',(#147));
#346=EDGE_LOOP('',(#148));
#347=EDGE_LOOP('',(#149));
#348=EDGE_LOOP('',(#150));
#349=EDGE_LOOP('',(#151));
#350=EDGE_LOOP('',(#152));
#351=EDGE_LOOP('',(#153));
#352=EDGE_LOOP('',(#154,#155,#156,#157));
#353=EDGE_LOOP('',(#158,#159,#160,#161));
#354=EDGE_LOOP('',(#162,#163,#164,#165));
#355=EDGE_LOOP('',(#166,#167,#168,#169));
#356=EDGE_LOOP('',(#170,#171,#172,#173));
#357=EDGE_LOOP('',(#174,#175,#176,#177));
#358=EDGE_LOOP('',(#178,#179,#180,#181));
#359=EDGE_LOOP('',(#182,#183,#184,#185));
#360=EDGE_LOOP('',(#186,#187,#188,#189));
#361=EDGE_LOOP('',(#190,#191,#192,#193));
#362=EDGE_LOOP('',(#194,#195,#196,#197));
#363=EDGE_LOOP('',(#198,#199,#200,#201));
#364=EDGE_LOOP('',(#202,#203,#204,#205));
#365=EDGE_LOOP('',(#206,#207,#208,#209));
#366=FACE_BOUND('',#334,.T.);
#367=FACE_BOUND('',#335,.T.);
#368=FACE_BOUND('',#336,.T.);
#369=FACE_BOUND('',#337,.T.);
#370=FACE_BOUND('',#338,.T.);
#371=FACE_BOUND('',#339,.T.);
#372=FACE_BOUND('',#340,.T.);
#373=FACE_BOUND('',#341,.T.);
#374=FACE_BOUND('',#342,.T.);
#375=FACE_BOUND('',#343,.T.);
#376=FACE_BOUND('',#344,.T.);
#377=FACE_BOUND('',#345,.T.);
#378=FACE_BOUND('',#346,.T.);
#379=FACE_BOUND('',#347,.T.);
#380=FACE_BOUND('',#348,.T.);
#381=FACE_BOUND('',#349,.T.);
#382=FACE_BOUND('',#350,.T.);
#383=FACE_BOUND('',#351,.T.);
#384=FACE_BOUND('',#352,.T.);
#385=FACE_BOUND('',#353,.T.);
#386=FACE_BOUND('',#354,.T.);
#387=FACE_BOUND('',#355,.T.);
#388=FACE_BOUND('',#356,.T.);
#389=FACE_BOUND('',#357,.T.);
#390=FACE_BOUND('',#358,.T.);
#391=FACE_BOUND('',#359,.T.);
#392=FACE_BOUND('',#360,.T.);
#393=FACE_BOUND('',#361,.T.);
#394=FACE_BOUND('',#362,.T.);
#395=FACE_BOUND('',#363,.T.);
#396=FACE_BOUND('',#364,.T.);
#397=FACE_BOUND('',#365,.T.);
#398=PLANE('',#455);
#399=PLANE('',#458);
#400=PLANE('',#461);
#401=PLANE('',#478);
#402=PLANE('',#479);
#403=PLANE('',#481);
#404=PLANE('',#487);
#405=PLANE('',#488);
#406=PLANE('',#489);
#407=PLANE('',#490);
#408=PLANE('',#493);
#409=PLANE('',#494);
#410=PLANE('',#495);
#411=PLANE('',#496);
#412=PLANE('',#497);
#413=PLANE('',#498);
#414=PLANE('',#499);
#415=PLANE('',#500);
#416=PLANE('',#501);
#417=ADVANCED_FACE('',(#366),#398,.T.);
#418=ADVANCED_FACE('',(#367),#399,.T.);
#419=ADVANCED_FACE('',(#368),#400,.T.);
#420=ADVANCED_FACE('',(#369,#370),#16,.T.);
#421=ADVANCED_FACE('',(#371,#372),#17,.F.);
#422=ADVANCED_FACE('',(#373),#401,.T.);
#423=ADVANCED_FACE('',(#374,#375),#402,.F.);
#424=ADVANCED_FACE('',(#376,#377),#403,.T.);
#425=ADVANCED_FACE('',(#378,#379),#18,.F.);
#426=ADVANCED_FACE('',(#380,#381),#19,.T.);
#427=ADVANCED_FACE('',(#382,#383),#404,.T.);
#428=ADVANCED_FACE('',(#384),#405,.T.);
#429=ADVANCED_FACE('',(#385),#406,.T.);
#430=ADVANCED_FACE('',(#386),#407,.F.);
#431=ADVANCED_FACE('',(#387),#20,.F.);
#432=ADVANCED_FACE('',(#388),#21,.F.);
#433=ADVANCED_FACE('',(#389),#408,.F.);
#434=ADVANCED_FACE('',(#390),#409,.T.);
#435=ADVANCED_FACE('',(#391),#410,.T.);
#436=ADVANCED_FACE('',(#392),#411,.F.);
#437=ADVANCED_FACE('',(#393),#412,.T.);
#438=ADVANCED_FACE('',(#394),#413,.T.);
#439=ADVANCED_FACE('',(#395),#414,.F.);
#440=ADVANCED_FACE('',(#396),#415,.T.);
#441=ADVANCED_FACE('',(#397),#416,.T.);
#442=CLOSED_SHELL('',(#417,#418,#419,#420,#421,#422,#423,#424,#425,#426,
#427,#428,#429,#430,#431,#432,#433,#434,#435,#436,#437,#438,#439,#440,#441));
#443=STYLED_ITEM('',(#444),#451);
#444=PRESENTATION_STYLE_ASSIGNMENT((#445));
#445=SURFACE_STYLE_USAGE(.BOTH.,#446);
#446=SURFACE_SIDE_STYLE('',(#447));
#447=SURFACE_STYLE_FILL_AREA(#448);
#448=FILL_AREA_STYLE('',(#449));
#449=FILL_AREA_STYLE_COLOUR('',#450);
#450=COLOUR_RGB('',0.768627450980392,0.886274509803922,0.952941176470588);
#451=MANIFOLD_SOLID_BREP('rubberband_housing',#442);
#452=SHAPE_DEFINITION_REPRESENTATION(#782,#453);
#453=SHAPE_REPRESENTATION('rubberband_housing',(#454),#777);
#454=AXIS2_PLACEMENT_3D('',#632,#502,#503);
#455=AXIS2_PLACEMENT_3D('',#633,#504,#505);
#456=AXIS2_PLACEMENT_3D('',#634,#506,#507);
#457=AXIS2_PLACEMENT_3D('',#639,#509,#510);
#458=AXIS2_PLACEMENT_3D('',#642,#512,#513);
#459=AXIS2_PLACEMENT_3D('',#643,#514,#515);
#460=AXIS2_PLACEMENT_3D('',#648,#517,#518);
#461=AXIS2_PLACEMENT_3D('',#651,#520,#521);
#462=AXIS2_PLACEMENT_3D('',#655,#523,#524);
#463=AXIS2_PLACEMENT_3D('',#659,#526,#527);
#464=AXIS2_PLACEMENT_3D('',#660,#528,#529);
#465=AXIS2_PLACEMENT_3D('',#661,#530,#531);
#466=AXIS2_PLACEMENT_3D('',#672,#533,#534);
#467=AXIS2_PLACEMENT_3D('',#683,#537,#538);
#468=AXIS2_PLACEMENT_3D('',#688,#541,#542);
#469=AXIS2_PLACEMENT_3D('',#693,#545,#546);
#470=AXIS2_PLACEMENT_3D('',#697,#548,#549);
#471=AXIS2_PLACEMENT_3D('',#698,#550,#551);
#472=AXIS2_PLACEMENT_3D('',#699,#552,#553);
#473=AXIS2_PLACEMENT_3D('',#709,#555,#556);
#474=AXIS2_PLACEMENT_3D('',#719,#558,#559);
#475=AXIS2_PLACEMENT_3D('',#723,#561,#562);
#476=AXIS2_PLACEMENT_3D('',#728,#565,#566);
#477=AXIS2_PLACEMENT_3D('',#733,#569,#570);
#478=AXIS2_PLACEMENT_3D('',#736,#572,#573);
#479=AXIS2_PLACEMENT_3D('',#739,#576,#577);
#480=AXIS2_PLACEMENT_3D('',#740,#578,#579);
#481=AXIS2_PLACEMENT_3D('',#742,#580,#581);
#482=AXIS2_PLACEMENT_3D('',#743,#582,#583);
#483=AXIS2_PLACEMENT_3D('',#745,#584,#585);
#484=AXIS2_PLACEMENT_3D('',#746,#586,#587);
#485=AXIS2_PLACEMENT_3D('',#748,#588,#589);
#486=AXIS2_PLACEMENT_3D('',#749,#590,#591);
#487=AXIS2_PLACEMENT_3D('',#751,#592,#593);
#488=AXIS2_PLACEMENT_3D('',#752,#594,#595);
#489=AXIS2_PLACEMENT_3D('',#755,#598,#599);
#490=AXIS2_PLACEMENT_3D('',#757,#601,#602);
#491=AXIS2_PLACEMENT_3D('',#759,#604,#605);
#492=AXIS2_PLACEMENT_3D('',#760,#606,#607);
#493=AXIS2_PLACEMENT_3D('',#761,#608,#609);
#494=AXIS2_PLACEMENT_3D('',#763,#611,#612);
#495=AXIS2_PLACEMENT_3D('',#765,#614,#615);
#496=AXIS2_PLACEMENT_3D('',#766,#616,#617);
#497=AXIS2_PLACEMENT_3D('',#768,#619,#620);
#498=AXIS2_PLACEMENT_3D('',#770,#622,#623);
#499=AXIS2_PLACEMENT_3D('',#771,#624,#625);
#500=AXIS2_PLACEMENT_3D('',#773,#627,#628);
#501=AXIS2_PLACEMENT_3D('',#775,#630,#631);
#502=DIRECTION('',(0.,0.,1.));
#503=DIRECTION('',(1.,0.,0.));
#504=DIRECTION('',(0.,0.,1.));
#505=DIRECTION('',(1.,0.,0.));
#506=DIRECTION('',(0.,0.,1.));
#507=DIRECTION('',(1.,0.,0.));
#508=DIRECTION('',(-1.,0.,0.));
#509=DIRECTION('',(0.,0.,1.));
#510=DIRECTION('',(1.,0.,0.));
#511=DIRECTION('',(0.,-1.,0.));
#512=DIRECTION('',(0.,0.,1.));
#513=DIRECTION('',(1.,0.,0.));
#514=DIRECTION('',(0.,0.,1.));
#515=DIRECTION('',(1.,0.,0.));
#516=DIRECTION('',(1.,1.04207600596387E-16,0.));
#517=DIRECTION('',(0.,0.,1.));
#518=DIRECTION('',(1.,0.,0.));
#519=DIRECTION('',(0.,1.,0.));
#520=DIRECTION('',(0.,0.,1.));
#521=DIRECTION('',(1.,0.,0.));
#522=DIRECTION('',(-1.,-1.04207600596387E-16,0.));
#523=DIRECTION('',(0.,0.,1.));
#524=DIRECTION('',(1.,0.,0.));
#525=DIRECTION('',(0.,1.,0.));
#526=DIRECTION('',(0.,0.,1.));
#527=DIRECTION('',(1.,0.,0.));
#528=DIRECTION('',(0.,0.,-1.));
#529=DIRECTION('',(-1.,0.,0.));
#530=DIRECTION('',(0.,0.,1.));
#531=DIRECTION('',(1.,0.,0.));
#532=DIRECTION('',(0.,0.,-1.));
#533=DIRECTION('',(0.,0.,1.));
#534=DIRECTION('',(1.,0.,0.));
#535=DIRECTION('',(0.,0.,-1.));
#536=DIRECTION('',(0.,0.,-1.));
#537=DIRECTION('',(0.,0.,1.));
#538=DIRECTION('',(1.,0.,0.));
#539=DIRECTION('',(0.,0.,-1.));
#540=DIRECTION('',(0.,0.,-1.));
#541=DIRECTION('',(0.,0.,1.));
#542=DIRECTION('',(1.,0.,0.));
#543=DIRECTION('',(0.,0.,-1.));
#544=DIRECTION('',(0.,0.,-1.));
#545=DIRECTION('',(0.,0.,1.));
#546=DIRECTION('',(1.,0.,0.));
#547=DIRECTION('',(0.,0.,-1.));
#548=DIRECTION('',(0.,0.,1.));
#549=DIRECTION('',(1.,0.,0.));
#550=DIRECTION('',(0.,0.,-1.));
#551=DIRECTION('',(-1.,0.,0.));
#552=DIRECTION('',(0.,0.,1.));
#553=DIRECTION('',(1.,0.,0.));
#554=DIRECTION('',(0.,0.,-1.));
#555=DIRECTION('',(0.,0.,1.));
#556=DIRECTION('',(1.,0.,0.));
#557=DIRECTION('',(0.,0.,-1.));
#558=DIRECTION('',(0.,0.,1.));
#559=DIRECTION('',(1.,0.,0.));
#560=DIRECTION('',(0.,0.,-1.));
#561=DIRECTION('',(0.,0.,1.));
#562=DIRECTION('',(1.,0.,0.));
#563=DIRECTION('',(0.,0.,-1.));
#564=DIRECTION('',(0.,0.,-1.));
#565=DIRECTION('',(0.,0.,1.));
#566=DIRECTION('',(1.,0.,0.));
#567=DIRECTION('',(0.,0.,-1.));
#568=DIRECTION('',(0.,0.,-1.));
#569=DIRECTION('',(0.,0.,1.));
#570=DIRECTION('',(1.,0.,0.));
#571=DIRECTION('',(0.,0.,-1.));
#572=DIRECTION('',(0.,0.,1.));
#573=DIRECTION('',(1.,0.,0.));
#574=DIRECTION('',(1.,0.,0.));
#575=DIRECTION('',(0.,-1.,0.));
#576=DIRECTION('',(0.,0.,1.));
#577=DIRECTION('',(1.,0.,0.));
#578=DIRECTION('',(0.,0.,1.));
#579=DIRECTION('',(1.,0.,0.));
#580=DIRECTION('',(0.,0.,1.));
#581=DIRECTION('',(1.,0.,0.));
#582=DIRECTION('',(0.,0.,1.));
#583=DIRECTION('',(1.,0.,0.));
#584=DIRECTION('',(0.,0.,-1.));
#585=DIRECTION('',(-1.,0.,0.));
#586=DIRECTION('',(0.,0.,1.));
#587=DIRECTION('',(1.,0.,0.));
#588=DIRECTION('',(0.,0.,-1.));
#589=DIRECTION('',(-1.,0.,0.));
#590=DIRECTION('',(0.,0.,1.));
#591=DIRECTION('',(1.,0.,0.));
#592=DIRECTION('',(0.,0.,1.));
#593=DIRECTION('',(1.,0.,0.));
#594=DIRECTION('',(0.,0.,1.));
#595=DIRECTION('',(1.,0.,0.));
#596=DIRECTION('',(0.,-1.,0.));
#597=DIRECTION('',(0.,-1.,0.));
#598=DIRECTION('',(-1.,0.,0.));
#599=DIRECTION('',(0.,0.,1.));
#600=DIRECTION('',(0.,-1.,0.));
#601=DIRECTION('',(-1.,0.,0.));
#602=DIRECTION('',(0.,0.,1.));
#603=DIRECTION('',(0.,-1.,0.));
#604=DIRECTION('',(0.,-1.,0.));
#605=DIRECTION('',(0.,0.,-1.));
#606=DIRECTION('',(0.,1.,0.));
#607=DIRECTION('',(0.,0.,1.));
#608=DIRECTION('',(-1.,0.,0.));
#609=DIRECTION('',(0.,0.,1.));
#610=DIRECTION('',(0.,1.,0.));
#611=DIRECTION('',(-1.,0.,0.));
#612=DIRECTION('',(0.,0.,1.));
#613=DIRECTION('',(0.,1.,0.));
#614=DIRECTION('',(0.,0.,1.));
#615=DIRECTION('',(1.,0.,0.));
#616=DIRECTION('',(0.,1.,0.));
#617=DIRECTION('',(0.,0.,1.));
#618=DIRECTION('',(1.,0.,0.));
#619=DIRECTION('',(-1.04207600596387E-16,1.,0.));
#620=DIRECTION('',(-1.,-1.04207600596387E-16,0.));
#621=DIRECTION('',(1.,1.04207600596387E-16,0.));
#622=DIRECTION('',(0.,0.,1.));
#623=DIRECTION('',(1.,0.,0.));
#624=DIRECTION('',(1.04207600596387E-16,-1.,0.));
#625=DIRECTION('',(1.,1.04207600596387E-16,0.));
#626=DIRECTION('',(-1.,-1.04207600596387E-16,0.));
#627=DIRECTION('',(0.,-1.,0.));
#628=DIRECTION('',(0.,0.,-1.));
#629=DIRECTION('',(-1.,0.,0.));
#630=DIRECTION('',(0.,0.,1.));
#631=DIRECTION('',(1.,0.,0.));
#632=CARTESIAN_POINT('',(0.,0.,0.));
#633=CARTESIAN_POINT('',(0.05,0.,0.0055));
#634=CARTESIAN_POINT('',(0.05,2.4492935982947E-19,0.0055));
#635=CARTESIAN_POINT('',(0.0462346978872871,-0.00135000000000002,0.0055));
#636=CARTESIAN_POINT('',(0.0475,-0.0031224989991992,0.0055));
#637=CARTESIAN_POINT('',(0.0451942726531578,-0.00135000000000002,0.0055));
#638=CARTESIAN_POINT('',(0.0441538474190285,-0.00135000000000002,0.0055));
#639=CARTESIAN_POINT('',(0.05,3.67394039744206E-19,0.0055));
#640=CARTESIAN_POINT('',(0.0475,-0.00545435605731785,0.0055));
#641=CARTESIAN_POINT('',(0.0475,-0.006,0.0055));
#642=CARTESIAN_POINT('',(0.05,0.,0.0055));
#643=CARTESIAN_POINT('',(0.05,2.4492935982947E-19,0.0055));
#644=CARTESIAN_POINT('',(0.0537653021127129,0.00134999999999998,0.0055));
#645=CARTESIAN_POINT('',(0.05135,0.00376530211271287,0.0055));
#646=CARTESIAN_POINT('',(0.0548057273468422,0.00134999999999998,0.0055));
#647=CARTESIAN_POINT('',(0.0558461525809715,0.00134999999999998,0.0055));
#648=CARTESIAN_POINT('',(0.05,3.67394039744206E-19,0.0055));
#649=CARTESIAN_POINT('',(0.05135,0.00584615258097152,0.0055));
#650=CARTESIAN_POINT('',(0.05135,0.00480572734684219,0.0055));
#651=CARTESIAN_POINT('',(0.05,0.,0.0055));
#652=CARTESIAN_POINT('',(0.0451942726531578,0.00134999999999998,0.0055));
#653=CARTESIAN_POINT('',(0.0462346978872871,0.00134999999999998,0.0055));
#654=CARTESIAN_POINT('',(0.0441538474190285,0.00134999999999998,0.0055));
#655=CARTESIAN_POINT('',(0.05,2.4492935982947E-19,0.0055));
#656=CARTESIAN_POINT('',(0.04865,0.00376530211271286,0.0055));
#657=CARTESIAN_POINT('',(0.04865,0.00480572734684218,0.0055));
#658=CARTESIAN_POINT('',(0.04865,0.00584615258097151,0.0055));
#659=CARTESIAN_POINT('',(0.05,3.67394039744206E-19,0.0055));
#660=CARTESIAN_POINT('',(0.05,3.67394039744206E-19,0.002));
#661=CARTESIAN_POINT('',(0.05,3.67394039744206E-19,0.));
#662=CARTESIAN_POINT('',(0.056,3.67394039744206E-19,0.));
#663=CARTESIAN_POINT('',(0.0525,-0.00545435605731785,0.002));
#664=CARTESIAN_POINT('',(0.0525,-0.00545435605731785,0.0035));
#665=CARTESIAN_POINT('',(0.0525,-0.00545435605731785,0.0055));
#666=CARTESIAN_POINT('',(0.0525,-0.00545435605731785,0.0035));
#667=CARTESIAN_POINT('',(0.0525,-0.00545435605731785,0.00322801802079179));
#668=CARTESIAN_POINT('',(0.0522688636887863,-0.00556612389452809,0.0027080544392936));
#669=CARTESIAN_POINT('',(0.0517629848234844,-0.0057415726298671,0.0025));
#670=CARTESIAN_POINT('',(0.0515,-0.00580947501931112,0.0025));
#671=CARTESIAN_POINT('',(0.0515,-0.00580947501931112,0.0025));
#672=CARTESIAN_POINT('',(0.05,3.67394039744206E-19,0.0025));
#673=CARTESIAN_POINT('',(0.0485,-0.00580947501931112,0.0025));
#674=CARTESIAN_POINT('',(0.0485,-0.00580947501931112,0.0025));
#675=CARTESIAN_POINT('',(0.0482367568738786,-0.00574150593641301,0.0025));
#676=CARTESIAN_POINT('',(0.0477317338162809,-0.00556634183282378,0.00270775307563378));
#677=CARTESIAN_POINT('',(0.0475,-0.00545435605731785,0.00322770243428462));
#678=CARTESIAN_POINT('',(0.0475,-0.00545435605731785,0.0035));
#679=CARTESIAN_POINT('',(0.0475,-0.00545435605731785,0.0035));
#680=CARTESIAN_POINT('',(0.0475,-0.00545435605731785,0.002));
#681=CARTESIAN_POINT('',(0.0441538474190285,-0.00135000000000002,0.0082));
#682=CARTESIAN_POINT('',(0.0441538474190285,-0.00135000000000002,0.0082));
#683=CARTESIAN_POINT('',(0.05,3.67394039744206E-19,0.0082));
#684=CARTESIAN_POINT('',(0.0441538474190285,0.00134999999999998,0.0082));
#685=CARTESIAN_POINT('',(0.0441538474190285,0.00134999999999998,0.0082));
#686=CARTESIAN_POINT('',(0.04865,0.00584615258097151,0.0082));
#687=CARTESIAN_POINT('',(0.04865,0.00584615258097151,0.0082));
#688=CARTESIAN_POINT('',(0.05,3.67394039744206E-19,0.0082));
#689=CARTESIAN_POINT('',(0.05135,0.00584615258097152,0.0082));
#690=CARTESIAN_POINT('',(0.05135,0.00584615258097152,0.0082));
#691=CARTESIAN_POINT('',(0.0558461525809715,0.00134999999999998,0.0082));
#692=CARTESIAN_POINT('',(0.0558461525809715,0.00134999999999998,0.0082));
#693=CARTESIAN_POINT('',(0.05,3.67394039744206E-19,0.0082));
#694=CARTESIAN_POINT('',(0.0558461525809715,-0.00135000000000002,0.0082));
#695=CARTESIAN_POINT('',(0.0558461525809715,-0.00135000000000002,0.0082));
#696=CARTESIAN_POINT('',(0.0558461525809715,-0.00135000000000002,0.0055));
#697=CARTESIAN_POINT('',(0.05,3.67394039744206E-19,0.0055));
#698=CARTESIAN_POINT('',(0.05,2.4492935982947E-19,0.0055));
#699=CARTESIAN_POINT('',(0.05,2.4492935982947E-19,0.002));
#700=CARTESIAN_POINT('',(0.054,2.4492935982947E-19,0.002));
#701=CARTESIAN_POINT('',(0.0475,-0.0031224989991992,0.0055));
#702=CARTESIAN_POINT('',(0.0475,-0.0031224989991992,0.0035));
#703=CARTESIAN_POINT('',(0.0475,-0.0031224989991992,0.0035));
#704=CARTESIAN_POINT('',(0.0475,-0.0031224989991992,0.00321511732814924));
#705=CARTESIAN_POINT('',(0.0477497859302239,-0.0033311714625542,0.00269663986916817));
#706=CARTESIAN_POINT('',(0.0482366205350138,-0.00360155700410622,0.0025));
#707=CARTESIAN_POINT('',(0.0485,-0.00370809924354783,0.0025));
#708=CARTESIAN_POINT('',(0.0485,-0.00370809924354783,0.0025));
#709=CARTESIAN_POINT('',(0.05,2.4492935982947E-19,0.0025));
#710=CARTESIAN_POINT('',(0.0515,-0.00370809924354783,0.0025));
#711=CARTESIAN_POINT('',(0.0515,-0.00370809924354783,0.0025));
#712=CARTESIAN_POINT('',(0.0517634385421598,-0.00360153310621284,0.0025));
#713=CARTESIAN_POINT('',(0.0522501525771555,-0.00333120433105885,0.00269678962824337));
#714=CARTESIAN_POINT('',(0.0525,-0.0031224989991992,0.00321475672771776));
#715=CARTESIAN_POINT('',(0.0525,-0.0031224989991992,0.0035));
#716=CARTESIAN_POINT('',(0.0525,-0.0031224989991992,0.0035));
#717=CARTESIAN_POINT('',(0.0525,-0.0031224989991992,0.0055));
#718=CARTESIAN_POINT('',(0.0525,-0.0031224989991992,0.0055));
#719=CARTESIAN_POINT('',(0.05,2.4492935982947E-19,0.0055));
#720=CARTESIAN_POINT('',(0.0537653021127129,-0.00135000000000002,0.0055));
#721=CARTESIAN_POINT('',(0.0537653021127129,-0.00135000000000002,0.0082));
#722=CARTESIAN_POINT('',(0.0537653021127129,-0.00135000000000002,0.0082));
#723=CARTESIAN_POINT('',(0.05,2.4492935982947E-19,0.0082));
#724=CARTESIAN_POINT('',(0.0537653021127129,0.00134999999999998,0.0082));
#725=CARTESIAN_POINT('',(0.0537653021127129,0.00134999999999998,0.0082));
#726=CARTESIAN_POINT('',(0.05135,0.00376530211271287,0.0082));
#727=CARTESIAN_POINT('',(0.05135,0.00376530211271287,0.0082));
#728=CARTESIAN_POINT('',(0.05,2.4492935982947E-19,0.0082));
#729=CARTESIAN_POINT('',(0.04865,0.00376530211271286,0.0082));
#730=CARTESIAN_POINT('',(0.04865,0.00376530211271286,0.0082));
#731=CARTESIAN_POINT('',(0.0462346978872871,0.00134999999999998,0.0082));
#732=CARTESIAN_POINT('',(0.0462346978872871,0.00134999999999998,0.0082));
#733=CARTESIAN_POINT('',(0.05,2.4492935982947E-19,0.0082));
#734=CARTESIAN_POINT('',(0.0462346978872871,-0.00135000000000002,0.0082));
#735=CARTESIAN_POINT('',(0.0462346978872871,-0.00135000000000002,0.0082));
#736=CARTESIAN_POINT('',(0.05,0.,0.0055));
#737=CARTESIAN_POINT('',(0.0548057273468422,-0.00135000000000002,0.0055));
#738=CARTESIAN_POINT('',(0.0525,-0.006,0.0055));
#739=CARTESIAN_POINT('',(0.05,0.,0.));
#740=CARTESIAN_POINT('',(0.05,1.83697019872103E-19,0.));
#741=CARTESIAN_POINT('',(0.0515,1.83697019872103E-19,0.));
#742=CARTESIAN_POINT('',(0.05,0.,0.002));
#743=CARTESIAN_POINT('',(0.05,1.53080849893419E-19,0.002));
#744=CARTESIAN_POINT('',(0.0525,1.53080849893419E-19,0.002));
#745=CARTESIAN_POINT('',(0.05,9.18485099360515E-20,0.0055));
#746=CARTESIAN_POINT('',(0.05,9.18485099360515E-20,0.0055));
#747=CARTESIAN_POINT('',(0.0515,9.18485099360515E-20,0.0055));
#748=CARTESIAN_POINT('',(0.05,1.53080849893419E-19,0.0055));
#749=CARTESIAN_POINT('',(0.05,1.53080849893419E-19,0.0055));
#750=CARTESIAN_POINT('',(0.0525,1.53080849893419E-19,0.0055));
#751=CARTESIAN_POINT('',(0.05,0.,0.0055));
#752=CARTESIAN_POINT('',(0.05,-0.00444076414592564,0.0025));
#753=CARTESIAN_POINT('',(0.0485,-0.00444076414592564,0.0025));
#754=CARTESIAN_POINT('',(0.0515,-0.0031224989991992,0.0025));
#755=CARTESIAN_POINT('',(0.0525,-0.006,0.0025));
#756=CARTESIAN_POINT('',(0.0525,-0.00545435605731785,0.0035));
#757=CARTESIAN_POINT('',(0.0475,-0.006,0.0025));
#758=CARTESIAN_POINT('',(0.0475,-0.006,0.0035));
#759=CARTESIAN_POINT('',(0.0485,-0.00444076414592564,0.0035));
#760=CARTESIAN_POINT('',(0.0515,-0.006,0.0035));
#761=CARTESIAN_POINT('',(0.05135,0.00480572734684219,0.0082));
#762=CARTESIAN_POINT('',(0.05135,0.00480572734684219,0.0082));
#763=CARTESIAN_POINT('',(0.04865,0.00480572734684218,0.0082));
#764=CARTESIAN_POINT('',(0.04865,0.00480572734684218,0.0082));
#765=CARTESIAN_POINT('',(0.05,0.000272821971341072,0.0082));
#766=CARTESIAN_POINT('',(0.0548057273468422,-0.00135000000000002,0.0082));
#767=CARTESIAN_POINT('',(0.0548057273468422,-0.00135000000000002,0.0082));
#768=CARTESIAN_POINT('',(0.0548057273468422,0.00134999999999998,0.0082));
#769=CARTESIAN_POINT('',(0.0548057273468422,0.00134999999999998,0.0082));
#770=CARTESIAN_POINT('',(0.05,0.000272821971341072,0.0082));
#771=CARTESIAN_POINT('',(0.0451942726531578,0.00134999999999998,0.0082));
#772=CARTESIAN_POINT('',(0.0451942726531578,0.00134999999999998,0.0082));
#773=CARTESIAN_POINT('',(0.0451942726531578,-0.00135000000000002,0.0082));
#774=CARTESIAN_POINT('',(0.0451942726531578,-0.00135000000000002,0.0082));
#775=CARTESIAN_POINT('',(0.05,0.000272821971341072,0.0082));
#776=MECHANICAL_DESIGN_GEOMETRIC_PRESENTATION_REPRESENTATION('',(#443),
#777);
#777=(
GEOMETRIC_REPRESENTATION_CONTEXT(3)
GLOBAL_UNCERTAINTY_ASSIGNED_CONTEXT((#778))
GLOBAL_UNIT_ASSIGNED_CONTEXT((#781,#780,#779))
REPRESENTATION_CONTEXT('rubberband_housing','TOP_LEVEL_ASSEMBLY_PART')
);
#778=UNCERTAINTY_MEASURE_WITH_UNIT(LENGTH_MEASURE(2.E-5),#781,
'DISTANCE_ACCURACY_VALUE','Maximum Tolerance applied to model');
#779=(
NAMED_UNIT(*)
SI_UNIT($,.STERADIAN.)
SOLID_ANGLE_UNIT()
);
#780=(
NAMED_UNIT(*)
PLANE_ANGLE_UNIT()
SI_UNIT($,.RADIAN.)
);
#781=(
LENGTH_UNIT()
NAMED_UNIT(*)
SI_UNIT($,.METRE.)
);
#782=PRODUCT_DEFINITION_SHAPE('','',#783);
#783=PRODUCT_DEFINITION('','',#785,#784);
#784=PRODUCT_DEFINITION_CONTEXT('',#791,'design');
#785=PRODUCT_DEFINITION_FORMATION_WITH_SPECIFIED_SOURCE('','',#787,
 .NOT_KNOWN.);
#786=PRODUCT_RELATED_PRODUCT_CATEGORY('','',(#787));
#787=PRODUCT('rubberband_housing','rubberband_housing',
'rubberband_housing',(#789));
#788=PRODUCT_CATEGORY('','');
#789=PRODUCT_CONTEXT('',#791,'mechanical');
#790=APPLICATION_PROTOCOL_DEFINITION('international standard',
'ap242_managed_model_based_3d_engineering',2020,#791);
#791=APPLICATION_CONTEXT('managed model based 3d engineering');
ENDSEC;
END-ISO-10303-21;
