ISO-10303-21;
HEADER;
/* Generated by software containing ST-Developer
 * from STEP Tools, Inc. (www.steptools.com) 
 */
/* OPTION: using custom renumber hook */

FILE_DESCRIPTION(
/* description */ ('STEP AP242 Edition 2',
'CAx-IF Rec.Pracs.---Representation and Presentation of Product Manufa
cturing Information (PMI)---4.0---2014-10-13',
'CAx-IF Rec.Pracs.---3D Tessellated Geometry---0.4---2014-09-14','2;1',
'CAx-IF Rec.Pracs.---User Defined Attributes---1.5---2016-08-15'),
/* implementation_level */ '2;1');

FILE_NAME(
/* name */ 'Part Studio 1 - washer_perpendicular_link',
/* time_stamp */ '2026-08-24T08:22:50Z',
/* author */ (''),
/* organization */ (''),
/* preprocessor_version */ 'ST-DEVELOPER v20',
/* originating_system */ 'ONSHAPE BY PTC INC, 1.219',
/* authorisation */ '  ');

FILE_SCHEMA (('AP242_MANAGED_MODEL_BASED_3D_ENGINEERING_MIM_LF { 1 0 10303 442 3 1 4 }'));
ENDSEC;

DATA;
#10=SHAPE_REPRESENTATION_RELATIONSHIP('','',#177,#11);
#11=ADVANCED_BREP_SHAPE_REPRESENTATION('',(#175),#293);
#12=CYLINDRICAL_SURFACE('',#184,0.0015);
#13=CYLINDRICAL_SURFACE('',#187,0.0101584912253834);
#14=CYLINDRICAL_SURFACE('',#191,0.004);
#15=CYLINDRICAL_SURFACE('',#194,0.004);
#16=CIRCLE('',#180,0.0101584912253834);
#17=CIRCLE('',#181,0.004);
#18=CIRCLE('',#182,0.004);
#19=CIRCLE('',#185,0.0015);
#20=CIRCLE('',#186,0.0015);
#21=CIRCLE('',#188,0.0101584912253834);
#22=CIRCLE('',#192,0.004);
#23=CIRCLE('',#195,0.004);
#24=ORIENTED_EDGE('',*,*,#64,.F.);
#25=ORIENTED_EDGE('',*,*,#65,.F.);
#26=ORIENTED_EDGE('',*,*,#66,.F.);
#27=ORIENTED_EDGE('',*,*,#67,.T.);
#28=ORIENTED_EDGE('',*,*,#68,.F.);
#29=ORIENTED_EDGE('',*,*,#69,.F.);
#30=ORIENTED_EDGE('',*,*,#64,.T.);
#31=ORIENTED_EDGE('',*,*,#70,.F.);
#32=ORIENTED_EDGE('',*,*,#71,.F.);
#33=ORIENTED_EDGE('',*,*,#72,.T.);
#34=ORIENTED_EDGE('',*,*,#73,.T.);
#35=ORIENTED_EDGE('',*,*,#74,.F.);
#36=ORIENTED_EDGE('',*,*,#65,.T.);
#37=ORIENTED_EDGE('',*,*,#72,.F.);
#38=ORIENTED_EDGE('',*,*,#75,.F.);
#39=ORIENTED_EDGE('',*,*,#70,.T.);
#40=ORIENTED_EDGE('',*,*,#73,.F.);
#41=ORIENTED_EDGE('',*,*,#71,.T.);
#42=ORIENTED_EDGE('',*,*,#75,.T.);
#43=ORIENTED_EDGE('',*,*,#67,.F.);
#44=ORIENTED_EDGE('',*,*,#76,.F.);
#45=ORIENTED_EDGE('',*,*,#77,.T.);
#46=ORIENTED_EDGE('',*,*,#78,.T.);
#47=ORIENTED_EDGE('',*,*,#66,.T.);
#48=ORIENTED_EDGE('',*,*,#79,.F.);
#49=ORIENTED_EDGE('',*,*,#80,.F.);
#50=ORIENTED_EDGE('',*,*,#76,.T.);
#51=ORIENTED_EDGE('',*,*,#69,.T.);
#52=ORIENTED_EDGE('',*,*,#81,.F.);
#53=ORIENTED_EDGE('',*,*,#82,.F.);
#54=ORIENTED_EDGE('',*,*,#79,.T.);
#55=ORIENTED_EDGE('',*,*,#68,.T.);
#56=ORIENTED_EDGE('',*,*,#78,.F.);
#57=ORIENTED_EDGE('',*,*,#83,.F.);
#58=ORIENTED_EDGE('',*,*,#81,.T.);
#59=ORIENTED_EDGE('',*,*,#77,.F.);
#60=ORIENTED_EDGE('',*,*,#80,.T.);
#61=ORIENTED_EDGE('',*,*,#82,.T.);
#62=ORIENTED_EDGE('',*,*,#83,.T.);
#63=ORIENTED_EDGE('',*,*,#74,.T.);
#64=EDGE_CURVE('',#84,#85,#98,.T.);
#65=EDGE_CURVE('',#85,#84,#16,.T.);
#66=EDGE_CURVE('',#86,#87,#17,.T.);
#67=EDGE_CURVE('',#86,#88,#99,.T.);
#68=EDGE_CURVE('',#89,#88,#18,.T.);
#69=EDGE_CURVE('',#87,#89,#100,.T.);
#70=EDGE_CURVE('',#90,#85,#101,.T.);
#71=EDGE_CURVE('',#91,#90,#102,.T.);
#72=EDGE_CURVE('',#91,#84,#103,.T.);
#73=EDGE_CURVE('',#92,#92,#19,.T.);
#74=EDGE_CURVE('',#93,#93,#20,.T.);
#75=EDGE_CURVE('',#90,#91,#21,.T.);
#76=EDGE_CURVE('',#94,#86,#104,.T.);
#77=EDGE_CURVE('',#94,#95,#105,.T.);
#78=EDGE_CURVE('',#95,#88,#106,.T.);
#79=EDGE_CURVE('',#96,#87,#107,.T.);
#80=EDGE_CURVE('',#94,#96,#22,.T.);
#81=EDGE_CURVE('',#97,#89,#108,.T.);
#82=EDGE_CURVE('',#96,#97,#109,.T.);
#83=EDGE_CURVE('',#97,#95,#23,.T.);
#84=VERTEX_POINT('',#250);
#85=VERTEX_POINT('',#251);
#86=VERTEX_POINT('',#254);
#87=VERTEX_POINT('',#255);
#88=VERTEX_POINT('',#257);
#89=VERTEX_POINT('',#259);
#90=VERTEX_POINT('',#263);
#91=VERTEX_POINT('',#265);
#92=VERTEX_POINT('',#269);
#93=VERTEX_POINT('',#271);
#94=VERTEX_POINT('',#277);
#95=VERTEX_POINT('',#279);
#96=VERTEX_POINT('',#283);
#97=VERTEX_POINT('',#287);
#98=LINE('',#249,#110);
#99=LINE('',#256,#111);
#100=LINE('',#260,#112);
#101=LINE('',#262,#113);
#102=LINE('',#264,#114);
#103=LINE('',#266,#115);
#104=LINE('',#276,#116);
#105=LINE('',#278,#117);
#106=LINE('',#280,#118);
#107=LINE('',#282,#119);
#108=LINE('',#286,#120);
#109=LINE('',#288,#121);
#110=VECTOR('',#201,1.);
#111=VECTOR('',#206,1.);
#112=VECTOR('',#209,1.);
#113=VECTOR('',#212,1.);
#114=VECTOR('',#213,1.);
#115=VECTOR('',#214,1.);
#116=VECTOR('',#229,1.);
#117=VECTOR('',#230,1.);
#118=VECTOR('',#231,1.);
#119=VECTOR('',#234,1.);
#120=VECTOR('',#239,1.);
#121=VECTOR('',#240,1.);
#122=EDGE_LOOP('',(#24,#25));
#123=EDGE_LOOP('',(#26,#27,#28,#29));
#124=EDGE_LOOP('',(#30,#31,#32,#33));
#125=EDGE_LOOP('',(#34));
#126=EDGE_LOOP('',(#35));
#127=EDGE_LOOP('',(#36,#37,#38,#39));
#128=EDGE_LOOP('',(#40));
#129=EDGE_LOOP('',(#41,#42));
#130=EDGE_LOOP('',(#43,#44,#45,#46));
#131=EDGE_LOOP('',(#47,#48,#49,#50));
#132=EDGE_LOOP('',(#51,#52,#53,#54));
#133=EDGE_LOOP('',(#55,#56,#57,#58));
#134=EDGE_LOOP('',(#59,#60,#61,#62));
#135=EDGE_LOOP('',(#63));
#136=FACE_BOUND('',#122,.T.);
#137=FACE_BOUND('',#123,.T.);
#138=FACE_BOUND('',#124,.T.);
#139=FACE_BOUND('',#125,.T.);
#140=FACE_BOUND('',#126,.T.);
#141=FACE_BOUND('',#127,.T.);
#142=FACE_BOUND('',#128,.T.);
#143=FACE_BOUND('',#129,.T.);
#144=FACE_BOUND('',#130,.T.);
#145=FACE_BOUND('',#131,.T.);
#146=FACE_BOUND('',#132,.T.);
#147=FACE_BOUND('',#133,.T.);
#148=FACE_BOUND('',#134,.T.);
#149=FACE_BOUND('',#135,.T.);
#150=PLANE('',#179);
#151=PLANE('',#183);
#152=PLANE('',#189);
#153=PLANE('',#190);
#154=PLANE('',#193);
#155=PLANE('',#196);
#156=ADVANCED_FACE('',(#136,#137),#150,.F.);
#157=ADVANCED_FACE('',(#138),#151,.F.);
#158=ADVANCED_FACE('',(#139,#140),#12,.F.);
#159=ADVANCED_FACE('',(#141),#13,.T.);
#160=ADVANCED_FACE('',(#142,#143),#152,.T.);
#161=ADVANCED_FACE('',(#144),#153,.T.);
#162=ADVANCED_FACE('',(#145),#14,.T.);
#163=ADVANCED_FACE('',(#146),#154,.F.);
#164=ADVANCED_FACE('',(#147),#15,.T.);
#165=ADVANCED_FACE('',(#148,#149),#155,.T.);
#166=CLOSED_SHELL('',(#156,#157,#158,#159,#160,#161,#162,#163,#164,#165));
#167=STYLED_ITEM('',(#168),#175);
#168=PRESENTATION_STYLE_ASSIGNMENT((#169));
#169=SURFACE_STYLE_USAGE(.BOTH.,#170);
#170=SURFACE_SIDE_STYLE('',(#171));
#171=SURFACE_STYLE_FILL_AREA(#172);
#172=FILL_AREA_STYLE('',(#173));
#173=FILL_AREA_STYLE_COLOUR('',#174);
#174=COLOUR_RGB('',0.615686274509804,0.811764705882353,0.929411764705882);
#175=MANIFOLD_SOLID_BREP('washer_perpendicular_link',#166);
#176=SHAPE_DEFINITION_REPRESENTATION(#298,#177);
#177=SHAPE_REPRESENTATION('washer_perpendicular_link',(#178),#293);
#178=AXIS2_PLACEMENT_3D('',#247,#197,#198);
#179=AXIS2_PLACEMENT_3D('',#248,#199,#200);
#180=AXIS2_PLACEMENT_3D('',#252,#202,#203);
#181=AXIS2_PLACEMENT_3D('',#253,#204,#205);
#182=AXIS2_PLACEMENT_3D('',#258,#207,#208);
#183=AXIS2_PLACEMENT_3D('',#261,#210,#211);
#184=AXIS2_PLACEMENT_3D('',#267,#215,#216);
#185=AXIS2_PLACEMENT_3D('',#268,#217,#218);
#186=AXIS2_PLACEMENT_3D('',#270,#219,#220);
#187=AXIS2_PLACEMENT_3D('',#272,#221,#222);
#188=AXIS2_PLACEMENT_3D('',#273,#223,#224);
#189=AXIS2_PLACEMENT_3D('',#274,#225,#226);
#190=AXIS2_PLACEMENT_3D('',#275,#227,#228);
#191=AXIS2_PLACEMENT_3D('',#281,#232,#233);
#192=AXIS2_PLACEMENT_3D('',#284,#235,#236);
#193=AXIS2_PLACEMENT_3D('',#285,#237,#238);
#194=AXIS2_PLACEMENT_3D('',#289,#241,#242);
#195=AXIS2_PLACEMENT_3D('',#290,#243,#244);
#196=AXIS2_PLACEMENT_3D('',#291,#245,#246);
#197=DIRECTION('',(0.,0.,1.));
#198=DIRECTION('',(1.,0.,0.));
#199=DIRECTION('',(1.22464679914735E-16,0.,-1.));
#200=DIRECTION('',(-1.,0.,-1.22464679914735E-16));
#201=DIRECTION('',(0.,-1.,0.));
#202=DIRECTION('',(1.22464679914735E-16,0.,-1.));
#203=DIRECTION('',(-1.,0.,-1.22464679914735E-16));
#204=DIRECTION('',(-1.22464679914735E-16,0.,1.));
#205=DIRECTION('',(1.,0.,1.22464679914735E-16));
#206=DIRECTION('',(-2.78657133876083E-15,-1.,-3.4125656706092E-31));
#207=DIRECTION('',(-1.22464679914735E-16,0.,1.));
#208=DIRECTION('',(1.,0.,1.22464679914735E-16));
#209=DIRECTION('',(6.55663844414307E-16,-1.,8.02956628378629E-32));
#210=DIRECTION('',(-1.,0.,-1.22464679914735E-16));
#211=DIRECTION('',(-1.22464679914735E-16,0.,1.));
#212=DIRECTION('',(-1.22464679914735E-16,0.,1.));
#213=DIRECTION('',(0.,-1.,0.));
#214=DIRECTION('',(-1.22464679914735E-16,0.,1.));
#215=DIRECTION('',(-1.22464679914735E-16,0.,1.));
#216=DIRECTION('',(1.,0.,1.22464679914735E-16));
#217=DIRECTION('',(1.22464679914735E-16,0.,-1.));
#218=DIRECTION('',(-1.,0.,-1.22464679914735E-16));
#219=DIRECTION('',(1.22464679914735E-16,0.,-1.));
#220=DIRECTION('',(-1.,0.,-1.22464679914735E-16));
#221=DIRECTION('',(-1.22464679914735E-16,0.,1.));
#222=DIRECTION('',(1.,0.,1.22464679914735E-16));
#223=DIRECTION('',(1.22464679914735E-16,0.,-1.));
#224=DIRECTION('',(-1.,0.,-1.22464679914735E-16));
#225=DIRECTION('',(1.22464679914735E-16,0.,-1.));
#226=DIRECTION('',(-1.,0.,-1.22464679914735E-16));
#227=DIRECTION('',(1.,-2.78657133876083E-15,1.22464679914735E-16));
#228=DIRECTION('',(-2.78657133876083E-15,-1.,-3.4125656706092E-31));
#229=DIRECTION('',(1.22464679914735E-16,0.,-1.));
#230=DIRECTION('',(-2.78657133876083E-15,-1.,-3.4125656706092E-31));
#231=DIRECTION('',(1.22464679914735E-16,0.,-1.));
#232=DIRECTION('',(1.22464679914735E-16,0.,-1.));
#233=DIRECTION('',(-1.,0.,-1.22464679914735E-16));
#234=DIRECTION('',(1.22464679914735E-16,0.,-1.));
#235=DIRECTION('',(-1.22464679914735E-16,0.,1.));
#236=DIRECTION('',(1.,0.,1.22464679914735E-16));
#237=DIRECTION('',(1.,6.55663844414307E-16,1.22464679914735E-16));
#238=DIRECTION('',(6.55663844414307E-16,-1.,8.02956628378629E-32));
#239=DIRECTION('',(1.22464679914735E-16,0.,-1.));
#240=DIRECTION('',(6.55663844414307E-16,-1.,8.02956628378629E-32));
#241=DIRECTION('',(1.22464679914735E-16,0.,-1.));
#242=DIRECTION('',(-1.,0.,-1.22464679914735E-16));
#243=DIRECTION('',(-1.22464679914735E-16,0.,1.));
#244=DIRECTION('',(1.,0.,1.22464679914735E-16));
#245=DIRECTION('',(-1.22464679914735E-16,0.,1.));
#246=DIRECTION('',(-1.,0.,-1.22464679914735E-16));
#247=CARTESIAN_POINT('',(0.,0.,0.));
#248=CARTESIAN_POINT('',(-0.0321735217424192,-3.46944695195361E-18,0.01));
#249=CARTESIAN_POINT('',(-0.025496398417266,-0.00482513598763037,0.01));
#250=CARTESIAN_POINT('',(-0.025496398417266,0.00964131443197405,0.01));
#251=CARTESIAN_POINT('',(-0.025496398417266,-0.00964131443197406,0.01));
#252=CARTESIAN_POINT('',(-0.028696398417266,-4.34610061734825E-19,0.01));
#253=CARTESIAN_POINT('',(-0.028696398417266,2.68882138776405E-17,0.01));
#254=CARTESIAN_POINT('',(-0.025696398417266,0.00264575131106462,0.01));
#255=CARTESIAN_POINT('',(-0.031696398417266,0.00264575131106463,0.01));
#256=CARTESIAN_POINT('',(-0.025696398417266,3.68628738645072E-17,0.01));
#257=CARTESIAN_POINT('',(-0.025696398417266,-0.00264575131106454,0.01));
#258=CARTESIAN_POINT('',(-0.028696398417266,2.16840434497101E-19,0.01));
#259=CARTESIAN_POINT('',(-0.031696398417266,-0.00264575131106457,0.01));
#260=CARTESIAN_POINT('',(-0.031696398417266,2.77555756156289E-17,0.01));
#261=CARTESIAN_POINT('',(-0.025496398417266,-0.00482513598763037,0.007));
#262=CARTESIAN_POINT('',(-0.025496398417266,-0.00964131443197406,0.007));
#263=CARTESIAN_POINT('',(-0.025496398417266,-0.00964131443197406,0.007));
#264=CARTESIAN_POINT('',(-0.025496398417266,-0.00482513598763037,0.007));
#265=CARTESIAN_POINT('',(-0.025496398417266,0.00964131443197405,0.007));
#266=CARTESIAN_POINT('',(-0.025496398417266,0.00964131443197405,0.007));
#267=CARTESIAN_POINT('',(-0.028696398417266,-1.2110524825278E-18,0.007));
#268=CARTESIAN_POINT('',(-0.028696398417266,-1.2110524825278E-18,0.007));
#269=CARTESIAN_POINT('',(-0.030196398417266,-1.2110524825278E-18,0.007));
#270=CARTESIAN_POINT('',(-0.028696398417266,-1.2110524825278E-18,0.011));
#271=CARTESIAN_POINT('',(-0.030196398417266,-1.2110524825278E-18,0.011));
#272=CARTESIAN_POINT('',(-0.028696398417266,-4.34610061734825E-19,0.007));
#273=CARTESIAN_POINT('',(-0.028696398417266,-4.34610061734825E-19,0.007));
#274=CARTESIAN_POINT('',(-0.0321735217424192,-3.46944695195361E-18,0.007));
#275=CARTESIAN_POINT('',(-0.025696398417266,3.68628738645072E-17,0.011));
#276=CARTESIAN_POINT('',(-0.025696398417266,0.00264575131106462,0.011));
#277=CARTESIAN_POINT('',(-0.025696398417266,0.00264575131106462,0.011));
#278=CARTESIAN_POINT('',(-0.025696398417266,3.68628738645072E-17,0.011));
#279=CARTESIAN_POINT('',(-0.025696398417266,-0.00264575131106454,0.011));
#280=CARTESIAN_POINT('',(-0.025696398417266,-0.00264575131106454,0.011));
#281=CARTESIAN_POINT('',(-0.028696398417266,2.68882138776405E-17,0.011));
#282=CARTESIAN_POINT('',(-0.031696398417266,0.00264575131106463,0.011));
#283=CARTESIAN_POINT('',(-0.031696398417266,0.00264575131106463,0.011));
#284=CARTESIAN_POINT('',(-0.028696398417266,2.68882138776405E-17,0.011));
#285=CARTESIAN_POINT('',(-0.031696398417266,2.77555756156289E-17,0.011));
#286=CARTESIAN_POINT('',(-0.031696398417266,-0.00264575131106457,0.011));
#287=CARTESIAN_POINT('',(-0.031696398417266,-0.00264575131106457,0.011));
#288=CARTESIAN_POINT('',(-0.031696398417266,2.77555756156289E-17,0.011));
#289=CARTESIAN_POINT('',(-0.028696398417266,2.16840434497101E-19,0.011));
#290=CARTESIAN_POINT('',(-0.028696398417266,2.16840434497101E-19,0.011));
#291=CARTESIAN_POINT('',(-0.0321756440299577,0.,0.011));
#292=MECHANICAL_DESIGN_GEOMETRIC_PRESENTATION_REPRESENTATION('',(#167),
#293);
#293=(
GEOMETRIC_REPRESENTATION_CONTEXT(3)
GLOBAL_UNCERTAINTY_ASSIGNED_CONTEXT((#294))
GLOBAL_UNIT_ASSIGNED_CONTEXT((#297,#296,#295))
REPRESENTATION_CONTEXT('washer_perpendicular_link',
'TOP_LEVEL_ASSEMBLY_PART')
);
#294=UNCERTAINTY_MEASURE_WITH_UNIT(LENGTH_MEASURE(1.E-8),#297,
'DISTANCE_ACCURACY_VALUE','Maximum Tolerance applied to model');
#295=(
NAMED_UNIT(*)
SI_UNIT($,.STERADIAN.)
SOLID_ANGLE_UNIT()
);
#296=(
NAMED_UNIT(*)
PLANE_ANGLE_UNIT()
SI_UNIT($,.RADIAN.)
);
#297=(
LENGTH_UNIT()
NAMED_UNIT(*)
SI_UNIT($,.METRE.)
);
#298=PRODUCT_DEFINITION_SHAPE('','',#299);
#299=PRODUCT_DEFINITION('','',#301,#300);
#300=PRODUCT_DEFINITION_CONTEXT('',#307,'design');
#301=PRODUCT_DEFINITION_FORMATION_WITH_SPECIFIED_SOURCE('','',#303,
 .NOT_KNOWN.);
#302=PRODUCT_RELATED_PRODUCT_CATEGORY('','',(#303));
#303=PRODUCT('washer_perpendicular_link','washer_perpendicular_link',
'washer_perpendicular_link',(#305));
#304=PRODUCT_CATEGORY('','');
#305=PRODUCT_CONTEXT('',#307,'mechanical');
#306=APPLICATION_PROTOCOL_DEFINITION('international standard',
'ap242_managed_model_based_3d_engineering',2020,#307);
#307=APPLICATION_CONTEXT('managed model based 3d engineering');
ENDSEC;
END-ISO-10303-21;
