ISO-10303-21;
HEADER;
/* Generated by software containing ST-Developer
 * from STEP Tools, Inc. (www.steptools.com) 
 */
/* OPTION: using custom renumber hook */

FILE_DESCRIPTION(
/* description */ ('STEP AP242 Edition 2',
'CAx-IF Rec.Pracs.---Representation and Presentation of Product Manufa
cturing Information (PMI)---4.0---2014-10-13',
'CAx-IF Rec.Pracs.---3D Tessellated Geometry---0.4---2014-09-14','2;1',
'CAx-IF Rec.Pracs.---User Defined Attributes---1.5---2016-08-15'),
/* implementation_level */ '2;1');

FILE_NAME(
/* name */ 'Part Studio 1 - washer_round',
/* time_stamp */ '2026-08-24T08:36:16Z',
/* author */ (''),
/* organization */ (''),
/* preprocessor_version */ 'ST-DEVELOPER v20',
/* originating_system */ 'ONSHAPE BY PTC INC, 1.219',
/* authorisation */ '  ');

FILE_SCHEMA (('AP242_MANAGED_MODEL_BASED_3D_ENGINEERING_MIM_LF { 1 0 10303 442 3 1 4 }'));
ENDSEC;

DATA;
#10=SHAPE_REPRESENTATION_RELATIONSHIP('','',#153,#11);
#11=ADVANCED_BREP_SHAPE_REPRESENTATION('',(#151),#255);
#12=CYLINDRICAL_SURFACE('',#159,0.0015);
#13=CYLINDRICAL_SURFACE('',#162,0.01);
#14=CYLINDRICAL_SURFACE('',#166,0.004);
#15=CYLINDRICAL_SURFACE('',#169,0.004);
#16=LINE('',#223,#24);
#17=LINE('',#227,#25);
#18=LINE('',#238,#26);
#19=LINE('',#240,#27);
#20=LINE('',#242,#28);
#21=LINE('',#244,#29);
#22=LINE('',#248,#30);
#23=LINE('',#250,#31);
#24=VECTOR('',#180,1.);
#25=VECTOR('',#183,1.);
#26=VECTOR('',#198,1.);
#27=VECTOR('',#199,1.);
#28=VECTOR('',#200,1.);
#29=VECTOR('',#203,1.);
#30=VECTOR('',#208,1.);
#31=VECTOR('',#209,1.);
#32=ORIENTED_EDGE('',*,*,#64,.T.);
#33=ORIENTED_EDGE('',*,*,#65,.F.);
#34=ORIENTED_EDGE('',*,*,#66,.T.);
#35=ORIENTED_EDGE('',*,*,#67,.F.);
#36=ORIENTED_EDGE('',*,*,#68,.F.);
#37=ORIENTED_EDGE('',*,*,#69,.F.);
#38=ORIENTED_EDGE('',*,*,#70,.T.);
#39=ORIENTED_EDGE('',*,*,#64,.F.);
#40=ORIENTED_EDGE('',*,*,#71,.T.);
#41=ORIENTED_EDGE('',*,*,#69,.T.);
#42=ORIENTED_EDGE('',*,*,#71,.F.);
#43=ORIENTED_EDGE('',*,*,#66,.F.);
#44=ORIENTED_EDGE('',*,*,#72,.F.);
#45=ORIENTED_EDGE('',*,*,#73,.T.);
#46=ORIENTED_EDGE('',*,*,#74,.T.);
#47=ORIENTED_EDGE('',*,*,#65,.T.);
#48=ORIENTED_EDGE('',*,*,#75,.F.);
#49=ORIENTED_EDGE('',*,*,#76,.F.);
#50=ORIENTED_EDGE('',*,*,#72,.T.);
#51=ORIENTED_EDGE('',*,*,#68,.T.);
#52=ORIENTED_EDGE('',*,*,#77,.F.);
#53=ORIENTED_EDGE('',*,*,#78,.F.);
#54=ORIENTED_EDGE('',*,*,#75,.T.);
#55=ORIENTED_EDGE('',*,*,#67,.T.);
#56=ORIENTED_EDGE('',*,*,#74,.F.);
#57=ORIENTED_EDGE('',*,*,#79,.F.);
#58=ORIENTED_EDGE('',*,*,#77,.T.);
#59=ORIENTED_EDGE('',*,*,#73,.F.);
#60=ORIENTED_EDGE('',*,*,#76,.T.);
#61=ORIENTED_EDGE('',*,*,#78,.T.);
#62=ORIENTED_EDGE('',*,*,#79,.T.);
#63=ORIENTED_EDGE('',*,*,#70,.F.);
#64=EDGE_CURVE('',#80,#80,#92,.T.);
#65=EDGE_CURVE('',#81,#82,#93,.T.);
#66=EDGE_CURVE('',#81,#83,#16,.T.);
#67=EDGE_CURVE('',#84,#83,#94,.T.);
#68=EDGE_CURVE('',#82,#84,#17,.T.);
#69=EDGE_CURVE('',#85,#85,#95,.T.);
#70=EDGE_CURVE('',#86,#86,#96,.T.);
#71=EDGE_CURVE('',#87,#87,#97,.T.);
#72=EDGE_CURVE('',#88,#81,#18,.T.);
#73=EDGE_CURVE('',#88,#89,#19,.T.);
#74=EDGE_CURVE('',#89,#83,#20,.T.);
#75=EDGE_CURVE('',#90,#82,#21,.T.);
#76=EDGE_CURVE('',#88,#90,#98,.T.);
#77=EDGE_CURVE('',#91,#84,#22,.T.);
#78=EDGE_CURVE('',#90,#91,#23,.T.);
#79=EDGE_CURVE('',#91,#89,#99,.T.);
#80=VERTEX_POINT('',#219);
#81=VERTEX_POINT('',#221);
#82=VERTEX_POINT('',#222);
#83=VERTEX_POINT('',#224);
#84=VERTEX_POINT('',#226);
#85=VERTEX_POINT('',#230);
#86=VERTEX_POINT('',#232);
#87=VERTEX_POINT('',#235);
#88=VERTEX_POINT('',#239);
#89=VERTEX_POINT('',#241);
#90=VERTEX_POINT('',#245);
#91=VERTEX_POINT('',#249);
#92=CIRCLE('',#156,0.01);
#93=CIRCLE('',#157,0.004);
#94=CIRCLE('',#158,0.004);
#95=CIRCLE('',#160,0.0015);
#96=CIRCLE('',#161,0.0015);
#97=CIRCLE('',#163,0.01);
#98=CIRCLE('',#167,0.004);
#99=CIRCLE('',#170,0.004);
#100=EDGE_LOOP('',(#32));
#101=EDGE_LOOP('',(#33,#34,#35,#36));
#102=EDGE_LOOP('',(#37));
#103=EDGE_LOOP('',(#38));
#104=EDGE_LOOP('',(#39));
#105=EDGE_LOOP('',(#40));
#106=EDGE_LOOP('',(#41));
#107=EDGE_LOOP('',(#42));
#108=EDGE_LOOP('',(#43,#44,#45,#46));
#109=EDGE_LOOP('',(#47,#48,#49,#50));
#110=EDGE_LOOP('',(#51,#52,#53,#54));
#111=EDGE_LOOP('',(#55,#56,#57,#58));
#112=EDGE_LOOP('',(#59,#60,#61,#62));
#113=EDGE_LOOP('',(#63));
#114=FACE_BOUND('',#100,.T.);
#115=FACE_BOUND('',#101,.T.);
#116=FACE_BOUND('',#102,.T.);
#117=FACE_BOUND('',#103,.T.);
#118=FACE_BOUND('',#104,.T.);
#119=FACE_BOUND('',#105,.T.);
#120=FACE_BOUND('',#106,.T.);
#121=FACE_BOUND('',#107,.T.);
#122=FACE_BOUND('',#108,.T.);
#123=FACE_BOUND('',#109,.T.);
#124=FACE_BOUND('',#110,.T.);
#125=FACE_BOUND('',#111,.T.);
#126=FACE_BOUND('',#112,.T.);
#127=FACE_BOUND('',#113,.T.);
#128=PLANE('',#155);
#129=PLANE('',#164);
#130=PLANE('',#165);
#131=PLANE('',#168);
#132=PLANE('',#171);
#133=ADVANCED_FACE('',(#114,#115),#128,.T.);
#134=ADVANCED_FACE('',(#116,#117),#12,.F.);
#135=ADVANCED_FACE('',(#118,#119),#13,.T.);
#136=ADVANCED_FACE('',(#120,#121),#129,.F.);
#137=ADVANCED_FACE('',(#122),#130,.T.);
#138=ADVANCED_FACE('',(#123),#14,.T.);
#139=ADVANCED_FACE('',(#124),#131,.F.);
#140=ADVANCED_FACE('',(#125),#15,.T.);
#141=ADVANCED_FACE('',(#126,#127),#132,.T.);
#142=CLOSED_SHELL('',(#133,#134,#135,#136,#137,#138,#139,#140,#141));
#143=STYLED_ITEM('',(#144),#151);
#144=PRESENTATION_STYLE_ASSIGNMENT((#145));
#145=SURFACE_STYLE_USAGE(.BOTH.,#146);
#146=SURFACE_SIDE_STYLE('',(#147));
#147=SURFACE_STYLE_FILL_AREA(#148);
#148=FILL_AREA_STYLE('',(#149));
#149=FILL_AREA_STYLE_COLOUR('',#150);
#150=COLOUR_RGB('',0.768627450980392,0.886274509803922,0.952941176470588);
#151=MANIFOLD_SOLID_BREP('washer_round',#142);
#152=SHAPE_DEFINITION_REPRESENTATION(#260,#153);
#153=SHAPE_REPRESENTATION('washer_round',(#154),#255);
#154=AXIS2_PLACEMENT_3D('',#216,#172,#173);
#155=AXIS2_PLACEMENT_3D('',#217,#174,#175);
#156=AXIS2_PLACEMENT_3D('',#218,#176,#177);
#157=AXIS2_PLACEMENT_3D('',#220,#178,#179);
#158=AXIS2_PLACEMENT_3D('',#225,#181,#182);
#159=AXIS2_PLACEMENT_3D('',#228,#184,#185);
#160=AXIS2_PLACEMENT_3D('',#229,#186,#187);
#161=AXIS2_PLACEMENT_3D('',#231,#188,#189);
#162=AXIS2_PLACEMENT_3D('',#233,#190,#191);
#163=AXIS2_PLACEMENT_3D('',#234,#192,#193);
#164=AXIS2_PLACEMENT_3D('',#236,#194,#195);
#165=AXIS2_PLACEMENT_3D('',#237,#196,#197);
#166=AXIS2_PLACEMENT_3D('',#243,#201,#202);
#167=AXIS2_PLACEMENT_3D('',#246,#204,#205);
#168=AXIS2_PLACEMENT_3D('',#247,#206,#207);
#169=AXIS2_PLACEMENT_3D('',#251,#210,#211);
#170=AXIS2_PLACEMENT_3D('',#252,#212,#213);
#171=AXIS2_PLACEMENT_3D('',#253,#214,#215);
#172=DIRECTION('',(0.,0.,1.));
#173=DIRECTION('',(1.,0.,0.));
#174=DIRECTION('',(0.,0.,1.));
#175=DIRECTION('',(1.,0.,0.));
#176=DIRECTION('',(0.,0.,1.));
#177=DIRECTION('',(1.,0.,0.));
#178=DIRECTION('',(0.,0.,1.));
#179=DIRECTION('',(1.,0.,0.));
#180=DIRECTION('',(0.,1.,0.));
#181=DIRECTION('',(0.,0.,1.));
#182=DIRECTION('',(1.,0.,0.));
#183=DIRECTION('',(0.,1.,0.));
#184=DIRECTION('',(0.,0.,-1.));
#185=DIRECTION('',(-1.,0.,0.));
#186=DIRECTION('',(0.,0.,1.));
#187=DIRECTION('',(1.,0.,0.));
#188=DIRECTION('',(0.,0.,1.));
#189=DIRECTION('',(1.,0.,0.));
#190=DIRECTION('',(0.,0.,-1.));
#191=DIRECTION('',(-1.,0.,0.));
#192=DIRECTION('',(0.,0.,1.));
#193=DIRECTION('',(1.,0.,0.));
#194=DIRECTION('',(0.,0.,1.));
#195=DIRECTION('',(1.,0.,0.));
#196=DIRECTION('',(-1.,0.,0.));
#197=DIRECTION('',(0.,0.,1.));
#198=DIRECTION('',(0.,0.,-1.));
#199=DIRECTION('',(0.,1.,0.));
#200=DIRECTION('',(0.,0.,-1.));
#201=DIRECTION('',(0.,0.,-1.));
#202=DIRECTION('',(-1.,0.,0.));
#203=DIRECTION('',(0.,0.,-1.));
#204=DIRECTION('',(0.,0.,1.));
#205=DIRECTION('',(1.,0.,0.));
#206=DIRECTION('',(-1.,0.,0.));
#207=DIRECTION('',(0.,0.,1.));
#208=DIRECTION('',(0.,0.,-1.));
#209=DIRECTION('',(0.,1.,0.));
#210=DIRECTION('',(0.,0.,-1.));
#211=DIRECTION('',(-1.,0.,0.));
#212=DIRECTION('',(0.,0.,1.));
#213=DIRECTION('',(1.,0.,0.));
#214=DIRECTION('',(0.,0.,1.));
#215=DIRECTION('',(1.,0.,0.));
#216=CARTESIAN_POINT('',(0.,0.,0.));
#217=CARTESIAN_POINT('',(-0.172251358628273,0.0335602723062038,0.003));
#218=CARTESIAN_POINT('',(-0.172251358628273,0.0335602723062038,0.003));
#219=CARTESIAN_POINT('',(-0.162251358628273,0.0335602723062038,0.003));
#220=CARTESIAN_POINT('',(-0.172251358628273,0.0335602723062038,0.003));
#221=CARTESIAN_POINT('',(-0.175251358628273,0.0309145209951392,0.003));
#222=CARTESIAN_POINT('',(-0.169251358628273,0.0309145209951392,0.003));
#223=CARTESIAN_POINT('',(-0.175251358628273,0.0335602723062038,0.003));
#224=CARTESIAN_POINT('',(-0.175251358628273,0.0362060236172684,0.003));
#225=CARTESIAN_POINT('',(-0.172251358628273,0.0335602723062038,0.003));
#226=CARTESIAN_POINT('',(-0.169251358628273,0.0362060236172684,0.003));
#227=CARTESIAN_POINT('',(-0.169251358628273,0.0335602723062038,0.003));
#228=CARTESIAN_POINT('',(-0.172251358628273,0.0335602723062038,0.003));
#229=CARTESIAN_POINT('',(-0.172251358628273,0.0335602723062038,0.));
#230=CARTESIAN_POINT('',(-0.170751358628273,0.0335602723062038,0.));
#231=CARTESIAN_POINT('',(-0.172251358628273,0.0335602723062038,0.004));
#232=CARTESIAN_POINT('',(-0.170751358628273,0.0335602723062038,0.004));
#233=CARTESIAN_POINT('',(-0.172251358628273,0.0335602723062038,0.003));
#234=CARTESIAN_POINT('',(-0.172251358628273,0.0335602723062038,0.));
#235=CARTESIAN_POINT('',(-0.162251358628273,0.0335602723062038,0.));
#236=CARTESIAN_POINT('',(-0.172251358628273,0.0335602723062038,0.));
#237=CARTESIAN_POINT('',(-0.175251358628273,0.0335602723062038,0.004));
#238=CARTESIAN_POINT('',(-0.175251358628273,0.0309145209951392,0.004));
#239=CARTESIAN_POINT('',(-0.175251358628273,0.0309145209951392,0.004));
#240=CARTESIAN_POINT('',(-0.175251358628273,0.0335602723062038,0.004));
#241=CARTESIAN_POINT('',(-0.175251358628273,0.0362060236172684,0.004));
#242=CARTESIAN_POINT('',(-0.175251358628273,0.0362060236172684,0.004));
#243=CARTESIAN_POINT('',(-0.172251358628273,0.0335602723062038,0.004));
#244=CARTESIAN_POINT('',(-0.169251358628273,0.0309145209951392,0.004));
#245=CARTESIAN_POINT('',(-0.169251358628273,0.0309145209951392,0.004));
#246=CARTESIAN_POINT('',(-0.172251358628273,0.0335602723062038,0.004));
#247=CARTESIAN_POINT('',(-0.169251358628273,0.0335602723062038,0.004));
#248=CARTESIAN_POINT('',(-0.169251358628273,0.0362060236172684,0.004));
#249=CARTESIAN_POINT('',(-0.169251358628273,0.0362060236172684,0.004));
#250=CARTESIAN_POINT('',(-0.169251358628273,0.0335602723062038,0.004));
#251=CARTESIAN_POINT('',(-0.172251358628273,0.0335602723062038,0.004));
#252=CARTESIAN_POINT('',(-0.172251358628273,0.0335602723062038,0.004));
#253=CARTESIAN_POINT('',(-0.172251358628273,0.0335602723062038,0.004));
#254=MECHANICAL_DESIGN_GEOMETRIC_PRESENTATION_REPRESENTATION('',(#143),
#255);
#255=(
GEOMETRIC_REPRESENTATION_CONTEXT(3)
GLOBAL_UNCERTAINTY_ASSIGNED_CONTEXT((#256))
GLOBAL_UNIT_ASSIGNED_CONTEXT((#259,#258,#257))
REPRESENTATION_CONTEXT('washer_round','TOP_LEVEL_ASSEMBLY_PART')
);
#256=UNCERTAINTY_MEASURE_WITH_UNIT(LENGTH_MEASURE(1.E-8),#259,
'DISTANCE_ACCURACY_VALUE','Maximum Tolerance applied to model');
#257=(
NAMED_UNIT(*)
SI_UNIT($,.STERADIAN.)
SOLID_ANGLE_UNIT()
);
#258=(
NAMED_UNIT(*)
PLANE_ANGLE_UNIT()
SI_UNIT($,.RADIAN.)
);
#259=(
LENGTH_UNIT()
NAMED_UNIT(*)
SI_UNIT($,.METRE.)
);
#260=PRODUCT_DEFINITION_SHAPE('','',#261);
#261=PRODUCT_DEFINITION('','',#263,#262);
#262=PRODUCT_DEFINITION_CONTEXT('',#269,'design');
#263=PRODUCT_DEFINITION_FORMATION_WITH_SPECIFIED_SOURCE('','',#265,
 .NOT_KNOWN.);
#264=PRODUCT_RELATED_PRODUCT_CATEGORY('','',(#265));
#265=PRODUCT('washer_round','washer_round','washer_round',(#267));
#266=PRODUCT_CATEGORY('','');
#267=PRODUCT_CONTEXT('',#269,'mechanical');
#268=APPLICATION_PROTOCOL_DEFINITION('international standard',
'ap242_managed_model_based_3d_engineering',2020,#269);
#269=APPLICATION_CONTEXT('managed model based 3d engineering');
ENDSEC;
END-ISO-10303-21;
