ISO-10303-21;
HEADER;
/* Generated by software containing ST-Developer
 * from STEP Tools, Inc. (www.steptools.com) 
 */
/* OPTION: using custom renumber hook */

FILE_DESCRIPTION(
/* description */ ('STEP AP242 Edition 2',
'CAx-IF Rec.Pracs.---Representation and Presentation of Product Manufa
cturing Information (PMI)---4.0---2014-10-13',
'CAx-IF Rec.Pracs.---3D Tessellated Geometry---0.4---2014-09-14','2;1',
'CAx-IF Rec.Pracs.---User Defined Attributes---1.5---2016-08-15'),
/* implementation_level */ '2;1');

FILE_NAME(
/* name */ 'Part Studio 1 - wire_holder',
/* time_stamp */ '2026-08-24T08:35:52Z',
/* author */ (''),
/* organization */ (''),
/* preprocessor_version */ 'ST-DEVELOPER v20',
/* originating_system */ 'ONSHAPE BY PTC INC, 1.219',
/* authorisation */ '  ');

FILE_SCHEMA (('AP242_MANAGED_MODEL_BASED_3D_ENGINEERING_MIM_LF { 1 0 10303 442 3 1 4 }'));
ENDSEC;

DATA;
#10=SHAPE_REPRESENTATION_RELATIONSHIP('','',#279,#11);
#11=ADVANCED_BREP_SHAPE_REPRESENTATION('',(#277),#445);
#12=CIRCLE('',#287,0.005);
#13=CIRCLE('',#288,0.005);
#14=CIRCLE('',#295,0.0035);
#15=CIRCLE('',#296,0.0035);
#16=CYLINDRICAL_SURFACE('',#286,0.005);
#17=CYLINDRICAL_SURFACE('',#294,0.0035);
#18=ORIENTED_EDGE('',*,*,#90,.T.);
#19=ORIENTED_EDGE('',*,*,#91,.F.);
#20=ORIENTED_EDGE('',*,*,#92,.F.);
#21=ORIENTED_EDGE('',*,*,#93,.T.);
#22=ORIENTED_EDGE('',*,*,#94,.T.);
#23=ORIENTED_EDGE('',*,*,#95,.F.);
#24=ORIENTED_EDGE('',*,*,#96,.F.);
#25=ORIENTED_EDGE('',*,*,#91,.T.);
#26=ORIENTED_EDGE('',*,*,#97,.T.);
#27=ORIENTED_EDGE('',*,*,#98,.F.);
#28=ORIENTED_EDGE('',*,*,#99,.F.);
#29=ORIENTED_EDGE('',*,*,#95,.T.);
#30=ORIENTED_EDGE('',*,*,#100,.T.);
#31=ORIENTED_EDGE('',*,*,#101,.F.);
#32=ORIENTED_EDGE('',*,*,#102,.F.);
#33=ORIENTED_EDGE('',*,*,#98,.T.);
#34=ORIENTED_EDGE('',*,*,#103,.T.);
#35=ORIENTED_EDGE('',*,*,#104,.F.);
#36=ORIENTED_EDGE('',*,*,#105,.F.);
#37=ORIENTED_EDGE('',*,*,#101,.T.);
#38=ORIENTED_EDGE('',*,*,#106,.T.);
#39=ORIENTED_EDGE('',*,*,#107,.F.);
#40=ORIENTED_EDGE('',*,*,#108,.F.);
#41=ORIENTED_EDGE('',*,*,#104,.T.);
#42=ORIENTED_EDGE('',*,*,#109,.T.);
#43=ORIENTED_EDGE('',*,*,#110,.F.);
#44=ORIENTED_EDGE('',*,*,#111,.F.);
#45=ORIENTED_EDGE('',*,*,#107,.T.);
#46=ORIENTED_EDGE('',*,*,#112,.T.);
#47=ORIENTED_EDGE('',*,*,#113,.F.);
#48=ORIENTED_EDGE('',*,*,#114,.F.);
#49=ORIENTED_EDGE('',*,*,#110,.T.);
#50=ORIENTED_EDGE('',*,*,#115,.T.);
#51=ORIENTED_EDGE('',*,*,#116,.F.);
#52=ORIENTED_EDGE('',*,*,#117,.F.);
#53=ORIENTED_EDGE('',*,*,#113,.T.);
#54=ORIENTED_EDGE('',*,*,#118,.T.);
#55=ORIENTED_EDGE('',*,*,#119,.F.);
#56=ORIENTED_EDGE('',*,*,#120,.F.);
#57=ORIENTED_EDGE('',*,*,#116,.T.);
#58=ORIENTED_EDGE('',*,*,#121,.T.);
#59=ORIENTED_EDGE('',*,*,#122,.F.);
#60=ORIENTED_EDGE('',*,*,#123,.F.);
#61=ORIENTED_EDGE('',*,*,#119,.T.);
#62=ORIENTED_EDGE('',*,*,#124,.F.);
#63=ORIENTED_EDGE('',*,*,#93,.F.);
#64=ORIENTED_EDGE('',*,*,#125,.T.);
#65=ORIENTED_EDGE('',*,*,#122,.T.);
#66=ORIENTED_EDGE('',*,*,#92,.T.);
#67=ORIENTED_EDGE('',*,*,#96,.T.);
#68=ORIENTED_EDGE('',*,*,#99,.T.);
#69=ORIENTED_EDGE('',*,*,#102,.T.);
#70=ORIENTED_EDGE('',*,*,#105,.T.);
#71=ORIENTED_EDGE('',*,*,#108,.T.);
#72=ORIENTED_EDGE('',*,*,#111,.T.);
#73=ORIENTED_EDGE('',*,*,#114,.T.);
#74=ORIENTED_EDGE('',*,*,#117,.T.);
#75=ORIENTED_EDGE('',*,*,#120,.T.);
#76=ORIENTED_EDGE('',*,*,#123,.T.);
#77=ORIENTED_EDGE('',*,*,#125,.F.);
#78=ORIENTED_EDGE('',*,*,#90,.F.);
#79=ORIENTED_EDGE('',*,*,#124,.T.);
#80=ORIENTED_EDGE('',*,*,#121,.F.);
#81=ORIENTED_EDGE('',*,*,#118,.F.);
#82=ORIENTED_EDGE('',*,*,#115,.F.);
#83=ORIENTED_EDGE('',*,*,#112,.F.);
#84=ORIENTED_EDGE('',*,*,#109,.F.);
#85=ORIENTED_EDGE('',*,*,#106,.F.);
#86=ORIENTED_EDGE('',*,*,#103,.F.);
#87=ORIENTED_EDGE('',*,*,#100,.F.);
#88=ORIENTED_EDGE('',*,*,#97,.F.);
#89=ORIENTED_EDGE('',*,*,#94,.F.);
#90=EDGE_CURVE('',#126,#127,#150,.T.);
#91=EDGE_CURVE('',#128,#127,#151,.T.);
#92=EDGE_CURVE('',#129,#128,#152,.T.);
#93=EDGE_CURVE('',#129,#126,#153,.T.);
#94=EDGE_CURVE('',#127,#130,#154,.T.);
#95=EDGE_CURVE('',#131,#130,#155,.T.);
#96=EDGE_CURVE('',#128,#131,#156,.T.);
#97=EDGE_CURVE('',#130,#132,#157,.T.);
#98=EDGE_CURVE('',#133,#132,#158,.T.);
#99=EDGE_CURVE('',#131,#133,#159,.T.);
#100=EDGE_CURVE('',#132,#134,#160,.T.);
#101=EDGE_CURVE('',#135,#134,#161,.T.);
#102=EDGE_CURVE('',#133,#135,#162,.T.);
#103=EDGE_CURVE('',#134,#136,#163,.T.);
#104=EDGE_CURVE('',#137,#136,#164,.T.);
#105=EDGE_CURVE('',#135,#137,#165,.T.);
#106=EDGE_CURVE('',#136,#138,#12,.T.);
#107=EDGE_CURVE('',#139,#138,#166,.T.);
#108=EDGE_CURVE('',#137,#139,#13,.T.);
#109=EDGE_CURVE('',#138,#140,#167,.T.);
#110=EDGE_CURVE('',#141,#140,#168,.T.);
#111=EDGE_CURVE('',#139,#141,#169,.T.);
#112=EDGE_CURVE('',#140,#142,#170,.T.);
#113=EDGE_CURVE('',#143,#142,#171,.T.);
#114=EDGE_CURVE('',#141,#143,#172,.T.);
#115=EDGE_CURVE('',#142,#144,#173,.T.);
#116=EDGE_CURVE('',#145,#144,#174,.T.);
#117=EDGE_CURVE('',#143,#145,#175,.T.);
#118=EDGE_CURVE('',#144,#146,#176,.T.);
#119=EDGE_CURVE('',#147,#146,#177,.T.);
#120=EDGE_CURVE('',#145,#147,#178,.T.);
#121=EDGE_CURVE('',#146,#148,#179,.T.);
#122=EDGE_CURVE('',#149,#148,#180,.T.);
#123=EDGE_CURVE('',#147,#149,#181,.T.);
#124=EDGE_CURVE('',#126,#148,#14,.T.);
#125=EDGE_CURVE('',#129,#149,#15,.T.);
#126=VERTEX_POINT('',#372);
#127=VERTEX_POINT('',#373);
#128=VERTEX_POINT('',#375);
#129=VERTEX_POINT('',#377);
#130=VERTEX_POINT('',#381);
#131=VERTEX_POINT('',#383);
#132=VERTEX_POINT('',#387);
#133=VERTEX_POINT('',#389);
#134=VERTEX_POINT('',#393);
#135=VERTEX_POINT('',#395);
#136=VERTEX_POINT('',#399);
#137=VERTEX_POINT('',#401);
#138=VERTEX_POINT('',#405);
#139=VERTEX_POINT('',#407);
#140=VERTEX_POINT('',#411);
#141=VERTEX_POINT('',#413);
#142=VERTEX_POINT('',#417);
#143=VERTEX_POINT('',#419);
#144=VERTEX_POINT('',#423);
#145=VERTEX_POINT('',#425);
#146=VERTEX_POINT('',#429);
#147=VERTEX_POINT('',#431);
#148=VERTEX_POINT('',#435);
#149=VERTEX_POINT('',#437);
#150=LINE('',#371,#182);
#151=LINE('',#374,#183);
#152=LINE('',#376,#184);
#153=LINE('',#378,#185);
#154=LINE('',#380,#186);
#155=LINE('',#382,#187);
#156=LINE('',#384,#188);
#157=LINE('',#386,#189);
#158=LINE('',#388,#190);
#159=LINE('',#390,#191);
#160=LINE('',#392,#192);
#161=LINE('',#394,#193);
#162=LINE('',#396,#194);
#163=LINE('',#398,#195);
#164=LINE('',#400,#196);
#165=LINE('',#402,#197);
#166=LINE('',#406,#198);
#167=LINE('',#410,#199);
#168=LINE('',#412,#200);
#169=LINE('',#414,#201);
#170=LINE('',#416,#202);
#171=LINE('',#418,#203);
#172=LINE('',#420,#204);
#173=LINE('',#422,#205);
#174=LINE('',#424,#206);
#175=LINE('',#426,#207);
#176=LINE('',#428,#208);
#177=LINE('',#430,#209);
#178=LINE('',#432,#210);
#179=LINE('',#434,#211);
#180=LINE('',#436,#212);
#181=LINE('',#438,#213);
#182=VECTOR('',#303,1.);
#183=VECTOR('',#304,1.);
#184=VECTOR('',#305,1.);
#185=VECTOR('',#306,1.);
#186=VECTOR('',#309,1.);
#187=VECTOR('',#310,1.);
#188=VECTOR('',#311,1.);
#189=VECTOR('',#314,1.);
#190=VECTOR('',#315,1.);
#191=VECTOR('',#316,1.);
#192=VECTOR('',#319,1.);
#193=VECTOR('',#320,1.);
#194=VECTOR('',#321,1.);
#195=VECTOR('',#324,1.);
#196=VECTOR('',#325,1.);
#197=VECTOR('',#326,1.);
#198=VECTOR('',#331,1.);
#199=VECTOR('',#336,1.);
#200=VECTOR('',#337,1.);
#201=VECTOR('',#338,1.);
#202=VECTOR('',#341,1.);
#203=VECTOR('',#342,1.);
#204=VECTOR('',#343,1.);
#205=VECTOR('',#346,1.);
#206=VECTOR('',#347,1.);
#207=VECTOR('',#348,1.);
#208=VECTOR('',#351,1.);
#209=VECTOR('',#352,1.);
#210=VECTOR('',#353,1.);
#211=VECTOR('',#356,1.);
#212=VECTOR('',#357,1.);
#213=VECTOR('',#358,1.);
#214=EDGE_LOOP('',(#18,#19,#20,#21));
#215=EDGE_LOOP('',(#22,#23,#24,#25));
#216=EDGE_LOOP('',(#26,#27,#28,#29));
#217=EDGE_LOOP('',(#30,#31,#32,#33));
#218=EDGE_LOOP('',(#34,#35,#36,#37));
#219=EDGE_LOOP('',(#38,#39,#40,#41));
#220=EDGE_LOOP('',(#42,#43,#44,#45));
#221=EDGE_LOOP('',(#46,#47,#48,#49));
#222=EDGE_LOOP('',(#50,#51,#52,#53));
#223=EDGE_LOOP('',(#54,#55,#56,#57));
#224=EDGE_LOOP('',(#58,#59,#60,#61));
#225=EDGE_LOOP('',(#62,#63,#64,#65));
#226=EDGE_LOOP('',(#66,#67,#68,#69,#70,#71,#72,#73,#74,#75,#76,#77));
#227=EDGE_LOOP('',(#78,#79,#80,#81,#82,#83,#84,#85,#86,#87,#88,#89));
#228=FACE_BOUND('',#214,.T.);
#229=FACE_BOUND('',#215,.T.);
#230=FACE_BOUND('',#216,.T.);
#231=FACE_BOUND('',#217,.T.);
#232=FACE_BOUND('',#218,.T.);
#233=FACE_BOUND('',#219,.T.);
#234=FACE_BOUND('',#220,.T.);
#235=FACE_BOUND('',#221,.T.);
#236=FACE_BOUND('',#222,.T.);
#237=FACE_BOUND('',#223,.T.);
#238=FACE_BOUND('',#224,.T.);
#239=FACE_BOUND('',#225,.T.);
#240=FACE_BOUND('',#226,.T.);
#241=FACE_BOUND('',#227,.T.);
#242=PLANE('',#281);
#243=PLANE('',#282);
#244=PLANE('',#283);
#245=PLANE('',#284);
#246=PLANE('',#285);
#247=PLANE('',#289);
#248=PLANE('',#290);
#249=PLANE('',#291);
#250=PLANE('',#292);
#251=PLANE('',#293);
#252=PLANE('',#297);
#253=PLANE('',#298);
#254=ADVANCED_FACE('',(#228),#242,.F.);
#255=ADVANCED_FACE('',(#229),#243,.F.);
#256=ADVANCED_FACE('',(#230),#244,.F.);
#257=ADVANCED_FACE('',(#231),#245,.F.);
#258=ADVANCED_FACE('',(#232),#246,.F.);
#259=ADVANCED_FACE('',(#233),#16,.T.);
#260=ADVANCED_FACE('',(#234),#247,.F.);
#261=ADVANCED_FACE('',(#235),#248,.F.);
#262=ADVANCED_FACE('',(#236),#249,.F.);
#263=ADVANCED_FACE('',(#237),#250,.F.);
#264=ADVANCED_FACE('',(#238),#251,.F.);
#265=ADVANCED_FACE('',(#239),#17,.F.);
#266=ADVANCED_FACE('',(#240),#252,.T.);
#267=ADVANCED_FACE('',(#241),#253,.F.);
#268=CLOSED_SHELL('',(#254,#255,#256,#257,#258,#259,#260,#261,#262,#263,
#264,#265,#266,#267));
#269=STYLED_ITEM('',(#270),#277);
#270=PRESENTATION_STYLE_ASSIGNMENT((#271));
#271=SURFACE_STYLE_USAGE(.BOTH.,#272);
#272=SURFACE_SIDE_STYLE('',(#273));
#273=SURFACE_STYLE_FILL_AREA(#274);
#274=FILL_AREA_STYLE('',(#275));
#275=FILL_AREA_STYLE_COLOUR('',#276);
#276=COLOUR_RGB('',0.647058823529412,0.647058823529412,0.647058823529412);
#277=MANIFOLD_SOLID_BREP('wire_holder',#268);
#278=SHAPE_DEFINITION_REPRESENTATION(#450,#279);
#279=SHAPE_REPRESENTATION('wire_holder',(#280),#445);
#280=AXIS2_PLACEMENT_3D('',#369,#299,#300);
#281=AXIS2_PLACEMENT_3D('',#370,#301,#302);
#282=AXIS2_PLACEMENT_3D('',#379,#307,#308);
#283=AXIS2_PLACEMENT_3D('',#385,#312,#313);
#284=AXIS2_PLACEMENT_3D('',#391,#317,#318);
#285=AXIS2_PLACEMENT_3D('',#397,#322,#323);
#286=AXIS2_PLACEMENT_3D('',#403,#327,#328);
#287=AXIS2_PLACEMENT_3D('',#404,#329,#330);
#288=AXIS2_PLACEMENT_3D('',#408,#332,#333);
#289=AXIS2_PLACEMENT_3D('',#409,#334,#335);
#290=AXIS2_PLACEMENT_3D('',#415,#339,#340);
#291=AXIS2_PLACEMENT_3D('',#421,#344,#345);
#292=AXIS2_PLACEMENT_3D('',#427,#349,#350);
#293=AXIS2_PLACEMENT_3D('',#433,#354,#355);
#294=AXIS2_PLACEMENT_3D('',#439,#359,#360);
#295=AXIS2_PLACEMENT_3D('',#440,#361,#362);
#296=AXIS2_PLACEMENT_3D('',#441,#363,#364);
#297=AXIS2_PLACEMENT_3D('',#442,#365,#366);
#298=AXIS2_PLACEMENT_3D('',#443,#367,#368);
#299=DIRECTION('',(0.,0.,1.));
#300=DIRECTION('',(1.,0.,0.));
#301=DIRECTION('',(1.,0.,0.));
#302=DIRECTION('',(0.,0.,-1.));
#303=DIRECTION('',(0.,-1.,0.));
#304=DIRECTION('',(0.,0.,-1.));
#305=DIRECTION('',(0.,-1.,0.));
#306=DIRECTION('',(0.,0.,-1.));
#307=DIRECTION('',(0.,1.,0.));
#308=DIRECTION('',(0.,0.,1.));
#309=DIRECTION('',(1.,0.,0.));
#310=DIRECTION('',(0.,0.,-1.));
#311=DIRECTION('',(1.,0.,0.));
#312=DIRECTION('',(-1.,0.,0.));
#313=DIRECTION('',(0.,0.,1.));
#314=DIRECTION('',(0.,1.,0.));
#315=DIRECTION('',(0.,0.,-1.));
#316=DIRECTION('',(0.,1.,0.));
#317=DIRECTION('',(0.,-1.,0.));
#318=DIRECTION('',(0.,0.,-1.));
#319=DIRECTION('',(-1.,0.,0.));
#320=DIRECTION('',(0.,0.,-1.));
#321=DIRECTION('',(-1.,0.,0.));
#322=DIRECTION('',(-1.,0.,0.));
#323=DIRECTION('',(0.,0.,1.));
#324=DIRECTION('',(0.,1.,0.));
#325=DIRECTION('',(0.,0.,-1.));
#326=DIRECTION('',(0.,1.,0.));
#327=DIRECTION('',(0.,0.,-1.));
#328=DIRECTION('',(-1.,0.,0.));
#329=DIRECTION('',(0.,0.,1.));
#330=DIRECTION('',(1.,0.,0.));
#331=DIRECTION('',(0.,0.,-1.));
#332=DIRECTION('',(0.,0.,1.));
#333=DIRECTION('',(1.,0.,0.));
#334=DIRECTION('',(1.,0.,0.));
#335=DIRECTION('',(0.,0.,-1.));
#336=DIRECTION('',(0.,-1.,0.));
#337=DIRECTION('',(0.,0.,-1.));
#338=DIRECTION('',(0.,-1.,0.));
#339=DIRECTION('',(0.,-1.,0.));
#340=DIRECTION('',(0.,0.,-1.));
#341=DIRECTION('',(-1.,0.,0.));
#342=DIRECTION('',(0.,0.,-1.));
#343=DIRECTION('',(-1.,0.,0.));
#344=DIRECTION('',(1.,0.,0.));
#345=DIRECTION('',(0.,0.,-1.));
#346=DIRECTION('',(0.,-1.,0.));
#347=DIRECTION('',(0.,0.,-1.));
#348=DIRECTION('',(0.,-1.,0.));
#349=DIRECTION('',(0.,1.,0.));
#350=DIRECTION('',(0.,0.,1.));
#351=DIRECTION('',(1.,0.,0.));
#352=DIRECTION('',(0.,0.,-1.));
#353=DIRECTION('',(1.,0.,0.));
#354=DIRECTION('',(-1.,0.,0.));
#355=DIRECTION('',(0.,0.,1.));
#356=DIRECTION('',(0.,1.,0.));
#357=DIRECTION('',(0.,0.,-1.));
#358=DIRECTION('',(0.,1.,0.));
#359=DIRECTION('',(0.,0.,-1.));
#360=DIRECTION('',(-1.,0.,0.));
#361=DIRECTION('',(0.,0.,1.));
#362=DIRECTION('',(1.,0.,0.));
#363=DIRECTION('',(0.,0.,1.));
#364=DIRECTION('',(1.,0.,0.));
#365=DIRECTION('',(0.,0.,1.));
#366=DIRECTION('',(1.,0.,0.));
#367=DIRECTION('',(0.,0.,1.));
#368=DIRECTION('',(1.,0.,0.));
#369=CARTESIAN_POINT('',(0.,0.,0.));
#370=CARTESIAN_POINT('',(0.127277923583984,0.0384254229420797,0.005));
#371=CARTESIAN_POINT('',(0.127277923583984,0.0384254229420797,0.));
#372=CARTESIAN_POINT('',(0.127277923583984,0.0433900777671865,0.));
#373=CARTESIAN_POINT('',(0.127277923583984,0.0349716036873684,0.));
#374=CARTESIAN_POINT('',(0.127277923583984,0.0349716036873684,0.005));
#375=CARTESIAN_POINT('',(0.127277923583984,0.0349716036873684,0.005));
#376=CARTESIAN_POINT('',(0.127277923583984,0.0384254229420797,0.005));
#377=CARTESIAN_POINT('',(0.127277923583984,0.0433900777671865,0.005));
#378=CARTESIAN_POINT('',(0.127277923583984,0.0433900777671865,0.005));
#379=CARTESIAN_POINT('',(0.128527923583984,0.0349716036873684,0.005));
#380=CARTESIAN_POINT('',(0.128527923583984,0.0349716036873684,0.));
#381=CARTESIAN_POINT('',(0.129777923583984,0.0349716036873684,0.));
#382=CARTESIAN_POINT('',(0.129777923583984,0.0349716036873684,0.005));
#383=CARTESIAN_POINT('',(0.129777923583984,0.0349716036873684,0.005));
#384=CARTESIAN_POINT('',(0.128527923583984,0.0349716036873684,0.005));
#385=CARTESIAN_POINT('',(0.129777923583984,0.0359716036873684,0.005));
#386=CARTESIAN_POINT('',(0.129777923583984,0.0359716036873684,0.));
#387=CARTESIAN_POINT('',(0.129777923583984,0.0369716036873684,0.));
#388=CARTESIAN_POINT('',(0.129777923583984,0.0369716036873684,0.005));
#389=CARTESIAN_POINT('',(0.129777923583984,0.0369716036873684,0.005));
#390=CARTESIAN_POINT('',(0.129777923583984,0.0359716036873684,0.005));
#391=CARTESIAN_POINT('',(0.129277923583984,0.0369716036873684,0.005));
#392=CARTESIAN_POINT('',(0.129277923583984,0.0369716036873684,0.));
#393=CARTESIAN_POINT('',(0.128777923583984,0.0369716036873684,0.));
#394=CARTESIAN_POINT('',(0.128777923583984,0.0369716036873684,0.005));
#395=CARTESIAN_POINT('',(0.128777923583984,0.0369716036873684,0.005));
#396=CARTESIAN_POINT('',(0.129277923583984,0.0369716036873684,0.005));
#397=CARTESIAN_POINT('',(0.128777923583984,0.0396216036873684,0.005));
#398=CARTESIAN_POINT('',(0.128777923583984,0.0396216036873684,0.));
#399=CARTESIAN_POINT('',(0.128777923583984,0.0422716036873684,0.));
#400=CARTESIAN_POINT('',(0.128777923583984,0.0422716036873684,0.005));
#401=CARTESIAN_POINT('',(0.128777923583984,0.0422716036873684,0.005));
#402=CARTESIAN_POINT('',(0.128777923583984,0.0396216036873684,0.005));
#403=CARTESIAN_POINT('',(0.126777923583984,0.0468541793823242,0.005));
#404=CARTESIAN_POINT('',(0.126777923583984,0.0468541793823242,0.));
#405=CARTESIAN_POINT('',(0.124777923583984,0.0422716036873684,0.));
#406=CARTESIAN_POINT('',(0.124777923583984,0.0422716036873684,0.005));
#407=CARTESIAN_POINT('',(0.124777923583984,0.0422716036873684,0.005));
#408=CARTESIAN_POINT('',(0.126777923583984,0.0468541793823242,0.005));
#409=CARTESIAN_POINT('',(0.124777923583984,0.0396216036873684,0.005));
#410=CARTESIAN_POINT('',(0.124777923583984,0.0396216036873684,0.));
#411=CARTESIAN_POINT('',(0.124777923583984,0.0369716036873684,0.));
#412=CARTESIAN_POINT('',(0.124777923583984,0.0369716036873684,0.005));
#413=CARTESIAN_POINT('',(0.124777923583984,0.0369716036873684,0.005));
#414=CARTESIAN_POINT('',(0.124777923583984,0.0396216036873684,0.005));
#415=CARTESIAN_POINT('',(0.124277923583984,0.0369716036873684,0.005));
#416=CARTESIAN_POINT('',(0.124277923583984,0.0369716036873684,0.));
#417=CARTESIAN_POINT('',(0.123777923583984,0.0369716036873684,0.));
#418=CARTESIAN_POINT('',(0.123777923583984,0.0369716036873684,0.005));
#419=CARTESIAN_POINT('',(0.123777923583984,0.0369716036873684,0.005));
#420=CARTESIAN_POINT('',(0.124277923583984,0.0369716036873684,0.005));
#421=CARTESIAN_POINT('',(0.123777923583984,0.0359716036873684,0.005));
#422=CARTESIAN_POINT('',(0.123777923583984,0.0359716036873684,0.));
#423=CARTESIAN_POINT('',(0.123777923583984,0.0349716036873684,0.));
#424=CARTESIAN_POINT('',(0.123777923583984,0.0349716036873684,0.005));
#425=CARTESIAN_POINT('',(0.123777923583984,0.0349716036873684,0.005));
#426=CARTESIAN_POINT('',(0.123777923583984,0.0359716036873684,0.005));
#427=CARTESIAN_POINT('',(0.125027923583984,0.0349716036873684,0.005));
#428=CARTESIAN_POINT('',(0.125027923583984,0.0349716036873684,0.));
#429=CARTESIAN_POINT('',(0.126277923583984,0.0349716036873684,0.));
#430=CARTESIAN_POINT('',(0.126277923583984,0.0349716036873684,0.005));
#431=CARTESIAN_POINT('',(0.126277923583984,0.0349716036873684,0.005));
#432=CARTESIAN_POINT('',(0.125027923583984,0.0349716036873684,0.005));
#433=CARTESIAN_POINT('',(0.126277923583984,0.0384254229420797,0.005));
#434=CARTESIAN_POINT('',(0.126277923583984,0.0384254229420797,0.));
#435=CARTESIAN_POINT('',(0.126277923583984,0.0433900777671865,0.));
#436=CARTESIAN_POINT('',(0.126277923583984,0.0433900777671865,0.005));
#437=CARTESIAN_POINT('',(0.126277923583984,0.0433900777671865,0.005));
#438=CARTESIAN_POINT('',(0.126277923583984,0.0384254229420797,0.005));
#439=CARTESIAN_POINT('',(0.126777923583984,0.0468541793823242,0.005));
#440=CARTESIAN_POINT('',(0.126777923583984,0.0468541793823242,0.));
#441=CARTESIAN_POINT('',(0.126777923583984,0.0468541793823242,0.005));
#442=CARTESIAN_POINT('',(0.126777923583984,0.0434128915348463,0.005));
#443=CARTESIAN_POINT('',(0.126777923583984,0.0434128915348463,0.));
#444=MECHANICAL_DESIGN_GEOMETRIC_PRESENTATION_REPRESENTATION('',(#269),
#445);
#445=(
GEOMETRIC_REPRESENTATION_CONTEXT(3)
GLOBAL_UNCERTAINTY_ASSIGNED_CONTEXT((#446))
GLOBAL_UNIT_ASSIGNED_CONTEXT((#449,#448,#447))
REPRESENTATION_CONTEXT('wire_holder','TOP_LEVEL_ASSEMBLY_PART')
);
#446=UNCERTAINTY_MEASURE_WITH_UNIT(LENGTH_MEASURE(1.E-8),#449,
'DISTANCE_ACCURACY_VALUE','Maximum Tolerance applied to model');
#447=(
NAMED_UNIT(*)
SI_UNIT($,.STERADIAN.)
SOLID_ANGLE_UNIT()
);
#448=(
NAMED_UNIT(*)
PLANE_ANGLE_UNIT()
SI_UNIT($,.RADIAN.)
);
#449=(
LENGTH_UNIT()
NAMED_UNIT(*)
SI_UNIT($,.METRE.)
);
#450=PRODUCT_DEFINITION_SHAPE('','',#451);
#451=PRODUCT_DEFINITION('','',#453,#452);
#452=PRODUCT_DEFINITION_CONTEXT('',#459,'design');
#453=PRODUCT_DEFINITION_FORMATION_WITH_SPECIFIED_SOURCE('','',#455,
 .NOT_KNOWN.);
#454=PRODUCT_RELATED_PRODUCT_CATEGORY('','',(#455));
#455=PRODUCT('wire_holder','wire_holder','wire_holder',(#457));
#456=PRODUCT_CATEGORY('','');
#457=PRODUCT_CONTEXT('',#459,'mechanical');
#458=APPLICATION_PROTOCOL_DEFINITION('international standard',
'ap242_managed_model_based_3d_engineering',2020,#459);
#459=APPLICATION_CONTEXT('managed model based 3d engineering');
ENDSEC;
END-ISO-10303-21;
